G04*
G04 #@! TF.GenerationSoftware,Altium Limited,Altium Designer,23.3.1 (30)*
G04*
G04 Layer_Color=32896*
%FSLAX25Y25*%
%MOIN*%
G70*
G04*
G04 #@! TF.SameCoordinates,4397C4A1-B4A0-4737-946D-6E65BF44214A*
G04*
G04*
G04 #@! TF.FilePolarity,Positive*
G04*
G01*
G75*
%ADD13C,0.00787*%
%ADD156R,0.13362X0.01909*%
%ADD157R,0.01909X0.01909*%
%ADD158R,0.05728X0.01909*%
%ADD159R,0.01909X0.01906*%
%ADD160R,0.05724X0.01906*%
%ADD161R,0.03815X0.01906*%
%ADD162R,0.01906X0.01906*%
%ADD163R,0.05728X0.01909*%
%ADD164R,0.03819X0.01909*%
%ADD165R,0.17177X0.01909*%
%ADD166R,0.09547X0.01909*%
%ADD167R,0.07634X0.01909*%
%ADD168R,0.01909X0.01909*%
%ADD169R,0.05728X0.01909*%
%ADD170R,0.01909X0.01909*%
%ADD171R,0.09543X0.01909*%
%ADD172R,0.09543X0.01909*%
%ADD173R,0.03819X0.01909*%
%ADD174R,0.01909X0.01909*%
%ADD175R,0.05724X0.01909*%
%ADD176R,0.01909X0.01906*%
%ADD177R,0.09543X0.01906*%
%ADD178R,0.11453X0.01909*%
%ADD179R,0.03815X0.01909*%
%ADD180R,0.01906X0.01909*%
%ADD181R,0.07638X0.01909*%
%ADD182R,0.07634X0.01909*%
%ADD183R,0.09543X0.01909*%
%ADD184R,0.05728X0.01906*%
%ADD185R,0.11453X0.01906*%
%ADD186R,0.05728X0.01906*%
%ADD187R,0.13362X0.01909*%
%ADD188R,0.11453X0.01909*%
%ADD189R,0.03819X0.01909*%
%ADD190R,0.07634X0.01909*%
%ADD191R,0.09543X0.01909*%
%ADD192R,0.03819X0.01906*%
%ADD193R,0.09543X0.01906*%
G36*
X446000Y349000D02*
X446140Y349000D01*
X446419Y348978D01*
X446696Y348934D01*
X446969Y348869D01*
X447235Y348782D01*
X447494Y348675D01*
X447743Y348548D01*
X447982Y348401D01*
X448209Y348237D01*
X448422Y348055D01*
X448620Y347857D01*
X448802Y347644D01*
X448967Y347417D01*
X449113Y347178D01*
X449240Y346929D01*
X449347Y346670D01*
X449434Y346403D01*
X449499Y346131D01*
X449543Y345854D01*
X449565Y345575D01*
X449565Y345435D01*
X449565Y345295D01*
X449543Y345016D01*
X449499Y344739D01*
X449434Y344466D01*
X449347Y344200D01*
X449240Y343941D01*
X449113Y343692D01*
X448967Y343453D01*
X448802Y343226D01*
X448620Y343013D01*
X448422Y342815D01*
X448209Y342633D01*
X447982Y342468D01*
X447743Y342322D01*
X447494Y342195D01*
X447235Y342088D01*
X446969Y342001D01*
X446696Y341936D01*
X446419Y341892D01*
X446140Y341870D01*
X444898D01*
Y343876D01*
X445095Y343678D01*
X445142Y343634D01*
X445241Y343552D01*
X445347Y343481D01*
X445460Y343421D01*
X445579Y343372D01*
X445701Y343334D01*
X445827Y343309D01*
X445955Y343297D01*
X446019Y343295D01*
X446196D01*
X446282Y343297D01*
X446454Y343314D01*
X446623Y343348D01*
X446788Y343398D01*
X446947Y343464D01*
X447099Y343545D01*
X447242Y343641D01*
X447375Y343750D01*
X447437Y343810D01*
X447505Y343881D01*
X447630Y344032D01*
X447739Y344196D01*
X447831Y344369D01*
X447906Y344550D01*
X447963Y344738D01*
X448002Y344930D01*
X448021Y345126D01*
X448023Y345224D01*
X448023Y345224D01*
Y345533D01*
X448021Y345637D01*
X448000Y345845D01*
X447960Y346050D01*
X447899Y346250D01*
X447819Y346443D01*
X447721Y346627D01*
X447605Y346801D01*
X447472Y346962D01*
X447400Y347038D01*
X447345Y347090D01*
X447228Y347186D01*
X447102Y347270D01*
X446969Y347342D01*
X446829Y347400D01*
X446684Y347444D01*
X446535Y347473D01*
X446385Y347488D01*
X446309Y347490D01*
Y347490D01*
X446143Y347490D01*
X446064Y347488D01*
X445906Y347472D01*
X445750Y347441D01*
X445598Y347395D01*
X445451Y347334D01*
X445311Y347259D01*
X445179Y347171D01*
X445056Y347070D01*
X444999Y347016D01*
X444999Y347016D01*
X444898Y346915D01*
X444898Y347454D01*
X443545D01*
Y341870D01*
X431137D01*
X430997Y341870D01*
X430719Y341892D01*
X430442Y341935D01*
X430171Y342001D01*
X429905Y342087D01*
X429647Y342194D01*
X429398Y342321D01*
X429160Y342467D01*
X428934Y342631D01*
X428721Y342812D01*
X428523Y343010D01*
X428342Y343222D01*
X428178Y343449D01*
X428032Y343687D01*
X427905Y343936D01*
X427798Y344194D01*
X427712Y344460D01*
X427646Y344731D01*
X427603Y345007D01*
X427581Y345286D01*
X427581Y345426D01*
X427581Y345566D01*
X427603Y345846D01*
X427647Y346124D01*
X427712Y346397D01*
X427799Y346664D01*
X427907Y346923D01*
X428034Y347174D01*
X428181Y347413D01*
X428346Y347640D01*
X428528Y347854D01*
X428727Y348052D01*
X428941Y348235D01*
X429168Y348400D01*
X429407Y348547D01*
X429658Y348674D01*
X429917Y348782D01*
X430184Y348868D01*
X430457Y348934D01*
X430735Y348978D01*
X431015Y349000D01*
X431155Y349000D01*
Y349000D01*
X446000Y349000D01*
D02*
G37*
G36*
X282000Y345000D02*
X262000D01*
Y351000D01*
X282000D01*
Y345000D01*
D02*
G37*
G36*
X446278Y346271D02*
X446525Y346024D01*
X446660Y345700D01*
Y345525D01*
Y345235D01*
Y345060D01*
X446525Y344736D01*
X446278Y344488D01*
X445954Y344354D01*
X445605D01*
X445284Y344487D01*
X445039Y344733D01*
X444906Y345054D01*
Y345227D01*
X444914Y345601D01*
Y345759D01*
X445035Y346051D01*
X445259Y346275D01*
X445551Y346396D01*
X445874D01*
X445779Y346406D01*
X445954D01*
X446278Y346271D01*
D02*
G37*
G36*
X434389Y314677D02*
X437018Y314155D01*
X439583Y313377D01*
X440821Y312865D01*
X440821D01*
X440974Y312802D01*
X441221Y312579D01*
X441377Y312286D01*
X441426Y311957D01*
X441362Y311631D01*
X441191Y311346D01*
X440934Y311136D01*
X440621Y311024D01*
X440455D01*
X439294Y311718D01*
X436868Y312915D01*
X434327Y313843D01*
X431702Y314493D01*
X430366Y314711D01*
X430322Y314717D01*
X430264Y314787D01*
X430270Y314877D01*
X430337Y314939D01*
X430382Y314939D01*
X431722Y314939D01*
X434389Y314677D01*
D02*
G37*
G36*
X442913Y296260D02*
X429331D01*
Y298228D01*
X442913D01*
Y296260D01*
D02*
G37*
G36*
X361459Y295000D02*
X361459Y295000D01*
X361328Y294990D01*
X361066Y294965D01*
X360805Y294933D01*
X360545Y294892D01*
X360286Y294845D01*
X360029Y294790D01*
X359774Y294727D01*
X359521Y294658D01*
X359269Y294581D01*
X359020Y294496D01*
X358774Y294405D01*
X358530Y294306D01*
X358289Y294201D01*
X358051Y294088D01*
X357817Y293969D01*
X357586Y293843D01*
X357359Y293710D01*
X357136Y293571D01*
X356917Y293426D01*
X356703Y293274D01*
X356492Y293116D01*
X356287Y292952D01*
X356086Y292783D01*
X355890Y292607D01*
X355700Y292426D01*
X355514Y292240D01*
X355334Y292048D01*
X355160Y291851D01*
X354992Y291649D01*
X354829Y291443D01*
X354673Y291231D01*
X354522Y291016D01*
X354378Y290796D01*
X354240Y290572D01*
X354109Y290344D01*
X353984Y290112D01*
X353867Y289878D01*
X353756Y289639D01*
X353652Y289398D01*
X353555Y289153D01*
X353465Y288906D01*
X353382Y288657D01*
X353307Y288405D01*
X353238Y288151D01*
X353177Y287895D01*
X353124Y287638D01*
X353078Y287379D01*
X353040Y287119D01*
X353009Y286858D01*
X352985Y286596D01*
X352969Y286333D01*
X352961Y286071D01*
X352960Y285939D01*
X352955Y285809D01*
X352951Y285548D01*
X352955Y285288D01*
X352967Y285027D01*
X352987Y284767D01*
X353014Y284508D01*
X353049Y284250D01*
X353091Y283992D01*
X353141Y283736D01*
X353199Y283482D01*
X353264Y283230D01*
X353337Y282979D01*
X353417Y282731D01*
X353505Y282486D01*
X353600Y282243D01*
X353702Y282003D01*
X353811Y281766D01*
X353927Y281533D01*
X354050Y281303D01*
X354179Y281077D01*
X354316Y280854D01*
X354458Y280636D01*
X354608Y280422D01*
X354763Y280213D01*
X354925Y280009D01*
X355093Y279809D01*
X355266Y279615D01*
X355446Y279425D01*
X355630Y279242D01*
X355821Y279063D01*
X356016Y278891D01*
X356217Y278724D01*
X356422Y278563D01*
X356632Y278409D01*
X356846Y278261D01*
X357065Y278119D01*
X357288Y277984D01*
X357515Y277855D01*
X357746Y277734D01*
X357980Y277619D01*
X358217Y277511D01*
X358458Y277410D01*
X358701Y277317D01*
X358947Y277231D01*
X359196Y277152D01*
X359446Y277080D01*
X359699Y277016D01*
X359954Y276960D01*
X360210Y276911D01*
X360467Y276870D01*
X360726Y276836D01*
X360985Y276810D01*
X361115Y276800D01*
X353780Y267835D01*
X340000Y287126D01*
Y295000D01*
X361459Y295000D01*
D02*
G37*
G36*
X369921Y265472D02*
X357323D01*
X367953Y278465D01*
Y280433D01*
X362340D01*
X362140Y280441D01*
X361939Y280457D01*
X361740Y280480D01*
X361541Y280512D01*
X361344Y280551D01*
X361148Y280598D01*
X360955Y280652D01*
X360764Y280715D01*
X360575Y280784D01*
X360389Y280861D01*
X360207Y280945D01*
X360028Y281036D01*
X359852Y281135D01*
X359681Y281240D01*
X359514Y281351D01*
X359351Y281470D01*
X359193Y281594D01*
X359041Y281725D01*
X358893Y281861D01*
X358751Y282003D01*
X358614Y282151D01*
X358484Y282304D01*
X358359Y282462D01*
X358241Y282624D01*
X358130Y282791D01*
X358025Y282963D01*
X357926Y283138D01*
X357835Y283317D01*
X357751Y283500D01*
X357674Y283685D01*
X357604Y283874D01*
X357542Y284065D01*
X357488Y284259D01*
X357441Y284454D01*
X357402Y284651D01*
X357370Y284850D01*
X357347Y285049D01*
X357331Y285250D01*
X357323Y285451D01*
Y285551D01*
Y285652D01*
X357331Y285853D01*
X357347Y286053D01*
X357370Y286252D01*
X357402Y286451D01*
X357441Y286648D01*
X357488Y286844D01*
X357542Y287037D01*
X357604Y287228D01*
X357674Y287417D01*
X357751Y287603D01*
X357835Y287785D01*
X357926Y287964D01*
X358025Y288140D01*
X358130Y288311D01*
X358241Y288478D01*
X358359Y288641D01*
X358484Y288799D01*
X358614Y288951D01*
X358751Y289099D01*
X358893Y289241D01*
X359041Y289378D01*
X359193Y289508D01*
X359351Y289633D01*
X359514Y289751D01*
X359681Y289863D01*
X359852Y289968D01*
X360028Y290066D01*
X360207Y290157D01*
X360389Y290241D01*
X360575Y290318D01*
X360764Y290388D01*
X360955Y290450D01*
X361148Y290504D01*
X361344Y290551D01*
X361541Y290591D01*
X361740Y290622D01*
X361939Y290646D01*
X362140Y290661D01*
X362340Y290669D01*
X369921D01*
Y265472D01*
D02*
G37*
G36*
X350236D02*
X340000D01*
Y279646D01*
X350236Y265472D01*
D02*
G37*
G36*
X380157Y254842D02*
X378583D01*
Y257992D01*
X373465D01*
X371496Y254842D01*
X369528D01*
X371496Y257992D01*
X371441D01*
X371330Y257998D01*
X371221Y258011D01*
X371112Y258029D01*
X371004Y258054D01*
X370898Y258084D01*
X370794Y258121D01*
X370692Y258163D01*
X370592Y258211D01*
X370496Y258264D01*
X370402Y258323D01*
X370312Y258387D01*
X370226Y258456D01*
X370143Y258530D01*
X370065Y258608D01*
X369991Y258690D01*
X369923Y258776D01*
X369859Y258867D01*
X369800Y258960D01*
X369746Y259057D01*
X369699Y259156D01*
X369656Y259258D01*
X369620Y259363D01*
X369589Y259469D01*
X369565Y259576D01*
X369546Y259685D01*
X369534Y259795D01*
X369528Y259905D01*
Y259961D01*
X369528Y260027D01*
X369535Y260159D01*
X369550Y260291D01*
X369572Y260422D01*
X369601Y260551D01*
X369638Y260678D01*
X369682Y260803D01*
X369733Y260926D01*
X369790Y261045D01*
X369854Y261161D01*
X369925Y261274D01*
X370002Y261382D01*
X370084Y261485D01*
X370173Y261584D01*
X370266Y261678D01*
X370365Y261766D01*
X370469Y261849D01*
X370577Y261926D01*
X370689Y261996D01*
X370805Y262060D01*
X370924Y262118D01*
X371047Y262168D01*
X371172Y262212D01*
X371300Y262249D01*
X371429Y262278D01*
X371559Y262300D01*
X371691Y262315D01*
X371824Y262323D01*
X371890Y262323D01*
X380157Y262323D01*
Y254842D01*
D02*
G37*
G36*
X363425Y262323D02*
X363486Y262323D01*
X363607Y262316D01*
X363728Y262302D01*
X363848Y262282D01*
X363966Y262255D01*
X364083Y262221D01*
X364198Y262181D01*
X364310Y262135D01*
X364420Y262082D01*
X364526Y262023D01*
X364629Y261959D01*
X364728Y261888D01*
X364823Y261812D01*
X364913Y261732D01*
X364999Y261646D01*
X365080Y261555D01*
X365156Y261460D01*
X365226Y261361D01*
X365291Y261258D01*
X365350Y261152D01*
X365402Y261042D01*
X365449Y260930D01*
X365489Y260815D01*
X365523Y260699D01*
X365541Y260620D01*
X365590Y260163D01*
X365591Y260157D01*
X365591Y260157D01*
X365540Y259672D01*
X365517Y259567D01*
X365480Y259440D01*
X365436Y259315D01*
X365385Y259192D01*
X365328Y259073D01*
X365264Y258957D01*
X365193Y258844D01*
X365117Y258736D01*
X365034Y258633D01*
X364946Y258534D01*
X364852Y258440D01*
X364753Y258352D01*
X364649Y258269D01*
X364541Y258192D01*
X364429Y258122D01*
X364313Y258058D01*
X364194Y258000D01*
X364071Y257950D01*
X363946Y257906D01*
X363819Y257869D01*
X363708Y257844D01*
X363228Y257795D01*
Y257795D01*
X357126Y257795D01*
X357093Y257795D01*
X357027Y257789D01*
X356962Y257778D01*
X356898Y257762D01*
X356835Y257740D01*
X356775Y257713D01*
X356717Y257681D01*
X356662Y257644D01*
X356610Y257603D01*
X356562Y257558D01*
X356518Y257508D01*
X356478Y257455D01*
X356443Y257400D01*
X356412Y257341D01*
X356387Y257280D01*
X356367Y257217D01*
X356359Y257185D01*
X356360Y257147D01*
X356367Y257072D01*
X356382Y256998D01*
X356403Y256926D01*
X356432Y256856D01*
X356468Y256790D01*
X356510Y256728D01*
X356557Y256669D01*
X356611Y256616D01*
X356669Y256568D01*
X356732Y256526D01*
X356798Y256491D01*
X356868Y256462D01*
X356940Y256440D01*
X357013Y256426D01*
X357088Y256418D01*
X357126Y256417D01*
X357126Y256417D01*
X365591Y256417D01*
Y254842D01*
X357126Y254842D01*
X357060Y254842D01*
X356927Y254850D01*
X356796Y254865D01*
X356665Y254887D01*
X356536Y254916D01*
X356408Y254953D01*
X356283Y254997D01*
X356161Y255048D01*
X356041Y255105D01*
X355925Y255169D01*
X355813Y255240D01*
X355705Y255316D01*
X355601Y255399D01*
X355503Y255487D01*
X355409Y255581D01*
X355320Y255680D01*
X355238Y255784D01*
X355161Y255892D01*
X355091Y256004D01*
X355027Y256120D01*
X354969Y256240D01*
X354918Y256362D01*
X354874Y256487D01*
X354838Y256614D01*
X354808Y256744D01*
X354786Y256874D01*
X354771Y257006D01*
X354764Y257138D01*
X354764Y257205D01*
X354764Y257265D01*
X354771Y257387D01*
X354784Y257507D01*
X354805Y257627D01*
X354832Y257746D01*
X354865Y257862D01*
X354905Y257977D01*
X354952Y258089D01*
X355005Y258199D01*
X355063Y258305D01*
X355128Y258408D01*
X355198Y258507D01*
X355274Y258602D01*
X355355Y258693D01*
X355441Y258779D01*
X355532Y258860D01*
X355627Y258935D01*
X355726Y259006D01*
X355828Y259070D01*
X355935Y259129D01*
X356044Y259182D01*
X356157Y259228D01*
X356271Y259269D01*
X356388Y259302D01*
X356506Y259329D01*
X356626Y259350D01*
X356747Y259363D01*
X356868Y259370D01*
X356929Y259370D01*
X356929Y259370D01*
X363032D01*
X363070Y259371D01*
X363147Y259379D01*
X363223Y259394D01*
X363297Y259416D01*
X363368Y259446D01*
X363436Y259482D01*
X363501Y259525D01*
X363560Y259574D01*
X363615Y259629D01*
X363664Y259688D01*
X363707Y259753D01*
X363743Y259821D01*
X363773Y259892D01*
X363795Y259966D01*
X363810Y260042D01*
X363818Y260119D01*
X363819Y260157D01*
X363819Y260157D01*
X363819Y260158D01*
X363818Y260186D01*
X363812Y260244D01*
X363801Y260301D01*
X363784Y260356D01*
X363762Y260410D01*
X363762Y260410D01*
X363735Y260461D01*
X363735Y260461D01*
X363703Y260509D01*
X363703Y260509D01*
X363666Y260554D01*
X363666Y260554D01*
X363625Y260595D01*
X363580Y260632D01*
X363532Y260664D01*
X363481Y260691D01*
X363427Y260714D01*
X363372Y260730D01*
X363315Y260742D01*
X363257Y260747D01*
X363228Y260748D01*
X354764D01*
Y262323D01*
X363425Y262323D01*
D02*
G37*
G36*
X342165Y257795D02*
X339016D01*
Y259370D01*
X342165D01*
Y257795D01*
D02*
G37*
G36*
X335276Y254842D02*
X333110D01*
X328780Y262323D01*
X330748D01*
X334095Y256417D01*
X337638Y262323D01*
X339606D01*
X335276Y254842D01*
D02*
G37*
G36*
X350236Y262323D02*
X350318Y262323D01*
X350481Y262316D01*
X350643Y262301D01*
X350805Y262280D01*
X350966Y262252D01*
X351125Y262216D01*
X351283Y262174D01*
X351439Y262125D01*
X351592Y262069D01*
X351743Y262007D01*
X351891Y261938D01*
X352036Y261862D01*
X352177Y261781D01*
X352315Y261693D01*
X352448Y261600D01*
X352578Y261500D01*
X352703Y261395D01*
X352823Y261285D01*
X352939Y261170D01*
X353049Y261049D01*
X353154Y260924D01*
X353253Y260795D01*
X353347Y260661D01*
X353434Y260523D01*
X353516Y260382D01*
X353591Y260237D01*
X353660Y260089D01*
X353723Y259939D01*
X353779Y259785D01*
X353828Y259630D01*
X353870Y259472D01*
X353905Y259313D01*
X353934Y259152D01*
X353955Y258990D01*
X353969Y258827D01*
X353976Y258664D01*
X353976Y258583D01*
X353976Y258583D01*
X353944Y258096D01*
X353934Y258014D01*
X353905Y257853D01*
X353870Y257694D01*
X353828Y257536D01*
X353779Y257380D01*
X353723Y257227D01*
X353660Y257076D01*
X353591Y256928D01*
X353516Y256783D01*
X353434Y256642D01*
X353347Y256504D01*
X353253Y256371D01*
X353154Y256241D01*
X353049Y256116D01*
X352939Y255996D01*
X352823Y255880D01*
X352703Y255770D01*
X352578Y255665D01*
X352448Y255566D01*
X352315Y255472D01*
X352177Y255384D01*
X352036Y255303D01*
X351891Y255227D01*
X351743Y255158D01*
X351592Y255096D01*
X351439Y255040D01*
X351283Y254991D01*
X351125Y254949D01*
X350966Y254913D01*
X350805Y254885D01*
X350723Y254874D01*
X350236Y254842D01*
X350236Y254842D01*
X350236Y254842D01*
X343150D01*
Y256417D01*
X350236D01*
X350295Y256418D01*
X350413Y256425D01*
X350530Y256439D01*
X350646Y256460D01*
X350760Y256488D01*
X350873Y256523D01*
X350983Y256564D01*
X351091Y256612D01*
X351195Y256667D01*
X351296Y256727D01*
X351394Y256794D01*
X351487Y256866D01*
X351576Y256943D01*
X351660Y257026D01*
X351739Y257114D01*
X351812Y257206D01*
X351880Y257302D01*
X351942Y257403D01*
X351997Y257506D01*
X352047Y257613D01*
X352090Y257723D01*
X352126Y257835D01*
X352156Y257949D01*
X352178Y258065D01*
X352194Y258182D01*
X352203Y258299D01*
X352204Y258417D01*
X352199Y258535D01*
X352194Y258594D01*
X352193Y258649D01*
X352187Y258758D01*
X352174Y258867D01*
X352156Y258976D01*
X352132Y259083D01*
X352101Y259188D01*
X352065Y259292D01*
X352023Y259393D01*
X351975Y259492D01*
X351922Y259588D01*
X351864Y259681D01*
X351800Y259771D01*
X351732Y259857D01*
X351659Y259939D01*
X351581Y260016D01*
X351499Y260089D01*
X351413Y260158D01*
X351324Y260221D01*
X351231Y260280D01*
X351135Y260333D01*
X351036Y260380D01*
X350934Y260422D01*
X350831Y260459D01*
X350725Y260489D01*
X350618Y260513D01*
X350618Y260513D01*
X350510Y260532D01*
X350510Y260532D01*
X350401Y260544D01*
X350400Y260544D01*
X350291Y260550D01*
X350237Y260551D01*
X350236Y260551D01*
X350236Y260551D01*
X350236Y260551D01*
X343150D01*
Y262323D01*
X350236Y262323D01*
D02*
G37*
G36*
X368347Y254842D02*
X366575D01*
Y262323D01*
X368347D01*
Y254842D01*
D02*
G37*
G36*
X411171Y296874D02*
X406243Y291742D01*
X406097Y290342D01*
X405776Y286989D01*
X405543Y284569D01*
X410821Y279116D01*
X410471Y278766D01*
X405485Y283869D01*
X405193Y280749D01*
X405047D01*
Y279553D01*
X403939D01*
Y280749D01*
X400498D01*
X400382Y280515D01*
X400207Y280282D01*
X399973Y280020D01*
X399653Y279786D01*
X399273Y279670D01*
X398924Y279641D01*
X398574D01*
X398311Y279728D01*
X397990Y279845D01*
X397728Y280020D01*
X397524Y280224D01*
X397320Y280515D01*
X397174Y280836D01*
X397087Y281128D01*
X397057Y281390D01*
X397087Y281682D01*
X397145Y281915D01*
X397232Y282148D01*
X397349Y282382D01*
X397495Y282586D01*
X397699Y282790D01*
X397932Y282936D01*
X398136Y283023D01*
X398107Y283286D01*
X393733Y278766D01*
X393383Y279145D01*
X398049Y283985D01*
X397670Y288214D01*
X397407Y291275D01*
X396008D01*
Y293229D01*
X396387D01*
X392829Y296874D01*
X393208Y297224D01*
X396533Y293783D01*
Y294046D01*
X396474Y294104D01*
X396387Y294162D01*
X396299Y294250D01*
X396212Y294337D01*
X396153Y294483D01*
X396124Y294600D01*
X396095Y294745D01*
X396124Y294920D01*
X396183Y295037D01*
X396299Y295241D01*
X396445Y295358D01*
X396649Y295445D01*
X396853Y295475D01*
X397057Y295445D01*
X397232Y295387D01*
X397378Y295300D01*
X397436Y295212D01*
X397582Y295329D01*
X397786Y295475D01*
X398049Y295591D01*
X398428Y295737D01*
X398836Y295853D01*
X399244Y295941D01*
X399682Y296028D01*
X400032Y296058D01*
Y296495D01*
X402831D01*
Y296116D01*
X403064D01*
X403414Y296087D01*
X403793Y296028D01*
X404172Y295970D01*
Y296203D01*
X405368D01*
Y295649D01*
X405514Y295562D01*
X405718Y295475D01*
X405922Y295358D01*
X406097Y295241D01*
X406272Y295095D01*
X406389Y294979D01*
X406447Y294891D01*
X406505Y294775D01*
X406476Y294570D01*
X407176D01*
Y293667D01*
X406418D01*
X406301Y292529D01*
X410821Y297224D01*
X411171Y296874D01*
D02*
G37*
G36*
X410121Y274742D02*
Y274683D01*
Y274567D01*
Y274450D01*
Y274334D01*
Y274217D01*
Y274159D01*
Y274129D01*
Y273663D01*
Y273225D01*
Y273021D01*
Y272875D01*
Y272788D01*
Y272759D01*
Y272234D01*
Y272001D01*
Y271796D01*
Y271622D01*
Y271505D01*
Y271417D01*
Y271388D01*
Y271184D01*
Y271038D01*
Y270922D01*
Y270863D01*
Y270776D01*
X394170D01*
Y270805D01*
Y270863D01*
Y271097D01*
Y271301D01*
Y271359D01*
Y271388D01*
Y271855D01*
Y272292D01*
Y272496D01*
Y272642D01*
Y272730D01*
Y272759D01*
Y273284D01*
Y273517D01*
Y273721D01*
Y273896D01*
Y274013D01*
Y274100D01*
Y274129D01*
Y274334D01*
Y274508D01*
Y274625D01*
Y274683D01*
Y274742D01*
Y274771D01*
X410121D01*
Y274742D01*
D02*
G37*
G36*
X439195Y293538D02*
Y293465D01*
Y293392D01*
X439997Y289529D01*
Y289383D01*
X440070Y289310D01*
X440143D01*
X442767Y288217D01*
X443059D01*
X446266Y290549D01*
X446485D01*
X446558Y290476D01*
X449401Y287779D01*
Y287706D01*
Y287633D01*
Y287560D01*
Y287488D01*
X447141Y284207D01*
Y284134D01*
Y284061D01*
Y283988D01*
Y283915D01*
X448235Y281218D01*
X448453Y281072D01*
X448526D01*
X452244Y280416D01*
X452317D01*
X452390Y280343D01*
Y280270D01*
Y280198D01*
Y276334D01*
Y276188D01*
X452317Y276115D01*
X452244D01*
X448599Y275386D01*
X448526D01*
X448453Y275313D01*
Y275240D01*
Y275167D01*
X447214Y272324D01*
Y272252D01*
Y272179D01*
Y272106D01*
Y272033D01*
X449401Y268971D01*
Y268898D01*
Y268825D01*
Y268752D01*
X446558Y265982D01*
X446412Y265909D01*
X446339D01*
X446266Y265982D01*
X443277Y268023D01*
X443059D01*
X441746Y267294D01*
X441528Y267367D01*
X441455D01*
X438758Y274001D01*
Y274220D01*
X438830Y274293D01*
X439195Y274439D01*
Y274511D01*
X439268D01*
X439341Y274584D01*
X439414Y274657D01*
X440070Y275167D01*
X440580Y275678D01*
X440872Y276261D01*
X441163Y276844D01*
X441309Y277354D01*
X441382Y277792D01*
Y278083D01*
Y278156D01*
X441309Y278812D01*
X441163Y279396D01*
X441017Y279906D01*
X440726Y280343D01*
X440507Y280708D01*
X440361Y280999D01*
X440215Y281145D01*
X440143Y281218D01*
X439632Y281656D01*
X439122Y281947D01*
X438612Y282239D01*
X438101Y282384D01*
X437737Y282457D01*
X437372Y282530D01*
X437081D01*
X436425Y282457D01*
X435842Y282312D01*
X435331Y282093D01*
X434894Y281874D01*
X434529Y281656D01*
X434238Y281437D01*
X434092Y281291D01*
X434019Y281218D01*
X433582Y280708D01*
X433290Y280198D01*
X433071Y279687D01*
X432926Y279250D01*
X432853Y278812D01*
X432780Y278448D01*
Y278229D01*
Y278156D01*
X432853Y277354D01*
X433071Y276625D01*
X433436Y276042D01*
X433727Y275532D01*
X434092Y275167D01*
X434456Y274876D01*
X434675Y274730D01*
X434748Y274657D01*
X434821Y274584D01*
X434894Y274511D01*
X434967Y274439D01*
X435331Y274293D01*
X435404Y274074D01*
Y274001D01*
X432634Y267367D01*
X432561Y267294D01*
X432415D01*
X431176Y268023D01*
X430884D01*
X427895Y265982D01*
X427750Y265909D01*
X427677D01*
X427604Y265982D01*
X424834Y268752D01*
Y268825D01*
Y268971D01*
X426948Y272033D01*
Y272106D01*
Y272179D01*
Y272252D01*
Y272324D01*
X425708Y275167D01*
Y275313D01*
X425635Y275386D01*
X425563D01*
X421918Y276115D01*
X421845Y276188D01*
X421772Y276261D01*
Y276334D01*
Y280198D01*
Y280343D01*
X421845Y280416D01*
X421918D01*
X425635Y281072D01*
X425781D01*
X425854Y281145D01*
Y281218D01*
X427021Y283915D01*
Y283988D01*
Y284061D01*
Y284207D01*
X424834Y287488D01*
Y287560D01*
Y287633D01*
Y287706D01*
Y287779D01*
X427604Y290476D01*
X427750Y290549D01*
X427895D01*
X431176Y288217D01*
X431395D01*
X434019Y289310D01*
X434092Y289383D01*
X434165Y289456D01*
Y289529D01*
X434967Y293392D01*
Y293538D01*
X435040Y293611D01*
X439122D01*
X439195Y293538D01*
D02*
G37*
G36*
X452681Y252131D02*
X451952D01*
Y254537D01*
X451880Y254828D01*
X451807Y255120D01*
X451515Y255339D01*
X451296Y255485D01*
X451151D01*
X450859Y255412D01*
X450640Y255339D01*
X450349Y255047D01*
X450276Y254682D01*
Y254610D01*
Y254537D01*
Y252131D01*
X449474D01*
Y254828D01*
X449547Y255266D01*
X449692Y255630D01*
X449911Y255849D01*
X450130Y256068D01*
X450640Y256213D01*
X450859D01*
X451369Y256140D01*
X451734Y255995D01*
X451880Y255849D01*
X451952Y255776D01*
Y258984D01*
X451515Y258765D01*
X451151Y258619D01*
X450932Y258546D01*
X450859D01*
X450421Y258619D01*
X450057Y258838D01*
X449765Y259057D01*
X449692Y259129D01*
X449620Y259275D01*
X449547Y259494D01*
X449474Y260004D01*
Y260442D01*
Y260587D01*
Y260660D01*
Y261389D01*
X449547Y261900D01*
X449620Y262191D01*
X449692Y262264D01*
X450057Y262556D01*
X450494Y262702D01*
X450713Y262774D01*
X450859D01*
X451296Y262702D01*
X451661Y262556D01*
X451880Y262337D01*
X451952Y262264D01*
Y262774D01*
X452681D01*
Y252131D01*
D02*
G37*
G36*
X444808Y258619D02*
X443933D01*
Y261098D01*
X443860Y261389D01*
X443788Y261608D01*
X443496Y261900D01*
X443277Y261973D01*
X442840D01*
X442621Y261827D01*
X442330Y261535D01*
X442257Y261244D01*
Y261171D01*
Y261098D01*
Y258619D01*
X441455D01*
Y261316D01*
X441528Y261827D01*
X441674Y262191D01*
X441892Y262410D01*
X442111Y262629D01*
X442621Y262774D01*
X442840D01*
X443350Y262702D01*
X443715Y262556D01*
X443860Y262337D01*
X443933Y262264D01*
Y262774D01*
X444808D01*
Y258619D01*
D02*
G37*
G36*
X426948D02*
X426073D01*
Y261098D01*
X426000Y261389D01*
X425927Y261608D01*
X425635Y261900D01*
X425417Y261973D01*
X425271D01*
X425125Y261900D01*
X424979Y261827D01*
X424834Y261754D01*
Y261681D01*
X424178Y262483D01*
X424469Y262629D01*
X424761Y262774D01*
X424979D01*
X425490Y262702D01*
X425854Y262556D01*
X426000Y262337D01*
X426073Y262264D01*
Y262774D01*
X426948D01*
Y258619D01*
D02*
G37*
G36*
X431176Y259931D02*
X431103Y259494D01*
X430957Y259129D01*
X430738Y258911D01*
X430447Y258692D01*
X429937Y258546D01*
X429718D01*
X429353Y258619D01*
X428989Y258765D01*
X428770Y258911D01*
X428697Y258984D01*
Y258619D01*
X427895D01*
Y262774D01*
X428697D01*
Y260296D01*
Y260004D01*
X428843Y259786D01*
X429062Y259567D01*
X429281Y259421D01*
X429426D01*
X429718Y259494D01*
X429937Y259567D01*
X430155Y259858D01*
X430301Y260150D01*
Y260296D01*
Y262774D01*
X431176D01*
Y259931D01*
D02*
G37*
G36*
X423011Y262702D02*
X423449Y262483D01*
X423813Y262118D01*
X424032Y261754D01*
X424178Y261316D01*
X424250Y261025D01*
Y260733D01*
Y260660D01*
X424178Y259931D01*
X423959Y259421D01*
X423667Y259057D01*
X423303Y258838D01*
X422938Y258692D01*
X422647Y258546D01*
X422355D01*
X421772Y258692D01*
X421262Y258911D01*
X420970Y259129D01*
X420897Y259275D01*
X421553Y259858D01*
X421845Y259640D01*
X422063Y259494D01*
X422282Y259421D01*
X422355D01*
X422719Y259494D01*
X423011Y259640D01*
X423157Y259786D01*
X423303Y260077D01*
X423449Y260442D01*
Y260587D01*
Y260660D01*
X423376Y261098D01*
X423303Y261389D01*
X423084Y261681D01*
X422865Y261827D01*
X422501Y261973D01*
X422355D01*
X421990Y261900D01*
X421772Y261754D01*
X421626Y261608D01*
X421553Y261535D01*
X420897Y262118D01*
X421407Y262483D01*
X421845Y262702D01*
X422209Y262774D01*
X422355D01*
X423011Y262702D01*
D02*
G37*
G36*
X447797D02*
X448162Y262483D01*
X448453Y262118D01*
X448672Y261754D01*
X448818Y261316D01*
X448891Y261025D01*
Y260733D01*
Y260660D01*
X448818Y259931D01*
X448599Y259421D01*
X448307Y259057D01*
X447943Y258838D01*
X447651Y258692D01*
X447360Y258546D01*
X447068D01*
X446485Y258619D01*
X445975Y258911D01*
X445683Y259129D01*
X445537Y259202D01*
X446193Y259786D01*
X446485Y259494D01*
X446776Y259348D01*
X446995Y259275D01*
X447141D01*
X447433Y259348D01*
X447651Y259421D01*
X447943Y259786D01*
X448089Y260150D01*
Y260223D01*
Y260296D01*
X445464D01*
Y261098D01*
X445537Y261681D01*
X445756Y262045D01*
X446047Y262337D01*
X446339Y262556D01*
X446631Y262702D01*
X446922Y262774D01*
X447214D01*
X447797Y262702D01*
D02*
G37*
G36*
X419658D02*
X420022Y262483D01*
X420314Y262118D01*
X420533Y261754D01*
X420678Y261316D01*
X420751Y261025D01*
Y260733D01*
Y260660D01*
X420678Y259931D01*
X420460Y259421D01*
X420168Y259057D01*
X419803Y258838D01*
X419439Y258692D01*
X419147Y258546D01*
X418856D01*
X418273Y258619D01*
X417835Y258911D01*
X417544Y259129D01*
X417398Y259202D01*
X418054Y259786D01*
X418273Y259494D01*
X418564Y259348D01*
X418783Y259275D01*
X418856D01*
X419220Y259348D01*
X419439Y259421D01*
X419731Y259786D01*
X419876Y260150D01*
Y260223D01*
Y260296D01*
X417252D01*
Y261098D01*
X417325Y261681D01*
X417544Y262045D01*
X417835Y262337D01*
X418127Y262556D01*
X418491Y262702D01*
X418783Y262774D01*
X419074D01*
X419658Y262702D01*
D02*
G37*
G36*
X455670D02*
X456035Y262556D01*
X456326Y262337D01*
X456399Y262264D01*
X456618Y261754D01*
X456691Y261244D01*
X456764Y260806D01*
Y260733D01*
Y260660D01*
X456691Y260004D01*
X456545Y259494D01*
X456472Y259202D01*
X456399Y259129D01*
X455962Y258765D01*
X455524Y258619D01*
X455233Y258546D01*
X455087D01*
X454577Y258619D01*
X454212Y258838D01*
X453994Y259057D01*
X453921Y259129D01*
X453629Y259567D01*
X453556Y260077D01*
X453483Y260515D01*
Y260587D01*
Y260660D01*
X453556Y261389D01*
X453702Y261900D01*
X453848Y262191D01*
X453921Y262264D01*
X454212Y262556D01*
X454577Y262702D01*
X454941Y262774D01*
X455087D01*
X455670Y262702D01*
D02*
G37*
G36*
X437956D02*
X438320Y262556D01*
X438612Y262410D01*
X438758Y262191D01*
X438976Y261754D01*
Y261608D01*
Y261535D01*
X438903Y261171D01*
X438758Y260879D01*
X438393Y260515D01*
X437956Y260369D01*
X437883Y260296D01*
X437081D01*
X436716Y260150D01*
X436571Y260004D01*
X436498Y259931D01*
Y259858D01*
Y259640D01*
X436643Y259494D01*
X436935Y259348D01*
X437227Y259275D01*
X437372D01*
X437883Y259348D01*
X438320Y259567D01*
X438612Y259786D01*
X438685Y259858D01*
X439195Y259275D01*
X438612Y258838D01*
X438028Y258619D01*
X437591Y258546D01*
X437445D01*
X436862Y258619D01*
X436425Y258765D01*
X436133Y258984D01*
X435914Y259202D01*
X435769Y259421D01*
X435696Y259640D01*
Y259786D01*
Y259858D01*
X435769Y260223D01*
X435842Y260515D01*
X436279Y260879D01*
X436643Y261025D01*
X436789Y261098D01*
X436862D01*
X437664Y261171D01*
X437956Y261244D01*
X438101Y261389D01*
X438174Y261462D01*
Y261535D01*
X438028Y261827D01*
X437810Y261900D01*
X437591Y261973D01*
X437445D01*
X437154Y261900D01*
X436789Y261827D01*
X436498Y261681D01*
X436352Y261608D01*
X435842Y262191D01*
X436352Y262556D01*
X436862Y262702D01*
X437299Y262774D01*
X437445D01*
X437956Y262702D01*
D02*
G37*
G36*
X434092D02*
X434529Y262556D01*
X434748Y262337D01*
X434821Y262264D01*
X435040Y261827D01*
X435185Y261244D01*
X435258Y260806D01*
Y260733D01*
Y260660D01*
X435185Y260004D01*
X435040Y259494D01*
X434894Y259202D01*
X434821Y259129D01*
X434383Y258765D01*
X434019Y258619D01*
X433727Y258546D01*
X433582D01*
X432998Y258619D01*
X432634Y258838D01*
X432415Y259057D01*
X432342Y259129D01*
X432051Y259567D01*
X431978Y260077D01*
X431905Y260515D01*
Y260587D01*
Y260660D01*
X431978Y261389D01*
X432124Y261900D01*
X432269Y262191D01*
X432342Y262264D01*
X432707Y262556D01*
X433071Y262702D01*
X433436Y262774D01*
X433582D01*
X434092Y262702D01*
D02*
G37*
G36*
X444590Y252131D02*
X443788D01*
Y254537D01*
Y254828D01*
X443642Y255120D01*
X443423Y255339D01*
X443204Y255485D01*
X443059D01*
X442840Y255412D01*
X442621Y255339D01*
X442548Y255266D01*
X442475Y255193D01*
X441819Y255922D01*
X442184Y256068D01*
X442475Y256213D01*
X442767D01*
X443204Y256140D01*
X443496Y255995D01*
X443715Y255849D01*
X443788Y255776D01*
Y256213D01*
X444590D01*
Y252131D01*
D02*
G37*
G36*
X427968D02*
X427166D01*
Y254537D01*
X427094Y254828D01*
X427021Y255120D01*
X426729Y255339D01*
X426510Y255485D01*
X426365D01*
X426219Y255412D01*
X426000Y255339D01*
X425927Y255266D01*
X425854Y255193D01*
X425198Y255922D01*
X425490Y256068D01*
X425781Y256213D01*
X426000D01*
X426510Y256140D01*
X426875Y255995D01*
X427094Y255849D01*
X427166Y255776D01*
Y256213D01*
X427968D01*
Y252131D01*
D02*
G37*
G36*
X447870Y256140D02*
X448307Y255995D01*
X448599Y255776D01*
X448672Y255703D01*
X448089Y255193D01*
X447797Y255339D01*
X447506Y255485D01*
X446922D01*
X446776Y255412D01*
X446485Y255193D01*
X446412Y254974D01*
Y254901D01*
Y254537D01*
X447506D01*
X447943Y254464D01*
X448307Y254391D01*
X448526Y254172D01*
X448745Y253954D01*
X448891Y253589D01*
Y253443D01*
Y253370D01*
X448818Y252933D01*
X448672Y252641D01*
X448453Y252350D01*
X448162Y252204D01*
X447651Y252058D01*
X447433D01*
X446922Y252131D01*
X446631Y252277D01*
X446485Y252423D01*
X446412Y252496D01*
Y252131D01*
X445537D01*
Y254901D01*
X445610Y255339D01*
X445829Y255630D01*
X446120Y255922D01*
X446412Y256068D01*
X446704Y256140D01*
X446995Y256213D01*
X447287D01*
X447870Y256140D01*
D02*
G37*
G36*
X431249D02*
X431686Y255995D01*
X431905Y255776D01*
X431978Y255703D01*
X431322Y255193D01*
X431176Y255339D01*
X430884Y255485D01*
X430301D01*
X430082Y255412D01*
X429791Y255193D01*
X429718Y254974D01*
Y254901D01*
Y254537D01*
X430884D01*
X431322Y254464D01*
X431686Y254391D01*
X431905Y254172D01*
X432124Y253954D01*
X432269Y253589D01*
Y253443D01*
Y253370D01*
X432197Y252933D01*
X432051Y252641D01*
X431759Y252350D01*
X431467Y252204D01*
X430957Y252058D01*
X430738D01*
X430301Y252131D01*
X429937Y252277D01*
X429791Y252423D01*
X429718Y252496D01*
Y252131D01*
X428916D01*
Y254901D01*
X428989Y255339D01*
X429208Y255630D01*
X429426Y255922D01*
X429718Y256068D01*
X430082Y256140D01*
X430301Y256213D01*
X430957D01*
X431249Y256140D01*
D02*
G37*
G36*
X436789Y252131D02*
X436060D01*
X435258Y255047D01*
X434311Y252131D01*
X433582D01*
X432269Y256213D01*
X433144D01*
X433946Y253370D01*
X434821Y256213D01*
X435477D01*
X436425Y253370D01*
X437299Y256213D01*
X438101D01*
X436789Y252131D01*
D02*
G37*
G36*
X424105Y256140D02*
X424469Y255922D01*
X424761Y255557D01*
X424979Y255193D01*
X425125Y254828D01*
X425198Y254464D01*
Y254245D01*
Y254172D01*
X425125Y253443D01*
X424906Y252933D01*
X424615Y252568D01*
X424250Y252350D01*
X423886Y252204D01*
X423594Y252058D01*
X423303D01*
X422719Y252131D01*
X422282Y252423D01*
X421990Y252641D01*
X421845Y252714D01*
X422501Y253224D01*
X422792Y253006D01*
X423084Y252860D01*
X423303Y252787D01*
X423449D01*
X423740Y252860D01*
X423959Y252933D01*
X424178Y253297D01*
X424323Y253662D01*
Y253735D01*
Y253808D01*
X421772D01*
Y254537D01*
X421845Y255120D01*
X422063Y255485D01*
X422355Y255776D01*
X422647Y255995D01*
X422938Y256140D01*
X423230Y256213D01*
X423521D01*
X424105Y256140D01*
D02*
G37*
G36*
X439414Y255776D02*
X439778Y256068D01*
X440070Y256140D01*
X440361Y256213D01*
X440434D01*
X440944Y256140D01*
X441309Y255995D01*
X441455Y255849D01*
X441528Y255776D01*
X441601Y255630D01*
X441674Y255412D01*
X441746Y254901D01*
X441819Y254391D01*
Y254245D01*
Y254172D01*
Y253735D01*
X441746Y253370D01*
Y253079D01*
X441674Y252860D01*
X441601Y252641D01*
X441528Y252568D01*
X441236Y252277D01*
X440872Y252131D01*
X440580Y252058D01*
X440434D01*
X439997Y252131D01*
X439705Y252277D01*
X439487Y252423D01*
X439414Y252496D01*
Y252131D01*
X438539D01*
Y257890D01*
X439414D01*
Y255776D01*
D02*
G37*
G36*
X421964Y300126D02*
X419067D01*
Y305628D01*
X415314Y300126D01*
X412399D01*
Y310110D01*
X415314D01*
Y304572D01*
X419104Y310110D01*
X421964D01*
Y300126D01*
D02*
G37*
G36*
X382445D02*
X379548D01*
Y305628D01*
X375795Y300126D01*
X372879D01*
Y310110D01*
X375795D01*
Y304572D01*
X379584Y310110D01*
X382445D01*
Y300126D01*
D02*
G37*
G36*
X399444Y302695D02*
X395418D01*
Y304845D01*
X399444D01*
Y302695D01*
D02*
G37*
G36*
X394088Y304152D02*
X394069Y303879D01*
X394051Y303588D01*
X393996Y303296D01*
X393942Y303041D01*
X393905Y302822D01*
X393851Y302640D01*
X393832Y302567D01*
Y302513D01*
X393814Y302494D01*
Y302476D01*
X393741Y302258D01*
X393632Y302039D01*
X393523Y301838D01*
X393413Y301675D01*
X393322Y301529D01*
X393231Y301401D01*
X393177Y301328D01*
X393158Y301310D01*
X392976Y301110D01*
X392794Y300946D01*
X392612Y300800D01*
X392448Y300672D01*
X392302Y300581D01*
X392193Y300508D01*
X392120Y300472D01*
X392102Y300454D01*
X391865Y300363D01*
X391628Y300272D01*
X391391Y300199D01*
X391154Y300162D01*
X390972Y300108D01*
X390808Y300089D01*
X390699Y300071D01*
X390662D01*
X390334Y300035D01*
X390043Y300016D01*
X389769Y299980D01*
X389532D01*
X389332Y299962D01*
X389059D01*
X388603Y299980D01*
X388184Y300016D01*
X387820Y300071D01*
X387510Y300126D01*
X387237Y300181D01*
X387055Y300235D01*
X386982Y300253D01*
X386927Y300272D01*
X386909Y300290D01*
X386891D01*
X386654Y300399D01*
X386435Y300527D01*
X386216Y300654D01*
X386034Y300782D01*
X385889Y300909D01*
X385779Y301019D01*
X385688Y301092D01*
X385670Y301110D01*
X385451Y301328D01*
X385287Y301565D01*
X385123Y301802D01*
X385014Y302021D01*
X384905Y302203D01*
X384850Y302349D01*
X384813Y302440D01*
X384795Y302476D01*
X384704Y302786D01*
X384631Y303078D01*
X384577Y303351D01*
X384540Y303624D01*
X384522Y303843D01*
X384504Y304007D01*
Y304116D01*
Y304134D01*
Y304152D01*
Y310110D01*
X387583D01*
Y304025D01*
X387601Y303733D01*
X387656Y303478D01*
X387729Y303241D01*
X387802Y303059D01*
X387893Y302913D01*
X387966Y302822D01*
X388020Y302749D01*
X388038Y302731D01*
X388221Y302586D01*
X388421Y302476D01*
X388640Y302403D01*
X388840Y302349D01*
X389022Y302312D01*
X389168Y302294D01*
X389296D01*
X389587Y302312D01*
X389842Y302367D01*
X390061Y302440D01*
X390243Y302531D01*
X390389Y302604D01*
X390480Y302677D01*
X390553Y302731D01*
X390571Y302749D01*
X390717Y302932D01*
X390826Y303150D01*
X390899Y303351D01*
X390954Y303551D01*
X390990Y303733D01*
X391008Y303897D01*
Y303989D01*
Y304025D01*
Y310110D01*
X394088D01*
Y304152D01*
D02*
G37*
G36*
X436923Y302749D02*
X436886Y302258D01*
X436813Y301820D01*
X436722Y301456D01*
X436595Y301164D01*
X436485Y300927D01*
X436376Y300764D01*
X436303Y300672D01*
X436285Y300636D01*
X436012Y300417D01*
X435720Y300253D01*
X435429Y300126D01*
X435137Y300053D01*
X434882Y299998D01*
X434663Y299980D01*
X434591Y299962D01*
X434481D01*
X434171Y299980D01*
X433898Y300016D01*
X433643Y300053D01*
X433443Y300108D01*
X433279Y300162D01*
X433151Y300217D01*
X433060Y300235D01*
X433042Y300253D01*
X432823Y300381D01*
X432605Y300545D01*
X432404Y300727D01*
X432222Y300891D01*
X432076Y301037D01*
X431949Y301183D01*
X431876Y301255D01*
X431858Y301292D01*
Y300126D01*
X429270D01*
Y307359D01*
X432040D01*
Y303879D01*
X432058Y303533D01*
X432094Y303241D01*
X432149Y303005D01*
X432204Y302804D01*
X432258Y302677D01*
X432313Y302567D01*
X432349Y302513D01*
X432368Y302494D01*
X432495Y302367D01*
X432623Y302276D01*
X432769Y302221D01*
X432896Y302185D01*
X433005Y302148D01*
X433097Y302130D01*
X433188D01*
X433352Y302148D01*
X433497Y302167D01*
X433607Y302221D01*
X433716Y302276D01*
X433789Y302312D01*
X433844Y302367D01*
X433880Y302385D01*
X433898Y302403D01*
X433971Y302531D01*
X434026Y302677D01*
X434099Y303005D01*
X434117Y303132D01*
X434135Y303260D01*
Y303332D01*
Y303369D01*
Y307359D01*
X436923D01*
Y302749D01*
D02*
G37*
G36*
X438927Y307505D02*
X439109Y307487D01*
X439291Y307432D01*
X439437Y307377D01*
X439546Y307323D01*
X439638Y307286D01*
X439692Y307250D01*
X439710Y307232D01*
X439856Y307104D01*
X439984Y306940D01*
X440239Y306594D01*
X440330Y306430D01*
X440403Y306302D01*
X440457Y306211D01*
X440476Y306175D01*
Y307359D01*
X443063D01*
Y300126D01*
X440275D01*
Y302549D01*
Y302859D01*
X440257Y303150D01*
X440239Y303405D01*
X440202Y303642D01*
X440184Y303861D01*
X440148Y304061D01*
X440111Y304225D01*
X440057Y304389D01*
X440020Y304517D01*
X439984Y304626D01*
X439947Y304717D01*
X439929Y304790D01*
X439874Y304881D01*
X439856Y304918D01*
X439729Y305064D01*
X439583Y305173D01*
X439455Y305264D01*
X439310Y305318D01*
X439182Y305355D01*
X439091Y305373D01*
X438891D01*
X438763Y305337D01*
X438508Y305264D01*
X438399Y305227D01*
X438307Y305191D01*
X438253Y305173D01*
X438235Y305155D01*
X437360Y307140D01*
X437633Y307268D01*
X437888Y307359D01*
X438107Y307432D01*
X438307Y307469D01*
X438471Y307505D01*
X438599Y307523D01*
X438708D01*
X438927Y307505D01*
D02*
G37*
G36*
X427284Y300126D02*
X424187D01*
Y310110D01*
X427284D01*
Y300126D01*
D02*
G37*
G36*
X447600Y306649D02*
X447764Y306794D01*
X447928Y306940D01*
X448092Y307049D01*
X448237Y307140D01*
X448365Y307213D01*
X448456Y307268D01*
X448529Y307286D01*
X448547Y307305D01*
X448747Y307377D01*
X448948Y307432D01*
X449148Y307469D01*
X449331Y307505D01*
X449476D01*
X449604Y307523D01*
X449713D01*
X449950Y307505D01*
X450187Y307487D01*
X450624Y307377D01*
X450989Y307213D01*
X451298Y307049D01*
X451553Y306867D01*
X451736Y306703D01*
X451809Y306649D01*
X451863Y306594D01*
X451881Y306576D01*
X451900Y306557D01*
X452045Y306375D01*
X452173Y306175D01*
X452391Y305738D01*
X452537Y305264D01*
X452647Y304827D01*
X452683Y304626D01*
X452701Y304426D01*
X452738Y304262D01*
Y304098D01*
X452756Y303989D01*
Y303879D01*
Y303824D01*
Y303806D01*
X452719Y303223D01*
X452628Y302695D01*
X452519Y302239D01*
X452446Y302021D01*
X452373Y301838D01*
X452300Y301675D01*
X452227Y301511D01*
X452173Y301383D01*
X452118Y301274D01*
X452064Y301183D01*
X452027Y301128D01*
X451991Y301092D01*
Y301073D01*
X451827Y300873D01*
X451663Y300709D01*
X451499Y300563D01*
X451298Y300436D01*
X451116Y300326D01*
X450934Y300235D01*
X450569Y300108D01*
X450242Y300016D01*
X450096Y299998D01*
X449968Y299980D01*
X449877Y299962D01*
X449731D01*
X449458Y299980D01*
X449221Y300016D01*
X448984Y300053D01*
X448784Y300126D01*
X448638Y300181D01*
X448511Y300217D01*
X448420Y300253D01*
X448401Y300272D01*
X448219Y300381D01*
X448055Y300508D01*
X447891Y300672D01*
X447727Y300818D01*
X447600Y300964D01*
X447490Y301073D01*
X447417Y301146D01*
X447399Y301183D01*
Y300126D01*
X444794D01*
Y310110D01*
X447600D01*
Y306649D01*
D02*
G37*
G36*
X406022Y310256D02*
X406441Y310220D01*
X406842Y310147D01*
X407206Y310056D01*
X407552Y309965D01*
X407862Y309837D01*
X408153Y309728D01*
X408408Y309600D01*
X408627Y309473D01*
X408827Y309345D01*
X408991Y309218D01*
X409137Y309126D01*
X409246Y309035D01*
X409319Y308962D01*
X409374Y308926D01*
X409392Y308908D01*
X409629Y308635D01*
X409830Y308361D01*
X410012Y308051D01*
X410176Y307742D01*
X410303Y307414D01*
X410413Y307104D01*
X410504Y306794D01*
X410577Y306485D01*
X410631Y306211D01*
X410668Y305938D01*
X410704Y305701D01*
X410722Y305501D01*
Y305337D01*
X410741Y305209D01*
Y305136D01*
Y305100D01*
X410704Y304480D01*
X410631Y303916D01*
X410577Y303642D01*
X410522Y303405D01*
X410467Y303187D01*
X410394Y302986D01*
X410340Y302804D01*
X410285Y302640D01*
X410230Y302513D01*
X410176Y302403D01*
X410121Y302312D01*
X410103Y302239D01*
X410066Y302203D01*
Y302185D01*
X409793Y301784D01*
X409483Y301438D01*
X409192Y301128D01*
X408900Y300909D01*
X408645Y300727D01*
X408445Y300600D01*
X408372Y300545D01*
X408317Y300508D01*
X408281Y300490D01*
X408263D01*
X407825Y300308D01*
X407352Y300181D01*
X406896Y300089D01*
X406459Y300035D01*
X406240Y299998D01*
X406058D01*
X405894Y299980D01*
X405748Y299962D01*
X405475D01*
X404874Y299980D01*
X404327Y300053D01*
X403853Y300162D01*
X403653Y300217D01*
X403453Y300272D01*
X403270Y300326D01*
X403125Y300381D01*
X402997Y300436D01*
X402888Y300490D01*
X402797Y300527D01*
X402742Y300563D01*
X402706Y300581D01*
X402687D01*
X402286Y300836D01*
X401959Y301110D01*
X401667Y301401D01*
X401430Y301675D01*
X401230Y301930D01*
X401102Y302130D01*
X401048Y302203D01*
X401011Y302258D01*
X400993Y302294D01*
Y302312D01*
X400793Y302768D01*
X400647Y303241D01*
X400537Y303715D01*
X400464Y304171D01*
X400446Y304389D01*
X400428Y304572D01*
X400410Y304754D01*
X400392Y304900D01*
Y305027D01*
Y305118D01*
Y305173D01*
Y305191D01*
X400410Y305628D01*
X400446Y306047D01*
X400519Y306430D01*
X400610Y306794D01*
X400701Y307122D01*
X400829Y307432D01*
X400938Y307705D01*
X401066Y307960D01*
X401193Y308179D01*
X401321Y308380D01*
X401448Y308543D01*
X401540Y308689D01*
X401631Y308780D01*
X401704Y308871D01*
X401740Y308908D01*
X401758Y308926D01*
X402031Y309163D01*
X402305Y309363D01*
X402614Y309546D01*
X402924Y309710D01*
X403234Y309837D01*
X403562Y309946D01*
X403872Y310037D01*
X404181Y310110D01*
X404455Y310165D01*
X404728Y310202D01*
X404965Y310238D01*
X405184Y310256D01*
X405347Y310274D01*
X405584D01*
X406022Y310256D01*
D02*
G37*
G36*
X366502Y310256D02*
X366921Y310220D01*
X367322Y310147D01*
X367687Y310056D01*
X368033Y309965D01*
X368343Y309837D01*
X368634Y309728D01*
X368889Y309600D01*
X369108Y309473D01*
X369308Y309345D01*
X369472Y309218D01*
X369618Y309126D01*
X369727Y309035D01*
X369800Y308962D01*
X369855Y308926D01*
X369873Y308908D01*
X370110Y308635D01*
X370310Y308361D01*
X370493Y308051D01*
X370657Y307742D01*
X370784Y307414D01*
X370893Y307104D01*
X370985Y306794D01*
X371057Y306485D01*
X371112Y306211D01*
X371148Y305938D01*
X371185Y305701D01*
X371203Y305501D01*
Y305337D01*
X371221Y305209D01*
Y305136D01*
Y305100D01*
X371185Y304480D01*
X371112Y303916D01*
X371057Y303642D01*
X371003Y303405D01*
X370948Y303187D01*
X370875Y302986D01*
X370821Y302804D01*
X370766Y302640D01*
X370711Y302513D01*
X370657Y302403D01*
X370602Y302312D01*
X370584Y302239D01*
X370547Y302203D01*
Y302185D01*
X370274Y301784D01*
X369964Y301438D01*
X369673Y301128D01*
X369381Y300909D01*
X369126Y300727D01*
X368926Y300600D01*
X368853Y300545D01*
X368798Y300508D01*
X368762Y300490D01*
X368743D01*
X368306Y300308D01*
X367832Y300181D01*
X367377Y300089D01*
X366940Y300035D01*
X366721Y299998D01*
X366539D01*
X366375Y299980D01*
X366229Y299962D01*
X365956D01*
X365355Y299980D01*
X364808Y300053D01*
X364334Y300162D01*
X364134Y300217D01*
X363933Y300272D01*
X363751Y300326D01*
X363605Y300381D01*
X363478Y300436D01*
X363369Y300490D01*
X363278Y300527D01*
X363223Y300563D01*
X363186Y300581D01*
X363168D01*
X362767Y300836D01*
X362439Y301110D01*
X362148Y301401D01*
X361911Y301675D01*
X361711Y301930D01*
X361583Y302130D01*
X361528Y302203D01*
X361492Y302257D01*
X361474Y302294D01*
Y302312D01*
X361273Y302768D01*
X361127Y303241D01*
X361018Y303715D01*
X360945Y304171D01*
X360927Y304389D01*
X360909Y304572D01*
X360891Y304754D01*
X360872Y304899D01*
Y305027D01*
Y305118D01*
Y305173D01*
Y305191D01*
X360891Y305628D01*
X360927Y306047D01*
X361000Y306430D01*
X361091Y306794D01*
X361182Y307122D01*
X361310Y307432D01*
X361419Y307705D01*
X361547Y307960D01*
X361674Y308179D01*
X361802Y308380D01*
X361929Y308543D01*
X362020Y308689D01*
X362111Y308780D01*
X362184Y308871D01*
X362221Y308908D01*
X362239Y308926D01*
X362512Y309163D01*
X362786Y309363D01*
X363095Y309546D01*
X363405Y309710D01*
X363715Y309837D01*
X364043Y309946D01*
X364352Y310037D01*
X364662Y310110D01*
X364935Y310165D01*
X365209Y310202D01*
X365446Y310238D01*
X365664Y310256D01*
X365828Y310274D01*
X366065D01*
X366502Y310256D01*
D02*
G37*
%LPC*%
G36*
X443332Y347454D02*
X441957D01*
X441137Y344673D01*
X440331Y347454D01*
X439040D01*
X438227Y344673D01*
X437406Y347454D01*
X436084D01*
X437589Y343344D01*
X438926D01*
X439708Y345881D01*
X440498Y343344D01*
X441836D01*
X443332Y347454D01*
X443332Y347454D01*
D02*
G37*
G36*
X431127Y347486D02*
X430336D01*
Y346361D01*
X430633Y346374D01*
X430684Y346371D01*
X430784Y346351D01*
X430878Y346312D01*
X430963Y346256D01*
X431000Y346221D01*
X431000D01*
X431187Y346035D01*
X431224Y345994D01*
X431285Y345903D01*
X431327Y345801D01*
X431348Y345693D01*
X431351Y345638D01*
Y345172D01*
X431348Y345103D01*
X431321Y344968D01*
X431268Y344841D01*
X431191Y344726D01*
X431145Y344675D01*
X431145D01*
X431019Y344549D01*
X430980Y344514D01*
X430893Y344455D01*
X430796Y344415D01*
X430693Y344395D01*
X430641Y344392D01*
X430356D01*
X430336Y344412D01*
Y343312D01*
X430988D01*
X431356Y343385D01*
X431702Y343528D01*
X432014Y343736D01*
X432146Y343869D01*
X432278Y344001D01*
X432486Y344312D01*
X432629Y344657D01*
X432702Y345024D01*
Y345211D01*
Y345726D01*
Y345867D01*
X432647Y346144D01*
X432539Y346405D01*
X432382Y346639D01*
X432282Y346739D01*
X432282Y346739D01*
X431914Y347108D01*
X431824Y347198D01*
X431612Y347339D01*
X431377Y347437D01*
X431127Y347486D01*
D02*
G37*
G36*
X435932Y347454D02*
X434588D01*
X434588Y343344D01*
X435932D01*
Y347454D01*
D02*
G37*
G36*
X434314D02*
X432970D01*
Y343344D01*
X434314D01*
Y347454D01*
D02*
G37*
G36*
X378583Y260945D02*
X371693D01*
X371693Y260945D01*
X371654Y260945D01*
X371577Y260937D01*
X371501Y260922D01*
X371427Y260900D01*
X371356Y260870D01*
X371288Y260834D01*
X371223Y260791D01*
X371164Y260742D01*
X371109Y260687D01*
X371060Y260627D01*
X371017Y260563D01*
X370980Y260494D01*
X370951Y260423D01*
X370928Y260349D01*
X370913Y260273D01*
X370905Y260196D01*
X370905Y260157D01*
X370905Y260119D01*
X370913Y260042D01*
X370928Y259966D01*
X370951Y259892D01*
X370980Y259820D01*
X371017Y259752D01*
X371060Y259688D01*
X371109Y259628D01*
X371164Y259573D01*
X371223Y259524D01*
X371288Y259481D01*
X371356Y259445D01*
X371427Y259415D01*
X371501Y259393D01*
X371577Y259378D01*
X371654Y259370D01*
X371693Y259370D01*
X378583D01*
Y260945D01*
D02*
G37*
G36*
X402306Y295999D02*
X400527D01*
Y295708D01*
X402306D01*
Y295999D01*
D02*
G37*
G36*
X402831Y295591D02*
Y295212D01*
X400032D01*
Y295533D01*
X399448Y295445D01*
X398924Y295329D01*
X398486Y295212D01*
X398136Y295037D01*
X397874Y294891D01*
X397670Y294687D01*
Y294570D01*
X404172D01*
Y295416D01*
X403764Y295504D01*
X403327Y295562D01*
X402831Y295591D01*
D02*
G37*
G36*
X404872Y295708D02*
X404668D01*
Y295037D01*
X404872D01*
Y295708D01*
D02*
G37*
G36*
X405368Y295066D02*
Y294570D01*
X405980D01*
Y294658D01*
X405834Y294804D01*
X405660Y294920D01*
X405368Y295066D01*
D02*
G37*
G36*
X396912Y294979D02*
X396882D01*
X396737Y294950D01*
X396649Y294862D01*
X396620Y294745D01*
Y294716D01*
X396649Y294570D01*
X396737Y294512D01*
X396853Y294483D01*
X396882D01*
X397028Y294512D01*
X397087Y294600D01*
X397116Y294687D01*
Y294716D01*
X397087Y294862D01*
X396999Y294950D01*
X396912Y294979D01*
D02*
G37*
G36*
X397495Y292733D02*
X396533D01*
Y291771D01*
X397495D01*
Y292733D01*
D02*
G37*
G36*
X402394Y290546D02*
X399769D01*
Y290371D01*
X402394D01*
Y290546D01*
D02*
G37*
G36*
X405893Y293667D02*
X397728D01*
X397786Y293229D01*
X397990D01*
Y292296D01*
X399215Y291042D01*
X402889D01*
Y289876D01*
X400352D01*
X402044Y288126D01*
X405747Y291975D01*
X405893Y293667D01*
D02*
G37*
G36*
X405660Y291159D02*
X402394Y287776D01*
X405076Y285006D01*
X405660Y291159D01*
D02*
G37*
G36*
X397990Y291567D02*
Y291275D01*
X397932D01*
X398515Y284481D01*
X401694Y287776D01*
X399653Y289876D01*
X399215D01*
Y290313D01*
X397990Y291567D01*
D02*
G37*
G36*
X402044Y287397D02*
X398574Y283810D01*
X398632Y283169D01*
X398865Y283198D01*
X399128Y283169D01*
X399448Y283082D01*
X399769Y282936D01*
X400002Y282761D01*
X400207Y282557D01*
X400411Y282265D01*
X400557Y281915D01*
X400644Y281536D01*
X400615Y281274D01*
X404727D01*
X405018Y284335D01*
X402044Y287397D01*
D02*
G37*
G36*
X399011Y282294D02*
X398865D01*
X398574Y282265D01*
X398370Y282148D01*
X398195Y282032D01*
X398107Y281857D01*
X398049Y281711D01*
X397990Y281565D01*
Y281449D01*
Y281419D01*
X398020Y281128D01*
X398136Y280924D01*
X398253Y280749D01*
X398428Y280661D01*
X398574Y280603D01*
X398720Y280574D01*
X398836Y280544D01*
X398865D01*
X399157Y280574D01*
X399361Y280690D01*
X399536Y280836D01*
X399623Y280982D01*
X399682Y281157D01*
X399711Y281274D01*
X399740Y281390D01*
Y281419D01*
X399711Y281711D01*
X399594Y281915D01*
X399448Y282090D01*
X399303Y282177D01*
X399128Y282236D01*
X399011Y282294D01*
D02*
G37*
G36*
X404552Y280749D02*
X404435D01*
Y280049D01*
X404552D01*
Y280749D01*
D02*
G37*
%LPD*%
G36*
X399069Y281973D02*
X399215Y281915D01*
X399303Y281828D01*
X399361Y281711D01*
X399448Y281507D01*
Y281449D01*
Y281419D01*
X399419Y281215D01*
X399361Y281069D01*
X399273Y280982D01*
X399157Y280924D01*
X398953Y280836D01*
X398865D01*
X398661Y280865D01*
X398515Y280924D01*
X398428Y281011D01*
X398340Y281128D01*
X398282Y281332D01*
Y281390D01*
Y281419D01*
X398311Y281624D01*
X398370Y281769D01*
X398457Y281857D01*
X398574Y281944D01*
X398778Y282002D01*
X398865D01*
X399069Y281973D01*
D02*
G37*
%LPC*%
G36*
X398895Y281507D02*
X398807D01*
X398778Y281478D01*
Y281449D01*
Y281419D01*
Y281361D01*
X398807Y281332D01*
X398865D01*
X398924Y281361D01*
X398953Y281390D01*
Y281419D01*
X398924Y281478D01*
X398895Y281507D01*
D02*
G37*
G36*
X451296Y261973D02*
X451151D01*
X450859Y261900D01*
X450640Y261754D01*
X450349Y261316D01*
X450276Y260879D01*
Y260733D01*
Y260660D01*
Y260223D01*
X450421Y259931D01*
X450567Y259713D01*
X450713Y259567D01*
X451005Y259421D01*
X451151D01*
X451442Y259494D01*
X451588Y259640D01*
X451880Y260077D01*
X451952Y260442D01*
Y260587D01*
Y260660D01*
X451880Y261098D01*
X451807Y261389D01*
X451661Y261681D01*
X451515Y261827D01*
X451296Y261973D01*
D02*
G37*
G36*
X447360D02*
X446922D01*
X446704Y261827D01*
X446412Y261535D01*
X446266Y261244D01*
Y261171D01*
Y261098D01*
X448089D01*
X448016Y261389D01*
X447943Y261608D01*
X447651Y261900D01*
X447360Y261973D01*
D02*
G37*
G36*
X419220D02*
X418783D01*
X418564Y261827D01*
X418273Y261535D01*
X418127Y261244D01*
Y261171D01*
Y261098D01*
X419876D01*
X419803Y261389D01*
X419731Y261608D01*
X419439Y261900D01*
X419220Y261973D01*
D02*
G37*
G36*
X455160D02*
X455087D01*
X454796Y261900D01*
X454650Y261827D01*
X454504Y261681D01*
Y261608D01*
X454358Y261389D01*
X454285Y261098D01*
Y260806D01*
Y260733D01*
Y260660D01*
Y260223D01*
X454358Y259858D01*
X454431Y259713D01*
X454504Y259640D01*
X454650Y259494D01*
X454868Y259421D01*
X455087D01*
X455452Y259494D01*
X455670Y259567D01*
X455816Y259640D01*
X455962Y260004D01*
X456035Y260296D01*
Y260587D01*
Y260660D01*
X455962Y261098D01*
X455889Y261389D01*
X455816Y261535D01*
Y261608D01*
X455597Y261827D01*
X455379Y261900D01*
X455160Y261973D01*
D02*
G37*
G36*
X433654D02*
X433582D01*
X433290Y261900D01*
X433071Y261827D01*
X432926Y261681D01*
Y261608D01*
X432780Y261389D01*
X432707Y261098D01*
Y260806D01*
Y260733D01*
Y260660D01*
Y260223D01*
X432780Y259858D01*
X432853Y259713D01*
X432926Y259640D01*
X433071Y259494D01*
X433290Y259421D01*
X433582D01*
X433873Y259494D01*
X434092Y259567D01*
X434165Y259640D01*
X434311Y259931D01*
X434383Y260296D01*
Y260515D01*
Y260660D01*
X434311Y261171D01*
X434238Y261462D01*
X434165Y261608D01*
X434019Y261827D01*
X433800Y261900D01*
X433654Y261973D01*
D02*
G37*
G36*
X447506Y253808D02*
X446412D01*
Y253516D01*
Y253297D01*
X446558Y253079D01*
X446849Y252860D01*
X447141Y252787D01*
X447578D01*
X447724Y252860D01*
X448016Y253079D01*
X448089Y253297D01*
Y253370D01*
X448016Y253662D01*
X447724Y253735D01*
X447506Y253808D01*
D02*
G37*
G36*
X430811D02*
X429718D01*
Y253516D01*
X429791Y253297D01*
X429864Y253079D01*
X430155Y252860D01*
X430520Y252787D01*
X430666D01*
X431103Y252860D01*
X431322Y253079D01*
X431395Y253297D01*
Y253370D01*
X431249Y253662D01*
X431030Y253735D01*
X430811Y253808D01*
D02*
G37*
G36*
X423667Y255485D02*
X423521D01*
X423230Y255412D01*
X423011Y255339D01*
X422719Y255047D01*
X422574Y254682D01*
Y254610D01*
Y254537D01*
X424323D01*
X424250Y254828D01*
X424178Y255120D01*
X423886Y255339D01*
X423667Y255485D01*
D02*
G37*
G36*
X440288D02*
X440143D01*
X439924Y255412D01*
X439705Y255266D01*
X439487Y254828D01*
X439414Y254391D01*
Y254245D01*
Y254172D01*
Y253735D01*
X439559Y253443D01*
X439632Y253152D01*
X439778Y253006D01*
X439997Y252860D01*
X440143D01*
X440434Y252933D01*
X440653Y253079D01*
X440872Y253516D01*
X441017Y253954D01*
Y254099D01*
Y254172D01*
X440944Y254610D01*
X440872Y254901D01*
X440726Y255193D01*
X440580Y255339D01*
X440288Y255485D01*
D02*
G37*
G36*
X448930Y305446D02*
X448857D01*
X448656Y305428D01*
X448474Y305373D01*
X448328Y305318D01*
X448201Y305246D01*
X448092Y305155D01*
X448019Y305100D01*
X447964Y305045D01*
X447946Y305027D01*
X447818Y304845D01*
X447727Y304644D01*
X447673Y304444D01*
X447618Y304225D01*
X447600Y304043D01*
X447581Y303897D01*
Y303788D01*
Y303770D01*
Y303752D01*
X447600Y303424D01*
X447636Y303132D01*
X447691Y302895D01*
X447764Y302713D01*
X447836Y302567D01*
X447891Y302458D01*
X447928Y302403D01*
X447946Y302385D01*
X448073Y302258D01*
X448219Y302148D01*
X448383Y302075D01*
X448511Y302039D01*
X448638Y302003D01*
X448729Y301984D01*
X448820D01*
X449003Y302003D01*
X449167Y302039D01*
X449312Y302112D01*
X449422Y302185D01*
X449531Y302258D01*
X449604Y302330D01*
X449640Y302367D01*
X449658Y302385D01*
X449768Y302567D01*
X449841Y302768D01*
X449914Y302986D01*
X449950Y303187D01*
X449968Y303387D01*
X449987Y303533D01*
Y303642D01*
Y303660D01*
Y303679D01*
X449968Y304007D01*
X449932Y304298D01*
X449895Y304517D01*
X449823Y304717D01*
X449768Y304845D01*
X449731Y304954D01*
X449695Y305009D01*
X449677Y305027D01*
X449549Y305173D01*
X449403Y305264D01*
X449276Y305337D01*
X449148Y305391D01*
X449021Y305428D01*
X448930Y305446D01*
D02*
G37*
G36*
X405639Y307942D02*
X405603D01*
X405256Y307906D01*
X404947Y307833D01*
X404673Y307742D01*
X404455Y307614D01*
X404291Y307487D01*
X404163Y307396D01*
X404072Y307323D01*
X404054Y307286D01*
X403853Y307013D01*
X403708Y306685D01*
X403617Y306339D01*
X403544Y306011D01*
X403507Y305701D01*
X403489Y305574D01*
X403471Y305464D01*
Y305355D01*
Y305282D01*
Y305246D01*
Y305227D01*
Y304918D01*
X403489Y304644D01*
X403525Y304389D01*
X403562Y304152D01*
X403598Y303952D01*
X403653Y303752D01*
X403708Y303588D01*
X403744Y303442D01*
X403799Y303314D01*
X403853Y303205D01*
X403908Y303114D01*
X403944Y303041D01*
X404017Y302950D01*
X404036Y302913D01*
X404254Y302695D01*
X404509Y302549D01*
X404764Y302440D01*
X405001Y302349D01*
X405220Y302312D01*
X405402Y302294D01*
X405475Y302276D01*
X405566D01*
X405912Y302312D01*
X406222Y302385D01*
X406495Y302476D01*
X406714Y302604D01*
X406878Y302731D01*
X407006Y302822D01*
X407097Y302895D01*
X407115Y302932D01*
X407206Y303059D01*
X407297Y303205D01*
X407424Y303551D01*
X407534Y303916D01*
X407588Y304262D01*
X407625Y304590D01*
X407643Y304735D01*
Y304863D01*
X407661Y304954D01*
Y305027D01*
Y305082D01*
Y305100D01*
Y305373D01*
X407643Y305628D01*
X407607Y305865D01*
X407570Y306084D01*
X407534Y306266D01*
X407479Y306448D01*
X407424Y306612D01*
X407370Y306758D01*
X407279Y306977D01*
X407188Y307140D01*
X407115Y307232D01*
X407097Y307268D01*
X406878Y307487D01*
X406623Y307651D01*
X406368Y307778D01*
X406131Y307851D01*
X405931Y307906D01*
X405748Y307924D01*
X405639Y307942D01*
D02*
G37*
G36*
X366120Y307942D02*
X366083D01*
X365737Y307906D01*
X365427Y307833D01*
X365154Y307742D01*
X364935Y307614D01*
X364772Y307487D01*
X364644Y307396D01*
X364553Y307323D01*
X364535Y307286D01*
X364334Y307013D01*
X364189Y306685D01*
X364097Y306339D01*
X364024Y306011D01*
X363988Y305701D01*
X363970Y305574D01*
X363952Y305464D01*
Y305355D01*
Y305282D01*
Y305246D01*
Y305227D01*
Y304918D01*
X363970Y304644D01*
X364006Y304389D01*
X364043Y304152D01*
X364079Y303952D01*
X364134Y303752D01*
X364189Y303588D01*
X364225Y303442D01*
X364280Y303314D01*
X364334Y303205D01*
X364389Y303114D01*
X364425Y303041D01*
X364498Y302950D01*
X364516Y302913D01*
X364735Y302695D01*
X364990Y302549D01*
X365245Y302440D01*
X365482Y302349D01*
X365701Y302312D01*
X365883Y302294D01*
X365956Y302276D01*
X366047D01*
X366393Y302312D01*
X366703Y302385D01*
X366976Y302476D01*
X367195Y302604D01*
X367359Y302731D01*
X367486Y302822D01*
X367577Y302895D01*
X367596Y302932D01*
X367687Y303059D01*
X367778Y303205D01*
X367905Y303551D01*
X368015Y303916D01*
X368069Y304262D01*
X368106Y304590D01*
X368124Y304735D01*
Y304863D01*
X368142Y304954D01*
Y305027D01*
Y305082D01*
Y305100D01*
Y305373D01*
X368124Y305628D01*
X368088Y305865D01*
X368051Y306084D01*
X368015Y306266D01*
X367960Y306448D01*
X367905Y306612D01*
X367851Y306758D01*
X367760Y306977D01*
X367669Y307140D01*
X367596Y307232D01*
X367577Y307268D01*
X367359Y307487D01*
X367104Y307651D01*
X366849Y307778D01*
X366612Y307851D01*
X366411Y307906D01*
X366229Y307924D01*
X366120Y307942D01*
D02*
G37*
%LPD*%
D13*
X240158Y209646D02*
G03*
X240158Y209646I-2953J0D01*
G01*
X214567D02*
G03*
X214567Y209646I-2953J0D01*
G01*
X223425Y206693D02*
G03*
X223425Y212598I0J2953D01*
G01*
X224410Y209646D02*
G03*
X224410Y209646I-984J0D01*
G01*
X452000Y235000D02*
Y248000D01*
X402000Y228000D02*
Y268000D01*
X392000Y228000D02*
Y268000D01*
X412000D01*
Y228000D02*
Y268000D01*
X422000Y228000D02*
Y248000D01*
X432000Y228000D02*
Y248000D01*
X442000Y228000D02*
Y248000D01*
X257000Y362000D02*
X287000D01*
X267000Y351000D02*
Y372000D01*
X277000Y351000D02*
Y372000D01*
X287000Y351000D02*
Y372000D01*
X257000Y351000D02*
X287000D01*
X257000D02*
Y372000D01*
X287000D01*
X259000Y329000D02*
X306000D01*
X259000Y337000D02*
X306000D01*
X259000Y345000D02*
X306000D01*
X288000Y329000D02*
Y345000D01*
X273000Y329000D02*
Y345000D01*
X259000Y329000D02*
Y345000D01*
X217000Y288000D02*
Y322000D01*
X202000Y288000D02*
Y322000D01*
Y288000D02*
X217000D01*
X202000Y322000D02*
X217000D01*
X427349Y314544D02*
X427802Y312268D01*
X425777Y313402D02*
X427802Y312268D01*
X423752D02*
X425777Y313402D01*
X423752Y312268D02*
X424205Y314544D01*
X422501Y316119D02*
X424205Y314544D01*
X422501Y316119D02*
X424805Y316392D01*
X425777Y318500D01*
X426749Y316392D01*
X429053Y316119D01*
X427349Y314544D02*
X429053Y316119D01*
X392000Y248000D02*
X452000D01*
X235000Y388000D02*
X240000D01*
Y386000D02*
Y388000D01*
X260000D01*
X235000Y345000D02*
Y388000D01*
X254000Y345000D02*
Y388000D01*
X235000Y345000D02*
X254000D01*
X235000Y368000D02*
X254000D01*
X250000Y386000D02*
Y387968D01*
X271000Y374016D02*
Y376000D01*
X281000Y374016D02*
Y376000D01*
X346000Y320000D02*
Y372000D01*
X365000Y345000D02*
Y372000D01*
X306000Y320000D02*
Y372000D01*
Y320000D02*
X346000D01*
X306000Y345000D02*
X365000D01*
X306000Y372000D02*
X365000D01*
X431000Y324000D02*
Y340000D01*
X412000Y332000D02*
X449000D01*
Y324000D02*
Y340000D01*
X412000Y324000D02*
Y340000D01*
X449000D01*
X412000Y324000D02*
X449000D01*
X372000Y353000D02*
X412000D01*
X372000Y345000D02*
X412000D01*
X372000D02*
Y372000D01*
X412000Y345000D02*
Y372000D01*
X372000Y372000D02*
X449000Y372000D01*
X260000Y374000D02*
Y388000D01*
Y374000D02*
X281000D01*
X235630Y209646D02*
X238779D01*
X210039D02*
X213189D01*
X211614Y208071D02*
Y211221D01*
X226378Y209646D02*
X232283D01*
X216535D02*
X222441D01*
X392000Y228000D02*
X449000D01*
X269280Y339032D02*
Y342968D01*
X267312D01*
X266656Y342312D01*
Y341000D01*
X267312Y340344D01*
X269280D01*
X267968D02*
X266656Y339032D01*
X265344Y342968D02*
X262720Y339032D01*
Y342968D02*
X265344Y339032D01*
X283280Y342968D02*
X280656D01*
X281968D01*
Y339032D01*
X279344Y342968D02*
X276720Y339032D01*
Y342968D02*
X279344Y339032D01*
X303888Y342968D02*
X302576D01*
X303232D01*
Y339032D01*
X303888D01*
X302576D01*
X298640Y342968D02*
X299952D01*
X300608Y342312D01*
Y339688D01*
X299952Y339032D01*
X298640D01*
X297984Y339688D01*
Y342312D01*
X298640Y342968D01*
X294704Y339032D02*
Y342968D01*
X296672Y341000D01*
X294048D01*
X290112Y339032D02*
X292736D01*
X290112Y341656D01*
Y342312D01*
X290768Y342968D01*
X292080D01*
X292736Y342312D01*
X268624Y334312D02*
X269280Y334968D01*
X270592D01*
X271248Y334312D01*
Y331688D01*
X270592Y331032D01*
X269280D01*
X268624Y331688D01*
Y333000D01*
X269936D01*
X267312Y331032D02*
Y334968D01*
X264688Y331032D01*
Y334968D01*
X263376D02*
Y331032D01*
X261408D01*
X260752Y331688D01*
Y334312D01*
X261408Y334968D01*
X263376D01*
X284920D02*
X283608D01*
X284264D01*
Y331032D01*
X284920D01*
X283608D01*
X279672Y334968D02*
X280984D01*
X281640Y334312D01*
Y331688D01*
X280984Y331032D01*
X279672D01*
X279016Y331688D01*
Y334312D01*
X279672Y334968D01*
X277704Y334312D02*
X277048Y334968D01*
X275736D01*
X275080Y334312D01*
Y331688D01*
X275736Y331032D01*
X277048D01*
X277704Y331688D01*
Y334312D01*
X303232Y334968D02*
X301920D01*
X302576D01*
Y331032D01*
X303232D01*
X301920D01*
X297984Y334968D02*
X299296D01*
X299952Y334312D01*
Y331688D01*
X299296Y331032D01*
X297984D01*
X297328Y331688D01*
Y334312D01*
X297984Y334968D01*
X294048Y331032D02*
Y334968D01*
X296016Y333000D01*
X293392D01*
X292080Y331032D02*
X290768D01*
X291424D01*
Y334968D01*
X292080Y334312D01*
X211032Y293177D02*
X214968D01*
Y295145D01*
X214312Y295800D01*
X213000D01*
X212344Y295145D01*
Y293177D01*
Y294489D02*
X211032Y295800D01*
Y299080D02*
Y297768D01*
X211688Y297112D01*
X213000D01*
X213656Y297768D01*
Y299080D01*
X213000Y299736D01*
X212344D01*
Y297112D01*
X213656Y301048D02*
X211032Y302360D01*
X213656Y303672D01*
X211032Y304984D02*
X211688D01*
Y305640D01*
X211032D01*
Y304984D01*
Y312199D02*
X213656D01*
X214968Y313511D01*
X213656Y314823D01*
X211032D01*
X213000D01*
Y312199D01*
X207312Y292537D02*
X207968Y291881D01*
Y290569D01*
X207312Y289913D01*
X206656D01*
X206000Y290569D01*
Y291881D01*
X205344Y292537D01*
X204688D01*
X204032Y291881D01*
Y290569D01*
X204688Y289913D01*
X207968Y296473D02*
Y293849D01*
X204032D01*
Y296473D01*
X206000Y293849D02*
Y295161D01*
X204032Y297784D02*
X207968D01*
Y299752D01*
X207312Y300408D01*
X206000D01*
X205344Y299752D01*
Y297784D01*
X204032Y308280D02*
Y305656D01*
X206656Y308280D01*
X207312D01*
X207968Y307624D01*
Y306312D01*
X207312Y305656D01*
Y309592D02*
X207968Y310248D01*
Y311560D01*
X207312Y312215D01*
X204688D01*
X204032Y311560D01*
Y310248D01*
X204688Y309592D01*
X207312D01*
X204032Y316151D02*
Y313527D01*
X206656Y316151D01*
X207312D01*
X207968Y315495D01*
Y314183D01*
X207312Y313527D01*
Y317463D02*
X207968Y318119D01*
Y319431D01*
X207312Y320087D01*
X206656D01*
X206000Y319431D01*
Y318775D01*
Y319431D01*
X205344Y320087D01*
X204688D01*
X204032Y319431D01*
Y318119D01*
X204688Y317463D01*
X408312Y323534D02*
X408968Y322878D01*
Y321566D01*
X408312Y320910D01*
X405688D01*
X405032Y321566D01*
Y322878D01*
X405688Y323534D01*
X405032Y324846D02*
X407656D01*
X408968Y326158D01*
X407656Y327470D01*
X405032D01*
X407000D01*
Y324846D01*
X405032Y328782D02*
X408968D01*
X405032Y331405D01*
X408968D01*
X405032Y335341D02*
Y332717D01*
X407656Y335341D01*
X408312D01*
X408968Y334685D01*
Y333373D01*
X408312Y332717D01*
X405032Y336653D02*
X408968D01*
Y338621D01*
X408312Y339277D01*
X407000D01*
X406344Y338621D01*
Y336653D01*
Y337965D02*
X405032Y339277D01*
X408968Y340589D02*
X405032Y343213D01*
X408968D02*
X405032Y340589D01*
X378312Y323534D02*
X378968Y322878D01*
Y321566D01*
X378312Y320910D01*
X375688D01*
X375032Y321566D01*
Y322878D01*
X375688Y323534D01*
X375032Y324846D02*
X377656D01*
X378968Y326158D01*
X377656Y327470D01*
X375032D01*
X377000D01*
Y324846D01*
X375032Y328782D02*
X378968D01*
X375032Y331405D01*
X378968D01*
X375032Y335341D02*
Y332717D01*
X377656Y335341D01*
X378312D01*
X378968Y334685D01*
Y333373D01*
X378312Y332717D01*
X378968Y336653D02*
Y339277D01*
Y337965D01*
X375032D01*
X378968Y340589D02*
X375032Y343213D01*
X378968D02*
X375032Y340589D01*
X319968Y325112D02*
Y326424D01*
Y325768D01*
X316032D01*
Y325112D01*
Y326424D01*
Y331016D02*
Y328392D01*
X318656Y331016D01*
X319312D01*
X319968Y330360D01*
Y329048D01*
X319312Y328392D01*
Y334952D02*
X319968Y334296D01*
Y332984D01*
X319312Y332328D01*
X318656D01*
X318000Y332984D01*
Y334296D01*
X317344Y334952D01*
X316688D01*
X316032Y334296D01*
Y332984D01*
X316688Y332328D01*
X319312Y336264D02*
X319968Y336920D01*
Y338232D01*
X319312Y338888D01*
X318656D01*
X318000Y338232D01*
Y337576D01*
Y338232D01*
X317344Y338888D01*
X316688D01*
X316032Y338232D01*
Y336920D01*
X316688Y336264D01*
X327312Y327736D02*
X327968Y327080D01*
Y325768D01*
X327312Y325112D01*
X326656D01*
X326000Y325768D01*
Y327080D01*
X325344Y327736D01*
X324688D01*
X324032Y327080D01*
Y325768D01*
X324688Y325112D01*
X324032Y329048D02*
X327968D01*
Y331016D01*
X327312Y331672D01*
X326000D01*
X325344Y331016D01*
Y329048D01*
X327968Y332984D02*
Y334296D01*
Y333640D01*
X324032D01*
Y332984D01*
Y334296D01*
X327312Y336264D02*
X327968Y336920D01*
Y338232D01*
X327312Y338888D01*
X326656D01*
X326000Y338232D01*
Y337576D01*
Y338232D01*
X325344Y338888D01*
X324688D01*
X324032Y338232D01*
Y336920D01*
X324688Y336264D01*
X335312Y328392D02*
X335968Y327736D01*
Y326424D01*
X335312Y325768D01*
X334656D01*
X334000Y326424D01*
Y327736D01*
X333344Y328392D01*
X332688D01*
X332032Y327736D01*
Y326424D01*
X332688Y325768D01*
X332032Y329704D02*
X335968D01*
Y331672D01*
X335312Y332328D01*
X334000D01*
X333344Y331672D01*
Y329704D01*
X335968Y333640D02*
Y334952D01*
Y334296D01*
X332032D01*
Y333640D01*
Y334952D01*
Y336920D02*
Y338232D01*
Y337576D01*
X335968D01*
X335312Y336920D01*
X241653Y347775D02*
X238373D01*
X237717Y348431D01*
Y349743D01*
X238373Y350399D01*
X241653D01*
X240997Y354334D02*
X241653Y353679D01*
Y352367D01*
X240997Y351711D01*
X240341D01*
X239685Y352367D01*
Y353679D01*
X239029Y354334D01*
X238373D01*
X237717Y353679D01*
Y352367D01*
X238373Y351711D01*
X241653Y355646D02*
X237717D01*
Y357614D01*
X238373Y358270D01*
X239029D01*
X239685Y357614D01*
Y355646D01*
Y357614D01*
X240341Y358270D01*
X240997D01*
X241653Y357614D01*
Y355646D01*
X237717Y362206D02*
Y359582D01*
X240341Y362206D01*
X240997D01*
X241653Y361550D01*
Y360238D01*
X240997Y359582D01*
X239685Y363518D02*
Y366142D01*
X251653Y347775D02*
X248373D01*
X247717Y348431D01*
Y349743D01*
X248373Y350399D01*
X251653D01*
X250997Y354334D02*
X251653Y353678D01*
Y352367D01*
X250997Y351711D01*
X250341D01*
X249685Y352367D01*
Y353678D01*
X249029Y354334D01*
X248373D01*
X247717Y353678D01*
Y352367D01*
X248373Y351711D01*
X251653Y355646D02*
X247717D01*
Y357614D01*
X248373Y358270D01*
X249029D01*
X249685Y357614D01*
Y355646D01*
Y357614D01*
X250341Y358270D01*
X250997D01*
X251653Y357614D01*
Y355646D01*
X247717Y362206D02*
Y359582D01*
X250341Y362206D01*
X250997D01*
X251653Y361550D01*
Y360238D01*
X250997Y359582D01*
X249685Y363518D02*
Y366142D01*
X250997Y364830D02*
X248373D01*
X251312Y373717D02*
X251968Y373061D01*
Y371749D01*
X251312Y371094D01*
X250656D01*
X250000Y371749D01*
Y373061D01*
X249344Y373717D01*
X248688D01*
X248032Y373061D01*
Y371749D01*
X248688Y371094D01*
X251968Y375029D02*
X248032D01*
Y376997D01*
X248688Y377653D01*
X251312D01*
X251968Y376997D01*
Y375029D01*
X248032Y378965D02*
X250656D01*
X251968Y380277D01*
X250656Y381589D01*
X248032D01*
X250000D01*
Y378965D01*
X248032Y382901D02*
Y384213D01*
Y383557D01*
X251968D01*
X251312Y382901D01*
X241312Y373717D02*
X241968Y373061D01*
Y371749D01*
X241312Y371094D01*
X240656D01*
X240000Y371749D01*
Y373061D01*
X239344Y373717D01*
X238688D01*
X238032Y373061D01*
Y371749D01*
X238688Y371094D01*
X241312Y377653D02*
X241968Y376997D01*
Y375685D01*
X241312Y375029D01*
X238688D01*
X238032Y375685D01*
Y376997D01*
X238688Y377653D01*
X241968Y378965D02*
X238032D01*
Y381589D01*
Y382901D02*
Y384213D01*
Y383557D01*
X241968D01*
X241312Y382901D01*
X352241Y322867D02*
X352897Y322211D01*
Y320899D01*
X352241Y320243D01*
X349617D01*
X348961Y320899D01*
Y322211D01*
X349617Y322867D01*
X348961Y324179D02*
X351585D01*
X352897Y325491D01*
X351585Y326803D01*
X348961D01*
X350929D01*
Y324179D01*
X348961Y328115D02*
X352897D01*
X348961Y330738D01*
X352897D01*
X348961Y332050D02*
Y333362D01*
Y332706D01*
X352897D01*
X352241Y332050D01*
X352897Y335330D02*
Y337954D01*
Y336642D01*
X348961D01*
X352897Y339266D02*
X348961Y341890D01*
X352897D02*
X348961Y339266D01*
X362241Y322867D02*
X362897Y322211D01*
Y320899D01*
X362241Y320243D01*
X359617D01*
X358961Y320899D01*
Y322211D01*
X359617Y322867D01*
X358961Y324179D02*
X361585D01*
X362897Y325491D01*
X361585Y326803D01*
X358961D01*
X360929D01*
Y324179D01*
X358961Y328115D02*
X362897D01*
X358961Y330738D01*
X362897D01*
X358961Y332050D02*
Y333362D01*
Y332706D01*
X362897D01*
X362241Y332050D01*
X358961Y335330D02*
X362897D01*
Y337298D01*
X362241Y337954D01*
X360929D01*
X360273Y337298D01*
Y335330D01*
Y336642D02*
X358961Y337954D01*
X362897Y339266D02*
X358961Y341890D01*
X362897D02*
X358961Y339266D01*
X362897Y351738D02*
X359617D01*
X358961Y352394D01*
Y353706D01*
X359617Y354362D01*
X362897D01*
X362241Y358298D02*
X362897Y357642D01*
Y356330D01*
X362241Y355674D01*
X361585D01*
X360929Y356330D01*
Y357642D01*
X360273Y358298D01*
X359617D01*
X358961Y357642D01*
Y356330D01*
X359617Y355674D01*
X362897Y359610D02*
X358961D01*
Y361577D01*
X359617Y362233D01*
X360273D01*
X360929Y361577D01*
Y359610D01*
Y361577D01*
X361585Y362233D01*
X362241D01*
X362897Y361577D01*
Y359610D01*
X358961Y363545D02*
Y364857D01*
Y364201D01*
X362897D01*
X362241Y363545D01*
X360929Y366825D02*
Y369449D01*
X352897Y351738D02*
X349617D01*
X348961Y352394D01*
Y353706D01*
X349617Y354362D01*
X352897D01*
X352241Y358298D02*
X352897Y357642D01*
Y356330D01*
X352241Y355674D01*
X351585D01*
X350929Y356330D01*
Y357642D01*
X350273Y358298D01*
X349617D01*
X348961Y357642D01*
Y356330D01*
X349617Y355674D01*
X352897Y359610D02*
X348961D01*
Y361577D01*
X349617Y362233D01*
X350273D01*
X350929Y361577D01*
Y359610D01*
Y361577D01*
X351585Y362233D01*
X352241D01*
X352897Y361577D01*
Y359610D01*
X348961Y363545D02*
Y364857D01*
Y364201D01*
X352897D01*
X352241Y363545D01*
X350929Y366825D02*
Y369449D01*
X352241Y368137D02*
X349617D01*
X328961Y355674D02*
X332897D01*
X331585Y356986D01*
X332897Y358298D01*
X328961D01*
X332897Y359610D02*
Y360921D01*
Y360265D01*
X328961D01*
Y359610D01*
Y360921D01*
X332241Y365513D02*
X332897Y364857D01*
Y363545D01*
X332241Y362889D01*
X331585D01*
X330929Y363545D01*
Y364857D01*
X330273Y365513D01*
X329617D01*
X328961Y364857D01*
Y363545D01*
X329617Y362889D01*
X332897Y368793D02*
Y367481D01*
X332241Y366825D01*
X329617D01*
X328961Y367481D01*
Y368793D01*
X329617Y369449D01*
X332241D01*
X332897Y368793D01*
X342897Y357642D02*
Y355018D01*
X340929D01*
Y356330D01*
Y355018D01*
X338961D01*
X342241Y361577D02*
X342897Y360921D01*
Y359610D01*
X342241Y358953D01*
X341585D01*
X340929Y359610D01*
Y360921D01*
X340273Y361577D01*
X339617D01*
X338961Y360921D01*
Y359610D01*
X339617Y358953D01*
X342241Y365513D02*
X342897Y364857D01*
Y363545D01*
X342241Y362889D01*
X341585D01*
X340929Y363545D01*
Y364857D01*
X340273Y365513D01*
X339617D01*
X338961Y364857D01*
Y363545D01*
X339617Y362889D01*
X338961Y367481D02*
X342897D01*
Y368793D02*
X338961D01*
X341585Y366825D02*
Y368793D01*
Y369449D01*
X340273Y366825D02*
Y369449D01*
X312241Y357642D02*
X312897Y356986D01*
Y355674D01*
X312241Y355018D01*
X311585D01*
X310929Y355674D01*
Y356986D01*
X310273Y357642D01*
X309617D01*
X308961Y356986D01*
Y355674D01*
X309617Y355018D01*
X312241Y361577D02*
X312897Y360921D01*
Y359610D01*
X312241Y358953D01*
X309617D01*
X308961Y359610D01*
Y360921D01*
X309617Y361577D01*
X312897Y362889D02*
X308961D01*
Y365513D01*
X312897Y366825D02*
X308961D01*
X310273D01*
X312897Y369449D01*
X310929Y367481D01*
X308961Y369449D01*
X318961Y356330D02*
X322897D01*
X321585Y357642D01*
X322897Y358953D01*
X318961D01*
X322897Y362233D02*
Y360921D01*
X322241Y360265D01*
X319617D01*
X318961Y360921D01*
Y362233D01*
X319617Y362889D01*
X322241D01*
X322897Y362233D01*
X322241Y366825D02*
X322897Y366169D01*
Y364857D01*
X322241Y364201D01*
X321585D01*
X320929Y364857D01*
Y366169D01*
X320273Y366825D01*
X319617D01*
X318961Y366169D01*
Y364857D01*
X319617Y364201D01*
X322897Y368137D02*
Y369449D01*
Y368793D01*
X318961D01*
Y368137D01*
Y369449D01*
X396390Y349737D02*
X397046Y350393D01*
X398358D01*
X399013Y349737D01*
Y349081D01*
X398358Y348425D01*
X397046D01*
X396390Y347769D01*
Y347113D01*
X397046Y346457D01*
X398358D01*
X399013Y347113D01*
X395078Y346457D02*
Y350393D01*
X393110D01*
X392454Y349737D01*
Y348425D01*
X393110Y347769D01*
X395078D01*
X391142Y350393D02*
X389830D01*
X390486D01*
Y346457D01*
X391142D01*
X389830D01*
X385238D02*
X387862D01*
X385238Y349081D01*
Y349737D01*
X385894Y350393D01*
X387206D01*
X387862Y349737D01*
X444589Y329312D02*
X445245Y329968D01*
X446557D01*
X447213Y329312D01*
Y328656D01*
X446557Y328000D01*
X445245D01*
X444589Y327344D01*
Y326688D01*
X445245Y326032D01*
X446557D01*
X447213Y326688D01*
X443277Y329968D02*
Y326032D01*
X441309D01*
X440653Y326688D01*
Y329312D01*
X441309Y329968D01*
X443277D01*
X439341Y326032D02*
Y328656D01*
X438029Y329968D01*
X436717Y328656D01*
Y326032D01*
Y328000D01*
X439341D01*
X432782Y326032D02*
X435405D01*
X432782Y328656D01*
Y329312D01*
X433437Y329968D01*
X434749D01*
X435405Y329312D01*
X427534Y326032D02*
Y329968D01*
X425566D01*
X424910Y329312D01*
Y328000D01*
X425566Y327344D01*
X427534D01*
X423598Y329968D02*
Y326032D01*
X421630D01*
X420974Y326688D01*
Y327344D01*
X421630Y328000D01*
X423598D01*
X421630D01*
X420974Y328656D01*
Y329312D01*
X421630Y329968D01*
X423598D01*
X419662Y326032D02*
X418351D01*
X419006D01*
Y329968D01*
X419662Y329312D01*
X416383Y326032D02*
X415071D01*
X415727D01*
Y329968D01*
X416383Y329312D01*
X444589Y337312D02*
X445245Y337968D01*
X446557D01*
X447213Y337312D01*
Y336656D01*
X446557Y336000D01*
X445245D01*
X444589Y335344D01*
Y334688D01*
X445245Y334032D01*
X446557D01*
X447213Y334688D01*
X440653Y337312D02*
X441309Y337968D01*
X442621D01*
X443277Y337312D01*
Y334688D01*
X442621Y334032D01*
X441309D01*
X440653Y334688D01*
X439341Y337968D02*
Y334032D01*
X436717D01*
X432782D02*
X435405D01*
X432782Y336656D01*
Y337312D01*
X433437Y337968D01*
X434749D01*
X435405Y337312D01*
X427534Y334032D02*
Y337968D01*
X425566D01*
X424910Y337312D01*
Y336000D01*
X425566Y335344D01*
X427534D01*
X423598Y337968D02*
Y334032D01*
X421630D01*
X420974Y334688D01*
Y335344D01*
X421630Y336000D01*
X423598D01*
X421630D01*
X420974Y336656D01*
Y337312D01*
X421630Y337968D01*
X423598D01*
X419662Y334032D02*
X418351D01*
X419006D01*
Y337968D01*
X419662Y337312D01*
X416383D02*
X415727Y337968D01*
X414415D01*
X413759Y337312D01*
Y334688D01*
X414415Y334032D01*
X415727D01*
X416383Y334688D01*
Y337312D01*
X384961Y356330D02*
X388897D01*
X387585Y357642D01*
X388897Y358953D01*
X384961D01*
X388897Y362233D02*
Y360921D01*
X388241Y360265D01*
X385617D01*
X384961Y360921D01*
Y362233D01*
X385617Y362889D01*
X388241D01*
X388897Y362233D01*
X388241Y366825D02*
X388897Y366169D01*
Y364857D01*
X388241Y364201D01*
X387585D01*
X386929Y364857D01*
Y366169D01*
X386273Y366825D01*
X385617D01*
X384961Y366169D01*
Y364857D01*
X385617Y364201D01*
X388897Y368137D02*
Y369449D01*
Y368793D01*
X384961D01*
Y368137D01*
Y369449D01*
X378241Y357642D02*
X378897Y356986D01*
Y355674D01*
X378241Y355018D01*
X377585D01*
X376929Y355674D01*
Y356986D01*
X376273Y357642D01*
X375617D01*
X374961Y356986D01*
Y355674D01*
X375617Y355018D01*
X378241Y361577D02*
X378897Y360921D01*
Y359610D01*
X378241Y358953D01*
X375617D01*
X374961Y359610D01*
Y360921D01*
X375617Y361577D01*
X378897Y362889D02*
X374961D01*
Y365513D01*
X378897Y366825D02*
X374961D01*
X376273D01*
X378897Y369449D01*
X376929Y367481D01*
X374961Y369449D01*
X408897Y357642D02*
Y355018D01*
X406929D01*
Y356330D01*
Y355018D01*
X404961D01*
X408241Y361577D02*
X408897Y360921D01*
Y359610D01*
X408241Y358953D01*
X407585D01*
X406929Y359610D01*
Y360921D01*
X406273Y361577D01*
X405617D01*
X404961Y360921D01*
Y359610D01*
X405617Y358953D01*
X408241Y365513D02*
X408897Y364857D01*
Y363545D01*
X408241Y362889D01*
X407585D01*
X406929Y363545D01*
Y364857D01*
X406273Y365513D01*
X405617D01*
X404961Y364857D01*
Y363545D01*
X405617Y362889D01*
X404961Y367481D02*
X408897D01*
Y368793D02*
X404961D01*
X407585Y366825D02*
Y368793D01*
Y369449D01*
X406273Y366825D02*
Y369449D01*
X394961Y355674D02*
X398897D01*
X397585Y356986D01*
X398897Y358298D01*
X394961D01*
X398897Y359610D02*
Y360921D01*
Y360265D01*
X394961D01*
Y359610D01*
Y360921D01*
X398241Y365513D02*
X398897Y364857D01*
Y363545D01*
X398241Y362889D01*
X397585D01*
X396929Y363545D01*
Y364857D01*
X396273Y365513D01*
X395617D01*
X394961Y364857D01*
Y363545D01*
X395617Y362889D01*
X398897Y368793D02*
Y367481D01*
X398241Y366825D01*
X395617D01*
X394961Y367481D01*
Y368793D01*
X395617Y369449D01*
X398241D01*
X398897Y368793D01*
X428968Y354782D02*
X425688D01*
X425032Y355437D01*
Y356749D01*
X425688Y357405D01*
X428968D01*
Y361341D02*
X428312Y360029D01*
X427000Y358717D01*
X425688D01*
X425032Y359373D01*
Y360685D01*
X425688Y361341D01*
X426344D01*
X427000Y360685D01*
Y358717D01*
X425032Y362653D02*
X428968D01*
Y364621D01*
X428312Y365277D01*
X427000D01*
X426344Y364621D01*
Y362653D01*
Y363965D02*
X425032Y365277D01*
X428968Y366589D02*
X425032Y369213D01*
X428968D02*
X425032Y366589D01*
X418968Y354782D02*
X415688D01*
X415032Y355437D01*
Y356749D01*
X415688Y357405D01*
X418968D01*
Y361341D02*
X418312Y360029D01*
X417000Y358717D01*
X415688D01*
X415032Y359373D01*
Y360685D01*
X415688Y361341D01*
X416344D01*
X417000Y360685D01*
Y358717D01*
X418968Y362653D02*
Y365277D01*
Y363965D01*
X415032D01*
X418968Y366589D02*
X415032Y369213D01*
X418968D02*
X415032Y366589D01*
X395032Y230787D02*
X397656D01*
X398968Y232099D01*
X397656Y233411D01*
X395032D01*
X397000D01*
Y230787D01*
X398968Y234723D02*
X395032D01*
Y236691D01*
X395688Y237347D01*
X398312D01*
X398968Y236691D01*
Y234723D01*
X398312Y241283D02*
X398968Y240627D01*
Y239315D01*
X398312Y238659D01*
X395688D01*
X395032Y239315D01*
Y240627D01*
X395688Y241283D01*
X398968Y245218D02*
Y242595D01*
X397000D01*
X397656Y243906D01*
Y244563D01*
X397000Y245218D01*
X395688D01*
X395032Y244563D01*
Y243251D01*
X395688Y242595D01*
X398968Y250787D02*
X395032D01*
Y252755D01*
X395688Y253411D01*
X398312D01*
X398968Y252755D01*
Y250787D01*
X395032Y254723D02*
X397656D01*
X398968Y256035D01*
X397656Y257347D01*
X395032D01*
X397000D01*
Y254723D01*
X398312Y261283D02*
X398968Y260627D01*
Y259315D01*
X398312Y258659D01*
X395688D01*
X395032Y259315D01*
Y260627D01*
X395688Y261283D01*
X395032Y265218D02*
Y262595D01*
X397656Y265218D01*
X398312D01*
X398968Y264563D01*
Y263251D01*
X398312Y262595D01*
X408968Y250787D02*
X405032D01*
Y252755D01*
X405688Y253411D01*
X408312D01*
X408968Y252755D01*
Y250787D01*
X405032Y254723D02*
X407656D01*
X408968Y256035D01*
X407656Y257347D01*
X405032D01*
X407000D01*
Y254723D01*
X408312Y261283D02*
X408968Y260627D01*
Y259315D01*
X408312Y258659D01*
X405688D01*
X405032Y259315D01*
Y260627D01*
X405688Y261283D01*
X405032Y262595D02*
Y263907D01*
Y263251D01*
X408968D01*
X408312Y262595D01*
X242579Y200787D02*
X240480D01*
X241530Y201837D02*
Y199738D01*
X239430Y201837D02*
X238906Y202362D01*
X237856D01*
X237332Y201837D01*
Y201312D01*
X237856Y200787D01*
X238381D01*
X237856D01*
X237332Y200263D01*
Y199738D01*
X237856Y199213D01*
X238906D01*
X239430Y199738D01*
X236282Y199213D02*
Y199738D01*
X235757D01*
Y199213D01*
X236282D01*
X231559D02*
X233658D01*
X231559Y201312D01*
Y201837D01*
X232084Y202362D01*
X233133D01*
X233658Y201837D01*
X230509Y202362D02*
Y200263D01*
X229460Y199213D01*
X228411Y200263D01*
Y202362D01*
X223688Y201837D02*
Y201312D01*
X224212D01*
X223163D01*
X223688D01*
Y199738D01*
X223163Y199213D01*
X221064D02*
X220014D01*
X219490Y199738D01*
Y200787D01*
X220014Y201312D01*
X221064D01*
X221588Y200787D01*
Y199738D01*
X221064Y199213D01*
X215291Y200787D02*
X213192D01*
X214242Y201837D02*
Y199738D01*
X212143Y199213D02*
X211093D01*
X211618D01*
Y202362D01*
X212143Y201837D01*
X207420Y199213D02*
X209519D01*
X207420Y201312D01*
Y201837D01*
X207945Y202362D01*
X208994D01*
X209519Y201837D01*
X206370Y202362D02*
Y200263D01*
X205321Y199213D01*
X204271Y200263D01*
Y202362D01*
X247244Y322520D02*
Y326456D01*
X245276D01*
X244620Y325800D01*
Y324488D01*
X245276Y323832D01*
X247244D01*
X243308Y326456D02*
Y322520D01*
X241340D01*
X240685Y323176D01*
Y323832D01*
X241340Y324488D01*
X243308D01*
X241340D01*
X240685Y325144D01*
Y325800D01*
X241340Y326456D01*
X243308D01*
X236749Y322520D02*
X239373D01*
X236749Y325144D01*
Y325800D01*
X237405Y326456D01*
X238717D01*
X239373Y325800D01*
X247244Y332716D02*
Y328780D01*
X244620D01*
X240685Y332716D02*
X243308D01*
Y328780D01*
X240685D01*
X243308Y330748D02*
X241997D01*
X239373Y332716D02*
Y328780D01*
X237405D01*
X236749Y329436D01*
Y332060D01*
X237405Y332716D01*
X239373D01*
X247244Y287716D02*
Y283780D01*
X244620D01*
X240685Y287716D02*
X243308D01*
Y283780D01*
X240685D01*
X243308Y285748D02*
X241997D01*
X239373Y287716D02*
Y283780D01*
X237405D01*
X236749Y284436D01*
Y287060D01*
X237405Y287716D01*
X239373D01*
X247244Y277520D02*
Y281456D01*
X245276D01*
X244620Y280800D01*
Y279488D01*
X245276Y278832D01*
X247244D01*
X243308Y277520D02*
Y280144D01*
X241997Y281456D01*
X240685Y280144D01*
Y277520D01*
Y279488D01*
X243308D01*
X239373Y280800D02*
X238717Y281456D01*
X237405D01*
X236749Y280800D01*
Y280144D01*
X237405Y279488D01*
X236749Y278832D01*
Y278176D01*
X237405Y277520D01*
X238717D01*
X239373Y278176D01*
Y278832D01*
X238717Y279488D01*
X239373Y280144D01*
Y280800D01*
X238717Y279488D02*
X237405D01*
X289032Y381653D02*
X292968D01*
X289032Y384277D01*
X292968D01*
X292312Y388213D02*
X292968Y387557D01*
Y386245D01*
X292312Y385589D01*
X289688D01*
X289032Y386245D01*
Y387557D01*
X289688Y388213D01*
X368312Y217411D02*
X368968Y216755D01*
Y215443D01*
X368312Y214787D01*
X365688D01*
X365032Y215443D01*
Y216755D01*
X365688Y217411D01*
X367000D01*
Y216099D01*
X365032Y218723D02*
X368968D01*
X365032Y221347D01*
X368968D01*
Y222659D02*
X365032D01*
Y224627D01*
X365688Y225283D01*
X368312D01*
X368968Y224627D01*
Y222659D01*
X345032Y214787D02*
X348968D01*
X345032Y217411D01*
X348968D01*
X348312Y221347D02*
X348968Y220691D01*
Y219379D01*
X348312Y218723D01*
X345688D01*
X345032Y219379D01*
Y220691D01*
X345688Y221347D01*
X338968Y214787D02*
Y216099D01*
Y215443D01*
X335032D01*
Y214787D01*
Y216099D01*
X338968Y220035D02*
Y218723D01*
X338312Y218067D01*
X335688D01*
X335032Y218723D01*
Y220035D01*
X335688Y220691D01*
X338312D01*
X338968Y220035D01*
X335032Y222003D02*
X338968D01*
Y223971D01*
X338312Y224627D01*
X337000D01*
X336344Y223971D01*
Y222003D01*
Y223315D02*
X335032Y224627D01*
X338968Y228562D02*
Y225939D01*
X335032D01*
Y228562D01*
X337000Y225939D02*
Y227251D01*
X338968Y232498D02*
Y229874D01*
X337000D01*
Y231186D01*
Y229874D01*
X335032D01*
X438968Y354782D02*
X435688D01*
X435032Y355437D01*
Y356749D01*
X435688Y357405D01*
X438968D01*
X438312Y358717D02*
X438968Y359373D01*
Y360685D01*
X438312Y361341D01*
X435688D01*
X435032Y360685D01*
Y359373D01*
X435688Y358717D01*
X438312D01*
X438968Y362653D02*
Y365277D01*
Y363965D01*
X435032D01*
X438968Y366589D02*
X435032Y369213D01*
X438968D02*
X435032Y366589D01*
X448968Y354782D02*
X445688D01*
X445032Y355437D01*
Y356749D01*
X445688Y357405D01*
X448968D01*
X448312Y358717D02*
X448968Y359373D01*
Y360685D01*
X448312Y361341D01*
X445688D01*
X445032Y360685D01*
Y359373D01*
X445688Y358717D01*
X448312D01*
X445032Y362653D02*
X448968D01*
Y364621D01*
X448312Y365277D01*
X447000D01*
X446344Y364621D01*
Y362653D01*
Y363965D02*
X445032Y365277D01*
X448968Y366589D02*
X445032Y369213D01*
X448968D02*
X445032Y366589D01*
X405032Y230787D02*
X407656D01*
X408968Y232099D01*
X407656Y233411D01*
X405032D01*
X407000D01*
Y230787D01*
X408968Y234723D02*
X405032D01*
Y236691D01*
X405688Y237347D01*
X408312D01*
X408968Y236691D01*
Y234723D01*
X408312Y241283D02*
X408968Y240627D01*
Y239315D01*
X408312Y238659D01*
X405688D01*
X405032Y239315D01*
Y240627D01*
X405688Y241283D01*
X405032Y244563D02*
X408968D01*
X407000Y242595D01*
Y245218D01*
X415032Y230787D02*
X417656D01*
X418968Y232099D01*
X417656Y233411D01*
X415032D01*
X417000D01*
Y230787D01*
X418968Y234723D02*
X415032D01*
Y236691D01*
X415688Y237347D01*
X418312D01*
X418968Y236691D01*
Y234723D01*
X418312Y241283D02*
X418968Y240627D01*
Y239315D01*
X418312Y238659D01*
X415688D01*
X415032Y239315D01*
Y240627D01*
X415688Y241283D01*
X418312Y242595D02*
X418968Y243251D01*
Y244563D01*
X418312Y245218D01*
X417656D01*
X417000Y244563D01*
Y243906D01*
Y244563D01*
X416344Y245218D01*
X415688D01*
X415032Y244563D01*
Y243251D01*
X415688Y242595D01*
X425032Y230787D02*
X427656D01*
X428968Y232099D01*
X427656Y233411D01*
X425032D01*
X427000D01*
Y230787D01*
X428968Y234723D02*
X425032D01*
Y236691D01*
X425688Y237347D01*
X428312D01*
X428968Y236691D01*
Y234723D01*
X428312Y241283D02*
X428968Y240627D01*
Y239315D01*
X428312Y238659D01*
X425688D01*
X425032Y239315D01*
Y240627D01*
X425688Y241283D01*
X425032Y245218D02*
Y242595D01*
X427656Y245218D01*
X428312D01*
X428968Y244563D01*
Y243251D01*
X428312Y242595D01*
X435032Y230787D02*
X437656D01*
X438968Y232099D01*
X437656Y233411D01*
X435032D01*
X437000D01*
Y230787D01*
X438968Y234723D02*
X435032D01*
Y236691D01*
X435688Y237347D01*
X438312D01*
X438968Y236691D01*
Y234723D01*
X438312Y241283D02*
X438968Y240627D01*
Y239315D01*
X438312Y238659D01*
X435688D01*
X435032Y239315D01*
Y240627D01*
X435688Y241283D01*
X435032Y242595D02*
Y243906D01*
Y243251D01*
X438968D01*
X438312Y242595D01*
X445032Y214787D02*
X448968D01*
Y216755D01*
X448312Y217411D01*
X447000D01*
X446344Y216755D01*
Y214787D01*
X445032Y218723D02*
X447656D01*
X448968Y220035D01*
X447656Y221347D01*
X445032D01*
X447000D01*
Y218723D01*
X448312Y222659D02*
X448968Y223315D01*
Y224627D01*
X448312Y225283D01*
X445688D01*
X445032Y224627D01*
Y223315D01*
X445688Y222659D01*
X448312D01*
X269032Y377717D02*
X272968D01*
Y379685D01*
X272312Y380341D01*
X271000D01*
X270344Y379685D01*
Y377717D01*
X272968Y381653D02*
X269032D01*
Y383621D01*
X269688Y384277D01*
X270344D01*
X271000Y383621D01*
Y381653D01*
Y383621D01*
X271656Y384277D01*
X272312D01*
X272968Y383621D01*
Y381653D01*
Y388213D02*
X272312Y386901D01*
X271000Y385589D01*
X269688D01*
X269032Y386245D01*
Y387557D01*
X269688Y388213D01*
X270344D01*
X271000Y387557D01*
Y385589D01*
X279032Y377717D02*
X282968D01*
Y379685D01*
X282312Y380341D01*
X281000D01*
X280344Y379685D01*
Y377717D01*
X282968Y381653D02*
X279032D01*
Y383621D01*
X279688Y384277D01*
X280344D01*
X281000Y383621D01*
Y381653D01*
Y383621D01*
X281656Y384277D01*
X282312D01*
X282968Y383621D01*
Y381653D01*
Y385589D02*
Y388213D01*
X282312D01*
X279688Y385589D01*
X279032D01*
X302312Y380341D02*
X302968Y379685D01*
Y378373D01*
X302312Y377717D01*
X299688D01*
X299032Y378373D01*
Y379685D01*
X299688Y380341D01*
X301000D01*
Y379029D01*
X299032Y381653D02*
X302968D01*
X299032Y384277D01*
X302968D01*
Y385589D02*
X299032D01*
Y387557D01*
X299688Y388213D01*
X302312D01*
X302968Y387557D01*
Y385589D01*
X309032Y377717D02*
X312968D01*
Y379685D01*
X312312Y380341D01*
X311000D01*
X310344Y379685D01*
Y377717D01*
X312968Y381653D02*
X309032D01*
Y383621D01*
X309688Y384277D01*
X310344D01*
X311000Y383621D01*
Y381653D01*
Y383621D01*
X311656Y384277D01*
X312312D01*
X312968Y383621D01*
Y381653D01*
X312312Y385589D02*
X312968Y386245D01*
Y387557D01*
X312312Y388213D01*
X311656D01*
X311000Y387557D01*
Y386901D01*
Y387557D01*
X310344Y388213D01*
X309688D01*
X309032Y387557D01*
Y386245D01*
X309688Y385589D01*
X319032Y377717D02*
X322968D01*
Y379685D01*
X322312Y380341D01*
X321000D01*
X320344Y379685D01*
Y377717D01*
X322968Y381653D02*
X319032D01*
Y383621D01*
X319688Y384277D01*
X320344D01*
X321000Y383621D01*
Y381653D01*
Y383621D01*
X321656Y384277D01*
X322312D01*
X322968Y383621D01*
Y381653D01*
Y388213D02*
Y385589D01*
X321000D01*
X321656Y386901D01*
Y387557D01*
X321000Y388213D01*
X319688D01*
X319032Y387557D01*
Y386245D01*
X319688Y385589D01*
X329032Y377717D02*
X332968D01*
Y379685D01*
X332312Y380341D01*
X331000D01*
X330344Y379685D01*
Y377717D01*
X332968Y381653D02*
X329032D01*
Y383621D01*
X329688Y384277D01*
X330344D01*
X331000Y383621D01*
Y381653D01*
Y383621D01*
X331656Y384277D01*
X332312D01*
X332968Y383621D01*
Y381653D01*
X329032Y387557D02*
X332968D01*
X331000Y385589D01*
Y388213D01*
X339032Y374437D02*
X342968D01*
Y376405D01*
X342312Y377061D01*
X341000D01*
X340344Y376405D01*
Y374437D01*
X339032Y378373D02*
X341656D01*
X342968Y379685D01*
X341656Y380997D01*
X339032D01*
X341000D01*
Y378373D01*
X339032Y382309D02*
Y383621D01*
Y382965D01*
X342968D01*
X342312Y382309D01*
X342968Y388213D02*
Y385589D01*
X341000D01*
X341656Y386901D01*
Y387557D01*
X341000Y388213D01*
X339688D01*
X339032Y387557D01*
Y386245D01*
X339688Y385589D01*
X349032Y374437D02*
X352968D01*
Y376405D01*
X352312Y377061D01*
X351000D01*
X350344Y376405D01*
Y374437D01*
X349032Y378373D02*
X351656D01*
X352968Y379685D01*
X351656Y380997D01*
X349032D01*
X351000D01*
Y378373D01*
X349032Y382309D02*
Y383621D01*
Y382965D01*
X352968D01*
X352312Y382309D01*
X349032Y388213D02*
Y385589D01*
X351656Y388213D01*
X352312D01*
X352968Y387557D01*
Y386245D01*
X352312Y385589D01*
X359032Y375749D02*
X362968D01*
Y377717D01*
X362312Y378373D01*
X361000D01*
X360344Y377717D01*
Y375749D01*
X359032Y379685D02*
X361656D01*
X362968Y380997D01*
X361656Y382309D01*
X359032D01*
X361000D01*
Y379685D01*
X359032Y383621D02*
Y384933D01*
Y384277D01*
X362968D01*
X362312Y383621D01*
X359032Y386901D02*
Y388213D01*
Y387557D01*
X362968D01*
X362312Y386901D01*
X375032Y374437D02*
X378968D01*
Y376405D01*
X378312Y377061D01*
X377000D01*
X376344Y376405D01*
Y374437D01*
X378968Y378373D02*
X375032D01*
Y380341D01*
X375688Y380997D01*
X376344D01*
X377000Y380341D01*
Y378373D01*
Y380341D01*
X377656Y380997D01*
X378312D01*
X378968Y380341D01*
Y378373D01*
X375032Y382309D02*
Y383621D01*
Y382965D01*
X378968D01*
X378312Y382309D01*
Y385589D02*
X378968Y386245D01*
Y387557D01*
X378312Y388213D01*
X377656D01*
X377000Y387557D01*
Y386901D01*
Y387557D01*
X376344Y388213D01*
X375688D01*
X375032Y387557D01*
Y386245D01*
X375688Y385589D01*
X385032Y374437D02*
X388968D01*
Y376405D01*
X388312Y377061D01*
X387000D01*
X386344Y376405D01*
Y374437D01*
X388968Y378373D02*
X385032D01*
Y380341D01*
X385688Y380997D01*
X386344D01*
X387000Y380341D01*
Y378373D01*
Y380341D01*
X387656Y380997D01*
X388312D01*
X388968Y380341D01*
Y378373D01*
X385032Y382309D02*
Y383621D01*
Y382965D01*
X388968D01*
X388312Y382309D01*
X388968Y388213D02*
Y385589D01*
X387000D01*
X387656Y386901D01*
Y387557D01*
X387000Y388213D01*
X385688D01*
X385032Y387557D01*
Y386245D01*
X385688Y385589D01*
X395032Y374437D02*
X398968D01*
Y376405D01*
X398312Y377061D01*
X397000D01*
X396344Y376405D01*
Y374437D01*
X398968Y378373D02*
X395032D01*
Y380341D01*
X395688Y380997D01*
X396344D01*
X397000Y380341D01*
Y378373D01*
Y380341D01*
X397656Y380997D01*
X398312D01*
X398968Y380341D01*
Y378373D01*
X395032Y382309D02*
Y383621D01*
Y382965D01*
X398968D01*
X398312Y382309D01*
X395032Y387557D02*
X398968D01*
X397000Y385589D01*
Y388213D01*
X405032Y374437D02*
X408968D01*
Y376405D01*
X408312Y377061D01*
X407000D01*
X406344Y376405D01*
Y374437D01*
X408968Y378373D02*
X405032D01*
Y380341D01*
X405688Y380997D01*
X406344D01*
X407000Y380341D01*
Y378373D01*
Y380341D01*
X407656Y380997D01*
X408312D01*
X408968Y380341D01*
Y378373D01*
X405032Y382309D02*
Y383621D01*
Y382965D01*
X408968D01*
X408312Y382309D01*
X405032Y388213D02*
Y385589D01*
X407656Y388213D01*
X408312D01*
X408968Y387557D01*
Y386245D01*
X408312Y385589D01*
X415032Y377717D02*
X418968D01*
Y379685D01*
X418312Y380341D01*
X417000D01*
X416344Y379685D01*
Y377717D01*
X418968Y381653D02*
X415032D01*
Y383621D01*
X415688Y384277D01*
X416344D01*
X417000Y383621D01*
Y381653D01*
Y383621D01*
X417656Y384277D01*
X418312D01*
X418968Y383621D01*
Y381653D01*
X418312Y385589D02*
X418968Y386245D01*
Y387557D01*
X418312Y388213D01*
X417656D01*
X417000Y387557D01*
X416344Y388213D01*
X415688D01*
X415032Y387557D01*
Y386245D01*
X415688Y385589D01*
X416344D01*
X417000Y386245D01*
X417656Y385589D01*
X418312D01*
X417000Y386245D02*
Y387557D01*
X425032Y377717D02*
X428968D01*
Y379685D01*
X428312Y380341D01*
X427000D01*
X426344Y379685D01*
Y377717D01*
X428968Y381653D02*
X425032D01*
Y383621D01*
X425688Y384277D01*
X426344D01*
X427000Y383621D01*
Y381653D01*
Y383621D01*
X427656Y384277D01*
X428312D01*
X428968Y383621D01*
Y381653D01*
X425688Y385589D02*
X425032Y386245D01*
Y387557D01*
X425688Y388213D01*
X428312D01*
X428968Y387557D01*
Y386245D01*
X428312Y385589D01*
X427656D01*
X427000Y386245D01*
Y388213D01*
X435032Y377717D02*
X438968D01*
Y379685D01*
X438312Y380341D01*
X437000D01*
X436344Y379685D01*
Y377717D01*
X435032Y381653D02*
X437656D01*
X438968Y382965D01*
X437656Y384277D01*
X435032D01*
X437000D01*
Y381653D01*
X435688Y385589D02*
X435032Y386245D01*
Y387557D01*
X435688Y388213D01*
X438312D01*
X438968Y387557D01*
Y386245D01*
X438312Y385589D01*
X437656D01*
X437000Y386245D01*
Y388213D01*
X445032Y374437D02*
X448968D01*
Y376405D01*
X448312Y377061D01*
X447000D01*
X446344Y376405D01*
Y374437D01*
X445032Y378373D02*
X447656D01*
X448968Y379685D01*
X447656Y380997D01*
X445032D01*
X447000D01*
Y378373D01*
X445032Y382309D02*
Y383621D01*
Y382965D01*
X448968D01*
X448312Y382309D01*
Y385589D02*
X448968Y386245D01*
Y387557D01*
X448312Y388213D01*
X445688D01*
X445032Y387557D01*
Y386245D01*
X445688Y385589D01*
X448312D01*
X445032Y230787D02*
X447656D01*
X448968Y232099D01*
X447656Y233411D01*
X445032D01*
X447000D01*
Y230787D01*
X448968Y234723D02*
X445032D01*
Y236691D01*
X445688Y237347D01*
X448312D01*
X448968Y236691D01*
Y234723D01*
X448312Y241283D02*
X448968Y240627D01*
Y239315D01*
X448312Y238659D01*
X445688D01*
X445032Y239315D01*
Y240627D01*
X445688Y241283D01*
X448312Y242595D02*
X448968Y243251D01*
Y244563D01*
X448312Y245218D01*
X445688D01*
X445032Y244563D01*
Y243251D01*
X445688Y242595D01*
X448312D01*
X435032Y214787D02*
X438968D01*
Y216755D01*
X438312Y217411D01*
X437000D01*
X436344Y216755D01*
Y214787D01*
X435032Y218723D02*
X437656D01*
X438968Y220035D01*
X437656Y221347D01*
X435032D01*
X437000D01*
Y218723D01*
X435032Y222659D02*
Y223971D01*
Y223315D01*
X438968D01*
X438312Y222659D01*
X425032Y214787D02*
X428968D01*
Y216755D01*
X428312Y217411D01*
X427000D01*
X426344Y216755D01*
Y214787D01*
X425032Y218723D02*
X427656D01*
X428968Y220035D01*
X427656Y221347D01*
X425032D01*
X427000D01*
Y218723D01*
X425032Y225283D02*
Y222659D01*
X427656Y225283D01*
X428312D01*
X428968Y224627D01*
Y223315D01*
X428312Y222659D01*
X415032Y214787D02*
X418968D01*
Y216755D01*
X418312Y217411D01*
X417000D01*
X416344Y216755D01*
Y214787D01*
X415032Y218723D02*
X417656D01*
X418968Y220035D01*
X417656Y221347D01*
X415032D01*
X417000D01*
Y218723D01*
X418312Y222659D02*
X418968Y223315D01*
Y224627D01*
X418312Y225283D01*
X417656D01*
X417000Y224627D01*
Y223971D01*
Y224627D01*
X416344Y225283D01*
X415688D01*
X415032Y224627D01*
Y223315D01*
X415688Y222659D01*
X405032Y214787D02*
X408968D01*
Y216755D01*
X408312Y217411D01*
X407000D01*
X406344Y216755D01*
Y214787D01*
X405032Y218723D02*
X407656D01*
X408968Y220035D01*
X407656Y221347D01*
X405032D01*
X407000D01*
Y218723D01*
X405032Y224627D02*
X408968D01*
X407000Y222659D01*
Y225283D01*
X395032Y214787D02*
X398968D01*
Y216755D01*
X398312Y217411D01*
X397000D01*
X396344Y216755D01*
Y214787D01*
X395032Y218723D02*
X397656D01*
X398968Y220035D01*
X397656Y221347D01*
X395032D01*
X397000D01*
Y218723D01*
X398968Y225283D02*
Y222659D01*
X397000D01*
X397656Y223971D01*
Y224627D01*
X397000Y225283D01*
X395688D01*
X395032Y224627D01*
Y223315D01*
X395688Y222659D01*
X378968Y214787D02*
X376344D01*
X375032Y216099D01*
X376344Y217411D01*
X378968D01*
X378312Y221347D02*
X378968Y220691D01*
Y219379D01*
X378312Y218723D01*
X375688D01*
X375032Y219379D01*
Y220691D01*
X375688Y221347D01*
X378312Y225283D02*
X378968Y224627D01*
Y223315D01*
X378312Y222659D01*
X375688D01*
X375032Y223315D01*
Y224627D01*
X375688Y225283D01*
X378968Y226595D02*
Y227906D01*
Y227251D01*
X375032D01*
Y226595D01*
Y227906D01*
Y229874D02*
X378968D01*
X375032Y232498D01*
X378968D01*
X358312Y217411D02*
X358968Y216755D01*
Y215443D01*
X358312Y214787D01*
X355688D01*
X355032Y215443D01*
Y216755D01*
X355688Y217411D01*
X357000D01*
Y216099D01*
X355032Y218723D02*
X358968D01*
X355032Y221347D01*
X358968D01*
Y222659D02*
X355032D01*
Y224627D01*
X355688Y225283D01*
X358312D01*
X358968Y224627D01*
Y222659D01*
X325032Y214787D02*
X328968D01*
Y216755D01*
X328312Y217411D01*
X327000D01*
X326344Y216755D01*
Y214787D01*
Y216099D02*
X325032Y217411D01*
X328968Y221347D02*
Y218723D01*
X325032D01*
Y221347D01*
X327000Y218723D02*
Y220035D01*
X328312Y225283D02*
X328968Y224627D01*
Y223315D01*
X328312Y222659D01*
X327656D01*
X327000Y223315D01*
Y224627D01*
X326344Y225283D01*
X325688D01*
X325032Y224627D01*
Y223315D01*
X325688Y222659D01*
X328968Y229218D02*
Y226595D01*
X325032D01*
Y229218D01*
X327000Y226595D02*
Y227906D01*
X328968Y230530D02*
Y233154D01*
Y231842D01*
X325032D01*
X318312Y214787D02*
X318968Y215443D01*
Y216755D01*
X318312Y217411D01*
X317656D01*
X317000Y216755D01*
Y216099D01*
Y216755D01*
X316344Y217411D01*
X315688D01*
X315032Y216755D01*
Y215443D01*
X315688Y214787D01*
X318968Y218723D02*
X316344D01*
X315032Y220035D01*
X316344Y221347D01*
X318968D01*
X318312Y222659D02*
X318968Y223315D01*
Y224627D01*
X318312Y225283D01*
X317656D01*
X317000Y224627D01*
Y223971D01*
Y224627D01*
X316344Y225283D01*
X315688D01*
X315032Y224627D01*
Y223315D01*
X315688Y222659D01*
X309296Y217411D02*
Y214787D01*
X305360D01*
Y217411D01*
X307328Y214787D02*
Y216099D01*
X308640Y221347D02*
X309296Y220691D01*
Y219379D01*
X308640Y218723D01*
X307984D01*
X307328Y219379D01*
Y220691D01*
X306672Y221347D01*
X306016D01*
X305360Y220691D01*
Y219379D01*
X306016Y218723D01*
X305360Y222659D02*
X309296D01*
Y224627D01*
X308640Y225283D01*
X307328D01*
X306672Y224627D01*
Y222659D01*
X304704Y226595D02*
Y229218D01*
X309296Y230530D02*
Y231842D01*
Y231186D01*
X305360D01*
Y230530D01*
Y231842D01*
X309296Y235778D02*
Y234466D01*
X308640Y233810D01*
X306016D01*
X305360Y234466D01*
Y235778D01*
X306016Y236434D01*
X308640D01*
X309296Y235778D01*
X306016Y237746D02*
X305360Y238402D01*
Y239714D01*
X306016Y240370D01*
X308640D01*
X309296Y239714D01*
Y238402D01*
X308640Y237746D01*
X307984D01*
X307328Y238402D01*
Y240370D01*
X288968Y214787D02*
X286344D01*
X285032Y216099D01*
X286344Y217411D01*
X288968D01*
Y218723D02*
X285032D01*
Y220691D01*
X285688Y221347D01*
X286344D01*
X287000Y220691D01*
Y218723D01*
Y220691D01*
X287656Y221347D01*
X288312D01*
X288968Y220691D01*
Y218723D01*
X285032Y222659D02*
X287656D01*
X288968Y223971D01*
X287656Y225283D01*
X285032D01*
X287000D01*
Y222659D01*
X288968Y226595D02*
Y229218D01*
Y227906D01*
X285032D01*
X278312Y217411D02*
X278968Y216755D01*
Y215443D01*
X278312Y214787D01*
X275688D01*
X275032Y215443D01*
Y216755D01*
X275688Y217411D01*
X277000D01*
Y216099D01*
X275032Y218723D02*
X278968D01*
X275032Y221347D01*
X278968D01*
Y222659D02*
X275032D01*
Y224627D01*
X275688Y225283D01*
X278312D01*
X278968Y224627D01*
Y222659D01*
X265032Y214787D02*
X268968D01*
Y216755D01*
X268312Y217411D01*
X267000D01*
X266344Y216755D01*
Y214787D01*
X268968Y220691D02*
Y219379D01*
X268312Y218723D01*
X265688D01*
X265032Y219379D01*
Y220691D01*
X265688Y221347D01*
X268312D01*
X268968Y220691D01*
Y222659D02*
X265032D01*
X266344Y223971D01*
X265032Y225283D01*
X268968D01*
Y229218D02*
Y226595D01*
X265032D01*
Y229218D01*
X267000Y226595D02*
Y227906D01*
X265032Y230530D02*
X268968D01*
Y232498D01*
X268312Y233154D01*
X267000D01*
X266344Y232498D01*
Y230530D01*
Y231842D02*
X265032Y233154D01*
X268968Y240370D02*
Y239058D01*
X268312Y238402D01*
X265688D01*
X265032Y239058D01*
Y240370D01*
X265688Y241026D01*
X268312D01*
X268968Y240370D01*
Y244961D02*
Y242338D01*
X267000D01*
Y243650D01*
Y242338D01*
X265032D01*
X268968Y248897D02*
Y246273D01*
X267000D01*
Y247585D01*
Y246273D01*
X265032D01*
D156*
X313319Y255600D02*
D03*
Y267053D02*
D03*
Y297592D02*
D03*
Y309045D02*
D03*
D157*
X303778Y255600D02*
D03*
X298049D02*
D03*
X290415D02*
D03*
X286596D02*
D03*
X282778D02*
D03*
X269415D02*
D03*
X319045Y259415D02*
D03*
X307593D02*
D03*
X303778D02*
D03*
X290415D02*
D03*
X286596D02*
D03*
X319045Y261325D02*
D03*
X307593D02*
D03*
X303778D02*
D03*
X319045Y265144D02*
D03*
X307593D02*
D03*
X265600D02*
D03*
X303778Y267053D02*
D03*
X277053D02*
D03*
X319045Y270868D02*
D03*
X315230D02*
D03*
X319045Y272778D02*
D03*
X298049D02*
D03*
X319045Y274687D02*
D03*
X307593D02*
D03*
X284687D02*
D03*
X280868D02*
D03*
X269415D02*
D03*
X303778Y276596D02*
D03*
X288506D02*
D03*
X269415D02*
D03*
X265600D02*
D03*
X296140Y278506D02*
D03*
X286596D02*
D03*
X282778D02*
D03*
X275144D02*
D03*
X319045Y280415D02*
D03*
X313321D02*
D03*
X303778D02*
D03*
X290415D02*
D03*
X288506Y284230D02*
D03*
X265600D02*
D03*
X315230Y286140D02*
D03*
X298049D02*
D03*
X286596D02*
D03*
X282778D02*
D03*
X309502Y288049D02*
D03*
X288506D02*
D03*
X282778D02*
D03*
X271325D02*
D03*
X315230Y291868D02*
D03*
X311411D02*
D03*
X301868D02*
D03*
X294230D02*
D03*
X265600D02*
D03*
X275144Y293778D02*
D03*
X271325D02*
D03*
X303778Y297592D02*
D03*
X296140D02*
D03*
X288506D02*
D03*
X284687D02*
D03*
X280868D02*
D03*
X319045Y299502D02*
D03*
X307593D02*
D03*
X303778D02*
D03*
X284687D02*
D03*
X280868D02*
D03*
X277053D02*
D03*
X265600D02*
D03*
X319045Y301411D02*
D03*
X307593D02*
D03*
X277053D02*
D03*
X265600D02*
D03*
X319045Y303321D02*
D03*
X307593D02*
D03*
X298049D02*
D03*
X286596D02*
D03*
X280868D02*
D03*
X277053D02*
D03*
X265600D02*
D03*
X319045Y305230D02*
D03*
X307593D02*
D03*
X277053D02*
D03*
X265600D02*
D03*
X301868Y309045D02*
D03*
X288506D02*
D03*
D158*
X275144Y255600D02*
D03*
X271325Y267053D02*
D03*
X275144Y274687D02*
D03*
X299959Y288049D02*
D03*
X275144Y291868D02*
D03*
X271325Y301411D02*
D03*
Y303321D02*
D03*
X299959Y305230D02*
D03*
X271325D02*
D03*
D159*
X319045Y257508D02*
D03*
X307593D02*
D03*
X303778D02*
D03*
X298049D02*
D03*
X275144D02*
D03*
X271325D02*
D03*
X303778Y268961D02*
D03*
X288506D02*
D03*
X280868D02*
D03*
X296140Y295685D02*
D03*
X288506D02*
D03*
X319045Y307138D02*
D03*
X307593D02*
D03*
X277053D02*
D03*
X265600D02*
D03*
D160*
X290413Y257508D02*
D03*
X294232Y268961D02*
D03*
D161*
X279915Y257508D02*
D03*
Y282323D02*
D03*
D162*
X267508Y257508D02*
D03*
X317138Y282323D02*
D03*
D163*
X313321Y259415D02*
D03*
Y261325D02*
D03*
X282778Y265144D02*
D03*
X288506Y270868D02*
D03*
X313321Y272778D02*
D03*
X284687Y293778D02*
D03*
X313321Y301411D02*
D03*
X282778D02*
D03*
X313321Y303321D02*
D03*
Y305230D02*
D03*
D164*
X297094Y259415D02*
D03*
X295185Y265144D02*
D03*
X281823Y267053D02*
D03*
X312366Y274687D02*
D03*
X289461D02*
D03*
X283732Y276596D02*
D03*
X270370Y278506D02*
D03*
X295185Y280415D02*
D03*
X314276Y284230D02*
D03*
X295185D02*
D03*
X270370Y286140D02*
D03*
X295185Y301411D02*
D03*
X302823Y303321D02*
D03*
X283732Y305230D02*
D03*
X281823Y309045D02*
D03*
D165*
X275144Y259415D02*
D03*
D166*
X284687Y261325D02*
D03*
Y291868D02*
D03*
D167*
X268463Y261325D02*
D03*
X316183Y276596D02*
D03*
X291368Y299502D02*
D03*
D168*
X319045Y263234D02*
D03*
X307593D02*
D03*
X303778D02*
D03*
X296140D02*
D03*
X269415D02*
D03*
X280868Y289959D02*
D03*
D169*
X313321Y263234D02*
D03*
D170*
X299959D02*
D03*
X273234Y289959D02*
D03*
D171*
X288504Y263234D02*
D03*
X294232Y289959D02*
D03*
D172*
X277051Y263234D02*
D03*
D173*
X300913Y265144D02*
D03*
D174*
X273234D02*
D03*
X299959Y267053D02*
D03*
Y297592D02*
D03*
Y299502D02*
D03*
Y301411D02*
D03*
D175*
X292323Y267053D02*
D03*
X267508Y270868D02*
D03*
X290413Y272778D02*
D03*
X278961D02*
D03*
X294232Y293778D02*
D03*
X290413Y305230D02*
D03*
D176*
X299959Y268961D02*
D03*
D177*
X269417D02*
D03*
D178*
X302821Y270868D02*
D03*
X278006D02*
D03*
Y280415D02*
D03*
D179*
X304730Y272778D02*
D03*
X318092Y278506D02*
D03*
X293278Y303321D02*
D03*
D180*
X267508Y272778D02*
D03*
X292323Y278506D02*
D03*
X278961D02*
D03*
X267508Y280415D02*
D03*
X317138Y288049D02*
D03*
X305685D02*
D03*
X292323D02*
D03*
X267508D02*
D03*
X278961Y293778D02*
D03*
X267508D02*
D03*
X292323Y297592D02*
D03*
Y309045D02*
D03*
D181*
X299004Y274687D02*
D03*
D182*
X276097Y276596D02*
D03*
X302821Y284230D02*
D03*
D183*
X303776Y278506D02*
D03*
Y293778D02*
D03*
D184*
X309502Y282323D02*
D03*
D185*
X289459D02*
D03*
D186*
X271325D02*
D03*
D187*
X278961Y284230D02*
D03*
X271327Y297592D02*
D03*
Y309045D02*
D03*
D188*
X306640Y286140D02*
D03*
D189*
X314276Y289959D02*
D03*
D190*
X304730D02*
D03*
D191*
X315228Y293778D02*
D03*
D192*
X302823Y307138D02*
D03*
X297094D02*
D03*
D193*
X288504D02*
D03*
M02*
