M48
;Layer_Color=9474304
;FILE_FORMAT=2:4
INCH,LZ
;TYPE=PLATED
T1F00S00C0.0098
T4F00S00C0.0354
T6F00S00C0.0374
T7F00S00C0.0413
T8F00S00C0.0591
T9F00S00C0.1260
;TYPE=NON_PLATED
T10F00S00C0.0256
T11F00S00C0.0669
T12F00S00C0.1280
%
T01
X031988Y023081
X03248
X032972Y023081
X033465Y023081
X033465Y022717
X034055Y022933
X034449
X034905Y02455
X034905Y025162
X03368Y025162
X03368Y025775
X033067Y025775
X032455Y025775
X032455Y025162
X032455Y02455
X031988Y024016
X03368Y02455
X03368Y026387
X033067Y026387
X033067Y027
X032455Y027
X031842Y027
X031842Y028225
X032455Y028837
X033156Y029232
X03368Y028837
X033067Y028225
X033067Y027612
X034363Y027771
X034292Y027306
X034905Y027612
X035517Y027612
X036122Y027598
X036742Y027612
X036742Y028225
X03613Y028225
X03613Y028837
X036181Y029232
X035517Y028837
X035588Y028384
X034905Y028837
X034646Y029921
Y030315
Y030709
Y031102
X032835Y031181
Y03063
X03142Y029232
X037355Y028837
X037355Y028225
X037355Y027
X037356Y026389
X03613Y026387
X03613Y025775
X03613Y025162
X03613Y02455
X037355Y02455
X037355Y025162
X037205Y02374
X037559
X037244Y022756
X037717Y021811
X039173
X03874Y022756
X040197
X040906Y02311
X041654Y022756
X042087Y021811
X043543
X04311Y022756
X042795Y023804
X042756Y024252
X043091Y024252
X043504Y024134
X044173Y024094
X044505Y024095
X044837Y024096
X04517Y024097
X045502Y024098
X045834Y024099
X046166Y0241
X046498Y024101
X044882Y023307
X044213
X044567Y022756
X043859Y024983
X043858Y025315
Y02565
Y025984
Y026319
X043858Y026654
X043858Y026988
Y027323
Y027657
Y027992
Y028327
Y028661
Y028996
Y029331
Y029665
X04376Y030394
X043425Y030394
X044173Y030551
X044505Y03055
X044837Y030549
X04517Y030549
X045502Y030548
X045834Y030547
X046166Y030546
X046498Y030545
X045Y030906
X044665
X044409Y031181
X042382Y030709
X042283Y029685
X042874
X041299Y029646
Y029016
X040945Y02874
Y029331
X041091Y028295
X040453
X040445Y02765
Y027
X041094
X041094Y02635
X040445Y02635
X041744
X04239
Y027
X041744
Y02765
X04239
Y028295
X04174Y028295
X041094Y02765
X040079Y027323
X040089Y027992
X038386
X038386Y027657
X03811Y029213
X038346Y030079
X037126Y030364
X037303Y031004
X041024Y030945
X039862Y029685
X039801Y025273
X039528Y025
X038593Y024252
X04063Y021811
X03622
X034905Y026387
X03123Y027
X03123Y027612
X030616Y027641
Y026692
X028858Y02689
Y027244
X028189Y027264
Y027559
Y027913
X028199Y028652
Y029026
X026929Y028465
Y030197
X027362Y03014
X026299Y030472
X028189Y026949
Y026654
X029173Y025906
X029665Y024961
X03123Y025162
X03124Y023819
Y023524
X030945
Y023819
X030573Y022185
X030256Y022185
X029608Y022185
X029289
X02878Y022717
X028346
X027874Y022165
X027402Y022854
X027087
X027047Y023504
X027441
X027244Y02376
X027047Y024016
X027441
X027402Y024665
X027087
X025947Y023937
X025628
X024685Y023406
Y023087
Y022618
Y022299
X02311Y020039
X020965Y020187
X03123Y028837
X02874Y032283
X027303Y031831
X026949Y031476
X026398Y031831
X026594Y032264
X027323Y032874
X026299Y034508
X025276Y034449
X024882Y034941
X025276Y035433
X024409Y035551
X024724Y036417
X02378Y036535
X023465Y035197
X024606Y033661
X022953Y037441
X029173Y036614
X030512Y036535
Y036122
X02998Y035925
X03061Y035453
X031004Y035433
X03061Y03502
X030089Y034508
X029665
X030276Y037638
X030591Y037362
X031108Y037218
X032116Y036219
X032283Y035394
X032677Y035787
X033268Y035719
X033268Y035219
X033071Y036614
X032913Y037953
X033307
X034409Y038898
X034843Y038898
X036122Y038346
X036654Y038071
X037126Y038071
X037441Y038071
X037913Y038071
X038287Y037776
X039173Y037795
X039567
X039961Y036811
X040354Y036496
X040157Y035374
X040059Y034882
X04065Y035039
X041614Y035236
X041703Y036142
X042047Y037224
X042875Y036811
X043268Y036417
X043406Y03502
Y034724
X043406Y034173
Y033878
X042283Y033642
X041988
X041614Y033661
X04185Y032598
X040236Y03252
X040118Y033307
X040512Y033327
X039469Y032894
X038465Y033878
Y034252
X037402Y034134
X037008
X037261Y034427
X036693Y033858
X036811Y033465
X036011Y033256
X035591Y033957
X035748Y034291
Y034587
Y034882
X035531Y035748
X035728Y037776
X036417Y037795
X037047Y036772
X03752
X037835Y036772
X038307Y036772
X039055Y036122
X038681Y038346
X041673Y038228
X042874Y037992
X042894Y035256
X042598
X044016Y031693
X045Y031929
Y031417
Y032441
X046417Y032677
X037776Y033366
X037756Y03374
X037559Y031929
X037283Y032165
Y031496
X03798Y031548
X034646Y031496
X035039Y032087
X034134Y033189
Y034134
X034488Y034154
X034449Y034528
X032874Y03315
X03252Y032244
X035591Y040394
T04
X022732Y029098
Y029902
Y030705
X023433Y030303
Y031106
Y0295
Y031917
X022732Y031508
T06
X031685Y020685
X032685
X033685
X034685
X035685
X036685
X037685Y020685
X039685Y020685
X040685
X041685
X042685
X043685
X044685
X030685
X028685
X027685
X026685
X026185Y035685
X027185
Y036685
X028185
Y035685
X026185Y036685
X027085Y039685
X028085
X029085
X030085
X031085
X024285
X023285
X032085
X033085
X034085Y039685
X035085Y039685
X036085
X037685Y039685
X038685
X039685
X040685
X041685
X042685
X043685
X044685Y039685
T07
X025331Y027811
Y028713
Y032311
Y033213
T08
X023858Y023917
T09
X045685Y022685
X025185Y020685
X025685Y039685
X045685Y033685
T10
X022197Y035358
Y037634
T11
X020354Y023917
T12
X021732Y028012
Y033012
M30
