G04*
G04 #@! TF.GenerationSoftware,Altium Limited,Altium Designer,23.3.1 (30)*
G04*
G04 Layer_Physical_Order=3*
G04 Layer_Color=9473425*
%FSLAX25Y25*%
%MOIN*%
G70*
G04*
G04 #@! TF.SameCoordinates,9816209D-4066-463F-91AA-2C0811A07DD3*
G04*
G04*
G04 #@! TF.FilePolarity,Positive*
G04*
G01*
G75*
%ADD144R,0.05906X0.07480*%
%ADD145O,0.05906X0.07480*%
%ADD146O,0.13780X0.07874*%
%ADD147O,0.07874X0.05906*%
%ADD148O,0.06299X0.04921*%
G04:AMPARAMS|DCode=149|XSize=49.21mil|YSize=62.99mil|CornerRadius=12.3mil|HoleSize=0mil|Usage=FLASHONLY|Rotation=90.000|XOffset=0mil|YOffset=0mil|HoleType=Round|Shape=RoundedRectangle|*
%AMROUNDEDRECTD149*
21,1,0.04921,0.03839,0,0,90.0*
21,1,0.02461,0.06299,0,0,90.0*
1,1,0.02461,0.01919,0.01230*
1,1,0.02461,0.01919,-0.01230*
1,1,0.02461,-0.01919,-0.01230*
1,1,0.02461,-0.01919,0.01230*
%
%ADD149ROUNDEDRECTD149*%
%ADD150O,0.07874X0.04331*%
%ADD151O,0.09055X0.04331*%
%ADD152O,0.07874X0.14173*%
%ADD153C,0.10630*%
%ADD154O,0.14173X0.07874*%
%ADD155C,0.12598*%
%ADD156C,0.02165*%
G36*
X455512Y402362D02*
Y354331D01*
X465748Y344094D01*
Y328495D01*
X465286Y328304D01*
X465233Y328357D01*
X464545Y328642D01*
X463801D01*
X463114Y328357D01*
X462588Y327831D01*
X462303Y327144D01*
Y326400D01*
X462588Y325712D01*
X463114Y325186D01*
X463801Y324902D01*
X464545D01*
X465233Y325186D01*
X465286Y325240D01*
X465748Y325048D01*
Y304024D01*
X465690Y304002D01*
X465248Y303941D01*
X465135Y304111D01*
X464874Y304285D01*
X464567Y304346D01*
X444291D01*
X443984Y304285D01*
X443724Y304111D01*
X443550Y303851D01*
X443489Y303543D01*
Y242913D01*
X443550Y242606D01*
X443724Y242346D01*
X443984Y242172D01*
X444291Y242111D01*
X464567D01*
X464874Y242172D01*
X465135Y242346D01*
X465248Y242515D01*
X465690Y242455D01*
X465748Y242432D01*
Y219685D01*
X455512Y209449D01*
Y201181D01*
X452362Y198031D01*
X231493D01*
X231474Y198524D01*
X232162Y198808D01*
X232688Y199334D01*
X232972Y200022D01*
Y200766D01*
X232688Y201453D01*
X232162Y201979D01*
X231474Y202264D01*
X230730D01*
X230043Y201979D01*
X229517Y201453D01*
X229232Y200766D01*
Y200022D01*
X229517Y199334D01*
X230043Y198808D01*
X230730Y198524D01*
X230711Y198031D01*
X201181D01*
X198031Y201181D01*
Y402362D01*
X201181Y405512D01*
X354182D01*
X354374Y405050D01*
X354320Y404996D01*
X354035Y404309D01*
Y403565D01*
X354320Y402878D01*
X354846Y402352D01*
X355534Y402067D01*
X356277D01*
X356965Y402352D01*
X357491Y402878D01*
X357776Y403565D01*
Y404309D01*
X357491Y404996D01*
X357437Y405050D01*
X357629Y405512D01*
X452362D01*
X455512Y402362D01*
D02*
G37*
%LPC*%
G36*
X380591Y401378D02*
X373110D01*
Y392323D01*
X380591D01*
Y401378D01*
D02*
G37*
G36*
X274590Y401378D02*
X267110D01*
Y392323D01*
X274590D01*
Y401378D01*
D02*
G37*
G36*
X436850Y401410D02*
X435874Y401282D01*
X434964Y400905D01*
X434183Y400305D01*
X433583Y399524D01*
X433207Y398614D01*
X433078Y397638D01*
Y396063D01*
X433207Y395087D01*
X433583Y394177D01*
X434183Y393395D01*
X434964Y392796D01*
X435874Y392419D01*
X436850Y392291D01*
X437827Y392419D01*
X438737Y392796D01*
X439518Y393395D01*
X440117Y394177D01*
X440494Y395087D01*
X440623Y396063D01*
Y397638D01*
X440494Y398614D01*
X440117Y399524D01*
X439518Y400305D01*
X438737Y400905D01*
X437827Y401282D01*
X436850Y401410D01*
D02*
G37*
G36*
X426850D02*
X425874Y401282D01*
X424964Y400905D01*
X424183Y400305D01*
X423583Y399524D01*
X423207Y398614D01*
X423078Y397638D01*
Y396063D01*
X423207Y395087D01*
X423583Y394177D01*
X424183Y393395D01*
X424964Y392796D01*
X425874Y392419D01*
X426850Y392291D01*
X427827Y392419D01*
X428737Y392796D01*
X429518Y393395D01*
X430117Y394177D01*
X430494Y395087D01*
X430623Y396063D01*
Y397638D01*
X430494Y398614D01*
X430117Y399524D01*
X429518Y400305D01*
X428737Y400905D01*
X427827Y401282D01*
X426850Y401410D01*
D02*
G37*
G36*
X416850D02*
X415874Y401282D01*
X414964Y400905D01*
X414183Y400305D01*
X413583Y399524D01*
X413206Y398614D01*
X413078Y397638D01*
Y396063D01*
X413206Y395087D01*
X413583Y394177D01*
X414183Y393395D01*
X414964Y392796D01*
X415874Y392419D01*
X416850Y392291D01*
X417827Y392419D01*
X418737Y392796D01*
X419518Y393395D01*
X420117Y394177D01*
X420494Y395087D01*
X420623Y396063D01*
Y397638D01*
X420494Y398614D01*
X420117Y399524D01*
X419518Y400305D01*
X418737Y400905D01*
X417827Y401282D01*
X416850Y401410D01*
D02*
G37*
G36*
X406850D02*
X405874Y401282D01*
X404964Y400905D01*
X404183Y400305D01*
X403583Y399524D01*
X403206Y398614D01*
X403078Y397638D01*
Y396063D01*
X403206Y395087D01*
X403583Y394177D01*
X404183Y393395D01*
X404964Y392796D01*
X405874Y392419D01*
X406850Y392291D01*
X407827Y392419D01*
X408737Y392796D01*
X409518Y393395D01*
X410117Y394177D01*
X410494Y395087D01*
X410623Y396063D01*
Y397638D01*
X410494Y398614D01*
X410117Y399524D01*
X409518Y400305D01*
X408737Y400905D01*
X407827Y401282D01*
X406850Y401410D01*
D02*
G37*
G36*
X396850D02*
X395874Y401282D01*
X394964Y400905D01*
X394183Y400305D01*
X393583Y399524D01*
X393207Y398614D01*
X393078Y397638D01*
Y396063D01*
X393207Y395087D01*
X393583Y394177D01*
X394183Y393395D01*
X394964Y392796D01*
X395874Y392419D01*
X396850Y392291D01*
X397827Y392419D01*
X398737Y392796D01*
X399518Y393395D01*
X400117Y394177D01*
X400494Y395087D01*
X400623Y396063D01*
Y397638D01*
X400494Y398614D01*
X400117Y399524D01*
X399518Y400305D01*
X398737Y400905D01*
X397827Y401282D01*
X396850Y401410D01*
D02*
G37*
G36*
X386850D02*
X385874Y401282D01*
X384964Y400905D01*
X384183Y400305D01*
X383583Y399524D01*
X383207Y398614D01*
X383078Y397638D01*
Y396063D01*
X383207Y395087D01*
X383583Y394177D01*
X384183Y393395D01*
X384964Y392796D01*
X385874Y392419D01*
X386850Y392291D01*
X387827Y392419D01*
X388737Y392796D01*
X389518Y393395D01*
X390117Y394177D01*
X390494Y395087D01*
X390623Y396063D01*
Y397638D01*
X390494Y398614D01*
X390117Y399524D01*
X389518Y400305D01*
X388737Y400905D01*
X387827Y401282D01*
X386850Y401410D01*
D02*
G37*
G36*
X446850Y401410D02*
X445874Y401282D01*
X444964Y400905D01*
X444183Y400305D01*
X443583Y399524D01*
X443207Y398614D01*
X443078Y397638D01*
Y396063D01*
X443207Y395087D01*
X443583Y394177D01*
X444183Y393395D01*
X444964Y392796D01*
X445874Y392419D01*
X446850Y392291D01*
X447827Y392419D01*
X448737Y392796D01*
X449518Y393395D01*
X450117Y394177D01*
X450494Y395087D01*
X450623Y396063D01*
Y397638D01*
X450494Y398614D01*
X450117Y399524D01*
X449518Y400305D01*
X448737Y400905D01*
X447827Y401282D01*
X446850Y401410D01*
D02*
G37*
G36*
X360850D02*
X359874Y401282D01*
X358964Y400905D01*
X358183Y400305D01*
X357583Y399524D01*
X357207Y398614D01*
X357078Y397638D01*
Y396063D01*
X357207Y395087D01*
X357583Y394177D01*
X358183Y393395D01*
X358964Y392796D01*
X359874Y392419D01*
X360850Y392291D01*
X361827Y392419D01*
X362737Y392796D01*
X363518Y393395D01*
X364117Y394177D01*
X364494Y395087D01*
X364623Y396063D01*
Y397638D01*
X364494Y398614D01*
X364117Y399524D01*
X363518Y400305D01*
X362737Y400905D01*
X361827Y401282D01*
X360850Y401410D01*
D02*
G37*
G36*
X350850D02*
X349874Y401282D01*
X348964Y400905D01*
X348183Y400305D01*
X347583Y399524D01*
X347206Y398614D01*
X347078Y397638D01*
Y396063D01*
X347206Y395087D01*
X347583Y394177D01*
X348183Y393395D01*
X348964Y392796D01*
X349874Y392419D01*
X350850Y392291D01*
X351827Y392419D01*
X352737Y392796D01*
X353518Y393395D01*
X354117Y394177D01*
X354494Y395087D01*
X354623Y396063D01*
Y397638D01*
X354494Y398614D01*
X354117Y399524D01*
X353518Y400305D01*
X352737Y400905D01*
X351827Y401282D01*
X350850Y401410D01*
D02*
G37*
G36*
X330850D02*
X329874Y401282D01*
X328964Y400905D01*
X328183Y400305D01*
X327583Y399524D01*
X327206Y398614D01*
X327078Y397638D01*
Y396063D01*
X327206Y395087D01*
X327583Y394177D01*
X328183Y393395D01*
X328964Y392796D01*
X329874Y392419D01*
X330850Y392291D01*
X331827Y392419D01*
X332737Y392796D01*
X333518Y393395D01*
X334117Y394177D01*
X334494Y395087D01*
X334623Y396063D01*
Y397638D01*
X334494Y398614D01*
X334117Y399524D01*
X333518Y400305D01*
X332737Y400905D01*
X331827Y401282D01*
X330850Y401410D01*
D02*
G37*
G36*
X320850D02*
X319874Y401282D01*
X318964Y400905D01*
X318183Y400305D01*
X317583Y399524D01*
X317207Y398614D01*
X317078Y397638D01*
Y396063D01*
X317207Y395087D01*
X317583Y394177D01*
X318183Y393395D01*
X318964Y392796D01*
X319874Y392419D01*
X320850Y392291D01*
X321827Y392419D01*
X322737Y392796D01*
X323518Y393395D01*
X324117Y394177D01*
X324494Y395087D01*
X324623Y396063D01*
Y397638D01*
X324494Y398614D01*
X324117Y399524D01*
X323518Y400305D01*
X322737Y400905D01*
X321827Y401282D01*
X320850Y401410D01*
D02*
G37*
G36*
X310850D02*
X309874Y401282D01*
X308964Y400905D01*
X308183Y400305D01*
X307583Y399524D01*
X307207Y398614D01*
X307078Y397638D01*
Y396063D01*
X307207Y395087D01*
X307583Y394177D01*
X308183Y393395D01*
X308964Y392796D01*
X309874Y392419D01*
X310850Y392291D01*
X311827Y392419D01*
X312737Y392796D01*
X313518Y393395D01*
X314117Y394177D01*
X314494Y395087D01*
X314623Y396063D01*
Y397638D01*
X314494Y398614D01*
X314117Y399524D01*
X313518Y400305D01*
X312737Y400905D01*
X311827Y401282D01*
X310850Y401410D01*
D02*
G37*
G36*
X290850D02*
X289874Y401282D01*
X288964Y400905D01*
X288183Y400305D01*
X287583Y399524D01*
X287207Y398614D01*
X287078Y397638D01*
Y396063D01*
X287207Y395087D01*
X287583Y394177D01*
X288183Y393395D01*
X288964Y392796D01*
X289874Y392419D01*
X290850Y392291D01*
X291827Y392419D01*
X292737Y392796D01*
X293518Y393395D01*
X294117Y394177D01*
X294494Y395087D01*
X294623Y396063D01*
Y397638D01*
X294494Y398614D01*
X294117Y399524D01*
X293518Y400305D01*
X292737Y400905D01*
X291827Y401282D01*
X290850Y401410D01*
D02*
G37*
G36*
X280850D02*
X279874Y401282D01*
X278964Y400905D01*
X278183Y400305D01*
X277583Y399524D01*
X277206Y398614D01*
X277078Y397638D01*
Y396063D01*
X277206Y395087D01*
X277583Y394177D01*
X278183Y393395D01*
X278964Y392796D01*
X279874Y392419D01*
X280850Y392291D01*
X281827Y392419D01*
X282737Y392796D01*
X283518Y393395D01*
X284117Y394177D01*
X284494Y395087D01*
X284623Y396063D01*
Y397638D01*
X284494Y398614D01*
X284117Y399524D01*
X283518Y400305D01*
X282737Y400905D01*
X281827Y401282D01*
X280850Y401410D01*
D02*
G37*
G36*
X242850D02*
X241874Y401282D01*
X240964Y400905D01*
X240183Y400305D01*
X239583Y399524D01*
X239207Y398614D01*
X239078Y397638D01*
Y396063D01*
X239207Y395087D01*
X239583Y394177D01*
X240183Y393395D01*
X240964Y392796D01*
X241874Y392419D01*
X242850Y392291D01*
X243827Y392419D01*
X244737Y392796D01*
X245518Y393395D01*
X246117Y394177D01*
X246494Y395087D01*
X246623Y396063D01*
Y397638D01*
X246494Y398614D01*
X246117Y399524D01*
X245518Y400305D01*
X244737Y400905D01*
X243827Y401282D01*
X242850Y401410D01*
D02*
G37*
G36*
X340850Y401410D02*
X339874Y401282D01*
X338964Y400905D01*
X338183Y400305D01*
X337583Y399524D01*
X337207Y398614D01*
X337078Y397638D01*
Y396063D01*
X337207Y395087D01*
X337583Y394177D01*
X338183Y393395D01*
X338964Y392796D01*
X339874Y392419D01*
X340850Y392291D01*
X341827Y392419D01*
X342737Y392796D01*
X343518Y393395D01*
X344117Y394177D01*
X344494Y395087D01*
X344623Y396063D01*
Y397638D01*
X344494Y398614D01*
X344117Y399524D01*
X343518Y400305D01*
X342737Y400905D01*
X341827Y401282D01*
X340850Y401410D01*
D02*
G37*
G36*
X257548Y403937D02*
X256152D01*
X254783Y403665D01*
X253494Y403130D01*
X252333Y402355D01*
X251346Y401368D01*
X250570Y400207D01*
X250036Y398918D01*
X249764Y397548D01*
Y396152D01*
X250036Y394783D01*
X250570Y393494D01*
X251346Y392333D01*
X252333Y391346D01*
X253494Y390570D01*
X254783Y390036D01*
X256152Y389764D01*
X257548D01*
X258917Y390036D01*
X260207Y390570D01*
X261368Y391346D01*
X262355Y392333D01*
X263130Y393494D01*
X263665Y394783D01*
X263937Y396152D01*
Y397548D01*
X263665Y398918D01*
X263130Y400207D01*
X262355Y401368D01*
X261368Y402355D01*
X260207Y403130D01*
X258917Y403665D01*
X257548Y403937D01*
D02*
G37*
G36*
X348797Y390846D02*
X348053D01*
X347366Y390562D01*
X346840Y390036D01*
X346555Y389348D01*
Y388604D01*
X346840Y387917D01*
X347366Y387391D01*
X348053Y387106D01*
X348797D01*
X349484Y387391D01*
X350011Y387917D01*
X350295Y388604D01*
Y389348D01*
X350011Y390036D01*
X349484Y390562D01*
X348797Y390846D01*
D02*
G37*
G36*
X344466Y390846D02*
X343723D01*
X343035Y390562D01*
X342509Y390036D01*
X342224Y389348D01*
Y388604D01*
X342509Y387917D01*
X343035Y387391D01*
X343723Y387106D01*
X344466D01*
X345154Y387391D01*
X345680Y387917D01*
X345965Y388604D01*
Y389348D01*
X345680Y390036D01*
X345154Y390562D01*
X344466Y390846D01*
D02*
G37*
G36*
X374781Y382579D02*
X374038D01*
X373350Y382294D01*
X372835Y381779D01*
X372319Y382294D01*
X371632Y382579D01*
X370888D01*
X370200Y382294D01*
X369674Y381768D01*
X369390Y381081D01*
Y380337D01*
X369674Y379649D01*
X370200Y379123D01*
X370888Y378839D01*
X371632D01*
X372319Y379123D01*
X372835Y379639D01*
X373350Y379123D01*
X374038Y378839D01*
X374781D01*
X375469Y379123D01*
X375995Y379649D01*
X376279Y380337D01*
Y381081D01*
X375995Y381768D01*
X375469Y382294D01*
X374781Y382579D01*
D02*
G37*
G36*
X333443Y381398D02*
X332699D01*
X332012Y381113D01*
X331486Y380587D01*
X331373Y380315D01*
X330832D01*
X330719Y380587D01*
X330193Y381113D01*
X329506Y381398D01*
X328762D01*
X328075Y381113D01*
X327549Y380587D01*
X327264Y379900D01*
Y379156D01*
X327549Y378468D01*
X328075Y377942D01*
X328762Y377658D01*
X329506D01*
X330193Y377942D01*
X330719Y378468D01*
X330832Y378740D01*
X331373D01*
X331486Y378468D01*
X332012Y377942D01*
X332699Y377658D01*
X333443D01*
X334130Y377942D01*
X334656Y378468D01*
X334941Y379156D01*
Y379900D01*
X334656Y380587D01*
X334130Y381113D01*
X333443Y381398D01*
D02*
G37*
G36*
X379506Y382579D02*
X378762D01*
X378075Y382294D01*
X377549Y381768D01*
X377264Y381081D01*
Y380337D01*
X377549Y379649D01*
X378075Y379123D01*
X378762Y378839D01*
X379506D01*
X380193Y379123D01*
X380719Y379649D01*
X381004Y380337D01*
Y381081D01*
X380719Y381768D01*
X380193Y382294D01*
X379506Y382579D01*
D02*
G37*
G36*
X396041Y379823D02*
X395297D01*
X394610Y379538D01*
X394084Y379012D01*
X393971Y378740D01*
X393430D01*
X393318Y379012D01*
X392792Y379538D01*
X392104Y379823D01*
X391360D01*
X390673Y379538D01*
X390147Y379012D01*
X389862Y378325D01*
Y377581D01*
X390147Y376893D01*
X390673Y376367D01*
X391360Y376083D01*
X392104D01*
X392792Y376367D01*
X393318Y376893D01*
X393430Y377165D01*
X393971D01*
X394084Y376893D01*
X394610Y376367D01*
X395297Y376083D01*
X396041D01*
X396729Y376367D01*
X397255Y376893D01*
X397539Y377581D01*
Y378325D01*
X397255Y379012D01*
X396729Y379538D01*
X396041Y379823D01*
D02*
G37*
G36*
X428915Y381791D02*
X428171D01*
X427484Y381507D01*
X426958Y380981D01*
X426673Y380293D01*
Y379549D01*
X426958Y378862D01*
X427484Y378336D01*
X428171Y378051D01*
X428915D01*
X429603Y378336D01*
X430129Y378862D01*
X430413Y379549D01*
Y380293D01*
X430129Y380981D01*
X429603Y381507D01*
X428915Y381791D01*
D02*
G37*
G36*
X366907Y382579D02*
X366163D01*
X365476Y382294D01*
X364950Y381768D01*
X364665Y381081D01*
Y380337D01*
X364697Y380260D01*
X364337Y379823D01*
X363801D01*
X363114Y379538D01*
X362588Y379012D01*
X362303Y378325D01*
Y377581D01*
X362588Y376893D01*
X363114Y376367D01*
X363801Y376083D01*
X364545D01*
X365232Y376367D01*
X365759Y376893D01*
X366043Y377581D01*
Y378325D01*
X366012Y378401D01*
X366372Y378839D01*
X366907D01*
X367595Y379123D01*
X368121Y379649D01*
X368406Y380337D01*
Y381081D01*
X368121Y381768D01*
X367595Y382294D01*
X366907Y382579D01*
D02*
G37*
G36*
X383246Y379626D02*
X382502D01*
X381815Y379341D01*
X381289Y378815D01*
X381004Y378128D01*
Y377384D01*
X381289Y376697D01*
X381815Y376170D01*
X382502Y375886D01*
X383246D01*
X383933Y376170D01*
X384459Y376697D01*
X384744Y377384D01*
Y378128D01*
X384459Y378815D01*
X383933Y379341D01*
X383246Y379626D01*
D02*
G37*
G36*
X357655D02*
X356911D01*
X356224Y379341D01*
X355698Y378815D01*
X355413Y378128D01*
Y377384D01*
X355698Y376697D01*
X356224Y376170D01*
X356911Y375886D01*
X357655D01*
X358343Y376170D01*
X358869Y376697D01*
X359154Y377384D01*
Y378128D01*
X358869Y378815D01*
X358343Y379341D01*
X357655Y379626D01*
D02*
G37*
G36*
X222380Y378405D02*
X221557D01*
X220798Y378091D01*
X220216Y377509D01*
X219902Y376750D01*
Y375927D01*
X220216Y375168D01*
X220798Y374586D01*
X221557Y374272D01*
X222380D01*
X223139Y374586D01*
X223721Y375168D01*
X224035Y375927D01*
Y376750D01*
X223721Y377509D01*
X223139Y378091D01*
X222380Y378405D01*
D02*
G37*
G36*
X229900Y376279D02*
X229156D01*
X228468Y375995D01*
X227942Y375469D01*
X227658Y374781D01*
Y374038D01*
X227942Y373350D01*
X228468Y372824D01*
X229156Y372539D01*
X229900D01*
X230587Y372824D01*
X231113Y373350D01*
X231398Y374038D01*
Y374781D01*
X231113Y375469D01*
X230587Y375995D01*
X229900Y376279D01*
D02*
G37*
G36*
X303128Y378248D02*
X302384D01*
X301697Y377963D01*
X301170Y377437D01*
X300886Y376750D01*
Y376006D01*
X301170Y375319D01*
X301697Y374793D01*
X302384Y374508D01*
X303128D01*
X303815Y374793D01*
X303832Y374809D01*
X304256Y374526D01*
X304035Y373994D01*
Y373250D01*
X304320Y372563D01*
X304846Y372037D01*
X305534Y371752D01*
X306277D01*
X306965Y372037D01*
X307491Y372563D01*
X307776Y373250D01*
Y373994D01*
X307491Y374681D01*
X306965Y375207D01*
X306277Y375492D01*
X305534D01*
X304846Y375207D01*
X304830Y375191D01*
X304406Y375474D01*
X304626Y376006D01*
Y376750D01*
X304341Y377437D01*
X303815Y377963D01*
X303128Y378248D01*
D02*
G37*
G36*
X420254Y374114D02*
X419510D01*
X418823Y373830D01*
X418296Y373303D01*
X418012Y372616D01*
Y371872D01*
X418296Y371185D01*
X418823Y370659D01*
X419510Y370374D01*
X420254D01*
X420941Y370659D01*
X421467Y371185D01*
X421752Y371872D01*
Y372616D01*
X421467Y373303D01*
X420941Y373830D01*
X420254Y374114D01*
D02*
G37*
G36*
X311455Y374055D02*
X310711D01*
X310023Y373770D01*
X309497Y373244D01*
X309213Y372557D01*
Y371813D01*
X309497Y371126D01*
X310023Y370600D01*
X310711Y370315D01*
X311455D01*
X312142Y370600D01*
X312668Y371126D01*
X312953Y371813D01*
Y372557D01*
X312668Y373244D01*
X312142Y373770D01*
X311455Y374055D01*
D02*
G37*
G36*
X378718Y369587D02*
X377975D01*
X377287Y369302D01*
X376772Y368786D01*
X376256Y369302D01*
X375569Y369587D01*
X374825D01*
X374137Y369302D01*
X373611Y368776D01*
X373327Y368089D01*
Y367345D01*
X373611Y366657D01*
X374137Y366131D01*
X374825Y365846D01*
X375569D01*
X376256Y366131D01*
X376772Y366647D01*
X377287Y366131D01*
X377975Y365846D01*
X378718D01*
X379406Y366131D01*
X379932Y366657D01*
X380217Y367345D01*
Y368089D01*
X379932Y368776D01*
X379406Y369302D01*
X378718Y369587D01*
D02*
G37*
G36*
X428915Y369980D02*
X428171D01*
X427484Y369696D01*
X426958Y369169D01*
X426673Y368482D01*
Y367738D01*
X426958Y367051D01*
X427484Y366525D01*
X428171Y366240D01*
X428915D01*
X429603Y366525D01*
X430129Y367051D01*
X430413Y367738D01*
Y368482D01*
X430129Y369169D01*
X429603Y369696D01*
X428915Y369980D01*
D02*
G37*
G36*
X399978D02*
X399234D01*
X398547Y369696D01*
X398021Y369169D01*
X397736Y368482D01*
Y367738D01*
X398021Y367051D01*
X398547Y366525D01*
X399234Y366240D01*
X399978D01*
X400666Y366525D01*
X401192Y367051D01*
X401476Y367738D01*
Y368482D01*
X401192Y369169D01*
X400666Y369696D01*
X399978Y369980D01*
D02*
G37*
G36*
X383443Y369587D02*
X382699D01*
X382012Y369302D01*
X381486Y368776D01*
X381201Y368089D01*
Y367345D01*
X381486Y366657D01*
X382012Y366131D01*
X382699Y365846D01*
X383443D01*
X384130Y366131D01*
X384656Y366657D01*
X384941Y367345D01*
Y368089D01*
X384656Y368776D01*
X384130Y369302D01*
X383443Y369587D01*
D02*
G37*
G36*
X370844D02*
X370100D01*
X369413Y369302D01*
X368887Y368776D01*
X368602Y368089D01*
Y367345D01*
X368887Y366657D01*
X369413Y366131D01*
X370100Y365846D01*
X370844D01*
X371532Y366131D01*
X372058Y366657D01*
X372342Y367345D01*
Y368089D01*
X372058Y368776D01*
X371532Y369302D01*
X370844Y369587D01*
D02*
G37*
G36*
X331081Y368012D02*
X330337D01*
X329649Y367727D01*
X329123Y367201D01*
X328839Y366514D01*
Y365770D01*
X329123Y365082D01*
X329649Y364556D01*
X330337Y364272D01*
X331081D01*
X331768Y364556D01*
X332294Y365082D01*
X332579Y365770D01*
Y366514D01*
X332294Y367201D01*
X331768Y367727D01*
X331081Y368012D01*
D02*
G37*
G36*
X238167Y367224D02*
X237423D01*
X236736Y366940D01*
X236210Y366414D01*
X235925Y365726D01*
Y364982D01*
X236210Y364295D01*
X236736Y363769D01*
X237423Y363484D01*
X238167D01*
X238855Y363769D01*
X239381Y364295D01*
X239665Y364982D01*
Y365726D01*
X239381Y366414D01*
X238855Y366940D01*
X238167Y367224D01*
D02*
G37*
G36*
X403915Y366831D02*
X403171D01*
X402484Y366546D01*
X401958Y366020D01*
X401673Y365333D01*
Y364589D01*
X401958Y363901D01*
X402484Y363375D01*
X403171Y363091D01*
X403915D01*
X404603Y363375D01*
X405129Y363901D01*
X405413Y364589D01*
Y365333D01*
X405129Y366020D01*
X404603Y366546D01*
X403915Y366831D01*
D02*
G37*
G36*
X285591Y371378D02*
X278110D01*
Y362323D01*
X285591D01*
Y371378D01*
D02*
G37*
G36*
X271850Y371410D02*
X270874Y371282D01*
X269964Y370905D01*
X269183Y370305D01*
X268583Y369524D01*
X268207Y368614D01*
X268078Y367638D01*
Y366063D01*
X268207Y365087D01*
X268583Y364177D01*
X269183Y363396D01*
X269964Y362796D01*
X270874Y362419D01*
X271850Y362291D01*
X272827Y362419D01*
X273737Y362796D01*
X274518Y363396D01*
X275117Y364177D01*
X275494Y365087D01*
X275623Y366063D01*
Y367638D01*
X275494Y368614D01*
X275117Y369524D01*
X274518Y370305D01*
X273737Y370905D01*
X272827Y371282D01*
X271850Y371410D01*
D02*
G37*
G36*
X261850D02*
X260874Y371282D01*
X259964Y370905D01*
X259183Y370305D01*
X258583Y369524D01*
X258207Y368614D01*
X258078Y367638D01*
Y366063D01*
X258207Y365087D01*
X258583Y364177D01*
X259183Y363396D01*
X259964Y362796D01*
X260874Y362419D01*
X261850Y362291D01*
X262827Y362419D01*
X263737Y362796D01*
X264518Y363396D01*
X265117Y364177D01*
X265494Y365087D01*
X265623Y366063D01*
Y367638D01*
X265494Y368614D01*
X265117Y369524D01*
X264518Y370305D01*
X263737Y370905D01*
X262827Y371282D01*
X261850Y371410D01*
D02*
G37*
G36*
X390923Y363090D02*
X390179D01*
X389492Y362806D01*
X388966Y362280D01*
X388681Y361593D01*
Y360848D01*
X388966Y360161D01*
X389492Y359635D01*
X390179Y359350D01*
X390923D01*
X391611Y359635D01*
X392137Y360161D01*
X392421Y360848D01*
Y361593D01*
X392137Y362280D01*
X391611Y362806D01*
X390923Y363090D01*
D02*
G37*
G36*
X305490Y367224D02*
X304746D01*
X304059Y366940D01*
X303533Y366414D01*
X303248Y365726D01*
Y364982D01*
X303533Y364295D01*
X304059Y363769D01*
X304581Y363552D01*
Y363022D01*
X304059Y362806D01*
X303533Y362280D01*
X303248Y361593D01*
Y360848D01*
X303533Y360161D01*
X304059Y359635D01*
X304746Y359350D01*
X305490D01*
X306177Y359635D01*
X306703Y360161D01*
X306988Y360848D01*
Y361593D01*
X306703Y362280D01*
X306177Y362806D01*
X305655Y363022D01*
Y363552D01*
X306177Y363769D01*
X306703Y364295D01*
X306988Y364982D01*
Y365726D01*
X306703Y366414D01*
X306177Y366940D01*
X305490Y367224D01*
D02*
G37*
G36*
X300175Y361122D02*
X299431D01*
X298744Y360837D01*
X298218Y360311D01*
X297933Y359624D01*
Y358880D01*
X298218Y358193D01*
X298744Y357667D01*
X299431Y357382D01*
X300175D01*
X300863Y357667D01*
X301389Y358193D01*
X301673Y358880D01*
Y359624D01*
X301389Y360311D01*
X300863Y360837D01*
X300175Y361122D01*
D02*
G37*
G36*
X327144Y359744D02*
X326400D01*
X325712Y359459D01*
X325186Y358933D01*
X324902Y358246D01*
Y357502D01*
X325186Y356815D01*
X325712Y356289D01*
X326400Y356004D01*
X327144D01*
X327831Y356289D01*
X328357Y356815D01*
X328642Y357502D01*
Y358246D01*
X328357Y358933D01*
X327831Y359459D01*
X327144Y359744D01*
D02*
G37*
G36*
X355687Y359350D02*
X354943D01*
X354256Y359066D01*
X353730Y358540D01*
X353445Y357852D01*
Y357108D01*
X353730Y356421D01*
X354256Y355895D01*
X354943Y355610D01*
X355687D01*
X356374Y355895D01*
X356900Y356421D01*
X357185Y357108D01*
Y357852D01*
X356900Y358540D01*
X356374Y359066D01*
X355687Y359350D01*
D02*
G37*
G36*
X333049Y359055D02*
X332305D01*
X331618Y358770D01*
X331092Y358244D01*
X330807Y357557D01*
Y356813D01*
X331092Y356126D01*
X331618Y355600D01*
X332305Y355315D01*
X333049D01*
X333736Y355600D01*
X334262Y356126D01*
X334547Y356813D01*
Y357557D01*
X334262Y358244D01*
X333736Y358770D01*
X333049Y359055D01*
D02*
G37*
G36*
X310411Y356201D02*
X309667D01*
X308980Y355916D01*
X308454Y355390D01*
X308169Y354703D01*
Y353959D01*
X308454Y353271D01*
X308980Y352745D01*
X309667Y352461D01*
X310411D01*
X311099Y352745D01*
X311625Y353271D01*
X311909Y353959D01*
Y354703D01*
X311625Y355390D01*
X311099Y355916D01*
X310411Y356201D01*
D02*
G37*
G36*
X253128D02*
X252384D01*
X251697Y355916D01*
X251170Y355390D01*
X250886Y354703D01*
Y353959D01*
X251170Y353271D01*
X251697Y352745D01*
X252384Y352461D01*
X253128D01*
X253815Y352745D01*
X254341Y353271D01*
X254626Y353959D01*
Y354703D01*
X254341Y355390D01*
X253815Y355916D01*
X253128Y356201D01*
D02*
G37*
G36*
X281850Y361410D02*
X280874Y361282D01*
X279964Y360905D01*
X279183Y360305D01*
X278583Y359524D01*
X278206Y358614D01*
X278078Y357638D01*
Y356063D01*
X278206Y355087D01*
X278583Y354177D01*
X279183Y353396D01*
X279964Y352796D01*
X280874Y352419D01*
X281850Y352291D01*
X282827Y352419D01*
X283737Y352796D01*
X284518Y353396D01*
X285117Y354177D01*
X285494Y355087D01*
X285623Y356063D01*
Y357638D01*
X285494Y358614D01*
X285117Y359524D01*
X284518Y360305D01*
X283737Y360905D01*
X282827Y361282D01*
X281850Y361410D01*
D02*
G37*
G36*
X271850D02*
X270874Y361282D01*
X269964Y360905D01*
X269183Y360305D01*
X268583Y359524D01*
X268207Y358614D01*
X268078Y357638D01*
Y356063D01*
X268207Y355087D01*
X268583Y354177D01*
X269183Y353396D01*
X269964Y352796D01*
X270874Y352419D01*
X271850Y352291D01*
X272827Y352419D01*
X273737Y352796D01*
X274518Y353396D01*
X275117Y354177D01*
X275494Y355087D01*
X275623Y356063D01*
Y357638D01*
X275494Y358614D01*
X275117Y359524D01*
X274518Y360305D01*
X273737Y360905D01*
X272827Y361282D01*
X271850Y361410D01*
D02*
G37*
G36*
X323207Y355807D02*
X322463D01*
X321775Y355522D01*
X321249Y354996D01*
X320965Y354309D01*
Y353565D01*
X321249Y352878D01*
X321775Y352352D01*
X322463Y352067D01*
X323207D01*
X323894Y352352D01*
X324420Y352878D01*
X324705Y353565D01*
Y354309D01*
X324420Y354996D01*
X323894Y355522D01*
X323207Y355807D01*
D02*
G37*
G36*
X406278Y355610D02*
X405534D01*
X404846Y355326D01*
X404320Y354800D01*
X404035Y354112D01*
Y353368D01*
X404320Y352681D01*
X404846Y352155D01*
X405534Y351870D01*
X406278D01*
X406965Y352155D01*
X407491Y352681D01*
X407776Y353368D01*
Y354112D01*
X407491Y354800D01*
X406965Y355326D01*
X406278Y355610D01*
D02*
G37*
G36*
X222380Y355650D02*
X221557D01*
X220798Y355335D01*
X220216Y354753D01*
X219902Y353994D01*
Y353171D01*
X220216Y352412D01*
X220798Y351830D01*
X221557Y351516D01*
X222380D01*
X223139Y351830D01*
X223721Y352412D01*
X224035Y353171D01*
Y353994D01*
X223721Y354753D01*
X223139Y355335D01*
X222380Y355650D01*
D02*
G37*
G36*
X333049Y354055D02*
X332305D01*
X331618Y353770D01*
X331092Y353244D01*
X330807Y352557D01*
Y351813D01*
X331092Y351126D01*
X331618Y350600D01*
X332305Y350315D01*
X333049D01*
X333736Y350600D01*
X334262Y351126D01*
X334547Y351813D01*
Y352557D01*
X334262Y353244D01*
X333736Y353770D01*
X333049Y354055D01*
D02*
G37*
G36*
X235018Y353839D02*
X234274D01*
X233586Y353554D01*
X233060Y353028D01*
X232776Y352341D01*
Y351596D01*
X233060Y350909D01*
X233586Y350383D01*
X234274Y350098D01*
X235018D01*
X235705Y350383D01*
X236231Y350909D01*
X236516Y351596D01*
Y352341D01*
X236231Y353028D01*
X235705Y353554D01*
X235018Y353839D01*
D02*
G37*
G36*
X249191Y351279D02*
X248447D01*
X247760Y350995D01*
X247234Y350469D01*
X246949Y349781D01*
Y349038D01*
X247234Y348350D01*
X247760Y347824D01*
X248447Y347539D01*
X249191D01*
X249878Y347824D01*
X250404Y348350D01*
X250689Y349038D01*
Y349781D01*
X250404Y350469D01*
X249878Y350995D01*
X249191Y351279D01*
D02*
G37*
G36*
X400962Y350689D02*
X400219D01*
X399531Y350404D01*
X399005Y349878D01*
X398721Y349191D01*
Y348447D01*
X399005Y347760D01*
X399531Y347234D01*
X400219Y346949D01*
X400962D01*
X401650Y347234D01*
X402176Y347760D01*
X402461Y348447D01*
Y349191D01*
X402176Y349878D01*
X401650Y350404D01*
X400962Y350689D01*
D02*
G37*
G36*
X301258Y346949D02*
X300514D01*
X299827Y346664D01*
X299301Y346138D01*
X299016Y345451D01*
Y344707D01*
X299301Y344019D01*
X299827Y343493D01*
X300514Y343209D01*
X301258D01*
X301945Y343493D01*
X302471Y344019D01*
X302756Y344707D01*
Y345451D01*
X302471Y346138D01*
X301945Y346664D01*
X301258Y346949D01*
D02*
G37*
G36*
X263364D02*
X262620D01*
X261933Y346664D01*
X261407Y346138D01*
X261122Y345451D01*
Y344707D01*
X261407Y344019D01*
X261933Y343493D01*
X262620Y343209D01*
X263364D01*
X264051Y343493D01*
X264578Y344019D01*
X264862Y344707D01*
Y345451D01*
X264578Y346138D01*
X264051Y346664D01*
X263364Y346949D01*
D02*
G37*
G36*
X372984Y346135D02*
X372240D01*
X371553Y345851D01*
X371026Y345325D01*
X370742Y344637D01*
Y343893D01*
X370874Y343575D01*
X370491Y343192D01*
X370451Y343209D01*
X369707D01*
X369019Y342924D01*
X368493Y342398D01*
X368209Y341711D01*
Y340967D01*
X368429Y340435D01*
X368005Y340151D01*
X367988Y340168D01*
X367301Y340453D01*
X366557D01*
X365870Y340168D01*
X365344Y339642D01*
X365059Y338955D01*
Y338211D01*
X365344Y337523D01*
X365870Y336997D01*
X366557Y336713D01*
X366907D01*
X367027Y336310D01*
X367033Y336213D01*
X366525Y335705D01*
X366240Y335018D01*
Y334274D01*
X366525Y333586D01*
X367051Y333060D01*
X367738Y332776D01*
X368482D01*
X369169Y333060D01*
X369696Y333586D01*
X369980Y334274D01*
Y335018D01*
X369696Y335705D01*
X369169Y336231D01*
X368482Y336516D01*
X368132D01*
X368012Y336919D01*
X368007Y337016D01*
X368514Y337523D01*
X368799Y338211D01*
Y338955D01*
X368579Y339487D01*
X369003Y339770D01*
X369019Y339753D01*
X369707Y339469D01*
X370451D01*
X371138Y339753D01*
X371664Y340279D01*
X371777Y340551D01*
X372318D01*
X372430Y340279D01*
X372956Y339753D01*
X373644Y339469D01*
X374388D01*
X375075Y339753D01*
X375601Y340279D01*
X375886Y340967D01*
Y341711D01*
X375601Y342398D01*
X375075Y342924D01*
X374643Y343103D01*
X374390Y343671D01*
X374482Y343893D01*
Y344637D01*
X374197Y345325D01*
X373671Y345851D01*
X372984Y346135D01*
D02*
G37*
G36*
X253128Y346358D02*
X252384D01*
X251697Y346074D01*
X251170Y345548D01*
X250886Y344860D01*
Y344116D01*
X251170Y343429D01*
X251697Y342903D01*
X252384Y342618D01*
X253128D01*
X253815Y342903D01*
X254341Y343429D01*
X254626Y344116D01*
Y344860D01*
X254341Y345548D01*
X253815Y346074D01*
X253128Y346358D01*
D02*
G37*
G36*
X344860Y347146D02*
X344116D01*
X343429Y346861D01*
X342903Y346335D01*
X342618Y345648D01*
Y344904D01*
X342903Y344216D01*
X343429Y343690D01*
X343660Y343595D01*
X343714Y343437D01*
X343727Y343025D01*
X343297Y342595D01*
X343012Y341907D01*
Y341163D01*
X343297Y340476D01*
X343823Y339950D01*
X344510Y339665D01*
X345254D01*
X345941Y339950D01*
X346467Y340476D01*
X346752Y341163D01*
Y341907D01*
X346467Y342595D01*
X345941Y343121D01*
X345710Y343216D01*
X345656Y343374D01*
X345643Y343786D01*
X346074Y344216D01*
X346358Y344904D01*
Y345648D01*
X346074Y346335D01*
X345548Y346861D01*
X344860Y347146D01*
D02*
G37*
G36*
X357852Y350689D02*
X357108D01*
X356421Y350404D01*
X355895Y349878D01*
X355610Y349191D01*
Y348447D01*
X355895Y347760D01*
X356312Y347342D01*
X355895Y346925D01*
X355610Y346238D01*
Y345494D01*
X355895Y344807D01*
X356312Y344390D01*
X355895Y343973D01*
X355610Y343285D01*
Y342541D01*
X355861Y341937D01*
X355733Y341621D01*
X355605Y341437D01*
X355534D01*
X354846Y341152D01*
X354320Y340626D01*
X354035Y339939D01*
Y339195D01*
X354320Y338508D01*
X354846Y337982D01*
X355534Y337697D01*
X356277D01*
X356965Y337982D01*
X357491Y338508D01*
X357776Y339195D01*
Y339939D01*
X357525Y340543D01*
X357653Y340859D01*
X357781Y341043D01*
X357852D01*
X358540Y341328D01*
X359066Y341854D01*
X359350Y342541D01*
Y343285D01*
X359066Y343973D01*
X358649Y344390D01*
X359066Y344807D01*
X359350Y345494D01*
Y346238D01*
X359066Y346925D01*
X358649Y347342D01*
X359066Y347760D01*
X359350Y348447D01*
Y349191D01*
X359066Y349878D01*
X358540Y350404D01*
X357852Y350689D01*
D02*
G37*
G36*
X385018Y344390D02*
X384274D01*
X383586Y344105D01*
X383060Y343579D01*
X382776Y342892D01*
Y342148D01*
X383060Y341460D01*
X383586Y340934D01*
X383620Y340920D01*
Y340379D01*
X383586Y340365D01*
X383060Y339839D01*
X382776Y339152D01*
Y338407D01*
X383060Y337720D01*
X383586Y337194D01*
X384274Y336910D01*
X385018D01*
X385705Y337194D01*
X386231Y337720D01*
X386516Y338407D01*
Y339152D01*
X386231Y339839D01*
X385705Y340365D01*
X385671Y340379D01*
Y340920D01*
X385705Y340934D01*
X386231Y341460D01*
X386516Y342148D01*
Y342892D01*
X386231Y343579D01*
X385705Y344105D01*
X385018Y344390D01*
D02*
G37*
G36*
X246435Y338484D02*
X245691D01*
X245004Y338199D01*
X244478Y337673D01*
X244193Y336986D01*
Y336242D01*
X244478Y335555D01*
X245004Y335029D01*
X245691Y334744D01*
X246435D01*
X247122Y335029D01*
X247648Y335555D01*
X247933Y336242D01*
Y336986D01*
X247648Y337673D01*
X247122Y338199D01*
X246435Y338484D01*
D02*
G37*
G36*
X233780Y341872D02*
X227874D01*
X226641Y341709D01*
X225491Y341233D01*
X224504Y340476D01*
X223747Y339489D01*
X223271Y338340D01*
X223109Y337106D01*
X223271Y335873D01*
X223747Y334724D01*
X224504Y333737D01*
X225491Y332979D01*
X226641Y332504D01*
X227874Y332341D01*
X233780D01*
X235013Y332504D01*
X236162Y332979D01*
X237149Y333737D01*
X237906Y334724D01*
X238382Y335873D01*
X238545Y337106D01*
X238382Y338340D01*
X237906Y339489D01*
X237149Y340476D01*
X236162Y341233D01*
X235013Y341709D01*
X233780Y341872D01*
D02*
G37*
G36*
X377931Y339272D02*
X377187D01*
X376500Y338987D01*
X375974Y338461D01*
X375689Y337773D01*
Y337030D01*
X375974Y336342D01*
X376500Y335816D01*
X376632Y335761D01*
X376670Y335461D01*
X376659Y335209D01*
X376170Y334721D01*
X375886Y334033D01*
Y333289D01*
X376170Y332602D01*
X376697Y332076D01*
X377384Y331791D01*
X378128D01*
X378815Y332076D01*
X379341Y332602D01*
X379626Y333289D01*
Y334033D01*
X379341Y334721D01*
X378815Y335247D01*
X378683Y335302D01*
X378645Y335602D01*
X378656Y335854D01*
X379144Y336342D01*
X379429Y337030D01*
Y337773D01*
X379144Y338461D01*
X378618Y338987D01*
X377931Y339272D01*
D02*
G37*
G36*
X401553Y334941D02*
X400809D01*
X400122Y334656D01*
X399596Y334130D01*
X399311Y333443D01*
Y332699D01*
X399596Y332012D01*
X400122Y331486D01*
X400809Y331201D01*
X401553D01*
X402240Y331486D01*
X402767Y332012D01*
X403051Y332699D01*
Y333443D01*
X402767Y334130D01*
X402240Y334656D01*
X401553Y334941D01*
D02*
G37*
G36*
X360487Y334426D02*
X359743D01*
X359055Y334141D01*
X358529Y333615D01*
X358245Y332928D01*
Y332184D01*
X358529Y331496D01*
X359055Y330970D01*
X359743Y330686D01*
X360487D01*
X361174Y330970D01*
X361700Y331496D01*
X361985Y332184D01*
Y332928D01*
X361700Y333615D01*
X361174Y334141D01*
X360487Y334426D01*
D02*
G37*
G36*
X341711Y333760D02*
X340967D01*
X340279Y333475D01*
X339753Y332949D01*
X339469Y332262D01*
Y331518D01*
X339753Y330831D01*
X340279Y330304D01*
X340967Y330020D01*
X341711D01*
X342398Y330304D01*
X342924Y330831D01*
X343209Y331518D01*
Y332262D01*
X342924Y332949D01*
X342398Y333475D01*
X341711Y333760D01*
D02*
G37*
G36*
X457548Y343937D02*
X456152D01*
X454783Y343665D01*
X453494Y343130D01*
X452333Y342355D01*
X451346Y341368D01*
X450570Y340207D01*
X450036Y338917D01*
X449764Y337548D01*
Y336152D01*
X450036Y334783D01*
X450570Y333494D01*
X451346Y332333D01*
X452333Y331346D01*
X453494Y330570D01*
X454783Y330036D01*
X456152Y329764D01*
X457548D01*
X458918Y330036D01*
X460207Y330570D01*
X461368Y331346D01*
X462355Y332333D01*
X463131Y333494D01*
X463665Y334783D01*
X463937Y336152D01*
Y337548D01*
X463665Y338917D01*
X463131Y340207D01*
X462355Y341368D01*
X461368Y342355D01*
X460207Y343130D01*
X458918Y343665D01*
X457548Y343937D01*
D02*
G37*
G36*
X254291Y335898D02*
X252323D01*
X251346Y335770D01*
X250437Y335393D01*
X249655Y334793D01*
X249056Y334012D01*
X248679Y333102D01*
X248550Y332126D01*
X248679Y331150D01*
X249056Y330240D01*
X249655Y329458D01*
X250437Y328859D01*
X251346Y328482D01*
X252323Y328354D01*
X254291D01*
X255268Y328482D01*
X256178Y328859D01*
X256959Y329458D01*
X257558Y330240D01*
X257935Y331150D01*
X258064Y332126D01*
X257935Y333102D01*
X257558Y334012D01*
X256959Y334793D01*
X256178Y335393D01*
X255268Y335770D01*
X254291Y335898D01*
D02*
G37*
G36*
X395057Y330807D02*
X394313D01*
X393626Y330522D01*
X393100Y329996D01*
X392815Y329309D01*
Y328565D01*
X393100Y327878D01*
X393626Y327352D01*
X394313Y327067D01*
X395057D01*
X395744Y327352D01*
X396270Y327878D01*
X396555Y328565D01*
Y329309D01*
X396270Y329996D01*
X395744Y330522D01*
X395057Y330807D01*
D02*
G37*
G36*
X273600Y330610D02*
X272856D01*
X272169Y330326D01*
X271643Y329800D01*
X271358Y329112D01*
Y328368D01*
X271643Y327681D01*
X272169Y327155D01*
X272856Y326870D01*
X273600D01*
X274288Y327155D01*
X274814Y327681D01*
X275098Y328368D01*
Y329112D01*
X274814Y329800D01*
X274288Y330326D01*
X273600Y330610D01*
D02*
G37*
G36*
X218031Y337303D02*
X216615D01*
X215227Y337027D01*
X213919Y336485D01*
X212743Y335699D01*
X211742Y334698D01*
X210956Y333522D01*
X210414Y332214D01*
X210138Y330826D01*
Y329410D01*
X210414Y328022D01*
X210956Y326715D01*
X211742Y325538D01*
X212743Y324537D01*
X213919Y323751D01*
X215227Y323209D01*
X216615Y322933D01*
X218031D01*
X219419Y323209D01*
X220726Y323751D01*
X221903Y324537D01*
X222904Y325538D01*
X223690Y326715D01*
X224232Y328022D01*
X224508Y329410D01*
Y330826D01*
X224232Y332214D01*
X223690Y333522D01*
X222904Y334698D01*
X221903Y335699D01*
X220726Y336485D01*
X219419Y337027D01*
X218031Y337303D01*
D02*
G37*
G36*
X450372Y326279D02*
X449628D01*
X448941Y325995D01*
X448415Y325469D01*
X448130Y324781D01*
Y324038D01*
X448415Y323350D01*
X448941Y322824D01*
X449628Y322539D01*
X450372D01*
X451059Y322824D01*
X451585Y323350D01*
X451870Y324038D01*
Y324781D01*
X451585Y325469D01*
X451059Y325995D01*
X450372Y326279D01*
D02*
G37*
G36*
X287773Y324705D02*
X287030D01*
X286342Y324420D01*
X285816Y323894D01*
X285531Y323207D01*
Y322463D01*
X285816Y321775D01*
X286342Y321249D01*
X287030Y320965D01*
X287773D01*
X288461Y321249D01*
X288987Y321775D01*
X289272Y322463D01*
Y323207D01*
X288987Y323894D01*
X288461Y324420D01*
X287773Y324705D01*
D02*
G37*
G36*
X266317Y324508D02*
X265573D01*
X264886Y324223D01*
X264359Y323697D01*
X264075Y323010D01*
Y322266D01*
X264359Y321579D01*
X264886Y321052D01*
X265573Y320768D01*
X266317D01*
X267004Y321052D01*
X267530Y321579D01*
X267815Y322266D01*
Y323010D01*
X267530Y323697D01*
X267004Y324223D01*
X266317Y324508D01*
D02*
G37*
G36*
X325569Y324311D02*
X324825D01*
X324137Y324026D01*
X323611Y323500D01*
X323327Y322813D01*
Y322069D01*
X323611Y321382D01*
X324137Y320856D01*
X324825Y320571D01*
X325569D01*
X326256Y320856D01*
X326782Y321382D01*
X327067Y322069D01*
Y322813D01*
X326782Y323500D01*
X326256Y324026D01*
X325569Y324311D01*
D02*
G37*
G36*
X350766Y322736D02*
X350022D01*
X349334Y322451D01*
X348808Y321925D01*
X348524Y321238D01*
Y320494D01*
X348808Y319807D01*
X349334Y319281D01*
X350022Y318996D01*
X350766D01*
X351453Y319281D01*
X351979Y319807D01*
X352264Y320494D01*
Y321238D01*
X351979Y321925D01*
X351453Y322451D01*
X350766Y322736D01*
D02*
G37*
G36*
X450372Y321161D02*
X449628D01*
X448941Y320877D01*
X448415Y320351D01*
X448130Y319663D01*
Y318919D01*
X448415Y318232D01*
X448941Y317706D01*
X449628Y317421D01*
X450372D01*
X451059Y317706D01*
X451585Y318232D01*
X451870Y318919D01*
Y319663D01*
X451585Y320351D01*
X451059Y320877D01*
X450372Y321161D01*
D02*
G37*
G36*
X373207Y323524D02*
X372463D01*
X371775Y323239D01*
X371249Y322713D01*
X370965Y322025D01*
Y321282D01*
X371249Y320594D01*
X371775Y320068D01*
X372463Y319783D01*
X373207D01*
X373283Y319815D01*
X373721Y319455D01*
Y318919D01*
X374005Y318232D01*
X374531Y317706D01*
X375219Y317421D01*
X375962D01*
X376650Y317706D01*
X377176Y318232D01*
X377461Y318919D01*
Y319663D01*
X377176Y320351D01*
X376650Y320877D01*
X375962Y321161D01*
X375219D01*
X375142Y321130D01*
X374705Y321490D01*
Y322025D01*
X374420Y322713D01*
X373894Y323239D01*
X373207Y323524D01*
D02*
G37*
G36*
X235020Y322449D02*
X233642D01*
X232794Y322338D01*
X232004Y322010D01*
X231325Y321490D01*
X230805Y320811D01*
X230477Y320021D01*
X230366Y319173D01*
X230477Y318325D01*
X230750Y317667D01*
X230328Y317395D01*
X229650Y317916D01*
X228860Y318243D01*
X228012Y318355D01*
X226634D01*
X225786Y318243D01*
X224996Y317916D01*
X224317Y317395D01*
X223797Y316717D01*
X223469Y315927D01*
X223358Y315079D01*
X223469Y314231D01*
X223797Y313441D01*
X224317Y312762D01*
X224996Y312242D01*
X225786Y311914D01*
X226634Y311803D01*
X228012D01*
X228860Y311914D01*
X229650Y312242D01*
X229892Y312427D01*
X230550Y312302D01*
X230603Y312214D01*
X230477Y311911D01*
X230366Y311063D01*
X230477Y310215D01*
X230603Y309911D01*
X230550Y309824D01*
X229892Y309699D01*
X229650Y309884D01*
X228860Y310212D01*
X228012Y310323D01*
X226634D01*
X225786Y310212D01*
X224996Y309884D01*
X224317Y309364D01*
X223797Y308685D01*
X223469Y307895D01*
X223358Y307047D01*
X223469Y306199D01*
X223797Y305409D01*
X224317Y304731D01*
X224996Y304210D01*
X225786Y303883D01*
X226634Y303771D01*
X228012D01*
X228860Y303883D01*
X229650Y304210D01*
X229892Y304396D01*
X230550Y304271D01*
X230603Y304183D01*
X230477Y303879D01*
X230366Y303031D01*
X230477Y302184D01*
X230603Y301880D01*
X230550Y301792D01*
X229892Y301667D01*
X229650Y301853D01*
X228860Y302180D01*
X228012Y302292D01*
X226634D01*
X225786Y302180D01*
X224996Y301853D01*
X224317Y301332D01*
X223797Y300654D01*
X223469Y299864D01*
X223358Y299016D01*
X223469Y298168D01*
X223797Y297378D01*
X224317Y296699D01*
X224996Y296179D01*
X225786Y295851D01*
X226634Y295740D01*
X228012D01*
X228860Y295851D01*
X229650Y296179D01*
X229892Y296364D01*
X230550Y296239D01*
X230603Y296151D01*
X230477Y295848D01*
X230366Y295000D01*
X230439Y294443D01*
X230192Y294245D01*
X229977Y294126D01*
X229242Y294272D01*
X225404D01*
X224616Y294115D01*
X223949Y293669D01*
X223503Y293002D01*
X223346Y292215D01*
Y289754D01*
X223503Y288967D01*
X223949Y288299D01*
X224616Y287853D01*
X225404Y287697D01*
X229242D01*
X230029Y287853D01*
X230697Y288299D01*
X231143Y288967D01*
X231299Y289754D01*
Y292073D01*
X231620Y292290D01*
X231786Y292330D01*
X232004Y292163D01*
X232794Y291836D01*
X233642Y291724D01*
X235020D01*
X235868Y291836D01*
X236658Y292163D01*
X237336Y292684D01*
X237857Y293362D01*
X238184Y294152D01*
X238296Y295000D01*
X238184Y295848D01*
X237857Y296638D01*
X237336Y297317D01*
X236658Y297837D01*
X235868Y298164D01*
X235020Y298276D01*
X233642D01*
X232794Y298164D01*
X232004Y297837D01*
X231762Y297651D01*
X231103Y297776D01*
X231050Y297864D01*
X231176Y298168D01*
X231288Y299016D01*
X231176Y299864D01*
X231050Y300167D01*
X231103Y300255D01*
X231762Y300380D01*
X232004Y300194D01*
X232794Y299867D01*
X233642Y299755D01*
X235020D01*
X235868Y299867D01*
X236658Y300194D01*
X237336Y300715D01*
X237857Y301394D01*
X238184Y302184D01*
X238296Y303031D01*
X238184Y303879D01*
X237857Y304669D01*
X237336Y305348D01*
X236658Y305869D01*
X235868Y306196D01*
X235020Y306308D01*
X233642D01*
X232794Y306196D01*
X232004Y305869D01*
X231762Y305683D01*
X231103Y305808D01*
X231050Y305896D01*
X231176Y306199D01*
X231288Y307047D01*
X231176Y307895D01*
X231050Y308199D01*
X231103Y308287D01*
X231762Y308412D01*
X232004Y308226D01*
X232794Y307899D01*
X233642Y307787D01*
X235020D01*
X235868Y307899D01*
X236658Y308226D01*
X237336Y308747D01*
X237857Y309425D01*
X238184Y310215D01*
X238296Y311063D01*
X238184Y311911D01*
X237857Y312701D01*
X237336Y313380D01*
X236658Y313900D01*
X235868Y314227D01*
X235020Y314339D01*
X233642D01*
X232794Y314227D01*
X232004Y313900D01*
X231762Y313714D01*
X231103Y313839D01*
X231050Y313927D01*
X231176Y314231D01*
X231288Y315079D01*
X231176Y315927D01*
X230904Y316585D01*
X231325Y316857D01*
X232004Y316336D01*
X232794Y316009D01*
X233642Y315897D01*
X235020D01*
X235868Y316009D01*
X236658Y316336D01*
X237336Y316857D01*
X237857Y317535D01*
X238184Y318325D01*
X238296Y319173D01*
X238184Y320021D01*
X237857Y320811D01*
X237336Y321490D01*
X236658Y322010D01*
X235868Y322338D01*
X235020Y322449D01*
D02*
G37*
G36*
X273404Y320177D02*
X272659D01*
X271972Y319893D01*
X271446Y319366D01*
X271161Y318679D01*
Y317935D01*
X271446Y317248D01*
X271972Y316722D01*
X272659Y316437D01*
X273404D01*
X274091Y316722D01*
X274617Y317248D01*
X274902Y317935D01*
Y318679D01*
X274617Y319366D01*
X274091Y319893D01*
X273404Y320177D01*
D02*
G37*
G36*
X264348D02*
X263604D01*
X262917Y319893D01*
X262391Y319366D01*
X262106Y318679D01*
Y317935D01*
X262391Y317248D01*
X262917Y316722D01*
X263604Y316437D01*
X264348D01*
X265036Y316722D01*
X265562Y317248D01*
X265846Y317935D01*
Y318679D01*
X265562Y319366D01*
X265036Y319893D01*
X264348Y320177D01*
D02*
G37*
G36*
X440529Y318799D02*
X439785D01*
X439098Y318514D01*
X438572Y317988D01*
X438287Y317301D01*
Y316557D01*
X438572Y315870D01*
X439098Y315344D01*
X439785Y315059D01*
X440529D01*
X441217Y315344D01*
X441743Y315870D01*
X442028Y316557D01*
Y317301D01*
X441743Y317988D01*
X441217Y318514D01*
X440529Y318799D01*
D02*
G37*
G36*
X373207Y316831D02*
X372463D01*
X371775Y316546D01*
X371249Y316020D01*
X370965Y315333D01*
Y314589D01*
X371249Y313901D01*
X371775Y313375D01*
X372463Y313091D01*
X373207D01*
X373894Y313375D01*
X374420Y313901D01*
X374705Y314589D01*
Y315333D01*
X374420Y316020D01*
X373894Y316546D01*
X373207Y316831D01*
D02*
G37*
G36*
X269860Y316634D02*
X269116D01*
X268429Y316349D01*
X267903Y315823D01*
X267618Y315136D01*
Y314392D01*
X267903Y313704D01*
X268429Y313178D01*
X269116Y312894D01*
X269860D01*
X270548Y313178D01*
X271074Y313704D01*
X271358Y314392D01*
Y315136D01*
X271074Y315823D01*
X270548Y316349D01*
X269860Y316634D01*
D02*
G37*
G36*
X450372Y316043D02*
X449628D01*
X448941Y315759D01*
X448415Y315232D01*
X448130Y314545D01*
Y313801D01*
X448415Y313114D01*
X448941Y312588D01*
X449628Y312303D01*
X450372D01*
X451059Y312588D01*
X451585Y313114D01*
X451870Y313801D01*
Y314545D01*
X451585Y315232D01*
X451059Y315759D01*
X450372Y316043D01*
D02*
G37*
G36*
X328718Y313681D02*
X327975D01*
X327287Y313396D01*
X326761Y312870D01*
X326476Y312183D01*
Y311439D01*
X326761Y310752D01*
X327287Y310226D01*
X327975Y309941D01*
X328718D01*
X329406Y310226D01*
X329932Y310752D01*
X330217Y311439D01*
Y312183D01*
X329932Y312870D01*
X329406Y313396D01*
X328718Y313681D01*
D02*
G37*
G36*
X373404Y311909D02*
X372659D01*
X371972Y311625D01*
X371446Y311099D01*
X371161Y310411D01*
Y309667D01*
X371446Y308980D01*
X371972Y308454D01*
X372659Y308169D01*
X373404D01*
X374091Y308454D01*
X374617Y308980D01*
X374902Y309667D01*
Y310411D01*
X374617Y311099D01*
X374091Y311625D01*
X373404Y311909D01*
D02*
G37*
G36*
X410608Y311319D02*
X409864D01*
X409177Y311034D01*
X408651Y310508D01*
X408366Y309821D01*
Y309077D01*
X408651Y308389D01*
X409177Y307863D01*
X409864Y307579D01*
X410608D01*
X411296Y307863D01*
X411822Y308389D01*
X412106Y309077D01*
Y309821D01*
X411822Y310508D01*
X411296Y311034D01*
X410608Y311319D01*
D02*
G37*
G36*
X444466Y313681D02*
X443722D01*
X443035Y313396D01*
X442509Y312870D01*
X442224Y312183D01*
Y311439D01*
X442509Y310752D01*
X443035Y310226D01*
X443722Y309941D01*
X444466D01*
X444836Y309553D01*
X444783Y309427D01*
Y308683D01*
X445068Y307996D01*
X445594Y307470D01*
X446282Y307185D01*
X447025D01*
X447713Y307470D01*
X448000Y307757D01*
X448327Y307945D01*
X448653Y307757D01*
X448941Y307470D01*
X449628Y307185D01*
X450372D01*
X451059Y307470D01*
X451585Y307996D01*
X451870Y308683D01*
Y309427D01*
X451585Y310114D01*
X451059Y310641D01*
X450372Y310925D01*
X449628D01*
X448941Y310641D01*
X448653Y310353D01*
X448327Y310165D01*
X448000Y310353D01*
X447713Y310641D01*
X447025Y310925D01*
X446282D01*
X445913Y311314D01*
X445965Y311439D01*
Y312183D01*
X445680Y312870D01*
X445154Y313396D01*
X444466Y313681D01*
D02*
G37*
G36*
X263364Y306594D02*
X262620D01*
X261933Y306310D01*
X261407Y305784D01*
X261122Y305096D01*
Y304352D01*
X261407Y303665D01*
X261933Y303139D01*
X262620Y302854D01*
X263364D01*
X264051Y303139D01*
X264578Y303665D01*
X264862Y304352D01*
Y305096D01*
X264578Y305784D01*
X264051Y306310D01*
X263364Y306594D01*
D02*
G37*
G36*
X371632Y305512D02*
X370888D01*
X370200Y305227D01*
X369674Y304701D01*
X369390Y304014D01*
Y303270D01*
X369674Y302582D01*
X370200Y302056D01*
X370888Y301772D01*
X371632D01*
X372319Y302056D01*
X372845Y302582D01*
X373130Y303270D01*
Y304014D01*
X372845Y304701D01*
X372319Y305227D01*
X371632Y305512D01*
D02*
G37*
G36*
X269663Y303839D02*
X268919D01*
X268232Y303554D01*
X267706Y303028D01*
X267421Y302341D01*
Y301596D01*
X267706Y300909D01*
X268232Y300383D01*
X268919Y300098D01*
X269663D01*
X270351Y300383D01*
X270877Y300909D01*
X271161Y301596D01*
Y302341D01*
X270877Y303028D01*
X270351Y303554D01*
X269663Y303839D01*
D02*
G37*
G36*
X273994Y303268D02*
X273250D01*
X272563Y302983D01*
X272037Y302457D01*
X271752Y301770D01*
Y301026D01*
X272037Y300338D01*
X272563Y299812D01*
X273250Y299528D01*
X273994D01*
X274681Y299812D01*
X275207Y300338D01*
X275492Y301026D01*
Y301770D01*
X275207Y302457D01*
X274681Y302983D01*
X273994Y303268D01*
D02*
G37*
G36*
X346829Y316831D02*
X346085D01*
X345397Y316546D01*
X344871Y316020D01*
X344587Y315333D01*
Y314589D01*
X344871Y313901D01*
X345397Y313375D01*
X345669Y313263D01*
Y312721D01*
X345397Y312609D01*
X344871Y312083D01*
X344587Y311396D01*
Y310652D01*
X344871Y309964D01*
X345397Y309438D01*
X345669Y309326D01*
Y308785D01*
X345397Y308672D01*
X344871Y308146D01*
X344587Y307459D01*
Y306715D01*
X344871Y306027D01*
X345397Y305501D01*
X345669Y305389D01*
Y304848D01*
X345397Y304735D01*
X344871Y304209D01*
X344587Y303522D01*
Y302778D01*
X344871Y302090D01*
X345397Y301564D01*
X345669Y301452D01*
Y300910D01*
X345397Y300798D01*
X344871Y300272D01*
X344587Y299585D01*
Y298841D01*
X344871Y298153D01*
X345397Y297627D01*
X346085Y297342D01*
X346829D01*
X347516Y297627D01*
X348042Y298153D01*
X348327Y298841D01*
Y299585D01*
X348042Y300272D01*
X347516Y300798D01*
X347244Y300910D01*
Y301452D01*
X347516Y301564D01*
X348042Y302090D01*
X348327Y302778D01*
Y303522D01*
X348042Y304209D01*
X347516Y304735D01*
X347244Y304848D01*
Y305389D01*
X347516Y305501D01*
X348042Y306027D01*
X348327Y306715D01*
Y307459D01*
X348042Y308146D01*
X347516Y308672D01*
X347244Y308785D01*
Y309326D01*
X347516Y309438D01*
X348042Y309964D01*
X348327Y310652D01*
Y311396D01*
X348042Y312083D01*
X347516Y312609D01*
X347244Y312721D01*
Y313263D01*
X347516Y313375D01*
X348042Y313901D01*
X348327Y314589D01*
Y315333D01*
X348042Y316020D01*
X347516Y316546D01*
X346829Y316831D01*
D02*
G37*
G36*
X398994Y298721D02*
X398250D01*
X397563Y298436D01*
X397037Y297910D01*
X396752Y297222D01*
Y296478D01*
X397037Y295791D01*
X397563Y295265D01*
X398250Y294980D01*
X398994D01*
X399681Y295265D01*
X400207Y295791D01*
X400492Y296478D01*
Y297222D01*
X400207Y297910D01*
X399681Y298436D01*
X398994Y298721D01*
D02*
G37*
G36*
X429112Y298721D02*
X428368D01*
X427681Y298436D01*
X427155Y297910D01*
X426870Y297222D01*
Y296478D01*
X427155Y295791D01*
X427681Y295265D01*
X428368Y294980D01*
X429112D01*
X429800Y295265D01*
X430326Y295791D01*
X430610Y296478D01*
Y297222D01*
X430326Y297910D01*
X429800Y298436D01*
X429112Y298721D01*
D02*
G37*
G36*
X423207D02*
X422463D01*
X421775Y298436D01*
X421249Y297910D01*
X420965Y297222D01*
Y296478D01*
X421249Y295791D01*
X421775Y295265D01*
X422463Y294980D01*
X423207D01*
X423894Y295265D01*
X424420Y295791D01*
X424705Y296478D01*
Y297222D01*
X424420Y297910D01*
X423894Y298436D01*
X423207Y298721D01*
D02*
G37*
G36*
X413364Y298327D02*
X412620D01*
X411933Y298042D01*
X411407Y297516D01*
X411122Y296829D01*
Y296085D01*
X411407Y295397D01*
X411933Y294871D01*
X412620Y294587D01*
X413364D01*
X414051Y294871D01*
X414577Y295397D01*
X414862Y296085D01*
Y296829D01*
X414577Y297516D01*
X414051Y298042D01*
X413364Y298327D01*
D02*
G37*
G36*
X409821Y295177D02*
X409077D01*
X408390Y294893D01*
X407863Y294366D01*
X407579Y293679D01*
Y292935D01*
X407863Y292248D01*
X408390Y291722D01*
X409077Y291437D01*
X409821D01*
X410508Y291722D01*
X411034Y292248D01*
X411319Y292935D01*
Y293679D01*
X411034Y294366D01*
X410508Y294893D01*
X409821Y295177D01*
D02*
G37*
G36*
X331935Y294193D02*
X331191D01*
X330503Y293908D01*
X329977Y293382D01*
X329693Y292695D01*
Y291951D01*
X329977Y291264D01*
X330503Y290738D01*
X331191Y290453D01*
X331935D01*
X332622Y290738D01*
X333148Y291264D01*
X333433Y291951D01*
Y292695D01*
X333148Y293382D01*
X332622Y293908D01*
X331935Y294193D01*
D02*
G37*
G36*
X314567D02*
X313823D01*
X313136Y293908D01*
X312610Y293382D01*
X312325Y292695D01*
Y291951D01*
X312610Y291264D01*
X313136Y290738D01*
X313823Y290453D01*
X314567D01*
X315255Y290738D01*
X315781Y291264D01*
X316066Y291951D01*
Y292695D01*
X315781Y293382D01*
X315255Y293908D01*
X314567Y294193D01*
D02*
G37*
G36*
X381474Y293996D02*
X380730D01*
X380043Y293711D01*
X379517Y293185D01*
X379232Y292498D01*
Y291754D01*
X379517Y291067D01*
X380043Y290541D01*
X380730Y290256D01*
X381474D01*
X382162Y290541D01*
X382688Y291067D01*
X382972Y291754D01*
Y292498D01*
X382688Y293185D01*
X382162Y293711D01*
X381474Y293996D01*
D02*
G37*
G36*
X413364Y292028D02*
X412620D01*
X411933Y291743D01*
X411407Y291217D01*
X411122Y290529D01*
Y289786D01*
X411407Y289098D01*
X411933Y288572D01*
X412620Y288287D01*
X413364D01*
X414051Y288572D01*
X414577Y289098D01*
X414862Y289786D01*
Y290529D01*
X414577Y291217D01*
X414051Y291743D01*
X413364Y292028D01*
D02*
G37*
G36*
X312672Y290242D02*
X311928D01*
X311241Y289957D01*
X310715Y289431D01*
X310430Y288744D01*
Y288000D01*
X310715Y287313D01*
X311241Y286787D01*
X311928Y286502D01*
X312672D01*
X313360Y286787D01*
X313886Y287313D01*
X314170Y288000D01*
Y288744D01*
X313886Y289431D01*
X313360Y289957D01*
X312672Y290242D01*
D02*
G37*
G36*
X337170Y290242D02*
X336426D01*
X335739Y289957D01*
X335213Y289431D01*
X334928Y288744D01*
Y288000D01*
X335213Y287313D01*
X335739Y286787D01*
X336426Y286502D01*
X337170D01*
X337858Y286787D01*
X338384Y287313D01*
X338668Y288000D01*
Y288744D01*
X338384Y289431D01*
X337858Y289957D01*
X337170Y290242D01*
D02*
G37*
G36*
X324921D02*
X324177D01*
X323490Y289957D01*
X322964Y289431D01*
X322679Y288744D01*
Y288000D01*
X322964Y287313D01*
X323490Y286787D01*
X324177Y286502D01*
X324921D01*
X325609Y286787D01*
X326135Y287313D01*
X326419Y288000D01*
Y288744D01*
X326135Y289431D01*
X325609Y289957D01*
X324921Y290242D01*
D02*
G37*
G36*
X349419Y290242D02*
X348675D01*
X347988Y289957D01*
X347462Y289431D01*
X347177Y288744D01*
Y288000D01*
X347462Y287312D01*
X347988Y286786D01*
X348675Y286502D01*
X349419D01*
X350107Y286786D01*
X350633Y287312D01*
X350918Y288000D01*
Y288744D01*
X350633Y289431D01*
X350107Y289957D01*
X349419Y290242D01*
D02*
G37*
G36*
X355544Y290242D02*
X354800D01*
X354113Y289957D01*
X353587Y289431D01*
X353302Y288744D01*
Y288000D01*
X353587Y287312D01*
X354113Y286786D01*
X354800Y286502D01*
X355544D01*
X356231Y286786D01*
X356757Y287312D01*
X357042Y288000D01*
Y288744D01*
X356757Y289431D01*
X356231Y289957D01*
X355544Y290242D01*
D02*
G37*
G36*
X362183Y294193D02*
X361439D01*
X360752Y293908D01*
X360226Y293382D01*
X359941Y292695D01*
Y291951D01*
X360226Y291264D01*
X360752Y290738D01*
X360833Y290704D01*
X360833Y290703D01*
X360783Y290183D01*
X360237Y289957D01*
X359711Y289431D01*
X359426Y288744D01*
Y288000D01*
X359711Y287312D01*
X360237Y286786D01*
X360925Y286502D01*
X361668D01*
X362356Y286786D01*
X362882Y287312D01*
X363166Y288000D01*
Y288744D01*
X362882Y289431D01*
X362356Y289957D01*
X362275Y289991D01*
X362274Y289992D01*
X362324Y290511D01*
X362870Y290738D01*
X363396Y291264D01*
X363681Y291951D01*
Y292695D01*
X363396Y293382D01*
X362870Y293908D01*
X362183Y294193D01*
D02*
G37*
G36*
X373918Y290242D02*
X373173D01*
X372486Y289957D01*
X371960Y289431D01*
X371675Y288744D01*
Y288000D01*
X371960Y287312D01*
X372486Y286786D01*
X373173Y286502D01*
X373918D01*
X374605Y286786D01*
X375131Y287312D01*
X375416Y288000D01*
Y288744D01*
X375131Y289431D01*
X374605Y289957D01*
X373918Y290242D01*
D02*
G37*
G36*
X409821Y289272D02*
X409077D01*
X408390Y288987D01*
X407863Y288461D01*
X407579Y287773D01*
Y287030D01*
X407863Y286342D01*
X408390Y285816D01*
X409077Y285531D01*
X409821D01*
X410508Y285816D01*
X411034Y286342D01*
X411319Y287030D01*
Y287773D01*
X411034Y288461D01*
X410508Y288987D01*
X409821Y289272D01*
D02*
G37*
G36*
X282360Y292126D02*
X281616D01*
X280929Y291841D01*
X280403Y291315D01*
X280118Y290628D01*
Y289884D01*
X280403Y289197D01*
X280929Y288670D01*
X280963Y288656D01*
Y288115D01*
X280929Y288101D01*
X280403Y287575D01*
X280118Y286888D01*
Y286144D01*
X280403Y285456D01*
X280929Y284930D01*
X281616Y284646D01*
X282360D01*
X283048Y284930D01*
X283574Y285456D01*
X283858Y286144D01*
Y286888D01*
X283574Y287575D01*
X283048Y288101D01*
X283014Y288115D01*
Y288656D01*
X283048Y288670D01*
X283574Y289197D01*
X283858Y289884D01*
Y290628D01*
X283574Y291315D01*
X283048Y291841D01*
X282360Y292126D01*
D02*
G37*
G36*
X254291Y290898D02*
X252323D01*
X251346Y290770D01*
X250437Y290393D01*
X249655Y289793D01*
X249056Y289012D01*
X248679Y288102D01*
X248550Y287126D01*
X248679Y286150D01*
X249056Y285240D01*
X249655Y284458D01*
X250437Y283859D01*
X251346Y283482D01*
X252323Y283354D01*
X254291D01*
X255268Y283482D01*
X256178Y283859D01*
X256959Y284458D01*
X257558Y285240D01*
X257935Y286150D01*
X258064Y287126D01*
X257935Y288102D01*
X257558Y289012D01*
X256959Y289793D01*
X256178Y290393D01*
X255268Y290770D01*
X254291Y290898D01*
D02*
G37*
G36*
X269663Y286516D02*
X268919D01*
X268232Y286231D01*
X267706Y285705D01*
X267421Y285018D01*
Y284274D01*
X267706Y283586D01*
X268232Y283060D01*
X268919Y282776D01*
X269663D01*
X270351Y283060D01*
X270877Y283586D01*
X271161Y284274D01*
Y285018D01*
X270877Y285705D01*
X270351Y286231D01*
X269663Y286516D01*
D02*
G37*
G36*
X356255Y285706D02*
X355511D01*
X354824Y285421D01*
X354298Y284895D01*
X354013Y284208D01*
Y283464D01*
X354298Y282777D01*
X354824Y282251D01*
X355511Y281966D01*
X356255D01*
X356943Y282251D01*
X357469Y282777D01*
X357753Y283464D01*
Y284208D01*
X357469Y284895D01*
X356943Y285421D01*
X356255Y285706D01*
D02*
G37*
G36*
X318797Y284117D02*
X318053D01*
X317366Y283833D01*
X316839Y283307D01*
X316555Y282619D01*
Y281875D01*
X316839Y281188D01*
X317366Y280662D01*
X318053Y280377D01*
X318797D01*
X319484Y280662D01*
X320010Y281188D01*
X320295Y281875D01*
Y282619D01*
X320010Y283307D01*
X319484Y283833D01*
X318797Y284117D01*
D02*
G37*
G36*
X331046Y284117D02*
X330302D01*
X329615Y283833D01*
X329088Y283307D01*
X328804Y282619D01*
Y281875D01*
X329088Y281188D01*
X329615Y280662D01*
X330302Y280377D01*
X331046D01*
X331733Y280662D01*
X332259Y281188D01*
X332544Y281875D01*
Y282619D01*
X332259Y283307D01*
X331733Y283833D01*
X331046Y284117D01*
D02*
G37*
G36*
X361668Y284117D02*
X360924D01*
X360237Y283832D01*
X359711Y283306D01*
X359426Y282619D01*
Y281875D01*
X359711Y281188D01*
X360237Y280662D01*
X360924Y280377D01*
X361668D01*
X362356Y280662D01*
X362882Y281188D01*
X363166Y281875D01*
Y282619D01*
X362882Y283306D01*
X362356Y283832D01*
X361668Y284117D01*
D02*
G37*
G36*
X367793Y284117D02*
X367049D01*
X366362Y283832D01*
X365836Y283306D01*
X365551Y282619D01*
Y281875D01*
X365836Y281188D01*
X366362Y280662D01*
X367049Y280377D01*
X367793D01*
X368480Y280662D01*
X369006Y281188D01*
X369291Y281875D01*
Y282619D01*
X369006Y283306D01*
X368480Y283832D01*
X367793Y284117D01*
D02*
G37*
G36*
X373917Y284117D02*
X373173D01*
X372486Y283832D01*
X371960Y283306D01*
X371675Y282619D01*
Y281875D01*
X371960Y281188D01*
X372486Y280662D01*
X373173Y280377D01*
X373917D01*
X374605Y280662D01*
X375131Y281188D01*
X375415Y281875D01*
Y282619D01*
X375131Y283306D01*
X374605Y283832D01*
X373917Y284117D01*
D02*
G37*
G36*
X401258Y281791D02*
X400514D01*
X399827Y281507D01*
X399301Y280981D01*
X399016Y280293D01*
Y279549D01*
X399301Y278862D01*
X399827Y278336D01*
X400514Y278051D01*
X401258D01*
X401945Y278336D01*
X402471Y278862D01*
X402756Y279549D01*
Y280293D01*
X402471Y280981D01*
X401945Y281507D01*
X401258Y281791D01*
D02*
G37*
G36*
X344006Y279581D02*
X343262D01*
X342575Y279297D01*
X342049Y278771D01*
X341764Y278083D01*
Y277340D01*
X342049Y276652D01*
X342575Y276126D01*
X343262Y275841D01*
X344006D01*
X344693Y276126D01*
X345219Y276652D01*
X345504Y277340D01*
Y278083D01*
X345219Y278771D01*
X344693Y279297D01*
X344006Y279581D01*
D02*
G37*
G36*
X384230Y281791D02*
X383486D01*
X382799Y281507D01*
X382273Y280981D01*
X381988Y280293D01*
Y279549D01*
X382273Y278862D01*
X382560Y278575D01*
X382748Y278248D01*
X382560Y277921D01*
X382273Y277634D01*
X381988Y276947D01*
Y276203D01*
X382273Y275516D01*
X382799Y274989D01*
X383486Y274705D01*
X384230D01*
X384917Y274989D01*
X385444Y275516D01*
X385728Y276203D01*
Y276947D01*
X385444Y277634D01*
X385156Y277921D01*
X384968Y278248D01*
X385156Y278575D01*
X385444Y278862D01*
X385728Y279549D01*
Y280293D01*
X385444Y280981D01*
X384917Y281507D01*
X384230Y281791D01*
D02*
G37*
G36*
X306534Y278285D02*
X305790D01*
X305103Y278000D01*
X304577Y277474D01*
X304292Y276787D01*
Y276043D01*
X304577Y275356D01*
X305103Y274829D01*
X305790Y274545D01*
X306534D01*
X307221Y274829D01*
X307747Y275356D01*
X308032Y276043D01*
Y276787D01*
X307747Y277474D01*
X307221Y278000D01*
X306534Y278285D01*
D02*
G37*
G36*
X312672Y277993D02*
X311928D01*
X311241Y277708D01*
X310715Y277182D01*
X310430Y276495D01*
Y275751D01*
X310715Y275063D01*
X311241Y274537D01*
X311928Y274253D01*
X312672D01*
X313359Y274537D01*
X313886Y275063D01*
X314170Y275751D01*
Y276495D01*
X313886Y277182D01*
X313359Y277708D01*
X312672Y277993D01*
D02*
G37*
G36*
X331046Y277993D02*
X330302D01*
X329615Y277708D01*
X329088Y277182D01*
X328804Y276495D01*
Y275751D01*
X329088Y275063D01*
X329615Y274537D01*
X330302Y274253D01*
X331046D01*
X331733Y274537D01*
X332259Y275063D01*
X332544Y275751D01*
Y276495D01*
X332259Y277182D01*
X331733Y277708D01*
X331046Y277993D01*
D02*
G37*
G36*
X349419Y277993D02*
X348675D01*
X347988Y277708D01*
X347462Y277182D01*
X347177Y276495D01*
Y275751D01*
X347462Y275063D01*
X347988Y274537D01*
X348675Y274253D01*
X349419D01*
X350107Y274537D01*
X350633Y275063D01*
X350917Y275751D01*
Y276495D01*
X350633Y277182D01*
X350107Y277708D01*
X349419Y277993D01*
D02*
G37*
G36*
X355544Y277993D02*
X354800D01*
X354113Y277708D01*
X353587Y277182D01*
X353302Y276495D01*
Y275750D01*
X353587Y275063D01*
X354113Y274537D01*
X354800Y274252D01*
X355544D01*
X356231Y274537D01*
X356757Y275063D01*
X357042Y275750D01*
Y276495D01*
X356757Y277182D01*
X356231Y277708D01*
X355544Y277993D01*
D02*
G37*
G36*
X367793Y277993D02*
X367049D01*
X366362Y277708D01*
X365835Y277182D01*
X365551Y276494D01*
Y275750D01*
X365835Y275063D01*
X366362Y274537D01*
X367049Y274252D01*
X367793D01*
X368480Y274537D01*
X369006Y275063D01*
X369291Y275750D01*
Y276494D01*
X369006Y277182D01*
X368480Y277708D01*
X367793Y277993D01*
D02*
G37*
G36*
X361592Y277854D02*
X360848D01*
X360160Y277569D01*
X359634Y277043D01*
X359350Y276356D01*
Y275612D01*
X359634Y274924D01*
X360160Y274398D01*
X360848Y274114D01*
X361592D01*
X362279Y274398D01*
X362805Y274924D01*
X363090Y275612D01*
Y276356D01*
X362805Y277043D01*
X362279Y277569D01*
X361592Y277854D01*
D02*
G37*
G36*
X218031Y287303D02*
X216615D01*
X215227Y287027D01*
X213919Y286485D01*
X212743Y285699D01*
X211742Y284698D01*
X210956Y283522D01*
X210414Y282214D01*
X210138Y280826D01*
Y279410D01*
X210414Y278022D01*
X210956Y276715D01*
X211742Y275538D01*
X212743Y274537D01*
X213919Y273751D01*
X215227Y273209D01*
X216615Y272933D01*
X218031D01*
X219419Y273209D01*
X220726Y273751D01*
X221903Y274537D01*
X222904Y275538D01*
X223690Y276715D01*
X224232Y278022D01*
X224508Y279410D01*
Y280826D01*
X224232Y282214D01*
X223690Y283522D01*
X222904Y284698D01*
X221903Y285699D01*
X220726Y286485D01*
X219419Y287027D01*
X218031Y287303D01*
D02*
G37*
G36*
X401159Y275098D02*
X400415D01*
X399728Y274814D01*
X399202Y274288D01*
X398917Y273600D01*
Y272856D01*
X399202Y272169D01*
X399728Y271643D01*
X400415Y271358D01*
X401159D01*
X401847Y271643D01*
X402373Y272169D01*
X402658Y272856D01*
Y273600D01*
X402373Y274288D01*
X401847Y274814D01*
X401159Y275098D01*
D02*
G37*
G36*
X343295Y274930D02*
X342551D01*
X341864Y274646D01*
X341337Y274120D01*
X341053Y273432D01*
Y272688D01*
X341337Y272001D01*
X341864Y271475D01*
X342551Y271190D01*
X343295D01*
X343982Y271475D01*
X344508Y272001D01*
X344793Y272688D01*
Y273432D01*
X344508Y274120D01*
X343982Y274646D01*
X343295Y274930D01*
D02*
G37*
G36*
X233780Y277895D02*
X227874D01*
X226641Y277733D01*
X225491Y277257D01*
X224504Y276499D01*
X223747Y275513D01*
X223271Y274363D01*
X223109Y273130D01*
X223271Y271897D01*
X223747Y270747D01*
X224504Y269760D01*
X225491Y269003D01*
X226641Y268527D01*
X227874Y268365D01*
X233780D01*
X235013Y268527D01*
X236162Y269003D01*
X237149Y269760D01*
X237906Y270747D01*
X238382Y271897D01*
X238545Y273130D01*
X238382Y274363D01*
X237906Y275513D01*
X237149Y276499D01*
X236162Y277257D01*
X235013Y277733D01*
X233780Y277895D01*
D02*
G37*
G36*
X318797Y271868D02*
X318053D01*
X317366Y271584D01*
X316839Y271058D01*
X316555Y270370D01*
Y269626D01*
X316839Y268939D01*
X317366Y268413D01*
X318053Y268128D01*
X318797D01*
X319484Y268413D01*
X320010Y268939D01*
X320295Y269626D01*
Y270370D01*
X320010Y271058D01*
X319484Y271584D01*
X318797Y271868D01*
D02*
G37*
G36*
X312672D02*
X311928D01*
X311241Y271584D01*
X310715Y271058D01*
X310430Y270370D01*
Y269626D01*
X310715Y268939D01*
X311241Y268413D01*
X311928Y268128D01*
X312672D01*
X313359Y268413D01*
X313886Y268939D01*
X314170Y269626D01*
Y270370D01*
X313886Y271058D01*
X313359Y271584D01*
X312672Y271868D01*
D02*
G37*
G36*
X324921Y271868D02*
X324177D01*
X323490Y271584D01*
X322964Y271058D01*
X322679Y270370D01*
Y269626D01*
X322964Y268939D01*
X323490Y268413D01*
X324177Y268128D01*
X324921D01*
X325609Y268413D01*
X326135Y268939D01*
X326419Y269626D01*
Y270370D01*
X326135Y271058D01*
X325609Y271584D01*
X324921Y271868D01*
D02*
G37*
G36*
X331046Y271868D02*
X330302D01*
X329614Y271584D01*
X329088Y271057D01*
X328804Y270370D01*
Y269626D01*
X329088Y268939D01*
X329614Y268413D01*
X330302Y268128D01*
X331046D01*
X331733Y268413D01*
X332259Y268939D01*
X332544Y269626D01*
Y270370D01*
X332259Y271057D01*
X331733Y271584D01*
X331046Y271868D01*
D02*
G37*
G36*
X373917Y271868D02*
X373173D01*
X372486Y271583D01*
X371960Y271057D01*
X371675Y270370D01*
Y269626D01*
X371960Y268938D01*
X372486Y268412D01*
X373173Y268128D01*
X373917D01*
X374605Y268412D01*
X375131Y268938D01*
X375415Y269626D01*
Y270370D01*
X375131Y271057D01*
X374605Y271583D01*
X373917Y271868D01*
D02*
G37*
G36*
X288955Y274311D02*
X288211D01*
X287523Y274026D01*
X286997Y273500D01*
X286713Y272813D01*
Y272069D01*
X286997Y271382D01*
X287404Y270975D01*
X287478Y270669D01*
X287404Y270364D01*
X286997Y269957D01*
X286713Y269270D01*
Y268526D01*
X286997Y267838D01*
X287523Y267312D01*
X288211Y267028D01*
X288955D01*
X289642Y267312D01*
X290168Y267838D01*
X290453Y268526D01*
Y269270D01*
X290168Y269957D01*
X289761Y270364D01*
X289687Y270669D01*
X289761Y270975D01*
X290168Y271382D01*
X290453Y272069D01*
Y272813D01*
X290168Y273500D01*
X289642Y274026D01*
X288955Y274311D01*
D02*
G37*
G36*
X306534Y268792D02*
X305790D01*
X305103Y268508D01*
X304577Y267982D01*
X304292Y267294D01*
Y266550D01*
X304577Y265863D01*
X305103Y265337D01*
X305790Y265052D01*
X306534D01*
X307221Y265337D01*
X307747Y265863D01*
X308032Y266550D01*
Y267294D01*
X307747Y267982D01*
X307221Y268508D01*
X306534Y268792D01*
D02*
G37*
G36*
X373935Y265761D02*
X373191D01*
X372503Y265476D01*
X371977Y264950D01*
X371693Y264263D01*
Y263519D01*
X371977Y262831D01*
X372503Y262305D01*
X373191Y262021D01*
X373935D01*
X374622Y262305D01*
X375148Y262831D01*
X375433Y263519D01*
Y264263D01*
X375148Y264950D01*
X374622Y265476D01*
X373935Y265761D01*
D02*
G37*
G36*
X331046Y265744D02*
X330302D01*
X329614Y265459D01*
X329088Y264933D01*
X328804Y264246D01*
Y263502D01*
X329088Y262814D01*
X329614Y262288D01*
X330302Y262003D01*
X331046D01*
X331733Y262288D01*
X332259Y262814D01*
X332544Y263502D01*
Y264246D01*
X332259Y264933D01*
X331733Y265459D01*
X331046Y265744D01*
D02*
G37*
G36*
X337170Y265744D02*
X336426D01*
X335739Y265459D01*
X335213Y264933D01*
X334928Y264246D01*
Y263502D01*
X335213Y262814D01*
X335739Y262288D01*
X336426Y262003D01*
X337170D01*
X337858Y262288D01*
X338384Y262814D01*
X338668Y263502D01*
Y264246D01*
X338384Y264933D01*
X337858Y265459D01*
X337170Y265744D01*
D02*
G37*
G36*
X349419Y265743D02*
X348675D01*
X347988Y265459D01*
X347462Y264933D01*
X347177Y264245D01*
Y263501D01*
X347462Y262814D01*
X347988Y262288D01*
X348675Y262003D01*
X349419D01*
X350107Y262288D01*
X350633Y262814D01*
X350917Y263501D01*
Y264245D01*
X350633Y264933D01*
X350107Y265459D01*
X349419Y265743D01*
D02*
G37*
G36*
X361668Y265743D02*
X360924D01*
X360237Y265459D01*
X359711Y264933D01*
X359426Y264245D01*
Y263501D01*
X359711Y262814D01*
X360237Y262288D01*
X360924Y262003D01*
X361668D01*
X362356Y262288D01*
X362882Y262814D01*
X363166Y263501D01*
Y264245D01*
X362882Y264933D01*
X362356Y265459D01*
X361668Y265743D01*
D02*
G37*
G36*
X292104Y260925D02*
X291360D01*
X290673Y260641D01*
X290147Y260114D01*
X289862Y259427D01*
Y258683D01*
X290147Y257996D01*
X290673Y257470D01*
X291360Y257185D01*
X292104D01*
X292792Y257470D01*
X293318Y257996D01*
X293602Y258683D01*
Y259427D01*
X293318Y260114D01*
X292792Y260641D01*
X292104Y260925D01*
D02*
G37*
G36*
X324921Y259619D02*
X324177D01*
X323490Y259334D01*
X322964Y258808D01*
X322679Y258121D01*
Y257377D01*
X322964Y256690D01*
X323490Y256164D01*
X324177Y255879D01*
X324921D01*
X325608Y256164D01*
X326135Y256690D01*
X326419Y257377D01*
Y258121D01*
X326135Y258808D01*
X325608Y259334D01*
X324921Y259619D01*
D02*
G37*
G36*
X331046Y259619D02*
X330302D01*
X329614Y259334D01*
X329088Y258808D01*
X328804Y258121D01*
Y257377D01*
X329088Y256690D01*
X329614Y256164D01*
X330302Y255879D01*
X331046D01*
X331733Y256164D01*
X332259Y256690D01*
X332544Y257377D01*
Y258121D01*
X332259Y258808D01*
X331733Y259334D01*
X331046Y259619D01*
D02*
G37*
G36*
X337170Y259619D02*
X336426D01*
X335739Y259334D01*
X335213Y258808D01*
X334928Y258121D01*
Y257377D01*
X335213Y256690D01*
X335739Y256164D01*
X336426Y255879D01*
X337170D01*
X337858Y256164D01*
X338384Y256690D01*
X338668Y257377D01*
Y258121D01*
X338384Y258808D01*
X337858Y259334D01*
X337170Y259619D01*
D02*
G37*
G36*
X361668Y259619D02*
X360924D01*
X360237Y259334D01*
X359711Y258808D01*
X359426Y258121D01*
Y257377D01*
X359711Y256689D01*
X360237Y256163D01*
X360924Y255879D01*
X361668D01*
X362356Y256163D01*
X362882Y256689D01*
X363166Y257377D01*
Y258121D01*
X362882Y258808D01*
X362356Y259334D01*
X361668Y259619D01*
D02*
G37*
G36*
X398377Y254600D02*
X397634D01*
X396946Y254315D01*
X396420Y253789D01*
X396135Y253102D01*
Y252358D01*
X396210Y252178D01*
X395827Y251796D01*
X395648Y251870D01*
X394904D01*
X394216Y251585D01*
X393690Y251059D01*
X393406Y250372D01*
Y249628D01*
X393690Y248941D01*
X394216Y248415D01*
X394904Y248130D01*
X395648D01*
X396335Y248415D01*
X396861Y248941D01*
X397146Y249628D01*
Y250372D01*
X397071Y250552D01*
X397454Y250934D01*
X397634Y250860D01*
X398377D01*
X399065Y251145D01*
X399591Y251671D01*
X399876Y252358D01*
Y253102D01*
X399591Y253789D01*
X399065Y254315D01*
X398377Y254600D01*
D02*
G37*
G36*
X312672Y253495D02*
X311928D01*
X311241Y253210D01*
X310715Y252684D01*
X310430Y251996D01*
Y251253D01*
X310715Y250565D01*
X311241Y250039D01*
X311928Y249754D01*
X312672D01*
X313359Y250039D01*
X313885Y250565D01*
X314170Y251253D01*
Y251996D01*
X313885Y252684D01*
X313359Y253210D01*
X312672Y253495D01*
D02*
G37*
G36*
X324921Y253495D02*
X324177D01*
X323490Y253210D01*
X322964Y252684D01*
X322679Y251996D01*
Y251252D01*
X322964Y250565D01*
X323490Y250039D01*
X324177Y249754D01*
X324921D01*
X325608Y250039D01*
X326135Y250565D01*
X326419Y251252D01*
Y251996D01*
X326135Y252684D01*
X325608Y253210D01*
X324921Y253495D01*
D02*
G37*
G36*
X337170Y253494D02*
X336426D01*
X335739Y253210D01*
X335213Y252684D01*
X334928Y251996D01*
Y251252D01*
X335213Y250565D01*
X335739Y250039D01*
X336426Y249754D01*
X337170D01*
X337858Y250039D01*
X338384Y250565D01*
X338668Y251252D01*
Y251996D01*
X338384Y252684D01*
X337858Y253210D01*
X337170Y253494D01*
D02*
G37*
G36*
X349419Y253494D02*
X348675D01*
X347988Y253209D01*
X347462Y252683D01*
X347177Y251996D01*
Y251252D01*
X347462Y250565D01*
X347988Y250039D01*
X348675Y249754D01*
X349419D01*
X350107Y250039D01*
X350633Y250565D01*
X350917Y251252D01*
Y251996D01*
X350633Y252683D01*
X350107Y253209D01*
X349419Y253494D01*
D02*
G37*
G36*
X361668Y253494D02*
X360924D01*
X360237Y253209D01*
X359711Y252683D01*
X359426Y251996D01*
Y251252D01*
X359711Y250565D01*
X360237Y250039D01*
X360924Y249754D01*
X361668D01*
X362355Y250039D01*
X362882Y250565D01*
X363166Y251252D01*
Y251996D01*
X362882Y252683D01*
X362355Y253209D01*
X361668Y253494D01*
D02*
G37*
G36*
X373917Y253494D02*
X373173D01*
X372486Y253209D01*
X371960Y252683D01*
X371675Y251996D01*
Y251252D01*
X371960Y250565D01*
X372486Y250039D01*
X373173Y249754D01*
X373917D01*
X374605Y250039D01*
X375131Y250565D01*
X375415Y251252D01*
Y251996D01*
X375131Y252683D01*
X374605Y253209D01*
X373917Y253494D01*
D02*
G37*
G36*
X297025Y251476D02*
X296282D01*
X295594Y251192D01*
X295068Y250666D01*
X294783Y249978D01*
Y249234D01*
X295068Y248547D01*
X295594Y248021D01*
X296282Y247736D01*
X297025D01*
X297713Y248021D01*
X298239Y248547D01*
X298524Y249234D01*
Y249978D01*
X298239Y250666D01*
X297713Y251192D01*
X297025Y251476D01*
D02*
G37*
G36*
X324921Y247370D02*
X324177D01*
X323490Y247085D01*
X322964Y246559D01*
X322679Y245872D01*
Y245128D01*
X322964Y244440D01*
X323490Y243914D01*
X324177Y243630D01*
X324921D01*
X325608Y243914D01*
X326134Y244440D01*
X326419Y245128D01*
Y245872D01*
X326134Y246559D01*
X325608Y247085D01*
X324921Y247370D01*
D02*
G37*
G36*
X337170Y247370D02*
X336426D01*
X335739Y247085D01*
X335213Y246559D01*
X334928Y245872D01*
Y245128D01*
X335213Y244440D01*
X335739Y243914D01*
X336426Y243630D01*
X337170D01*
X337857Y243914D01*
X338384Y244440D01*
X338668Y245128D01*
Y245872D01*
X338384Y246559D01*
X337857Y247085D01*
X337170Y247370D01*
D02*
G37*
G36*
X349419Y247370D02*
X348675D01*
X347988Y247085D01*
X347462Y246559D01*
X347177Y245871D01*
Y245128D01*
X347462Y244440D01*
X347988Y243914D01*
X348675Y243630D01*
X349419D01*
X350106Y243914D01*
X350633Y244440D01*
X350917Y245128D01*
Y245871D01*
X350633Y246559D01*
X350106Y247085D01*
X349419Y247370D01*
D02*
G37*
G36*
X361668Y247370D02*
X360924D01*
X360237Y247085D01*
X359711Y246559D01*
X359426Y245871D01*
Y245128D01*
X359711Y244440D01*
X360237Y243914D01*
X360924Y243629D01*
X361668D01*
X362355Y243914D01*
X362881Y244440D01*
X363166Y245128D01*
Y245871D01*
X362881Y246559D01*
X362355Y247085D01*
X361668Y247370D01*
D02*
G37*
G36*
X373917Y247370D02*
X373173D01*
X372486Y247085D01*
X371960Y246559D01*
X371675Y245871D01*
Y245128D01*
X371960Y244440D01*
X372486Y243914D01*
X373173Y243629D01*
X373917D01*
X374605Y243914D01*
X375131Y244440D01*
X375415Y245128D01*
Y245871D01*
X375131Y246559D01*
X374605Y247085D01*
X373917Y247370D01*
D02*
G37*
G36*
X259840Y241240D02*
X259096D01*
X258409Y240955D01*
X258201Y240747D01*
X257874Y240437D01*
X257547Y240747D01*
X257339Y240955D01*
X256652Y241240D01*
X255908D01*
X255221Y240955D01*
X254695Y240429D01*
X254410Y239741D01*
Y238997D01*
X254695Y238310D01*
X255221Y237784D01*
X255908Y237499D01*
X256652D01*
X257339Y237784D01*
X257547Y237992D01*
X257874Y238302D01*
X258201Y237992D01*
X258409Y237784D01*
X259096Y237499D01*
X259840D01*
X260527Y237784D01*
X261053Y238310D01*
X261338Y238997D01*
Y239741D01*
X261053Y240429D01*
X260527Y240955D01*
X259840Y241240D01*
D02*
G37*
G36*
X435411Y243209D02*
X434667D01*
X433980Y242924D01*
X433454Y242398D01*
X433169Y241711D01*
Y240967D01*
X433454Y240279D01*
X433980Y239753D01*
X434667Y239469D01*
X435411D01*
X436099Y239753D01*
X436625Y240279D01*
X436909Y240967D01*
Y241711D01*
X436625Y242398D01*
X436099Y242924D01*
X435411Y243209D01*
D02*
G37*
G36*
X312774Y240059D02*
X312030D01*
X311342Y239774D01*
X310925Y239357D01*
X310508Y239774D01*
X309821Y240059D01*
X309077D01*
X308389Y239774D01*
X307863Y239248D01*
X307579Y238561D01*
Y237817D01*
X307863Y237130D01*
X308280Y236713D01*
X307863Y236296D01*
X307579Y235608D01*
Y234864D01*
X307863Y234177D01*
X308389Y233651D01*
X309077Y233366D01*
X309821D01*
X310508Y233651D01*
X310925Y234068D01*
X311342Y233651D01*
X312030Y233366D01*
X312774D01*
X313461Y233651D01*
X313987Y234177D01*
X314272Y234864D01*
Y235608D01*
X313987Y236296D01*
X313570Y236713D01*
X313987Y237130D01*
X314272Y237817D01*
Y238561D01*
X313987Y239248D01*
X313461Y239774D01*
X312774Y240059D01*
D02*
G37*
G36*
X375962Y239272D02*
X375219D01*
X374531Y238987D01*
X374124Y238580D01*
X373819Y238506D01*
X373513Y238580D01*
X373107Y238987D01*
X372419Y239272D01*
X371675D01*
X370988Y238987D01*
X370462Y238461D01*
X370177Y237773D01*
Y237030D01*
X370462Y236342D01*
X370988Y235816D01*
X371675Y235531D01*
X372419D01*
X373107Y235816D01*
X373513Y236223D01*
X373819Y236297D01*
X374124Y236223D01*
X374531Y235816D01*
X375219Y235531D01*
X375962D01*
X376650Y235816D01*
X377176Y236342D01*
X377461Y237030D01*
Y237773D01*
X377176Y238461D01*
X376650Y238987D01*
X375962Y239272D01*
D02*
G37*
G36*
X320254Y242028D02*
X319510D01*
X318823Y241743D01*
X318297Y241217D01*
X318012Y240529D01*
Y239786D01*
X318297Y239098D01*
X318823Y238572D01*
X319510Y238287D01*
X320254D01*
X320941Y238572D01*
X321467Y239098D01*
X321752Y239786D01*
Y240529D01*
X321467Y241217D01*
X320941Y241743D01*
X320254Y242028D01*
D02*
G37*
G36*
X428325Y239907D02*
X427581D01*
X426894Y239622D01*
X426367Y239096D01*
X426083Y238408D01*
Y237664D01*
X426367Y236977D01*
X426894Y236451D01*
X427581Y236166D01*
X428325D01*
X429012Y236451D01*
X429538Y236977D01*
X429823Y237664D01*
Y238408D01*
X429538Y239096D01*
X429012Y239622D01*
X428325Y239907D01*
D02*
G37*
G36*
X204088Y243307D02*
X202999D01*
X201948Y243025D01*
X201005Y242481D01*
X200235Y241711D01*
X199691Y240769D01*
X199409Y239718D01*
Y238629D01*
X199691Y237578D01*
X200235Y236635D01*
X201005Y235865D01*
X201948Y235321D01*
X202999Y235039D01*
X204088D01*
X205139Y235321D01*
X206082Y235865D01*
X206851Y236635D01*
X207395Y237578D01*
X207677Y238629D01*
Y239718D01*
X207395Y240769D01*
X206851Y241711D01*
X206082Y242481D01*
X205139Y243025D01*
X204088Y243307D01*
D02*
G37*
G36*
X239184Y245276D02*
X237982D01*
X236803Y245041D01*
X235692Y244581D01*
X234693Y243913D01*
X233843Y243063D01*
X233175Y242064D01*
X232715Y240953D01*
X232480Y239774D01*
Y238572D01*
X232715Y237393D01*
X233175Y236283D01*
X233843Y235283D01*
X234693Y234433D01*
X235692Y233765D01*
X236803Y233305D01*
X237982Y233071D01*
X239184D01*
X240363Y233305D01*
X241473Y233765D01*
X242473Y234433D01*
X243323Y235283D01*
X243990Y236283D01*
X244450Y237393D01*
X244685Y238572D01*
Y239774D01*
X244450Y240953D01*
X243990Y242064D01*
X243323Y243063D01*
X242473Y243913D01*
X241473Y244581D01*
X240363Y245041D01*
X239184Y245276D01*
D02*
G37*
G36*
X449191Y234941D02*
X448447D01*
X447760Y234656D01*
X447233Y234130D01*
X446949Y233443D01*
Y232699D01*
X447233Y232012D01*
X447760Y231486D01*
X448447Y231201D01*
X449191D01*
X449878Y231486D01*
X450404Y232012D01*
X450689Y232699D01*
Y233443D01*
X450404Y234130D01*
X449878Y234656D01*
X449191Y234941D01*
D02*
G37*
G36*
X442498D02*
X441754D01*
X441067Y234656D01*
X440541Y234130D01*
X440256Y233443D01*
Y232699D01*
X440541Y232012D01*
X441067Y231486D01*
X441754Y231201D01*
X442498D01*
X443185Y231486D01*
X443711Y232012D01*
X443996Y232699D01*
Y233443D01*
X443711Y234130D01*
X443185Y234656D01*
X442498Y234941D01*
D02*
G37*
G36*
X344860Y231201D02*
X344116D01*
X343429Y230916D01*
X342903Y230390D01*
X342790Y230118D01*
X342249D01*
X342137Y230390D01*
X341611Y230916D01*
X340923Y231201D01*
X340179D01*
X339492Y230916D01*
X338966Y230390D01*
X338681Y229703D01*
Y228959D01*
X338966Y228271D01*
X339492Y227745D01*
X340179Y227461D01*
X340923D01*
X341611Y227745D01*
X342137Y228271D01*
X342249Y228543D01*
X342790D01*
X342903Y228271D01*
X343429Y227745D01*
X344116Y227461D01*
X344860D01*
X345548Y227745D01*
X346074Y228271D01*
X346358Y228959D01*
Y229703D01*
X346074Y230390D01*
X345548Y230916D01*
X344860Y231201D01*
D02*
G37*
G36*
X409427Y232972D02*
X408683D01*
X407996Y232688D01*
X407470Y232162D01*
X407185Y231474D01*
Y230730D01*
X407470Y230043D01*
X407996Y229517D01*
X408683Y229232D01*
X409427D01*
X410114Y229517D01*
X410640Y230043D01*
X410925Y230730D01*
Y231474D01*
X410640Y232162D01*
X410114Y232688D01*
X409427Y232972D01*
D02*
G37*
G36*
X330096Y232677D02*
X329352D01*
X328665Y232393D01*
X328139Y231866D01*
X327854Y231179D01*
Y230435D01*
X328139Y229748D01*
X328665Y229222D01*
X329352Y228937D01*
X330096D01*
X330784Y229222D01*
X331310Y229748D01*
X331594Y230435D01*
Y231179D01*
X331310Y231866D01*
X330784Y232393D01*
X330096Y232677D01*
D02*
G37*
G36*
X325175Y232677D02*
X324431D01*
X323744Y232392D01*
X323218Y231866D01*
X322933Y231179D01*
Y230435D01*
X323218Y229748D01*
X323744Y229222D01*
X324431Y228937D01*
X325175D01*
X325863Y229222D01*
X326389Y229748D01*
X326673Y230435D01*
Y231179D01*
X326389Y231866D01*
X325863Y232392D01*
X325175Y232677D01*
D02*
G37*
G36*
X320254D02*
X319510D01*
X318823Y232392D01*
X318297Y231866D01*
X318012Y231179D01*
Y230435D01*
X318297Y229748D01*
X318823Y229222D01*
X319510Y228937D01*
X320254D01*
X320941Y229222D01*
X321467Y229748D01*
X321752Y230435D01*
Y231179D01*
X321467Y231866D01*
X320941Y232392D01*
X320254Y232677D01*
D02*
G37*
G36*
X335018D02*
X334274D01*
X333586Y232392D01*
X333060Y231866D01*
X332776Y231179D01*
Y230435D01*
X333060Y229748D01*
X333537Y229271D01*
X333564Y228986D01*
X333537Y228701D01*
X333060Y228225D01*
X332776Y227537D01*
Y226793D01*
X333060Y226106D01*
X333586Y225580D01*
X334274Y225295D01*
X335018D01*
X335705Y225580D01*
X336231Y226106D01*
X336516Y226793D01*
Y227537D01*
X336231Y228225D01*
X335755Y228701D01*
X335727Y228986D01*
X335755Y229271D01*
X336231Y229748D01*
X336516Y230435D01*
Y231179D01*
X336231Y231866D01*
X335705Y232392D01*
X335018Y232677D01*
D02*
G37*
G36*
X457548Y233937D02*
X456152D01*
X454783Y233665D01*
X453494Y233131D01*
X452333Y232355D01*
X451346Y231368D01*
X450570Y230207D01*
X450036Y228918D01*
X449764Y227548D01*
Y226152D01*
X450036Y224783D01*
X450570Y223494D01*
X451346Y222333D01*
X452333Y221346D01*
X453494Y220570D01*
X454783Y220036D01*
X456152Y219764D01*
X457548D01*
X458918Y220036D01*
X460207Y220570D01*
X461368Y221346D01*
X462355Y222333D01*
X463131Y223494D01*
X463665Y224783D01*
X463937Y226152D01*
Y227548D01*
X463665Y228918D01*
X463131Y230207D01*
X462355Y231368D01*
X461368Y232355D01*
X460207Y233131D01*
X458918Y233665D01*
X457548Y233937D01*
D02*
G37*
G36*
X406671Y219980D02*
X405927D01*
X405240Y219696D01*
X404714Y219169D01*
X404429Y218482D01*
Y217738D01*
X404714Y217051D01*
X405240Y216525D01*
X405927Y216240D01*
X406671D01*
X407359Y216525D01*
X407885Y217051D01*
X408169Y217738D01*
Y218482D01*
X407885Y219169D01*
X407359Y219696D01*
X406671Y219980D01*
D02*
G37*
G36*
X392104D02*
X391360D01*
X390673Y219696D01*
X390147Y219169D01*
X389862Y218482D01*
Y217738D01*
X390147Y217051D01*
X390673Y216525D01*
X391360Y216240D01*
X392104D01*
X392792Y216525D01*
X393318Y217051D01*
X393602Y217738D01*
Y218482D01*
X393318Y219169D01*
X392792Y219696D01*
X392104Y219980D01*
D02*
G37*
G36*
X377537D02*
X376793D01*
X376106Y219696D01*
X375580Y219169D01*
X375295Y218482D01*
Y217738D01*
X375580Y217051D01*
X376106Y216525D01*
X376793Y216240D01*
X377537D01*
X378225Y216525D01*
X378751Y217051D01*
X379035Y217738D01*
Y218482D01*
X378751Y219169D01*
X378225Y219696D01*
X377537Y219980D01*
D02*
G37*
G36*
X362577D02*
X361833D01*
X361145Y219696D01*
X360619Y219169D01*
X360335Y218482D01*
Y217738D01*
X360619Y217051D01*
X361145Y216525D01*
X361833Y216240D01*
X362577D01*
X363264Y216525D01*
X363790Y217051D01*
X364075Y217738D01*
Y218482D01*
X363790Y219169D01*
X363264Y219696D01*
X362577Y219980D01*
D02*
G37*
G36*
X435805Y219980D02*
X435061D01*
X434374Y219696D01*
X433848Y219169D01*
X433563Y218482D01*
Y217738D01*
X433848Y217051D01*
X434374Y216525D01*
X435061Y216240D01*
X435805D01*
X436492Y216525D01*
X437018Y217051D01*
X437303Y217738D01*
Y218482D01*
X437018Y219169D01*
X436492Y219696D01*
X435805Y219980D01*
D02*
G37*
G36*
X421238D02*
X420494D01*
X419807Y219696D01*
X419281Y219169D01*
X418996Y218482D01*
Y217738D01*
X419281Y217051D01*
X419807Y216525D01*
X420494Y216240D01*
X421238D01*
X421925Y216525D01*
X422451Y217051D01*
X422736Y217738D01*
Y218482D01*
X422451Y219169D01*
X421925Y219696D01*
X421238Y219980D01*
D02*
G37*
G36*
X400591Y211378D02*
X393110D01*
Y202323D01*
X400591D01*
Y211378D01*
D02*
G37*
G36*
X310591D02*
X303110D01*
Y202323D01*
X310591D01*
Y211378D01*
D02*
G37*
G36*
X270590D02*
X263110D01*
Y202323D01*
X270590D01*
Y211378D01*
D02*
G37*
G36*
X446850Y211410D02*
X445874Y211282D01*
X444964Y210905D01*
X444183Y210305D01*
X443583Y209524D01*
X443207Y208614D01*
X443078Y207638D01*
Y206063D01*
X443207Y205087D01*
X443583Y204177D01*
X444183Y203396D01*
X444964Y202796D01*
X445874Y202419D01*
X446850Y202291D01*
X447827Y202419D01*
X448737Y202796D01*
X449518Y203396D01*
X450117Y204177D01*
X450494Y205087D01*
X450623Y206063D01*
Y207638D01*
X450494Y208614D01*
X450117Y209524D01*
X449518Y210305D01*
X448737Y210905D01*
X447827Y211282D01*
X446850Y211410D01*
D02*
G37*
G36*
X436850D02*
X435874Y211282D01*
X434964Y210905D01*
X434183Y210305D01*
X433583Y209524D01*
X433207Y208614D01*
X433078Y207638D01*
Y206063D01*
X433207Y205087D01*
X433583Y204177D01*
X434183Y203396D01*
X434964Y202796D01*
X435874Y202419D01*
X436850Y202291D01*
X437827Y202419D01*
X438737Y202796D01*
X439518Y203396D01*
X440117Y204177D01*
X440494Y205087D01*
X440623Y206063D01*
Y207638D01*
X440494Y208614D01*
X440117Y209524D01*
X439518Y210305D01*
X438737Y210905D01*
X437827Y211282D01*
X436850Y211410D01*
D02*
G37*
G36*
X426850D02*
X425874Y211282D01*
X424964Y210905D01*
X424183Y210305D01*
X423583Y209524D01*
X423207Y208614D01*
X423078Y207638D01*
Y206063D01*
X423207Y205087D01*
X423583Y204177D01*
X424183Y203396D01*
X424964Y202796D01*
X425874Y202419D01*
X426850Y202291D01*
X427827Y202419D01*
X428737Y202796D01*
X429518Y203396D01*
X430117Y204177D01*
X430494Y205087D01*
X430623Y206063D01*
Y207638D01*
X430494Y208614D01*
X430117Y209524D01*
X429518Y210305D01*
X428737Y210905D01*
X427827Y211282D01*
X426850Y211410D01*
D02*
G37*
G36*
X416850D02*
X415874Y211282D01*
X414964Y210905D01*
X414183Y210305D01*
X413583Y209524D01*
X413206Y208614D01*
X413078Y207638D01*
Y206063D01*
X413206Y205087D01*
X413583Y204177D01*
X414183Y203396D01*
X414964Y202796D01*
X415874Y202419D01*
X416850Y202291D01*
X417827Y202419D01*
X418737Y202796D01*
X419518Y203396D01*
X420117Y204177D01*
X420494Y205087D01*
X420623Y206063D01*
Y207638D01*
X420494Y208614D01*
X420117Y209524D01*
X419518Y210305D01*
X418737Y210905D01*
X417827Y211282D01*
X416850Y211410D01*
D02*
G37*
G36*
X406850D02*
X405874Y211282D01*
X404964Y210905D01*
X404183Y210305D01*
X403583Y209524D01*
X403206Y208614D01*
X403078Y207638D01*
Y206063D01*
X403206Y205087D01*
X403583Y204177D01*
X404183Y203396D01*
X404964Y202796D01*
X405874Y202419D01*
X406850Y202291D01*
X407827Y202419D01*
X408737Y202796D01*
X409518Y203396D01*
X410117Y204177D01*
X410494Y205087D01*
X410623Y206063D01*
Y207638D01*
X410494Y208614D01*
X410117Y209524D01*
X409518Y210305D01*
X408737Y210905D01*
X407827Y211282D01*
X406850Y211410D01*
D02*
G37*
G36*
X346850D02*
X345874Y211282D01*
X344964Y210905D01*
X344183Y210305D01*
X343583Y209524D01*
X343207Y208614D01*
X343078Y207638D01*
Y206063D01*
X343207Y205087D01*
X343583Y204177D01*
X344183Y203396D01*
X344964Y202796D01*
X345874Y202419D01*
X346850Y202291D01*
X347827Y202419D01*
X348737Y202796D01*
X349518Y203396D01*
X350117Y204177D01*
X350494Y205087D01*
X350623Y206063D01*
Y207638D01*
X350494Y208614D01*
X350117Y209524D01*
X349518Y210305D01*
X348737Y210905D01*
X347827Y211282D01*
X346850Y211410D01*
D02*
G37*
G36*
X336850D02*
X335874Y211282D01*
X334964Y210905D01*
X334183Y210305D01*
X333583Y209524D01*
X333207Y208614D01*
X333078Y207638D01*
Y206063D01*
X333207Y205087D01*
X333583Y204177D01*
X334183Y203396D01*
X334964Y202796D01*
X335874Y202419D01*
X336850Y202291D01*
X337827Y202419D01*
X338737Y202796D01*
X339518Y203396D01*
X340117Y204177D01*
X340494Y205087D01*
X340623Y206063D01*
Y207638D01*
X340494Y208614D01*
X340117Y209524D01*
X339518Y210305D01*
X338737Y210905D01*
X337827Y211282D01*
X336850Y211410D01*
D02*
G37*
G36*
X326850D02*
X325874Y211282D01*
X324964Y210905D01*
X324183Y210305D01*
X323583Y209524D01*
X323206Y208614D01*
X323078Y207638D01*
Y206063D01*
X323206Y205087D01*
X323583Y204177D01*
X324183Y203396D01*
X324964Y202796D01*
X325874Y202419D01*
X326850Y202291D01*
X327827Y202419D01*
X328737Y202796D01*
X329518Y203396D01*
X330117Y204177D01*
X330494Y205087D01*
X330623Y206063D01*
Y207638D01*
X330494Y208614D01*
X330117Y209524D01*
X329518Y210305D01*
X328737Y210905D01*
X327827Y211282D01*
X326850Y211410D01*
D02*
G37*
G36*
X316850D02*
X315874Y211282D01*
X314964Y210905D01*
X314183Y210305D01*
X313583Y209524D01*
X313207Y208614D01*
X313078Y207638D01*
Y206063D01*
X313207Y205087D01*
X313583Y204177D01*
X314183Y203396D01*
X314964Y202796D01*
X315874Y202419D01*
X316850Y202291D01*
X317827Y202419D01*
X318737Y202796D01*
X319518Y203396D01*
X320117Y204177D01*
X320494Y205087D01*
X320623Y206063D01*
Y207638D01*
X320494Y208614D01*
X320117Y209524D01*
X319518Y210305D01*
X318737Y210905D01*
X317827Y211282D01*
X316850Y211410D01*
D02*
G37*
G36*
X286850D02*
X285874Y211282D01*
X284964Y210905D01*
X284183Y210305D01*
X283583Y209524D01*
X283207Y208614D01*
X283078Y207638D01*
Y206063D01*
X283207Y205087D01*
X283583Y204177D01*
X284183Y203396D01*
X284964Y202796D01*
X285874Y202419D01*
X286850Y202291D01*
X287827Y202419D01*
X288737Y202796D01*
X289518Y203396D01*
X290117Y204177D01*
X290494Y205087D01*
X290623Y206063D01*
Y207638D01*
X290494Y208614D01*
X290117Y209524D01*
X289518Y210305D01*
X288737Y210905D01*
X287827Y211282D01*
X286850Y211410D01*
D02*
G37*
G36*
X376850Y211410D02*
X375874Y211282D01*
X374964Y210905D01*
X374183Y210305D01*
X373583Y209524D01*
X373206Y208614D01*
X373078Y207638D01*
Y206063D01*
X373206Y205087D01*
X373583Y204177D01*
X374183Y203396D01*
X374964Y202796D01*
X375874Y202419D01*
X376850Y202291D01*
X377827Y202419D01*
X378737Y202796D01*
X379518Y203396D01*
X380117Y204177D01*
X380494Y205087D01*
X380623Y206063D01*
Y207638D01*
X380494Y208614D01*
X380117Y209524D01*
X379518Y210305D01*
X378737Y210905D01*
X377827Y211282D01*
X376850Y211410D01*
D02*
G37*
G36*
X210018Y203740D02*
X209274D01*
X208586Y203455D01*
X208060Y202929D01*
X207776Y202242D01*
Y201498D01*
X208060Y200811D01*
X208586Y200285D01*
X209274Y200000D01*
X210018D01*
X210705Y200285D01*
X211231Y200811D01*
X211516Y201498D01*
Y202242D01*
X211231Y202929D01*
X210705Y203455D01*
X210018Y203740D01*
D02*
G37*
G36*
X252548Y213937D02*
X251152D01*
X249783Y213665D01*
X248494Y213130D01*
X247333Y212355D01*
X246346Y211368D01*
X245570Y210207D01*
X245036Y208917D01*
X244764Y207548D01*
Y206152D01*
X245036Y204783D01*
X245570Y203494D01*
X246346Y202333D01*
X247333Y201346D01*
X248494Y200570D01*
X249783Y200036D01*
X251152Y199764D01*
X252548D01*
X253918Y200036D01*
X255207Y200570D01*
X256368Y201346D01*
X257355Y202333D01*
X258131Y203494D01*
X258665Y204783D01*
X258937Y206152D01*
Y207548D01*
X258665Y208917D01*
X258131Y210207D01*
X257355Y211368D01*
X256368Y212355D01*
X255207Y213130D01*
X253918Y213665D01*
X252548Y213937D01*
D02*
G37*
%LPD*%
D144*
X281850Y366850D02*
D03*
X232850Y396850D02*
D03*
X270850D02*
D03*
X376850Y396850D02*
D03*
X306850Y206850D02*
D03*
X396850D02*
D03*
X266850D02*
D03*
D145*
X271850Y366850D02*
D03*
X261850D02*
D03*
X261850Y356850D02*
D03*
X271850D02*
D03*
X281850D02*
D03*
X242850Y396850D02*
D03*
X310850D02*
D03*
X290850D02*
D03*
X280850D02*
D03*
X300850D02*
D03*
X360850D02*
D03*
X320850D02*
D03*
X330850D02*
D03*
X340850Y396850D02*
D03*
X350850Y396850D02*
D03*
X416850Y396850D02*
D03*
X396850D02*
D03*
X386850D02*
D03*
X406850D02*
D03*
X426850D02*
D03*
X436850D02*
D03*
X446850Y396850D02*
D03*
X346850Y206850D02*
D03*
X326850D02*
D03*
X316850D02*
D03*
X336850D02*
D03*
X356850D02*
D03*
X366850D02*
D03*
X376850Y206850D02*
D03*
X446850Y206850D02*
D03*
X426850D02*
D03*
X406850D02*
D03*
X416850D02*
D03*
X436850D02*
D03*
X276850D02*
D03*
X286850D02*
D03*
D146*
X230827Y337106D02*
D03*
Y273130D02*
D03*
D147*
X253307Y332126D02*
D03*
Y323110D02*
D03*
Y287126D02*
D03*
Y278110D02*
D03*
D148*
X227323Y315079D02*
D03*
X234331Y319173D02*
D03*
X227323Y307047D02*
D03*
X234331Y311063D02*
D03*
X227323Y299016D02*
D03*
X234331Y303031D02*
D03*
Y295000D02*
D03*
D149*
X227323Y290984D02*
D03*
D150*
X207480Y381968D02*
D03*
Y347953D02*
D03*
D151*
X223937Y381968D02*
D03*
Y347953D02*
D03*
D152*
X216535Y239173D02*
D03*
D153*
X238583D02*
D03*
D154*
X214173Y259055D02*
D03*
X233071D02*
D03*
X214173Y219291D02*
D03*
X233071D02*
D03*
D155*
X251850Y206850D02*
D03*
X256850Y396850D02*
D03*
X456850Y336850D02*
D03*
Y226850D02*
D03*
D156*
X246850Y226181D02*
D03*
Y222993D02*
D03*
X231102Y200394D02*
D03*
X372612Y344265D02*
D03*
X448819Y233071D02*
D03*
X442126D02*
D03*
X427953Y238036D02*
D03*
X427559Y242520D02*
D03*
X435039Y241339D02*
D03*
X287402Y322835D02*
D03*
X209646Y201870D02*
D03*
X244094Y355512D02*
D03*
X246063Y336614D02*
D03*
X234646Y351969D02*
D03*
X237795Y365354D02*
D03*
X262992Y304724D02*
D03*
X269291Y301969D02*
D03*
X263976Y318307D02*
D03*
X273228Y328740D02*
D03*
X262992Y345079D02*
D03*
X355315Y357480D02*
D03*
X373546Y288372D02*
D03*
X445669Y227559D02*
D03*
X441732Y305512D02*
D03*
X445053Y305503D02*
D03*
X400886Y279921D02*
D03*
X383858D02*
D03*
X404449Y263504D02*
D03*
X395276Y250000D02*
D03*
X398006Y252730D02*
D03*
X398622Y296850D02*
D03*
X306102Y350197D02*
D03*
Y354528D02*
D03*
X431102Y227559D02*
D03*
X416535Y227559D02*
D03*
X401968Y227559D02*
D03*
X387402D02*
D03*
X319882Y240158D02*
D03*
X423819Y307087D02*
D03*
X432677Y364173D02*
D03*
X434055Y338779D02*
D03*
Y341732D02*
D03*
X434055Y350197D02*
D03*
Y347244D02*
D03*
X379800Y315476D02*
D03*
X386811Y383465D02*
D03*
X382874Y377756D02*
D03*
X394685Y328937D02*
D03*
X384646Y342520D02*
D03*
X402362Y325197D02*
D03*
X418504Y325984D02*
D03*
X416142Y336614D02*
D03*
X281988Y290256D02*
D03*
Y286516D02*
D03*
X341339Y341339D02*
D03*
X355906Y339567D02*
D03*
X344882Y341535D02*
D03*
X296654Y345079D02*
D03*
X305118Y365354D02*
D03*
X305906Y373622D02*
D03*
X321161Y362185D02*
D03*
X300886Y345079D02*
D03*
X270866Y246654D02*
D03*
X274016D02*
D03*
X274016Y228543D02*
D03*
X270866D02*
D03*
X252756Y344488D02*
D03*
X302756Y376378D02*
D03*
X329134Y379528D02*
D03*
X355906Y403937D02*
D03*
X391732Y377953D02*
D03*
X395669D02*
D03*
X248819Y349410D02*
D03*
X357283Y377756D02*
D03*
X341339Y331890D02*
D03*
X269291Y284646D02*
D03*
X247244Y364173D02*
D03*
X322835Y353937D02*
D03*
X311083Y372185D02*
D03*
X305118Y361221D02*
D03*
X372835Y314961D02*
D03*
X330709Y366142D02*
D03*
X333071Y379528D02*
D03*
X360115Y332556D02*
D03*
X328740Y331496D02*
D03*
X288583Y272441D02*
D03*
Y268898D02*
D03*
X281890Y279134D02*
D03*
X371260Y303642D02*
D03*
X375590Y319291D02*
D03*
X373031Y310039D02*
D03*
X334646Y230807D02*
D03*
X324803D02*
D03*
X309449Y235236D02*
D03*
X312402Y238189D02*
D03*
X312300Y251624D02*
D03*
X324549Y245500D02*
D03*
X385925Y242520D02*
D03*
X349047Y245500D02*
D03*
X361296Y245499D02*
D03*
X381102Y292126D02*
D03*
X296654Y249606D02*
D03*
X346457Y299213D02*
D03*
Y303150D02*
D03*
Y307087D02*
D03*
Y311024D02*
D03*
Y314961D02*
D03*
X361296Y263873D02*
D03*
X334646Y227165D02*
D03*
X329724Y230807D02*
D03*
X319882Y230807D02*
D03*
X336798Y245500D02*
D03*
X361220Y275984D02*
D03*
X428543Y379921D02*
D03*
X403543Y364961D02*
D03*
X401575Y353740D02*
D03*
X291732Y259055D02*
D03*
X419882Y336417D02*
D03*
X409055Y231102D02*
D03*
X400787Y273228D02*
D03*
X404449Y276496D02*
D03*
X422835Y336417D02*
D03*
X410236Y309449D02*
D03*
X416142Y352362D02*
D03*
X400591Y348819D02*
D03*
X306162Y266922D02*
D03*
X305728Y221850D02*
D03*
X391732Y218110D02*
D03*
X296082Y221850D02*
D03*
X292894D02*
D03*
X287795Y227165D02*
D03*
X435433Y218110D02*
D03*
X420866D02*
D03*
X406299Y218110D02*
D03*
X229528Y374410D02*
D03*
X374410Y380709D02*
D03*
X404528Y282953D02*
D03*
X390551Y361221D02*
D03*
X383465Y300787D02*
D03*
X383858Y276575D02*
D03*
X375590Y237402D02*
D03*
X373545Y282247D02*
D03*
X399606Y368110D02*
D03*
X416437Y361417D02*
D03*
X405118Y333268D02*
D03*
X379134Y380709D02*
D03*
X326772Y357874D02*
D03*
X306162Y276415D02*
D03*
X330674Y269998D02*
D03*
X336798Y263874D02*
D03*
X373545Y245499D02*
D03*
X336798Y251624D02*
D03*
X373545Y251624D02*
D03*
X324549Y251624D02*
D03*
X373563Y263891D02*
D03*
X373545Y269998D02*
D03*
X361296Y282247D02*
D03*
X349047Y276123D02*
D03*
X330674Y276123D02*
D03*
X349047Y263873D02*
D03*
X361296Y257749D02*
D03*
X355172Y276122D02*
D03*
X367421Y276122D02*
D03*
X367421Y282247D02*
D03*
X331563Y292323D02*
D03*
X343634Y277712D02*
D03*
X314195Y292323D02*
D03*
X336798Y288372D02*
D03*
X318425Y269998D02*
D03*
X330674Y257749D02*
D03*
X330674Y263874D02*
D03*
X349047Y288372D02*
D03*
X312300Y288372D02*
D03*
X324549Y288372D02*
D03*
X349047Y251624D02*
D03*
X324549Y257749D02*
D03*
X312300Y269998D02*
D03*
X355172Y288372D02*
D03*
X361811Y292323D02*
D03*
X361296Y251624D02*
D03*
X336798Y257749D02*
D03*
X330674Y282247D02*
D03*
X324549Y269998D02*
D03*
X318425Y282247D02*
D03*
X342923Y273060D02*
D03*
X312300Y276123D02*
D03*
X355883Y283836D02*
D03*
X361297Y288372D02*
D03*
X302559Y221850D02*
D03*
X312402Y235236D02*
D03*
X328346Y306299D02*
D03*
X344488Y229331D02*
D03*
X372441Y227559D02*
D03*
X309449Y238189D02*
D03*
X272441Y237598D02*
D03*
X270472Y240158D02*
D03*
X274410D02*
D03*
Y235039D02*
D03*
X270472D02*
D03*
X325197Y322441D02*
D03*
X310039Y354331D02*
D03*
X291732Y366142D02*
D03*
X299803Y359252D02*
D03*
X256280Y239369D02*
D03*
X259468D02*
D03*
X446654Y309055D02*
D03*
X340551Y229331D02*
D03*
X252756Y354331D02*
D03*
X328346Y311811D02*
D03*
X372047Y237402D02*
D03*
X283465Y227165D02*
D03*
X278740Y221654D02*
D03*
X246850Y230867D02*
D03*
Y234055D02*
D03*
X281890Y269488D02*
D03*
Y266535D02*
D03*
Y272638D02*
D03*
Y275590D02*
D03*
X362205Y218110D02*
D03*
X348425Y388976D02*
D03*
X344094Y388976D02*
D03*
X269488Y314764D02*
D03*
X273622Y301398D02*
D03*
X273031Y318307D02*
D03*
X265945Y322638D02*
D03*
X428937Y352559D02*
D03*
X425984D02*
D03*
X428543Y368110D02*
D03*
X419882Y372244D02*
D03*
X405905Y353740D02*
D03*
X409449Y293307D02*
D03*
X412992Y296457D02*
D03*
X440158Y316929D02*
D03*
X444095Y311811D02*
D03*
X344488Y345276D02*
D03*
X361221Y383465D02*
D03*
X410906Y282953D02*
D03*
X417402D02*
D03*
X423898Y282953D02*
D03*
Y276496D02*
D03*
Y270000D02*
D03*
Y263504D02*
D03*
X417441D02*
D03*
X410945Y263504D02*
D03*
X404449Y270000D02*
D03*
X410945D02*
D03*
X417441D02*
D03*
Y276496D02*
D03*
X410945Y276496D02*
D03*
X401181Y333071D02*
D03*
X384646Y338779D02*
D03*
X377756Y333661D02*
D03*
X372835Y321654D02*
D03*
X377559Y337402D02*
D03*
X464173Y326772D02*
D03*
X350394Y320866D02*
D03*
X377165Y218110D02*
D03*
X383071Y367717D02*
D03*
X378346Y367717D02*
D03*
X375197Y367717D02*
D03*
X370472D02*
D03*
X371260Y380709D02*
D03*
X364173Y377953D02*
D03*
X366535Y380709D02*
D03*
X416142Y382283D02*
D03*
X366929Y338583D02*
D03*
X370079Y341339D02*
D03*
X374016D02*
D03*
X368110Y334646D02*
D03*
X332677Y357185D02*
D03*
X332677Y352185D02*
D03*
X357480Y342913D02*
D03*
Y345866D02*
D03*
Y348819D02*
D03*
X448374Y305494D02*
D03*
X451695Y305486D02*
D03*
X455017Y305477D02*
D03*
X458338Y305468D02*
D03*
X461659Y305460D02*
D03*
X464980Y305451D02*
D03*
Y241006D02*
D03*
X461659Y240997D02*
D03*
X458338Y240988D02*
D03*
X455017Y240980D02*
D03*
X451695Y240971D02*
D03*
X448374Y240962D02*
D03*
X445053Y240954D02*
D03*
X437598Y303937D02*
D03*
X434252Y303937D02*
D03*
X438583Y296654D02*
D03*
Y293307D02*
D03*
Y289961D02*
D03*
Y286614D02*
D03*
Y283268D02*
D03*
Y279921D02*
D03*
Y276575D02*
D03*
Y273228D02*
D03*
Y269882D02*
D03*
X438583Y266535D02*
D03*
X438583Y263189D02*
D03*
Y259842D02*
D03*
Y256496D02*
D03*
Y253150D02*
D03*
X438591Y249829D02*
D03*
X441732Y240945D02*
D03*
X430905Y242520D02*
D03*
X450000Y309055D02*
D03*
Y314173D02*
D03*
Y319291D02*
D03*
Y324410D02*
D03*
X409449Y287402D02*
D03*
X412992Y290158D02*
D03*
X428740Y296850D02*
D03*
X422835D02*
D03*
M02*
