G04*
G04 #@! TF.GenerationSoftware,Altium Limited,Altium Designer,23.3.1 (30)*
G04*
G04 Layer_Color=16711935*
%FSLAX25Y25*%
%MOIN*%
G70*
G04*
G04 #@! TF.SameCoordinates,4397C4A1-B4A0-4737-946D-6E65BF44214A*
G04*
G04*
G04 #@! TF.FilePolarity,Negative*
G04*
G01*
G75*
%ADD121R,0.06706X0.08280*%
%ADD122O,0.06706X0.08280*%
%ADD123O,0.14580X0.08674*%
%ADD124C,0.00800*%
%ADD125O,0.08674X0.06706*%
%ADD126O,0.07099X0.05721*%
G04:AMPARAMS|DCode=127|XSize=57.21mil|YSize=70.99mil|CornerRadius=16.3mil|HoleSize=0mil|Usage=FLASHONLY|Rotation=90.000|XOffset=0mil|YOffset=0mil|HoleType=Round|Shape=RoundedRectangle|*
%AMROUNDEDRECTD127*
21,1,0.05721,0.03839,0,0,90.0*
21,1,0.02461,0.07099,0,0,90.0*
1,1,0.03261,0.01919,0.01230*
1,1,0.03261,0.01919,-0.01230*
1,1,0.03261,-0.01919,-0.01230*
1,1,0.03261,-0.01919,0.01230*
%
%ADD127ROUNDEDRECTD127*%
%ADD128O,0.08268X0.04724*%
%ADD129O,0.09449X0.04724*%
%ADD130R,0.00394X0.00394*%
%ADD131O,0.08674X0.14973*%
%ADD132C,0.11430*%
%ADD133O,0.14973X0.08674*%
%ADD134C,0.13398*%
D121*
X281850Y366850D02*
D03*
X232850Y396850D02*
D03*
X270850D02*
D03*
X376850Y396850D02*
D03*
X306850Y206850D02*
D03*
X396850D02*
D03*
X266850D02*
D03*
D122*
X271850Y366850D02*
D03*
X261850D02*
D03*
X261850Y356850D02*
D03*
X271850D02*
D03*
X281850D02*
D03*
X242850Y396850D02*
D03*
X310850D02*
D03*
X290850D02*
D03*
X280850D02*
D03*
X300850D02*
D03*
X360850D02*
D03*
X320850D02*
D03*
X330850D02*
D03*
X340850Y396850D02*
D03*
X350850Y396850D02*
D03*
X416850Y396850D02*
D03*
X396850D02*
D03*
X386850D02*
D03*
X406850D02*
D03*
X426850D02*
D03*
X436850D02*
D03*
X446850Y396850D02*
D03*
X346850Y206850D02*
D03*
X326850D02*
D03*
X316850D02*
D03*
X336850D02*
D03*
X356850D02*
D03*
X366850D02*
D03*
X376850Y206850D02*
D03*
X446850Y206850D02*
D03*
X426850D02*
D03*
X406850D02*
D03*
X416850D02*
D03*
X436850D02*
D03*
X276850D02*
D03*
X286850D02*
D03*
D123*
X230827Y337106D02*
D03*
Y273130D02*
D03*
D124*
X217323Y330118D02*
D03*
Y280118D02*
D03*
X203543Y239173D02*
D03*
D125*
X253307Y332126D02*
D03*
Y323110D02*
D03*
Y287126D02*
D03*
Y278110D02*
D03*
D126*
X227323Y315079D02*
D03*
X234331Y319173D02*
D03*
X227323Y307047D02*
D03*
X234331Y311063D02*
D03*
X227323Y299016D02*
D03*
X234331Y303031D02*
D03*
Y295000D02*
D03*
D127*
X227323Y290984D02*
D03*
D128*
X207480Y381968D02*
D03*
Y347953D02*
D03*
D129*
X223937Y381968D02*
D03*
Y347953D02*
D03*
D130*
X221969Y376339D02*
D03*
Y353583D02*
D03*
D131*
X216535Y239173D02*
D03*
D132*
X238583D02*
D03*
D133*
X214173Y259055D02*
D03*
X233071D02*
D03*
X214173Y219291D02*
D03*
X233071D02*
D03*
D134*
X251850Y206850D02*
D03*
X256850Y396850D02*
D03*
X456850Y336850D02*
D03*
Y226850D02*
D03*
M02*
