M48
;Layer_Color=9474304
;FILE_FORMAT=2:4
INCH,LZ
;TYPE=PLATED
T2F00S00C0.0236
T3F00S00C0.0315
T5F00S00C0.0354
;TYPE=NON_PLATED
%
G90
G05
T02
G00X020591Y034795
M15
G01X020906
M16
G00X02261Y034795
M15
G01X022177
M16
G00X02261Y038197
M15
G01X022177
M16
G00X020906Y038197
M15
G01X020591
M16
T03
G00X02122Y021929
M15
G01X021614
M16
G00X02311Y021929
M15
G01X023504
M16
G00X021654Y02372
M15
G01Y024114
M16
G00X02122Y025906
M15
G01X021614
M16
G00X02311Y025906
M15
G01X023504
M16
T05
G00X022827Y027313
M15
G01X023339
M16
G00X022827Y033711
M15
G01X023339
M16
M17
M30
