G04*
G04 #@! TF.GenerationSoftware,Altium Limited,Altium Designer,23.3.1 (30)*
G04*
G04 Layer_Color=65535*
%FSLAX25Y25*%
%MOIN*%
G70*
G04*
G04 #@! TF.SameCoordinates,635F8F13-06B7-4B74-B609-E5844613821D*
G04*
G04*
G04 #@! TF.FilePolarity,Positive*
G04*
G01*
G75*
%ADD10C,0.00984*%
%ADD11C,0.01968*%
%ADD12C,0.00394*%
%ADD13C,0.00787*%
%ADD14C,0.01000*%
%ADD15R,0.06299X0.00787*%
%ADD16R,0.11417X0.02756*%
%ADD17R,0.07874X0.03937*%
%ADD18R,0.02756X0.02756*%
%ADD19R,0.02756X0.02756*%
%ADD20R,0.04134X0.04134*%
G36*
X253888Y257087D02*
X257136Y252756D01*
X260384Y257087D01*
X253888Y257087D01*
D02*
G37*
G36*
X266929Y200000D02*
X264976Y196875D01*
X268882D01*
X266929Y200000D01*
D02*
G37*
G36*
X320866Y215393D02*
Y217678D01*
X322866Y216535D01*
X320866Y215393D01*
D02*
G37*
G36*
X303150Y340551D02*
X303236Y340551D01*
X303407Y340544D01*
X303578Y340529D01*
X303749Y340506D01*
X303918Y340476D01*
X304086Y340439D01*
X304252Y340395D01*
X304415Y340343D01*
X304577Y340284D01*
X304736Y340219D01*
X304891Y340146D01*
X305044Y340067D01*
X305192Y339981D01*
X305337Y339888D01*
X305478Y339790D01*
X305614Y339685D01*
X305746Y339575D01*
X305873Y339459D01*
X305994Y339337D01*
X306110Y339211D01*
X306221Y339079D01*
X306325Y338943D01*
X306424Y338802D01*
X306516Y338657D01*
X306602Y338508D01*
X306681Y338356D01*
X306754Y338200D01*
X306820Y338041D01*
X306878Y337880D01*
X306930Y337716D01*
X306975Y337550D01*
X307012Y337382D01*
X307042Y337213D01*
X307064Y337043D01*
X307079Y336872D01*
X307086Y336700D01*
X307086Y336614D01*
X307087Y336614D01*
X307087Y301181D01*
X307087Y301095D01*
X307079Y300923D01*
X307064Y300752D01*
X307042Y300582D01*
X307012Y300413D01*
X306975Y300245D01*
X306930Y300079D01*
X306878Y299915D01*
X306820Y299754D01*
X306754Y299595D01*
X306681Y299439D01*
X306602Y299287D01*
X306516Y299138D01*
X306424Y298993D01*
X306325Y298852D01*
X306221Y298716D01*
X306110Y298585D01*
X305994Y298458D01*
X305873Y298337D01*
X305746Y298220D01*
X305614Y298110D01*
X305478Y298005D01*
X305337Y297907D01*
X305192Y297814D01*
X305044Y297729D01*
X304891Y297649D01*
X304736Y297577D01*
X304577Y297511D01*
X304415Y297452D01*
X304252Y297400D01*
X304086Y297356D01*
X303918Y297319D01*
X303749Y297289D01*
X303578Y297267D01*
X303407Y297252D01*
X303236Y297244D01*
X303150Y297244D01*
X287316D01*
X287144Y297252D01*
X286973Y297267D01*
X286803Y297289D01*
X286633Y297319D01*
X286466Y297356D01*
X286300Y297400D01*
X286136Y297452D01*
X285974Y297511D01*
X285816Y297577D01*
X285660Y297649D01*
X285507Y297729D01*
X285359Y297814D01*
X285214Y297907D01*
X285073Y298005D01*
X284937Y298110D01*
X284805Y298220D01*
X284678Y298337D01*
X284557Y298458D01*
X284441Y298585D01*
X284330Y298716D01*
X284226Y298853D01*
X284127Y298993D01*
X284035Y299138D01*
X283949Y299287D01*
X283870Y299439D01*
X283797Y299595D01*
X283731Y299754D01*
X283673Y299915D01*
X283621Y300079D01*
X283576Y300245D01*
X283539Y300413D01*
X283509Y300582D01*
X283487Y300752D01*
X283472Y300923D01*
X283465Y301095D01*
Y301181D01*
X283465Y301181D01*
Y336614D01*
X283465Y336700D01*
X283472Y336872D01*
X283487Y337043D01*
X283509Y337213D01*
X283539Y337382D01*
X283576Y337550D01*
X283621Y337716D01*
X283673Y337880D01*
X283731Y338041D01*
X283797Y338200D01*
X283870Y338356D01*
X283949Y338508D01*
X284035Y338657D01*
X284127Y338802D01*
X284226Y338943D01*
X284330Y339079D01*
X284441Y339211D01*
X284557Y339337D01*
X284678Y339459D01*
X284805Y339575D01*
X284937Y339685D01*
X285073Y339790D01*
X285214Y339888D01*
X285359Y339981D01*
X285507Y340067D01*
X285660Y340146D01*
X285816Y340219D01*
X285974Y340284D01*
X286136Y340343D01*
X286300Y340395D01*
X286466Y340439D01*
X286633Y340476D01*
X286803Y340506D01*
X286973Y340529D01*
X287144Y340544D01*
X287316Y340551D01*
X287402Y340551D01*
X287402Y340551D01*
X303150Y340551D01*
D02*
G37*
G36*
X309842Y293307D02*
X305906D01*
Y293307D01*
X309842Y297244D01*
Y293307D01*
D02*
G37*
G36*
X296900Y279331D02*
X293652Y283661D01*
X300148Y283661D01*
X296900Y279331D01*
D02*
G37*
G36*
X232850Y403725D02*
X230897Y406850D01*
X234804D01*
X232850Y403725D01*
D02*
G37*
G36*
X291535Y385865D02*
X289535Y387008D01*
X291535Y388151D01*
Y385865D01*
D02*
G37*
G36*
X276969Y369724D02*
X276732D01*
X275669Y371850D01*
X278031D01*
X276969Y369724D01*
D02*
G37*
G36*
X266968D02*
X266732D01*
X265669Y371850D01*
X268032D01*
X266968Y369724D01*
D02*
G37*
G36*
X278031Y351850D02*
X275669D01*
X276732Y353976D01*
X276969D01*
X278031Y351850D01*
D02*
G37*
G36*
X268032D02*
X265669D01*
X266732Y353976D01*
X266968D01*
X268032Y351850D01*
D02*
G37*
G36*
X284252Y346457D02*
X279528D01*
X281890Y350787D01*
X284252Y346457D01*
D02*
G37*
G36*
X379780Y341402D02*
X375528Y341402D01*
X375528Y341402D01*
X375477Y341401D01*
X375376Y341393D01*
X375276Y341378D01*
X375178Y341355D01*
X375081Y341325D01*
X374987Y341287D01*
X374896Y341243D01*
X374808Y341192D01*
X374725Y341134D01*
X374646Y341070D01*
X374573Y341001D01*
X374505Y340926D01*
X374442Y340846D01*
X374386Y340762D01*
X374337Y340673D01*
X374294Y340581D01*
X374258Y340487D01*
X374230Y340389D01*
X374209Y340290D01*
X374195Y340190D01*
X374192Y340140D01*
X374192Y340096D01*
X374198Y340008D01*
X374209Y339922D01*
X374226Y339836D01*
X374249Y339752D01*
X374277Y339669D01*
X374311Y339588D01*
X374349Y339510D01*
X374393Y339434D01*
X374442Y339361D01*
X374495Y339292D01*
X374553Y339226D01*
X374614Y339164D01*
X374680Y339106D01*
X374749Y339053D01*
X374822Y339005D01*
X374898Y338961D01*
X374976Y338922D01*
X375057Y338889D01*
X375140Y338861D01*
X375224Y338838D01*
X375310Y338821D01*
X375397Y338809D01*
X375484Y338804D01*
X375528Y338803D01*
X379780D01*
Y337819D01*
X375528D01*
X375460Y337819D01*
X375325Y337826D01*
X375190Y337841D01*
X375057Y337864D01*
X374924Y337894D01*
X374794Y337931D01*
X374666Y337975D01*
X374541Y338026D01*
X374418Y338085D01*
X374300Y338150D01*
X374184Y338221D01*
X374074Y338299D01*
X373967Y338383D01*
X373865Y338472D01*
X373769Y338567D01*
X373678Y338668D01*
X373592Y338773D01*
X373513Y338882D01*
X373440Y338997D01*
X373373Y339114D01*
X373313Y339236D01*
X373260Y339360D01*
X373213Y339488D01*
X373174Y339617D01*
X373142Y339749D01*
X373118Y339882D01*
X373101Y340017D01*
X373091Y340152D01*
X373090Y340220D01*
X373093Y340286D01*
X373107Y340418D01*
X373128Y340549D01*
X373155Y340679D01*
X373190Y340807D01*
X373232Y340933D01*
X373281Y341057D01*
X373336Y341178D01*
X373397Y341295D01*
X373465Y341409D01*
X373539Y341519D01*
X373619Y341625D01*
X373705Y341727D01*
X373796Y341824D01*
X373892Y341915D01*
X373993Y342001D01*
X374098Y342082D01*
X374208Y342157D01*
X374322Y342226D01*
X374439Y342288D01*
X374559Y342344D01*
X374683Y342393D01*
X374809Y342436D01*
X374936Y342471D01*
X375066Y342500D01*
X375197Y342522D01*
X375329Y342536D01*
X375462Y342543D01*
X375528Y342543D01*
X379780Y342543D01*
Y341402D01*
D02*
G37*
G36*
X382418Y339630D02*
X380449D01*
Y340575D01*
X382418D01*
Y339630D01*
D02*
G37*
G36*
X386184Y337813D02*
X384806D01*
X382050Y342537D01*
X383428D01*
X385531Y338904D01*
X387634Y342537D01*
X388940D01*
X386184Y337813D01*
D02*
G37*
G36*
X437598Y298622D02*
X437598Y298622D01*
X437598D01*
X437607Y298620D01*
X438318Y298486D01*
X438403Y298451D01*
X438502Y298403D01*
X438599Y298350D01*
X438693Y298291D01*
X438783Y298227D01*
X438869Y298158D01*
X438951Y298084D01*
X439029Y298006D01*
X439103Y297924D01*
X439172Y297838D01*
X439236Y297748D01*
X439295Y297654D01*
X439348Y297557D01*
X439396Y297458D01*
X439438Y297356D01*
X439475Y297252D01*
X439505Y297145D01*
X439530Y297038D01*
X439548Y296929D01*
X439561Y296819D01*
X439567Y296709D01*
X439567Y296654D01*
X439567Y249803D01*
X439567Y249803D01*
X439567Y249748D01*
X439561Y249638D01*
X439548Y249528D01*
X439530Y249419D01*
X439505Y249311D01*
X439475Y249205D01*
X439438Y249101D01*
X439396Y248999D01*
X439348Y248899D01*
X439295Y248803D01*
X439236Y248709D01*
X439172Y248619D01*
X439103Y248533D01*
X439029Y248450D01*
X438951Y248372D01*
X438869Y248299D01*
X438783Y248230D01*
X438693Y248166D01*
X438599Y248107D01*
X438502Y248054D01*
X438403Y248006D01*
X438301Y247963D01*
X438196Y247927D01*
X438090Y247896D01*
X437983Y247872D01*
X437874Y247853D01*
X437764Y247841D01*
X437654Y247835D01*
X390693D01*
X390582Y247841D01*
X390473Y247853D01*
X390364Y247872D01*
X390256Y247896D01*
X390150Y247927D01*
X390046Y247963D01*
X389944Y248006D01*
X389844Y248054D01*
X389748Y248107D01*
X389654Y248166D01*
X389564Y248230D01*
X389477Y248299D01*
X389395Y248372D01*
X389317Y248450D01*
X389243Y248533D01*
X389175Y248619D01*
X389111Y248709D01*
X389052Y248803D01*
X388998Y248899D01*
X388950Y248999D01*
X388908Y249101D01*
X388872Y249205D01*
X388841Y249311D01*
X388817Y249419D01*
X388798Y249528D01*
X388786Y249638D01*
X388779Y249748D01*
X388779Y249803D01*
Y296653D01*
X388779Y296709D01*
X388786Y296819D01*
X388798Y296929D01*
X388817Y297038D01*
X388841Y297145D01*
X388872Y297252D01*
X388908Y297356D01*
X388950Y297458D01*
X388998Y297557D01*
X389052Y297654D01*
X389111Y297748D01*
X389175Y297838D01*
X389243Y297924D01*
X389317Y298006D01*
X389395Y298084D01*
X389477Y298158D01*
X389564Y298227D01*
X389654Y298291D01*
X389747Y298350D01*
X389844Y298403D01*
X389944Y298451D01*
X390046Y298493D01*
X390150Y298530D01*
X390256Y298560D01*
X390364Y298585D01*
X390473Y298604D01*
X390582Y298616D01*
X390693Y298622D01*
X390748Y298622D01*
X437598Y298622D01*
X437598Y298622D01*
D02*
G37*
G36*
X362026Y342536D02*
X362073Y342535D01*
X362169Y342527D01*
X362263Y342513D01*
X362357Y342493D01*
X362449Y342467D01*
X362539Y342435D01*
X362627Y342397D01*
X362712Y342353D01*
X362794Y342304D01*
X362873Y342249D01*
X362948Y342190D01*
X363019Y342126D01*
X363085Y342057D01*
X363147Y341984D01*
X363204Y341907D01*
X363256Y341827D01*
X363303Y341743D01*
X363344Y341657D01*
X363379Y341568D01*
X363408Y341477D01*
X363431Y341384D01*
X363448Y341290D01*
X363459Y341195D01*
X363464Y341099D01*
X363463Y341051D01*
X363463Y341051D01*
X363463Y341008D01*
X363458Y340922D01*
X363447Y340836D01*
X363430Y340752D01*
X363407Y340668D01*
X363380Y340586D01*
X363347Y340506D01*
X363308Y340429D01*
X363265Y340354D01*
X363217Y340282D01*
X363164Y340213D01*
X363107Y340149D01*
X363046Y340087D01*
X362981Y340031D01*
X362913Y339978D01*
X362841Y339930D01*
X362766Y339887D01*
X362689Y339848D01*
X362609Y339815D01*
X362527Y339788D01*
X362443Y339765D01*
X362359Y339749D01*
X362273Y339737D01*
X362187Y339732D01*
X362144Y339732D01*
D01*
X362144D01*
X362144D01*
X363402Y337855D01*
X362026D01*
X360843Y339697D01*
X357762D01*
Y337896D01*
X356729D01*
Y342536D01*
X362026Y342536D01*
D02*
G37*
G36*
X365213Y337858D02*
X364189D01*
Y342543D01*
X365213D01*
Y337858D01*
D02*
G37*
G36*
X372615Y341441D02*
X367339D01*
X367339Y341441D01*
X367313Y341440D01*
X367262Y341433D01*
X367212Y341420D01*
X367165Y341400D01*
X367120Y341374D01*
X367079Y341343D01*
X367043Y341307D01*
X367012Y341266D01*
X366986Y341221D01*
X366966Y341174D01*
X366953Y341124D01*
X366946Y341073D01*
X366945Y341047D01*
X366946Y341024D01*
X366952Y340978D01*
X366964Y340933D01*
X366982Y340890D01*
X367005Y340850D01*
X367033Y340813D01*
X367066Y340781D01*
X367103Y340753D01*
X367143Y340729D01*
X367186Y340712D01*
X367231Y340700D01*
X367277Y340694D01*
X367300Y340693D01*
X371473D01*
X371473Y340693D01*
X371519Y340693D01*
X371612Y340686D01*
X371704Y340671D01*
X371794Y340649D01*
X371882Y340621D01*
X371968Y340585D01*
X372050Y340543D01*
X372130Y340494D01*
X372205Y340440D01*
X372275Y340380D01*
X372341Y340314D01*
X372401Y340244D01*
X372456Y340168D01*
X372504Y340089D01*
X372546Y340007D01*
X372582Y339921D01*
X372610Y339833D01*
X372632Y339742D01*
X372647Y339651D01*
X372654Y339558D01*
X372654Y339512D01*
X372654Y339039D01*
X372654Y339039D01*
X372654Y338991D01*
X372646Y338896D01*
X372631Y338801D01*
X372609Y338708D01*
X372579Y338616D01*
X372543Y338528D01*
X372499Y338442D01*
X372449Y338361D01*
X372393Y338283D01*
X372330Y338210D01*
X372263Y338142D01*
X372190Y338080D01*
X372112Y338024D01*
X372030Y337974D01*
X371945Y337930D01*
X371856Y337893D01*
X371765Y337864D01*
X371672Y337841D01*
X371577Y337826D01*
X371481Y337819D01*
X371433Y337819D01*
X365882D01*
Y338803D01*
X371237D01*
X371257Y338804D01*
X371298Y338809D01*
X371338Y338820D01*
X371376Y338836D01*
X371412Y338856D01*
X371444Y338881D01*
X371474Y338910D01*
X371498Y338943D01*
X371519Y338979D01*
X371535Y339017D01*
X371546Y339057D01*
X371551Y339097D01*
X371552Y339118D01*
X371552Y339276D01*
X371552Y339276D01*
X371551Y339296D01*
X371546Y339337D01*
X371535Y339377D01*
X371519Y339415D01*
X371498Y339451D01*
X371474Y339483D01*
X371444Y339512D01*
X371412Y339537D01*
X371376Y339558D01*
X371338Y339574D01*
X371298Y339584D01*
X371257Y339590D01*
X371237Y339591D01*
X367103Y339591D01*
X367103D01*
X367055Y339591D01*
X366959Y339598D01*
X366864Y339613D01*
X366771Y339635D01*
X366680Y339665D01*
X366591Y339702D01*
X366506Y339745D01*
X366424Y339795D01*
X366347Y339852D01*
X366274Y339914D01*
X366206Y339982D01*
X366144Y340055D01*
X366087Y340132D01*
X366037Y340214D01*
X365994Y340300D01*
X365957Y340388D01*
X365927Y340479D01*
X365905Y340573D01*
X365890Y340667D01*
X365882Y340763D01*
X365882Y340811D01*
Y341323D01*
X365882Y341323D01*
X365882Y341371D01*
X365890Y341466D01*
X365905Y341561D01*
X365927Y341654D01*
X365957Y341745D01*
X365993Y341834D01*
X366037Y341919D01*
X366087Y342001D01*
X366144Y342079D01*
X366206Y342152D01*
X366274Y342220D01*
X366347Y342282D01*
X366424Y342338D01*
X366506Y342388D01*
X366591Y342432D01*
X366680Y342469D01*
X366771Y342498D01*
X366864Y342521D01*
X366959Y342536D01*
X367055Y342543D01*
X367103Y342543D01*
X372615Y342543D01*
Y341441D01*
D02*
G37*
G36*
X381853Y358037D02*
X373280Y346082D01*
X368806Y351325D01*
X368904Y351337D01*
X369101Y351368D01*
X369296Y351406D01*
X369489Y351451D01*
X369681Y351503D01*
X369871Y351562D01*
X370058Y351628D01*
X370243Y351700D01*
X370426Y351779D01*
X370605Y351865D01*
X370781Y351957D01*
X370953Y352055D01*
X371123Y352160D01*
X371288Y352270D01*
X371449Y352387D01*
X371605Y352509D01*
X371758Y352637D01*
X371905Y352770D01*
X372048Y352908D01*
X372185Y353051D01*
X372317Y353200D01*
X372444Y353353D01*
X372565Y353510D01*
X372681Y353672D01*
X372790Y353838D01*
X372894Y354007D01*
X372991Y354181D01*
X373082Y354357D01*
X373166Y354537D01*
X373244Y354720D01*
X373315Y354905D01*
X373380Y355093D01*
X373438Y355283D01*
X373488Y355475D01*
X373532Y355669D01*
X373569Y355865D01*
X373599Y356061D01*
X373621Y356258D01*
X373637Y356456D01*
X373645Y356655D01*
X373647Y356754D01*
X373647D01*
X373655Y356852D01*
X373668Y357049D01*
X373674Y357245D01*
X373672Y357442D01*
X373664Y357638D01*
X373649Y357835D01*
X373627Y358030D01*
X373599Y358225D01*
X373563Y358418D01*
X373521Y358610D01*
X373472Y358801D01*
X373417Y358989D01*
X373355Y359176D01*
X373286Y359360D01*
X373212Y359542D01*
X373130Y359721D01*
X373043Y359898D01*
X372950Y360071D01*
X372850Y360240D01*
X372745Y360406D01*
X372634Y360569D01*
X372517Y360727D01*
X372395Y360881D01*
X372268Y361031D01*
X372135Y361176D01*
X371997Y361317D01*
X371855Y361453D01*
X371708Y361583D01*
X371556Y361709D01*
X371401Y361829D01*
X371241Y361944D01*
X371077Y362052D01*
X370910Y362156D01*
X370739Y362253D01*
X370564Y362344D01*
X370387Y362429D01*
X370207Y362508D01*
X370024Y362580D01*
X369839Y362646D01*
X369651Y362706D01*
X369462Y362759D01*
X369271Y362805D01*
X369078Y362845D01*
X368884Y362877D01*
X368787Y362891D01*
X368787Y362891D01*
X381853D01*
Y358037D01*
D02*
G37*
G36*
X367878Y360240D02*
X368039Y360224D01*
X368199Y360200D01*
X368358Y360169D01*
X368515Y360129D01*
X368670Y360082D01*
X368822Y360028D01*
X368972Y359966D01*
X369118Y359897D01*
X369261Y359820D01*
X369400Y359737D01*
X369534Y359647D01*
X369664Y359551D01*
X369789Y359448D01*
X369909Y359340D01*
X370024Y359225D01*
X370132Y359105D01*
X370235Y358980D01*
X370331Y358850D01*
X370421Y358716D01*
X370504Y358577D01*
X370581Y358434D01*
X370650Y358288D01*
X370712Y358138D01*
X370766Y357986D01*
X370813Y357831D01*
X370853Y357674D01*
X370884Y357516D01*
X370908Y357355D01*
X370924Y357194D01*
X370932Y357033D01*
Y356952D01*
Y356874D01*
X370924Y356718D01*
X370909Y356563D01*
X370886Y356409D01*
X370855Y356256D01*
X370818Y356104D01*
X370772Y355955D01*
X370720Y355808D01*
X370660Y355664D01*
X370593Y355523D01*
X370520Y355385D01*
X370440Y355252D01*
X370353Y355122D01*
X370260Y354997D01*
X370161Y354876D01*
X370056Y354761D01*
X369946Y354650D01*
X369830Y354545D01*
X369710Y354447D01*
X369585Y354354D01*
X369455Y354267D01*
X369321Y354187D01*
X369184Y354113D01*
X369043Y354047D01*
X368899Y353987D01*
X368752Y353934D01*
X368602Y353889D01*
X368451Y353851D01*
X368298Y353821D01*
X368144Y353798D01*
X367989Y353783D01*
X367833Y353775D01*
X367710D01*
X364342Y353744D01*
X364335Y352572D01*
X371034Y344457D01*
X371031Y344459D01*
X363260D01*
Y360235D01*
X363264Y360239D01*
X367564Y360248D01*
X367717D01*
X367878Y360240D01*
D02*
G37*
G36*
X381816Y344382D02*
X375539D01*
Y344417D01*
X381816Y353240D01*
Y344382D01*
D02*
G37*
G36*
X437926Y359449D02*
X435302D01*
X436614Y361417D01*
X437926Y359449D01*
D02*
G37*
G36*
X452941Y355162D02*
X453082Y355162D01*
X453362Y355140D01*
X453639Y355096D01*
X453912Y355030D01*
X454179Y354943D01*
X454439Y354836D01*
X454689Y354708D01*
X454928Y354562D01*
X455156Y354397D01*
X455369Y354214D01*
X455568Y354015D01*
X455750Y353802D01*
X455915Y353575D01*
X456062Y353335D01*
X456190Y353085D01*
X456297Y352825D01*
X456384Y352558D01*
X456450Y352285D01*
X456493Y352008D01*
X456516Y351728D01*
X456516Y351587D01*
X456515D01*
X456516Y351448D01*
X456494Y351169D01*
X456450Y350893D01*
X456385Y350622D01*
X456298Y350356D01*
X456191Y350098D01*
X456065Y349849D01*
X455919Y349610D01*
X455754Y349384D01*
X455573Y349172D01*
X455375Y348974D01*
X455163Y348793D01*
X454937Y348628D01*
X454698Y348482D01*
X454449Y348356D01*
X454191Y348249D01*
X453926Y348162D01*
X453654Y348097D01*
X453378Y348053D01*
X453099Y348031D01*
X452959Y348031D01*
X440551D01*
Y353616D01*
X439199D01*
X439199Y353076D01*
X439098Y353177D01*
X439098Y353177D01*
X439040Y353232D01*
X438917Y353333D01*
X438785Y353421D01*
X438645Y353496D01*
X438498Y353557D01*
X438346Y353603D01*
X438191Y353634D01*
X438032Y353650D01*
X437953Y353651D01*
X437787Y353651D01*
X437787Y353651D01*
X437711Y353650D01*
X437561Y353635D01*
X437412Y353605D01*
X437267Y353561D01*
X437128Y353503D01*
X436994Y353432D01*
X436868Y353348D01*
X436751Y353252D01*
X436696Y353200D01*
X436624Y353124D01*
X436492Y352962D01*
X436376Y352789D01*
X436277Y352605D01*
X436197Y352412D01*
X436137Y352212D01*
X436096Y352007D01*
X436075Y351799D01*
X436073Y351695D01*
Y351386D01*
Y351386D01*
X436075Y351288D01*
X436095Y351092D01*
X436133Y350900D01*
X436190Y350712D01*
X436265Y350530D01*
X436357Y350357D01*
X436467Y350194D01*
X436591Y350042D01*
X436659Y349971D01*
X436721Y349912D01*
X436854Y349802D01*
X436998Y349707D01*
X437150Y349626D01*
X437309Y349560D01*
X437474Y349510D01*
X437643Y349476D01*
X437814Y349459D01*
X437900Y349457D01*
X438078D01*
X438142Y349459D01*
X438269Y349471D01*
X438395Y349496D01*
X438518Y349533D01*
X438636Y349582D01*
X438749Y349643D01*
X438856Y349714D01*
X438955Y349795D01*
X439001Y349839D01*
X439199Y350037D01*
Y348031D01*
X437956D01*
X437677Y348054D01*
X437400Y348097D01*
X437128Y348163D01*
X436861Y348249D01*
X436603Y348357D01*
X436353Y348484D01*
X436114Y348630D01*
X435887Y348795D01*
X435674Y348977D01*
X435476Y349175D01*
X435294Y349388D01*
X435130Y349614D01*
X434983Y349853D01*
X434856Y350103D01*
X434749Y350362D01*
X434662Y350628D01*
X434597Y350901D01*
X434553Y351177D01*
X434531Y351457D01*
Y351597D01*
X434531Y351737D01*
X434553Y352016D01*
X434597Y352293D01*
X434662Y352565D01*
X434749Y352832D01*
X434856Y353090D01*
X434983Y353340D01*
X435130Y353579D01*
X435294Y353805D01*
X435476Y354018D01*
X435674Y354217D01*
X435887Y354398D01*
X436114Y354563D01*
X436353Y354710D01*
X436603Y354837D01*
X436861Y354944D01*
X437128Y355030D01*
X437400Y355096D01*
X437677Y355140D01*
X437956Y355162D01*
X438096Y355162D01*
X452941Y355162D01*
X452941Y355162D01*
D02*
G37*
G36*
X438222Y352558D02*
X438545D01*
X438838Y352437D01*
X439061Y352213D01*
X439182Y351921D01*
Y351762D01*
X439191Y351389D01*
Y351215D01*
X439058Y350894D01*
X438812Y350649D01*
X438491Y350516D01*
X438142D01*
X437818Y350650D01*
X437571Y350898D01*
X437437Y351221D01*
Y351397D01*
Y351687D01*
Y351862D01*
X437571Y352185D01*
X437818Y352433D01*
X438142Y352567D01*
X438317D01*
X438222Y352558D01*
D02*
G37*
%LPC*%
G36*
X423819Y284055D02*
X423819Y284055D01*
X404528Y284055D01*
X404481Y284055D01*
X404389Y284048D01*
X404297Y284033D01*
X404207Y284012D01*
X404118Y283983D01*
X404033Y283947D01*
X403950Y283905D01*
X403871Y283857D01*
X403796Y283802D01*
X403725Y283742D01*
X403659Y283676D01*
X403599Y283606D01*
X403545Y283531D01*
X403545Y283531D01*
X403496Y283452D01*
X403496Y283452D01*
X403454Y283369D01*
X403454Y283369D01*
X403419Y283283D01*
X403418Y283283D01*
X403390Y283195D01*
X403390Y283195D01*
X403368Y283105D01*
X403368Y283104D01*
X403354Y283013D01*
X403354Y283012D01*
X403346Y282920D01*
X403346Y282874D01*
X403346Y282874D01*
X403346Y263536D01*
X403354Y263444D01*
X403368Y263352D01*
X403390Y263262D01*
X403419Y263174D01*
X403454Y263088D01*
X403496Y263005D01*
X403545Y262926D01*
X403599Y262851D01*
X403660Y262780D01*
X403725Y262715D01*
X403796Y262654D01*
X403871Y262600D01*
X403950Y262551D01*
X404033Y262509D01*
X404118Y262474D01*
X404207Y262445D01*
X404297Y262423D01*
X404389Y262409D01*
X404481Y262402D01*
X404528D01*
Y262402D01*
X423865D01*
X423958Y262409D01*
X424050Y262423D01*
X424140Y262445D01*
X424228Y262474D01*
X424314Y262509D01*
X424396Y262551D01*
X424476Y262600D01*
X424551Y262654D01*
X424621Y262715D01*
X424687Y262780D01*
X424747Y262851D01*
X424802Y262926D01*
X424850Y263005D01*
X424892Y263088D01*
X424928Y263174D01*
X424957Y263262D01*
X424978Y263352D01*
X424993Y263444D01*
X425000Y263536D01*
X425000Y263583D01*
X425000Y263583D01*
X425000Y282920D01*
X424993Y283013D01*
X424978Y283105D01*
X424957Y283195D01*
X424928Y283283D01*
X424892Y283369D01*
X424850Y283452D01*
X424802Y283531D01*
X424747Y283606D01*
X424687Y283676D01*
X424621Y283742D01*
X424551Y283802D01*
X424476Y283857D01*
X424475Y283857D01*
X424396Y283905D01*
X424396Y283905D01*
X424314Y283947D01*
X424314Y283947D01*
X424228Y283983D01*
X424228Y283983D01*
X424140Y284012D01*
X424140Y284012D01*
X424050Y284033D01*
X424049Y284033D01*
X423958Y284048D01*
X423957Y284048D01*
X423865Y284055D01*
X423820Y284055D01*
X423819Y284055D01*
X423819Y284055D01*
D02*
G37*
G36*
X362168Y341402D02*
X357811D01*
Y340653D01*
X362205D01*
X362251Y340659D01*
X362296Y340671D01*
X362339Y340689D01*
X362379Y340713D01*
X362416Y340741D01*
X362449Y340774D01*
X362477Y340810D01*
X362500Y340851D01*
X362518Y340894D01*
X362530Y340938D01*
X362536Y340985D01*
Y341008D01*
Y341034D01*
X362529Y341085D01*
X362516Y341135D01*
X362496Y341182D01*
X362470Y341227D01*
X362439Y341268D01*
X362402Y341304D01*
X362361Y341336D01*
X362317Y341362D01*
X362269Y341381D01*
X362219Y341395D01*
X362168Y341402D01*
D02*
G37*
G36*
X453760Y353648D02*
X452970D01*
X452720Y353598D01*
X452484Y353501D01*
X452273Y353359D01*
X452183Y353269D01*
X451814Y352901D01*
Y352901D01*
X451714Y352801D01*
X451557Y352566D01*
X451449Y352306D01*
X451394Y352029D01*
Y351887D01*
Y351373D01*
Y351186D01*
X451467Y350819D01*
X451610Y350474D01*
X451818Y350163D01*
X451950Y350031D01*
X452083Y349898D01*
X452394Y349690D01*
X452741Y349546D01*
X453108Y349473D01*
X453760D01*
Y350574D01*
X453740Y350554D01*
X453455D01*
X453403Y350556D01*
X453300Y350577D01*
X453203Y350617D01*
X453116Y350675D01*
X453077Y350711D01*
X452951Y350836D01*
X452905Y350888D01*
X452828Y351002D01*
X452775Y351130D01*
X452749Y351265D01*
X452745Y351334D01*
Y351800D01*
X452748Y351855D01*
X452769Y351963D01*
X452811Y352064D01*
X452873Y352156D01*
X452910Y352197D01*
X453096Y352383D01*
X453134Y352417D01*
X453218Y352474D01*
X453312Y352513D01*
X453412Y352533D01*
X453463Y352535D01*
X453760Y352522D01*
Y353648D01*
D02*
G37*
G36*
X448012Y353616D02*
X446690D01*
X445869Y350835D01*
X445056Y353616D01*
X443765D01*
X442960Y350835D01*
X442139Y353616D01*
X440764D01*
X440764Y353616D01*
X442261Y349505D01*
X443598D01*
X444388Y352043D01*
X445170Y349505D01*
X446508D01*
X448012Y353616D01*
D02*
G37*
G36*
X451127D02*
X449782D01*
Y349505D01*
X451127D01*
Y353616D01*
D02*
G37*
G36*
X449509D02*
X448164D01*
Y349505D01*
X449509D01*
X449509Y353616D01*
D02*
G37*
%LPD*%
D10*
X289075Y248130D02*
G03*
X289075Y248130I-492J0D01*
G01*
X303051Y373031D02*
G03*
X303051Y373031I-492J0D01*
G01*
X263484Y317323D02*
G03*
X263484Y317323I-492J0D01*
G01*
X337992Y348839D02*
G03*
X337992Y348839I-492J0D01*
G01*
X415748Y367126D02*
G03*
X415748Y367126I-492J0D01*
G01*
Y382874D02*
G03*
X415748Y382874I-492J0D01*
G01*
X373130Y229035D02*
G03*
X373130Y229035I-492J0D01*
G01*
X388091D02*
G03*
X388091Y229035I-492J0D01*
G01*
X402658Y229035D02*
G03*
X402658Y229035I-492J0D01*
G01*
X417224Y229035D02*
G03*
X417224Y229035I-492J0D01*
G01*
X431791Y229035D02*
G03*
X431791Y229035I-492J0D01*
G01*
X446358D02*
G03*
X446358Y229035I-492J0D01*
G01*
X397441Y332677D02*
G03*
X397441Y332677I-492J0D01*
G01*
D11*
X315945Y295276D02*
G03*
X315945Y295276I-984J0D01*
G01*
D12*
X247441Y365256D02*
G03*
X247441Y365256I-197J0D01*
G01*
D13*
X431496Y340256D02*
G03*
X431496Y340256I-394J0D01*
G01*
X402362Y322047D02*
G03*
X402364Y322090I-391J43D01*
G01*
X263583Y239961D02*
G03*
X263583Y239961I-394J0D01*
G01*
X404528Y356299D02*
Y358268D01*
X408858Y356299D02*
Y358268D01*
X235335Y209449D02*
Y209941D01*
X232382Y209449D02*
Y209941D01*
Y201969D02*
Y202756D01*
X235335Y201969D02*
Y202756D01*
X256850Y351850D02*
X286850D01*
X256850D02*
Y371850D01*
X286850D01*
Y351850D02*
Y371850D01*
X205512Y204331D02*
Y207874D01*
X223622Y204331D02*
Y207874D01*
X205512Y213189D02*
X223622D01*
X205512Y199016D02*
X223622D01*
X246161Y347933D02*
Y349705D01*
X242028Y347933D02*
Y349705D01*
X265256Y339469D02*
X267028D01*
X265256Y343602D02*
X267028D01*
X252768Y271260D02*
X258268D01*
Y276260D01*
Y332689D02*
Y338189D01*
X253268D02*
X258268D01*
X450000Y324410D02*
X450787D01*
X450000Y319291D02*
X450787D01*
X450000Y314173D02*
X450787D01*
X450000Y309055D02*
X450787D01*
X450000D02*
Y326969D01*
X430709D02*
X450000D01*
X353839Y296457D02*
Y297244D01*
X350886Y296457D02*
Y297244D01*
X307972Y229724D02*
X307972Y233661D01*
X300295Y229724D02*
Y233661D01*
X298327Y229724D02*
Y233661D01*
X290650Y229724D02*
Y233661D01*
X305512Y241732D02*
X380118D01*
Y291929D01*
X305512D02*
X380118D01*
X305512Y241732D02*
Y291929D01*
X310212Y275009D02*
X310560Y275357D01*
X308124Y277097D02*
X308472Y277445D01*
X316337Y281134D02*
X316685Y281482D01*
X314249Y283222D02*
X314597Y283570D01*
X281496Y246260D02*
X284449D01*
Y249213D01*
X266732Y246260D02*
X269685D01*
X266732D02*
Y249213D01*
X281496Y263976D02*
X284449D01*
Y261024D02*
Y263976D01*
X266732D02*
X269685D01*
X266732Y261024D02*
Y263976D01*
X301378Y250394D02*
X301870D01*
X301870Y258268D01*
X301378D02*
X301870D01*
X288976Y250394D02*
X289469D01*
X288976D02*
X288976Y258268D01*
X289469D01*
X402756Y337106D02*
X403543D01*
X402756Y334154D02*
X403543D01*
X301181Y355315D02*
X302461D01*
Y369094D01*
X301181D02*
X302461D01*
X288878Y355315D02*
X290158D01*
X288878D02*
Y369094D01*
X290158D01*
X261024Y216437D02*
X261811D01*
X261024Y219390D02*
X261811D01*
X381276Y319413D02*
Y320200D01*
X378323Y319413D02*
Y320200D01*
X212598Y383465D02*
X218504D01*
X198425Y351181D02*
Y378740D01*
Y351181D02*
X219291D01*
Y378740D01*
X198425D02*
X219291D01*
X212598Y346457D02*
X218504D01*
X197638D02*
X202362D01*
X197638Y383465D02*
X202362D01*
X321161Y333563D02*
X322933D01*
X321161Y329429D02*
X322933D01*
X320768Y308366D02*
X322539D01*
X320768Y304232D02*
X322539D01*
X433169Y313878D02*
X434941D01*
X433169Y309744D02*
X434941D01*
X269685Y273327D02*
X273622D01*
X269685Y265650D02*
X273622D01*
X244882Y244291D02*
Y260039D01*
X242126D02*
X244882D01*
Y218307D02*
Y234055D01*
X242126Y218307D02*
X244882D01*
X198031Y260039D02*
X205118D01*
X198031Y218307D02*
X205118D01*
X454331Y312697D02*
X455118D01*
X454331Y315650D02*
X455118D01*
X411811Y310335D02*
X412598D01*
X411811Y313287D02*
X412598D01*
X411811Y305610D02*
X412598D01*
X411811Y308563D02*
X412598D01*
X419095Y305610D02*
X419882D01*
X419095Y308563D02*
X419882D01*
X454331Y322933D02*
X455118D01*
X454331Y325886D02*
X455118D01*
X454331Y317815D02*
X455118D01*
X454331Y320768D02*
X455118D01*
X454331Y307579D02*
X455118D01*
X454331Y310531D02*
X455118D01*
X265256Y333169D02*
X267028D01*
X265256Y329035D02*
X267028D01*
X265256Y290059D02*
X267028D01*
X265256Y285925D02*
X267028D01*
X320866Y214764D02*
X322835Y214764D01*
X320866Y218307D02*
X322835Y218307D01*
X301083Y384646D02*
Y385433D01*
X298130Y384646D02*
Y385433D01*
X298228Y346161D02*
X299016D01*
X298228Y349114D02*
X299016D01*
X462106Y322933D02*
X462598D01*
X462106Y325886D02*
X462598D01*
X462106Y317815D02*
X462598D01*
X462106Y320768D02*
X462598D01*
X462106Y312697D02*
X462598D01*
X462106Y315650D02*
X462598D01*
X462106Y310531D02*
X462598D01*
X462106Y307579D02*
X462598D01*
X321161Y323917D02*
X322933D01*
X321161Y328051D02*
X322933D01*
X321161Y334941D02*
X322933D01*
X321161Y339075D02*
X322933D01*
X320768Y302854D02*
X322539Y302854D01*
X320768Y298721D02*
X322539D01*
X320768Y313878D02*
X322539D01*
X320768Y309744D02*
X322539Y309744D01*
X265256Y310531D02*
X267028D01*
X265256Y306398D02*
X267028D01*
X290945Y269685D02*
X291732Y269685D01*
X290945Y269685D02*
Y288583D01*
X291732Y288583D01*
X301969Y269685D02*
X302756Y269685D01*
Y288583D01*
X301969Y288583D02*
X302756Y288583D01*
X280118Y280906D02*
Y284842D01*
X272441Y280906D02*
Y284842D01*
X265256Y296161D02*
X267028D01*
X265256Y300295D02*
X267028D01*
X263779Y319685D02*
Y324902D01*
X273425Y319685D02*
Y324902D01*
X240256Y347933D02*
Y349705D01*
X236122Y347933D02*
Y349705D01*
X265256Y275295D02*
X267028D01*
X265256Y279429D02*
X267028D01*
X333071Y350000D02*
Y389370D01*
X320472Y350000D02*
Y389370D01*
Y350000D02*
X333071D01*
X320472Y389370D02*
X333071D01*
X346063Y238681D02*
X346850D01*
X346063Y235728D02*
X346850D01*
X346063Y234547D02*
X346850D01*
X346063Y231594D02*
X346850D01*
X345571Y384252D02*
Y385039D01*
X342618Y384252D02*
Y385039D01*
X349902Y384252D02*
Y385039D01*
X346949Y384252D02*
Y385039D01*
X307677Y346161D02*
X308465D01*
X307677Y349114D02*
X308465D01*
X307677Y355610D02*
X308465D01*
X307677Y358563D02*
X308465D01*
X433071Y314764D02*
X435039D01*
X433071Y319094D02*
X435039D01*
X431890Y308563D02*
X432677D01*
X431890Y305610D02*
X432677D01*
X238583Y379921D02*
X246457D01*
Y383858D01*
X238583Y379921D02*
Y383858D01*
X246457D01*
X238583Y389370D02*
X246457D01*
X238583Y385433D02*
Y389370D01*
X246457Y385433D02*
Y389370D01*
X238583Y385433D02*
X246457D01*
X229100Y402475D02*
X236600D01*
X237850Y401225D01*
X227850D02*
X229100Y402475D01*
X246600D02*
X247850Y401225D01*
X237850D02*
X239100Y402475D01*
X246600D01*
X236601Y391226D02*
X237851Y392476D01*
X227851Y392476D02*
X229101Y391226D01*
X236601D01*
X239101Y391226D02*
X246601D01*
X237851Y392476D02*
X239101Y391226D01*
X246601D02*
X247851Y392476D01*
X227850Y401225D02*
X227851Y392476D01*
X237850Y401225D02*
X237851Y392476D01*
X247850Y401225D02*
X247851Y392476D01*
X382972Y304331D02*
X465256D01*
X382972Y242126D02*
Y304331D01*
Y242126D02*
X465256D01*
Y304331D01*
X445374Y290945D02*
X462697D01*
X448130Y244882D02*
X462697D01*
Y254331D01*
X452461D02*
X462697D01*
X452461D02*
Y263779D01*
X462697D01*
Y273228D01*
X452461D02*
X462697D01*
X452461Y282677D02*
X452461Y273228D01*
X452461Y282677D02*
X462697Y282677D01*
Y300787D01*
X444587Y300787D02*
X462697Y300787D01*
X280217Y225787D02*
Y226575D01*
X277264Y225787D02*
Y226575D01*
X289272Y231299D02*
Y232087D01*
X286319Y231299D02*
Y232087D01*
X435236Y240059D02*
X436024D01*
X435236Y237106D02*
X436024D01*
X289567Y388779D02*
X291535Y388779D01*
X289567Y385236D02*
X291535Y385236D01*
X284941Y386614D02*
Y387402D01*
X281988Y386614D02*
Y387402D01*
X279035Y386614D02*
Y387402D01*
X276083Y386614D02*
Y387402D01*
X254037Y221517D02*
X256202D01*
X254035Y227658D02*
X256201D01*
X315453Y218110D02*
Y218898D01*
X312500Y218110D02*
Y218898D01*
X254037Y229391D02*
X256202D01*
X254035Y235531D02*
X256201D01*
X281988Y231299D02*
Y232087D01*
X284941Y231299D02*
Y232087D01*
X281988Y238386D02*
Y239173D01*
X284941Y238386D02*
Y239173D01*
X374508Y296457D02*
Y297244D01*
X377461Y296457D02*
Y297244D01*
X360335Y296457D02*
Y297244D01*
X363287Y296457D02*
Y297244D01*
X355610Y296457D02*
Y297244D01*
X358563Y296457D02*
Y297244D01*
X365059Y296457D02*
Y297244D01*
X368012Y296457D02*
Y297244D01*
X369783Y296457D02*
Y297244D01*
X372736Y296457D02*
Y297244D01*
X321358Y234842D02*
Y235630D01*
X318406Y234842D02*
Y235630D01*
X326279Y234842D02*
Y235630D01*
X323327Y234842D02*
Y235630D01*
X341043Y234842D02*
X341043Y235630D01*
X338090Y234842D02*
Y235630D01*
X336122Y234842D02*
Y235630D01*
X333169Y234842D02*
Y235630D01*
X432972Y369685D02*
Y370472D01*
X430020Y369685D02*
Y370472D01*
Y377559D02*
Y378346D01*
X432972Y377559D02*
Y378346D01*
X417520Y353839D02*
Y354331D01*
Y353839D02*
X425394D01*
Y354331D01*
X417520Y366240D02*
Y366732D01*
X425394D01*
Y366240D02*
Y366732D01*
X417520Y369587D02*
Y370079D01*
Y369587D02*
X425394D01*
Y370079D01*
X417520Y381988D02*
Y382480D01*
X425394D01*
Y381988D02*
Y382480D01*
X250394Y350492D02*
X250886D01*
X250394Y353445D02*
X250886D01*
X250394Y345374D02*
X250886D01*
X250394Y348327D02*
X250886D01*
X359350Y226772D02*
X359842D01*
X359350Y218898D02*
X359350Y226772D01*
X359350Y218898D02*
X359842D01*
X371752Y226772D02*
X372244D01*
X372244Y218898D02*
X372244Y226772D01*
X371752Y218898D02*
X372244D01*
X374311Y226772D02*
X374803D01*
X374311Y218898D02*
Y226772D01*
Y218898D02*
X374803D01*
X386713Y226772D02*
X387205D01*
Y218898D02*
Y226772D01*
X386713Y218898D02*
X387205D01*
X388878Y226772D02*
X389370D01*
X388878Y218898D02*
Y226772D01*
Y218898D02*
X389370D01*
X401279Y226772D02*
X401772D01*
Y218898D02*
Y226772D01*
X401279Y218898D02*
X401772D01*
X403445Y226772D02*
X403937D01*
X403445Y218898D02*
Y226772D01*
Y218898D02*
X403937D01*
X415846Y226772D02*
X416339D01*
Y218898D02*
Y226772D01*
X415846Y218898D02*
X416339D01*
X418012Y226772D02*
X418504D01*
X418012Y218898D02*
Y226772D01*
Y218898D02*
X418504D01*
X430413Y226772D02*
X430905D01*
Y218898D02*
Y226772D01*
X430413Y218898D02*
X430905D01*
X432579Y226772D02*
X433071D01*
X432579Y218898D02*
Y226772D01*
Y218898D02*
X433071D01*
X444980Y226772D02*
X445472D01*
Y218898D02*
Y226772D01*
X444980Y218898D02*
X445472D01*
X262205Y262008D02*
X262992Y262008D01*
Y243110D02*
Y262008D01*
X262205Y243110D02*
X262992Y243110D01*
X251181Y262008D02*
X251969Y262008D01*
X251181Y243110D02*
Y262008D01*
Y243110D02*
X251969Y243110D01*
X239075Y365354D02*
X245965D01*
X239075Y378346D02*
X245965D01*
X331201Y234842D02*
Y235630D01*
X328248Y234842D02*
Y235630D01*
X338747Y246474D02*
X339095Y246822D01*
X340835Y244386D02*
X341183Y244734D01*
X332622Y246474D02*
X332970Y246822D01*
X334710Y244386D02*
X335058Y244734D01*
X326498Y246474D02*
X326846Y246822D01*
X328586Y244386D02*
X328934Y244734D01*
X375494Y258723D02*
X375842Y259071D01*
X377582Y256635D02*
X377930Y256983D01*
X320373Y246474D02*
X320721Y246822D01*
X322461Y244386D02*
X322809Y244734D01*
X369370Y258723D02*
X369718Y259071D01*
X371457Y256635D02*
X371805Y256983D01*
X314249Y246474D02*
X314597Y246822D01*
X316337Y244386D02*
X316685Y244734D01*
X363245Y258723D02*
X363593Y259071D01*
X365333Y256635D02*
X365681Y256983D01*
X350996Y264848D02*
X351344Y265196D01*
X353084Y262760D02*
X353432Y263108D01*
X308124Y246474D02*
X308472Y246822D01*
X310212Y244386D02*
X310560Y244734D01*
X357120Y258723D02*
X357468Y259071D01*
X359208Y256635D02*
X359556Y256983D01*
X344871Y264848D02*
X345219Y265196D01*
X346959Y262760D02*
X347307Y263108D01*
X375494Y252598D02*
X375842Y252946D01*
X377582Y250510D02*
X377930Y250858D01*
X350996Y258723D02*
X351344Y259071D01*
X353084Y256635D02*
X353432Y256983D01*
X338747Y264848D02*
X339095Y265196D01*
X340835Y262760D02*
X341183Y263108D01*
X338747Y270972D02*
X339095Y271320D01*
X340835Y268884D02*
X341183Y269233D01*
X369369Y252598D02*
X369717Y252946D01*
X371457Y250511D02*
X371805Y250858D01*
X344871Y258723D02*
X345219Y259071D01*
X346959Y256635D02*
X347307Y256983D01*
X332623Y264848D02*
X332970Y265196D01*
X334710Y262760D02*
X335058Y263108D01*
X332623Y270972D02*
X332970Y271321D01*
X334710Y268884D02*
X335058Y269233D01*
X363245Y252599D02*
X363593Y252946D01*
X365333Y250511D02*
X365681Y250858D01*
X338747Y258723D02*
X339095Y259071D01*
X340835Y256635D02*
X341183Y256983D01*
X326498Y264848D02*
X326846Y265196D01*
X328586Y262760D02*
X328934Y263108D01*
X326498Y270972D02*
X326846Y271321D01*
X328586Y268885D02*
X328934Y269233D01*
X338747Y277097D02*
X339095Y277445D01*
X340835Y275009D02*
X341183Y275357D01*
X357120Y252599D02*
X357468Y252946D01*
X359208Y250511D02*
X359556Y250859D01*
X332622Y258723D02*
X332970Y259071D01*
X334710Y256635D02*
X335058Y256983D01*
X320374Y264848D02*
X320722Y265196D01*
X322461Y262760D02*
X322809Y263108D01*
X320374Y270972D02*
X320722Y271321D01*
X322461Y268885D02*
X322809Y269233D01*
X332623Y277097D02*
X332971Y277445D01*
X334711Y275009D02*
X335058Y275357D01*
X350996Y252599D02*
X351344Y252946D01*
X353084Y250511D02*
X353432Y250859D01*
X326498Y258723D02*
X326846Y259071D01*
X328586Y256635D02*
X328934Y256983D01*
X314249Y264848D02*
X314597Y265196D01*
X316337Y262760D02*
X316685Y263108D01*
X314249Y270972D02*
X314597Y271321D01*
X316337Y268885D02*
X316685Y269233D01*
X326498Y277097D02*
X326846Y277445D01*
X328586Y275009D02*
X328934Y275357D01*
X350996Y283222D02*
X351344Y283570D01*
X353084Y281134D02*
X353432Y281482D01*
X344871Y252599D02*
X345219Y252947D01*
X346959Y250511D02*
X347307Y250859D01*
X320373Y258723D02*
X320721Y259071D01*
X322461Y256635D02*
X322809Y256983D01*
X308124Y264848D02*
X308472Y265196D01*
X310212Y262760D02*
X310560Y263108D01*
X308124Y270972D02*
X308472Y271321D01*
X310212Y268885D02*
X310560Y269233D01*
X320374Y277097D02*
X320722Y277445D01*
X322461Y275009D02*
X322809Y275357D01*
X344872Y283222D02*
X345220Y283570D01*
X346959Y281134D02*
X347307Y281482D01*
X375494Y246474D02*
X375842Y246822D01*
X377582Y244386D02*
X377930Y244734D01*
X338747Y252599D02*
X339095Y252947D01*
X340835Y250511D02*
X341183Y250859D01*
X314249Y258723D02*
X314597Y259071D01*
X316337Y256635D02*
X316685Y256983D01*
X375494Y270972D02*
X375842Y271320D01*
X377582Y268884D02*
X377930Y269232D01*
X375494Y277097D02*
X375842Y277445D01*
X377582Y275009D02*
X377930Y275357D01*
X314249Y277097D02*
X314597Y277445D01*
X316337Y275009D02*
X316685Y275357D01*
X338747Y283222D02*
X339095Y283570D01*
X340835Y281134D02*
X341183Y281482D01*
X375494Y289346D02*
X375842Y289694D01*
X377582Y287258D02*
X377930Y287606D01*
X369369Y246474D02*
X369717Y246822D01*
X371457Y244386D02*
X371805Y244734D01*
X332622Y252599D02*
X332970Y252947D01*
X334710Y250511D02*
X335058Y250859D01*
X308124Y258723D02*
X308472Y259071D01*
X310212Y256635D02*
X310560Y256983D01*
X369370Y270972D02*
X369718Y271320D01*
X371458Y268884D02*
X371806Y269232D01*
X369370Y277097D02*
X369718Y277445D01*
X371458Y275009D02*
X371806Y275357D01*
X332623Y283222D02*
X332971Y283570D01*
X334711Y281134D02*
X335058Y281482D01*
X369370Y289346D02*
X369718Y289694D01*
X371458Y287258D02*
X371806Y287606D01*
X363245Y246474D02*
X363593Y246822D01*
X365333Y244386D02*
X365681Y244734D01*
X326498Y252599D02*
X326846Y252947D01*
X328586Y250511D02*
X328934Y250859D01*
X375494Y264848D02*
X375842Y265196D01*
X377582Y262760D02*
X377930Y263108D01*
X363245Y270972D02*
X363593Y271320D01*
X365333Y268884D02*
X365681Y269232D01*
X363245Y277097D02*
X363593Y277445D01*
X365333Y275009D02*
X365681Y275357D01*
X375494Y283221D02*
X375842Y283569D01*
X377582Y281133D02*
X377930Y281481D01*
X326498Y283222D02*
X326846Y283570D01*
X328586Y281134D02*
X328934Y281482D01*
X363245Y289346D02*
X363593Y289694D01*
X365333Y287258D02*
X365681Y287606D01*
X338747Y289346D02*
X339095Y289694D01*
X340835Y287258D02*
X341183Y287606D01*
X357120Y246474D02*
X357468Y246822D01*
X359208Y244386D02*
X359556Y244734D01*
X320373Y252599D02*
X320721Y252947D01*
X322461Y250511D02*
X322809Y250859D01*
X369370Y264848D02*
X369718Y265196D01*
X371457Y262760D02*
X371805Y263108D01*
X357120Y270972D02*
X357469Y271320D01*
X359208Y268884D02*
X359557Y269232D01*
X357121Y277097D02*
X357469Y277445D01*
X359208Y275009D02*
X359557Y275357D01*
X369370Y283221D02*
X369718Y283569D01*
X371458Y281134D02*
X371806Y281482D01*
X320374Y283222D02*
X320722Y283570D01*
X322461Y281134D02*
X322809Y281482D01*
X357121Y289346D02*
X357469Y289694D01*
X359209Y287258D02*
X359557Y287606D01*
X332623Y289346D02*
X332971Y289694D01*
X334711Y287258D02*
X335058Y287606D01*
X350996Y246474D02*
X351344Y246822D01*
X353084Y244386D02*
X353432Y244734D01*
X314249Y252599D02*
X314597Y252947D01*
X316337Y250511D02*
X316685Y250859D01*
X363245Y264848D02*
X363593Y265196D01*
X365333Y262760D02*
X365681Y263108D01*
X350996Y270972D02*
X351344Y271320D01*
X353084Y268884D02*
X353432Y269232D01*
X350996Y277097D02*
X351344Y277445D01*
X353084Y275009D02*
X353432Y275357D01*
X363245Y283221D02*
X363593Y283569D01*
X365333Y281134D02*
X365681Y281482D01*
X344871Y246474D02*
X345219Y246822D01*
X346959Y244386D02*
X347307Y244734D01*
X308124Y252599D02*
X308472Y252947D01*
X310212Y250511D02*
X310560Y250859D01*
X357120Y264848D02*
X357469Y265196D01*
X359208Y262760D02*
X359556Y263108D01*
X344871Y270972D02*
X345219Y271320D01*
X346959Y268884D02*
X347307Y269233D01*
X344872Y277097D02*
X345220Y277445D01*
X346959Y275009D02*
X347307Y275357D01*
X357121Y283222D02*
X357469Y283570D01*
X359209Y281134D02*
X359557Y281482D01*
X350996Y289346D02*
X351344Y289694D01*
X353084Y287258D02*
X353432Y287606D01*
X326498Y289346D02*
X326846Y289694D01*
X328586Y287258D02*
X328934Y287606D01*
X314249Y289346D02*
X314597Y289694D01*
X316337Y287258D02*
X316685Y287606D01*
X308124Y283222D02*
X308472Y283570D01*
X310212Y281134D02*
X310560Y281482D01*
X344872Y289346D02*
X345220Y289694D01*
X346960Y287258D02*
X347308Y287606D01*
X320374Y289346D02*
X320722Y289694D01*
X322461Y287258D02*
X322809Y287606D01*
X308124Y289346D02*
X308472Y289694D01*
X310212Y287258D02*
X310560Y287606D01*
X367504Y391339D02*
Y402362D01*
X264197D02*
X367504Y402362D01*
X264197Y391339D02*
Y402362D01*
X264197Y391339D02*
X367504Y391339D01*
X453504Y391339D02*
Y402362D01*
X370197Y402362D02*
X453504Y402362D01*
X370197Y391339D02*
Y402362D01*
X370197Y391339D02*
X453504Y391339D01*
X383504Y201339D02*
Y212362D01*
X300197Y212362D02*
X383504Y212362D01*
X300197Y201339D02*
Y212362D01*
X300197Y201339D02*
X383504Y201339D01*
X390197Y201339D02*
X453504Y201339D01*
X390197Y201339D02*
Y212362D01*
X390197Y212362D02*
X453504Y212362D01*
Y201339D02*
Y212362D01*
X352165Y329724D02*
X356102D01*
X352165D02*
Y333661D01*
Y371063D02*
X356102D01*
X352165Y367126D02*
Y371063D01*
X389567D02*
X393504D01*
Y367126D02*
Y371063D01*
X358071Y376969D02*
Y378937D01*
X373819Y376969D02*
Y378937D01*
X387598Y376969D02*
Y378937D01*
X344291Y335630D02*
X346260D01*
X344291Y351378D02*
X346260D01*
X344291Y365158D02*
X346260D01*
X387598Y321850D02*
Y323819D01*
X371850Y321850D02*
Y323819D01*
X358071Y321850D02*
Y323819D01*
X399409Y365158D02*
X401378D01*
X384449Y382480D02*
X385236D01*
X384449Y379528D02*
X385236D01*
X414665Y340551D02*
Y341339D01*
X417618Y340551D02*
Y341339D01*
X414665Y347638D02*
Y348425D01*
X417618Y347638D02*
Y348425D01*
X413779Y327461D02*
X414567D01*
X413779Y324508D02*
X414567D01*
X406299Y327461D02*
X407087D01*
X406299Y324508D02*
X407087D01*
X358858Y382480D02*
X359646D01*
X358858Y379528D02*
X359646D01*
X408661Y314961D02*
X412402D01*
X408661Y322835D02*
X412402D01*
X396063Y323327D02*
X396850D01*
X396063Y326279D02*
X396850D01*
X400098Y357874D02*
Y358661D01*
X403051Y357874D02*
Y358661D01*
X339862Y336221D02*
Y337008D01*
X342815Y336221D02*
Y337008D01*
X263100Y212475D02*
X270600D01*
X271850Y211225D01*
X261850D02*
X263100Y212475D01*
X280600D02*
X281850Y211225D01*
X271850D02*
X273100Y212475D01*
X280600D01*
X290600D02*
X291850Y211225D01*
X281850D02*
X283100Y212475D01*
X290600D01*
X270601Y201226D02*
X271851Y202476D01*
X261851Y202476D02*
X263101Y201226D01*
X270601D01*
X273101Y201226D02*
X280601Y201226D01*
X271851Y202476D02*
X273101Y201226D01*
X280601Y201226D02*
X281851Y202476D01*
X283101Y201226D02*
X290601D01*
X281851Y202476D02*
X283101Y201226D01*
X290601D02*
X291851Y202476D01*
X261850Y211225D02*
X261851Y202476D01*
X271850Y211225D02*
X271851Y202476D01*
X291850Y211225D02*
X291851Y202476D01*
X436614Y359449D02*
X436614Y357087D01*
X438976D01*
X436614Y380709D02*
X436614Y383071D01*
X438976D01*
X265748Y230906D02*
X268504D01*
X265748D02*
Y231693D01*
X265748Y244291D02*
X268504D01*
X265748Y243504D02*
Y244291D01*
X276378Y230906D02*
X279134D01*
X279134D02*
Y231693D01*
X276378Y244291D02*
X279134D01*
X279134Y243504D02*
Y244291D01*
X205512Y395866D02*
Y399410D01*
X223622Y395866D02*
Y399410D01*
X205512Y404724D02*
X223622D01*
X205512Y390551D02*
X223622D01*
X206694Y292655D02*
Y290031D01*
X210629D01*
Y292655D01*
X208661Y290031D02*
Y291343D01*
X206694Y293967D02*
Y296591D01*
Y295279D01*
X210629D01*
X206694Y297903D02*
X210629D01*
X208661D01*
Y300526D01*
X206694D01*
X210629D01*
X206694Y304462D02*
Y301838D01*
X210629D01*
Y304462D01*
X208661Y301838D02*
Y303150D01*
X210629Y305774D02*
X206694D01*
Y307742D01*
X207349Y308398D01*
X208661D01*
X209317Y307742D01*
Y305774D01*
Y307086D02*
X210629Y308398D01*
Y309710D02*
X206694D01*
X210629Y312334D01*
X206694D01*
Y316269D02*
Y313646D01*
X210629D01*
Y316269D01*
X208661Y313646D02*
Y314957D01*
X206694Y317581D02*
Y320205D01*
Y318893D01*
X210629D01*
X219291Y290359D02*
Y291671D01*
Y291015D01*
X215355D01*
X216011Y290359D01*
Y293639D02*
X215355Y294295D01*
Y295607D01*
X216011Y296263D01*
X218635D01*
X219291Y295607D01*
Y294295D01*
X218635Y293639D01*
X216011D01*
X215355Y297575D02*
X219291D01*
Y299542D01*
X218635Y300198D01*
X217979D01*
X217323Y299542D01*
Y297575D01*
Y299542D01*
X216667Y300198D01*
X216011D01*
X215355Y299542D01*
Y297575D01*
X219291Y301510D02*
X216667D01*
X215355Y302822D01*
X216667Y304134D01*
X219291D01*
X217323D01*
Y301510D01*
X216011Y308070D02*
X215355Y307414D01*
Y306102D01*
X216011Y305446D01*
X216667D01*
X217323Y306102D01*
Y307414D01*
X217979Y308070D01*
X218635D01*
X219291Y307414D01*
Y306102D01*
X218635Y305446D01*
X215355Y312006D02*
Y309382D01*
X219291D01*
Y312006D01*
X217323Y309382D02*
Y310694D01*
Y313318D02*
Y315941D01*
X215355Y317253D02*
Y319877D01*
Y318565D01*
X219291D01*
X292849Y255380D02*
X293373Y255905D01*
X294423D01*
X294948Y255380D01*
Y253281D01*
X294423Y252756D01*
X293373D01*
X292849Y253281D01*
Y255380D01*
X298096Y255905D02*
X295997D01*
Y254331D01*
X297047Y254855D01*
X297571D01*
X298096Y254331D01*
Y253281D01*
X297571Y252756D01*
X296522D01*
X295997Y253281D01*
X325722Y362863D02*
X325197Y362338D01*
Y361289D01*
X325722Y360764D01*
X327821D01*
X328346Y361289D01*
Y362338D01*
X327821Y362863D01*
X325197Y363913D02*
X328346D01*
X326772D01*
Y366012D01*
X325197D01*
X328346D01*
X325197Y369160D02*
Y367061D01*
X326772D01*
X326247Y368111D01*
Y368636D01*
X326772Y369160D01*
X327821D01*
X328346Y368636D01*
Y367586D01*
X327821Y367061D01*
X328346Y371784D02*
X325197D01*
X326772Y370210D01*
Y372309D01*
X327821Y373358D02*
X328346Y373883D01*
Y374933D01*
X327821Y375458D01*
X325722D01*
X325197Y374933D01*
Y373883D01*
X325722Y373358D01*
X326247D01*
X326772Y373883D01*
Y375458D01*
X325722Y378606D02*
X325197Y378081D01*
Y377032D01*
X325722Y376507D01*
X327821D01*
X328346Y377032D01*
Y378081D01*
X327821Y378606D01*
X326772D01*
Y377556D01*
X207481Y355777D02*
X210761D01*
X211417Y356433D01*
Y357745D01*
X210761Y358401D01*
X207481D01*
X208137Y362337D02*
X207481Y361681D01*
Y360369D01*
X208137Y359713D01*
X208793D01*
X209449Y360369D01*
Y361681D01*
X210105Y362337D01*
X210761D01*
X211417Y361681D01*
Y360369D01*
X210761Y359713D01*
X207481Y363649D02*
X211417D01*
Y365617D01*
X210761Y366272D01*
X210105D01*
X209449Y365617D01*
Y363649D01*
Y365617D01*
X208793Y366272D01*
X208137D01*
X207481Y365617D01*
Y363649D01*
X208137Y374144D02*
X207481Y373488D01*
Y372176D01*
X208137Y371520D01*
X210761D01*
X211417Y372176D01*
Y373488D01*
X210761Y374144D01*
X297244Y359581D02*
X294095D01*
X295669Y358007D01*
Y360106D01*
X297244Y362730D02*
X294095D01*
X295669Y361155D01*
Y363254D01*
X297244Y366403D02*
Y364304D01*
X295145Y366403D01*
X294620D01*
X294095Y365878D01*
Y364828D01*
X294620Y364304D01*
X251312Y388976D02*
X249213D01*
Y385827D01*
X251312D01*
X249213Y387402D02*
X250262D01*
X254460Y388451D02*
X253936Y388976D01*
X252886D01*
X252361Y388451D01*
Y387926D01*
X252886Y387402D01*
X253936D01*
X254460Y386877D01*
Y386352D01*
X253936Y385827D01*
X252886D01*
X252361Y386352D01*
X255510Y385827D02*
Y388976D01*
X257084D01*
X257609Y388451D01*
Y387402D01*
X257084Y386877D01*
X255510D01*
X258658Y388451D02*
X259183Y388976D01*
X260233D01*
X260757Y388451D01*
Y387926D01*
X260233Y387402D01*
X259708D01*
X260233D01*
X260757Y386877D01*
Y386352D01*
X260233Y385827D01*
X259183D01*
X258658Y386352D01*
X263906Y385827D02*
X261807D01*
X263906Y387926D01*
Y388451D01*
X263381Y388976D01*
X262332D01*
X261807Y388451D01*
X249213Y383464D02*
Y380315D01*
X250262Y381365D01*
X251312Y380315D01*
Y383464D01*
X254460Y382939D02*
X253936Y383464D01*
X252886D01*
X252361Y382939D01*
Y380840D01*
X252886Y380315D01*
X253936D01*
X254460Y380840D01*
X255510Y383464D02*
Y380315D01*
Y381890D01*
X257609D01*
Y383464D01*
Y380315D01*
X258658Y381890D02*
X260757D01*
X261807Y383464D02*
Y380315D01*
X263906D01*
X264955D02*
X266005D01*
X265480D01*
Y382415D01*
X264955D01*
X267579Y380315D02*
Y382415D01*
X269154D01*
X269678Y381890D01*
Y380315D01*
X270728D02*
Y383464D01*
Y381365D02*
X272302Y382415D01*
X270728Y381365D02*
X272302Y380315D01*
X420407Y372967D02*
X419882Y373492D01*
Y374541D01*
X420407Y375066D01*
X422506D01*
X423031Y374541D01*
Y373492D01*
X422506Y372967D01*
X420407D01*
X423031Y377690D02*
X419882D01*
X421457Y376115D01*
Y378214D01*
X420407Y357612D02*
X419882Y358137D01*
Y359187D01*
X420407Y359712D01*
X422506D01*
X423031Y359187D01*
Y358137D01*
X422506Y357612D01*
X420407D01*
X423031Y362335D02*
X419882D01*
X421457Y360761D01*
Y362860D01*
X436353Y223491D02*
X436877Y224015D01*
X437927D01*
X438452Y223491D01*
Y221391D01*
X437927Y220867D01*
X436877D01*
X436353Y221391D01*
Y223491D01*
X441076Y220867D02*
Y224015D01*
X439501Y222441D01*
X441600D01*
X421786Y223491D02*
X422310Y224015D01*
X423360D01*
X423885Y223491D01*
Y221391D01*
X423360Y220867D01*
X422310D01*
X421786Y221391D01*
Y223491D01*
X426509Y220867D02*
Y224015D01*
X424934Y222441D01*
X427033D01*
X407219Y223884D02*
X407744Y224409D01*
X408793D01*
X409318Y223884D01*
Y221785D01*
X408793Y221260D01*
X407744D01*
X407219Y221785D01*
Y223884D01*
X411942Y221260D02*
Y224409D01*
X410367Y222835D01*
X412466D01*
X392652Y223884D02*
X393177Y224409D01*
X394226D01*
X394751Y223884D01*
Y221785D01*
X394226Y221260D01*
X393177D01*
X392652Y221785D01*
Y223884D01*
X397375Y221260D02*
Y224409D01*
X395800Y222835D01*
X397899D01*
X378085Y223884D02*
X378610Y224409D01*
X379659D01*
X380184Y223884D01*
Y221785D01*
X379659Y221260D01*
X378610D01*
X378085Y221785D01*
Y223884D01*
X382808Y221260D02*
Y224409D01*
X381233Y222835D01*
X383332D01*
X363124Y223884D02*
X363649Y224409D01*
X364699D01*
X365223Y223884D01*
Y221785D01*
X364699Y221260D01*
X363649D01*
X363124Y221785D01*
Y223884D01*
X367847Y221260D02*
Y224409D01*
X366273Y222835D01*
X368372D01*
X201968Y387535D02*
X198819D01*
Y389109D01*
X199344Y389634D01*
X200394D01*
X200919Y389109D01*
Y387535D01*
Y388585D02*
X201968Y389634D01*
X198819Y392783D02*
Y390684D01*
X201968D01*
Y392783D01*
X200394Y390684D02*
Y391733D01*
X199344Y395931D02*
X198819Y395407D01*
Y394357D01*
X199344Y393832D01*
X199869D01*
X200394Y394357D01*
Y395407D01*
X200919Y395931D01*
X201443D01*
X201968Y395407D01*
Y394357D01*
X201443Y393832D01*
X198819Y399080D02*
Y396981D01*
X201968D01*
Y399080D01*
X200394Y396981D02*
Y398030D01*
X198819Y400130D02*
Y402229D01*
Y401179D01*
X201968D01*
X199213Y200330D02*
X202362D01*
Y201904D01*
X201837Y202429D01*
X201312D01*
X200787Y201904D01*
Y200330D01*
Y201904D01*
X200263Y202429D01*
X199738D01*
X199213Y201904D01*
Y200330D01*
Y205053D02*
Y204003D01*
X199738Y203479D01*
X201837D01*
X202362Y204003D01*
Y205053D01*
X201837Y205578D01*
X199738D01*
X199213Y205053D01*
Y208201D02*
Y207152D01*
X199738Y206627D01*
X201837D01*
X202362Y207152D01*
Y208201D01*
X201837Y208726D01*
X199738D01*
X199213Y208201D01*
Y209776D02*
Y211875D01*
Y210825D01*
X202362D01*
X237140Y199213D02*
Y202362D01*
X238715D01*
X239240Y201837D01*
Y200787D01*
X238715Y200263D01*
X237140D01*
X238190D02*
X239240Y199213D01*
X240289Y201837D02*
X240814Y202362D01*
X241863D01*
X242388Y201837D01*
Y201312D01*
X241863Y200787D01*
X241339D01*
X241863D01*
X242388Y200263D01*
Y199738D01*
X241863Y199213D01*
X240814D01*
X240289Y199738D01*
X245537Y199213D02*
X243438D01*
X245537Y201312D01*
Y201837D01*
X245012Y202362D01*
X243962D01*
X243438Y201837D01*
X237008Y204463D02*
X240157D01*
X238583D01*
Y206562D01*
X237008D01*
X240157D01*
X237008Y207612D02*
X240157D01*
Y209711D01*
X237008Y212860D02*
Y210760D01*
X238583D01*
X238058Y211810D01*
Y212335D01*
X238583Y212860D01*
X239632D01*
X240157Y212335D01*
Y211285D01*
X239632Y210760D01*
X227297Y204200D02*
X226772Y203675D01*
Y202626D01*
X227297Y202101D01*
X227822D01*
X228346Y202626D01*
Y203675D01*
X228871Y204200D01*
X229396D01*
X229921Y203675D01*
Y202626D01*
X229396Y202101D01*
X226772Y205250D02*
X229921D01*
Y206824D01*
X229396Y207349D01*
X228871D01*
X228346Y206824D01*
Y205250D01*
Y206824D01*
X227822Y207349D01*
X227297D01*
X226772Y206824D01*
Y205250D01*
X229921Y210497D02*
Y208398D01*
X227822Y210497D01*
X227297D01*
X226772Y209973D01*
Y208923D01*
X227297Y208398D01*
X245275Y356825D02*
X242126D01*
Y358399D01*
X242651Y358924D01*
X243701D01*
X244226Y358399D01*
Y356825D01*
Y357874D02*
X245275Y358924D01*
Y361548D02*
X242126D01*
X243701Y359974D01*
Y362073D01*
X403150Y341601D02*
X402625Y342126D01*
X401575D01*
X401051Y341601D01*
Y339502D01*
X401575Y338977D01*
X402625D01*
X403150Y339502D01*
X404199Y338977D02*
X405249D01*
X404724D01*
Y342126D01*
X404199Y341601D01*
X376650Y315608D02*
X373501D01*
Y317182D01*
X374026Y317707D01*
X375075D01*
X375600Y317182D01*
Y315608D01*
Y316657D02*
X376650Y317707D01*
Y320856D02*
Y318757D01*
X374551Y320856D01*
X374026D01*
X373501Y320331D01*
Y319281D01*
X374026Y318757D01*
X400001Y305709D02*
Y308858D01*
X401576D01*
X402100Y308333D01*
Y307283D01*
X401576Y306759D01*
X400001D01*
X401051D02*
X402100Y305709D01*
X403150D02*
X404199D01*
X403675D01*
Y308858D01*
X403150Y308333D01*
X405774Y308858D02*
X407873D01*
Y308333D01*
X405774Y306234D01*
Y305709D01*
X417127Y310237D02*
Y313385D01*
X418702D01*
X419226Y312861D01*
Y311811D01*
X418702Y311286D01*
X417127D01*
X418177D02*
X419226Y310237D01*
X420276D02*
X421325D01*
X420801D01*
Y313385D01*
X420276Y312861D01*
X424999Y313385D02*
X423949Y312861D01*
X422900Y311811D01*
Y310761D01*
X423424Y310237D01*
X424474D01*
X424999Y310761D01*
Y311286D01*
X424474Y311811D01*
X422900D01*
X400198Y310434D02*
Y313582D01*
X401772D01*
X402297Y313057D01*
Y312008D01*
X401772Y311483D01*
X400198D01*
X401248D02*
X402297Y310434D01*
X403347D02*
X404396D01*
X403871D01*
Y313582D01*
X403347Y313057D01*
X408070Y313582D02*
X405970D01*
Y312008D01*
X407020Y312533D01*
X407545D01*
X408070Y312008D01*
Y310958D01*
X407545Y310434D01*
X406495D01*
X405970Y310958D01*
X328479Y218110D02*
Y216011D01*
X329529Y214961D01*
X330578Y216011D01*
Y218110D01*
X331628D02*
Y214961D01*
X333202D01*
X333727Y215486D01*
Y217585D01*
X333202Y218110D01*
X331628D01*
X334776Y217585D02*
X335301Y218110D01*
X336350D01*
X336875Y217585D01*
Y217060D01*
X336350Y216535D01*
X335826D01*
X336350D01*
X336875Y216011D01*
Y215486D01*
X336350Y214961D01*
X335301D01*
X334776Y215486D01*
X261944Y334843D02*
Y337992D01*
X263518D01*
X264043Y337467D01*
Y336417D01*
X263518Y335893D01*
X261944D01*
X262993D02*
X264043Y334843D01*
X267191D02*
X265092D01*
X267191Y336942D01*
Y337467D01*
X266667Y337992D01*
X265617D01*
X265092Y337467D01*
X268241Y337992D02*
X270340D01*
Y337467D01*
X268241Y335368D01*
Y334843D01*
X261944Y291536D02*
Y294685D01*
X263518D01*
X264043Y294160D01*
Y293110D01*
X263518Y292585D01*
X261944D01*
X262993D02*
X264043Y291536D01*
X267191D02*
X265092D01*
X267191Y293635D01*
Y294160D01*
X266667Y294685D01*
X265617D01*
X265092Y294160D01*
X270340Y294685D02*
X269290Y294160D01*
X268241Y293110D01*
Y292061D01*
X268766Y291536D01*
X269815D01*
X270340Y292061D01*
Y292585D01*
X269815Y293110D01*
X268241D01*
X261944Y281103D02*
Y284251D01*
X263518D01*
X264043Y283727D01*
Y282677D01*
X263518Y282152D01*
X261944D01*
X262993D02*
X264043Y281103D01*
X267191D02*
X265092D01*
X267191Y283202D01*
Y283727D01*
X266667Y284251D01*
X265617D01*
X265092Y283727D01*
X268241D02*
X268766Y284251D01*
X269815D01*
X270340Y283727D01*
Y283202D01*
X269815Y282677D01*
X270340Y282152D01*
Y281628D01*
X269815Y281103D01*
X268766D01*
X268241Y281628D01*
Y282152D01*
X268766Y282677D01*
X268241Y283202D01*
Y283727D01*
X268766Y282677D02*
X269815D01*
X239763Y355251D02*
X236615D01*
Y356825D01*
X237139Y357350D01*
X238189D01*
X238714Y356825D01*
Y355251D01*
Y356300D02*
X239763Y357350D01*
Y360498D02*
Y358399D01*
X237664Y360498D01*
X237139D01*
X236615Y359974D01*
Y358924D01*
X237139Y358399D01*
X236615Y363647D02*
Y361548D01*
X238189D01*
X237664Y362597D01*
Y363122D01*
X238189Y363647D01*
X239239D01*
X239763Y363122D01*
Y362073D01*
X239239Y361548D01*
X261944Y301772D02*
Y304921D01*
X263518D01*
X264043Y304396D01*
Y303346D01*
X263518Y302822D01*
X261944D01*
X262993D02*
X264043Y301772D01*
X267191D02*
X265092D01*
X267191Y303871D01*
Y304396D01*
X266667Y304921D01*
X265617D01*
X265092Y304396D01*
X269815Y301772D02*
Y304921D01*
X268241Y303346D01*
X270340D01*
X261944Y312205D02*
Y315354D01*
X263518D01*
X264043Y314829D01*
Y313779D01*
X263518Y313255D01*
X261944D01*
X262993D02*
X264043Y312205D01*
X267191D02*
X265092D01*
X267191Y314304D01*
Y314829D01*
X266667Y315354D01*
X265617D01*
X265092Y314829D01*
X268241D02*
X268766Y315354D01*
X269815D01*
X270340Y314829D01*
Y314304D01*
X269815Y313779D01*
X269290D01*
X269815D01*
X270340Y313255D01*
Y312730D01*
X269815Y312205D01*
X268766D01*
X268241Y312730D01*
X261944Y345079D02*
Y348228D01*
X263518D01*
X264043Y347703D01*
Y346654D01*
X263518Y346129D01*
X261944D01*
X262993D02*
X264043Y345079D01*
X267191D02*
X265092D01*
X267191Y347178D01*
Y347703D01*
X266667Y348228D01*
X265617D01*
X265092Y347703D01*
X270340Y345079D02*
X268241D01*
X270340Y347178D01*
Y347703D01*
X269815Y348228D01*
X268766D01*
X268241Y347703D01*
X329004Y335434D02*
Y338582D01*
X330578D01*
X331103Y338057D01*
Y337008D01*
X330578Y336483D01*
X329004D01*
X330053D02*
X331103Y335434D01*
X334251D02*
X332152D01*
X334251Y337533D01*
Y338057D01*
X333727Y338582D01*
X332677D01*
X332152Y338057D01*
X335301Y335434D02*
X336350D01*
X335826D01*
Y338582D01*
X335301Y338057D01*
X328479Y299213D02*
Y302362D01*
X330053D01*
X330578Y301837D01*
Y300787D01*
X330053Y300263D01*
X328479D01*
X329529D02*
X330578Y299213D01*
X333727D02*
X331628D01*
X333727Y301312D01*
Y301837D01*
X333202Y302362D01*
X332152D01*
X331628Y301837D01*
X334776D02*
X335301Y302362D01*
X336350D01*
X336875Y301837D01*
Y299738D01*
X336350Y299213D01*
X335301D01*
X334776Y299738D01*
Y301837D01*
X328741Y324016D02*
Y327165D01*
X330316D01*
X330840Y326640D01*
Y325591D01*
X330316Y325066D01*
X328741D01*
X329791D02*
X330840Y324016D01*
X331890D02*
X332940D01*
X332415D01*
Y327165D01*
X331890Y326640D01*
X334514Y324541D02*
X335039Y324016D01*
X336088D01*
X336613Y324541D01*
Y326640D01*
X336088Y327165D01*
X335039D01*
X334514Y326640D01*
Y326115D01*
X335039Y325591D01*
X336613D01*
X328741Y310237D02*
Y313385D01*
X330316D01*
X330840Y312861D01*
Y311811D01*
X330316Y311286D01*
X328741D01*
X329791D02*
X330840Y310237D01*
X331890D02*
X332940D01*
X332415D01*
Y313385D01*
X331890Y312861D01*
X334514D02*
X335039Y313385D01*
X336088D01*
X336613Y312861D01*
Y312336D01*
X336088Y311811D01*
X336613Y311286D01*
Y310761D01*
X336088Y310237D01*
X335039D01*
X334514Y310761D01*
Y311286D01*
X335039Y311811D01*
X334514Y312336D01*
Y312861D01*
X335039Y311811D02*
X336088D01*
X258662Y319161D02*
X261810D01*
Y320736D01*
X261286Y321260D01*
X259187D01*
X258662Y320736D01*
Y319161D01*
X261810Y322310D02*
X259712D01*
X258662Y323359D01*
X259712Y324409D01*
X261810D01*
X260236D01*
Y322310D01*
X261810Y325459D02*
Y326508D01*
Y325983D01*
X258662D01*
X259187Y325459D01*
X283596Y270735D02*
X283072Y271259D01*
X282022D01*
X281497Y270735D01*
Y268636D01*
X282022Y268111D01*
X283072D01*
X283596Y268636D01*
X284646Y268111D02*
X285695D01*
X285171D01*
Y271259D01*
X284646Y270735D01*
X289369Y271259D02*
X288319Y270735D01*
X287270Y269685D01*
Y268636D01*
X287794Y268111D01*
X288844D01*
X289369Y268636D01*
Y269160D01*
X288844Y269685D01*
X287270D01*
X282021Y281037D02*
X281497Y280513D01*
Y279463D01*
X282021Y278938D01*
X284120D01*
X284645Y279463D01*
Y280513D01*
X284120Y281037D01*
X284645Y282087D02*
Y283136D01*
Y282612D01*
X281497D01*
X282021Y282087D01*
X281497Y286810D02*
Y284711D01*
X283071D01*
X282546Y285760D01*
Y286285D01*
X283071Y286810D01*
X284120D01*
X284645Y286285D01*
Y285236D01*
X284120Y284711D01*
X330840Y332546D02*
X330316Y333070D01*
X329266D01*
X328741Y332546D01*
Y330447D01*
X329266Y329922D01*
X330316D01*
X330840Y330447D01*
X331890Y329922D02*
X332940D01*
X332415D01*
Y333070D01*
X331890Y332546D01*
X336088Y329922D02*
Y333070D01*
X334514Y331496D01*
X336613D01*
X330840Y307349D02*
X330316Y307874D01*
X329266D01*
X328741Y307349D01*
Y305250D01*
X329266Y304725D01*
X330316D01*
X330840Y305250D01*
X331890Y304725D02*
X332940D01*
X332415D01*
Y307874D01*
X331890Y307349D01*
X334514D02*
X335039Y307874D01*
X336088D01*
X336613Y307349D01*
Y306824D01*
X336088Y306299D01*
X335563D01*
X336088D01*
X336613Y305774D01*
Y305250D01*
X336088Y304725D01*
X335039D01*
X334514Y305250D01*
X228085Y389370D02*
X230184Y386221D01*
Y389370D02*
X228085Y386221D01*
X231234D02*
Y389370D01*
X232808D01*
X233333Y388845D01*
Y387795D01*
X232808Y387270D01*
X231234D01*
X234383Y388845D02*
X234907Y389370D01*
X235957D01*
X236482Y388845D01*
Y388320D01*
X235957Y387795D01*
X235432D01*
X235957D01*
X236482Y387270D01*
Y386746D01*
X235957Y386221D01*
X234907D01*
X234383Y386746D01*
X305708Y380841D02*
X302560D01*
Y382416D01*
X303084Y382940D01*
X304134D01*
X304659Y382416D01*
Y380841D01*
Y381891D02*
X305708Y382940D01*
X303084Y383990D02*
X302560Y384515D01*
Y385564D01*
X303084Y386089D01*
X303609D01*
X304134Y385564D01*
Y385039D01*
Y385564D01*
X304659Y386089D01*
X305183D01*
X305708Y385564D01*
Y384515D01*
X305183Y383990D01*
X303084Y387138D02*
X302560Y387663D01*
Y388713D01*
X303084Y389237D01*
X303609D01*
X304134Y388713D01*
Y388188D01*
Y388713D01*
X304659Y389237D01*
X305183D01*
X305708Y388713D01*
Y387663D01*
X305183Y387138D01*
X291471Y378937D02*
Y375788D01*
X293045D01*
X293570Y376313D01*
Y378412D01*
X293045Y378937D01*
X291471D01*
X294620D02*
Y375788D01*
X296194D01*
X296719Y376313D01*
Y378412D01*
X296194Y378937D01*
X294620D01*
X297768Y378412D02*
X298293Y378937D01*
X299343D01*
X299867Y378412D01*
Y377887D01*
X299343Y377362D01*
X298818D01*
X299343D01*
X299867Y376837D01*
Y376313D01*
X299343Y375788D01*
X298293D01*
X297768Y376313D01*
X288058Y348687D02*
X287534Y349212D01*
X286484D01*
X285959Y348687D01*
Y346588D01*
X286484Y346063D01*
X287534D01*
X288058Y346588D01*
X291207Y346063D02*
X289108D01*
X291207Y348163D01*
Y348687D01*
X290682Y349212D01*
X289633D01*
X289108Y348687D01*
X294356Y349212D02*
X292256D01*
Y347638D01*
X293306Y348163D01*
X293831D01*
X294356Y347638D01*
Y346588D01*
X293831Y346063D01*
X292781D01*
X292256Y346588D01*
X383334Y237402D02*
Y239501D01*
X384384Y240551D01*
X385433Y239501D01*
Y237402D01*
Y238976D01*
X383334D01*
X386483Y237402D02*
X387532D01*
X387007D01*
Y240551D01*
X386483Y240026D01*
X423623Y237008D02*
Y240157D01*
X425198D01*
X425722Y239632D01*
Y238583D01*
X425198Y238058D01*
X423623D01*
X424673D02*
X425722Y237008D01*
X426772D02*
X427821D01*
X427297D01*
Y240157D01*
X426772Y239632D01*
X430970Y237008D02*
Y240157D01*
X429396Y238583D01*
X431495D01*
X286222Y383858D02*
Y381759D01*
X287272Y380709D01*
X288321Y381759D01*
Y383858D01*
X289371D02*
Y380709D01*
X290945D01*
X291470Y381234D01*
Y383333D01*
X290945Y383858D01*
X289371D01*
X292519Y380709D02*
X293569D01*
X293044D01*
Y383858D01*
X292519Y383333D01*
X295143D02*
X295668Y383858D01*
X296718D01*
X297242Y383333D01*
Y381234D01*
X296718Y380709D01*
X295668D01*
X295143Y381234D01*
Y383333D01*
X285039Y376116D02*
X281890D01*
Y377691D01*
X282415Y378215D01*
X283465D01*
X283989Y377691D01*
Y376116D01*
Y377166D02*
X285039Y378215D01*
X281890Y379265D02*
Y381364D01*
X282415D01*
X284514Y379265D01*
X285039D01*
X440880Y318503D02*
X442979D01*
Y317979D01*
X440880Y315880D01*
Y315355D01*
X442979D01*
X446128D02*
X444029D01*
X446128Y317454D01*
Y317979D01*
X445603Y318503D01*
X444554D01*
X444029Y317979D01*
X279133Y376116D02*
X275985D01*
Y377691D01*
X276509Y378215D01*
X277559D01*
X278084Y377691D01*
Y376116D01*
Y377166D02*
X279133Y378215D01*
X275985Y381364D02*
X276509Y380314D01*
X277559Y379265D01*
X278609D01*
X279133Y379790D01*
Y380839D01*
X278609Y381364D01*
X278084D01*
X277559Y380839D01*
Y379265D01*
X431038Y328741D02*
Y331889D01*
X432612D01*
X433137Y331364D01*
Y330315D01*
X432612Y329790D01*
X431038D01*
X432087D02*
X433137Y328741D01*
X434186D02*
X435236D01*
X434711D01*
Y331889D01*
X434186Y331364D01*
X436810Y328741D02*
X437860D01*
X437335D01*
Y331889D01*
X436810Y331364D01*
X430907Y333465D02*
Y336614D01*
X432481D01*
X433006Y336089D01*
Y335039D01*
X432481Y334515D01*
X430907D01*
X431956D02*
X433006Y333465D01*
X434055D02*
X435105D01*
X434580D01*
Y336614D01*
X434055Y336089D01*
X436679D02*
X437204Y336614D01*
X438253D01*
X438778Y336089D01*
Y333990D01*
X438253Y333465D01*
X437204D01*
X436679Y333990D01*
Y336089D01*
X433006Y338386D02*
Y341535D01*
X434580D01*
X435105Y341010D01*
Y339961D01*
X434580Y339436D01*
X433006D01*
X434056D02*
X435105Y338386D01*
X436155Y338911D02*
X436680Y338386D01*
X437729D01*
X438254Y338911D01*
Y341010D01*
X437729Y341535D01*
X436680D01*
X436155Y341010D01*
Y340485D01*
X436680Y339961D01*
X438254D01*
X433006Y343308D02*
Y346456D01*
X434580D01*
X435105Y345931D01*
Y344882D01*
X434580Y344357D01*
X433006D01*
X434056D02*
X435105Y343308D01*
X436155Y345931D02*
X436680Y346456D01*
X437729D01*
X438254Y345931D01*
Y345407D01*
X437729Y344882D01*
X438254Y344357D01*
Y343832D01*
X437729Y343308D01*
X436680D01*
X436155Y343832D01*
Y344357D01*
X436680Y344882D01*
X436155Y345407D01*
Y345931D01*
X436680Y344882D02*
X437729D01*
X440881Y331889D02*
Y328741D01*
Y330315D01*
X442980D01*
Y331889D01*
Y328741D01*
X444029Y331889D02*
Y328741D01*
X446128D01*
X448752D02*
Y331889D01*
X447178Y330315D01*
X449277D01*
X440881Y336614D02*
Y333465D01*
Y335039D01*
X442980D01*
Y336614D01*
Y333465D01*
X444029Y336614D02*
Y333465D01*
X446128D01*
X447178Y336089D02*
X447703Y336614D01*
X448752D01*
X449277Y336089D01*
Y335564D01*
X448752Y335039D01*
X448227D01*
X448752D01*
X449277Y334515D01*
Y333990D01*
X448752Y333465D01*
X447703D01*
X447178Y333990D01*
X440881Y341535D02*
Y338386D01*
Y339961D01*
X442980D01*
Y341535D01*
Y338386D01*
X444029Y341535D02*
Y338386D01*
X446128D01*
X449277D02*
X447178D01*
X449277Y340485D01*
Y341010D01*
X448752Y341535D01*
X447703D01*
X447178Y341010D01*
X440815Y346456D02*
Y343308D01*
Y344882D01*
X442914D01*
Y346456D01*
Y343308D01*
X443963Y346456D02*
Y343308D01*
X446063D01*
X447112D02*
X448162D01*
X447637D01*
Y346456D01*
X447112Y345931D01*
X439108Y308333D02*
X438583Y308858D01*
X437534D01*
X437009Y308333D01*
Y306234D01*
X437534Y305709D01*
X438583D01*
X439108Y306234D01*
X440158Y305709D02*
X441207D01*
X440683D01*
Y308858D01*
X440158Y308333D01*
X444881Y305709D02*
X442782D01*
X444881Y307808D01*
Y308333D01*
X444356Y308858D01*
X443306D01*
X442782Y308333D01*
X442783Y313057D02*
X442258Y313582D01*
X441208D01*
X440684Y313057D01*
Y310958D01*
X441208Y310434D01*
X442258D01*
X442783Y310958D01*
X443832Y310434D02*
X444882D01*
X444357D01*
Y313582D01*
X443832Y313057D01*
X446456Y310434D02*
X447506D01*
X446981D01*
Y313582D01*
X446456Y313057D01*
X265881Y216339D02*
Y219488D01*
X267455D01*
X267980Y218963D01*
Y217913D01*
X267455Y217389D01*
X265881D01*
X266930D02*
X267980Y216339D01*
X271128D02*
X269029D01*
X271128Y218438D01*
Y218963D01*
X270603Y219488D01*
X269554D01*
X269029Y218963D01*
X272178Y216864D02*
X272703Y216339D01*
X273752D01*
X274277Y216864D01*
Y218963D01*
X273752Y219488D01*
X272703D01*
X272178Y218963D01*
Y218438D01*
X272703Y217913D01*
X274277D01*
X315551Y223295D02*
X312402D01*
Y224869D01*
X312927Y225394D01*
X313976D01*
X314501Y224869D01*
Y223295D01*
Y224344D02*
X315551Y225394D01*
Y226443D02*
Y227493D01*
Y226968D01*
X312402D01*
X312927Y226443D01*
X287599Y260499D02*
X290747D01*
Y262598D01*
Y263648D02*
Y264698D01*
Y264173D01*
X287599D01*
X288124Y263648D01*
X303084Y216011D02*
X302560Y215486D01*
Y214437D01*
X303084Y213912D01*
X305183D01*
X305708Y214437D01*
Y215486D01*
X305183Y216011D01*
X305708Y219160D02*
Y217061D01*
X303609Y219160D01*
X303084D01*
X302560Y218635D01*
Y217585D01*
X303084Y217061D01*
X305708Y222308D02*
Y220209D01*
X303609Y222308D01*
X303084D01*
X302560Y221784D01*
Y220734D01*
X303084Y220209D01*
X293439Y216339D02*
X292914Y215814D01*
Y214765D01*
X293439Y214240D01*
X295538D01*
X296062Y214765D01*
Y215814D01*
X295538Y216339D01*
X296062Y219488D02*
Y217389D01*
X293964Y219488D01*
X293439D01*
X292914Y218963D01*
Y217913D01*
X293439Y217389D01*
X296062Y220537D02*
Y221587D01*
Y221062D01*
X292914D01*
X293439Y220537D01*
X287139Y221326D02*
X286615Y220801D01*
Y219752D01*
X287139Y219227D01*
X289239D01*
X289763Y219752D01*
Y220801D01*
X289239Y221326D01*
X289763Y224475D02*
Y222376D01*
X287664Y224475D01*
X287139D01*
X286615Y223950D01*
Y222900D01*
X287139Y222376D01*
Y225524D02*
X286615Y226049D01*
Y227099D01*
X287139Y227623D01*
X289239D01*
X289763Y227099D01*
Y226049D01*
X289239Y225524D01*
X287139D01*
X277691Y216077D02*
X277166Y215552D01*
Y214502D01*
X277691Y213978D01*
X279790D01*
X280314Y214502D01*
Y215552D01*
X279790Y216077D01*
X280314Y217126D02*
Y218176D01*
Y217651D01*
X277166D01*
X277691Y217126D01*
X279790Y219750D02*
X280314Y220275D01*
Y221324D01*
X279790Y221849D01*
X277691D01*
X277166Y221324D01*
Y220275D01*
X277691Y219750D01*
X278215D01*
X278740Y220275D01*
Y221849D01*
X250919Y219160D02*
X250395Y219685D01*
X249345D01*
X248820Y219160D01*
Y217061D01*
X249345Y216536D01*
X250395D01*
X250919Y217061D01*
X251969Y216536D02*
X253018D01*
X252494D01*
Y219685D01*
X251969Y219160D01*
X254593D02*
X255117Y219685D01*
X256167D01*
X256692Y219160D01*
Y218635D01*
X256167Y218110D01*
X256692Y217585D01*
Y217061D01*
X256167Y216536D01*
X255117D01*
X254593Y217061D01*
Y217585D01*
X255117Y218110D01*
X254593Y218635D01*
Y219160D01*
X255117Y218110D02*
X256167D01*
X251313Y239632D02*
X250788Y240157D01*
X249739D01*
X249214Y239632D01*
Y237533D01*
X249739Y237008D01*
X250788D01*
X251313Y237533D01*
X252362Y237008D02*
X253412D01*
X252887D01*
Y240157D01*
X252362Y239632D01*
X254986Y240157D02*
X257085D01*
Y239632D01*
X254986Y237533D01*
Y237008D01*
X285039Y219752D02*
X281890D01*
Y221326D01*
X282415Y221851D01*
X283465D01*
X283989Y221326D01*
Y219752D01*
Y220801D02*
X285039Y221851D01*
X282415Y222900D02*
X281890Y223425D01*
Y224475D01*
X282415Y224999D01*
X282940D01*
X283465Y224475D01*
Y223950D01*
Y224475D01*
X283989Y224999D01*
X284514D01*
X285039Y224475D01*
Y223425D01*
X284514Y222900D01*
X285039Y226049D02*
Y227098D01*
Y226574D01*
X281890D01*
X282415Y226049D01*
X289566Y235959D02*
X286418D01*
Y237534D01*
X286943Y238058D01*
X287992D01*
X288517Y237534D01*
Y235959D01*
Y237009D02*
X289566Y238058D01*
X286943Y239108D02*
X286418Y239633D01*
Y240682D01*
X286943Y241207D01*
X287467D01*
X287992Y240682D01*
Y240158D01*
Y240682D01*
X288517Y241207D01*
X289042D01*
X289566Y240682D01*
Y239633D01*
X289042Y239108D01*
X286943Y242256D02*
X286418Y242781D01*
Y243831D01*
X286943Y244356D01*
X289042D01*
X289566Y243831D01*
Y242781D01*
X289042Y242256D01*
X286943D01*
X350986Y236024D02*
Y239173D01*
X352560D01*
X353085Y238648D01*
Y237598D01*
X352560Y237074D01*
X350986D01*
X352035D02*
X353085Y236024D01*
X354134D02*
X355184D01*
X354659D01*
Y239173D01*
X354134Y238648D01*
X356758D02*
X357283Y239173D01*
X358332D01*
X358857Y238648D01*
Y238123D01*
X358332Y237598D01*
X357807D01*
X358332D01*
X358857Y237074D01*
Y236549D01*
X358332Y236024D01*
X357283D01*
X356758Y236549D01*
X350789Y231103D02*
Y234251D01*
X352363D01*
X352888Y233727D01*
Y232677D01*
X352363Y232152D01*
X350789D01*
X351838D02*
X352888Y231103D01*
X353937D02*
X354987D01*
X354462D01*
Y234251D01*
X353937Y233727D01*
X358660Y231103D02*
X356561D01*
X358660Y233202D01*
Y233727D01*
X358135Y234251D01*
X357086D01*
X356561Y233727D01*
X433070Y358793D02*
X429922D01*
Y360368D01*
X430446Y360893D01*
X431496D01*
X432021Y360368D01*
Y358793D01*
Y359843D02*
X433070Y360893D01*
X429922Y364041D02*
Y361942D01*
X431496D01*
X430971Y362992D01*
Y363516D01*
X431496Y364041D01*
X432546D01*
X433070Y363516D01*
Y362467D01*
X432546Y361942D01*
X433070Y383990D02*
X429922D01*
Y385565D01*
X430446Y386089D01*
X431496D01*
X432021Y385565D01*
Y383990D01*
Y385040D02*
X433070Y386089D01*
X430446Y387139D02*
X429922Y387664D01*
Y388713D01*
X430446Y389238D01*
X430971D01*
X431496Y388713D01*
Y388189D01*
Y388713D01*
X432021Y389238D01*
X432546D01*
X433070Y388713D01*
Y387664D01*
X432546Y387139D01*
X410237Y355251D02*
X412336D01*
X413385Y356300D01*
X412336Y357350D01*
X410237D01*
Y358400D02*
X413385D01*
Y359974D01*
X412860Y360499D01*
X410761D01*
X410237Y359974D01*
Y358400D01*
X413385Y361548D02*
Y362598D01*
Y362073D01*
X410237D01*
X410761Y361548D01*
X413385Y364172D02*
Y365222D01*
Y364697D01*
X410237D01*
X410761Y364172D01*
X410237Y371786D02*
X412336D01*
X413385Y372836D01*
X412336Y373885D01*
X410237D01*
Y374935D02*
X413385D01*
Y376509D01*
X412860Y377034D01*
X410761D01*
X410237Y376509D01*
Y374935D01*
X412860Y378083D02*
X413385Y378608D01*
Y379658D01*
X412860Y380182D01*
X410761D01*
X410237Y379658D01*
Y378608D01*
X410761Y378083D01*
X411286D01*
X411811Y378608D01*
Y380182D01*
X256957Y377165D02*
X259056Y374016D01*
Y377165D02*
X256957Y374016D01*
X260105D02*
Y377165D01*
X261680D01*
X262204Y376640D01*
Y375591D01*
X261680Y375066D01*
X260105D01*
X263254Y374016D02*
X264303D01*
X263778D01*
Y377165D01*
X263254Y376640D01*
X345275Y371392D02*
X342126D01*
Y372967D01*
X342651Y373492D01*
X343701D01*
X344226Y372967D01*
Y371392D01*
Y372442D02*
X345275Y373492D01*
X342651Y374541D02*
X342126Y375066D01*
Y376115D01*
X342651Y376640D01*
X343176D01*
X343701Y376115D01*
Y375590D01*
Y376115D01*
X344226Y376640D01*
X344750D01*
X345275Y376115D01*
Y375066D01*
X344750Y374541D01*
X342126Y379789D02*
Y377690D01*
X343701D01*
X343176Y378739D01*
Y379264D01*
X343701Y379789D01*
X344750D01*
X345275Y379264D01*
Y378214D01*
X344750Y377690D01*
X350393Y371392D02*
X347245D01*
Y372967D01*
X347769Y373492D01*
X348819D01*
X349344Y372967D01*
Y371392D01*
Y372442D02*
X350393Y373492D01*
X347769Y374541D02*
X347245Y375066D01*
Y376115D01*
X347769Y376640D01*
X348294D01*
X348819Y376115D01*
Y375590D01*
Y376115D01*
X349344Y376640D01*
X349868D01*
X350393Y376115D01*
Y375066D01*
X349868Y374541D01*
X350393Y379264D02*
X347245D01*
X348819Y377690D01*
Y379789D01*
X246983Y358267D02*
Y355119D01*
Y356693D01*
X249082D01*
Y358267D01*
Y355119D01*
X250132Y358267D02*
Y355119D01*
X252231D01*
X253280Y358267D02*
X255379D01*
Y357743D01*
X253280Y355643D01*
Y355119D01*
X246589Y342913D02*
Y339764D01*
Y341339D01*
X248688D01*
Y342913D01*
Y339764D01*
X249738Y342913D02*
Y339764D01*
X251837D01*
X254985Y342913D02*
X253936Y342388D01*
X252887Y341339D01*
Y340289D01*
X253411Y339764D01*
X254461D01*
X254985Y340289D01*
Y340814D01*
X254461Y341339D01*
X252887D01*
X405644Y234251D02*
Y232152D01*
X406694Y231103D01*
X407744Y232152D01*
Y234251D01*
X408793D02*
Y231103D01*
X410367D01*
X410892Y231628D01*
Y233727D01*
X410367Y234251D01*
X408793D01*
X411942D02*
X414041D01*
Y233727D01*
X411942Y231628D01*
Y231103D01*
X361550Y234251D02*
Y232152D01*
X362599Y231103D01*
X363649Y232152D01*
Y234251D01*
X364699D02*
Y231103D01*
X366273D01*
X366798Y231628D01*
Y233727D01*
X366273Y234251D01*
X364699D01*
X369946D02*
X368897Y233727D01*
X367847Y232677D01*
Y231628D01*
X368372Y231103D01*
X369421D01*
X369946Y231628D01*
Y232152D01*
X369421Y232677D01*
X367847D01*
X420211Y234251D02*
Y232152D01*
X421261Y231103D01*
X422310Y232152D01*
Y234251D01*
X423360D02*
Y231103D01*
X424934D01*
X425459Y231628D01*
Y233727D01*
X424934Y234251D01*
X423360D01*
X428608D02*
X426509D01*
Y232677D01*
X427558Y233202D01*
X428083D01*
X428608Y232677D01*
Y231628D01*
X428083Y231103D01*
X427033D01*
X426509Y231628D01*
X376511Y234251D02*
Y232152D01*
X377560Y231103D01*
X378610Y232152D01*
Y234251D01*
X379659D02*
Y231103D01*
X381233D01*
X381758Y231628D01*
Y233727D01*
X381233Y234251D01*
X379659D01*
X384382Y231103D02*
Y234251D01*
X382808Y232677D01*
X384907D01*
X432022Y234251D02*
Y232152D01*
X433072Y231103D01*
X434121Y232152D01*
Y234251D01*
X435171D02*
Y231103D01*
X436745D01*
X437270Y231628D01*
Y233727D01*
X436745Y234251D01*
X435171D01*
X440419Y231103D02*
X438319D01*
X440419Y233202D01*
Y233727D01*
X439894Y234251D01*
X438844D01*
X438319Y233727D01*
X391602Y234251D02*
Y232152D01*
X392652Y231103D01*
X393701Y232152D01*
Y234251D01*
X394751D02*
Y231103D01*
X396325D01*
X396850Y231628D01*
Y233727D01*
X396325Y234251D01*
X394751D01*
X397899Y231103D02*
X398949D01*
X398424D01*
Y234251D01*
X397899Y233727D01*
X286024Y277955D02*
X288123D01*
X289173Y279004D01*
X288123Y280054D01*
X286024D01*
Y281103D02*
X289173D01*
Y282677D01*
X288648Y283202D01*
X286549D01*
X286024Y282677D01*
Y281103D01*
X289173Y284252D02*
Y285301D01*
Y284776D01*
X286024D01*
X286549Y284252D01*
Y286876D02*
X286024Y287400D01*
Y288450D01*
X286549Y288975D01*
X287074D01*
X287598Y288450D01*
Y287925D01*
Y288450D01*
X288123Y288975D01*
X288648D01*
X289173Y288450D01*
Y287400D01*
X288648Y286876D01*
X251182Y367849D02*
X254330D01*
Y369423D01*
X253805Y369948D01*
X251706D01*
X251182Y369423D01*
Y367849D01*
X254330Y370998D02*
X252231D01*
X251182Y372047D01*
X252231Y373097D01*
X254330D01*
X252756D01*
Y370998D01*
X251706Y374146D02*
X251182Y374671D01*
Y375721D01*
X251706Y376245D01*
X252231D01*
X252756Y375721D01*
Y375196D01*
Y375721D01*
X253281Y376245D01*
X253805D01*
X254330Y375721D01*
Y374671D01*
X253805Y374146D01*
X305972Y362861D02*
X305447Y363385D01*
X304398D01*
X303873Y362861D01*
Y360761D01*
X304398Y360237D01*
X305447D01*
X305972Y360761D01*
X309120Y360237D02*
X307021D01*
X309120Y362336D01*
Y362861D01*
X308596Y363385D01*
X307546D01*
X307021Y362861D01*
X311744Y360237D02*
Y363385D01*
X310170Y361811D01*
X312269D01*
X305775Y353412D02*
X305250Y353937D01*
X304201D01*
X303676Y353412D01*
Y351313D01*
X304201Y350788D01*
X305250D01*
X305775Y351313D01*
X308924Y350788D02*
X306824D01*
X308924Y352887D01*
Y353412D01*
X308399Y353937D01*
X307349D01*
X306824Y353412D01*
X309973D02*
X310498Y353937D01*
X311547D01*
X312072Y353412D01*
Y352887D01*
X311547Y352362D01*
X311023D01*
X311547D01*
X312072Y351837D01*
Y351313D01*
X311547Y350788D01*
X310498D01*
X309973Y351313D01*
X341141Y222377D02*
X337993D01*
Y223951D01*
X338517Y224476D01*
X339567D01*
X340092Y223951D01*
Y222377D01*
Y223426D02*
X341141Y224476D01*
Y227100D02*
X337993D01*
X339567Y225525D01*
Y227624D01*
X337993Y230773D02*
X338517Y229723D01*
X339567Y228674D01*
X340616D01*
X341141Y229199D01*
Y230248D01*
X340616Y230773D01*
X340092D01*
X339567Y230248D01*
Y228674D01*
X331299Y222377D02*
X328150D01*
Y223951D01*
X328675Y224476D01*
X329724D01*
X330249Y223951D01*
Y222377D01*
Y223426D02*
X331299Y224476D01*
Y227100D02*
X328150D01*
X329724Y225525D01*
Y227624D01*
X328150Y230773D02*
Y228674D01*
X329724D01*
X329200Y229723D01*
Y230248D01*
X329724Y230773D01*
X330774D01*
X331299Y230248D01*
Y229199D01*
X330774Y228674D01*
X336220Y222377D02*
X333071D01*
Y223951D01*
X333596Y224476D01*
X334646D01*
X335170Y223951D01*
Y222377D01*
Y223426D02*
X336220Y224476D01*
Y227100D02*
X333071D01*
X334646Y225525D01*
Y227624D01*
X336220Y230248D02*
X333071D01*
X334646Y228674D01*
Y230773D01*
X326377Y222377D02*
X323229D01*
Y223951D01*
X323754Y224476D01*
X324803D01*
X325328Y223951D01*
Y222377D01*
Y223426D02*
X326377Y224476D01*
Y227100D02*
X323229D01*
X324803Y225525D01*
Y227624D01*
X323754Y228674D02*
X323229Y229199D01*
Y230248D01*
X323754Y230773D01*
X324278D01*
X324803Y230248D01*
Y229723D01*
Y230248D01*
X325328Y230773D01*
X325853D01*
X326377Y230248D01*
Y229199D01*
X325853Y228674D01*
X321456Y222377D02*
X318308D01*
Y223951D01*
X318832Y224476D01*
X319882D01*
X320407Y223951D01*
Y222377D01*
Y223426D02*
X321456Y224476D01*
Y227100D02*
X318308D01*
X319882Y225525D01*
Y227624D01*
X321456Y230773D02*
Y228674D01*
X319357Y230773D01*
X318832D01*
X318308Y230248D01*
Y229199D01*
X318832Y228674D01*
X377558Y301838D02*
X374410D01*
Y303413D01*
X374935Y303938D01*
X375984D01*
X376509Y303413D01*
Y301838D01*
Y302888D02*
X377558Y303938D01*
Y306561D02*
X374410D01*
X375984Y304987D01*
Y307086D01*
X377558Y308136D02*
Y309185D01*
Y308660D01*
X374410D01*
X374935Y308136D01*
X363385Y301314D02*
X360237D01*
Y302888D01*
X360761Y303413D01*
X361811D01*
X362336Y302888D01*
Y301314D01*
Y302363D02*
X363385Y303413D01*
Y306037D02*
X360237D01*
X361811Y304462D01*
Y306561D01*
X360761Y307611D02*
X360237Y308136D01*
Y309185D01*
X360761Y309710D01*
X362860D01*
X363385Y309185D01*
Y308136D01*
X362860Y307611D01*
X360761D01*
X372834Y301314D02*
X369686D01*
Y302888D01*
X370210Y303413D01*
X371260D01*
X371785Y302888D01*
Y301314D01*
Y302363D02*
X372834Y303413D01*
X370210Y304462D02*
X369686Y304987D01*
Y306037D01*
X370210Y306561D01*
X370735D01*
X371260Y306037D01*
Y305512D01*
Y306037D01*
X371785Y306561D01*
X372309D01*
X372834Y306037D01*
Y304987D01*
X372309Y304462D01*
Y307611D02*
X372834Y308136D01*
Y309185D01*
X372309Y309710D01*
X370210D01*
X369686Y309185D01*
Y308136D01*
X370210Y307611D01*
X370735D01*
X371260Y308136D01*
Y309710D01*
X368110Y301314D02*
X364961D01*
Y302888D01*
X365486Y303413D01*
X366535D01*
X367060Y302888D01*
Y301314D01*
Y302363D02*
X368110Y303413D01*
X365486Y304462D02*
X364961Y304987D01*
Y306037D01*
X365486Y306561D01*
X366011D01*
X366535Y306037D01*
Y305512D01*
Y306037D01*
X367060Y306561D01*
X367585D01*
X368110Y306037D01*
Y304987D01*
X367585Y304462D01*
X365486Y307611D02*
X364961Y308136D01*
Y309185D01*
X365486Y309710D01*
X366011D01*
X366535Y309185D01*
X367060Y309710D01*
X367585D01*
X368110Y309185D01*
Y308136D01*
X367585Y307611D01*
X367060D01*
X366535Y308136D01*
X366011Y307611D01*
X365486D01*
X366535Y308136D02*
Y309185D01*
X358661Y301314D02*
X355512D01*
Y302888D01*
X356037Y303413D01*
X357087D01*
X357611Y302888D01*
Y301314D01*
Y302363D02*
X358661Y303413D01*
X356037Y304462D02*
X355512Y304987D01*
Y306037D01*
X356037Y306561D01*
X356562D01*
X357087Y306037D01*
Y305512D01*
Y306037D01*
X357611Y306561D01*
X358136D01*
X358661Y306037D01*
Y304987D01*
X358136Y304462D01*
X355512Y307611D02*
Y309710D01*
X356037D01*
X358136Y307611D01*
X358661D01*
X353937Y301314D02*
X350788D01*
Y302888D01*
X351313Y303413D01*
X352362D01*
X352887Y302888D01*
Y301314D01*
Y302363D02*
X353937Y303413D01*
X351313Y304462D02*
X350788Y304987D01*
Y306037D01*
X351313Y306561D01*
X351837D01*
X352362Y306037D01*
Y305512D01*
Y306037D01*
X352887Y306561D01*
X353412D01*
X353937Y306037D01*
Y304987D01*
X353412Y304462D01*
X350788Y309710D02*
X351313Y308660D01*
X352362Y307611D01*
X353412D01*
X353937Y308136D01*
Y309185D01*
X353412Y309710D01*
X352887D01*
X352362Y309185D01*
Y307611D01*
X322573Y348149D02*
Y345001D01*
X324148D01*
X324673Y345525D01*
Y347624D01*
X324148Y348149D01*
X322573D01*
X325722D02*
Y345001D01*
X327296D01*
X327821Y345525D01*
Y347624D01*
X327296Y348149D01*
X325722D01*
X330970Y345001D02*
X328871D01*
X330970Y347100D01*
Y347624D01*
X330445Y348149D01*
X329396D01*
X328871Y347624D01*
X404922Y346917D02*
Y349016D01*
X405446D01*
X407546Y346917D01*
X408070D01*
Y349016D01*
Y350065D02*
Y351115D01*
Y350590D01*
X404922D01*
X405446Y350065D01*
X413124Y332152D02*
X412599Y332677D01*
X411550D01*
X411025Y332152D01*
Y330053D01*
X411550Y329528D01*
X412599D01*
X413124Y330053D01*
X414174Y329528D02*
X415223D01*
X414698D01*
Y332677D01*
X414174Y332152D01*
X416797D02*
X417322Y332677D01*
X418372D01*
X418896Y332152D01*
Y330053D01*
X418372Y329528D01*
X417322D01*
X416797Y330053D01*
Y332152D01*
X410761Y340420D02*
X410237Y339895D01*
Y338846D01*
X410761Y338321D01*
X412860D01*
X413385Y338846D01*
Y339895D01*
X412860Y340420D01*
Y341470D02*
X413385Y341994D01*
Y343044D01*
X412860Y343569D01*
X410761D01*
X410237Y343044D01*
Y341994D01*
X410761Y341470D01*
X411286D01*
X411811Y341994D01*
Y343569D01*
X377231Y381955D02*
X376706Y382480D01*
X375657D01*
X375132Y381955D01*
Y379856D01*
X375657Y379331D01*
X376706D01*
X377231Y379856D01*
X378281Y381955D02*
X378805Y382480D01*
X379855D01*
X380380Y381955D01*
Y381430D01*
X379855Y380906D01*
X380380Y380381D01*
Y379856D01*
X379855Y379331D01*
X378805D01*
X378281Y379856D01*
Y380381D01*
X378805Y380906D01*
X378281Y381430D01*
Y381955D01*
X378805Y380906D02*
X379855D01*
X399081Y330183D02*
X398557Y330708D01*
X397507D01*
X396983Y330183D01*
Y328084D01*
X397507Y327560D01*
X398557D01*
X399081Y328084D01*
X402230Y330708D02*
X401181Y330183D01*
X400131Y329134D01*
Y328084D01*
X400656Y327560D01*
X401705D01*
X402230Y328084D01*
Y328609D01*
X401705Y329134D01*
X400131D01*
X400525Y349869D02*
X400000Y349344D01*
Y348295D01*
X400525Y347770D01*
X402624D01*
X403149Y348295D01*
Y349344D01*
X402624Y349869D01*
X400000Y353017D02*
Y350919D01*
X401575D01*
X401050Y351968D01*
Y352493D01*
X401575Y353017D01*
X402624D01*
X403149Y352493D01*
Y351443D01*
X402624Y350919D01*
X419292Y314896D02*
Y316995D01*
X419817D01*
X421916Y314896D01*
X422440D01*
Y316995D01*
X421916Y320144D02*
X419817D01*
X419292Y319619D01*
Y318570D01*
X419817Y318045D01*
X421916D01*
X422440Y318570D01*
Y319619D01*
X421391Y319094D02*
X422440Y320144D01*
Y319619D02*
X421916Y320144D01*
X422440Y323293D02*
Y321194D01*
X420341Y323293D01*
X419817D01*
X419292Y322768D01*
Y321718D01*
X419817Y321194D01*
X405774Y332152D02*
X405250Y332677D01*
X404200D01*
X403675Y332152D01*
Y330053D01*
X404200Y329528D01*
X405250D01*
X405774Y330053D01*
X406824Y332677D02*
X408923D01*
Y332152D01*
X406824Y330053D01*
Y329528D01*
X340289Y342979D02*
X339764Y342454D01*
Y341405D01*
X340289Y340880D01*
X342388D01*
X342913Y341405D01*
Y342454D01*
X342388Y342979D01*
X342913Y345603D02*
X339764D01*
X341339Y344029D01*
Y346128D01*
X282416Y217322D02*
X284515Y214174D01*
Y217322D02*
X282416Y214174D01*
X285565D02*
Y217322D01*
X287139D01*
X287664Y216798D01*
Y215748D01*
X287139Y215223D01*
X285565D01*
X290812Y214174D02*
X288713D01*
X290812Y216273D01*
Y216798D01*
X290287Y217322D01*
X289238D01*
X288713Y216798D01*
X291274Y245866D02*
Y243767D01*
X292324Y242717D01*
X293373Y243767D01*
Y245866D01*
X294423D02*
Y242717D01*
X295997D01*
X296522Y243242D01*
Y245341D01*
X295997Y245866D01*
X294423D01*
X297571Y245341D02*
X298096Y245866D01*
X299146D01*
X299671Y245341D01*
Y244816D01*
X299146Y244291D01*
X299671Y243767D01*
Y243242D01*
X299146Y242717D01*
X298096D01*
X297571Y243242D01*
Y243767D01*
X298096Y244291D01*
X297571Y244816D01*
Y245341D01*
X298096Y244291D02*
X299146D01*
X420736Y336614D02*
X422835D01*
Y336089D01*
X420736Y333990D01*
Y333465D01*
X422835D01*
X425984Y333990D02*
Y336089D01*
X425459Y336614D01*
X424409D01*
X423885Y336089D01*
Y333990D01*
X424409Y333465D01*
X425459D01*
X424934Y334515D02*
X425984Y333465D01*
X425459D02*
X425984Y333990D01*
X427033Y333465D02*
X428083D01*
X427558D01*
Y336614D01*
X427033Y336089D01*
X410761Y347507D02*
X410237Y346982D01*
Y345933D01*
X410761Y345408D01*
X412860D01*
X413385Y345933D01*
Y346982D01*
X412860Y347507D01*
X410761Y348556D02*
X410237Y349081D01*
Y350131D01*
X410761Y350655D01*
X411286D01*
X411811Y350131D01*
Y349606D01*
Y350131D01*
X412336Y350655D01*
X412860D01*
X413385Y350131D01*
Y349081D01*
X412860Y348556D01*
X366011Y381955D02*
X365486Y382480D01*
X364436D01*
X363912Y381955D01*
Y379856D01*
X364436Y379331D01*
X365486D01*
X366011Y379856D01*
X369159Y379331D02*
X367060D01*
X369159Y381430D01*
Y381955D01*
X368635Y382480D01*
X367585D01*
X367060Y381955D01*
X445802Y387795D02*
X447901Y384646D01*
Y387795D02*
X445802Y384646D01*
X451050Y387270D02*
X450525Y387795D01*
X449475D01*
X448950Y387270D01*
Y386745D01*
X449475Y386221D01*
X450525D01*
X451050Y385696D01*
Y385171D01*
X450525Y384646D01*
X449475D01*
X448950Y385171D01*
X454198Y387795D02*
X452099D01*
Y386221D01*
X453149Y386745D01*
X453673D01*
X454198Y386221D01*
Y385171D01*
X453673Y384646D01*
X452624D01*
X452099Y385171D01*
X246457Y248821D02*
X248556D01*
X249606Y249870D01*
X248556Y250920D01*
X246457D01*
Y251969D02*
X249606D01*
Y253544D01*
X249081Y254068D01*
X246982D01*
X246457Y253544D01*
Y251969D01*
X249606Y255118D02*
Y256167D01*
Y255643D01*
X246457D01*
X246982Y255118D01*
X249606Y259841D02*
Y257742D01*
X247507Y259841D01*
X246982D01*
X246457Y259316D01*
Y258266D01*
X246982Y257742D01*
X358400Y389370D02*
X360499Y386221D01*
Y389370D02*
X358400Y386221D01*
X363648Y388845D02*
X363123Y389370D01*
X362074D01*
X361549Y388845D01*
Y388320D01*
X362074Y387795D01*
X363123D01*
X363648Y387270D01*
Y386746D01*
X363123Y386221D01*
X362074D01*
X361549Y386746D01*
X364698Y388845D02*
X365222Y389370D01*
X366272D01*
X366796Y388845D01*
Y388320D01*
X366272Y387795D01*
X365747D01*
X366272D01*
X366796Y387270D01*
Y386746D01*
X366272Y386221D01*
X365222D01*
X364698Y386746D01*
X383597Y389370D02*
X385696Y386221D01*
Y389370D02*
X383597Y386221D01*
X388845Y388845D02*
X388320Y389370D01*
X387270D01*
X386746Y388845D01*
Y388320D01*
X387270Y387795D01*
X388320D01*
X388845Y387270D01*
Y386746D01*
X388320Y386221D01*
X387270D01*
X386746Y386746D01*
X391469Y386221D02*
Y389370D01*
X389894Y387795D01*
X391993D01*
X344752Y217126D02*
X346851Y213977D01*
Y217126D02*
X344752Y213977D01*
X349999Y216601D02*
X349475Y217126D01*
X348425D01*
X347900Y216601D01*
Y216076D01*
X348425Y215551D01*
X349475D01*
X349999Y215026D01*
Y214502D01*
X349475Y213977D01*
X348425D01*
X347900Y214502D01*
X351049Y213977D02*
X352099D01*
X351574D01*
Y217126D01*
X351049Y216601D01*
X398558Y216929D02*
X400657Y213780D01*
Y216929D02*
X398558Y213780D01*
X403805Y216404D02*
X403281Y216929D01*
X402231D01*
X401706Y216404D01*
Y215879D01*
X402231Y215354D01*
X403281D01*
X403805Y214830D01*
Y214305D01*
X403281Y213780D01*
X402231D01*
X401706Y214305D01*
X406954Y213780D02*
X404855D01*
X406954Y215879D01*
Y216404D01*
X406429Y216929D01*
X405380D01*
X404855Y216404D01*
X212993Y388057D02*
X212468Y388582D01*
X211418D01*
X210894Y388057D01*
Y387533D01*
X211418Y387008D01*
X212468D01*
X212993Y386483D01*
Y385958D01*
X212468Y385434D01*
X211418D01*
X210894Y385958D01*
X214042Y388582D02*
Y385434D01*
X215616D01*
X216141Y385958D01*
Y386483D01*
X215616Y387008D01*
X214042D01*
X215616D01*
X216141Y387533D01*
Y388057D01*
X215616Y388582D01*
X214042D01*
X217191Y385434D02*
X218240D01*
X217716D01*
Y388582D01*
X217191Y388057D01*
X198558Y269685D02*
X200657Y266536D01*
Y269685D02*
X198558Y266536D01*
X203805Y269160D02*
X203281Y269685D01*
X202231D01*
X201706Y269160D01*
Y268635D01*
X202231Y268110D01*
X203281D01*
X203805Y267585D01*
Y267061D01*
X203281Y266536D01*
X202231D01*
X201706Y267061D01*
X206954Y269685D02*
X205905Y269160D01*
X204855Y268110D01*
Y267061D01*
X205380Y266536D01*
X206429D01*
X206954Y267061D01*
Y267585D01*
X206429Y268110D01*
X204855D01*
X273406Y293708D02*
Y295807D01*
Y294758D01*
X276555D01*
Y296857D02*
Y297906D01*
Y297381D01*
X273406D01*
X273931Y296857D01*
X198558Y264566D02*
X200657Y261418D01*
Y264566D02*
X198558Y261418D01*
X203805Y264042D02*
X203281Y264566D01*
X202231D01*
X201706Y264042D01*
Y263517D01*
X202231Y262992D01*
X203281D01*
X203805Y262467D01*
Y261943D01*
X203281Y261418D01*
X202231D01*
X201706Y261943D01*
X204855Y264566D02*
X206954D01*
Y264042D01*
X204855Y261943D01*
Y261418D01*
X230709Y360763D02*
X233858Y362862D01*
X230709D02*
X233858Y360763D01*
X231234Y366010D02*
X230709Y365485D01*
Y364436D01*
X231234Y363911D01*
X231759D01*
X232283Y364436D01*
Y365485D01*
X232808Y366010D01*
X233333D01*
X233858Y365485D01*
Y364436D01*
X233333Y363911D01*
X231234Y367060D02*
X230709Y367584D01*
Y368634D01*
X231234Y369159D01*
X231759D01*
X232283Y368634D01*
X232808Y369159D01*
X233333D01*
X233858Y368634D01*
Y367584D01*
X233333Y367060D01*
X232808D01*
X232283Y367584D01*
X231759Y367060D01*
X231234D01*
X232283Y367584D02*
Y368634D01*
X266471Y228149D02*
Y225001D01*
X268045D01*
X268570Y225525D01*
Y227624D01*
X268045Y228149D01*
X266471D01*
X269620Y225001D02*
Y227100D01*
X270669Y228149D01*
X271719Y227100D01*
Y225001D01*
Y226575D01*
X269620D01*
X274867Y225001D02*
X272768D01*
X274867Y227100D01*
Y227624D01*
X274343Y228149D01*
X273293D01*
X272768Y227624D01*
X346917Y327559D02*
Y324410D01*
X348492D01*
X349016Y324935D01*
Y327034D01*
X348492Y327559D01*
X346917D01*
X350066D02*
Y324410D01*
X351640D01*
X352165Y324935D01*
Y327034D01*
X351640Y327559D01*
X350066D01*
X353214Y324410D02*
X354264D01*
X353739D01*
Y327559D01*
X353214Y327034D01*
D14*
X280709Y344488D02*
X309842Y344488D01*
X280709Y338976D02*
X280709Y344488D01*
X309842Y338976D02*
Y344488D01*
X280709Y293307D02*
X309842Y293307D01*
X280709Y298819D02*
X280709Y293307D01*
X309842Y293307D02*
Y298819D01*
D15*
X296851Y279134D02*
D03*
X257087Y252559D02*
D03*
D16*
X297048Y275788D02*
D03*
X257283Y249212D02*
D03*
D17*
X242520Y381890D02*
D03*
D18*
X265575Y392717D02*
D03*
X301575Y202717D02*
D03*
X391575D02*
D03*
D19*
X371575Y392717D02*
D03*
D20*
X391437Y331791D02*
D03*
M02*
