G04*
G04 #@! TF.GenerationSoftware,Altium Limited,Altium Designer,23.3.1 (30)*
G04*
G04 Layer_Physical_Order=4*
G04 Layer_Color=15441517*
%FSLAX25Y25*%
%MOIN*%
G70*
G04*
G04 #@! TF.SameCoordinates,4397C4A1-B4A0-4737-946D-6E65BF44214A*
G04*
G04*
G04 #@! TF.FilePolarity,Positive*
G04*
G01*
G75*
%ADD13C,0.00787*%
%ADD141C,0.01575*%
%ADD142R,0.05906X0.07480*%
%ADD143O,0.05906X0.07480*%
%ADD144O,0.13780X0.07874*%
%ADD145O,0.07874X0.05906*%
%ADD146O,0.06299X0.04921*%
G04:AMPARAMS|DCode=147|XSize=49.21mil|YSize=62.99mil|CornerRadius=12.3mil|HoleSize=0mil|Usage=FLASHONLY|Rotation=90.000|XOffset=0mil|YOffset=0mil|HoleType=Round|Shape=RoundedRectangle|*
%AMROUNDEDRECTD147*
21,1,0.04921,0.03839,0,0,90.0*
21,1,0.02461,0.06299,0,0,90.0*
1,1,0.02461,0.01919,0.01230*
1,1,0.02461,0.01919,-0.01230*
1,1,0.02461,-0.01919,-0.01230*
1,1,0.02461,-0.01919,0.01230*
%
%ADD147ROUNDEDRECTD147*%
%ADD148O,0.07874X0.04331*%
%ADD149O,0.09055X0.04331*%
%ADD150O,0.07874X0.14173*%
%ADD151C,0.10630*%
%ADD152O,0.14173X0.07874*%
%ADD153C,0.12598*%
%ADD154C,0.02165*%
G36*
X229921Y400984D02*
X236221Y400984D01*
Y381890D01*
X236220Y381890D01*
X236220Y381791D01*
X236213Y381595D01*
X236199Y381398D01*
X236178Y381203D01*
X236150Y381008D01*
X236115Y380814D01*
X236073Y380622D01*
X236025Y380431D01*
X235969Y380242D01*
X235907Y380056D01*
X235839Y379871D01*
X235763Y379690D01*
X235682Y379511D01*
X235593Y379335D01*
X235499Y379162D01*
X235399Y378993D01*
X235292Y378827D01*
X235180Y378665D01*
X235062Y378508D01*
X234939Y378355D01*
X234810Y378206D01*
X234676Y378062D01*
X234537Y377923D01*
X234392Y377789D01*
X234244Y377660D01*
X234090Y377536D01*
X233933Y377418D01*
X233771Y377306D01*
X233606Y377200D01*
X233436Y377099D01*
X233264Y377005D01*
X233088Y376917D01*
X232909Y376835D01*
X232727Y376760D01*
X232543Y376691D01*
X232356Y376629D01*
X232167Y376573D01*
X231976Y376525D01*
X231784Y376483D01*
X231591Y376448D01*
X231396Y376420D01*
X231200Y376399D01*
X231004Y376385D01*
X230808Y376378D01*
X229528Y376378D01*
X229481Y376378D01*
X229478Y376378D01*
X228346D01*
X228346Y376378D01*
X228291Y376377D01*
X228181Y376371D01*
X228071Y376359D01*
X227962Y376340D01*
X227855Y376315D01*
X227749Y376285D01*
X227644Y376249D01*
X227542Y376206D01*
X227443Y376158D01*
X227346Y376105D01*
X227253Y376046D01*
X227163Y375982D01*
X227076Y375913D01*
X226994Y375840D01*
X226916Y375762D01*
X226842Y375679D01*
X226774Y375593D01*
X226710Y375503D01*
X226651Y375410D01*
X226597Y375313D01*
X226550Y375214D01*
X226507Y375112D01*
X226471Y375007D01*
X226440Y374901D01*
X226416Y374794D01*
X226397Y374685D01*
X226385Y374575D01*
X226379Y374465D01*
X226378Y374410D01*
Y355512D01*
X226378Y355512D01*
X226379Y355457D01*
X226385Y355346D01*
X226397Y355237D01*
X226416Y355128D01*
X226440Y355020D01*
X226471Y354914D01*
X226507Y354810D01*
X226550Y354708D01*
X226598Y354608D01*
X226651Y354512D01*
X226710Y354418D01*
X226774Y354328D01*
X226842Y354242D01*
X226916Y354159D01*
X226994Y354081D01*
X227076Y354008D01*
X227163Y353939D01*
X227253Y353875D01*
X227346Y353816D01*
X227443Y353763D01*
X227542Y353715D01*
X227644Y353673D01*
X227749Y353636D01*
X227855Y353606D01*
X227962Y353581D01*
X228071Y353563D01*
X228181Y353550D01*
X228291Y353544D01*
X228346Y353543D01*
X229133Y353543D01*
X229134Y353543D01*
X229134Y353543D01*
X229167Y353540D01*
X229596Y353493D01*
X229675Y353475D01*
X229791Y353442D01*
X229906Y353401D01*
X230018Y353355D01*
X230128Y353302D01*
X230234Y353244D01*
X230337Y353179D01*
X230436Y353109D01*
X230531Y353033D01*
X230622Y352952D01*
X230708Y352866D01*
X230789Y352776D01*
X230865Y352680D01*
X230935Y352581D01*
X231000Y352479D01*
X231058Y352372D01*
X231111Y352263D01*
X231158Y352151D01*
X231198Y352036D01*
X231231Y351919D01*
X231258Y351801D01*
X231279Y351681D01*
X231292Y351560D01*
X231299Y351439D01*
X231299Y351378D01*
X231299Y347577D01*
X231292Y347456D01*
X231279Y347335D01*
X231258Y347215D01*
X231231Y347097D01*
X231198Y346980D01*
X231158Y346865D01*
X231111Y346753D01*
X231058Y346643D01*
X231000Y346537D01*
X230935Y346434D01*
X230865Y346335D01*
X230789Y346240D01*
X230708Y346150D01*
X230622Y346064D01*
X230531Y345983D01*
X230436Y345907D01*
X230337Y345837D01*
X230234Y345772D01*
X230128Y345713D01*
X230019Y345660D01*
X229906Y345614D01*
X229792Y345574D01*
X229675Y345540D01*
X229556Y345513D01*
X229437Y345493D01*
X229316Y345479D01*
X229195Y345472D01*
X204724D01*
X204619Y345472D01*
X204408Y345480D01*
X204198Y345495D01*
X203988Y345517D01*
X203780Y345548D01*
X203572Y345585D01*
X203366Y345630D01*
X203162Y345682D01*
X202959Y345741D01*
X202759Y345808D01*
X202562Y345882D01*
X202367Y345962D01*
X202175Y346050D01*
X201987Y346144D01*
X201802Y346245D01*
X201620Y346353D01*
X201443Y346467D01*
X201270Y346587D01*
X201101Y346713D01*
X200937Y346846D01*
X200777Y346984D01*
X200623Y347128D01*
X200474Y347277D01*
X200330Y347431D01*
X200192Y347590D01*
X200060Y347754D01*
X199934Y347923D01*
X199813Y348096D01*
X199699Y348274D01*
X199592Y348455D01*
X199491Y348640D01*
X199396Y348829D01*
X199309Y349021D01*
X199228Y349215D01*
X199154Y349413D01*
X199088Y349613D01*
X199028Y349815D01*
X198976Y350020D01*
X198931Y350226D01*
X198894Y350433D01*
X198864Y350642D01*
X198841Y350851D01*
X198826Y351062D01*
X198819Y351273D01*
X198819Y351378D01*
Y389764D01*
X198819Y389869D01*
X198826Y390080D01*
X198841Y390290D01*
X198864Y390500D01*
X198894Y390709D01*
X198931Y390916D01*
X198976Y391122D01*
X199028Y391326D01*
X199088Y391529D01*
X199154Y391729D01*
X199228Y391927D01*
X199309Y392121D01*
X199396Y392313D01*
X199490Y392502D01*
X199592Y392687D01*
X199699Y392868D01*
X199813Y393045D01*
X199933Y393219D01*
X200060Y393388D01*
X200192Y393552D01*
X200330Y393711D01*
X200474Y393865D01*
X200623Y394014D01*
X200777Y394158D01*
X200937Y394296D01*
X201101Y394428D01*
X201270Y394555D01*
X201443Y394675D01*
X201620Y394789D01*
X201801Y394897D01*
X201987Y394998D01*
X202175Y395092D01*
X202367Y395180D01*
X202562Y395260D01*
X202759Y395334D01*
X202959Y395401D01*
X203162Y395460D01*
X203366Y395512D01*
X203572Y395557D01*
X203780Y395594D01*
X203988Y395624D01*
X204198Y395647D01*
X204408Y395662D01*
X204619Y395669D01*
X204724Y395669D01*
X222441Y395669D01*
X222441Y395669D01*
X222442Y395669D01*
X222499Y395670D01*
X222613Y395675D01*
X222616Y395676D01*
X222731Y395687D01*
X222732Y395687D01*
X222847Y395704D01*
X222847Y395704D01*
X222962Y395727D01*
X223075Y395755D01*
X223186Y395789D01*
X223296Y395828D01*
X223404Y395873D01*
X223509Y395923D01*
X223612Y395978D01*
X223712Y396038D01*
X223809Y396103D01*
X223903Y396172D01*
X223993Y396246D01*
X224079Y396324D01*
X224121Y396365D01*
X227905Y400149D01*
X227905Y400149D01*
X227905Y400149D01*
X228262Y400453D01*
X228279Y400465D01*
X228395Y400543D01*
X228515Y400615D01*
X228639Y400681D01*
X228765Y400741D01*
X228895Y400794D01*
X229026Y400842D01*
X229160Y400882D01*
X229296Y400916D01*
X229433Y400943D01*
X229572Y400964D01*
X229711Y400978D01*
X229851Y400984D01*
X229921Y400984D01*
D02*
G37*
G36*
X360087Y393234D02*
X360016Y393267D01*
X359939Y393283D01*
X359855Y393282D01*
X359766Y393264D01*
X359671Y393229D01*
X359571Y393178D01*
X359464Y393110D01*
X359352Y393025D01*
X359233Y392923D01*
X359109Y392805D01*
X358426Y393235D01*
X358541Y393355D01*
X358636Y393467D01*
X358712Y393571D01*
X358769Y393666D01*
X358806Y393754D01*
X358824Y393832D01*
X358822Y393903D01*
X358801Y393965D01*
X358761Y394019D01*
X358701Y394065D01*
X360087Y393234D01*
D02*
G37*
G36*
X437560Y393231D02*
X437494Y393205D01*
X437435Y393161D01*
X437385Y393099D01*
X437342Y393020D01*
X437306Y392923D01*
X437279Y392809D01*
X437260Y392676D01*
X437248Y392527D01*
X437244Y392359D01*
X436457D01*
X436453Y392527D01*
X436441Y392676D01*
X436422Y392809D01*
X436394Y392923D01*
X436359Y393020D01*
X436316Y393099D01*
X436266Y393161D01*
X436207Y393205D01*
X436141Y393231D01*
X436066Y393240D01*
X437634D01*
X437560Y393231D01*
D02*
G37*
G36*
X387560D02*
X387494Y393205D01*
X387435Y393161D01*
X387385Y393099D01*
X387342Y393020D01*
X387306Y392923D01*
X387279Y392809D01*
X387260Y392676D01*
X387248Y392527D01*
X387244Y392359D01*
X386457D01*
X386453Y392527D01*
X386441Y392676D01*
X386422Y392809D01*
X386394Y392923D01*
X386359Y393020D01*
X386316Y393099D01*
X386265Y393161D01*
X386207Y393205D01*
X386141Y393231D01*
X386067Y393240D01*
X387634D01*
X387560Y393231D01*
D02*
G37*
G36*
X447560Y393231D02*
X447494Y393205D01*
X447435Y393161D01*
X447385Y393099D01*
X447342Y393020D01*
X447306Y392923D01*
X447279Y392809D01*
X447260Y392676D01*
X447248Y392527D01*
X447244Y392359D01*
X446457D01*
X446453Y392527D01*
X446441Y392676D01*
X446422Y392809D01*
X446394Y392923D01*
X446359Y393020D01*
X446316Y393099D01*
X446266Y393161D01*
X446207Y393205D01*
X446141Y393231D01*
X446067Y393240D01*
X447634D01*
X447560Y393231D01*
D02*
G37*
G36*
X351560D02*
X351494Y393205D01*
X351435Y393161D01*
X351385Y393099D01*
X351342Y393020D01*
X351307Y392923D01*
X351279Y392809D01*
X351260Y392676D01*
X351248Y392527D01*
X351244Y392359D01*
X350457D01*
X350453Y392527D01*
X350441Y392676D01*
X350422Y392809D01*
X350394Y392923D01*
X350359Y393020D01*
X350316Y393099D01*
X350266Y393161D01*
X350207Y393205D01*
X350141Y393231D01*
X350066Y393240D01*
X351634D01*
X351560Y393231D01*
D02*
G37*
G36*
X347607Y390356D02*
X347686Y390293D01*
X347767Y390237D01*
X347852Y390189D01*
X347939Y390148D01*
X348028Y390115D01*
X348121Y390090D01*
X348216Y390072D01*
X348314Y390062D01*
X348414Y390059D01*
X347343Y388987D01*
X347340Y389088D01*
X347329Y389186D01*
X347312Y389281D01*
X347286Y389373D01*
X347253Y389463D01*
X347212Y389550D01*
X347164Y389634D01*
X347109Y389716D01*
X347045Y389794D01*
X346974Y389871D01*
X347531Y390427D01*
X347607Y390356D01*
D02*
G37*
G36*
X343321Y388218D02*
X343248Y388288D01*
X343172Y388350D01*
X343092Y388404D01*
X343008Y388452D01*
X342922Y388492D01*
X342831Y388524D01*
X342738Y388550D01*
X342641Y388568D01*
X342540Y388579D01*
X342436Y388583D01*
Y389370D01*
X342540Y389374D01*
X342641Y389385D01*
X342738Y389403D01*
X342831Y389428D01*
X342922Y389461D01*
X343008Y389501D01*
X343092Y389548D01*
X343172Y389603D01*
X343248Y389665D01*
X343321Y389734D01*
Y388218D01*
D02*
G37*
G36*
X333468Y381082D02*
X333479Y380981D01*
X333497Y380884D01*
X333523Y380791D01*
X333556Y380700D01*
X333596Y380614D01*
X333643Y380530D01*
X333698Y380450D01*
X333759Y380374D01*
X333829Y380301D01*
X332313D01*
X332382Y380374D01*
X332444Y380450D01*
X332499Y380530D01*
X332546Y380614D01*
X332586Y380700D01*
X332619Y380791D01*
X332644Y380884D01*
X332663Y380981D01*
X332674Y381082D01*
X332677Y381186D01*
X333465D01*
X333468Y381082D01*
D02*
G37*
G36*
X329531D02*
X329542Y380981D01*
X329560Y380884D01*
X329586Y380791D01*
X329619Y380700D01*
X329659Y380614D01*
X329706Y380530D01*
X329761Y380450D01*
X329822Y380374D01*
X329892Y380301D01*
X328376D01*
X328445Y380374D01*
X328507Y380450D01*
X328562Y380530D01*
X328609Y380614D01*
X328649Y380700D01*
X328682Y380791D01*
X328707Y380884D01*
X328726Y380981D01*
X328736Y381082D01*
X328740Y381186D01*
X329528D01*
X329531Y381082D01*
D02*
G37*
G36*
X379980Y381397D02*
X380057Y381335D01*
X380137Y381281D01*
X380220Y381234D01*
X380307Y381193D01*
X380397Y381161D01*
X380491Y381135D01*
X380588Y381117D01*
X380688Y381106D01*
X380792Y381102D01*
Y380315D01*
X380688Y380311D01*
X380588Y380300D01*
X380491Y380282D01*
X380397Y380257D01*
X380307Y380224D01*
X380220Y380184D01*
X380137Y380136D01*
X380057Y380082D01*
X379980Y380020D01*
X379907Y379951D01*
Y381467D01*
X379980Y381397D01*
D02*
G37*
G36*
X375098Y379862D02*
X375036Y379786D01*
X374982Y379706D01*
X374934Y379623D01*
X374894Y379536D01*
X374861Y379446D01*
X374836Y379352D01*
X374818Y379255D01*
X374807Y379154D01*
X374803Y379050D01*
X374016D01*
X374012Y379154D01*
X374001Y379255D01*
X373983Y379352D01*
X373957Y379446D01*
X373925Y379536D01*
X373885Y379623D01*
X373837Y379706D01*
X373783Y379786D01*
X373721Y379862D01*
X373652Y379936D01*
X375167D01*
X375098Y379862D01*
D02*
G37*
G36*
X367224Y379862D02*
X367162Y379786D01*
X367108Y379706D01*
X367060Y379623D01*
X367020Y379536D01*
X366987Y379446D01*
X366962Y379352D01*
X366944Y379255D01*
X366933Y379154D01*
X366929Y379050D01*
X366142D01*
X366138Y379154D01*
X366127Y379255D01*
X366109Y379352D01*
X366084Y379446D01*
X366051Y379536D01*
X366011Y379623D01*
X365963Y379706D01*
X365909Y379786D01*
X365847Y379862D01*
X365778Y379936D01*
X367293D01*
X367224Y379862D01*
D02*
G37*
G36*
X371949Y379862D02*
X371887Y379786D01*
X371832Y379706D01*
X371785Y379623D01*
X371745Y379536D01*
X371712Y379446D01*
X371686Y379352D01*
X371668Y379255D01*
X371657Y379154D01*
X371654Y379050D01*
X370866D01*
X370863Y379154D01*
X370852Y379255D01*
X370833Y379352D01*
X370808Y379446D01*
X370775Y379536D01*
X370735Y379623D01*
X370688Y379706D01*
X370633Y379786D01*
X370571Y379862D01*
X370502Y379936D01*
X372018D01*
X371949Y379862D01*
D02*
G37*
G36*
X329822Y378681D02*
X329761Y378605D01*
X329706Y378525D01*
X329659Y378441D01*
X329619Y378355D01*
X329586Y378264D01*
X329560Y378171D01*
X329542Y378074D01*
X329531Y377973D01*
X329528Y377869D01*
X328740D01*
X328736Y377973D01*
X328726Y378074D01*
X328707Y378171D01*
X328682Y378264D01*
X328649Y378355D01*
X328609Y378441D01*
X328562Y378525D01*
X328507Y378605D01*
X328445Y378681D01*
X328376Y378754D01*
X329892D01*
X329822Y378681D01*
D02*
G37*
G36*
X333653Y378615D02*
X333575Y378560D01*
X333505Y378499D01*
X333443Y378432D01*
X333390Y378360D01*
X333345Y378282D01*
X333308Y378199D01*
X333279Y378110D01*
X333258Y378015D01*
X333246Y377915D01*
X333242Y377809D01*
X332454Y377988D01*
X332452Y378090D01*
X332443Y378190D01*
X332429Y378288D01*
X332409Y378384D01*
X332383Y378479D01*
X332352Y378572D01*
X332315Y378663D01*
X332272Y378753D01*
X332224Y378841D01*
X332170Y378927D01*
X333653Y378615D01*
D02*
G37*
G36*
X392421Y377106D02*
X392359Y377030D01*
X392304Y376950D01*
X392257Y376867D01*
X392217Y376780D01*
X392184Y376690D01*
X392159Y376596D01*
X392141Y376499D01*
X392130Y376398D01*
X392126Y376295D01*
X391339D01*
X391335Y376398D01*
X391324Y376499D01*
X391306Y376596D01*
X391280Y376690D01*
X391248Y376780D01*
X391208Y376867D01*
X391160Y376950D01*
X391106Y377030D01*
X391044Y377106D01*
X390974Y377180D01*
X392490D01*
X392421Y377106D01*
D02*
G37*
G36*
X233071Y375590D02*
Y375590D01*
X233072Y375590D01*
X233536Y375562D01*
X233592Y375555D01*
X233739Y375532D01*
X233886Y375503D01*
X234031Y375468D01*
X234175Y375428D01*
X234317Y375381D01*
X234457Y375330D01*
X234595Y375273D01*
X234730Y375210D01*
X234863Y375142D01*
X234994Y375069D01*
X235121Y374991D01*
X235245Y374908D01*
X235366Y374821D01*
X235483Y374728D01*
X235597Y374631D01*
X235706Y374530D01*
X237863Y372373D01*
X237863Y372373D01*
X237863Y372373D01*
X237864Y372372D01*
X238179Y372015D01*
X238206Y371980D01*
X238294Y371859D01*
X238377Y371735D01*
X238455Y371608D01*
X238528Y371478D01*
X238596Y371344D01*
X238658Y371209D01*
X238716Y371071D01*
X238767Y370931D01*
X238813Y370789D01*
X238854Y370645D01*
X238889Y370500D01*
X238918Y370354D01*
X238941Y370206D01*
X238959Y370058D01*
X238970Y369909D01*
X238976Y369760D01*
X238976Y369685D01*
X238976Y365354D01*
X238976Y365354D01*
Y365308D01*
X238969Y365215D01*
X238955Y365124D01*
X238933Y365034D01*
X238904Y364945D01*
X238869Y364860D01*
X238827Y364777D01*
X238778Y364698D01*
X238723Y364622D01*
X238663Y364552D01*
X238598Y364486D01*
X238527Y364426D01*
X238452Y364371D01*
X238373Y364323D01*
X238290Y364281D01*
X238204Y364245D01*
X238116Y364217D01*
X238026Y364195D01*
X237934Y364180D01*
X237842Y364173D01*
X237795Y364173D01*
X237749D01*
X237656Y364180D01*
X237565Y364195D01*
X237474Y364217D01*
X237386Y364245D01*
X237300Y364281D01*
X237218Y364323D01*
X237139Y364371D01*
X237064Y364426D01*
X236993Y364486D01*
X236927Y364552D01*
X236867Y364623D01*
X236812Y364698D01*
X236764Y364777D01*
X236722Y364860D01*
X236686Y364945D01*
X236658Y365034D01*
X236636Y365124D01*
X236621Y365215D01*
X236614Y365308D01*
Y369685D01*
X236614Y369685D01*
X236614Y369685D01*
X236614Y369688D01*
X236613Y369732D01*
X236609Y369824D01*
X236609Y369825D01*
X236600Y369917D01*
X236600Y369918D01*
X236586Y370010D01*
X236586Y370010D01*
X236568Y370101D01*
X236568Y370101D01*
X236557Y370146D01*
X236545Y370192D01*
X236518Y370281D01*
X236487Y370369D01*
X236451Y370455D01*
X236411Y370540D01*
X236367Y370622D01*
X236319Y370702D01*
X236267Y370780D01*
X236212Y370855D01*
X236153Y370927D01*
X236090Y370996D01*
X236057Y371029D01*
X234415Y372672D01*
X234415Y372672D01*
X234414Y372672D01*
X234414Y372673D01*
X234382Y372704D01*
X234313Y372766D01*
X234313Y372767D01*
X234241Y372826D01*
X234240Y372826D01*
X234166Y372882D01*
X234165Y372882D01*
X234088Y372933D01*
X234088Y372933D01*
X234008Y372981D01*
X233926Y373025D01*
X233841Y373065D01*
X233755Y373101D01*
X233667Y373132D01*
X233578Y373160D01*
X233487Y373182D01*
X233396Y373200D01*
X233303Y373214D01*
X233211Y373223D01*
X233118Y373228D01*
X233071Y373228D01*
X229528Y373228D01*
X229481Y373228D01*
X229389Y373236D01*
X229297Y373250D01*
X229207Y373272D01*
X229118Y373301D01*
X229033Y373336D01*
X228950Y373378D01*
X228871Y373427D01*
X228796Y373481D01*
X228725Y373541D01*
X228660Y373607D01*
X228599Y373678D01*
X228545Y373753D01*
X228496Y373832D01*
X228454Y373915D01*
X228440Y373948D01*
X228346Y374409D01*
X228440Y374871D01*
X228454Y374904D01*
X228496Y374987D01*
X228545Y375066D01*
X228599Y375141D01*
X228660Y375212D01*
X228725Y375277D01*
X228796Y375338D01*
X228871Y375392D01*
X228950Y375441D01*
X229033Y375483D01*
X229118Y375518D01*
X229207Y375547D01*
X229297Y375569D01*
X229389Y375583D01*
X229481Y375590D01*
X229527Y375590D01*
X233071Y375590D01*
X233071Y375590D01*
D02*
G37*
G36*
X311072Y371102D02*
X310971Y371100D01*
X310873Y371089D01*
X310778Y371071D01*
X310686Y371046D01*
X310596Y371013D01*
X310509Y370972D01*
X310425Y370924D01*
X310343Y370868D01*
X310265Y370805D01*
X310189Y370734D01*
X309632Y371291D01*
X309703Y371367D01*
X309766Y371446D01*
X309822Y371527D01*
X309870Y371611D01*
X309910Y371698D01*
X309944Y371788D01*
X309969Y371881D01*
X309987Y371976D01*
X309997Y372074D01*
X310000Y372174D01*
X311072Y371102D01*
D02*
G37*
G36*
X272248Y371174D02*
X272260Y371024D01*
X272279Y370892D01*
X272306Y370778D01*
X272342Y370681D01*
X272385Y370602D01*
X272435Y370540D01*
X272494Y370496D01*
X272560Y370469D01*
X272634Y370461D01*
X271066D01*
X271141Y370469D01*
X271207Y370496D01*
X271266Y370540D01*
X271316Y370602D01*
X271359Y370681D01*
X271394Y370778D01*
X271422Y370892D01*
X271441Y371024D01*
X271453Y371174D01*
X271457Y371341D01*
X272244D01*
X272248Y371174D01*
D02*
G37*
G36*
X262248D02*
X262260Y371024D01*
X262279Y370892D01*
X262306Y370778D01*
X262342Y370681D01*
X262385Y370602D01*
X262435Y370540D01*
X262494Y370496D01*
X262560Y370469D01*
X262634Y370461D01*
X261067D01*
X261141Y370469D01*
X261207Y370496D01*
X261265Y370540D01*
X261316Y370602D01*
X261359Y370681D01*
X261394Y370778D01*
X261422Y370892D01*
X261441Y371024D01*
X261453Y371174D01*
X261457Y371341D01*
X262244D01*
X262248Y371174D01*
D02*
G37*
G36*
X296063Y367717D02*
X296114D01*
X296217Y367710D01*
X296320Y367696D01*
X296421Y367676D01*
X296520Y367650D01*
X296618Y367616D01*
X296713Y367577D01*
X296806Y367531D01*
X296895Y367480D01*
X296981Y367423D01*
X297063Y367360D01*
X297140Y367292D01*
X297213Y367219D01*
X297281Y367141D01*
X297344Y367059D01*
X297401Y366974D01*
X297453Y366884D01*
X297498Y366792D01*
X297538Y366697D01*
X297571Y366599D01*
X297598Y366499D01*
X297618Y366398D01*
X297631Y366296D01*
X297638Y366193D01*
X297638Y358268D01*
X297639Y358212D01*
X297645Y358102D01*
X297657Y357993D01*
X297676Y357884D01*
X297700Y357776D01*
X297731Y357670D01*
X297767Y357566D01*
X297810Y357464D01*
X297857Y357364D01*
X297911Y357268D01*
X297970Y357174D01*
X298033Y357084D01*
X298102Y356998D01*
X298176Y356915D01*
X298254Y356837D01*
X298336Y356764D01*
X298423Y356695D01*
X298513Y356631D01*
X298606Y356572D01*
X298703Y356519D01*
X298802Y356471D01*
X298904Y356429D01*
X299008Y356392D01*
X299115Y356362D01*
X299222Y356337D01*
X299331Y356318D01*
X299441Y356306D01*
X299551Y356300D01*
X299606Y356299D01*
X306299D01*
X306299Y356299D01*
X306299Y356299D01*
X306478Y356273D01*
X306758Y356232D01*
X306854Y356199D01*
X306949Y356159D01*
X307042Y356114D01*
X307131Y356062D01*
X307217Y356005D01*
X307299Y355942D01*
X307376Y355874D01*
X307449Y355802D01*
X307517Y355724D01*
X307580Y355642D01*
X307637Y355556D01*
X307689Y355467D01*
X307734Y355375D01*
X307774Y355279D01*
X307807Y355182D01*
X307834Y355082D01*
X307854Y354981D01*
X307867Y354879D01*
X307874Y354776D01*
X307874Y354724D01*
X307874Y350000D01*
X307874Y350000D01*
Y349948D01*
X307867Y349845D01*
X307854Y349743D01*
X307834Y349642D01*
X307807Y349542D01*
X307774Y349445D01*
X307734Y349350D01*
X307689Y349257D01*
X307637Y349168D01*
X307580Y349082D01*
X307517Y349000D01*
X307449Y348923D01*
X307376Y348850D01*
X307299Y348782D01*
X307217Y348719D01*
X307131Y348662D01*
X307042Y348610D01*
X306949Y348565D01*
X306854Y348525D01*
X306756Y348492D01*
X306657Y348465D01*
X306556Y348445D01*
X306454Y348432D01*
X306351Y348425D01*
X306299Y348425D01*
X300394D01*
X300394Y348425D01*
X300342Y348424D01*
X300239Y348417D01*
X300137Y348404D01*
X300036Y348384D01*
X299937Y348357D01*
X299839Y348324D01*
X299744Y348285D01*
X299651Y348239D01*
X299562Y348188D01*
X299476Y348130D01*
X299395Y348068D01*
X299317Y348000D01*
X299244Y347927D01*
X299176Y347849D01*
X299114Y347768D01*
X299056Y347682D01*
X299005Y347593D01*
X298959Y347500D01*
X298920Y347405D01*
X298887Y347307D01*
X298860Y347208D01*
X298840Y347107D01*
X298827Y347005D01*
X298820Y346902D01*
X298819Y346850D01*
Y344094D01*
X298819D01*
X298819Y344048D01*
X298812Y343955D01*
X298797Y343864D01*
X298775Y343774D01*
X298747Y343685D01*
X298711Y343600D01*
X298669Y343517D01*
X298621Y343438D01*
X298566Y343363D01*
X298506Y343292D01*
X298440Y343227D01*
X298370Y343166D01*
X298294Y343112D01*
X298215Y343063D01*
X298133Y343021D01*
X298047Y342986D01*
X297959Y342957D01*
X297868Y342935D01*
X297777Y342921D01*
X297684Y342913D01*
X294488D01*
X294488Y342913D01*
X294442Y342913D01*
X294349Y342921D01*
X294258Y342935D01*
X294167Y342957D01*
X294079Y342986D01*
X293993Y343021D01*
X293911Y343063D01*
X293831Y343112D01*
X293756Y343166D01*
X293686Y343227D01*
X293620Y343292D01*
X293560Y343363D01*
X293505Y343438D01*
X293457Y343517D01*
X293415Y343600D01*
X293379Y343685D01*
X293351Y343774D01*
X293329Y343864D01*
X293314Y343955D01*
X293307Y344048D01*
X293307Y356693D01*
X293307Y356693D01*
X293307Y356693D01*
X293307Y356696D01*
X293306Y356768D01*
X293301Y356916D01*
X293300Y356917D01*
X293289Y357065D01*
X293289Y357066D01*
X293271Y357214D01*
X293248Y357361D01*
X293219Y357508D01*
X293184Y357653D01*
X293143Y357797D01*
X293097Y357939D01*
X293046Y358079D01*
X292988Y358217D01*
X292926Y358352D01*
X292858Y358485D01*
X292785Y358615D01*
X292707Y358743D01*
X292624Y358867D01*
X292536Y358988D01*
X292444Y359105D01*
X292347Y359218D01*
X292246Y359328D01*
X292194Y359381D01*
X291271Y360304D01*
X291271Y360304D01*
X291218Y360357D01*
X291117Y360466D01*
X291020Y360580D01*
X290927Y360697D01*
X290840Y360818D01*
X290757Y360942D01*
X290679Y361069D01*
X290606Y361200D01*
X290538Y361333D01*
X290475Y361468D01*
X290418Y361606D01*
X290367Y361746D01*
X290320Y361888D01*
X290280Y362032D01*
X290245Y362177D01*
X290216Y362324D01*
X290193Y362471D01*
X290175Y362619D01*
X290163Y362768D01*
X290158Y362917D01*
Y366142D01*
X290158Y366193D01*
X290164Y366296D01*
X290178Y366398D01*
X290198Y366499D01*
X290225Y366599D01*
X290258Y366697D01*
X290297Y366792D01*
X290343Y366884D01*
X290394Y366974D01*
X290452Y367059D01*
X290514Y367141D01*
X290582Y367219D01*
X290655Y367292D01*
X290733Y367360D01*
X290814Y367423D01*
X290900Y367480D01*
X290989Y367531D01*
X291082Y367577D01*
X291177Y367616D01*
X291275Y367650D01*
X291374Y367676D01*
X291476Y367696D01*
X291578Y367710D01*
X291681Y367717D01*
X291732Y367717D01*
X296063Y367717D01*
Y367717D01*
D02*
G37*
G36*
X400295Y367264D02*
X400233Y367187D01*
X400178Y367108D01*
X400131Y367024D01*
X400091Y366937D01*
X400058Y366847D01*
X400033Y366754D01*
X400015Y366656D01*
X400004Y366556D01*
X400000Y366452D01*
X399213D01*
X399209Y366556D01*
X399198Y366656D01*
X399180Y366754D01*
X399154Y366847D01*
X399122Y366937D01*
X399081Y367024D01*
X399034Y367108D01*
X398979Y367187D01*
X398918Y367264D01*
X398848Y367337D01*
X400364D01*
X400295Y367264D01*
D02*
G37*
G36*
X383060Y366634D02*
X382959Y366631D01*
X382861Y366621D01*
X382766Y366603D01*
X382674Y366577D01*
X382584Y366544D01*
X382497Y366504D01*
X382413Y366456D01*
X382332Y366400D01*
X382253Y366336D01*
X382177Y366266D01*
X381620Y366822D01*
X381691Y366898D01*
X381754Y366977D01*
X381810Y367059D01*
X381858Y367143D01*
X381899Y367230D01*
X381932Y367320D01*
X381957Y367412D01*
X381975Y367507D01*
X381985Y367605D01*
X381988Y367706D01*
X383060Y366634D01*
D02*
G37*
G36*
X375186D02*
X375085Y366631D01*
X374988Y366621D01*
X374892Y366603D01*
X374800Y366577D01*
X374710Y366544D01*
X374623Y366504D01*
X374539Y366456D01*
X374458Y366400D01*
X374379Y366336D01*
X374303Y366266D01*
X373746Y366822D01*
X373817Y366898D01*
X373880Y366977D01*
X373936Y367059D01*
X373984Y367143D01*
X374025Y367230D01*
X374058Y367320D01*
X374083Y367412D01*
X374101Y367507D01*
X374112Y367605D01*
X374114Y367706D01*
X375186Y366634D01*
D02*
G37*
G36*
X370462D02*
X370361Y366631D01*
X370263Y366621D01*
X370168Y366603D01*
X370075Y366577D01*
X369986Y366544D01*
X369899Y366504D01*
X369815Y366456D01*
X369733Y366400D01*
X369654Y366336D01*
X369578Y366266D01*
X369022Y366822D01*
X369092Y366898D01*
X369156Y366977D01*
X369212Y367059D01*
X369260Y367143D01*
X369300Y367230D01*
X369333Y367320D01*
X369359Y367412D01*
X369377Y367507D01*
X369387Y367605D01*
X369390Y367706D01*
X370462Y366634D01*
D02*
G37*
G36*
X379127Y366954D02*
X379072Y366871D01*
X379023Y366785D01*
X378981Y366697D01*
X378945Y366606D01*
X378916Y366513D01*
X378894Y366417D01*
X378877Y366319D01*
X378868Y366219D01*
X378865Y366116D01*
X378077Y366018D01*
X378073Y366123D01*
X378061Y366224D01*
X378042Y366320D01*
X378014Y366411D01*
X377978Y366497D01*
X377935Y366579D01*
X377884Y366657D01*
X377824Y366730D01*
X377757Y366798D01*
X377682Y366861D01*
X379188Y367036D01*
X379127Y366954D01*
D02*
G37*
G36*
X432283Y366142D02*
X435433Y366142D01*
X435433Y366142D01*
X435433Y366142D01*
X435434Y366142D01*
X435892Y366088D01*
X435925Y366080D01*
X436031Y366050D01*
X436135Y366013D01*
X436237Y365971D01*
X436337Y365923D01*
X436434Y365869D01*
X436527Y365811D01*
X436617Y365747D01*
X436704Y365678D01*
X436786Y365604D01*
X436864Y365526D01*
X436938Y365444D01*
X437007Y365357D01*
X437071Y365267D01*
X437129Y365174D01*
X437183Y365077D01*
X437231Y364978D01*
X437273Y364876D01*
X437309Y364771D01*
X437340Y364665D01*
X437364Y364557D01*
X437383Y364448D01*
X437395Y364339D01*
X437402Y364229D01*
X437402Y364173D01*
X437402Y336221D01*
X437402Y336221D01*
Y336165D01*
X437395Y336055D01*
X437383Y335945D01*
X437364Y335836D01*
X437340Y335729D01*
X437309Y335622D01*
X437273Y335518D01*
X437231Y335416D01*
X437183Y335317D01*
X437129Y335220D01*
X437070Y335126D01*
X437007Y335036D01*
X436938Y334950D01*
X436864Y334868D01*
X436786Y334789D01*
X436704Y334716D01*
X436617Y334647D01*
X436527Y334583D01*
X436434Y334524D01*
X436337Y334471D01*
X436237Y334423D01*
X436135Y334381D01*
X436031Y334344D01*
X435925Y334314D01*
X435817Y334289D01*
X435708Y334271D01*
X435599Y334258D01*
X435488Y334252D01*
X430709Y334252D01*
X430709Y334252D01*
X430639Y334251D01*
X430499Y334244D01*
X430360Y334230D01*
X430221Y334210D01*
X430084Y334183D01*
X429948Y334149D01*
X429814Y334108D01*
X429682Y334061D01*
X429553Y334007D01*
X429427Y333947D01*
X429303Y333881D01*
X429183Y333809D01*
X429067Y333732D01*
X428954Y333648D01*
X428846Y333560D01*
X428743Y333466D01*
X428692Y333417D01*
X420079Y324803D01*
X420079Y324803D01*
X420032Y324757D01*
X419934Y324668D01*
X419832Y324584D01*
X419726Y324505D01*
X419616Y324432D01*
X419503Y324364D01*
X419387Y324302D01*
X419268Y324246D01*
X419146Y324195D01*
X419021Y324151D01*
X418895Y324112D01*
X418767Y324080D01*
X418638Y324055D01*
X418507Y324035D01*
X418376Y324022D01*
X418244Y324016D01*
X416535Y324016D01*
X416480Y324016D01*
X416370Y324022D01*
X416260Y324034D01*
X416151Y324053D01*
X416044Y324077D01*
X415937Y324108D01*
X415833Y324144D01*
X415731Y324187D01*
X415631Y324235D01*
X415535Y324288D01*
X415441Y324347D01*
X415351Y324411D01*
X415265Y324480D01*
X415182Y324553D01*
X415104Y324631D01*
X415031Y324714D01*
X414962Y324800D01*
X414898Y324890D01*
X414839Y324984D01*
X414786Y325080D01*
X414738Y325180D01*
X414696Y325282D01*
X414659Y325386D01*
X414629Y325492D01*
X414604Y325600D01*
X414585Y325709D01*
X414573Y325819D01*
X414567Y325922D01*
Y361024D01*
X414567Y361038D01*
Y361473D01*
X414573Y361583D01*
X414585Y361693D01*
X414604Y361802D01*
X414629Y361909D01*
X414659Y362015D01*
X414696Y362120D01*
X414738Y362222D01*
X414786Y362321D01*
X414839Y362418D01*
X414898Y362511D01*
X414962Y362601D01*
X415031Y362688D01*
X415104Y362770D01*
X415182Y362848D01*
X415265Y362922D01*
X415351Y362991D01*
X415441Y363055D01*
X415535Y363113D01*
X415632Y363167D01*
X415731Y363215D01*
X415833Y363257D01*
X415937Y363294D01*
X416044Y363324D01*
X416151Y363349D01*
X416260Y363367D01*
X416370Y363380D01*
X416480Y363386D01*
X427559D01*
X427606Y363386D01*
X427699Y363391D01*
X427792Y363400D01*
X427884Y363414D01*
X427976Y363432D01*
X428066Y363455D01*
X428155Y363482D01*
X428243Y363513D01*
X428329Y363549D01*
X428414Y363589D01*
X428496Y363633D01*
X428576Y363681D01*
X428654Y363733D01*
X428729Y363788D01*
X428801Y363847D01*
X428870Y363910D01*
X428903Y363943D01*
X430267Y365306D01*
X430267Y365306D01*
X430267Y365306D01*
X430267Y365307D01*
X430623Y365609D01*
X430641Y365622D01*
X430757Y365700D01*
X430877Y365772D01*
X431001Y365838D01*
X431128Y365898D01*
X431257Y365951D01*
X431389Y365999D01*
X431523Y366039D01*
X431659Y366073D01*
X431796Y366101D01*
X431934Y366121D01*
X432074Y366135D01*
X432213Y366142D01*
X432283Y366142D01*
D02*
G37*
G36*
X306192Y365171D02*
X306198Y365095D01*
X306213Y365018D01*
X306237Y364941D01*
X306270Y364862D01*
X306312Y364783D01*
X306363Y364704D01*
X306422Y364623D01*
X306491Y364542D01*
X306569Y364460D01*
X306012Y363903D01*
X305930Y363981D01*
X305849Y364050D01*
X305769Y364110D01*
X305689Y364161D01*
X305610Y364202D01*
X305532Y364235D01*
X305454Y364259D01*
X305377Y364274D01*
X305301Y364280D01*
X305226Y364277D01*
X306195Y365247D01*
X306192Y365171D01*
D02*
G37*
G36*
X404629Y364849D02*
X404639Y364751D01*
X404657Y364656D01*
X404682Y364564D01*
X404715Y364474D01*
X404756Y364387D01*
X404804Y364303D01*
X404860Y364221D01*
X404923Y364143D01*
X404994Y364067D01*
X404437Y363510D01*
X404361Y363581D01*
X404283Y363644D01*
X404201Y363700D01*
X404117Y363748D01*
X404030Y363789D01*
X403940Y363822D01*
X403848Y363847D01*
X403753Y363865D01*
X403655Y363875D01*
X403554Y363878D01*
X404626Y364950D01*
X404629Y364849D01*
D02*
G37*
G36*
X280023Y363122D02*
X279962Y363167D01*
X279890Y363189D01*
X279806D01*
X279711Y363167D01*
X279606Y363122D01*
X279489Y363055D01*
X279361Y362966D01*
X279221Y362855D01*
X278910Y362565D01*
X278353Y363122D01*
X278509Y363284D01*
X278754Y363573D01*
X278843Y363701D01*
X278910Y363818D01*
X278954Y363924D01*
X278976Y364019D01*
Y364102D01*
X278954Y364175D01*
X278910Y364236D01*
X280023Y363122D01*
D02*
G37*
G36*
X306569Y362115D02*
X306491Y362033D01*
X306422Y361952D01*
X306363Y361871D01*
X306312Y361791D01*
X306270Y361712D01*
X306237Y361634D01*
X306213Y361557D01*
X306198Y361480D01*
X306192Y361404D01*
X306195Y361328D01*
X305226Y362298D01*
X305301Y362295D01*
X305377Y362301D01*
X305454Y362316D01*
X305532Y362339D01*
X305610Y362372D01*
X305689Y362414D01*
X305769Y362465D01*
X305849Y362525D01*
X305930Y362594D01*
X306012Y362671D01*
X306569Y362115D01*
D02*
G37*
G36*
X392002D02*
X391931Y362038D01*
X391868Y361960D01*
X391812Y361878D01*
X391764Y361794D01*
X391723Y361707D01*
X391690Y361617D01*
X391665Y361525D01*
X391647Y361430D01*
X391637Y361332D01*
X391634Y361231D01*
X390562Y362303D01*
X390663Y362306D01*
X390760Y362316D01*
X390856Y362334D01*
X390948Y362360D01*
X391038Y362393D01*
X391125Y362433D01*
X391209Y362481D01*
X391290Y362537D01*
X391369Y362600D01*
X391445Y362671D01*
X392002Y362115D01*
D02*
G37*
G36*
X301254Y360146D02*
X301183Y360070D01*
X301120Y359991D01*
X301064Y359910D01*
X301016Y359825D01*
X300975Y359739D01*
X300942Y359649D01*
X300917Y359557D01*
X300899Y359461D01*
X300888Y359363D01*
X300886Y359263D01*
X299814Y360335D01*
X299915Y360337D01*
X300012Y360348D01*
X300108Y360366D01*
X300200Y360391D01*
X300290Y360424D01*
X300377Y360465D01*
X300461Y360513D01*
X300542Y360569D01*
X300621Y360632D01*
X300697Y360703D01*
X301254Y360146D01*
D02*
G37*
G36*
X354497Y358860D02*
X354576Y358797D01*
X354657Y358741D01*
X354741Y358693D01*
X354828Y358652D01*
X354918Y358619D01*
X355011Y358594D01*
X355106Y358576D01*
X355204Y358566D01*
X355304Y358563D01*
X354232Y357491D01*
X354230Y357592D01*
X354219Y357690D01*
X354201Y357785D01*
X354176Y357877D01*
X354143Y357967D01*
X354102Y358054D01*
X354054Y358138D01*
X353998Y358220D01*
X353935Y358298D01*
X353864Y358374D01*
X354421Y358931D01*
X354497Y358860D01*
D02*
G37*
G36*
X332666Y356102D02*
X332566Y356100D01*
X332468Y356089D01*
X332373Y356071D01*
X332280Y356046D01*
X332190Y356013D01*
X332104Y355972D01*
X332019Y355924D01*
X331938Y355868D01*
X331859Y355805D01*
X331783Y355734D01*
X331226Y356291D01*
X331297Y356367D01*
X331361Y356446D01*
X331416Y356527D01*
X331464Y356611D01*
X331505Y356698D01*
X331538Y356788D01*
X331563Y356880D01*
X331581Y356976D01*
X331592Y357074D01*
X331594Y357174D01*
X332666Y356102D01*
D02*
G37*
G36*
X253153Y355885D02*
X253164Y355785D01*
X253182Y355687D01*
X253208Y355594D01*
X253241Y355504D01*
X253281Y355417D01*
X253328Y355333D01*
X253383Y355254D01*
X253445Y355177D01*
X253514Y355104D01*
X251998D01*
X252067Y355177D01*
X252129Y355254D01*
X252184Y355333D01*
X252231Y355417D01*
X252271Y355504D01*
X252304Y355594D01*
X252329Y355687D01*
X252348Y355785D01*
X252359Y355885D01*
X252362Y355989D01*
X253150D01*
X253153Y355885D01*
D02*
G37*
G36*
X282560Y353231D02*
X282494Y353205D01*
X282435Y353161D01*
X282385Y353099D01*
X282342Y353020D01*
X282307Y352923D01*
X282279Y352809D01*
X282260Y352677D01*
X282248Y352527D01*
X282244Y352359D01*
X281457D01*
X281453Y352527D01*
X281441Y352677D01*
X281422Y352809D01*
X281394Y352923D01*
X281359Y353020D01*
X281316Y353099D01*
X281265Y353161D01*
X281207Y353205D01*
X281141Y353231D01*
X281066Y353240D01*
X282634D01*
X282560Y353231D01*
D02*
G37*
G36*
X272560D02*
X272494Y353205D01*
X272435Y353161D01*
X272385Y353099D01*
X272342Y353020D01*
X272306Y352923D01*
X272279Y352809D01*
X272260Y352677D01*
X272248Y352527D01*
X272244Y352359D01*
X271457D01*
X271453Y352527D01*
X271441Y352677D01*
X271422Y352809D01*
X271394Y352923D01*
X271359Y353020D01*
X271316Y353099D01*
X271266Y353161D01*
X271207Y353205D01*
X271141Y353231D01*
X271066Y353240D01*
X272634D01*
X272560Y353231D01*
D02*
G37*
G36*
X333366Y351339D02*
X333304Y351262D01*
X333249Y351182D01*
X333202Y351099D01*
X333162Y351012D01*
X333129Y350922D01*
X333104Y350828D01*
X333085Y350731D01*
X333074Y350631D01*
X333071Y350527D01*
X332283D01*
X332280Y350631D01*
X332269Y350731D01*
X332251Y350828D01*
X332225Y350922D01*
X332192Y351012D01*
X332152Y351099D01*
X332105Y351182D01*
X332050Y351262D01*
X331989Y351339D01*
X331919Y351412D01*
X333435D01*
X333366Y351339D01*
D02*
G37*
G36*
X400580Y347736D02*
X400479Y347733D01*
X400381Y347723D01*
X400286Y347705D01*
X400194Y347680D01*
X400104Y347647D01*
X400017Y347606D01*
X399933Y347558D01*
X399851Y347502D01*
X399773Y347439D01*
X399696Y347368D01*
X399140Y347925D01*
X399211Y348001D01*
X399274Y348080D01*
X399330Y348161D01*
X399378Y348245D01*
X399418Y348332D01*
X399451Y348422D01*
X399477Y348514D01*
X399495Y348610D01*
X399505Y348707D01*
X399508Y348808D01*
X400580Y347736D01*
D02*
G37*
G36*
X344885Y346830D02*
X344897Y346729D01*
X344915Y346632D01*
X344940Y346539D01*
X344973Y346448D01*
X345013Y346362D01*
X345060Y346278D01*
X345115Y346198D01*
X345177Y346122D01*
X345246Y346049D01*
X343730D01*
X343799Y346122D01*
X343861Y346198D01*
X343916Y346278D01*
X343963Y346362D01*
X344004Y346448D01*
X344036Y346539D01*
X344062Y346632D01*
X344080Y346729D01*
X344091Y346830D01*
X344094Y346934D01*
X344882D01*
X344885Y346830D01*
D02*
G37*
G36*
X253153Y346042D02*
X253164Y345942D01*
X253182Y345845D01*
X253208Y345751D01*
X253241Y345661D01*
X253281Y345574D01*
X253328Y345491D01*
X253383Y345411D01*
X253445Y345335D01*
X253514Y345261D01*
X251998D01*
X252067Y345335D01*
X252129Y345411D01*
X252184Y345491D01*
X252231Y345574D01*
X252271Y345661D01*
X252304Y345751D01*
X252329Y345845D01*
X252348Y345942D01*
X252359Y346042D01*
X252362Y346146D01*
X253150D01*
X253153Y346042D01*
D02*
G37*
G36*
X358327Y346555D02*
X358403Y346493D01*
X358483Y346438D01*
X358566Y346391D01*
X358653Y346351D01*
X358743Y346318D01*
X358837Y346293D01*
X358934Y346274D01*
X359035Y346264D01*
X359138Y346260D01*
Y345472D01*
X359035Y345469D01*
X358934Y345458D01*
X358837Y345440D01*
X358743Y345414D01*
X358653Y345381D01*
X358566Y345341D01*
X358483Y345294D01*
X358403Y345239D01*
X358327Y345178D01*
X358254Y345108D01*
Y346624D01*
X358327Y346555D01*
D02*
G37*
G36*
X373458Y344954D02*
X373535Y344892D01*
X373615Y344838D01*
X373698Y344790D01*
X373785Y344750D01*
X373875Y344717D01*
X373969Y344692D01*
X374066Y344674D01*
X374166Y344663D01*
X374270Y344659D01*
Y343872D01*
X374166Y343868D01*
X374066Y343857D01*
X373969Y343839D01*
X373875Y343813D01*
X373785Y343781D01*
X373698Y343741D01*
X373615Y343693D01*
X373535Y343639D01*
X373458Y343577D01*
X373385Y343508D01*
Y345023D01*
X373458Y344954D01*
D02*
G37*
G36*
X358327Y343602D02*
X358403Y343540D01*
X358483Y343485D01*
X358566Y343438D01*
X358653Y343398D01*
X358743Y343365D01*
X358837Y343340D01*
X358934Y343322D01*
X359035Y343311D01*
X359138Y343307D01*
Y342520D01*
X359035Y342516D01*
X358934Y342505D01*
X358837Y342487D01*
X358743Y342461D01*
X358653Y342429D01*
X358566Y342389D01*
X358483Y342341D01*
X358403Y342287D01*
X358327Y342225D01*
X358254Y342156D01*
Y343671D01*
X358327Y343602D01*
D02*
G37*
G36*
X344064Y342915D02*
X344143Y342852D01*
X344224Y342796D01*
X344308Y342748D01*
X344395Y342708D01*
X344485Y342674D01*
X344577Y342649D01*
X344673Y342631D01*
X344770Y342621D01*
X344871Y342618D01*
X343799Y341546D01*
X343796Y341647D01*
X343786Y341745D01*
X343768Y341840D01*
X343743Y341932D01*
X343710Y342022D01*
X343669Y342109D01*
X343621Y342193D01*
X343565Y342275D01*
X343502Y342354D01*
X343431Y342429D01*
X343988Y342986D01*
X344064Y342915D01*
D02*
G37*
G36*
X373908Y340261D02*
X373833Y340264D01*
X373757Y340258D01*
X373680Y340243D01*
X373602Y340219D01*
X373524Y340187D01*
X373445Y340145D01*
X373365Y340094D01*
X373285Y340034D01*
X373203Y339965D01*
X373122Y339888D01*
X372565Y340444D01*
X372643Y340526D01*
X372711Y340608D01*
X372771Y340688D01*
X372822Y340768D01*
X372864Y340847D01*
X372897Y340925D01*
X372921Y341002D01*
X372936Y341079D01*
X372941Y341155D01*
X372938Y341231D01*
X373908Y340261D01*
D02*
G37*
G36*
X370767Y340492D02*
X370706Y340416D01*
X370651Y340336D01*
X370603Y340252D01*
X370564Y340166D01*
X370531Y340075D01*
X370505Y339982D01*
X370487Y339885D01*
X370476Y339784D01*
X370472Y339680D01*
X369685D01*
X369681Y339784D01*
X369671Y339885D01*
X369652Y339982D01*
X369627Y340075D01*
X369594Y340166D01*
X369554Y340252D01*
X369507Y340336D01*
X369452Y340416D01*
X369390Y340492D01*
X369321Y340565D01*
X370837D01*
X370767Y340492D01*
D02*
G37*
G36*
X355132Y338809D02*
X355059Y338878D01*
X354983Y338940D01*
X354903Y338995D01*
X354819Y339042D01*
X354733Y339082D01*
X354642Y339115D01*
X354549Y339141D01*
X354452Y339159D01*
X354351Y339170D01*
X354247Y339173D01*
Y339961D01*
X354351Y339964D01*
X354452Y339975D01*
X354549Y339993D01*
X354642Y340019D01*
X354733Y340052D01*
X354819Y340092D01*
X354903Y340139D01*
X354983Y340194D01*
X355059Y340256D01*
X355132Y340325D01*
Y338809D01*
D02*
G37*
G36*
X366918Y337500D02*
X366818Y337497D01*
X366720Y337487D01*
X366625Y337469D01*
X366532Y337444D01*
X366442Y337410D01*
X366356Y337370D01*
X366271Y337322D01*
X366190Y337266D01*
X366111Y337203D01*
X366035Y337132D01*
X365478Y337689D01*
X365549Y337765D01*
X365612Y337843D01*
X365668Y337925D01*
X365716Y338009D01*
X365757Y338096D01*
X365790Y338186D01*
X365815Y338278D01*
X365833Y338373D01*
X365844Y338471D01*
X365846Y338572D01*
X366918Y337500D01*
D02*
G37*
G36*
X368799Y333799D02*
X368737Y333723D01*
X368682Y333643D01*
X368635Y333559D01*
X368595Y333473D01*
X368562Y333383D01*
X368537Y333289D01*
X368518Y333192D01*
X368508Y333091D01*
X368504Y332987D01*
X367717D01*
X367713Y333091D01*
X367702Y333192D01*
X367684Y333289D01*
X367658Y333383D01*
X367625Y333473D01*
X367585Y333559D01*
X367538Y333643D01*
X367483Y333723D01*
X367422Y333799D01*
X367352Y333873D01*
X368868D01*
X368799Y333799D01*
D02*
G37*
G36*
X406041Y355112D02*
X406130Y355100D01*
X406219Y355083D01*
X406306Y355060D01*
X406391Y355030D01*
X406474Y354996D01*
X406555Y354956D01*
X406634Y354911D01*
X406708Y354861D01*
X406780Y354806D01*
X406848Y354746D01*
X406912Y354683D01*
X406971Y354615D01*
X407026Y354543D01*
X407076Y354468D01*
X407121Y354390D01*
X407161Y354309D01*
X407196Y354226D01*
X407206Y354196D01*
X407282Y353746D01*
X407283Y353740D01*
X407283Y353740D01*
X407283Y353740D01*
X407283Y343307D01*
X407284Y343249D01*
X407290Y343132D01*
X407301Y343016D01*
X407318Y342901D01*
X407341Y342787D01*
X407370Y342673D01*
X407403Y342562D01*
X407443Y342452D01*
X407487Y342344D01*
X407537Y342239D01*
X407592Y342136D01*
X407652Y342036D01*
X407717Y341939D01*
X407786Y341845D01*
X407860Y341755D01*
X407939Y341669D01*
X407979Y341627D01*
X407979Y341627D01*
X409401Y340205D01*
X409451Y340156D01*
X409545Y340052D01*
X409633Y339944D01*
X409717Y339831D01*
X409795Y339715D01*
X409867Y339595D01*
X409933Y339471D01*
X409992Y339345D01*
X410046Y339215D01*
X410093Y339084D01*
X410134Y338950D01*
X410168Y338814D01*
X410195Y338677D01*
X410216Y338538D01*
X410229Y338399D01*
X410236Y338265D01*
Y332769D01*
X410229Y332590D01*
X410216Y332400D01*
X410196Y332211D01*
X410169Y332024D01*
X410135Y331837D01*
X410095Y331651D01*
X410048Y331468D01*
X409994Y331286D01*
X409934Y331105D01*
X409868Y330928D01*
X409795Y330752D01*
X409717Y330580D01*
X409631Y330410D01*
X409541Y330244D01*
X409444Y330080D01*
X409341Y329921D01*
X409233Y329765D01*
X409119Y329613D01*
X409000Y329465D01*
X408876Y329322D01*
X408747Y329183D01*
X408612Y329049D01*
X408473Y328919D01*
X408330Y328795D01*
X408182Y328676D01*
X408030Y328562D01*
X407874Y328454D01*
X407715Y328351D01*
X407552Y328255D01*
X407385Y328164D01*
X407215Y328079D01*
X407043Y328000D01*
X406868Y327927D01*
X406690Y327861D01*
X406510Y327801D01*
X406328Y327748D01*
X406144Y327701D01*
X405958Y327660D01*
X405772Y327627D01*
X405584Y327600D01*
X405395Y327579D01*
X405386Y327579D01*
X404921Y327559D01*
X404921Y327559D01*
X404921Y327559D01*
X394640D01*
X394550Y327565D01*
X394460Y327577D01*
X394372Y327594D01*
X394285Y327618D01*
X394199Y327647D01*
X394116Y327681D01*
X394035Y327721D01*
X393957Y327766D01*
X393882Y327816D01*
X393810Y327871D01*
X393743Y327931D01*
X393679Y327994D01*
X393619Y328062D01*
X393564Y328134D01*
X393514Y328209D01*
X393469Y328287D01*
X393429Y328368D01*
X393395Y328451D01*
X393366Y328537D01*
X393342Y328624D01*
X393325Y328712D01*
X393313Y328802D01*
X393307Y328892D01*
X393307Y328937D01*
X393307Y328982D01*
X393313Y329072D01*
X393325Y329162D01*
X393342Y329250D01*
X393366Y329337D01*
X393395Y329423D01*
X393429Y329506D01*
X393469Y329587D01*
X393514Y329665D01*
X393564Y329740D01*
X393619Y329812D01*
X393679Y329879D01*
X393743Y329943D01*
X393810Y330003D01*
X393882Y330058D01*
X393957Y330108D01*
X394035Y330153D01*
X394116Y330193D01*
X394199Y330227D01*
X394285Y330256D01*
X394372Y330280D01*
X394460Y330297D01*
X394550Y330309D01*
X394640Y330315D01*
X394685Y330315D01*
X394685Y330315D01*
X404724D01*
X404787Y330316D01*
X404913Y330322D01*
X405038Y330334D01*
X405162Y330353D01*
X405285Y330377D01*
X405407Y330408D01*
X405527Y330444D01*
X405645Y330486D01*
X405761Y330535D01*
X405875Y330588D01*
X405986Y330647D01*
X406094Y330712D01*
X406198Y330782D01*
X406299Y330857D01*
X406396Y330936D01*
X406489Y331021D01*
X406578Y331109D01*
X406662Y331203D01*
X406742Y331300D01*
X406817Y331400D01*
X406886Y331505D01*
X406951Y331613D01*
X407010Y331723D01*
X407064Y331837D01*
X407112Y331953D01*
X407154Y332071D01*
X407191Y332191D01*
X407221Y332313D01*
X407246Y332436D01*
X407264Y332561D01*
X407276Y332686D01*
X407283Y332811D01*
X407283Y332874D01*
X407283Y332874D01*
X407283Y337205D01*
X407283Y337263D01*
X407277Y337380D01*
X407266Y337496D01*
X407248Y337611D01*
X407226Y337725D01*
X407197Y337839D01*
X407163Y337950D01*
X407124Y338060D01*
X407080Y338168D01*
X407030Y338273D01*
X406975Y338376D01*
X406915Y338476D01*
X406850Y338573D01*
X406780Y338667D01*
X406706Y338757D01*
X406628Y338843D01*
X406587Y338885D01*
X406588Y338885D01*
X405363Y340110D01*
X405313Y340159D01*
X405219Y340263D01*
X405130Y340371D01*
X405047Y340484D01*
X404969Y340600D01*
X404897Y340720D01*
X404831Y340844D01*
X404771Y340970D01*
X404718Y341099D01*
X404671Y341231D01*
X404630Y341365D01*
X404596Y341501D01*
X404569Y341638D01*
X404548Y341777D01*
X404534Y341916D01*
X404528Y342056D01*
Y353785D01*
X404533Y353875D01*
X404545Y353965D01*
X404563Y354053D01*
X404586Y354140D01*
X404615Y354226D01*
X404650Y354309D01*
X404690Y354390D01*
X404735Y354468D01*
X404785Y354543D01*
X404840Y354615D01*
X404899Y354682D01*
X404963Y354746D01*
X405031Y354806D01*
X405102Y354861D01*
X405177Y354911D01*
X405256Y354956D01*
X405336Y354996D01*
X405420Y355030D01*
X405505Y355059D01*
X405592Y355083D01*
X405681Y355100D01*
X405770Y355112D01*
X405860Y355118D01*
X405905D01*
X405905Y355118D01*
X405951Y355118D01*
X406041Y355112D01*
D02*
G37*
G36*
X464173Y328740D02*
X464225Y328740D01*
X464328Y328733D01*
X464430Y328720D01*
X464531Y328700D01*
X464631Y328673D01*
X464728Y328640D01*
X464823Y328601D01*
X464916Y328555D01*
X465005Y328503D01*
X465091Y328446D01*
X465173Y328383D01*
X465250Y328315D01*
X465323Y328242D01*
X465391Y328165D01*
X465454Y328083D01*
X465511Y327997D01*
X465563Y327908D01*
X465609Y327816D01*
X465648Y327720D01*
X465681Y327624D01*
X465734Y327261D01*
X465748Y327165D01*
X465748D01*
X465747Y326702D01*
X465741Y326617D01*
X465728Y326515D01*
X465708Y326414D01*
X465681Y326314D01*
X465648Y326217D01*
X465609Y326121D01*
X465563Y326029D01*
X465511Y325939D01*
X465454Y325854D01*
X465391Y325772D01*
X465323Y325694D01*
X465250Y325622D01*
X465173Y325553D01*
X465091Y325491D01*
X465005Y325433D01*
X464916Y325382D01*
X464823Y325336D01*
X464728Y325297D01*
X464643Y325268D01*
X464173Y325197D01*
Y325197D01*
X458465Y325197D01*
X458406Y325197D01*
X458290Y325203D01*
X458174Y325214D01*
X458058Y325231D01*
X457944Y325254D01*
X457831Y325282D01*
X457719Y325316D01*
X457609Y325355D01*
X457501Y325400D01*
X457396Y325450D01*
X457293Y325505D01*
X457193Y325565D01*
X457158Y325588D01*
X456784Y325893D01*
X456784Y325893D01*
X456784Y325893D01*
X456323Y326354D01*
X456289Y326386D01*
X456219Y326448D01*
X456145Y326505D01*
X456068Y326557D01*
X455987Y326603D01*
X455903Y326644D01*
X455817Y326680D01*
X455729Y326710D01*
X455729Y326710D01*
X455639Y326734D01*
X455639Y326734D01*
X455547Y326753D01*
X455547Y326753D01*
X455455Y326765D01*
X455454Y326765D01*
X455362Y326771D01*
X455315Y326772D01*
X455315Y326772D01*
X455315Y326772D01*
X455315Y326772D01*
X435039Y326772D01*
X434993Y326771D01*
X434900Y326766D01*
X434807Y326757D01*
X434714Y326744D01*
X434623Y326726D01*
X434532Y326703D01*
X434443Y326676D01*
X434355Y326644D01*
X434269Y326609D01*
X434185Y326569D01*
X434102Y326525D01*
X434022Y326477D01*
X434022Y326477D01*
X433945Y326425D01*
X433945Y326425D01*
X433870Y326369D01*
X433870Y326369D01*
X433798Y326310D01*
X433797Y326310D01*
X433729Y326247D01*
X433696Y326215D01*
X433695Y326215D01*
X433695Y326215D01*
X433695Y326215D01*
X416455Y308975D01*
X416403Y308922D01*
X416294Y308822D01*
X416182Y308726D01*
X416066Y308635D01*
X415947Y308548D01*
X415824Y308466D01*
X415698Y308389D01*
X415569Y308317D01*
X415438Y308250D01*
X415304Y308188D01*
X415168Y308132D01*
X415029Y308081D01*
X414889Y308035D01*
X414747Y307995D01*
X414603Y307961D01*
X414459Y307932D01*
X414313Y307909D01*
X414166Y307891D01*
X414019Y307880D01*
X413872Y307874D01*
X413798Y307874D01*
X410236D01*
X410185Y307874D01*
X410082Y307881D01*
X409979Y307894D01*
X409878Y307914D01*
X409779Y307941D01*
X409681Y307974D01*
X409586Y308014D01*
X409493Y308059D01*
X409404Y308111D01*
X409318Y308168D01*
X409237Y308231D01*
X409159Y308299D01*
X409086Y308372D01*
X409018Y308449D01*
X408955Y308531D01*
X408898Y308617D01*
X408847Y308706D01*
X408801Y308799D01*
X408762Y308894D01*
X408728Y308991D01*
X408702Y309091D01*
X408682Y309192D01*
X408668Y309294D01*
X408661Y309397D01*
X408661Y309449D01*
Y309500D01*
X408668Y309603D01*
X408682Y309705D01*
X408702Y309807D01*
X408728Y309906D01*
X408762Y310004D01*
X408801Y310099D01*
X408847Y310191D01*
X408898Y310281D01*
X408955Y310367D01*
X409018Y310448D01*
X409086Y310526D01*
X409159Y310599D01*
X409237Y310667D01*
X409318Y310730D01*
X409404Y310787D01*
X409493Y310838D01*
X409586Y310884D01*
X409681Y310923D01*
X409779Y310957D01*
X409878Y310983D01*
X409979Y311003D01*
X410082Y311017D01*
X410185Y311024D01*
X410236Y311023D01*
X410236Y311024D01*
X413386D01*
X413433Y311024D01*
X413526Y311029D01*
X413619Y311038D01*
X413711Y311052D01*
X413802Y311070D01*
X413893Y311092D01*
X413982Y311120D01*
X414070Y311151D01*
X414156Y311187D01*
X414241Y311227D01*
X414323Y311271D01*
X414403Y311318D01*
X414480Y311370D01*
X414555Y311426D01*
X414627Y311485D01*
X414697Y311548D01*
X414730Y311580D01*
X414730Y311580D01*
X430564Y327414D01*
X430701Y327541D01*
X430843Y327662D01*
X430989Y327778D01*
X431140Y327887D01*
X431296Y327991D01*
X431455Y328089D01*
X431617Y328180D01*
X431784Y328265D01*
X431953Y328343D01*
X432126Y328414D01*
X432301Y328479D01*
X432478Y328536D01*
X432658Y328587D01*
X432839Y328631D01*
X433023Y328667D01*
X433207Y328696D01*
X433392Y328718D01*
X433578Y328733D01*
X433765Y328740D01*
X433858Y328740D01*
X433858Y328740D01*
X464173Y328740D01*
D02*
G37*
G36*
X272455Y327982D02*
X272382Y328051D01*
X272305Y328113D01*
X272226Y328168D01*
X272142Y328215D01*
X272055Y328255D01*
X271965Y328288D01*
X271872Y328314D01*
X271775Y328332D01*
X271674Y328343D01*
X271570Y328346D01*
Y329134D01*
X271674Y329137D01*
X271775Y329148D01*
X271872Y329167D01*
X271965Y329192D01*
X272055Y329225D01*
X272142Y329265D01*
X272226Y329312D01*
X272305Y329367D01*
X272382Y329429D01*
X272455Y329498D01*
Y327982D01*
D02*
G37*
G36*
X449227Y323652D02*
X449154Y323721D01*
X449077Y323783D01*
X448997Y323837D01*
X448914Y323885D01*
X448827Y323925D01*
X448737Y323957D01*
X448643Y323983D01*
X448546Y324001D01*
X448446Y324012D01*
X448342Y324016D01*
Y324803D01*
X448446Y324807D01*
X448546Y324818D01*
X448643Y324836D01*
X448737Y324861D01*
X448827Y324894D01*
X448914Y324934D01*
X448997Y324982D01*
X449077Y325036D01*
X449154Y325098D01*
X449227Y325167D01*
Y323652D01*
D02*
G37*
G36*
X287799Y324389D02*
X287810Y324289D01*
X287828Y324191D01*
X287854Y324098D01*
X287886Y324008D01*
X287926Y323921D01*
X287974Y323837D01*
X288028Y323758D01*
X288090Y323681D01*
X288159Y323608D01*
X286644D01*
X286713Y323681D01*
X286775Y323758D01*
X286829Y323837D01*
X286877Y323921D01*
X286917Y324008D01*
X286950Y324098D01*
X286975Y324191D01*
X286993Y324289D01*
X287004Y324389D01*
X287008Y324493D01*
X287795D01*
X287799Y324389D01*
D02*
G37*
G36*
X265127Y324018D02*
X265206Y323955D01*
X265287Y323899D01*
X265371Y323850D01*
X265458Y323810D01*
X265548Y323777D01*
X265640Y323751D01*
X265736Y323733D01*
X265833Y323723D01*
X265934Y323720D01*
X264862Y322649D01*
X264860Y322749D01*
X264849Y322847D01*
X264831Y322942D01*
X264806Y323035D01*
X264773Y323124D01*
X264732Y323211D01*
X264684Y323296D01*
X264628Y323377D01*
X264565Y323456D01*
X264494Y323532D01*
X265051Y324089D01*
X265127Y324018D01*
D02*
G37*
G36*
X350791Y322420D02*
X350802Y322320D01*
X350820Y322223D01*
X350846Y322129D01*
X350878Y322039D01*
X350919Y321952D01*
X350966Y321869D01*
X351021Y321789D01*
X351082Y321712D01*
X351152Y321639D01*
X349636D01*
X349705Y321712D01*
X349767Y321789D01*
X349822Y321869D01*
X349869Y321952D01*
X349909Y322039D01*
X349942Y322129D01*
X349967Y322223D01*
X349985Y322320D01*
X349996Y322420D01*
X350000Y322524D01*
X350787D01*
X350791Y322420D01*
D02*
G37*
G36*
X449182Y320671D02*
X449261Y320608D01*
X449342Y320552D01*
X449426Y320504D01*
X449513Y320463D01*
X449603Y320430D01*
X449695Y320405D01*
X449791Y320387D01*
X449889Y320377D01*
X449989Y320374D01*
X448917Y319302D01*
X448915Y319403D01*
X448904Y319501D01*
X448886Y319596D01*
X448861Y319688D01*
X448828Y319778D01*
X448787Y319865D01*
X448739Y319949D01*
X448683Y320031D01*
X448620Y320109D01*
X448549Y320185D01*
X449106Y320742D01*
X449182Y320671D01*
D02*
G37*
G36*
X272258Y317549D02*
X272185Y317618D01*
X272109Y317680D01*
X272029Y317735D01*
X271945Y317782D01*
X271859Y317822D01*
X271768Y317855D01*
X271675Y317881D01*
X271578Y317899D01*
X271477Y317910D01*
X271373Y317913D01*
Y318701D01*
X271477Y318704D01*
X271578Y318715D01*
X271675Y318734D01*
X271768Y318759D01*
X271859Y318792D01*
X271945Y318832D01*
X272029Y318879D01*
X272109Y318934D01*
X272185Y318996D01*
X272258Y319065D01*
Y317549D01*
D02*
G37*
G36*
X274117Y318196D02*
X274127Y318098D01*
X274145Y318003D01*
X274171Y317910D01*
X274204Y317821D01*
X274244Y317734D01*
X274292Y317649D01*
X274348Y317568D01*
X274412Y317489D01*
X274482Y317413D01*
X273926Y316856D01*
X273850Y316927D01*
X273771Y316990D01*
X273689Y317046D01*
X273605Y317094D01*
X273518Y317135D01*
X273428Y317168D01*
X273336Y317194D01*
X273241Y317211D01*
X273143Y317222D01*
X273042Y317225D01*
X274114Y318296D01*
X274117Y318196D01*
D02*
G37*
G36*
X263966Y317225D02*
X263865Y317222D01*
X263767Y317211D01*
X263672Y317194D01*
X263580Y317168D01*
X263490Y317135D01*
X263403Y317094D01*
X263319Y317046D01*
X263237Y316990D01*
X263158Y316927D01*
X263082Y316856D01*
X262526Y317413D01*
X262596Y317489D01*
X262660Y317568D01*
X262716Y317649D01*
X262764Y317734D01*
X262804Y317821D01*
X262837Y317910D01*
X262863Y318003D01*
X262881Y318098D01*
X262891Y318196D01*
X262894Y318296D01*
X263966Y317225D01*
D02*
G37*
G36*
X269293Y316141D02*
X269749Y316064D01*
X269777Y316054D01*
X269860Y316020D01*
X269941Y315980D01*
X270019Y315935D01*
X270094Y315884D01*
X270166Y315830D01*
X270234Y315770D01*
X270298Y315706D01*
X270357Y315638D01*
X270412Y315567D01*
X270462Y315492D01*
X270507Y315414D01*
X270547Y315333D01*
X270582Y315249D01*
X270611Y315164D01*
X270634Y315077D01*
X270652Y314988D01*
X270663Y314899D01*
X270669Y314809D01*
X270669Y314764D01*
X270669Y300127D01*
X270670Y300073D01*
X270675Y299964D01*
X270686Y299857D01*
X270702Y299749D01*
X270723Y299643D01*
X270749Y299538D01*
X270781Y299434D01*
X270817Y299332D01*
X270859Y299232D01*
X270905Y299134D01*
X270956Y299039D01*
X271012Y298946D01*
X271072Y298856D01*
X271136Y298769D01*
X271205Y298685D01*
X271278Y298605D01*
X271316Y298566D01*
X276863Y293019D01*
X276863Y293019D01*
X276863Y293019D01*
X276905Y292978D01*
X276991Y292900D01*
X276991Y292900D01*
X277081Y292826D01*
X277081Y292826D01*
X277175Y292756D01*
X277175Y292756D01*
X277272Y292691D01*
X277372Y292632D01*
X277475Y292577D01*
X277580Y292527D01*
X277688Y292482D01*
X277798Y292443D01*
X277909Y292409D01*
X278023Y292380D01*
X278137Y292358D01*
X278252Y292341D01*
X278368Y292329D01*
X278485Y292323D01*
X278543Y292323D01*
X282086D01*
X282087Y292323D01*
X282087Y292323D01*
X282089Y292323D01*
X282546Y292269D01*
X282578Y292261D01*
X282685Y292231D01*
X282789Y292194D01*
X282891Y292152D01*
X282991Y292104D01*
X283087Y292051D01*
X283181Y291992D01*
X283271Y291928D01*
X283357Y291859D01*
X283439Y291785D01*
X283518Y291707D01*
X283591Y291625D01*
X283660Y291539D01*
X283724Y291448D01*
X283783Y291355D01*
X283836Y291258D01*
X283884Y291159D01*
X283926Y291057D01*
X283963Y290952D01*
X283994Y290846D01*
X284018Y290739D01*
X284037Y290630D01*
X284049Y290520D01*
X284055Y290409D01*
X284055Y290354D01*
X284055Y286417D01*
X284055Y286417D01*
X284055Y286362D01*
X284049Y286252D01*
X284036Y286142D01*
X284018Y286033D01*
X283993Y285925D01*
X283963Y285819D01*
X283926Y285715D01*
X283884Y285613D01*
X283836Y285513D01*
X283783Y285417D01*
X283724Y285323D01*
X283660Y285233D01*
X283591Y285147D01*
X283518Y285064D01*
X283439Y284986D01*
X283357Y284913D01*
X283271Y284844D01*
X283181Y284780D01*
X283087Y284721D01*
X282990Y284668D01*
X282891Y284620D01*
X282789Y284577D01*
X282685Y284541D01*
X282578Y284510D01*
X282471Y284486D01*
X282362Y284467D01*
X282252Y284455D01*
X282142Y284449D01*
X282087Y284449D01*
X275532Y284449D01*
X275416Y284454D01*
X275300Y284466D01*
X275184Y284483D01*
X275070Y284506D01*
X274957Y284534D01*
X274845Y284568D01*
X274735Y284607D01*
X274627Y284652D01*
X274522Y284702D01*
X274419Y284757D01*
X274319Y284817D01*
X274222Y284882D01*
X274128Y284951D01*
X274038Y285025D01*
X273952Y285104D01*
X261523Y297532D01*
X261523Y297532D01*
X261481Y297574D01*
X261403Y297660D01*
X261329Y297750D01*
X261260Y297844D01*
X261195Y297941D01*
X261135Y298041D01*
X261080Y298144D01*
X261030Y298249D01*
X260985Y298357D01*
X260946Y298467D01*
X260912Y298579D01*
X260884Y298692D01*
X260861Y298806D01*
X260844Y298922D01*
X260833Y299038D01*
X260827Y299154D01*
X260827Y299213D01*
X260827Y306218D01*
X260827Y306218D01*
X260849Y306709D01*
X260862Y306838D01*
X260885Y307014D01*
X260914Y307189D01*
X260948Y307363D01*
X260989Y307536D01*
X261035Y307707D01*
X261086Y307877D01*
X261143Y308045D01*
X261206Y308211D01*
X261274Y308376D01*
X261347Y308537D01*
X261425Y308696D01*
X261509Y308853D01*
X261598Y309007D01*
X261692Y309157D01*
X261790Y309305D01*
X261894Y309449D01*
X262002Y309590D01*
X262114Y309728D01*
X262231Y309861D01*
X262353Y309991D01*
X262416Y310053D01*
X268110Y315748D01*
X268110Y315748D01*
X268110Y315748D01*
X268110Y315748D01*
X268501Y316020D01*
X268506Y316023D01*
X268587Y316056D01*
X268670Y316085D01*
X268755Y316107D01*
X268827Y316122D01*
X269291Y316142D01*
X269291Y316142D01*
X269291D01*
X269293Y316141D01*
D02*
G37*
G36*
X347303Y315649D02*
X347379Y315587D01*
X347460Y315533D01*
X347543Y315485D01*
X347630Y315445D01*
X347720Y315413D01*
X347813Y315387D01*
X347910Y315369D01*
X348011Y315358D01*
X348115Y315354D01*
Y314567D01*
X348011Y314563D01*
X347910Y314552D01*
X347813Y314534D01*
X347720Y314509D01*
X347630Y314476D01*
X347543Y314436D01*
X347460Y314388D01*
X347379Y314334D01*
X347303Y314272D01*
X347230Y314203D01*
Y315719D01*
X347303Y315649D01*
D02*
G37*
G36*
X449182Y315553D02*
X449261Y315490D01*
X449342Y315434D01*
X449426Y315386D01*
X449513Y315345D01*
X449603Y315312D01*
X449695Y315287D01*
X449791Y315269D01*
X449889Y315259D01*
X449989Y315256D01*
X448917Y314184D01*
X448915Y314285D01*
X448904Y314383D01*
X448886Y314478D01*
X448861Y314570D01*
X448828Y314660D01*
X448787Y314747D01*
X448739Y314831D01*
X448683Y314913D01*
X448620Y314991D01*
X448549Y315067D01*
X449106Y315624D01*
X449182Y315553D01*
D02*
G37*
G36*
X443321Y311053D02*
X443248Y311122D01*
X443172Y311184D01*
X443092Y311239D01*
X443008Y311286D01*
X442922Y311326D01*
X442831Y311359D01*
X442738Y311385D01*
X442641Y311403D01*
X442540Y311414D01*
X442436Y311417D01*
Y312205D01*
X442540Y312208D01*
X442641Y312219D01*
X442738Y312238D01*
X442831Y312263D01*
X442922Y312296D01*
X443008Y312336D01*
X443092Y312383D01*
X443172Y312438D01*
X443248Y312500D01*
X443321Y312569D01*
Y311053D01*
D02*
G37*
G36*
X347303Y311712D02*
X347379Y311650D01*
X347460Y311596D01*
X347543Y311548D01*
X347630Y311508D01*
X347720Y311476D01*
X347813Y311450D01*
X347910Y311432D01*
X348011Y311421D01*
X348115Y311417D01*
Y310630D01*
X348011Y310626D01*
X347910Y310615D01*
X347813Y310597D01*
X347720Y310572D01*
X347630Y310539D01*
X347543Y310499D01*
X347460Y310452D01*
X347379Y310397D01*
X347303Y310335D01*
X347230Y310266D01*
Y311782D01*
X347303Y311712D01*
D02*
G37*
G36*
X372213Y311419D02*
X372292Y311356D01*
X372374Y311300D01*
X372458Y311252D01*
X372545Y311211D01*
X372635Y311178D01*
X372727Y311153D01*
X372822Y311135D01*
X372920Y311125D01*
X373021Y311122D01*
X371949Y310050D01*
X371946Y310151D01*
X371936Y310249D01*
X371918Y310344D01*
X371892Y310436D01*
X371859Y310526D01*
X371819Y310613D01*
X371771Y310697D01*
X371715Y310779D01*
X371652Y310857D01*
X371581Y310933D01*
X372137Y311490D01*
X372213Y311419D01*
D02*
G37*
G36*
X450370Y310550D02*
X450387Y310363D01*
X450402Y310281D01*
X450422Y310208D01*
X450445Y310144D01*
X450473Y310087D01*
X450506Y310039D01*
X450542Y309999D01*
X450583Y309967D01*
X449374Y309938D01*
X449413Y309972D01*
X449448Y310014D01*
X449479Y310064D01*
X449506Y310123D01*
X449529Y310191D01*
X449547Y310267D01*
X449562Y310351D01*
X449572Y310444D01*
X449580Y310656D01*
X450368D01*
X450370Y310550D01*
D02*
G37*
G36*
X237160Y309926D02*
X237133Y309860D01*
X237123Y309787D01*
X237132Y309706D01*
X237159Y309619D01*
X237204Y309524D01*
X237267Y309422D01*
X237349Y309313D01*
X237449Y309196D01*
X237567Y309072D01*
X237011Y308515D01*
X236887Y308634D01*
X236770Y308734D01*
X236661Y308815D01*
X236559Y308879D01*
X236464Y308924D01*
X236376Y308951D01*
X236296Y308960D01*
X236223Y308950D01*
X236157Y308922D01*
X236098Y308876D01*
X237206Y309985D01*
X237160Y309926D01*
D02*
G37*
G36*
X445880Y308297D02*
X445807Y308366D01*
X445731Y308428D01*
X445651Y308483D01*
X445567Y308530D01*
X445481Y308570D01*
X445390Y308603D01*
X445297Y308629D01*
X445200Y308647D01*
X445099Y308658D01*
X444995Y308661D01*
Y309449D01*
X445099Y309453D01*
X445200Y309463D01*
X445297Y309482D01*
X445390Y309507D01*
X445481Y309540D01*
X445567Y309580D01*
X445651Y309627D01*
X445731Y309682D01*
X445807Y309744D01*
X445880Y309813D01*
Y308297D01*
D02*
G37*
G36*
X347303Y307775D02*
X347379Y307713D01*
X347460Y307659D01*
X347543Y307611D01*
X347630Y307571D01*
X347720Y307539D01*
X347813Y307513D01*
X347910Y307495D01*
X348011Y307484D01*
X348115Y307480D01*
Y306693D01*
X348011Y306689D01*
X347910Y306678D01*
X347813Y306660D01*
X347720Y306635D01*
X347630Y306602D01*
X347543Y306562D01*
X347460Y306515D01*
X347379Y306460D01*
X347303Y306398D01*
X347230Y306329D01*
Y307844D01*
X347303Y307775D01*
D02*
G37*
G36*
X435630Y306693D02*
X466142Y306693D01*
Y304331D01*
X464606D01*
X464567Y304334D01*
X444291D01*
X444253Y304331D01*
X443504D01*
Y303582D01*
X443500Y303543D01*
Y242913D01*
X443504Y242875D01*
Y242126D01*
X444253D01*
X444291Y242122D01*
X464567D01*
X464606Y242126D01*
X466142D01*
Y239764D01*
X441245D01*
X441059Y239782D01*
X440876Y239819D01*
X440697Y239873D01*
X440525Y239944D01*
X440360Y240032D01*
X440205Y240136D01*
X440060Y240254D01*
X439994Y240320D01*
X437565Y242750D01*
X437565Y242750D01*
X437497Y242815D01*
X437353Y242933D01*
X437198Y243037D01*
X437033Y243125D01*
X436861Y243196D01*
X436682Y243250D01*
X436499Y243286D01*
X436314Y243305D01*
X436220Y243307D01*
X435039Y243307D01*
X435039Y243307D01*
X434943Y243305D01*
X434751Y243286D01*
X434561Y243248D01*
X434376Y243192D01*
X434198Y243118D01*
X434027Y243027D01*
X433867Y242920D01*
X433717Y242797D01*
X433581Y242660D01*
X433458Y242511D01*
X433351Y242351D01*
X433260Y242180D01*
X433186Y242002D01*
X433130Y241817D01*
X433092Y241627D01*
X433073Y241435D01*
X433071Y241339D01*
Y240945D01*
X433071Y240945D01*
X433071Y240867D01*
X433051Y240714D01*
X433011Y240564D01*
X432951Y240421D01*
X432874Y240287D01*
X432780Y240164D01*
X432670Y240055D01*
X432547Y239961D01*
X432413Y239883D01*
X432270Y239824D01*
X432121Y239784D01*
X431967Y239764D01*
X428669D01*
X428571Y239804D01*
X428370Y239862D01*
X428162Y239898D01*
X427953Y239909D01*
X427743Y239898D01*
X427536Y239862D01*
X427353Y239810D01*
X427333Y239813D01*
X427089Y239861D01*
X426848Y239926D01*
X426613Y240006D01*
X426383Y240101D01*
X426159Y240211D01*
X425944Y240335D01*
X425737Y240474D01*
X425539Y240625D01*
X425352Y240789D01*
X425264Y240877D01*
X403543Y262598D01*
X403543Y262598D01*
X403473Y262668D01*
X403348Y262822D01*
X403237Y262986D01*
X403144Y263161D01*
X403068Y263344D01*
X403011Y263534D01*
X402972Y263728D01*
X402953Y263925D01*
X402953Y264024D01*
X402953Y282972D01*
X402953Y282972D01*
X403026Y283442D01*
X403028Y283448D01*
X403102Y283627D01*
X403198Y283795D01*
X403316Y283948D01*
X403453Y284085D01*
X403607Y284203D01*
X403774Y284300D01*
X403953Y284374D01*
X404140Y284424D01*
X404332Y284449D01*
X404429Y284449D01*
X417244Y284449D01*
X417717Y284449D01*
X417717Y284449D01*
X417841Y284451D01*
X418088Y284467D01*
X418089Y284467D01*
X418195Y284481D01*
X418336Y284499D01*
X418580Y284548D01*
X418820Y284612D01*
X419056Y284692D01*
X419286Y284788D01*
X419509Y284898D01*
X419724Y285022D01*
X419931Y285160D01*
X420128Y285312D01*
X420316Y285476D01*
X420405Y285562D01*
X431761Y296918D01*
X431761Y296918D01*
X431761Y296918D01*
X431761Y296918D01*
X431847Y297007D01*
X432011Y297194D01*
X432011Y297194D01*
X432066Y297265D01*
X432163Y297392D01*
X432301Y297598D01*
X432425Y297814D01*
X432535Y298037D01*
X432631Y298267D01*
X432711Y298502D01*
X432775Y298743D01*
X432823Y298987D01*
X432856Y299234D01*
X432872Y299482D01*
X432874Y299606D01*
X432874Y302906D01*
X432878Y302953D01*
Y304110D01*
X432900Y304342D01*
X432953Y304608D01*
X433032Y304867D01*
X433135Y305117D01*
X433263Y305356D01*
X433413Y305581D01*
X433585Y305790D01*
X433777Y305982D01*
X433986Y306153D01*
X434211Y306304D01*
X434450Y306432D01*
X434700Y306535D01*
X434959Y306614D01*
X435225Y306666D01*
X435495Y306693D01*
X435630Y306693D01*
D02*
G37*
G36*
X370442Y305022D02*
X370520Y304958D01*
X370602Y304903D01*
X370686Y304854D01*
X370773Y304814D01*
X370863Y304781D01*
X370955Y304755D01*
X371051Y304737D01*
X371148Y304727D01*
X371249Y304724D01*
X370177Y303653D01*
X370174Y303753D01*
X370164Y303851D01*
X370146Y303946D01*
X370121Y304039D01*
X370088Y304128D01*
X370047Y304215D01*
X369999Y304299D01*
X369943Y304381D01*
X369880Y304460D01*
X369809Y304536D01*
X370366Y305093D01*
X370442Y305022D01*
D02*
G37*
G36*
X347303Y303838D02*
X347379Y303776D01*
X347460Y303722D01*
X347543Y303674D01*
X347630Y303634D01*
X347720Y303602D01*
X347813Y303576D01*
X347910Y303558D01*
X348011Y303547D01*
X348115Y303543D01*
Y302756D01*
X348011Y302752D01*
X347910Y302741D01*
X347813Y302723D01*
X347720Y302698D01*
X347630Y302665D01*
X347543Y302625D01*
X347460Y302577D01*
X347379Y302523D01*
X347303Y302461D01*
X347230Y302392D01*
Y303907D01*
X347303Y303838D01*
D02*
G37*
G36*
X275073Y302292D02*
X275002Y302216D01*
X274939Y302137D01*
X274883Y302055D01*
X274835Y301971D01*
X274794Y301884D01*
X274761Y301795D01*
X274736Y301702D01*
X274718Y301607D01*
X274707Y301509D01*
X274705Y301409D01*
X273633Y302480D01*
X273733Y302483D01*
X273831Y302493D01*
X273926Y302511D01*
X274019Y302537D01*
X274109Y302570D01*
X274196Y302610D01*
X274280Y302659D01*
X274361Y302714D01*
X274440Y302778D01*
X274516Y302849D01*
X275073Y302292D01*
D02*
G37*
G36*
X347303Y299901D02*
X347379Y299839D01*
X347460Y299785D01*
X347543Y299737D01*
X347630Y299697D01*
X347720Y299665D01*
X347813Y299639D01*
X347910Y299621D01*
X348011Y299610D01*
X348115Y299606D01*
Y298819D01*
X348011Y298815D01*
X347910Y298804D01*
X347813Y298786D01*
X347720Y298761D01*
X347630Y298728D01*
X347543Y298688D01*
X347460Y298640D01*
X347379Y298586D01*
X347303Y298524D01*
X347230Y298455D01*
Y299971D01*
X347303Y299901D01*
D02*
G37*
G36*
X230329Y299726D02*
X230356Y299659D01*
X230401Y299601D01*
X230464Y299550D01*
X230545Y299507D01*
X230644Y299472D01*
X230762Y299445D01*
X230897Y299425D01*
X231050Y299413D01*
X231221Y299410D01*
Y298622D01*
X231050Y298618D01*
X230897Y298606D01*
X230762Y298587D01*
X230644Y298560D01*
X230545Y298524D01*
X230464Y298482D01*
X230401Y298431D01*
X230356Y298372D01*
X230329Y298306D01*
X230320Y298232D01*
Y299800D01*
X230329Y299726D01*
D02*
G37*
G36*
X429138Y298405D02*
X429148Y298304D01*
X429167Y298207D01*
X429192Y298113D01*
X429225Y298023D01*
X429265Y297937D01*
X429312Y297853D01*
X429367Y297773D01*
X429429Y297697D01*
X429498Y297624D01*
X427982D01*
X428052Y297697D01*
X428113Y297773D01*
X428168Y297853D01*
X428215Y297937D01*
X428255Y298023D01*
X428288Y298113D01*
X428314Y298207D01*
X428332Y298304D01*
X428343Y298405D01*
X428346Y298509D01*
X429134D01*
X429138Y298405D01*
D02*
G37*
G36*
X413389Y298011D02*
X413400Y297910D01*
X413419Y297813D01*
X413444Y297720D01*
X413477Y297630D01*
X413517Y297543D01*
X413564Y297460D01*
X413619Y297379D01*
X413681Y297303D01*
X413750Y297230D01*
X412234D01*
X412303Y297303D01*
X412365Y297379D01*
X412420Y297460D01*
X412467Y297543D01*
X412507Y297630D01*
X412540Y297720D01*
X412566Y297813D01*
X412584Y297910D01*
X412595Y298011D01*
X412598Y298115D01*
X413386D01*
X413389Y298011D01*
D02*
G37*
G36*
X424286Y297744D02*
X424215Y297669D01*
X424151Y297590D01*
X424096Y297508D01*
X424047Y297424D01*
X424007Y297337D01*
X423974Y297247D01*
X423948Y297155D01*
X423930Y297060D01*
X423920Y296962D01*
X423917Y296861D01*
X422846Y297933D01*
X422946Y297936D01*
X423044Y297946D01*
X423139Y297964D01*
X423232Y297990D01*
X423321Y298023D01*
X423408Y298063D01*
X423492Y298111D01*
X423574Y298167D01*
X423653Y298230D01*
X423729Y298301D01*
X424286Y297744D01*
D02*
G37*
G36*
X399311Y296004D02*
X399249Y295928D01*
X399194Y295848D01*
X399147Y295764D01*
X399107Y295677D01*
X399074Y295587D01*
X399048Y295494D01*
X399030Y295397D01*
X399019Y295296D01*
X399016Y295192D01*
X398228D01*
X398225Y295296D01*
X398214Y295397D01*
X398196Y295494D01*
X398170Y295587D01*
X398137Y295677D01*
X398097Y295764D01*
X398050Y295848D01*
X397995Y295928D01*
X397933Y296004D01*
X397864Y296077D01*
X399380D01*
X399311Y296004D01*
D02*
G37*
G36*
X237337Y295710D02*
X237364Y295643D01*
X237409Y295585D01*
X237472Y295534D01*
X237553Y295491D01*
X237652Y295456D01*
X237770Y295429D01*
X237905Y295409D01*
X238058Y295398D01*
X238229Y295394D01*
Y294606D01*
X238058Y294602D01*
X237905Y294591D01*
X237770Y294571D01*
X237652Y294544D01*
X237553Y294509D01*
X237472Y294466D01*
X237409Y294415D01*
X237364Y294357D01*
X237337Y294290D01*
X237328Y294216D01*
Y295784D01*
X237337Y295710D01*
D02*
G37*
G36*
X410295Y293996D02*
X410372Y293934D01*
X410452Y293879D01*
X410535Y293832D01*
X410622Y293792D01*
X410712Y293759D01*
X410806Y293734D01*
X410903Y293715D01*
X411003Y293704D01*
X411107Y293701D01*
Y292913D01*
X411003Y292910D01*
X410903Y292899D01*
X410806Y292881D01*
X410712Y292855D01*
X410622Y292822D01*
X410535Y292782D01*
X410452Y292735D01*
X410372Y292680D01*
X410295Y292618D01*
X410222Y292549D01*
Y294065D01*
X410295Y293996D01*
D02*
G37*
G36*
X361038Y291565D02*
X360965Y291634D01*
X360888Y291696D01*
X360808Y291751D01*
X360725Y291798D01*
X360638Y291838D01*
X360548Y291871D01*
X360454Y291896D01*
X360357Y291915D01*
X360257Y291926D01*
X360153Y291929D01*
Y292717D01*
X360257Y292720D01*
X360357Y292731D01*
X360454Y292749D01*
X360548Y292775D01*
X360638Y292808D01*
X360725Y292848D01*
X360808Y292895D01*
X360888Y292950D01*
X360965Y293011D01*
X361038Y293081D01*
Y291565D01*
D02*
G37*
G36*
X315042Y293011D02*
X315118Y292950D01*
X315198Y292895D01*
X315282Y292848D01*
X315368Y292808D01*
X315458Y292775D01*
X315552Y292749D01*
X315649Y292731D01*
X315750Y292720D01*
X315854Y292717D01*
Y291929D01*
X315750Y291926D01*
X315649Y291915D01*
X315552Y291896D01*
X315458Y291871D01*
X315368Y291838D01*
X315282Y291798D01*
X315198Y291751D01*
X315118Y291696D01*
X315042Y291634D01*
X314969Y291565D01*
Y293081D01*
X315042Y293011D01*
D02*
G37*
G36*
X230467Y291697D02*
X230491Y291630D01*
X230531Y291571D01*
X230587Y291520D01*
X230659Y291476D01*
X230747Y291441D01*
X230851Y291413D01*
X230971Y291394D01*
X231106Y291382D01*
X231258Y291378D01*
Y290591D01*
X231106Y290587D01*
X230971Y290575D01*
X230851Y290555D01*
X230747Y290528D01*
X230659Y290492D01*
X230587Y290449D01*
X230531Y290398D01*
X230491Y290339D01*
X230467Y290272D01*
X230459Y290197D01*
Y291772D01*
X230467Y291697D01*
D02*
G37*
G36*
X413838Y290846D02*
X413915Y290784D01*
X413995Y290730D01*
X414078Y290682D01*
X414165Y290642D01*
X414255Y290610D01*
X414349Y290584D01*
X414446Y290566D01*
X414546Y290555D01*
X414650Y290551D01*
Y289764D01*
X414546Y289760D01*
X414446Y289749D01*
X414349Y289731D01*
X414255Y289705D01*
X414165Y289673D01*
X414078Y289633D01*
X413995Y289585D01*
X413915Y289531D01*
X413838Y289469D01*
X413765Y289400D01*
Y290915D01*
X413838Y290846D01*
D02*
G37*
G36*
X338249Y289266D02*
X338178Y289190D01*
X338115Y289111D01*
X338059Y289030D01*
X338011Y288945D01*
X337971Y288858D01*
X337937Y288769D01*
X337912Y288676D01*
X337894Y288581D01*
X337884Y288483D01*
X337881Y288383D01*
X336809Y289454D01*
X336910Y289457D01*
X337008Y289468D01*
X337103Y289485D01*
X337195Y289511D01*
X337285Y289544D01*
X337372Y289585D01*
X337456Y289633D01*
X337538Y289688D01*
X337616Y289752D01*
X337692Y289823D01*
X338249Y289266D01*
D02*
G37*
G36*
X348141Y287779D02*
X348085Y287857D01*
X348023Y287927D01*
X347956Y287988D01*
X347883Y288041D01*
X347805Y288087D01*
X347721Y288123D01*
X347632Y288152D01*
X347537Y288173D01*
X347436Y288185D01*
X347331Y288189D01*
X347500Y288976D01*
X347602Y288979D01*
X347702Y288988D01*
X347800Y289002D01*
X347896Y289023D01*
X347991Y289049D01*
X348083Y289081D01*
X348175Y289118D01*
X348264Y289162D01*
X348351Y289211D01*
X348437Y289266D01*
X348141Y287779D01*
D02*
G37*
G36*
X313146Y289060D02*
X313223Y288999D01*
X313303Y288944D01*
X313386Y288897D01*
X313473Y288857D01*
X313563Y288824D01*
X313657Y288798D01*
X313754Y288780D01*
X313855Y288769D01*
X313958Y288766D01*
Y287978D01*
X313855Y287975D01*
X313754Y287964D01*
X313657Y287945D01*
X313563Y287920D01*
X313473Y287887D01*
X313386Y287847D01*
X313303Y287800D01*
X313223Y287745D01*
X313146Y287683D01*
X313073Y287614D01*
Y289130D01*
X313146Y289060D01*
D02*
G37*
G36*
X336025Y287614D02*
X335952Y287683D01*
X335876Y287745D01*
X335796Y287800D01*
X335712Y287847D01*
X335626Y287887D01*
X335535Y287920D01*
X335442Y287945D01*
X335345Y287964D01*
X335244Y287975D01*
X335140Y287978D01*
Y288766D01*
X335244Y288769D01*
X335345Y288780D01*
X335442Y288798D01*
X335535Y288824D01*
X335626Y288857D01*
X335712Y288897D01*
X335796Y288944D01*
X335876Y288999D01*
X335952Y289060D01*
X336025Y289130D01*
Y287614D01*
D02*
G37*
G36*
X323776D02*
X323703Y287683D01*
X323626Y287745D01*
X323547Y287800D01*
X323463Y287847D01*
X323376Y287887D01*
X323286Y287920D01*
X323193Y287945D01*
X323095Y287964D01*
X322995Y287975D01*
X322891Y287978D01*
X322891Y288766D01*
X322995Y288769D01*
X323096Y288780D01*
X323193Y288798D01*
X323286Y288824D01*
X323376Y288857D01*
X323463Y288897D01*
X323547Y288944D01*
X323626Y288999D01*
X323703Y289060D01*
X323776Y289130D01*
X323776Y287614D01*
D02*
G37*
G36*
X362143Y289060D02*
X362219Y288998D01*
X362299Y288944D01*
X362383Y288896D01*
X362469Y288856D01*
X362560Y288824D01*
X362653Y288798D01*
X362750Y288780D01*
X362851Y288769D01*
X362955Y288765D01*
Y287978D01*
X362851Y287974D01*
X362750Y287963D01*
X362653Y287945D01*
X362560Y287920D01*
X362469Y287887D01*
X362383Y287847D01*
X362299Y287800D01*
X362219Y287745D01*
X362143Y287683D01*
X362070Y287614D01*
Y289129D01*
X362143Y289060D01*
D02*
G37*
G36*
X367814Y289322D02*
X367820Y289167D01*
X367837Y289016D01*
X367865Y288870D01*
X367903Y288729D01*
X367954Y288592D01*
X368015Y288460D01*
X368087Y288333D01*
X368171Y288210D01*
X368265Y288092D01*
X368371Y287978D01*
X367814Y287421D01*
X367701Y287527D01*
X367583Y287622D01*
X367460Y287705D01*
X367332Y287777D01*
X367200Y287839D01*
X367063Y287889D01*
X366922Y287928D01*
X366776Y287956D01*
X366625Y287972D01*
X366470Y287978D01*
X366240Y288765D01*
X366389Y288773D01*
X366523Y288797D01*
X366641Y288836D01*
X366744Y288891D01*
X366830Y288962D01*
X366901Y289049D01*
X366956Y289151D01*
X366996Y289269D01*
X367019Y289403D01*
X367027Y289553D01*
X367814Y289322D01*
D02*
G37*
G36*
X312289Y287289D02*
X312189Y287286D01*
X312091Y287276D01*
X311996Y287258D01*
X311903Y287233D01*
X311814Y287200D01*
X311727Y287159D01*
X311643Y287111D01*
X311561Y287055D01*
X311482Y286992D01*
X311406Y286921D01*
X310849Y287478D01*
X310920Y287554D01*
X310984Y287632D01*
X311039Y287714D01*
X311087Y287798D01*
X311128Y287885D01*
X311161Y287975D01*
X311187Y288067D01*
X311205Y288162D01*
X311215Y288260D01*
X311218Y288361D01*
X312289Y287289D01*
D02*
G37*
G36*
X325635Y288260D02*
X325645Y288162D01*
X325663Y288067D01*
X325688Y287975D01*
X325722Y287885D01*
X325762Y287798D01*
X325810Y287714D01*
X325866Y287632D01*
X325929Y287554D01*
X326000Y287478D01*
X325443Y286921D01*
X325367Y286992D01*
X325289Y287055D01*
X325207Y287111D01*
X325123Y287159D01*
X325036Y287200D01*
X324946Y287233D01*
X324854Y287258D01*
X324759Y287276D01*
X324661Y287286D01*
X324560Y287289D01*
X325632Y288361D01*
X325635Y288260D01*
D02*
G37*
G36*
X355161Y287289D02*
X355061Y287286D01*
X354963Y287276D01*
X354868Y287258D01*
X354775Y287233D01*
X354685Y287200D01*
X354598Y287159D01*
X354514Y287111D01*
X354433Y287055D01*
X354354Y286992D01*
X354278Y286921D01*
X353721Y287478D01*
X353792Y287554D01*
X353855Y287632D01*
X353911Y287714D01*
X353959Y287798D01*
X354000Y287885D01*
X354033Y287975D01*
X354058Y288067D01*
X354076Y288162D01*
X354087Y288260D01*
X354089Y288361D01*
X355161Y287289D01*
D02*
G37*
G36*
X361286Y287289D02*
X361185Y287286D01*
X361087Y287276D01*
X360992Y287258D01*
X360900Y287233D01*
X360810Y287199D01*
X360723Y287159D01*
X360639Y287111D01*
X360557Y287055D01*
X360478Y286992D01*
X360402Y286921D01*
X359846Y287478D01*
X359916Y287554D01*
X359980Y287632D01*
X360035Y287714D01*
X360084Y287798D01*
X360124Y287885D01*
X360157Y287975D01*
X360183Y288067D01*
X360201Y288162D01*
X360211Y288260D01*
X360214Y288361D01*
X361286Y287289D01*
D02*
G37*
G36*
X349805Y287598D02*
X349736Y287525D01*
X349674Y287449D01*
X349620Y287369D01*
X349572Y287286D01*
X349532Y287199D01*
X349499Y287109D01*
X349474Y287015D01*
X349456Y286918D01*
X349445Y286818D01*
X349441Y286714D01*
X348654Y286714D01*
X348650Y286818D01*
X348639Y286918D01*
X348621Y287015D01*
X348595Y287109D01*
X348563Y287199D01*
X348523Y287286D01*
X348475Y287369D01*
X348421Y287449D01*
X348359Y287526D01*
X348290Y287599D01*
X349805Y287598D01*
D02*
G37*
G36*
X374234Y287525D02*
X374172Y287449D01*
X374118Y287369D01*
X374070Y287285D01*
X374030Y287199D01*
X373997Y287108D01*
X373972Y287015D01*
X373954Y286918D01*
X373943Y286817D01*
X373939Y286714D01*
X373152D01*
X373148Y286817D01*
X373137Y286918D01*
X373119Y287015D01*
X373094Y287108D01*
X373061Y287199D01*
X373021Y287285D01*
X372973Y287369D01*
X372919Y287449D01*
X372857Y287525D01*
X372788Y287598D01*
X374303D01*
X374234Y287525D01*
D02*
G37*
G36*
X410295Y288090D02*
X410372Y288028D01*
X410452Y287974D01*
X410535Y287926D01*
X410622Y287886D01*
X410712Y287854D01*
X410806Y287828D01*
X410903Y287810D01*
X411003Y287799D01*
X411107Y287795D01*
Y287008D01*
X411003Y287004D01*
X410903Y286993D01*
X410806Y286975D01*
X410712Y286950D01*
X410622Y286917D01*
X410535Y286877D01*
X410452Y286829D01*
X410372Y286775D01*
X410295Y286713D01*
X410222Y286644D01*
Y288159D01*
X410295Y288090D01*
D02*
G37*
G36*
X356279Y285306D02*
X356293Y285123D01*
X356306Y285045D01*
X356322Y284975D01*
X356342Y284913D01*
X356365Y284860D01*
X356392Y284816D01*
X356423Y284781D01*
X356457Y284754D01*
X355309D01*
X355343Y284781D01*
X355374Y284816D01*
X355401Y284860D01*
X355424Y284913D01*
X355444Y284975D01*
X355461Y285045D01*
X355473Y285123D01*
X355482Y285210D01*
X355489Y285411D01*
X356277D01*
X356279Y285306D01*
D02*
G37*
G36*
X260236Y282677D02*
X260236Y282677D01*
X260243Y282676D01*
X260695Y282621D01*
X260743Y282609D01*
X260833Y282582D01*
X260921Y282550D01*
X261007Y282515D01*
X261091Y282475D01*
X261174Y282431D01*
X261253Y282383D01*
X261331Y282331D01*
X261406Y282275D01*
X261478Y282216D01*
X261547Y282153D01*
X261580Y282120D01*
X262348Y281353D01*
X262348Y281353D01*
X262386Y281315D01*
X262466Y281243D01*
X262466Y281243D01*
X262550Y281174D01*
X262550Y281174D01*
X262636Y281110D01*
X262637Y281110D01*
X262726Y281050D01*
X262819Y280994D01*
X262914Y280943D01*
X263012Y280897D01*
X263112Y280856D01*
X263213Y280820D01*
X263317Y280788D01*
X263421Y280762D01*
X263527Y280741D01*
X263634Y280725D01*
X263741Y280715D01*
X263849Y280709D01*
X263903Y280709D01*
X281889Y280709D01*
X281890Y280708D01*
X281890Y280708D01*
X281899Y280707D01*
X282347Y280642D01*
X282445Y280608D01*
X282540Y280569D01*
X282632Y280523D01*
X282722Y280472D01*
X282807Y280415D01*
X282889Y280352D01*
X282967Y280284D01*
X283040Y280211D01*
X283108Y280133D01*
X283171Y280052D01*
X283228Y279966D01*
X283279Y279877D01*
X283325Y279784D01*
X283364Y279689D01*
X283398Y279591D01*
X283424Y279492D01*
X283444Y279391D01*
X283458Y279288D01*
X283465Y279185D01*
X283465Y279134D01*
X283465Y266535D01*
X283465Y266535D01*
X283465Y266484D01*
X283458Y266381D01*
X283444Y266279D01*
X283424Y266178D01*
X283398Y266078D01*
X283364Y265980D01*
X283325Y265885D01*
X283279Y265793D01*
X283228Y265703D01*
X283171Y265618D01*
X283108Y265536D01*
X283040Y265458D01*
X282967Y265385D01*
X282889Y265317D01*
X282807Y265255D01*
X282722Y265197D01*
X282632Y265146D01*
X282540Y265100D01*
X282445Y265061D01*
X282347Y265028D01*
X282247Y265001D01*
X282146Y264981D01*
X282044Y264967D01*
X281941Y264961D01*
X271654Y264961D01*
X271653Y264960D01*
X271513Y264959D01*
X271234Y264952D01*
X270954Y264939D01*
X270675Y264918D01*
X270396Y264891D01*
X270118Y264857D01*
X269842Y264815D01*
X269566Y264768D01*
X269291Y264713D01*
X269018Y264652D01*
X268746Y264584D01*
X268477Y264509D01*
X268209Y264428D01*
X267943Y264340D01*
X267679Y264246D01*
X267418Y264145D01*
X267160Y264038D01*
X266904Y263925D01*
X266651Y263805D01*
X266401Y263679D01*
X266154Y263547D01*
X265910Y263409D01*
X265670Y263265D01*
X265434Y263115D01*
X265201Y262960D01*
X264972Y262799D01*
X264747Y262632D01*
X264527Y262460D01*
X264310Y262282D01*
X264098Y262099D01*
X263891Y261911D01*
X263688Y261718D01*
X263589Y261620D01*
X254705Y252736D01*
X254704Y252736D01*
X254628Y252658D01*
X254479Y252499D01*
X254336Y252336D01*
X254198Y252167D01*
X254065Y251995D01*
X253938Y251818D01*
X253817Y251637D01*
X253702Y251452D01*
X253594Y251263D01*
X253491Y251071D01*
X253395Y250876D01*
X253305Y250678D01*
X253222Y250477D01*
X253145Y250273D01*
X253075Y250067D01*
X253012Y249858D01*
X252955Y249648D01*
X252906Y249436D01*
X252863Y249222D01*
X252828Y249008D01*
X252800Y248792D01*
X252778Y248575D01*
X252764Y248358D01*
X252757Y248140D01*
X252756Y248031D01*
Y239369D01*
X252757Y239292D01*
X252764Y239138D01*
X252777Y238984D01*
X252797Y238830D01*
X252824Y238678D01*
X252857Y238527D01*
X252898Y238378D01*
X252944Y238230D01*
X252997Y238085D01*
X253056Y237943D01*
X253121Y237802D01*
X253193Y237665D01*
X253270Y237531D01*
X253353Y237401D01*
X253442Y237274D01*
X253536Y237152D01*
X253635Y237033D01*
X253740Y236919D01*
X253849Y236810D01*
X253963Y236706D01*
X254081Y236606D01*
X254204Y236512D01*
X254331Y236424D01*
X254461Y236340D01*
X254595Y236263D01*
X254732Y236192D01*
X254872Y236127D01*
X255015Y236068D01*
X255160Y236015D01*
X255308Y235968D01*
X255457Y235928D01*
X255608Y235895D01*
X255760Y235868D01*
X255913Y235848D01*
X256067Y235834D01*
X256222Y235828D01*
X256299Y235827D01*
X264173D01*
X264250Y235828D01*
X264405Y235834D01*
X264559Y235848D01*
X264712Y235868D01*
X264864Y235895D01*
X265015Y235928D01*
X265164Y235968D01*
X265312Y236015D01*
X265457Y236067D01*
X265600Y236126D01*
X265740Y236192D01*
X265877Y236263D01*
X266011Y236340D01*
X266142Y236423D01*
X266268Y236512D01*
X266391Y236606D01*
X266510Y236706D01*
X266624Y236810D01*
X266733Y236919D01*
X266837Y237033D01*
X266937Y237152D01*
X267031Y237275D01*
X267120Y237401D01*
X267203Y237532D01*
X267280Y237666D01*
X267351Y237803D01*
X267417Y237943D01*
X267476Y238086D01*
X267529Y238231D01*
X267575Y238378D01*
X267615Y238528D01*
X267649Y238679D01*
X267675Y238831D01*
X267696Y238984D01*
X267709Y239138D01*
X267716Y239293D01*
X267717Y239370D01*
X267717Y245563D01*
X267717Y246062D01*
X267731Y246298D01*
X267747Y246550D01*
X267761Y246662D01*
X267791Y246831D01*
X267828Y246999D01*
X267873Y247165D01*
X267924Y247329D01*
X267983Y247490D01*
X268049Y247649D01*
X268121Y247805D01*
X268201Y247957D01*
X268286Y248106D01*
X268379Y248251D01*
X268477Y248392D01*
X268582Y248528D01*
X268692Y248659D01*
X268809Y248786D01*
X268930Y248908D01*
X269057Y249024D01*
X269188Y249134D01*
X269325Y249239D01*
X269465Y249337D01*
X269610Y249430D01*
X269759Y249516D01*
X269912Y249595D01*
X270067Y249668D01*
X270226Y249733D01*
X270388Y249792D01*
X270551Y249844D01*
X270717Y249888D01*
X270885Y249925D01*
X271054Y249955D01*
X271225Y249978D01*
X271396Y249992D01*
X271568Y250000D01*
X271654Y250000D01*
X287401Y250000D01*
X287401Y249999D01*
X287401Y249999D01*
X287484Y249995D01*
X287869Y249972D01*
X288000Y249955D01*
X288169Y249925D01*
X288337Y249888D01*
X288503Y249843D01*
X288667Y249792D01*
X288828Y249733D01*
X288987Y249667D01*
X289143Y249595D01*
X289295Y249515D01*
X289444Y249429D01*
X289589Y249337D01*
X289730Y249239D01*
X289866Y249134D01*
X289998Y249024D01*
X290125Y248908D01*
X290246Y248786D01*
X290362Y248659D01*
X290473Y248528D01*
X290577Y248392D01*
X290676Y248251D01*
X290768Y248106D01*
X290854Y247957D01*
X290933Y247805D01*
X291006Y247649D01*
X291072Y247490D01*
X291130Y247329D01*
X291182Y247165D01*
X291227Y246999D01*
X291264Y246831D01*
X291294Y246662D01*
X291316Y246492D01*
X291331Y246321D01*
X291339Y246149D01*
X291339Y246063D01*
X291339Y231102D01*
X291338Y231102D01*
X291338Y231009D01*
X291332Y230822D01*
X291320Y230636D01*
X291301Y230450D01*
X291277Y230265D01*
X291247Y230081D01*
X291210Y229898D01*
X291168Y229716D01*
X291120Y229536D01*
X291066Y229357D01*
X291006Y229181D01*
X290940Y229006D01*
X290868Y228834D01*
X290792Y228664D01*
X290709Y228496D01*
X290621Y228332D01*
X290528Y228170D01*
X290429Y228011D01*
X290325Y227856D01*
X290217Y227705D01*
X290103Y227557D01*
X289985Y227412D01*
X289862Y227272D01*
X289734Y227136D01*
X283445Y220846D01*
X283445Y220846D01*
X283368Y220768D01*
X283219Y220609D01*
X283076Y220446D01*
X282938Y220277D01*
X282805Y220105D01*
X282679Y219928D01*
X282558Y219747D01*
X282442Y219562D01*
X282334Y219373D01*
X282231Y219181D01*
X282135Y218986D01*
X282045Y218788D01*
X281962Y218587D01*
X281885Y218383D01*
X281815Y218177D01*
X281752Y217969D01*
X281695Y217758D01*
X281646Y217546D01*
X281604Y217333D01*
X281568Y217118D01*
X281540Y216902D01*
X281518Y216685D01*
X281504Y216468D01*
X281497Y216251D01*
X281496Y216142D01*
Y205118D01*
X281496Y205118D01*
X281497Y205041D01*
X281505Y204886D01*
X281520Y204732D01*
X281542Y204579D01*
X281573Y204428D01*
X281610Y204278D01*
X281655Y204130D01*
X281707Y203984D01*
X281766Y203841D01*
X281832Y203702D01*
X281905Y203566D01*
X281985Y203433D01*
X282071Y203304D01*
X282163Y203180D01*
X282261Y203061D01*
X282365Y202946D01*
X282474Y202837D01*
X282588Y202733D01*
X282708Y202635D01*
X282832Y202543D01*
X282961Y202457D01*
X283093Y202378D01*
X283230Y202305D01*
X283369Y202239D01*
X283512Y202179D01*
X283658Y202127D01*
X283806Y202082D01*
X283956Y202045D01*
X284107Y202015D01*
X284260Y201992D01*
X284414Y201977D01*
X284568Y201969D01*
X284646Y201969D01*
X287302D01*
X287795Y201969D01*
X287795Y201969D01*
X287795Y201969D01*
X287872Y201969D01*
X288026Y201977D01*
X288027Y201977D01*
X288180Y201992D01*
X288180Y201992D01*
X288333Y202015D01*
X288485Y202045D01*
X288635Y202082D01*
X288783Y202127D01*
X288929Y202179D01*
X289071Y202238D01*
X289211Y202305D01*
X289348Y202377D01*
X289480Y202457D01*
X289609Y202543D01*
X289733Y202635D01*
X289852Y202733D01*
X289967Y202837D01*
X290076Y202946D01*
X290180Y203061D01*
X290278Y203180D01*
X290370Y203304D01*
X290456Y203433D01*
X290536Y203566D01*
X290609Y203702D01*
X290675Y203842D01*
X290734Y203984D01*
X290786Y204130D01*
X290831Y204278D01*
X290868Y204428D01*
X290899Y204580D01*
X290921Y204732D01*
X290936Y204886D01*
X290944Y205041D01*
X290945Y205118D01*
X290945Y221153D01*
X290945Y221653D01*
X290977Y221918D01*
X291003Y222130D01*
X291006Y222145D01*
X291037Y222251D01*
X291073Y222356D01*
X291115Y222458D01*
X291163Y222557D01*
X291217Y222654D01*
X291276Y222747D01*
X291339Y222838D01*
X291408Y222924D01*
X291482Y223006D01*
X291560Y223085D01*
X291642Y223158D01*
X291729Y223227D01*
X291819Y223291D01*
X291913Y223350D01*
X292009Y223403D01*
X292109Y223451D01*
X292211Y223494D01*
X292315Y223530D01*
X292421Y223561D01*
X292529Y223585D01*
X292638Y223604D01*
X292748Y223616D01*
X292858Y223622D01*
X292913Y223622D01*
X305511Y223622D01*
X305511Y223621D01*
X305511Y223621D01*
X305541Y223619D01*
X305973Y223567D01*
X306003Y223560D01*
X306109Y223530D01*
X306214Y223493D01*
X306316Y223451D01*
X306415Y223403D01*
X306512Y223349D01*
X306606Y223291D01*
X306696Y223227D01*
X306782Y223158D01*
X306865Y223084D01*
X306943Y223006D01*
X307016Y222924D01*
X307085Y222838D01*
X307149Y222748D01*
X307208Y222654D01*
X307261Y222557D01*
X307309Y222458D01*
X307352Y222356D01*
X307388Y222252D01*
X307419Y222145D01*
X307443Y222038D01*
X307462Y221929D01*
X307474Y221819D01*
X307480Y221709D01*
X307480Y221654D01*
X307480Y218110D01*
X307480Y218110D01*
X307480Y218040D01*
X307473Y217900D01*
X307459Y217761D01*
X307439Y217622D01*
X307412Y217485D01*
X307378Y217349D01*
X307337Y217215D01*
X307290Y217084D01*
X307236Y216954D01*
X307176Y216828D01*
X307110Y216704D01*
X307038Y216584D01*
X306961Y216468D01*
X306877Y216355D01*
X306789Y216247D01*
X306695Y216143D01*
X304140Y213589D01*
X304139Y213588D01*
X304093Y213541D01*
X304003Y213443D01*
X303917Y213342D01*
X303835Y213238D01*
X303757Y213131D01*
X303683Y213020D01*
X303613Y212907D01*
X303549Y212791D01*
X303488Y212673D01*
X303433Y212553D01*
X303382Y212430D01*
X303336Y212305D01*
X303295Y212179D01*
X303259Y212052D01*
X303228Y211923D01*
X303202Y211792D01*
X303182Y211661D01*
X303166Y211529D01*
X303155Y211397D01*
X303155Y211378D01*
X303110D01*
Y202520D01*
X303102Y202448D01*
X303070Y202249D01*
X303031Y202052D01*
X302984Y201857D01*
X302930Y201663D01*
X302868Y201472D01*
X302798Y201284D01*
X302721Y201098D01*
X302637Y200915D01*
X302546Y200736D01*
X302447Y200561D01*
X302342Y200390D01*
X302231Y200222D01*
X302113Y200060D01*
X301988Y199902D01*
X301858Y199749D01*
X301721Y199601D01*
X301579Y199459D01*
X301431Y199323D01*
X301279Y199192D01*
X301121Y199068D01*
X300958Y198950D01*
X300791Y198838D01*
X300620Y198733D01*
X300444Y198635D01*
X300265Y198544D01*
X300083Y198459D01*
X299897Y198383D01*
X299709Y198313D01*
X299517Y198251D01*
X299324Y198196D01*
X299129Y198149D01*
X298931Y198110D01*
X298733Y198079D01*
X298533Y198055D01*
X298333Y198039D01*
X298132Y198031D01*
X277165D01*
X277165Y198031D01*
X277064Y198031D01*
X276863Y198039D01*
X276663Y198055D01*
X276463Y198079D01*
X276265Y198110D01*
X276068Y198150D01*
X275872Y198196D01*
X275679Y198251D01*
X275488Y198313D01*
X275299Y198383D01*
X275113Y198460D01*
X274931Y198544D01*
X274752Y198635D01*
X274576Y198733D01*
X274405Y198838D01*
X274238Y198950D01*
X274075Y199068D01*
X273917Y199193D01*
X273765Y199323D01*
X273617Y199460D01*
X273475Y199602D01*
X273338Y199749D01*
X273208Y199902D01*
X273083Y200060D01*
X272965Y200223D01*
X272854Y200390D01*
X272749Y200561D01*
X272651Y200736D01*
X272559Y200916D01*
X272475Y201098D01*
X272398Y201284D01*
X272329Y201472D01*
X272267Y201664D01*
X272212Y201857D01*
X272165Y202052D01*
X272126Y202250D01*
X272094Y202448D01*
X272071Y202648D01*
X272055Y202848D01*
X272047Y203049D01*
X272047Y203150D01*
Y210630D01*
X272047Y210630D01*
X272047Y210630D01*
X272046Y210651D01*
X272046Y210715D01*
X272038Y210886D01*
X272038Y210887D01*
X272024Y211058D01*
X272023Y211058D01*
X272018Y211098D01*
X272001Y211228D01*
X271971Y211398D01*
X271934Y211565D01*
X271890Y211731D01*
X271838Y211895D01*
X271779Y212056D01*
X271714Y212215D01*
X271641Y212371D01*
X271562Y212523D01*
X271476Y212672D01*
X271384Y212817D01*
X271285Y212958D01*
X271181Y213094D01*
X271070Y213226D01*
X270954Y213352D01*
X270833Y213474D01*
X270706Y213590D01*
X270574Y213700D01*
X270438Y213805D01*
X270298Y213903D01*
X270153Y213996D01*
X270004Y214082D01*
X269851Y214161D01*
X269696Y214233D01*
X269537Y214299D01*
X269376Y214358D01*
X269212Y214410D01*
X269046Y214454D01*
X268878Y214491D01*
X268709Y214521D01*
X268539Y214544D01*
X268368Y214559D01*
X268196Y214566D01*
X268110Y214567D01*
X211024Y214567D01*
X211023Y214567D01*
X210930Y214567D01*
X210745Y214574D01*
X210560Y214589D01*
X210376Y214611D01*
X210192Y214640D01*
X210011Y214676D01*
X209830Y214719D01*
X209651Y214770D01*
X209475Y214827D01*
X209301Y214891D01*
X209130Y214962D01*
X208961Y215040D01*
X208796Y215124D01*
X208634Y215215D01*
X208476Y215312D01*
X208321Y215415D01*
X208171Y215524D01*
X208026Y215639D01*
X207885Y215759D01*
X207748Y215885D01*
X207617Y216016D01*
X207491Y216153D01*
X207371Y216294D01*
X207256Y216439D01*
X207147Y216589D01*
X207044Y216744D01*
X206947Y216902D01*
X206856Y217064D01*
X206772Y217229D01*
X206694Y217398D01*
X206623Y217569D01*
X206559Y217743D01*
X206502Y217920D01*
X206451Y218098D01*
X206408Y218279D01*
X206372Y218461D01*
X206343Y218644D01*
X206321Y218828D01*
X206306Y219013D01*
X206299Y219198D01*
X206299Y219291D01*
Y228346D01*
X206299Y228440D01*
X206307Y228626D01*
X206321Y228812D01*
X206343Y228998D01*
X206372Y229182D01*
X206409Y229365D01*
X206452Y229546D01*
X206503Y229726D01*
X206560Y229904D01*
X206625Y230079D01*
X206697Y230251D01*
X206775Y230421D01*
X206859Y230587D01*
X206951Y230750D01*
X207048Y230909D01*
X207152Y231064D01*
X207262Y231215D01*
X207377Y231362D01*
X207498Y231504D01*
X207625Y231641D01*
X207691Y231707D01*
X209516Y233532D01*
X209516Y233532D01*
X209516Y233532D01*
X209518Y233534D01*
X209569Y233585D01*
X209669Y233694D01*
X209670Y233695D01*
X209767Y233808D01*
X209767Y233808D01*
X209859Y233926D01*
X209947Y234047D01*
X210030Y234171D01*
X210108Y234298D01*
X210181Y234428D01*
X210249Y234561D01*
X210311Y234697D01*
X210368Y234835D01*
X210420Y234975D01*
X210466Y235117D01*
X210507Y235260D01*
X210542Y235406D01*
X210571Y235552D01*
X210594Y235700D01*
X210612Y235848D01*
X210623Y235997D01*
X210629Y236146D01*
X210630Y236220D01*
X210630Y242126D01*
X210630Y242126D01*
X210630Y242126D01*
X210630Y242132D01*
X210629Y242201D01*
X210623Y242349D01*
X210623Y242350D01*
X210612Y242498D01*
X210612Y242499D01*
X210594Y242647D01*
X210571Y242794D01*
X210542Y242941D01*
X210507Y243086D01*
X210466Y243230D01*
X210420Y243372D01*
X210368Y243512D01*
X210311Y243650D01*
X210249Y243785D01*
X210181Y243918D01*
X210108Y244049D01*
X210030Y244176D01*
X209947Y244300D01*
X209859Y244421D01*
X209767Y244538D01*
X209670Y244651D01*
X209569Y244761D01*
X209516Y244814D01*
X207691Y246640D01*
Y246640D01*
X207362Y247003D01*
X207262Y247131D01*
X207152Y247282D01*
X207048Y247437D01*
X206951Y247596D01*
X206859Y247759D01*
X206775Y247926D01*
X206697Y248095D01*
X206625Y248268D01*
X206561Y248443D01*
X206503Y248620D01*
X206452Y248800D01*
X206409Y248981D01*
X206372Y249164D01*
X206343Y249349D01*
X206321Y249534D01*
X206307Y249720D01*
X206299Y249907D01*
X206299Y250000D01*
Y259148D01*
X206307Y259333D01*
X206321Y259518D01*
X206343Y259702D01*
X206372Y259886D01*
X206408Y260068D01*
X206451Y260248D01*
X206502Y260427D01*
X206559Y260603D01*
X206623Y260777D01*
X206694Y260949D01*
X206772Y261117D01*
X206856Y261283D01*
X206947Y261444D01*
X207044Y261603D01*
X207147Y261757D01*
X207256Y261907D01*
X207371Y262053D01*
X207491Y262194D01*
X207617Y262330D01*
X207749Y262461D01*
X207885Y262587D01*
X208026Y262708D01*
X208172Y262823D01*
X208322Y262932D01*
X208476Y263035D01*
X208634Y263132D01*
X208796Y263223D01*
X208961Y263307D01*
X209130Y263384D01*
X209301Y263455D01*
X209475Y263520D01*
X209652Y263577D01*
X209830Y263627D01*
X210011Y263671D01*
X210193Y263707D01*
X210376Y263736D01*
X210560Y263758D01*
X210745Y263772D01*
X210931Y263779D01*
X234646Y263779D01*
X234646Y263779D01*
X234646Y263779D01*
X234766Y263780D01*
X235004Y263787D01*
X235005Y263787D01*
X235245Y263801D01*
X235484Y263821D01*
X235722Y263848D01*
X235960Y263881D01*
X236197Y263921D01*
X236432Y263968D01*
X236666Y264021D01*
X236898Y264081D01*
X237129Y264148D01*
X237357Y264221D01*
X237584Y264300D01*
X237808Y264386D01*
X238030Y264477D01*
X238249Y264575D01*
X238465Y264680D01*
X238678Y264790D01*
X238888Y264906D01*
X239095Y265028D01*
X239298Y265155D01*
X239497Y265288D01*
X239693Y265427D01*
X239885Y265572D01*
X240072Y265721D01*
X240256Y265876D01*
X240435Y266036D01*
X240609Y266201D01*
X240694Y266285D01*
X245669Y271260D01*
X245669Y271260D01*
X245669Y271260D01*
X245749Y271340D01*
X245903Y271504D01*
X245904Y271505D01*
X246055Y271673D01*
X246201Y271846D01*
X246342Y272023D01*
X246478Y272204D01*
X246609Y272388D01*
X246734Y272576D01*
X246855Y272768D01*
X246970Y272963D01*
X247079Y273161D01*
X247183Y273362D01*
X247281Y273566D01*
X247374Y273772D01*
X247460Y273981D01*
X247541Y274193D01*
X247616Y274406D01*
X247684Y274622D01*
X247747Y274839D01*
X247803Y275058D01*
X247854Y275278D01*
X247898Y275500D01*
X247936Y275723D01*
X247967Y275947D01*
X247993Y276172D01*
X248012Y276398D01*
X248024Y276624D01*
X248031Y276850D01*
X248031Y276963D01*
X248031Y277846D01*
X248031Y278346D01*
X248059Y278835D01*
X248072Y278940D01*
X248098Y279108D01*
X248131Y279275D01*
X248171Y279440D01*
X248217Y279604D01*
X248270Y279766D01*
X248329Y279925D01*
X248394Y280082D01*
X248465Y280237D01*
X248542Y280388D01*
X248625Y280537D01*
X248714Y280682D01*
X248809Y280823D01*
X248909Y280961D01*
X249014Y281094D01*
X249124Y281224D01*
X249240Y281349D01*
X249360Y281469D01*
X249485Y281584D01*
X249614Y281695D01*
X249748Y281800D01*
X249886Y281900D01*
X250027Y281995D01*
X250172Y282083D01*
X250320Y282167D01*
X250472Y282244D01*
X250626Y282315D01*
X250783Y282380D01*
X250943Y282439D01*
X251105Y282491D01*
X251269Y282538D01*
X251434Y282577D01*
X251601Y282611D01*
X251769Y282637D01*
X251938Y282657D01*
X252107Y282670D01*
X252277Y282677D01*
X252362Y282677D01*
X260236Y282677D01*
X260236Y282677D01*
D02*
G37*
G36*
X372727Y283627D02*
X372806Y283564D01*
X372888Y283508D01*
X372972Y283460D01*
X373059Y283419D01*
X373148Y283386D01*
X373241Y283361D01*
X373336Y283343D01*
X373434Y283332D01*
X373535Y283330D01*
X372463Y282258D01*
X372460Y282358D01*
X372450Y282456D01*
X372432Y282552D01*
X372406Y282644D01*
X372373Y282734D01*
X372333Y282821D01*
X372285Y282905D01*
X372229Y282986D01*
X372165Y283065D01*
X372094Y283141D01*
X372651Y283698D01*
X372727Y283627D01*
D02*
G37*
G36*
X356572Y282990D02*
X356510Y282913D01*
X356455Y282833D01*
X356408Y282750D01*
X356368Y282663D01*
X356335Y282573D01*
X356310Y282479D01*
X356292Y282382D01*
X356280Y282282D01*
X356277Y282178D01*
X355489D01*
X355486Y282282D01*
X355475Y282382D01*
X355457Y282479D01*
X355431Y282573D01*
X355399Y282663D01*
X355358Y282750D01*
X355311Y282833D01*
X355256Y282913D01*
X355194Y282990D01*
X355125Y283063D01*
X356641D01*
X356572Y282990D01*
D02*
G37*
G36*
X319271Y282936D02*
X319348Y282874D01*
X319428Y282819D01*
X319511Y282772D01*
X319598Y282732D01*
X319688Y282699D01*
X319782Y282674D01*
X319879Y282656D01*
X319979Y282645D01*
X320083Y282641D01*
Y281854D01*
X319979Y281850D01*
X319879Y281839D01*
X319782Y281821D01*
X319688Y281795D01*
X319598Y281763D01*
X319511Y281722D01*
X319428Y281675D01*
X319348Y281621D01*
X319271Y281559D01*
X319198Y281489D01*
Y283005D01*
X319271Y282936D01*
D02*
G37*
G36*
X329901Y281489D02*
X329828Y281559D01*
X329751Y281621D01*
X329671Y281675D01*
X329588Y281722D01*
X329501Y281763D01*
X329411Y281795D01*
X329317Y281821D01*
X329220Y281839D01*
X329120Y281850D01*
X329016Y281854D01*
X329016Y282641D01*
X329120Y282645D01*
X329220Y282656D01*
X329317Y282674D01*
X329411Y282699D01*
X329501Y282732D01*
X329588Y282772D01*
X329671Y282819D01*
X329751Y282874D01*
X329828Y282936D01*
X329901Y283005D01*
X329901Y281489D01*
D02*
G37*
G36*
X362382Y282136D02*
X362392Y282038D01*
X362410Y281943D01*
X362436Y281850D01*
X362469Y281761D01*
X362509Y281674D01*
X362557Y281589D01*
X362613Y281508D01*
X362676Y281429D01*
X362747Y281353D01*
X362191Y280796D01*
X362115Y280867D01*
X362036Y280930D01*
X361954Y280986D01*
X361870Y281034D01*
X361783Y281075D01*
X361693Y281108D01*
X361601Y281133D01*
X361506Y281151D01*
X361408Y281162D01*
X361307Y281164D01*
X362379Y282236D01*
X362382Y282136D01*
D02*
G37*
G36*
X368506Y282136D02*
X368517Y282038D01*
X368534Y281943D01*
X368560Y281850D01*
X368593Y281760D01*
X368634Y281674D01*
X368682Y281589D01*
X368738Y281508D01*
X368801Y281429D01*
X368872Y281353D01*
X368315Y280796D01*
X368239Y280867D01*
X368160Y280930D01*
X368079Y280986D01*
X367994Y281034D01*
X367908Y281075D01*
X367818Y281108D01*
X367725Y281133D01*
X367630Y281151D01*
X367532Y281162D01*
X367432Y281164D01*
X368503Y282236D01*
X368506Y282136D01*
D02*
G37*
G36*
X384256Y281475D02*
X384266Y281375D01*
X384285Y281278D01*
X384310Y281184D01*
X384343Y281094D01*
X384383Y281007D01*
X384430Y280924D01*
X384485Y280844D01*
X384547Y280767D01*
X384616Y280694D01*
X383100D01*
X383170Y280767D01*
X383231Y280844D01*
X383286Y280924D01*
X383333Y281007D01*
X383373Y281094D01*
X383406Y281184D01*
X383432Y281278D01*
X383450Y281375D01*
X383461Y281475D01*
X383465Y281579D01*
X384252D01*
X384256Y281475D01*
D02*
G37*
G36*
X401185Y281508D02*
X401197Y281407D01*
X401216Y281311D01*
X401243Y281219D01*
X401278Y281132D01*
X401321Y281049D01*
X401372Y280970D01*
X401430Y280896D01*
X401496Y280826D01*
X401570Y280760D01*
X400061Y280622D01*
X400124Y280702D01*
X400181Y280784D01*
X400231Y280869D01*
X400274Y280956D01*
X400311Y281046D01*
X400340Y281139D01*
X400364Y281234D01*
X400380Y281332D01*
X400390Y281432D01*
X400394Y281535D01*
X401181Y281612D01*
X401185Y281508D01*
D02*
G37*
G36*
X319113Y281401D02*
X319052Y281325D01*
X318997Y281244D01*
X318950Y281161D01*
X318910Y281074D01*
X318877Y280984D01*
X318851Y280890D01*
X318833Y280793D01*
X318822Y280693D01*
X318818Y280589D01*
X318031D01*
X318027Y280693D01*
X318017Y280793D01*
X317998Y280890D01*
X317973Y280984D01*
X317940Y281074D01*
X317900Y281161D01*
X317853Y281244D01*
X317798Y281325D01*
X317736Y281401D01*
X317667Y281474D01*
X319183D01*
X319113Y281401D01*
D02*
G37*
G36*
X374234Y281401D02*
X374172Y281324D01*
X374118Y281244D01*
X374070Y281161D01*
X374030Y281074D01*
X373997Y280984D01*
X373972Y280890D01*
X373954Y280793D01*
X373943Y280693D01*
X373939Y280589D01*
X373152D01*
X373148Y280693D01*
X373137Y280793D01*
X373119Y280890D01*
X373094Y280984D01*
X373061Y281074D01*
X373021Y281161D01*
X372973Y281244D01*
X372919Y281324D01*
X372857Y281401D01*
X372788Y281474D01*
X374303D01*
X374234Y281401D01*
D02*
G37*
G36*
X349441Y277781D02*
X349445Y277677D01*
X349456Y277576D01*
X349474Y277479D01*
X349499Y277386D01*
X349532Y277295D01*
X349572Y277209D01*
X349620Y277125D01*
X349674Y277045D01*
X349736Y276969D01*
X349805Y276896D01*
X348289Y276896D01*
X348359Y276969D01*
X348421Y277045D01*
X348475Y277125D01*
X348523Y277209D01*
X348563Y277295D01*
X348595Y277386D01*
X348621Y277479D01*
X348639Y277576D01*
X348650Y277677D01*
X348654Y277781D01*
X349441Y277781D01*
D02*
G37*
G36*
X361617Y277538D02*
X361628Y277437D01*
X361646Y277341D01*
X361672Y277247D01*
X361704Y277157D01*
X361744Y277070D01*
X361792Y276987D01*
X361846Y276906D01*
X361908Y276830D01*
X361978Y276757D01*
X360462D01*
X360531Y276830D01*
X360593Y276906D01*
X360648Y276987D01*
X360695Y277070D01*
X360735Y277157D01*
X360768Y277247D01*
X360793Y277341D01*
X360811Y277437D01*
X360822Y277538D01*
X360826Y277642D01*
X361613D01*
X361617Y277538D01*
D02*
G37*
G36*
X385309Y277469D02*
X385238Y277393D01*
X385175Y277314D01*
X385119Y277233D01*
X385071Y277148D01*
X385030Y277061D01*
X384997Y276972D01*
X384972Y276879D01*
X384954Y276784D01*
X384944Y276686D01*
X384941Y276586D01*
X383869Y277657D01*
X383970Y277660D01*
X384068Y277671D01*
X384163Y277688D01*
X384255Y277714D01*
X384345Y277747D01*
X384432Y277788D01*
X384516Y277836D01*
X384597Y277891D01*
X384676Y277955D01*
X384752Y278026D01*
X385309Y277469D01*
D02*
G37*
G36*
X344720Y277600D02*
X344730Y277502D01*
X344748Y277407D01*
X344773Y277314D01*
X344806Y277225D01*
X344847Y277138D01*
X344895Y277054D01*
X344951Y276972D01*
X345014Y276893D01*
X345085Y276817D01*
X344528Y276261D01*
X344452Y276331D01*
X344373Y276395D01*
X344292Y276450D01*
X344208Y276499D01*
X344121Y276539D01*
X344031Y276572D01*
X343939Y276598D01*
X343844Y276616D01*
X343746Y276626D01*
X343645Y276629D01*
X344717Y277701D01*
X344720Y277600D01*
D02*
G37*
G36*
X355861Y275276D02*
X355799Y275200D01*
X355744Y275120D01*
X355697Y275036D01*
X355657Y274950D01*
X355624Y274859D01*
X355598Y274766D01*
X355580Y274669D01*
X355569Y274568D01*
X355566Y274464D01*
X354778D01*
X354774Y274568D01*
X354764Y274669D01*
X354745Y274766D01*
X354720Y274859D01*
X354687Y274950D01*
X354647Y275036D01*
X354600Y275120D01*
X354545Y275200D01*
X354483Y275276D01*
X354414Y275349D01*
X355930D01*
X355861Y275276D01*
D02*
G37*
G36*
X361908Y275137D02*
X361846Y275061D01*
X361792Y274981D01*
X361744Y274898D01*
X361704Y274811D01*
X361672Y274721D01*
X361646Y274627D01*
X361628Y274530D01*
X361617Y274429D01*
X361613Y274325D01*
X360826D01*
X360822Y274429D01*
X360811Y274530D01*
X360793Y274627D01*
X360768Y274721D01*
X360735Y274811D01*
X360695Y274898D01*
X360648Y274981D01*
X360593Y275061D01*
X360531Y275137D01*
X360462Y275210D01*
X361978D01*
X361908Y275137D01*
D02*
G37*
G36*
X401125Y274803D02*
X401137Y274703D01*
X401156Y274606D01*
X401182Y274514D01*
X401217Y274425D01*
X401258Y274341D01*
X401308Y274260D01*
X401365Y274184D01*
X401429Y274111D01*
X401502Y274042D01*
X399988Y273959D01*
X400054Y274036D01*
X400113Y274116D01*
X400165Y274199D01*
X400210Y274285D01*
X400248Y274374D01*
X400279Y274465D01*
X400303Y274560D01*
X400320Y274657D01*
X400331Y274758D01*
X400334Y274861D01*
X401122Y274908D01*
X401125Y274803D01*
D02*
G37*
G36*
X373943Y271552D02*
X373954Y271452D01*
X373972Y271355D01*
X373997Y271261D01*
X374030Y271171D01*
X374070Y271084D01*
X374117Y271001D01*
X374172Y270921D01*
X374234Y270844D01*
X374303Y270771D01*
X372787D01*
X372857Y270844D01*
X372919Y270921D01*
X372973Y271001D01*
X373021Y271084D01*
X373061Y271171D01*
X373093Y271261D01*
X373119Y271355D01*
X373137Y271452D01*
X373148Y271552D01*
X373152Y271656D01*
X373939D01*
X373943Y271552D01*
D02*
G37*
G36*
X323731Y271378D02*
X323810Y271315D01*
X323891Y271259D01*
X323976Y271211D01*
X324063Y271170D01*
X324152Y271137D01*
X324245Y271112D01*
X324340Y271094D01*
X324438Y271083D01*
X324538Y271081D01*
X323467Y270009D01*
X323464Y270110D01*
X323454Y270208D01*
X323436Y270303D01*
X323410Y270395D01*
X323377Y270485D01*
X323337Y270572D01*
X323288Y270656D01*
X323233Y270737D01*
X323169Y270816D01*
X323098Y270892D01*
X323655Y271449D01*
X323731Y271378D01*
D02*
G37*
G36*
X325635Y269887D02*
X325645Y269789D01*
X325663Y269694D01*
X325688Y269601D01*
X325722Y269512D01*
X325762Y269425D01*
X325810Y269340D01*
X325866Y269259D01*
X325929Y269180D01*
X326000Y269104D01*
X325443Y268547D01*
X325367Y268618D01*
X325289Y268682D01*
X325207Y268737D01*
X325123Y268785D01*
X325036Y268826D01*
X324946Y268859D01*
X324854Y268884D01*
X324759Y268902D01*
X324661Y268913D01*
X324560Y268916D01*
X325632Y269987D01*
X325635Y269887D01*
D02*
G37*
G36*
X319113Y269152D02*
X319052Y269075D01*
X318997Y268995D01*
X318950Y268912D01*
X318910Y268825D01*
X318877Y268735D01*
X318851Y268641D01*
X318833Y268544D01*
X318822Y268444D01*
X318818Y268340D01*
X318031D01*
X318027Y268444D01*
X318017Y268544D01*
X317998Y268641D01*
X317973Y268735D01*
X317940Y268825D01*
X317900Y268912D01*
X317853Y268995D01*
X317798Y269075D01*
X317736Y269152D01*
X317667Y269225D01*
X319183D01*
X319113Y269152D01*
D02*
G37*
G36*
X374279Y269190D02*
X374220Y269110D01*
X374168Y269027D01*
X374123Y268941D01*
X374085Y268852D01*
X374054Y268761D01*
X374029Y268666D01*
X374012Y268568D01*
X374002Y268468D01*
X373998Y268365D01*
X373211Y268319D01*
X373207Y268423D01*
X373196Y268523D01*
X373177Y268620D01*
X373150Y268712D01*
X373116Y268801D01*
X373074Y268886D01*
X373025Y268966D01*
X372968Y269043D01*
X372903Y269116D01*
X372831Y269184D01*
X374344Y269267D01*
X374279Y269190D01*
D02*
G37*
G36*
X372745Y265271D02*
X372824Y265207D01*
X372905Y265152D01*
X372989Y265103D01*
X373076Y265063D01*
X373166Y265030D01*
X373258Y265004D01*
X373353Y264986D01*
X373451Y264976D01*
X373552Y264973D01*
X372480Y263901D01*
X372477Y264002D01*
X372467Y264100D01*
X372449Y264195D01*
X372424Y264288D01*
X372391Y264377D01*
X372350Y264464D01*
X372302Y264548D01*
X372246Y264630D01*
X372183Y264709D01*
X372112Y264785D01*
X372669Y265341D01*
X372745Y265271D01*
D02*
G37*
G36*
X350498Y264768D02*
X350427Y264691D01*
X350364Y264613D01*
X350308Y264531D01*
X350260Y264447D01*
X350219Y264360D01*
X350186Y264270D01*
X350161Y264178D01*
X350143Y264083D01*
X350133Y263985D01*
X350130Y263884D01*
X349058Y264956D01*
X349159Y264959D01*
X349257Y264969D01*
X349352Y264987D01*
X349444Y265013D01*
X349534Y265045D01*
X349621Y265086D01*
X349705Y265134D01*
X349787Y265190D01*
X349865Y265253D01*
X349941Y265324D01*
X350498Y264768D01*
D02*
G37*
G36*
X337645Y264562D02*
X337721Y264500D01*
X337801Y264446D01*
X337884Y264398D01*
X337971Y264358D01*
X338061Y264325D01*
X338155Y264300D01*
X338252Y264282D01*
X338353Y264271D01*
X338456Y264267D01*
Y263480D01*
X338353Y263476D01*
X338252Y263465D01*
X338155Y263447D01*
X338061Y263422D01*
X337971Y263389D01*
X337884Y263349D01*
X337801Y263301D01*
X337721Y263247D01*
X337645Y263185D01*
X337572Y263116D01*
Y264631D01*
X337645Y264562D01*
D02*
G37*
G36*
X330663Y262791D02*
X330562Y262788D01*
X330464Y262778D01*
X330369Y262760D01*
X330277Y262734D01*
X330187Y262701D01*
X330100Y262661D01*
X330016Y262613D01*
X329935Y262557D01*
X329856Y262493D01*
X329780Y262423D01*
X329223Y262979D01*
X329294Y263055D01*
X329357Y263134D01*
X329413Y263216D01*
X329461Y263300D01*
X329502Y263387D01*
X329535Y263477D01*
X329560Y263569D01*
X329578Y263664D01*
X329588Y263762D01*
X329591Y263863D01*
X330663Y262791D01*
D02*
G37*
G36*
X288737Y274009D02*
X288839Y273995D01*
X288941Y273975D01*
X289040Y273949D01*
X289138Y273916D01*
X289233Y273876D01*
X289325Y273830D01*
X289415Y273779D01*
X289500Y273722D01*
X289582Y273659D01*
X289660Y273591D01*
X289733Y273518D01*
X289801Y273440D01*
X289863Y273358D01*
X289920Y273273D01*
X289972Y273183D01*
X290018Y273091D01*
X290057Y272995D01*
X290090Y272898D01*
X290090Y272898D01*
X290157Y272442D01*
X290157Y272440D01*
X290157Y272440D01*
X290157Y272440D01*
X290157Y265748D01*
X290158Y265643D01*
X290150Y265432D01*
X290135Y265222D01*
X290112Y265012D01*
X290083Y264803D01*
X290045Y264596D01*
X290000Y264390D01*
X289948Y264186D01*
X289889Y263983D01*
X289822Y263783D01*
X289749Y263586D01*
X289668Y263391D01*
X289580Y263199D01*
X289486Y263011D01*
X289385Y262825D01*
X289277Y262644D01*
X289163Y262467D01*
X289043Y262294D01*
X288917Y262125D01*
X288785Y261961D01*
X288647Y261801D01*
X288503Y261647D01*
X288354Y261498D01*
X288199Y261354D01*
X288040Y261216D01*
X287876Y261084D01*
X287707Y260957D01*
X287534Y260837D01*
X287357Y260723D01*
X287175Y260616D01*
X286990Y260515D01*
X286802Y260420D01*
X286610Y260333D01*
X286415Y260252D01*
X286218Y260178D01*
X286018Y260112D01*
X285815Y260052D01*
X285611Y260000D01*
X285405Y259955D01*
X285198Y259918D01*
X284989Y259888D01*
X284779Y259865D01*
X284733Y259862D01*
X284253Y259843D01*
X284253Y259843D01*
Y259843D01*
X284253Y259843D01*
X272440Y259842D01*
X272331Y259841D01*
X272112Y259834D01*
X271894Y259820D01*
X271675Y259798D01*
X271458Y259770D01*
X271242Y259734D01*
X271027Y259691D01*
X270814Y259642D01*
X270603Y259585D01*
X270393Y259521D01*
X270186Y259451D01*
X269981Y259374D01*
X269778Y259290D01*
X269579Y259200D01*
X269383Y259103D01*
X269189Y258999D01*
X269000Y258890D01*
X268814Y258774D01*
X268632Y258653D01*
X268454Y258525D01*
X268280Y258392D01*
X268111Y258253D01*
X267946Y258108D01*
X267786Y257959D01*
X267631Y257804D01*
X267482Y257644D01*
X267337Y257479D01*
X267198Y257310D01*
X267065Y257136D01*
X266937Y256958D01*
X266816Y256776D01*
X266700Y256590D01*
X266591Y256401D01*
X266487Y256207D01*
X266390Y256011D01*
X266300Y255812D01*
X266216Y255609D01*
X266139Y255404D01*
X266069Y255197D01*
X266005Y254987D01*
X265949Y254776D01*
X265899Y254562D01*
X265856Y254348D01*
X265820Y254132D01*
X265792Y253914D01*
X265770Y253696D01*
X265756Y253478D01*
X265756Y253477D01*
X265749Y253259D01*
X265748Y253150D01*
X265748Y253150D01*
X265748Y253150D01*
X265748Y243701D01*
X265748Y243595D01*
X265740Y243385D01*
X265725Y243174D01*
X265703Y242965D01*
X265673Y242756D01*
X265635Y242548D01*
X265591Y242342D01*
X265539Y242138D01*
X265479Y241936D01*
X265413Y241736D01*
X265339Y241538D01*
X265258Y241343D01*
X265171Y241152D01*
X265076Y240963D01*
X264975Y240778D01*
X264868Y240597D01*
X264754Y240419D01*
X264633Y240246D01*
X264507Y240077D01*
X264375Y239913D01*
X264237Y239754D01*
X264093Y239599D01*
X263944Y239450D01*
X263790Y239307D01*
X263630Y239169D01*
X263466Y239036D01*
X263297Y238910D01*
X263124Y238790D01*
X262947Y238676D01*
X262765Y238568D01*
X262580Y238467D01*
X262392Y238373D01*
X262200Y238285D01*
X262005Y238204D01*
X261807Y238131D01*
X261607Y238064D01*
X261405Y238005D01*
X261201Y237953D01*
X260995Y237908D01*
X260787Y237870D01*
X260579Y237840D01*
X260369Y237818D01*
X260159Y237803D01*
X259948Y237795D01*
X259842Y237795D01*
X256299D01*
X256248Y237795D01*
X256145Y237802D01*
X256043Y237815D01*
X255941Y237836D01*
X255842Y237862D01*
X255744Y237895D01*
X255649Y237935D01*
X255556Y237980D01*
X255467Y238032D01*
X255381Y238089D01*
X255299Y238152D01*
X255222Y238220D01*
X255149Y238293D01*
X255081Y238370D01*
X255018Y238452D01*
X254961Y238538D01*
X254909Y238627D01*
X254864Y238720D01*
X254824Y238815D01*
X254791Y238913D01*
X254765Y239012D01*
X254745Y239113D01*
X254731Y239216D01*
X254724Y239318D01*
X254724Y239370D01*
Y239422D01*
X254731Y239525D01*
X254745Y239627D01*
X254765Y239728D01*
X254791Y239827D01*
X254824Y239925D01*
X254864Y240020D01*
X254910Y240113D01*
X254961Y240202D01*
X255018Y240288D01*
X255081Y240370D01*
X255149Y240447D01*
X255222Y240520D01*
X255300Y240588D01*
X255381Y240651D01*
X255467Y240708D01*
X255557Y240760D01*
X255649Y240805D01*
X255744Y240845D01*
X255842Y240878D01*
X255941Y240905D01*
X256043Y240925D01*
X256145Y240938D01*
X256248Y240945D01*
X259842D01*
X259910Y240946D01*
X260045Y240952D01*
X260180Y240966D01*
X260314Y240985D01*
X260446Y241012D01*
X260578Y241045D01*
X260707Y241084D01*
X260834Y241129D01*
X260959Y241181D01*
X261082Y241239D01*
X261201Y241303D01*
X261317Y241372D01*
X261429Y241448D01*
X261538Y241528D01*
X261643Y241614D01*
X261743Y241705D01*
X261838Y241800D01*
X261929Y241901D01*
X262015Y242005D01*
X262096Y242114D01*
X262171Y242226D01*
X262240Y242342D01*
X262304Y242462D01*
X262362Y242584D01*
X262414Y242709D01*
X262459Y242836D01*
X262498Y242966D01*
X262531Y243097D01*
X262558Y243230D01*
X262578Y243363D01*
X262591Y243498D01*
X262597Y243633D01*
X262598Y243701D01*
X262598Y243701D01*
Y253094D01*
X262606Y253375D01*
X262622Y253656D01*
X262646Y253937D01*
X262677Y254217D01*
X262717Y254496D01*
X262764Y254773D01*
X262819Y255049D01*
X262881Y255324D01*
X262952Y255597D01*
X263030Y255867D01*
X263115Y256136D01*
X263208Y256401D01*
X263309Y256665D01*
X263417Y256925D01*
X263531Y257182D01*
X263654Y257435D01*
X263783Y257686D01*
X263919Y257932D01*
X264062Y258175D01*
X264212Y258413D01*
X264369Y258647D01*
X264532Y258877D01*
X264701Y259102D01*
X264877Y259322D01*
X265058Y259537D01*
X265246Y259747D01*
X265439Y259952D01*
X265638Y260151D01*
X265843Y260345D01*
X266053Y260532D01*
X266268Y260714D01*
X266488Y260890D01*
X266714Y261059D01*
X266943Y261222D01*
X267177Y261378D01*
X267416Y261528D01*
X267658Y261671D01*
X267905Y261807D01*
X268155Y261937D01*
X268409Y262059D01*
X268666Y262174D01*
X268926Y262282D01*
X269189Y262382D01*
X269455Y262475D01*
X269723Y262561D01*
X269994Y262639D01*
X270267Y262709D01*
X270541Y262772D01*
X270817Y262827D01*
X271095Y262874D01*
X271374Y262913D01*
X271654Y262945D01*
X271934Y262968D01*
X272216Y262984D01*
X272497Y262992D01*
X272638D01*
X272638Y262992D01*
X284252D01*
X284320Y262993D01*
X284455Y263000D01*
X284589Y263013D01*
X284723Y263033D01*
X284856Y263059D01*
X284987Y263092D01*
X285116Y263131D01*
X285244Y263177D01*
X285369Y263229D01*
X285491Y263286D01*
X285610Y263350D01*
X285726Y263420D01*
X285839Y263495D01*
X285947Y263575D01*
X286052Y263661D01*
X286152Y263752D01*
X286248Y263848D01*
X286339Y263948D01*
X286424Y264053D01*
X286505Y264161D01*
X286580Y264274D01*
X286650Y264390D01*
X286714Y264509D01*
X286771Y264631D01*
X286823Y264756D01*
X286869Y264883D01*
X286908Y265013D01*
X286941Y265144D01*
X286967Y265277D01*
X286987Y265411D01*
X287000Y265545D01*
X287007Y265680D01*
X287008Y265748D01*
X287008Y265748D01*
Y272441D01*
X287008Y272493D01*
X287015Y272595D01*
X287028Y272698D01*
X287048Y272799D01*
X287075Y272898D01*
X287108Y272996D01*
X287147Y273091D01*
X287193Y273184D01*
X287245Y273273D01*
X287302Y273359D01*
X287365Y273441D01*
X287433Y273518D01*
X287506Y273591D01*
X287583Y273659D01*
X287665Y273722D01*
X287751Y273779D01*
X287840Y273831D01*
X287932Y273876D01*
X288028Y273916D01*
X288125Y273949D01*
X288225Y273975D01*
X288326Y273995D01*
X288428Y274009D01*
X288531Y274016D01*
X288583D01*
X288583Y274016D01*
X288634Y274016D01*
X288737Y274009D01*
D02*
G37*
G36*
X335980Y259129D02*
X336059Y259066D01*
X336140Y259010D01*
X336225Y258962D01*
X336312Y258921D01*
X336401Y258888D01*
X336494Y258862D01*
X336589Y258845D01*
X336687Y258834D01*
X336787Y258832D01*
X335716Y257760D01*
X335713Y257860D01*
X335702Y257958D01*
X335685Y258053D01*
X335659Y258146D01*
X335626Y258236D01*
X335585Y258322D01*
X335537Y258407D01*
X335482Y258488D01*
X335418Y258567D01*
X335347Y258643D01*
X335904Y259200D01*
X335980Y259129D01*
D02*
G37*
G36*
X331362Y256903D02*
X331300Y256826D01*
X331246Y256746D01*
X331199Y256663D01*
X331158Y256576D01*
X331126Y256486D01*
X331100Y256392D01*
X331082Y256295D01*
X331071Y256195D01*
X331067Y256091D01*
X330280D01*
X330276Y256195D01*
X330265Y256295D01*
X330247Y256392D01*
X330222Y256486D01*
X330189Y256576D01*
X330149Y256663D01*
X330102Y256746D01*
X330047Y256826D01*
X329985Y256903D01*
X329916Y256976D01*
X331432D01*
X331362Y256903D01*
D02*
G37*
G36*
X312698Y253179D02*
X312708Y253078D01*
X312727Y252981D01*
X312752Y252888D01*
X312785Y252797D01*
X312825Y252711D01*
X312872Y252627D01*
X312927Y252547D01*
X312989Y252471D01*
X313058Y252398D01*
X311542D01*
X311612Y252471D01*
X311673Y252547D01*
X311728Y252627D01*
X311775Y252711D01*
X311815Y252797D01*
X311848Y252888D01*
X311874Y252981D01*
X311892Y253078D01*
X311903Y253179D01*
X311906Y253283D01*
X312694D01*
X312698Y253179D01*
D02*
G37*
G36*
X348229Y253004D02*
X348308Y252941D01*
X348389Y252885D01*
X348474Y252837D01*
X348561Y252796D01*
X348650Y252763D01*
X348743Y252738D01*
X348838Y252720D01*
X348936Y252710D01*
X349036Y252707D01*
X347965Y251635D01*
X347962Y251736D01*
X347952Y251834D01*
X347934Y251929D01*
X347908Y252021D01*
X347875Y252111D01*
X347834Y252198D01*
X347786Y252282D01*
X347730Y252363D01*
X347667Y252442D01*
X347596Y252518D01*
X348153Y253075D01*
X348229Y253004D01*
D02*
G37*
G36*
X360478Y253004D02*
X360557Y252941D01*
X360638Y252885D01*
X360723Y252837D01*
X360810Y252796D01*
X360899Y252763D01*
X360992Y252738D01*
X361087Y252720D01*
X361185Y252710D01*
X361285Y252707D01*
X360214Y251635D01*
X360211Y251735D01*
X360201Y251833D01*
X360183Y251929D01*
X360157Y252021D01*
X360124Y252111D01*
X360083Y252198D01*
X360035Y252282D01*
X359980Y252363D01*
X359916Y252442D01*
X359845Y252518D01*
X360402Y253075D01*
X360478Y253004D01*
D02*
G37*
G36*
X372727Y253004D02*
X372806Y252941D01*
X372887Y252885D01*
X372972Y252837D01*
X373059Y252796D01*
X373148Y252763D01*
X373241Y252738D01*
X373336Y252720D01*
X373434Y252709D01*
X373534Y252707D01*
X372463Y251635D01*
X372460Y251735D01*
X372449Y251833D01*
X372432Y251928D01*
X372406Y252021D01*
X372373Y252111D01*
X372333Y252198D01*
X372284Y252282D01*
X372229Y252363D01*
X372165Y252442D01*
X372094Y252518D01*
X372651Y253075D01*
X372727Y253004D01*
D02*
G37*
G36*
X398694Y251884D02*
X398632Y251807D01*
X398578Y251727D01*
X398530Y251644D01*
X398490Y251557D01*
X398458Y251467D01*
X398432Y251373D01*
X398414Y251276D01*
X398403Y251176D01*
X398399Y251072D01*
X397612D01*
X397608Y251176D01*
X397597Y251276D01*
X397579Y251373D01*
X397554Y251467D01*
X397521Y251557D01*
X397481Y251644D01*
X397433Y251727D01*
X397379Y251807D01*
X397317Y251884D01*
X397248Y251957D01*
X398763D01*
X398694Y251884D01*
D02*
G37*
G36*
X395964Y249154D02*
X395902Y249077D01*
X395848Y248997D01*
X395800Y248914D01*
X395760Y248827D01*
X395728Y248737D01*
X395702Y248643D01*
X395684Y248546D01*
X395673Y248446D01*
X395669Y248342D01*
X394882D01*
X394878Y248446D01*
X394867Y248546D01*
X394849Y248643D01*
X394824Y248737D01*
X394791Y248827D01*
X394751Y248914D01*
X394704Y248997D01*
X394649Y249077D01*
X394587Y249154D01*
X394518Y249227D01*
X396034D01*
X395964Y249154D01*
D02*
G37*
G36*
X326000Y246394D02*
X325929Y246318D01*
X325866Y246239D01*
X325810Y246158D01*
X325762Y246073D01*
X325721Y245986D01*
X325688Y245897D01*
X325663Y245804D01*
X325645Y245709D01*
X325635Y245611D01*
X325632Y245511D01*
X324560Y246582D01*
X324661Y246585D01*
X324758Y246596D01*
X324854Y246613D01*
X324946Y246639D01*
X325036Y246672D01*
X325123Y246712D01*
X325207Y246761D01*
X325288Y246816D01*
X325367Y246880D01*
X325443Y246951D01*
X326000Y246394D01*
D02*
G37*
G36*
X335980Y246880D02*
X336059Y246816D01*
X336140Y246761D01*
X336225Y246712D01*
X336312Y246672D01*
X336401Y246639D01*
X336494Y246613D01*
X336589Y246595D01*
X336687Y246585D01*
X336787Y246582D01*
X335716Y245511D01*
X335713Y245611D01*
X335702Y245709D01*
X335684Y245804D01*
X335659Y245897D01*
X335626Y245986D01*
X335585Y246073D01*
X335537Y246158D01*
X335481Y246239D01*
X335418Y246318D01*
X335347Y246394D01*
X335904Y246951D01*
X335980Y246880D01*
D02*
G37*
G36*
X362747Y246394D02*
X362676Y246318D01*
X362613Y246239D01*
X362557Y246157D01*
X362509Y246073D01*
X362468Y245986D01*
X362435Y245896D01*
X362410Y245804D01*
X362392Y245709D01*
X362382Y245611D01*
X362379Y245510D01*
X361307Y246582D01*
X361408Y246585D01*
X361506Y246595D01*
X361601Y246613D01*
X361693Y246639D01*
X361783Y246672D01*
X361870Y246712D01*
X361954Y246760D01*
X362035Y246816D01*
X362114Y246880D01*
X362190Y246950D01*
X362747Y246394D01*
D02*
G37*
G36*
X374996Y246394D02*
X374925Y246318D01*
X374862Y246239D01*
X374806Y246157D01*
X374758Y246073D01*
X374717Y245986D01*
X374684Y245896D01*
X374659Y245804D01*
X374641Y245709D01*
X374631Y245611D01*
X374628Y245510D01*
X373556Y246582D01*
X373657Y246585D01*
X373755Y246595D01*
X373850Y246613D01*
X373942Y246638D01*
X374032Y246672D01*
X374119Y246712D01*
X374203Y246760D01*
X374285Y246816D01*
X374363Y246879D01*
X374439Y246950D01*
X374996Y246394D01*
D02*
G37*
G36*
X349893Y246188D02*
X349970Y246126D01*
X350050Y246072D01*
X350133Y246024D01*
X350220Y245984D01*
X350310Y245952D01*
X350404Y245926D01*
X350501Y245908D01*
X350601Y245897D01*
X350705Y245893D01*
Y245106D01*
X350601Y245102D01*
X350501Y245091D01*
X350404Y245073D01*
X350310Y245048D01*
X350220Y245015D01*
X350133Y244975D01*
X350050Y244927D01*
X349970Y244873D01*
X349893Y244811D01*
X349820Y244742D01*
Y246257D01*
X349893Y246188D01*
D02*
G37*
G36*
X320279Y241712D02*
X320290Y241611D01*
X320308Y241514D01*
X320334Y241421D01*
X320367Y241330D01*
X320407Y241244D01*
X320454Y241160D01*
X320509Y241080D01*
X320571Y241004D01*
X320640Y240931D01*
X319124D01*
X319193Y241004D01*
X319255Y241080D01*
X319310Y241160D01*
X319357Y241244D01*
X319397Y241330D01*
X319430Y241421D01*
X319455Y241514D01*
X319474Y241611D01*
X319484Y241712D01*
X319488Y241816D01*
X320276D01*
X320279Y241712D01*
D02*
G37*
G36*
X436125Y241227D02*
X436135Y241129D01*
X436153Y241034D01*
X436178Y240942D01*
X436211Y240852D01*
X436252Y240765D01*
X436300Y240681D01*
X436356Y240599D01*
X436419Y240521D01*
X436490Y240444D01*
X435933Y239888D01*
X435857Y239959D01*
X435779Y240022D01*
X435697Y240078D01*
X435613Y240126D01*
X435526Y240166D01*
X435436Y240199D01*
X435344Y240225D01*
X435249Y240243D01*
X435151Y240253D01*
X435050Y240256D01*
X436122Y241328D01*
X436125Y241227D01*
D02*
G37*
G36*
X429038Y237925D02*
X429048Y237827D01*
X429066Y237732D01*
X429092Y237639D01*
X429125Y237550D01*
X429166Y237463D01*
X429214Y237379D01*
X429269Y237297D01*
X429333Y237218D01*
X429404Y237142D01*
X428847Y236585D01*
X428771Y236656D01*
X428692Y236720D01*
X428611Y236775D01*
X428526Y236824D01*
X428439Y236864D01*
X428350Y236897D01*
X428257Y236923D01*
X428162Y236941D01*
X428064Y236951D01*
X427964Y236954D01*
X429035Y238026D01*
X429038Y237925D01*
D02*
G37*
G36*
X375580Y236319D02*
X375479Y236316D01*
X375381Y236306D01*
X375286Y236288D01*
X375194Y236262D01*
X375104Y236229D01*
X375017Y236189D01*
X374933Y236141D01*
X374851Y236085D01*
X374773Y236022D01*
X374696Y235951D01*
X374140Y236508D01*
X374211Y236583D01*
X374274Y236662D01*
X374330Y236744D01*
X374378Y236828D01*
X374418Y236915D01*
X374451Y237005D01*
X374477Y237097D01*
X374495Y237192D01*
X374505Y237290D01*
X374508Y237391D01*
X375580Y236319D01*
D02*
G37*
G36*
X372036D02*
X371936Y236316D01*
X371838Y236306D01*
X371743Y236288D01*
X371650Y236262D01*
X371561Y236229D01*
X371474Y236189D01*
X371389Y236141D01*
X371308Y236085D01*
X371229Y236022D01*
X371153Y235951D01*
X370596Y236508D01*
X370667Y236583D01*
X370731Y236662D01*
X370786Y236744D01*
X370834Y236828D01*
X370875Y236915D01*
X370908Y237005D01*
X370934Y237097D01*
X370952Y237192D01*
X370962Y237290D01*
X370965Y237391D01*
X372036Y236319D01*
D02*
G37*
G36*
X448001Y234451D02*
X448080Y234388D01*
X448161Y234332D01*
X448245Y234284D01*
X448332Y234243D01*
X448422Y234210D01*
X448514Y234185D01*
X448610Y234167D01*
X448707Y234156D01*
X448808Y234154D01*
X447736Y233082D01*
X447733Y233182D01*
X447723Y233280D01*
X447705Y233375D01*
X447680Y233468D01*
X447647Y233558D01*
X447606Y233644D01*
X447558Y233729D01*
X447502Y233810D01*
X447439Y233889D01*
X447368Y233965D01*
X447925Y234522D01*
X448001Y234451D01*
D02*
G37*
G36*
X441353Y232313D02*
X441280Y232382D01*
X441203Y232444D01*
X441123Y232499D01*
X441040Y232546D01*
X440953Y232586D01*
X440863Y232619D01*
X440769Y232644D01*
X440672Y232663D01*
X440572Y232674D01*
X440468Y232677D01*
Y233465D01*
X440572Y233468D01*
X440672Y233479D01*
X440769Y233497D01*
X440863Y233523D01*
X440953Y233556D01*
X441040Y233596D01*
X441123Y233643D01*
X441203Y233698D01*
X441280Y233759D01*
X441353Y233829D01*
Y232313D01*
D02*
G37*
G36*
X409452Y232657D02*
X409463Y232556D01*
X409482Y232459D01*
X409507Y232365D01*
X409540Y232275D01*
X409580Y232189D01*
X409627Y232105D01*
X409682Y232025D01*
X409744Y231949D01*
X409813Y231875D01*
X408297D01*
X408366Y231949D01*
X408428Y232025D01*
X408483Y232105D01*
X408530Y232189D01*
X408570Y232275D01*
X408603Y232365D01*
X408629Y232459D01*
X408647Y232556D01*
X408658Y232657D01*
X408661Y232761D01*
X409449D01*
X409452Y232657D01*
D02*
G37*
G36*
X345177Y228484D02*
X345115Y228408D01*
X345060Y228328D01*
X345013Y228245D01*
X344973Y228158D01*
X344940Y228068D01*
X344915Y227974D01*
X344897Y227877D01*
X344885Y227776D01*
X344882Y227673D01*
X344094D01*
X344091Y227776D01*
X344080Y227877D01*
X344062Y227974D01*
X344036Y228068D01*
X344004Y228158D01*
X343963Y228245D01*
X343916Y228328D01*
X343861Y228408D01*
X343799Y228484D01*
X343730Y228557D01*
X345246D01*
X345177Y228484D01*
D02*
G37*
G36*
X341240D02*
X341178Y228408D01*
X341123Y228328D01*
X341076Y228245D01*
X341036Y228158D01*
X341003Y228068D01*
X340978Y227974D01*
X340960Y227877D01*
X340949Y227776D01*
X340945Y227673D01*
X340158D01*
X340154Y227776D01*
X340143Y227877D01*
X340125Y227974D01*
X340099Y228068D01*
X340066Y228158D01*
X340026Y228245D01*
X339979Y228328D01*
X339924Y228408D01*
X339862Y228484D01*
X339793Y228557D01*
X341309D01*
X341240Y228484D01*
D02*
G37*
G36*
X406697Y219665D02*
X406707Y219564D01*
X406726Y219467D01*
X406751Y219373D01*
X406784Y219283D01*
X406824Y219196D01*
X406871Y219113D01*
X406926Y219033D01*
X406988Y218956D01*
X407057Y218883D01*
X405541D01*
X405611Y218956D01*
X405672Y219033D01*
X405727Y219113D01*
X405774Y219196D01*
X405815Y219283D01*
X405847Y219373D01*
X405873Y219467D01*
X405891Y219564D01*
X405902Y219665D01*
X405905Y219768D01*
X406693D01*
X406697Y219665D01*
D02*
G37*
G36*
X392130D02*
X392141Y219564D01*
X392159Y219467D01*
X392184Y219373D01*
X392217Y219283D01*
X392257Y219196D01*
X392304Y219113D01*
X392359Y219033D01*
X392421Y218956D01*
X392490Y218883D01*
X390974D01*
X391044Y218956D01*
X391106Y219033D01*
X391160Y219113D01*
X391208Y219196D01*
X391248Y219283D01*
X391280Y219373D01*
X391306Y219467D01*
X391324Y219564D01*
X391335Y219665D01*
X391339Y219768D01*
X392126D01*
X392130Y219665D01*
D02*
G37*
G36*
X421264Y219665D02*
X421274Y219564D01*
X421293Y219467D01*
X421318Y219373D01*
X421351Y219283D01*
X421391Y219196D01*
X421438Y219113D01*
X421493Y219033D01*
X421555Y218956D01*
X421624Y218883D01*
X420108D01*
X420178Y218956D01*
X420239Y219033D01*
X420294Y219113D01*
X420341Y219196D01*
X420381Y219283D01*
X420414Y219373D01*
X420440Y219467D01*
X420458Y219564D01*
X420469Y219665D01*
X420472Y219768D01*
X421260D01*
X421264Y219665D01*
D02*
G37*
G36*
X378616Y219004D02*
X378545Y218928D01*
X378482Y218849D01*
X378426Y218768D01*
X378378Y218684D01*
X378338Y218597D01*
X378304Y218507D01*
X378279Y218415D01*
X378261Y218320D01*
X378251Y218222D01*
X378248Y218121D01*
X377176Y219193D01*
X377277Y219196D01*
X377375Y219206D01*
X377470Y219224D01*
X377562Y219249D01*
X377652Y219282D01*
X377739Y219323D01*
X377823Y219371D01*
X377905Y219427D01*
X377983Y219490D01*
X378060Y219561D01*
X378616Y219004D01*
D02*
G37*
G36*
X434615Y219490D02*
X434694Y219427D01*
X434775Y219371D01*
X434860Y219323D01*
X434946Y219282D01*
X435036Y219249D01*
X435129Y219224D01*
X435224Y219206D01*
X435322Y219196D01*
X435422Y219193D01*
X434350Y218121D01*
X434348Y218222D01*
X434337Y218320D01*
X434319Y218415D01*
X434294Y218507D01*
X434261Y218597D01*
X434220Y218684D01*
X434172Y218768D01*
X434116Y218849D01*
X434053Y218928D01*
X433982Y219004D01*
X434539Y219561D01*
X434615Y219490D01*
D02*
G37*
G36*
X363051Y218799D02*
X363127Y218737D01*
X363208Y218682D01*
X363291Y218635D01*
X363378Y218595D01*
X363468Y218562D01*
X363562Y218537D01*
X363658Y218518D01*
X363759Y218508D01*
X363863Y218504D01*
Y217717D01*
X363759Y217713D01*
X363658Y217702D01*
X363562Y217684D01*
X363468Y217658D01*
X363378Y217625D01*
X363291Y217585D01*
X363208Y217538D01*
X363127Y217483D01*
X363051Y217422D01*
X362978Y217352D01*
Y218868D01*
X363051Y218799D01*
D02*
G37*
G36*
X287646Y211681D02*
X287708Y211064D01*
X287763Y210814D01*
X287833Y210602D01*
X287919Y210428D01*
X288021Y210293D01*
X288138Y210197D01*
X288271Y210139D01*
X288420Y210120D01*
X285281D01*
X285430Y210139D01*
X285563Y210197D01*
X285680Y210293D01*
X285782Y210428D01*
X285868Y210602D01*
X285938Y210814D01*
X285993Y211064D01*
X286032Y211353D01*
X286055Y211681D01*
X286063Y212047D01*
X287638D01*
X287646Y211681D01*
D02*
G37*
G36*
X309741Y204062D02*
X309715Y203994D01*
X309712Y203913D01*
X309732Y203820D01*
X309776Y203715D01*
X309844Y203597D01*
X309935Y203467D01*
X310049Y203325D01*
X310348Y203004D01*
X309951Y202287D01*
X309742Y202491D01*
X309208Y202941D01*
X309061Y203038D01*
X308930Y203108D01*
X308814Y203152D01*
X308714Y203169D01*
X308629Y203159D01*
X308559Y203122D01*
X309791Y204118D01*
X309741Y204062D01*
D02*
G37*
%LPC*%
G36*
X221969Y378406D02*
X221943Y378405D01*
X221918Y378405D01*
X221892Y378404D01*
X221867Y378403D01*
X221842Y378402D01*
X221816Y378400D01*
X221791Y378398D01*
X221766Y378396D01*
X221741Y378393D01*
X221715Y378390D01*
X221690Y378387D01*
X221665Y378383D01*
X221640Y378379D01*
X221615Y378375D01*
X221590Y378371D01*
X221565Y378366D01*
X221540Y378361D01*
X221516Y378355D01*
X221491Y378350D01*
X221466Y378344D01*
X221442Y378337D01*
X221417Y378331D01*
X221393Y378324D01*
X221369Y378317D01*
X221344Y378309D01*
X221320Y378301D01*
X221296Y378293D01*
X221272Y378285D01*
X221248Y378276D01*
X221225Y378267D01*
X221201Y378258D01*
X221178Y378248D01*
X221154Y378238D01*
X221131Y378228D01*
X221108Y378218D01*
X221085Y378207D01*
X221062Y378196D01*
X221039Y378185D01*
X221017Y378173D01*
X220994Y378162D01*
X220972Y378149D01*
X220950Y378137D01*
X220928Y378124D01*
X220906Y378112D01*
X220884Y378098D01*
X220863Y378085D01*
X220841Y378071D01*
X220820Y378057D01*
X220799Y378043D01*
X220778Y378028D01*
X220758Y378014D01*
X220737Y377999D01*
X220717Y377984D01*
X220697Y377968D01*
X220677Y377952D01*
X220657Y377936D01*
X220638Y377920D01*
X220618Y377904D01*
X220599Y377887D01*
X220580Y377870D01*
X220562Y377853D01*
X220543Y377836D01*
X220525Y377818D01*
X220507Y377800D01*
X220489Y377782D01*
X220472Y377764D01*
X220454Y377745D01*
X220437Y377727D01*
X220420Y377708D01*
X220403Y377689D01*
X220387Y377669D01*
X220371Y377650D01*
X220355Y377630D01*
X220339Y377610D01*
X220323Y377590D01*
X220308Y377570D01*
X220293Y377549D01*
X220279Y377529D01*
X220264Y377508D01*
X220250Y377487D01*
X220236Y377466D01*
X220222Y377444D01*
X220209Y377423D01*
X220196Y377401D01*
X220183Y377379D01*
X220170Y377357D01*
X220158Y377335D01*
X220146Y377313D01*
X220134Y377291D01*
X220122Y377268D01*
X220111Y377245D01*
X220100Y377222D01*
X220089Y377199D01*
X220079Y377176D01*
X220069Y377153D01*
X220059Y377130D01*
X220049Y377106D01*
X220040Y377082D01*
X220031Y377059D01*
X220022Y377035D01*
X220014Y377011D01*
X220006Y376987D01*
X219998Y376963D01*
X219990Y376939D01*
X219983Y376914D01*
X219976Y376890D01*
X219970Y376865D01*
X219964Y376841D01*
X219957Y376816D01*
X219952Y376792D01*
X219946Y376767D01*
X219941Y376742D01*
X219936Y376717D01*
X219932Y376692D01*
X219928Y376667D01*
X219924Y376642D01*
X219920Y376617D01*
X219917Y376592D01*
X219914Y376566D01*
X219912Y376541D01*
X219909Y376516D01*
X219907Y376491D01*
X219905Y376465D01*
X219904Y376440D01*
X219903Y376415D01*
X219902Y376389D01*
X219902Y376364D01*
X219901Y376339D01*
X219902Y376313D01*
X219902Y376288D01*
X219903Y376262D01*
X219904Y376237D01*
X219905Y376212D01*
X219907Y376186D01*
X219909Y376161D01*
X219912Y376136D01*
X219914Y376111D01*
X219917Y376086D01*
X219920Y376060D01*
X219924Y376035D01*
X219928Y376010D01*
X219932Y375985D01*
X219936Y375960D01*
X219941Y375935D01*
X219946Y375910D01*
X219952Y375886D01*
X219957Y375861D01*
X219964Y375836D01*
X219970Y375812D01*
X219976Y375787D01*
X219983Y375763D01*
X219990Y375739D01*
X219998Y375714D01*
X220006Y375690D01*
X220014Y375666D01*
X220022Y375642D01*
X220031Y375618D01*
X220040Y375595D01*
X220049Y375571D01*
X220059Y375548D01*
X220069Y375524D01*
X220079Y375501D01*
X220089Y375478D01*
X220100Y375455D01*
X220111Y375432D01*
X220122Y375409D01*
X220134Y375387D01*
X220146Y375364D01*
X220158Y375342D01*
X220170Y375320D01*
X220183Y375298D01*
X220196Y375276D01*
X220209Y375254D01*
X220222Y375233D01*
X220236Y375211D01*
X220250Y375190D01*
X220264Y375169D01*
X220279Y375148D01*
X220293Y375128D01*
X220308Y375107D01*
X220323Y375087D01*
X220339Y375067D01*
X220355Y375047D01*
X220371Y375027D01*
X220387Y375008D01*
X220403Y374989D01*
X220420Y374969D01*
X220437Y374951D01*
X220454Y374932D01*
X220472Y374913D01*
X220489Y374895D01*
X220507Y374877D01*
X220525Y374859D01*
X220543Y374842D01*
X220562Y374824D01*
X220580Y374807D01*
X220599Y374790D01*
X220618Y374774D01*
X220638Y374757D01*
X220657Y374741D01*
X220677Y374725D01*
X220697Y374709D01*
X220717Y374694D01*
X220737Y374678D01*
X220758Y374663D01*
X220778Y374649D01*
X220799Y374634D01*
X220820Y374620D01*
X220841Y374606D01*
X220863Y374592D01*
X220884Y374579D01*
X220906Y374566D01*
X220928Y374553D01*
X220950Y374540D01*
X220972Y374528D01*
X220994Y374516D01*
X221017Y374504D01*
X221039Y374492D01*
X221062Y374481D01*
X221085Y374470D01*
X221108Y374459D01*
X221131Y374449D01*
X221154Y374439D01*
X221178Y374429D01*
X221201Y374419D01*
X221225Y374410D01*
X221248Y374401D01*
X221272Y374393D01*
X221296Y374384D01*
X221320Y374376D01*
X221344Y374368D01*
X221369Y374361D01*
X221393Y374353D01*
X221417Y374346D01*
X221442Y374340D01*
X221466Y374334D01*
X221491Y374328D01*
X221516Y374322D01*
X221540Y374316D01*
X221565Y374311D01*
X221590Y374307D01*
X221615Y374302D01*
X221640Y374298D01*
X221665Y374294D01*
X221690Y374290D01*
X221715Y374287D01*
X221741Y374284D01*
X221766Y374282D01*
X221791Y374279D01*
X221816Y374277D01*
X221842Y374275D01*
X221867Y374274D01*
X221892Y374273D01*
X221918Y374272D01*
X221943Y374272D01*
X221969Y374272D01*
X221994Y374272D01*
X222019Y374272D01*
X222045Y374273D01*
X222070Y374274D01*
X222095Y374275D01*
X222121Y374277D01*
X222146Y374279D01*
X222171Y374282D01*
X222196Y374284D01*
X222221Y374287D01*
X222247Y374290D01*
X222272Y374294D01*
X222297Y374298D01*
X222322Y374302D01*
X222347Y374307D01*
X222372Y374311D01*
X222397Y374316D01*
X222421Y374322D01*
X222446Y374328D01*
X222471Y374334D01*
X222495Y374340D01*
X222520Y374346D01*
X222544Y374353D01*
X222568Y374361D01*
X222593Y374368D01*
X222617Y374376D01*
X222641Y374384D01*
X222665Y374393D01*
X222689Y374401D01*
X222712Y374410D01*
X222736Y374419D01*
X222760Y374429D01*
X222783Y374439D01*
X222806Y374449D01*
X222829Y374459D01*
X222852Y374470D01*
X222875Y374481D01*
X222898Y374492D01*
X222920Y374504D01*
X222943Y374516D01*
X222965Y374528D01*
X222987Y374540D01*
X223009Y374553D01*
X223031Y374566D01*
X223053Y374579D01*
X223074Y374592D01*
X223096Y374606D01*
X223117Y374620D01*
X223138Y374634D01*
X223159Y374649D01*
X223179Y374663D01*
X223200Y374678D01*
X223220Y374694D01*
X223240Y374709D01*
X223260Y374725D01*
X223280Y374741D01*
X223299Y374757D01*
X223319Y374774D01*
X223338Y374790D01*
X223357Y374807D01*
X223375Y374824D01*
X223394Y374842D01*
X223412Y374859D01*
X223430Y374877D01*
X223448Y374895D01*
X223465Y374913D01*
X223483Y374932D01*
X223500Y374951D01*
X223517Y374969D01*
X223534Y374989D01*
X223550Y375008D01*
X223566Y375027D01*
X223582Y375047D01*
X223598Y375067D01*
X223614Y375087D01*
X223629Y375107D01*
X223644Y375128D01*
X223658Y375148D01*
X223673Y375169D01*
X223687Y375190D01*
X223701Y375211D01*
X223715Y375233D01*
X223728Y375254D01*
X223741Y375276D01*
X223754Y375298D01*
X223767Y375320D01*
X223779Y375342D01*
X223791Y375364D01*
X223803Y375387D01*
X223815Y375409D01*
X223826Y375432D01*
X223837Y375455D01*
X223848Y375478D01*
X223858Y375501D01*
X223868Y375524D01*
X223878Y375548D01*
X223888Y375571D01*
X223897Y375595D01*
X223906Y375618D01*
X223915Y375642D01*
X223923Y375666D01*
X223931Y375690D01*
X223939Y375714D01*
X223946Y375739D01*
X223954Y375763D01*
X223961Y375787D01*
X223967Y375812D01*
X223973Y375836D01*
X223979Y375861D01*
X223985Y375886D01*
X223991Y375910D01*
X223996Y375935D01*
X224001Y375960D01*
X224005Y375985D01*
X224009Y376010D01*
X224013Y376035D01*
X224017Y376060D01*
X224020Y376086D01*
X224023Y376111D01*
X224026Y376136D01*
X224028Y376161D01*
X224030Y376186D01*
X224032Y376212D01*
X224033Y376237D01*
X224034Y376262D01*
X224035Y376288D01*
X224035Y376313D01*
X224036Y376339D01*
X224035Y376364D01*
X224035Y376389D01*
X224034Y376415D01*
X224033Y376440D01*
X224032Y376465D01*
X224030Y376491D01*
X224028Y376516D01*
X224026Y376541D01*
X224023Y376566D01*
X224020Y376592D01*
X224017Y376617D01*
X224013Y376642D01*
X224009Y376667D01*
X224005Y376692D01*
X224001Y376717D01*
X223996Y376742D01*
X223991Y376767D01*
X223985Y376792D01*
X223979Y376816D01*
X223973Y376841D01*
X223967Y376865D01*
X223961Y376890D01*
X223954Y376914D01*
X223946Y376939D01*
X223939Y376963D01*
X223931Y376987D01*
X223923Y377011D01*
X223915Y377035D01*
X223906Y377059D01*
X223897Y377082D01*
X223888Y377106D01*
X223878Y377130D01*
X223868Y377153D01*
X223858Y377176D01*
X223848Y377199D01*
X223837Y377222D01*
X223826Y377245D01*
X223815Y377268D01*
X223803Y377291D01*
X223791Y377313D01*
X223779Y377335D01*
X223767Y377357D01*
X223754Y377379D01*
X223741Y377401D01*
X223728Y377423D01*
X223715Y377444D01*
X223701Y377466D01*
X223687Y377487D01*
X223673Y377508D01*
X223658Y377529D01*
X223644Y377549D01*
X223629Y377570D01*
X223614Y377590D01*
X223598Y377610D01*
X223582Y377630D01*
X223566Y377650D01*
X223550Y377669D01*
X223534Y377689D01*
X223517Y377708D01*
X223500Y377727D01*
X223483Y377745D01*
X223465Y377764D01*
X223448Y377782D01*
X223430Y377800D01*
X223412Y377818D01*
X223394Y377836D01*
X223375Y377853D01*
X223357Y377870D01*
X223338Y377887D01*
X223319Y377904D01*
X223299Y377920D01*
X223280Y377936D01*
X223260Y377952D01*
X223240Y377968D01*
X223220Y377984D01*
X223200Y377999D01*
X223179Y378014D01*
X223159Y378028D01*
X223138Y378043D01*
X223117Y378057D01*
X223096Y378071D01*
X223074Y378085D01*
X223053Y378098D01*
X223031Y378112D01*
X223009Y378124D01*
X222987Y378137D01*
X222965Y378149D01*
X222943Y378162D01*
X222920Y378173D01*
X222898Y378185D01*
X222875Y378196D01*
X222852Y378207D01*
X222829Y378218D01*
X222806Y378228D01*
X222783Y378238D01*
X222760Y378248D01*
X222736Y378258D01*
X222712Y378267D01*
X222689Y378276D01*
X222665Y378285D01*
X222641Y378293D01*
X222617Y378301D01*
X222593Y378309D01*
X222568Y378317D01*
X222544Y378324D01*
X222520Y378331D01*
X222495Y378337D01*
X222471Y378344D01*
X222446Y378350D01*
X222421Y378355D01*
X222397Y378361D01*
X222372Y378366D01*
X222347Y378371D01*
X222322Y378375D01*
X222297Y378379D01*
X222272Y378383D01*
X222247Y378387D01*
X222221Y378390D01*
X222196Y378393D01*
X222171Y378396D01*
X222146Y378398D01*
X222121Y378400D01*
X222095Y378402D01*
X222070Y378403D01*
X222045Y378404D01*
X222019Y378405D01*
X221994Y378405D01*
X221969Y378406D01*
D02*
G37*
G36*
Y355650D02*
X221943Y355649D01*
X221918Y355649D01*
X221892Y355648D01*
X221867Y355647D01*
X221842Y355646D01*
X221816Y355644D01*
X221791Y355642D01*
X221766Y355640D01*
X221741Y355637D01*
X221715Y355634D01*
X221690Y355631D01*
X221665Y355627D01*
X221640Y355623D01*
X221615Y355619D01*
X221590Y355615D01*
X221565Y355610D01*
X221540Y355605D01*
X221516Y355599D01*
X221491Y355594D01*
X221466Y355588D01*
X221442Y355581D01*
X221417Y355575D01*
X221393Y355568D01*
X221369Y355561D01*
X221344Y355553D01*
X221320Y355545D01*
X221296Y355537D01*
X221272Y355529D01*
X221248Y355520D01*
X221225Y355511D01*
X221201Y355502D01*
X221178Y355492D01*
X221154Y355483D01*
X221131Y355472D01*
X221108Y355462D01*
X221085Y355451D01*
X221062Y355440D01*
X221039Y355429D01*
X221017Y355417D01*
X220994Y355406D01*
X220972Y355394D01*
X220950Y355381D01*
X220928Y355368D01*
X220906Y355356D01*
X220884Y355342D01*
X220863Y355329D01*
X220841Y355315D01*
X220820Y355301D01*
X220799Y355287D01*
X220778Y355273D01*
X220758Y355258D01*
X220737Y355243D01*
X220717Y355228D01*
X220697Y355212D01*
X220677Y355196D01*
X220657Y355181D01*
X220638Y355164D01*
X220618Y355148D01*
X220599Y355131D01*
X220580Y355114D01*
X220562Y355097D01*
X220543Y355080D01*
X220525Y355062D01*
X220507Y355044D01*
X220489Y355026D01*
X220472Y355008D01*
X220454Y354989D01*
X220437Y354971D01*
X220420Y354952D01*
X220403Y354933D01*
X220387Y354913D01*
X220371Y354894D01*
X220355Y354874D01*
X220339Y354854D01*
X220323Y354834D01*
X220308Y354814D01*
X220293Y354794D01*
X220279Y354773D01*
X220264Y354752D01*
X220250Y354731D01*
X220236Y354710D01*
X220222Y354689D01*
X220209Y354667D01*
X220196Y354645D01*
X220183Y354624D01*
X220170Y354602D01*
X220158Y354579D01*
X220146Y354557D01*
X220134Y354535D01*
X220122Y354512D01*
X220111Y354489D01*
X220100Y354466D01*
X220089Y354443D01*
X220079Y354420D01*
X220069Y354397D01*
X220059Y354374D01*
X220049Y354350D01*
X220040Y354327D01*
X220031Y354303D01*
X220022Y354279D01*
X220014Y354255D01*
X220006Y354231D01*
X219998Y354207D01*
X219990Y354183D01*
X219983Y354158D01*
X219976Y354134D01*
X219970Y354110D01*
X219964Y354085D01*
X219957Y354060D01*
X219952Y354036D01*
X219946Y354011D01*
X219941Y353986D01*
X219936Y353961D01*
X219932Y353936D01*
X219928Y353911D01*
X219924Y353886D01*
X219920Y353861D01*
X219917Y353836D01*
X219914Y353811D01*
X219912Y353785D01*
X219909Y353760D01*
X219907Y353735D01*
X219905Y353709D01*
X219904Y353684D01*
X219903Y353659D01*
X219902Y353633D01*
X219902Y353608D01*
X219901Y353583D01*
X219902Y353557D01*
X219902Y353532D01*
X219903Y353507D01*
X219904Y353481D01*
X219905Y353456D01*
X219907Y353431D01*
X219909Y353405D01*
X219912Y353380D01*
X219914Y353355D01*
X219917Y353330D01*
X219920Y353305D01*
X219924Y353279D01*
X219928Y353254D01*
X219932Y353229D01*
X219936Y353204D01*
X219941Y353179D01*
X219946Y353155D01*
X219952Y353130D01*
X219957Y353105D01*
X219964Y353080D01*
X219970Y353056D01*
X219976Y353031D01*
X219983Y353007D01*
X219990Y352983D01*
X219998Y352958D01*
X220006Y352934D01*
X220014Y352910D01*
X220022Y352886D01*
X220031Y352863D01*
X220040Y352839D01*
X220049Y352815D01*
X220059Y352792D01*
X220069Y352768D01*
X220079Y352745D01*
X220089Y352722D01*
X220100Y352699D01*
X220111Y352676D01*
X220122Y352653D01*
X220134Y352631D01*
X220146Y352608D01*
X220158Y352586D01*
X220170Y352564D01*
X220183Y352542D01*
X220196Y352520D01*
X220209Y352498D01*
X220222Y352477D01*
X220236Y352455D01*
X220250Y352434D01*
X220264Y352413D01*
X220279Y352393D01*
X220293Y352372D01*
X220308Y352351D01*
X220323Y352331D01*
X220339Y352311D01*
X220355Y352291D01*
X220371Y352271D01*
X220387Y352252D01*
X220403Y352233D01*
X220420Y352214D01*
X220437Y352195D01*
X220454Y352176D01*
X220472Y352157D01*
X220489Y352139D01*
X220507Y352121D01*
X220525Y352103D01*
X220543Y352086D01*
X220562Y352068D01*
X220580Y352051D01*
X220599Y352034D01*
X220618Y352017D01*
X220638Y352001D01*
X220657Y351985D01*
X220677Y351969D01*
X220697Y351953D01*
X220717Y351938D01*
X220737Y351922D01*
X220758Y351907D01*
X220778Y351893D01*
X220799Y351878D01*
X220820Y351864D01*
X220841Y351850D01*
X220863Y351836D01*
X220884Y351823D01*
X220906Y351810D01*
X220928Y351797D01*
X220950Y351784D01*
X220972Y351772D01*
X220994Y351760D01*
X221017Y351748D01*
X221039Y351736D01*
X221062Y351725D01*
X221085Y351714D01*
X221108Y351704D01*
X221131Y351693D01*
X221154Y351683D01*
X221178Y351673D01*
X221201Y351663D01*
X221225Y351654D01*
X221248Y351645D01*
X221272Y351637D01*
X221296Y351628D01*
X221320Y351620D01*
X221344Y351612D01*
X221369Y351605D01*
X221393Y351597D01*
X221417Y351591D01*
X221442Y351584D01*
X221466Y351578D01*
X221491Y351572D01*
X221516Y351566D01*
X221540Y351560D01*
X221565Y351555D01*
X221590Y351551D01*
X221615Y351546D01*
X221640Y351542D01*
X221665Y351538D01*
X221690Y351535D01*
X221715Y351531D01*
X221741Y351528D01*
X221766Y351526D01*
X221791Y351523D01*
X221816Y351521D01*
X221842Y351520D01*
X221867Y351518D01*
X221892Y351517D01*
X221918Y351516D01*
X221943Y351516D01*
X221969Y351516D01*
X221994Y351516D01*
X222019Y351516D01*
X222045Y351517D01*
X222070Y351518D01*
X222095Y351520D01*
X222121Y351521D01*
X222146Y351523D01*
X222171Y351526D01*
X222196Y351528D01*
X222221Y351531D01*
X222247Y351535D01*
X222272Y351538D01*
X222297Y351542D01*
X222322Y351546D01*
X222347Y351551D01*
X222372Y351555D01*
X222397Y351560D01*
X222421Y351566D01*
X222446Y351572D01*
X222471Y351578D01*
X222495Y351584D01*
X222520Y351591D01*
X222544Y351597D01*
X222568Y351605D01*
X222593Y351612D01*
X222617Y351620D01*
X222641Y351628D01*
X222665Y351637D01*
X222689Y351645D01*
X222712Y351654D01*
X222736Y351663D01*
X222760Y351673D01*
X222783Y351683D01*
X222806Y351693D01*
X222829Y351704D01*
X222852Y351714D01*
X222875Y351725D01*
X222898Y351736D01*
X222920Y351748D01*
X222943Y351760D01*
X222965Y351772D01*
X222987Y351784D01*
X223009Y351797D01*
X223031Y351810D01*
X223053Y351823D01*
X223074Y351836D01*
X223096Y351850D01*
X223117Y351864D01*
X223138Y351878D01*
X223159Y351893D01*
X223179Y351907D01*
X223200Y351922D01*
X223220Y351938D01*
X223240Y351953D01*
X223260Y351969D01*
X223280Y351985D01*
X223299Y352001D01*
X223319Y352017D01*
X223338Y352034D01*
X223357Y352051D01*
X223375Y352068D01*
X223394Y352086D01*
X223412Y352103D01*
X223430Y352121D01*
X223448Y352139D01*
X223465Y352157D01*
X223483Y352176D01*
X223500Y352195D01*
X223517Y352214D01*
X223534Y352233D01*
X223550Y352252D01*
X223566Y352271D01*
X223582Y352291D01*
X223598Y352311D01*
X223614Y352331D01*
X223629Y352351D01*
X223644Y352372D01*
X223658Y352393D01*
X223673Y352413D01*
X223687Y352434D01*
X223701Y352455D01*
X223715Y352477D01*
X223728Y352498D01*
X223741Y352520D01*
X223754Y352542D01*
X223767Y352564D01*
X223779Y352586D01*
X223791Y352608D01*
X223803Y352631D01*
X223815Y352653D01*
X223826Y352676D01*
X223837Y352699D01*
X223848Y352722D01*
X223858Y352745D01*
X223868Y352768D01*
X223878Y352792D01*
X223888Y352815D01*
X223897Y352839D01*
X223906Y352863D01*
X223915Y352886D01*
X223923Y352910D01*
X223931Y352934D01*
X223939Y352958D01*
X223946Y352983D01*
X223954Y353007D01*
X223961Y353031D01*
X223967Y353056D01*
X223973Y353080D01*
X223979Y353105D01*
X223985Y353130D01*
X223991Y353155D01*
X223996Y353179D01*
X224001Y353204D01*
X224005Y353229D01*
X224009Y353254D01*
X224013Y353279D01*
X224017Y353305D01*
X224020Y353330D01*
X224023Y353355D01*
X224026Y353380D01*
X224028Y353405D01*
X224030Y353431D01*
X224032Y353456D01*
X224033Y353481D01*
X224034Y353507D01*
X224035Y353532D01*
X224035Y353557D01*
X224036Y353583D01*
X224035Y353608D01*
X224035Y353633D01*
X224034Y353659D01*
X224033Y353684D01*
X224032Y353709D01*
X224030Y353735D01*
X224028Y353760D01*
X224026Y353785D01*
X224023Y353811D01*
X224020Y353836D01*
X224017Y353861D01*
X224013Y353886D01*
X224009Y353911D01*
X224005Y353936D01*
X224001Y353961D01*
X223996Y353986D01*
X223991Y354011D01*
X223985Y354036D01*
X223979Y354060D01*
X223973Y354085D01*
X223967Y354110D01*
X223961Y354134D01*
X223954Y354158D01*
X223946Y354183D01*
X223939Y354207D01*
X223931Y354231D01*
X223923Y354255D01*
X223915Y354279D01*
X223906Y354303D01*
X223897Y354327D01*
X223888Y354350D01*
X223878Y354374D01*
X223868Y354397D01*
X223858Y354420D01*
X223848Y354443D01*
X223837Y354466D01*
X223826Y354489D01*
X223815Y354512D01*
X223803Y354535D01*
X223791Y354557D01*
X223779Y354579D01*
X223767Y354602D01*
X223754Y354624D01*
X223741Y354645D01*
X223728Y354667D01*
X223715Y354689D01*
X223701Y354710D01*
X223687Y354731D01*
X223673Y354752D01*
X223658Y354773D01*
X223644Y354794D01*
X223629Y354814D01*
X223614Y354834D01*
X223598Y354854D01*
X223582Y354874D01*
X223566Y354894D01*
X223550Y354913D01*
X223534Y354933D01*
X223517Y354952D01*
X223500Y354971D01*
X223483Y354989D01*
X223465Y355008D01*
X223448Y355026D01*
X223430Y355044D01*
X223412Y355062D01*
X223394Y355080D01*
X223375Y355097D01*
X223357Y355114D01*
X223338Y355131D01*
X223319Y355148D01*
X223299Y355164D01*
X223280Y355181D01*
X223260Y355196D01*
X223240Y355212D01*
X223220Y355228D01*
X223200Y355243D01*
X223179Y355258D01*
X223159Y355273D01*
X223138Y355287D01*
X223117Y355301D01*
X223096Y355315D01*
X223074Y355329D01*
X223053Y355342D01*
X223031Y355356D01*
X223009Y355368D01*
X222987Y355381D01*
X222965Y355394D01*
X222943Y355406D01*
X222920Y355417D01*
X222898Y355429D01*
X222875Y355440D01*
X222852Y355451D01*
X222829Y355462D01*
X222806Y355472D01*
X222783Y355483D01*
X222760Y355492D01*
X222736Y355502D01*
X222712Y355511D01*
X222689Y355520D01*
X222665Y355529D01*
X222641Y355537D01*
X222617Y355545D01*
X222593Y355553D01*
X222568Y355561D01*
X222544Y355568D01*
X222520Y355575D01*
X222495Y355581D01*
X222471Y355588D01*
X222446Y355594D01*
X222421Y355599D01*
X222397Y355605D01*
X222372Y355610D01*
X222347Y355615D01*
X222322Y355619D01*
X222297Y355623D01*
X222272Y355627D01*
X222247Y355631D01*
X222221Y355634D01*
X222196Y355637D01*
X222171Y355640D01*
X222146Y355642D01*
X222121Y355644D01*
X222095Y355646D01*
X222070Y355647D01*
X222045Y355648D01*
X222019Y355649D01*
X221994Y355649D01*
X221969Y355650D01*
D02*
G37*
G36*
X239358Y247047D02*
X238583Y247047D01*
X237807Y247047D01*
X236286Y246745D01*
X234853Y246151D01*
X233563Y245289D01*
X232467Y244193D01*
X231605Y242903D01*
X231011Y241470D01*
X230709Y239949D01*
X230709Y239173D01*
X230709Y238398D01*
X231011Y236877D01*
X231605Y235443D01*
X232467Y234154D01*
X233563Y233057D01*
X234853Y232195D01*
X236286Y231602D01*
X237807Y231299D01*
X238583Y231299D01*
X239358D01*
X240879Y231602D01*
X242312Y232195D01*
X243602Y233057D01*
X244699Y234154D01*
X245561Y235443D01*
X246154Y236877D01*
X246457Y238398D01*
Y239173D01*
X246457Y239949D01*
X246154Y241470D01*
X245561Y242903D01*
X244699Y244193D01*
X243602Y245289D01*
X242312Y246151D01*
X240879Y246745D01*
X239358Y247047D01*
D02*
G37*
%LPD*%
D13*
X356890Y241732D02*
X362992D01*
X349047Y245500D02*
X353122D01*
X356890Y241732D01*
X271850Y374213D02*
X282283Y384646D01*
X271850Y366850D02*
Y374213D01*
X281850Y342953D02*
Y356850D01*
X276772Y345276D02*
Y360984D01*
X281850Y366063D02*
Y366850D01*
X276772Y360984D02*
X281850Y366063D01*
X271850Y344291D02*
X287402Y328740D01*
X271850Y344291D02*
Y356850D01*
X261850Y366850D02*
Y372874D01*
X266929Y377953D01*
X372612Y344265D02*
X375420D01*
X432918Y233071D02*
X442126D01*
X445669Y236221D02*
X448819Y233071D01*
X440158Y236221D02*
X445669D01*
X435039Y241339D02*
X440158Y236221D01*
X427953Y238036D02*
X432918Y233071D01*
X312008Y200787D02*
X427421D01*
X396850Y267323D02*
X424114Y240059D01*
X427421Y200787D02*
X432717Y206083D01*
X422539Y231004D02*
X435433Y218110D01*
X424114Y238039D02*
X437697Y224456D01*
Y217173D02*
Y224456D01*
X424114Y238039D02*
Y240059D01*
X432717Y212192D02*
X437697Y217173D01*
X432717Y206083D02*
Y212192D01*
X422539Y231004D02*
Y239075D01*
X395079Y266535D02*
X422539Y239075D01*
X395079Y266535D02*
Y304724D01*
X393307Y265748D02*
X420866Y238189D01*
Y218110D02*
Y238189D01*
X287402Y322835D02*
Y328740D01*
X266929Y377953D02*
X275984Y387008D01*
X438976Y334449D02*
Y367323D01*
X437205Y332677D02*
X438976Y334449D01*
X431102Y332677D02*
X437205D01*
X440945Y333661D02*
Y368110D01*
X437992Y330709D02*
X440945Y333661D01*
X431890Y330709D02*
X437992D01*
X273622Y301398D02*
X275000Y302776D01*
X273031Y318307D02*
X275000Y316339D01*
Y302776D02*
Y316339D01*
X259252Y341929D02*
X264370Y336811D01*
X239961Y339370D02*
X242520Y341929D01*
X259252D01*
X243110Y339961D02*
X258268D01*
X241929Y338779D02*
X243110Y339961D01*
X258268D02*
X262402Y335827D01*
X239961Y327067D02*
Y339370D01*
Y327067D02*
X243898Y323130D01*
X241929Y327953D02*
Y338779D01*
X246260Y308661D02*
Y323622D01*
X241929Y327953D02*
X246260Y323622D01*
X243898Y309646D02*
Y323130D01*
X262402Y326181D02*
Y335827D01*
X264370Y332874D02*
Y336811D01*
Y332874D02*
X268504Y328740D01*
X234331Y295000D02*
X240669D01*
X263976Y318307D01*
X227323Y299016D02*
X236614D01*
X246260Y308661D01*
X235020Y311063D02*
X239035Y307047D01*
X241299D01*
X268504Y328740D02*
X272441D01*
X241299Y307047D02*
X243898Y309646D01*
X234331Y311063D02*
X235020D01*
X240197Y290984D02*
X267520Y318307D01*
X227323Y290984D02*
X240197D01*
X267520Y318307D02*
X273031D01*
X262402Y326181D02*
X265945Y322638D01*
X349410Y363386D02*
Y380906D01*
Y363386D02*
X355315Y357480D01*
X355883Y280337D02*
Y283836D01*
Y280337D02*
X358268Y277953D01*
X345669Y269291D02*
Y275676D01*
X343634Y277712D02*
X345669Y275676D01*
X413583Y315158D02*
X431102Y332677D01*
X408465Y315158D02*
X413583D01*
X409449Y312992D02*
X414173D01*
X431890Y330709D01*
X402362Y372047D02*
X413386Y361024D01*
X395079Y304724D02*
X413386Y323031D01*
Y361024D01*
X412992Y303740D02*
X433661Y324410D01*
X450000D01*
X433661Y321654D02*
X447638D01*
X450000Y319291D01*
X415354Y303346D02*
X433661Y321654D01*
X431102Y375197D02*
X438976Y367323D01*
X407480Y375197D02*
X431102D01*
X401968Y380709D02*
X407480Y375197D01*
X408268Y377165D02*
X431890D01*
X440945Y368110D01*
X402756Y382677D02*
X408268Y377165D01*
X273622Y391732D02*
X345669D01*
X348425Y388976D01*
X300000Y232677D02*
Y255118D01*
Y232677D02*
X319291Y213386D01*
X393701D01*
X301969Y233465D02*
Y255906D01*
X318898Y216535D02*
X356693D01*
X301969Y233465D02*
X318898Y216535D01*
X303937Y234252D02*
X319685Y218504D01*
X356693D01*
X303937Y234252D02*
Y256693D01*
X320472Y220472D02*
X355118D01*
X305906Y235039D02*
Y257480D01*
Y235039D02*
X320472Y220472D01*
X423425Y300000D02*
X427953Y304528D01*
Y310433D02*
X432087Y314567D01*
X427953Y304528D02*
Y310433D01*
X434055Y309055D02*
X446654D01*
X431693Y306693D02*
X434055Y309055D01*
X433268Y311811D02*
X443701D01*
X429724Y308268D02*
X433268Y311811D01*
X309409Y203386D02*
X312008Y200787D01*
X309409Y203386D02*
Y204291D01*
X306850Y206850D02*
X309409Y204291D01*
X396850Y267323D02*
Y289272D01*
X393307Y265748D02*
Y305906D01*
X409055Y231102D02*
Y247441D01*
X391535Y264961D02*
X409055Y247441D01*
X391535Y264961D02*
Y330906D01*
X400787Y280020D02*
Y287402D01*
Y280020D02*
X400886Y279921D01*
X398622Y277598D02*
X400728Y275492D01*
X398622Y277598D02*
Y287992D01*
X401181Y290551D01*
X396850Y289272D02*
X398622Y291043D01*
X393307Y305906D02*
X411417Y324016D01*
X391535Y330906D02*
X395276Y334646D01*
X389764Y331890D02*
X393307Y335433D01*
X389764Y264173D02*
X406299Y247638D01*
X389764Y264173D02*
Y331890D01*
X387992Y262992D02*
Y332874D01*
X391339Y336221D01*
X387992Y262992D02*
X391732Y259252D01*
X386221Y333858D02*
X389370Y337008D01*
X383858Y279921D02*
Y296063D01*
X386221Y278937D02*
Y333858D01*
X383858Y276575D02*
X386221Y278937D01*
X398622Y291043D02*
Y296850D01*
X400728Y273288D02*
Y275492D01*
Y273288D02*
X400787Y273228D01*
Y287402D02*
X403150Y289764D01*
X401181Y307874D02*
X408465Y315158D01*
X403150Y306693D02*
X409449Y312992D01*
X403150Y289764D02*
Y306693D01*
X401181Y290551D02*
Y307874D01*
X398006Y217691D02*
Y252730D01*
X395276Y217717D02*
Y250000D01*
X406299Y218110D02*
Y247638D01*
X393701Y213386D02*
X398006Y217691D01*
X391732Y218110D02*
Y259252D01*
X319882Y240158D02*
Y243898D01*
X431693Y302953D02*
Y306693D01*
X429724Y303740D02*
Y308268D01*
X432087Y314567D02*
X446063D01*
X426083Y311319D02*
X434055Y319291D01*
X426083Y305217D02*
Y311319D01*
X434055Y319291D02*
X444882D01*
X428740Y296850D02*
Y300000D01*
X431693Y302953D01*
X422835Y296850D02*
X429724Y303740D01*
X421457Y300000D02*
X423425D01*
X417323Y298622D02*
X420374Y301673D01*
X422539D01*
X426083Y305217D01*
X419291Y297835D02*
X421457Y300000D01*
X415354Y294488D02*
Y303346D01*
X419291Y289370D02*
Y297835D01*
X417323Y291732D02*
Y298622D01*
X412992Y296457D02*
Y303740D01*
X353346Y379528D02*
X359646Y385827D01*
X353346Y369488D02*
X364173Y358661D01*
X353346Y369488D02*
Y379528D01*
X351378Y368701D02*
X362205Y357874D01*
X351378Y368701D02*
Y380118D01*
X359055Y387795D01*
X349410Y380906D02*
X358268Y389764D01*
X360850Y395102D02*
Y396850D01*
X344488Y378740D02*
X360850Y395102D01*
X359646Y385827D02*
X442717D01*
X359055Y387795D02*
X434764D01*
X358268Y389764D02*
X384646D01*
X344488Y345276D02*
Y378740D01*
X350850Y387858D02*
Y396850D01*
X341732Y344685D02*
Y378740D01*
X350850Y387858D01*
X380512Y341339D02*
X382283Y339567D01*
Y311417D02*
Y339567D01*
X378346Y307480D02*
X382283Y311417D01*
X395276Y334646D02*
Y343504D01*
X393307Y335433D02*
Y357874D01*
X391339Y336221D02*
Y350787D01*
X389370Y337008D02*
Y350000D01*
X387402Y337795D02*
Y349213D01*
X384252Y310630D02*
Y334646D01*
X387402Y337795D01*
X383268Y353346D02*
Y362992D01*
Y353346D02*
X387402Y349213D01*
X385433Y353937D02*
Y362402D01*
Y353937D02*
X389370Y350000D01*
X387402Y354724D02*
Y361811D01*
Y354724D02*
X391339Y350787D01*
X411417Y324016D02*
Y357087D01*
X403543Y364961D02*
X411417Y357087D01*
X380512Y341339D02*
Y365158D01*
X380020Y319783D02*
Y338878D01*
X378471Y340427D02*
Y367592D01*
Y340427D02*
X380020Y338878D01*
X395276Y343504D02*
X400591Y348819D01*
X393307Y357874D02*
X399606Y364173D01*
X343308Y294882D02*
X364961D01*
X367421Y288372D02*
Y292422D01*
X364961Y294882D02*
X367421Y292422D01*
X361297Y288372D02*
X367421D01*
X373545Y282247D01*
X341732Y344685D02*
X344882Y341535D01*
X353543Y317717D02*
Y332283D01*
X366535Y345276D02*
Y363779D01*
X355512Y314961D02*
Y331496D01*
X351575Y311024D02*
X355512Y314961D01*
Y331496D02*
X368504Y344488D01*
X353543Y332283D02*
X366535Y345276D01*
X357480Y311811D02*
Y323622D01*
X364567Y330709D01*
Y336221D01*
X366929Y338583D01*
X351378Y339567D02*
X355118D01*
X295669Y262205D02*
Y329134D01*
X281850Y342953D02*
X295669Y329134D01*
X293701Y261417D02*
Y328346D01*
X276772Y345276D02*
X293701Y328346D01*
X306299Y364173D02*
X311024D01*
X305118Y365354D02*
X306299Y364173D01*
X308189Y369291D02*
X311083Y372185D01*
X303346Y369291D02*
X308189D01*
X302165Y368110D02*
X303346Y369291D01*
X318898Y363779D02*
X332848Y377730D01*
X318898Y339567D02*
Y363779D01*
X332848Y377730D02*
Y379305D01*
X329134Y379528D02*
Y383071D01*
X327559Y384646D02*
X329134Y383071D01*
X316929Y364961D02*
X329134Y377165D01*
Y379528D01*
X332848Y379305D02*
X333071Y379528D01*
X329134Y387008D02*
X333071Y383071D01*
Y379528D02*
Y383071D01*
X293701Y261417D02*
X300000Y255118D01*
X295669Y262205D02*
X301969Y255906D01*
X297638Y262992D02*
X303937Y256693D01*
X297638Y329134D02*
X312992Y344488D01*
X297638Y262992D02*
Y329134D01*
X299606Y263779D02*
X305906Y257480D01*
X299606Y328346D02*
X314803Y343543D01*
X299606Y263779D02*
Y328346D01*
X301575Y264567D02*
X307874Y258268D01*
X301575Y264567D02*
Y324803D01*
X316929Y340158D01*
X303543Y265354D02*
Y324213D01*
Y265354D02*
X309842Y259055D01*
X303543Y324213D02*
X318898Y339567D01*
X250125Y352435D02*
Y368235D01*
X252756Y344488D02*
Y349803D01*
X250125Y352435D02*
X252756Y349803D01*
X275984Y387008D02*
X329134D01*
X250125Y368235D02*
X273622Y391732D01*
X282283Y384646D02*
X327559D01*
X274606Y388976D02*
X344094D01*
X252756Y367126D02*
X274606Y388976D01*
X252756Y354331D02*
Y367126D01*
X391732Y366142D02*
Y377953D01*
X387402Y361811D02*
X391732Y366142D01*
X385433Y375197D02*
X390945Y380709D01*
X401968D01*
X377165Y375197D02*
X385433D01*
X375420Y344265D02*
X376378Y343307D01*
X305118Y361221D02*
X306299Y362402D01*
X330315Y354823D02*
X332677Y357185D01*
X330315Y342126D02*
Y354823D01*
Y342126D02*
X336221Y336221D01*
X347638D01*
X350394Y320866D02*
Y333465D01*
X347638Y336221D02*
X350394Y333465D01*
X368504Y344488D02*
Y361024D01*
X359842Y342913D02*
X364173Y347244D01*
X357480Y342913D02*
X359842D01*
X364173Y347244D02*
Y358661D01*
X368110Y306791D02*
X371260Y303642D01*
X370079Y312992D02*
X373031Y310039D01*
X315748Y227953D02*
Y240551D01*
Y227953D02*
X321260Y222441D01*
X341339D01*
X312300Y251624D02*
Y264472D01*
X324549Y245500D02*
X327756Y248707D01*
X336798Y288372D02*
X343308Y294882D01*
X348836Y288583D02*
X349047Y288372D01*
X341339Y288583D02*
X348836D01*
X338189Y285433D02*
X341339Y288583D01*
X324549Y288372D02*
X327488Y285433D01*
X338189D01*
X326575Y292323D02*
X330526Y288372D01*
X314195Y292323D02*
X326575D01*
X330526Y288372D02*
X336798D01*
X361296Y245499D02*
X365748Y249951D01*
X362992Y241732D02*
X367717Y246457D01*
X369685Y255484D02*
X373545Y251624D01*
X369685Y255484D02*
Y279983D01*
X367717Y246457D02*
Y267717D01*
X364173Y271260D02*
X367717Y267717D01*
X361296Y282247D02*
X364173Y279370D01*
Y271260D02*
Y279370D01*
X376378Y288976D02*
Y316142D01*
Y288976D02*
X378937Y286417D01*
Y226378D02*
Y286417D01*
X380906Y221850D02*
Y287205D01*
X378346Y289764D02*
Y307480D01*
Y289764D02*
X380906Y287205D01*
X377165Y218110D02*
X380906Y221850D01*
X373546Y286297D02*
X375984Y283858D01*
Y275984D02*
Y283858D01*
X373546Y286297D02*
Y288372D01*
X373545Y269998D02*
Y273545D01*
X375984Y275984D01*
X376378Y248332D02*
Y264961D01*
X373605Y267734D02*
X376378Y264961D01*
X373605Y267734D02*
Y269939D01*
X373545Y269998D02*
X373605Y269939D01*
X380315Y299606D02*
Y306693D01*
Y299606D02*
X383858Y296063D01*
X346457Y311024D02*
X351575D01*
X362205Y307087D02*
Y322638D01*
X346457Y299213D02*
X354331D01*
X362205Y307087D01*
X359842Y309449D02*
Y323228D01*
X346457Y303150D02*
X353543D01*
X359842Y309449D01*
X352756Y307087D02*
X357480Y311811D01*
X346457Y307087D02*
X352756D01*
X350787Y314961D02*
X353543Y317717D01*
X346457Y314961D02*
X350787D01*
X318425Y245355D02*
X319882Y243898D01*
X318425Y245355D02*
Y269998D01*
X355172Y269998D02*
Y276122D01*
X349047Y263873D02*
X355172Y269998D01*
X352362Y272047D02*
Y285562D01*
X346457Y254215D02*
Y266142D01*
Y254215D02*
X349047Y251624D01*
X346457Y266142D02*
X352362Y272047D01*
X336798Y263874D02*
X340251D01*
X345669Y269291D01*
X365748Y249951D02*
Y266535D01*
X361220Y271064D02*
X365748Y266535D01*
X361220Y271064D02*
Y275984D01*
X358268Y254653D02*
Y277953D01*
X355883Y283639D02*
Y285411D01*
X352362Y285562D02*
X355172Y288372D01*
X349047D02*
X349047Y288372D01*
X349047Y276123D02*
Y288372D01*
X349047Y276123D02*
X349047Y276123D01*
X322047Y224410D02*
X338976D01*
X340551Y225984D02*
Y229331D01*
X338976Y224410D02*
X340551Y225984D01*
X344488Y225590D02*
Y229331D01*
X341339Y222441D02*
X344488Y225590D01*
X317618Y228839D02*
Y241437D01*
Y228839D02*
X322047Y224410D01*
X324549Y288372D02*
X324549Y288372D01*
X312300Y288372D02*
X324549D01*
X309055Y285127D02*
X312300Y288372D01*
X309055Y267717D02*
Y285127D01*
Y267717D02*
X312300Y264472D01*
X309842Y249213D02*
X317618Y241437D01*
X309842Y249213D02*
Y259055D01*
X307874Y248425D02*
Y258268D01*
X330674Y251624D02*
X336798Y245500D01*
X361220Y275984D02*
Y278938D01*
X358661Y281496D02*
X361220Y278938D01*
X358661Y281496D02*
Y285737D01*
X361297Y288372D01*
X371260Y266194D02*
Y274803D01*
X373545Y277089D01*
Y282247D01*
X371260Y266194D02*
X373563Y263891D01*
X358268Y254653D02*
X361296Y251624D01*
X373545Y245499D02*
X376378Y248332D01*
X367421Y282247D02*
X369685Y279983D01*
X390158Y382677D02*
X402756D01*
X388189Y380709D02*
X390158Y382677D01*
X396457Y372047D02*
X402362D01*
X394882Y370472D02*
X396457Y372047D01*
X370079Y312992D02*
Y324803D01*
X374803Y329528D01*
X368110Y325590D02*
X372835Y330315D01*
X368110Y306791D02*
Y325590D01*
X366535Y363779D02*
X370472Y367717D01*
X376378Y316142D02*
X380020Y319783D01*
X380315Y306693D02*
X384252Y310630D01*
X316929Y340158D02*
Y364961D01*
X314803Y343543D02*
Y360394D01*
X311024Y364173D02*
X314803Y360394D01*
X370669Y218110D02*
X378937Y226378D01*
X392913Y215354D02*
X395276Y217717D01*
X357874Y215354D02*
X392913D01*
X356693Y216535D02*
X357874Y215354D01*
X356693Y218504D02*
X375590Y237402D01*
X307874Y248425D02*
X315748Y240551D01*
X374410Y377953D02*
Y380709D01*
Y377953D02*
X377165Y375197D01*
X371260Y375591D02*
Y380709D01*
Y375591D02*
X373622Y373228D01*
X384252D01*
X394882Y365551D02*
Y370472D01*
X390551Y361221D02*
X394882Y365551D01*
X399606Y364173D02*
Y368110D01*
X379134Y380709D02*
X388189D01*
X368504Y361024D02*
X375197Y367717D01*
X366535Y375984D02*
X371260Y371260D01*
X383465D01*
X366535Y375984D02*
Y380709D01*
X383465Y371260D02*
X385827Y368898D01*
X359252Y292323D02*
X361811D01*
X358268Y291339D02*
X359252Y292323D01*
X358268Y287795D02*
Y291339D01*
X355883Y285411D02*
X358268Y287795D01*
X333661Y260886D02*
X336798Y257749D01*
X333661Y260886D02*
Y264961D01*
X331890Y266732D02*
X333661Y264961D01*
X327815Y266732D02*
X331890D01*
X324549Y269998D02*
X327815Y266732D01*
X318425Y276123D02*
X324549Y269998D01*
X318425Y276123D02*
Y282247D01*
X330674D02*
X330674Y282247D01*
X318425Y282247D02*
X330674D01*
X327756Y248707D02*
Y260956D01*
X330674Y263874D01*
X330674Y251624D02*
Y257749D01*
X312992Y344488D02*
Y359646D01*
X383268Y362992D02*
X385827Y365551D01*
Y368898D01*
X385433Y362402D02*
X387795Y364764D01*
Y369685D01*
X380512Y365158D02*
X383071Y367717D01*
X299803Y359252D02*
X302165Y361614D01*
Y368110D01*
X355118Y220472D02*
X372047Y237402D01*
X306299Y362402D02*
X310236D01*
X312992Y359646D01*
X368110Y331496D02*
Y334646D01*
X359842Y323228D02*
X368110Y331496D01*
X370866Y331299D02*
Y337008D01*
X362205Y322638D02*
X370866Y331299D01*
X372835Y330315D02*
Y340158D01*
X374803Y329528D02*
Y338583D01*
X362205Y218110D02*
X370669D01*
X449974Y309081D02*
Y310656D01*
Y309081D02*
X450000Y309055D01*
X446063Y314567D02*
X449974Y310656D01*
X414173Y293307D02*
X415354Y294488D01*
X409449Y293307D02*
X414173D01*
X412992Y290158D02*
X415748D01*
X417323Y291732D01*
X444882Y319291D02*
X450000Y314173D01*
X417323Y287402D02*
X419291Y289370D01*
X409449Y287402D02*
X417323D01*
X332677Y342520D02*
X337008Y338189D01*
X350000D02*
X351378Y339567D01*
X337008Y338189D02*
X350000D01*
X378346Y367717D02*
X378471Y367592D01*
X376378Y340158D02*
Y343307D01*
X374803Y338583D02*
X376378Y340158D01*
X372835D02*
X374016Y341339D01*
X362205Y348031D02*
Y357874D01*
X360039Y345866D02*
X362205Y348031D01*
X357480Y345866D02*
X360039D01*
X384252Y373228D02*
X387795Y369685D01*
X332677Y342520D02*
Y352185D01*
X370079Y337795D02*
X370866Y337008D01*
X370079Y337795D02*
Y341339D01*
X446850Y389961D02*
Y396850D01*
X442717Y385827D02*
X446850Y389961D01*
X434764Y387795D02*
X436850Y389882D01*
Y396850D01*
X384646Y389764D02*
X386850Y391968D01*
Y396850D01*
D141*
X296654Y230906D02*
Y249606D01*
X286850Y221102D02*
X296654Y230906D01*
X286850Y206850D02*
Y221102D01*
D142*
X281850Y366850D02*
D03*
X232850Y396850D02*
D03*
X270850D02*
D03*
X376850Y396850D02*
D03*
X306850Y206850D02*
D03*
X396850D02*
D03*
X266850D02*
D03*
D143*
X271850Y366850D02*
D03*
X261850D02*
D03*
X261850Y356850D02*
D03*
X271850D02*
D03*
X281850D02*
D03*
X242850Y396850D02*
D03*
X310850D02*
D03*
X290850D02*
D03*
X280850D02*
D03*
X300850D02*
D03*
X360850D02*
D03*
X320850D02*
D03*
X330850D02*
D03*
X340850Y396850D02*
D03*
X350850Y396850D02*
D03*
X416850Y396850D02*
D03*
X396850D02*
D03*
X386850D02*
D03*
X406850D02*
D03*
X426850D02*
D03*
X436850D02*
D03*
X446850Y396850D02*
D03*
X346850Y206850D02*
D03*
X326850D02*
D03*
X316850D02*
D03*
X336850D02*
D03*
X356850D02*
D03*
X366850D02*
D03*
X376850Y206850D02*
D03*
X446850Y206850D02*
D03*
X426850D02*
D03*
X406850D02*
D03*
X416850D02*
D03*
X436850D02*
D03*
X276850D02*
D03*
X286850D02*
D03*
D144*
X230827Y337106D02*
D03*
Y273130D02*
D03*
D145*
X253307Y332126D02*
D03*
Y323110D02*
D03*
Y287126D02*
D03*
Y278110D02*
D03*
D146*
X227323Y315079D02*
D03*
X234331Y319173D02*
D03*
X227323Y307047D02*
D03*
X234331Y311063D02*
D03*
X227323Y299016D02*
D03*
X234331Y303031D02*
D03*
Y295000D02*
D03*
D147*
X227323Y290984D02*
D03*
D148*
X207480Y381968D02*
D03*
Y347953D02*
D03*
D149*
X223937Y381968D02*
D03*
Y347953D02*
D03*
D150*
X216535Y239173D02*
D03*
D151*
X238583D02*
D03*
D152*
X214173Y259055D02*
D03*
X233071D02*
D03*
X214173Y219291D02*
D03*
X233071D02*
D03*
D153*
X251850Y206850D02*
D03*
X256850Y396850D02*
D03*
X456850Y336850D02*
D03*
Y226850D02*
D03*
D154*
X372612Y344265D02*
D03*
X448819Y233071D02*
D03*
X442126D02*
D03*
X427953Y238036D02*
D03*
X427559Y242520D02*
D03*
X435039Y241339D02*
D03*
X287402Y322835D02*
D03*
X209646Y201870D02*
D03*
X244094Y355512D02*
D03*
X246063Y336614D02*
D03*
X234646Y351969D02*
D03*
X237795Y365354D02*
D03*
X262992Y304724D02*
D03*
X269291Y301969D02*
D03*
X263976Y318307D02*
D03*
X273228Y328740D02*
D03*
X262992Y345079D02*
D03*
X355315Y357480D02*
D03*
X373546Y288372D02*
D03*
X445669Y227559D02*
D03*
X441732Y305512D02*
D03*
X445053Y305503D02*
D03*
X400886Y279921D02*
D03*
X383858D02*
D03*
X404449Y263504D02*
D03*
X395276Y250000D02*
D03*
X398006Y252730D02*
D03*
X398622Y296850D02*
D03*
X306102Y350197D02*
D03*
Y354528D02*
D03*
X431102Y227559D02*
D03*
X416535Y227559D02*
D03*
X401968Y227559D02*
D03*
X387402D02*
D03*
X319882Y240158D02*
D03*
X423819Y307087D02*
D03*
X432677Y364173D02*
D03*
X434055Y338779D02*
D03*
Y341732D02*
D03*
X434055Y350197D02*
D03*
Y347244D02*
D03*
X379800Y315476D02*
D03*
X386811Y383465D02*
D03*
X382874Y377756D02*
D03*
X394685Y328937D02*
D03*
X384646Y342520D02*
D03*
X402362Y325197D02*
D03*
X418504Y325984D02*
D03*
X416142Y336614D02*
D03*
X281988Y290256D02*
D03*
Y286516D02*
D03*
X341339Y341339D02*
D03*
X355906Y339567D02*
D03*
X344882Y341535D02*
D03*
X296654Y345079D02*
D03*
X305118Y365354D02*
D03*
X305906Y373622D02*
D03*
X321161Y362185D02*
D03*
X300886Y345079D02*
D03*
X270866Y246654D02*
D03*
X274016D02*
D03*
X274016Y228543D02*
D03*
X270866D02*
D03*
X252756Y344488D02*
D03*
X302756Y376378D02*
D03*
X329134Y379528D02*
D03*
X355906Y403937D02*
D03*
X391732Y377953D02*
D03*
X395669D02*
D03*
X248819Y349410D02*
D03*
X357283Y377756D02*
D03*
X341339Y331890D02*
D03*
X269291Y284646D02*
D03*
X247244Y364173D02*
D03*
X322835Y353937D02*
D03*
X311083Y372185D02*
D03*
X305118Y361221D02*
D03*
X372835Y314961D02*
D03*
X330709Y366142D02*
D03*
X333071Y379528D02*
D03*
X360115Y332556D02*
D03*
X328740Y331496D02*
D03*
X288583Y272441D02*
D03*
Y268898D02*
D03*
X281890Y279134D02*
D03*
X371260Y303642D02*
D03*
X375590Y319291D02*
D03*
X373031Y310039D02*
D03*
X334646Y230807D02*
D03*
X324803D02*
D03*
X309449Y235236D02*
D03*
X312402Y238189D02*
D03*
X312300Y251624D02*
D03*
X324549Y245500D02*
D03*
X385925Y242520D02*
D03*
X349047Y245500D02*
D03*
X361296Y245499D02*
D03*
X381102Y292126D02*
D03*
X296654Y249606D02*
D03*
X346457Y299213D02*
D03*
Y303150D02*
D03*
Y307087D02*
D03*
Y311024D02*
D03*
Y314961D02*
D03*
X361296Y263873D02*
D03*
X334646Y227165D02*
D03*
X329724Y230807D02*
D03*
X319882Y230807D02*
D03*
X336798Y245500D02*
D03*
X361220Y275984D02*
D03*
X428543Y379921D02*
D03*
X403543Y364961D02*
D03*
X401575Y353740D02*
D03*
X291732Y259055D02*
D03*
X419882Y336417D02*
D03*
X409055Y231102D02*
D03*
X400787Y273228D02*
D03*
X404449Y276496D02*
D03*
X422835Y336417D02*
D03*
X410236Y309449D02*
D03*
X416142Y352362D02*
D03*
X400591Y348819D02*
D03*
X306162Y266922D02*
D03*
X305728Y221850D02*
D03*
X391732Y218110D02*
D03*
X296082Y221850D02*
D03*
X292894D02*
D03*
X287795Y227165D02*
D03*
X435433Y218110D02*
D03*
X420866D02*
D03*
X406299Y218110D02*
D03*
X229528Y374410D02*
D03*
X374410Y380709D02*
D03*
X404528Y282953D02*
D03*
X390551Y361221D02*
D03*
X383465Y300787D02*
D03*
X383858Y276575D02*
D03*
X375590Y237402D02*
D03*
X373545Y282247D02*
D03*
X399606Y368110D02*
D03*
X416437Y361417D02*
D03*
X405118Y333268D02*
D03*
X379134Y380709D02*
D03*
X326772Y357874D02*
D03*
X306162Y276415D02*
D03*
X330674Y269998D02*
D03*
X336798Y263874D02*
D03*
X373545Y245499D02*
D03*
X336798Y251624D02*
D03*
X373545Y251624D02*
D03*
X324549Y251624D02*
D03*
X373563Y263891D02*
D03*
X373545Y269998D02*
D03*
X361296Y282247D02*
D03*
X349047Y276123D02*
D03*
X330674Y276123D02*
D03*
X349047Y263873D02*
D03*
X361296Y257749D02*
D03*
X355172Y276122D02*
D03*
X367421Y276122D02*
D03*
X367421Y282247D02*
D03*
X331563Y292323D02*
D03*
X343634Y277712D02*
D03*
X314195Y292323D02*
D03*
X336798Y288372D02*
D03*
X318425Y269998D02*
D03*
X330674Y257749D02*
D03*
X330674Y263874D02*
D03*
X349047Y288372D02*
D03*
X312300Y288372D02*
D03*
X324549Y288372D02*
D03*
X349047Y251624D02*
D03*
X324549Y257749D02*
D03*
X312300Y269998D02*
D03*
X355172Y288372D02*
D03*
X361811Y292323D02*
D03*
X361296Y251624D02*
D03*
X336798Y257749D02*
D03*
X330674Y282247D02*
D03*
X324549Y269998D02*
D03*
X318425Y282247D02*
D03*
X342923Y273060D02*
D03*
X312300Y276123D02*
D03*
X355883Y283836D02*
D03*
X361297Y288372D02*
D03*
X302559Y221850D02*
D03*
X312402Y235236D02*
D03*
X328346Y306299D02*
D03*
X344488Y229331D02*
D03*
X372441Y227559D02*
D03*
X309449Y238189D02*
D03*
X272441Y237598D02*
D03*
X270472Y240158D02*
D03*
X274410D02*
D03*
Y235039D02*
D03*
X270472D02*
D03*
X325197Y322441D02*
D03*
X310039Y354331D02*
D03*
X291732Y366142D02*
D03*
X299803Y359252D02*
D03*
X256280Y239369D02*
D03*
X259468D02*
D03*
X446654Y309055D02*
D03*
X340551Y229331D02*
D03*
X252756Y354331D02*
D03*
X328346Y311811D02*
D03*
X372047Y237402D02*
D03*
X283465Y227165D02*
D03*
X278740Y221654D02*
D03*
X246850Y226181D02*
D03*
Y222993D02*
D03*
Y230867D02*
D03*
Y234055D02*
D03*
X281890Y269488D02*
D03*
Y266535D02*
D03*
Y272638D02*
D03*
Y275590D02*
D03*
X362205Y218110D02*
D03*
X348425Y388976D02*
D03*
X344094Y388976D02*
D03*
X269488Y314764D02*
D03*
X273622Y301398D02*
D03*
X273031Y318307D02*
D03*
X265945Y322638D02*
D03*
X428937Y352559D02*
D03*
X425984D02*
D03*
X428543Y368110D02*
D03*
X419882Y372244D02*
D03*
X405905Y353740D02*
D03*
X409449Y293307D02*
D03*
X412992Y296457D02*
D03*
X440158Y316929D02*
D03*
X444095Y311811D02*
D03*
X344488Y345276D02*
D03*
X361221Y383465D02*
D03*
X410906Y282953D02*
D03*
X417402D02*
D03*
X423898Y282953D02*
D03*
Y276496D02*
D03*
Y270000D02*
D03*
Y263504D02*
D03*
X417441D02*
D03*
X410945Y263504D02*
D03*
X404449Y270000D02*
D03*
X410945D02*
D03*
X417441D02*
D03*
Y276496D02*
D03*
X410945Y276496D02*
D03*
X401181Y333071D02*
D03*
X384646Y338779D02*
D03*
X377756Y333661D02*
D03*
X372835Y321654D02*
D03*
X377559Y337402D02*
D03*
X464173Y326772D02*
D03*
X350394Y320866D02*
D03*
X377165Y218110D02*
D03*
X383071Y367717D02*
D03*
X378346Y367717D02*
D03*
X375197Y367717D02*
D03*
X370472D02*
D03*
X371260Y380709D02*
D03*
X364173Y377953D02*
D03*
X366535Y380709D02*
D03*
X416142Y382283D02*
D03*
X366929Y338583D02*
D03*
X370079Y341339D02*
D03*
X374016D02*
D03*
X368110Y334646D02*
D03*
X332677Y357185D02*
D03*
X332677Y352185D02*
D03*
X357480Y342913D02*
D03*
Y345866D02*
D03*
Y348819D02*
D03*
X448374Y305494D02*
D03*
X451695Y305486D02*
D03*
X455017Y305477D02*
D03*
X458338Y305468D02*
D03*
X461659Y305460D02*
D03*
X464980Y305451D02*
D03*
Y241006D02*
D03*
X461659Y240997D02*
D03*
X458338Y240988D02*
D03*
X455017Y240980D02*
D03*
X451695Y240971D02*
D03*
X448374Y240962D02*
D03*
X445053Y240954D02*
D03*
X437598Y303937D02*
D03*
X434252Y303937D02*
D03*
X438583Y296654D02*
D03*
Y293307D02*
D03*
Y289961D02*
D03*
Y286614D02*
D03*
Y283268D02*
D03*
Y279921D02*
D03*
Y276575D02*
D03*
Y273228D02*
D03*
Y269882D02*
D03*
X438583Y266535D02*
D03*
X438583Y263189D02*
D03*
Y259842D02*
D03*
Y256496D02*
D03*
Y253150D02*
D03*
X438591Y249829D02*
D03*
X441732Y240945D02*
D03*
X430905Y242520D02*
D03*
X450000Y309055D02*
D03*
Y314173D02*
D03*
Y319291D02*
D03*
Y324410D02*
D03*
X409449Y287402D02*
D03*
X412992Y290158D02*
D03*
X428740Y296850D02*
D03*
X422835D02*
D03*
M02*
