G04*
G04 #@! TF.GenerationSoftware,Altium Limited,Altium Designer,23.7.1 (13)*
G04*
G04 Layer_Physical_Order=2*
G04 Layer_Color=3368601*
%FSLAX44Y44*%
%MOMM*%
G71*
G04*
G04 #@! TF.SameCoordinates,1C2F31F7-A32A-4C1B-961E-631C19F8B413*
G04*
G04*
G04 #@! TF.FilePolarity,Positive*
G04*
G01*
G75*
%ADD13C,0.2000*%
%ADD142R,1.5000X1.9000*%
%ADD143O,1.5000X1.9000*%
%ADD144O,3.5000X2.0000*%
%ADD145O,2.0000X1.5000*%
%ADD146O,1.6000X1.2500*%
G04:AMPARAMS|DCode=147|XSize=1.25mm|YSize=1.6mm|CornerRadius=0.3125mm|HoleSize=0mm|Usage=FLASHONLY|Rotation=90.000|XOffset=0mm|YOffset=0mm|HoleType=Round|Shape=RoundedRectangle|*
%AMROUNDEDRECTD147*
21,1,1.2500,0.9750,0,0,90.0*
21,1,0.6250,1.6000,0,0,90.0*
1,1,0.6250,0.4875,0.3125*
1,1,0.6250,0.4875,-0.3125*
1,1,0.6250,-0.4875,-0.3125*
1,1,0.6250,-0.4875,0.3125*
%
%ADD147ROUNDEDRECTD147*%
%ADD148O,2.0000X1.1000*%
%ADD149O,2.3000X1.1000*%
%ADD150O,2.0000X3.6000*%
%ADD151C,2.7000*%
%ADD152O,3.6000X2.0000*%
%ADD153C,3.2000*%
%ADD154C,0.5500*%
%ADD155C,0.3500*%
G36*
X905749Y1023850D02*
X905592Y1023656D01*
X905453Y1023453D01*
X905333Y1023241D01*
X905231Y1023021D01*
X905148Y1022792D01*
X905083Y1022554D01*
X905037Y1022307D01*
X905009Y1022052D01*
X905000Y1021788D01*
X903000D01*
X902991Y1022052D01*
X902963Y1022307D01*
X902917Y1022554D01*
X902852Y1022792D01*
X902769Y1023021D01*
X902667Y1023241D01*
X902547Y1023453D01*
X902408Y1023656D01*
X902251Y1023850D01*
X902075Y1024036D01*
X905925D01*
X905749Y1023850D01*
D02*
G37*
G36*
X1065794Y1003550D02*
X1065747Y1003360D01*
X1065743Y1003154D01*
X1065782Y1002934D01*
X1065865Y1002698D01*
X1065990Y1002447D01*
X1066159Y1002181D01*
X1066370Y1001899D01*
X1066625Y1001603D01*
X1066923Y1001291D01*
X1065786Y999600D01*
X1065478Y999894D01*
X1065191Y1000138D01*
X1064924Y1000334D01*
X1064678Y1000482D01*
X1064453Y1000581D01*
X1064248Y1000630D01*
X1064063Y1000632D01*
X1063899Y1000584D01*
X1063756Y1000488D01*
X1063633Y1000343D01*
X1065883Y1003725D01*
X1065794Y1003550D01*
D02*
G37*
G36*
X719720Y1002189D02*
X719649Y1002023D01*
X719623Y1001838D01*
X719642Y1001637D01*
X719708Y1001417D01*
X719818Y1001180D01*
X719975Y1000925D01*
X720177Y1000653D01*
X720425Y1000363D01*
X720719Y1000055D01*
X719305Y998641D01*
X718997Y998935D01*
X718707Y999183D01*
X718435Y999385D01*
X718180Y999541D01*
X717943Y999652D01*
X717723Y999718D01*
X717522Y999737D01*
X717337Y999711D01*
X717171Y999640D01*
X717022Y999522D01*
X719838Y1002338D01*
X719720Y1002189D01*
D02*
G37*
G36*
X1086003Y998808D02*
X1085834Y998741D01*
X1085686Y998629D01*
X1085557Y998472D01*
X1085448Y998271D01*
X1085359Y998025D01*
X1085289Y997734D01*
X1085240Y997398D01*
X1085210Y997018D01*
X1085200Y996593D01*
X1083200D01*
X1083190Y997018D01*
X1083160Y997398D01*
X1083111Y997734D01*
X1083041Y998025D01*
X1082952Y998271D01*
X1082843Y998472D01*
X1082714Y998629D01*
X1082566Y998741D01*
X1082397Y998808D01*
X1082209Y998830D01*
X1086191D01*
X1086003Y998808D01*
D02*
G37*
G36*
X689770Y998511D02*
X689600Y998450D01*
X689450Y998351D01*
X689320Y998211D01*
X689210Y998030D01*
X689120Y997811D01*
X689050Y997551D01*
X689000Y997251D01*
X688970Y996910D01*
X688960Y996531D01*
X686960D01*
X686950Y996910D01*
X686920Y997251D01*
X686870Y997551D01*
X686800Y997811D01*
X686710Y998030D01*
X686600Y998211D01*
X686470Y998351D01*
X686320Y998450D01*
X686150Y998511D01*
X685960Y998531D01*
X689960D01*
X689770Y998511D01*
D02*
G37*
G36*
X1088500Y969000D02*
X1088631Y969000D01*
X1088892Y968983D01*
X1089152Y968949D01*
X1089409Y968897D01*
X1089662Y968830D01*
X1089910Y968746D01*
X1090152Y968645D01*
X1090387Y968530D01*
X1090613Y968399D01*
X1090831Y968253D01*
X1091039Y968094D01*
X1091236Y967921D01*
X1091421Y967736D01*
X1091594Y967539D01*
X1091753Y967331D01*
X1091898Y967113D01*
X1092029Y966886D01*
X1092145Y966652D01*
X1092245Y966410D01*
X1092329Y966162D01*
X1092456Y965296D01*
X1092500Y965000D01*
X1092499Y965000D01*
X1092500Y965000D01*
X1092500Y935000D01*
X1092500Y934869D01*
X1092483Y934608D01*
X1092449Y934348D01*
X1092398Y934091D01*
X1092330Y933838D01*
X1092246Y933590D01*
X1092145Y933348D01*
X1092030Y933113D01*
X1091899Y932886D01*
X1091753Y932669D01*
X1091594Y932461D01*
X1091421Y932264D01*
X1091236Y932079D01*
X1091039Y931906D01*
X1090831Y931747D01*
X1090613Y931601D01*
X1090387Y931470D01*
X1090152Y931354D01*
X1089910Y931254D01*
X1089742Y931198D01*
X1088500Y931000D01*
Y931000D01*
X1088500Y931000D01*
X1067500Y931000D01*
X1067243Y930998D01*
X1066730Y930981D01*
X1066217Y930947D01*
X1065706Y930897D01*
X1065197Y930830D01*
X1064691Y930747D01*
X1064187Y930646D01*
X1063687Y930530D01*
X1063191Y930397D01*
X1062700Y930248D01*
X1062213Y930083D01*
X1061733Y929902D01*
X1061258Y929705D01*
X1060790Y929493D01*
X1060330Y929266D01*
X1059877Y929024D01*
X1059432Y928767D01*
X1058996Y928496D01*
X1058569Y928211D01*
X1058152Y927912D01*
X1057745Y927599D01*
X1057347Y927273D01*
X1056962Y926935D01*
X1056959Y926933D01*
X1056587Y926584D01*
X1056408Y926408D01*
X1056404Y926404D01*
X1056404Y926404D01*
X1056404Y926404D01*
X1037500Y907500D01*
X1037383Y907380D01*
X1037155Y907134D01*
X1036937Y906879D01*
X1036730Y906616D01*
X1036533Y906345D01*
X1036347Y906066D01*
X1036172Y905780D01*
X1036008Y905488D01*
X1035856Y905189D01*
X1035715Y904885D01*
X1035587Y904575D01*
X1035471Y904261D01*
X1035367Y903942D01*
X1035276Y903620D01*
X1035198Y903294D01*
X1035133Y902965D01*
X1035090Y902697D01*
X1035080Y902634D01*
X1035080Y902633D01*
X1035041Y902301D01*
X1035041Y902300D01*
X1035015Y901967D01*
X1035015Y901964D01*
X1035002Y901632D01*
X1035000Y901464D01*
X1035000Y901464D01*
X1035000Y901464D01*
X1035000Y898000D01*
X1035000Y897869D01*
X1034983Y897608D01*
X1034949Y897348D01*
X1034898Y897091D01*
X1034830Y896838D01*
X1034746Y896590D01*
X1034645Y896348D01*
X1034529Y896113D01*
X1034399Y895887D01*
X1034253Y895669D01*
X1034094Y895461D01*
X1033921Y895264D01*
X1033736Y895079D01*
X1033539Y894906D01*
X1033331Y894747D01*
X1033113Y894601D01*
X1032887Y894470D01*
X1032652Y894354D01*
X1032410Y894254D01*
X1032189Y894179D01*
X1031000Y894000D01*
X1031000Y894000D01*
X1029836Y894171D01*
X1029590Y894254D01*
X1029348Y894354D01*
X1029113Y894470D01*
X1028887Y894601D01*
X1028669Y894747D01*
X1028461Y894906D01*
X1028264Y895079D01*
X1028079Y895264D01*
X1027906Y895461D01*
X1027747Y895669D01*
X1027601Y895887D01*
X1027470Y896113D01*
X1027355Y896348D01*
X1027254Y896590D01*
X1027170Y896838D01*
X1027102Y897091D01*
X1027051Y897348D01*
X1027017Y897608D01*
X1027000Y897869D01*
X1027000Y898000D01*
Y907050D01*
X1027000Y907285D01*
X1027018Y907754D01*
X1027055Y908222D01*
X1027110Y908688D01*
X1027184Y909151D01*
X1027275Y909612D01*
X1027385Y910068D01*
X1027512Y910520D01*
X1027657Y910966D01*
X1027820Y911406D01*
X1027999Y911840D01*
X1028196Y912266D01*
X1028409Y912684D01*
X1028638Y913094D01*
X1028884Y913494D01*
X1029144Y913884D01*
X1029420Y914264D01*
X1029711Y914632D01*
X1030015Y914989D01*
X1030334Y915334D01*
X1030500Y915500D01*
X1030500Y915500D01*
X1083000Y968000D01*
X1083079Y968079D01*
X1083247Y968226D01*
X1083424Y968363D01*
X1083610Y968487D01*
X1083804Y968598D01*
X1084004Y968697D01*
X1084211Y968783D01*
X1084423Y968855D01*
X1084638Y968913D01*
X1084858Y968956D01*
X1085079Y968985D01*
X1085302Y969000D01*
X1085414Y969000D01*
X1085414Y969000D01*
X1088500Y969000D01*
D02*
G37*
G36*
X1005392Y963983D02*
X1005652Y963949D01*
X1005909Y963898D01*
X1006162Y963830D01*
X1006410Y963746D01*
X1006652Y963645D01*
X1006887Y963530D01*
X1007113Y963399D01*
X1007331Y963253D01*
X1007539Y963094D01*
X1007736Y962921D01*
X1007921Y962736D01*
X1008094Y962539D01*
X1008253Y962331D01*
X1008399Y962113D01*
X1008530Y961887D01*
X1008645Y961652D01*
X1008745Y961410D01*
X1008830Y961162D01*
X1008998Y960010D01*
X1009000Y960000D01*
X1009000Y960000D01*
X1009000Y960000D01*
Y952316D01*
X1008982Y951948D01*
X1008946Y951582D01*
X1008892Y951217D01*
X1008820Y950856D01*
X1008730Y950499D01*
X1008624Y950147D01*
X1008500Y949800D01*
X1008359Y949460D01*
X1008201Y949127D01*
X1008028Y948802D01*
X1007838Y948486D01*
X1007634Y948180D01*
X1007414Y947884D01*
X1007181Y947600D01*
X1006933Y947327D01*
X1006673Y947066D01*
X1006400Y946819D01*
X1006116Y946586D01*
X1005820Y946366D01*
X1005514Y946162D01*
X1005198Y945972D01*
X1004873Y945799D01*
X1004540Y945641D01*
X1004200Y945500D01*
X1003853Y945376D01*
X1003501Y945269D01*
X1003144Y945180D01*
X1002783Y945108D01*
X1002418Y945054D01*
X1002052Y945018D01*
X1001684Y945000D01*
X911316D01*
X910948Y945018D01*
X910582Y945054D01*
X910217Y945108D01*
X909856Y945180D01*
X909499Y945269D01*
X909147Y945376D01*
X908800Y945500D01*
X908460Y945641D01*
X908127Y945799D01*
X907802Y945972D01*
X907486Y946162D01*
X907180Y946366D01*
X906884Y946586D01*
X906600Y946819D01*
X906327Y947066D01*
X906067Y947327D01*
X905819Y947600D01*
X905586Y947884D01*
X905366Y948180D01*
X905162Y948486D01*
X904972Y948802D01*
X904799Y949127D01*
X904641Y949460D01*
X904500Y949800D01*
X904376Y950147D01*
X904269Y950499D01*
X904180Y950856D01*
X904108Y951217D01*
X904054Y951582D01*
X904018Y951948D01*
X904000Y952316D01*
Y959614D01*
X904015Y959843D01*
X904045Y960070D01*
X904090Y960295D01*
X904149Y960516D01*
X904222Y960733D01*
X904310Y960945D01*
X904411Y961150D01*
X904526Y961349D01*
X904653Y961539D01*
X904793Y961721D01*
X904944Y961893D01*
X905106Y962055D01*
X905278Y962206D01*
X905460Y962346D01*
X905650Y962473D01*
X905849Y962588D01*
X906054Y962689D01*
X906266Y962777D01*
X906483Y962850D01*
X906704Y962910D01*
X906929Y962954D01*
X907156Y962984D01*
X907385Y962999D01*
X907499Y962999D01*
X907499Y962999D01*
X907614Y962999D01*
X907843Y962984D01*
X908070Y962955D01*
X908295Y962910D01*
X908516Y962851D01*
X908733Y962777D01*
X908945Y962689D01*
X909150Y962588D01*
X909349Y962473D01*
X909539Y962346D01*
X909721Y962207D01*
X909893Y962056D01*
X910055Y961893D01*
X910207Y961721D01*
X910346Y961539D01*
X910473Y961349D01*
X910588Y961150D01*
X910689Y960945D01*
X910777Y960733D01*
X910802Y960659D01*
X910993Y959540D01*
X910999Y959500D01*
X910999Y959500D01*
X911000Y959499D01*
Y955000D01*
X911002Y954902D01*
X911017Y954706D01*
X911048Y954512D01*
X911094Y954321D01*
X911154Y954135D01*
X911230Y953953D01*
X911319Y953778D01*
X911421Y953611D01*
X911537Y953452D01*
X911664Y953303D01*
X911803Y953164D01*
X911952Y953037D01*
X912111Y952921D01*
X912278Y952819D01*
X912453Y952730D01*
X912635Y952654D01*
X912821Y952594D01*
X913012Y952548D01*
X913206Y952517D01*
X913402Y952502D01*
X913500Y952500D01*
X966500D01*
X966598Y952502D01*
X966794Y952517D01*
X966988Y952548D01*
X967179Y952594D01*
X967365Y952654D01*
X967547Y952730D01*
X967721Y952819D01*
X967889Y952921D01*
X968048Y953037D01*
X968197Y953164D01*
X968336Y953303D01*
X968463Y953452D01*
X968579Y953611D01*
X968681Y953778D01*
X968770Y953953D01*
X968845Y954135D01*
X968906Y954321D01*
X968952Y954512D01*
X968983Y954706D01*
X968998Y954902D01*
X969000Y955000D01*
X969000Y955000D01*
Y959500D01*
X969000Y959614D01*
X969015Y959843D01*
X969045Y960070D01*
X969090Y960295D01*
X969149Y960516D01*
X969222Y960733D01*
X969310Y960945D01*
X969411Y961151D01*
X969526Y961349D01*
X969653Y961540D01*
X969793Y961721D01*
X969944Y961894D01*
X970106Y962056D01*
X970278Y962207D01*
X970460Y962346D01*
X970651Y962473D01*
X970849Y962588D01*
X971055Y962689D01*
X971266Y962777D01*
X971483Y962851D01*
X971704Y962910D01*
X971929Y962955D01*
X972156Y962985D01*
X972385Y963000D01*
X972500Y963000D01*
X972500Y963000D01*
X972615Y963000D01*
X972843Y962985D01*
X973070Y962955D01*
X973295Y962910D01*
X973516Y962851D01*
X973734Y962777D01*
X973945Y962690D01*
X974151Y962588D01*
X974349Y962474D01*
X974540Y962346D01*
X974722Y962207D01*
X974894Y962056D01*
X975056Y961894D01*
X975207Y961721D01*
X975347Y961540D01*
X975474Y961349D01*
X975588Y961151D01*
X975690Y960945D01*
X975777Y960733D01*
X975803Y960658D01*
X975997Y959517D01*
X976000Y959500D01*
X976000Y959500D01*
X976000Y959500D01*
Y955000D01*
X976002Y954902D01*
X976017Y954706D01*
X976048Y954512D01*
X976094Y954321D01*
X976154Y954135D01*
X976230Y953953D01*
X976319Y953778D01*
X976421Y953611D01*
X976537Y953452D01*
X976664Y953303D01*
X976803Y953164D01*
X976952Y953037D01*
X977111Y952921D01*
X977278Y952819D01*
X977453Y952730D01*
X977635Y952654D01*
X977821Y952594D01*
X978012Y952548D01*
X978206Y952517D01*
X978402Y952502D01*
X978500Y952500D01*
Y952500D01*
X998500D01*
X998598Y952502D01*
X998794Y952517D01*
X998988Y952548D01*
X999179Y952594D01*
X999365Y952654D01*
X999547Y952730D01*
X999722Y952819D01*
X999889Y952921D01*
X1000048Y953037D01*
X1000197Y953164D01*
X1000336Y953303D01*
X1000463Y953452D01*
X1000579Y953611D01*
X1000681Y953778D01*
X1000770Y953953D01*
X1000845Y954135D01*
X1000906Y954321D01*
X1000952Y954512D01*
X1000983Y954706D01*
X1000998Y954902D01*
X1001000Y955000D01*
X1001000D01*
Y960000D01*
X1001000Y960131D01*
X1001017Y960392D01*
X1001051Y960652D01*
X1001102Y960909D01*
X1001170Y961162D01*
X1001254Y961410D01*
X1001355Y961652D01*
X1001470Y961886D01*
X1001601Y962113D01*
X1001747Y962331D01*
X1001906Y962539D01*
X1002079Y962736D01*
X1002264Y962921D01*
X1002461Y963093D01*
X1002669Y963253D01*
X1002886Y963398D01*
X1003113Y963529D01*
X1003348Y963645D01*
X1003590Y963745D01*
X1003838Y963829D01*
X1004091Y963897D01*
X1004348Y963948D01*
X1004607Y963982D01*
X1004869Y964000D01*
X1005000Y964000D01*
X1005000Y964000D01*
X1005131Y964000D01*
X1005392Y963983D01*
D02*
G37*
G36*
X923036Y958075D02*
X922850Y958251D01*
X922656Y958408D01*
X922453Y958547D01*
X922241Y958667D01*
X922021Y958769D01*
X921792Y958852D01*
X921554Y958917D01*
X921307Y958963D01*
X921052Y958991D01*
X920788Y959000D01*
Y961000D01*
X921052Y961009D01*
X921307Y961037D01*
X921554Y961083D01*
X921792Y961148D01*
X922021Y961231D01*
X922241Y961333D01*
X922453Y961453D01*
X922656Y961592D01*
X922850Y961749D01*
X923036Y961925D01*
Y958075D01*
D02*
G37*
G36*
X779757Y948717D02*
X779783Y948468D01*
X779829Y948227D01*
X779893Y947992D01*
X779977Y947764D01*
X780080Y947543D01*
X780203Y947329D01*
X780344Y947122D01*
X780505Y946922D01*
X780685Y946729D01*
X779271Y945315D01*
X779078Y945495D01*
X778878Y945656D01*
X778671Y945797D01*
X778457Y945920D01*
X778236Y946023D01*
X778008Y946107D01*
X777773Y946171D01*
X777532Y946217D01*
X777283Y946243D01*
X777028Y946250D01*
X779750Y948972D01*
X779757Y948717D01*
D02*
G37*
G36*
X842150Y931749D02*
X842344Y931592D01*
X842547Y931453D01*
X842759Y931333D01*
X842979Y931231D01*
X843208Y931148D01*
X843446Y931083D01*
X843693Y931037D01*
X843948Y931009D01*
X844212Y931000D01*
Y929000D01*
X843948Y928991D01*
X843693Y928963D01*
X843446Y928917D01*
X843208Y928852D01*
X842979Y928769D01*
X842759Y928667D01*
X842547Y928547D01*
X842344Y928408D01*
X842150Y928251D01*
X841964Y928075D01*
Y931925D01*
X842150Y931749D01*
D02*
G37*
G36*
X698623Y913109D02*
X698325Y912797D01*
X698071Y912501D01*
X697859Y912219D01*
X697690Y911953D01*
X697565Y911702D01*
X697483Y911467D01*
X697443Y911246D01*
X697447Y911040D01*
X697494Y910850D01*
X697583Y910675D01*
X695333Y914057D01*
X695456Y913912D01*
X695599Y913816D01*
X695763Y913768D01*
X695948Y913770D01*
X696153Y913820D01*
X696378Y913918D01*
X696624Y914065D01*
X696891Y914261D01*
X697178Y914506D01*
X697486Y914800D01*
X698623Y913109D01*
D02*
G37*
G36*
X833685Y911271D02*
X833505Y911078D01*
X833344Y910878D01*
X833203Y910671D01*
X833080Y910457D01*
X832977Y910236D01*
X832893Y910008D01*
X832829Y909773D01*
X832783Y909532D01*
X832757Y909283D01*
X832750Y909027D01*
X830027Y911750D01*
X830283Y911757D01*
X830532Y911783D01*
X830773Y911829D01*
X831008Y911893D01*
X831236Y911977D01*
X831457Y912080D01*
X831671Y912203D01*
X831878Y912344D01*
X832078Y912505D01*
X832271Y912685D01*
X833685Y911271D01*
D02*
G37*
G36*
X822150Y900749D02*
X822344Y900592D01*
X822547Y900453D01*
X822759Y900333D01*
X822979Y900231D01*
X823208Y900148D01*
X823446Y900083D01*
X823693Y900037D01*
X823948Y900009D01*
X824212Y900000D01*
Y898000D01*
X823948Y897991D01*
X823693Y897963D01*
X823446Y897917D01*
X823208Y897852D01*
X822979Y897769D01*
X822759Y897667D01*
X822547Y897547D01*
X822344Y897408D01*
X822150Y897251D01*
X821964Y897075D01*
Y900925D01*
X822150Y900749D01*
D02*
G37*
G36*
X762000Y959500D02*
X769000Y959500D01*
X769000Y959500D01*
X769000Y959500D01*
X770186Y959296D01*
X770235Y959280D01*
X770447Y959192D01*
X770652Y959091D01*
X770851Y958977D01*
X771042Y958849D01*
X771224Y958710D01*
X771396Y958559D01*
X771559Y958396D01*
X771710Y958224D01*
X771849Y958042D01*
X771976Y957851D01*
X772091Y957653D01*
X772192Y957447D01*
X772280Y957235D01*
X772353Y957018D01*
X772412Y956796D01*
X772456Y956571D01*
X772486Y956344D01*
X772500Y956115D01*
X772500Y956000D01*
Y955885D01*
X772485Y955657D01*
X772455Y955430D01*
X772410Y955205D01*
X772351Y954983D01*
X772277Y954766D01*
X772190Y954555D01*
X772088Y954349D01*
X771974Y954151D01*
X771846Y953960D01*
X771707Y953778D01*
X771556Y953606D01*
X771394Y953444D01*
X771222Y953293D01*
X771040Y953154D01*
X770849Y953026D01*
X770651Y952912D01*
X770445Y952810D01*
X770234Y952723D01*
X770016Y952649D01*
X769795Y952590D01*
X769570Y952545D01*
X769343Y952515D01*
X769115Y952500D01*
X764000D01*
X764000Y952500D01*
X763816Y952498D01*
X763448Y952480D01*
X763082Y952444D01*
X762718Y952390D01*
X762357Y952318D01*
X762000Y952228D01*
X761647Y952121D01*
X761301Y951997D01*
X760961Y951857D01*
X760628Y951699D01*
X760303Y951526D01*
X759987Y951336D01*
X759681Y951132D01*
X759386Y950913D01*
X759101Y950679D01*
X758828Y950432D01*
X758568Y950172D01*
X758321Y949899D01*
X758087Y949614D01*
X757868Y949318D01*
X757664Y949013D01*
X757474Y948697D01*
X757301Y948372D01*
X757143Y948039D01*
X757002Y947699D01*
X756879Y947353D01*
X756772Y947000D01*
X756682Y946643D01*
X756610Y946282D01*
X756556Y945918D01*
X756520Y945552D01*
X756502Y945184D01*
X756500Y945000D01*
X756500Y897006D01*
X756502Y896858D01*
X756517Y896562D01*
X756547Y896268D01*
X756591Y895975D01*
X756651Y895685D01*
X756725Y895399D01*
X756813Y895116D01*
X756916Y894839D01*
X757032Y894567D01*
X757162Y894301D01*
X757305Y894042D01*
X757462Y893791D01*
X757630Y893548D01*
X757811Y893313D01*
X758003Y893088D01*
X758207Y892873D01*
X758312Y892770D01*
X765692Y885726D01*
Y885726D01*
X765800Y885625D01*
X766023Y885431D01*
X766025Y885430D01*
X766258Y885247D01*
X766258Y885246D01*
X766500Y885074D01*
X766500Y885074D01*
X766750Y884913D01*
X767008Y884764D01*
X767272Y884628D01*
X767542Y884504D01*
X767818Y884394D01*
X768099Y884296D01*
X768384Y884213D01*
X768673Y884143D01*
X768964Y884086D01*
X769259Y884044D01*
X769555Y884016D01*
X769851Y884002D01*
X770000Y884000D01*
X778000D01*
X778154Y884002D01*
X778462Y884019D01*
X778769Y884053D01*
X779073Y884105D01*
X779374Y884174D01*
X779671Y884259D01*
X779962Y884361D01*
X780247Y884479D01*
X780525Y884612D01*
X780795Y884762D01*
X781057Y884926D01*
X781308Y885104D01*
X781549Y885297D01*
X781779Y885502D01*
X781998Y885720D01*
X782203Y885950D01*
X782396Y886192D01*
X782574Y886443D01*
X782738Y886705D01*
X782887Y886975D01*
X783021Y887253D01*
X783139Y887538D01*
X783241Y887829D01*
X783326Y888126D01*
X783395Y888427D01*
X783446Y888731D01*
X783481Y889038D01*
X783498Y889346D01*
X783500Y889500D01*
X783500Y900005D01*
X783500Y900005D01*
X783679Y901200D01*
X783752Y901415D01*
X783852Y901657D01*
X783968Y901892D01*
X784099Y902119D01*
X784244Y902337D01*
X784403Y902545D01*
X784576Y902742D01*
X784762Y902927D01*
X784959Y903100D01*
X785167Y903259D01*
X785385Y903404D01*
X785612Y903535D01*
X785847Y903650D01*
X786089Y903750D01*
X786337Y903833D01*
X786591Y903901D01*
X786848Y903951D01*
X787107Y903984D01*
X787369Y904000D01*
X787500Y904000D01*
X787631Y904000D01*
X787893Y903984D01*
X788152Y903950D01*
X788410Y903899D01*
X788663Y903832D01*
X788911Y903748D01*
X789153Y903648D01*
X789388Y903532D01*
X789615Y903401D01*
X789833Y903256D01*
X790041Y903096D01*
X790238Y902924D01*
X790424Y902738D01*
X790596Y902541D01*
X790756Y902333D01*
X790901Y902115D01*
X791032Y901888D01*
X791148Y901653D01*
X791248Y901411D01*
X791332Y901163D01*
X791399Y900910D01*
X791450Y900652D01*
X791484Y900393D01*
X791500Y900131D01*
X791500Y900000D01*
X791499Y889499D01*
X791499Y889499D01*
Y889256D01*
X791482Y888771D01*
X791447Y888286D01*
X791395Y887803D01*
X791326Y887322D01*
X791240Y886844D01*
X791136Y886369D01*
X791016Y885899D01*
X790879Y885433D01*
X790726Y884972D01*
X790556Y884516D01*
X790370Y884068D01*
X790168Y883626D01*
X789951Y883191D01*
X789718Y882765D01*
X789470Y882347D01*
X789207Y881938D01*
X788930Y881539D01*
X788639Y881150D01*
X788334Y880772D01*
X788016Y880405D01*
X787685Y880049D01*
X787342Y879706D01*
X786986Y879375D01*
X786619Y879056D01*
X786240Y878752D01*
X785852Y878460D01*
X785452Y878183D01*
X785044Y877921D01*
X784626Y877673D01*
X784199Y877440D01*
X783765Y877223D01*
X783323Y877021D01*
X782874Y876835D01*
X782419Y876665D01*
X781958Y876512D01*
X781492Y876375D01*
X781021Y876255D01*
X780546Y876151D01*
X780068Y876065D01*
X779587Y875996D01*
X779104Y875944D01*
X778620Y875909D01*
X778134Y875892D01*
X777891Y875892D01*
X772392D01*
X772392Y875892D01*
X772255Y875890D01*
X771981Y875875D01*
X771708Y875844D01*
X771438Y875798D01*
X771170Y875737D01*
X770906Y875661D01*
X770647Y875570D01*
X770394Y875465D01*
X770147Y875346D01*
X769906Y875213D01*
X769674Y875068D01*
X769450Y874909D01*
X769236Y874738D01*
X769031Y874555D01*
X768837Y874361D01*
X768654Y874156D01*
X768483Y873942D01*
X768324Y873718D01*
X768178Y873485D01*
X768046Y873245D01*
X767926Y872998D01*
X767822Y872745D01*
X767731Y872486D01*
X767655Y872222D01*
X767594Y871954D01*
X767548Y871684D01*
X767517Y871411D01*
X767502Y871137D01*
X767500Y871000D01*
X767500Y827500D01*
X767502Y827360D01*
X767518Y827080D01*
X767549Y826801D01*
X767596Y826524D01*
X767658Y826251D01*
X767736Y825982D01*
X767828Y825717D01*
X767936Y825458D01*
X768057Y825205D01*
X768193Y824959D01*
X768342Y824722D01*
X768505Y824493D01*
X768680Y824274D01*
X768866Y824065D01*
X769065Y823866D01*
X769274Y823680D01*
X769493Y823505D01*
X769722Y823342D01*
X769959Y823193D01*
X770205Y823057D01*
X770458Y822936D01*
X770717Y822829D01*
X770981Y822736D01*
X771251Y822658D01*
X771524Y822596D01*
X771801Y822549D01*
X772080Y822518D01*
X772360Y822502D01*
X772500Y822500D01*
X845000D01*
X845217Y822502D01*
X845651Y822516D01*
X846085Y822544D01*
X846518Y822587D01*
X846948Y822643D01*
X847377Y822714D01*
X847803Y822799D01*
X848226Y822897D01*
X848646Y823010D01*
X849062Y823136D01*
X849473Y823276D01*
X849880Y823429D01*
X850282Y823595D01*
X850677Y823774D01*
X851067Y823966D01*
X851450Y824171D01*
X851827Y824389D01*
X852196Y824618D01*
X852557Y824859D01*
X852910Y825113D01*
X853255Y825377D01*
X853590Y825653D01*
X853917Y825939D01*
X854234Y826237D01*
X854389Y826389D01*
X859379Y831379D01*
X859503Y831506D01*
X859742Y831769D01*
X859967Y832044D01*
X860179Y832329D01*
X860377Y832625D01*
X860560Y832930D01*
X860728Y833243D01*
X860880Y833565D01*
X861016Y833893D01*
X861135Y834228D01*
X861239Y834568D01*
X861325Y834913D01*
X861394Y835262D01*
X861446Y835613D01*
X861481Y835967D01*
X861498Y836322D01*
X861500Y836500D01*
X861500Y843000D01*
X861500Y843000D01*
X861636Y844214D01*
X861672Y844374D01*
X861758Y844671D01*
X861860Y844962D01*
X861978Y845247D01*
X862112Y845525D01*
X862261Y845796D01*
X862425Y846057D01*
X862604Y846309D01*
X862796Y846550D01*
X863002Y846780D01*
X863220Y846998D01*
X863450Y847204D01*
X863691Y847396D01*
X863943Y847575D01*
X864204Y847739D01*
X864475Y847888D01*
X864753Y848022D01*
X865038Y848140D01*
X865329Y848242D01*
X865626Y848328D01*
X865786Y848364D01*
X867000Y848500D01*
X867000Y848500D01*
X867003Y848500D01*
X868214Y848364D01*
X868374Y848328D01*
X868671Y848242D01*
X868962Y848140D01*
X869247Y848022D01*
X869525Y847888D01*
X869795Y847739D01*
X870057Y847575D01*
X870309Y847396D01*
X870550Y847204D01*
X870780Y846998D01*
X870998Y846780D01*
X871204Y846550D01*
X871396Y846309D01*
X871575Y846057D01*
X871739Y845796D01*
X871888Y845525D01*
X872022Y845247D01*
X872140Y844962D01*
X872242Y844671D01*
X872328Y844374D01*
X872396Y844073D01*
X872448Y843769D01*
X872483Y843462D01*
X872500Y843154D01*
X872500Y830000D01*
X872499Y829999D01*
X872499Y829703D01*
X872480Y829111D01*
X872441Y828520D01*
X872383Y827930D01*
X872306Y827343D01*
X872209Y826758D01*
X872094Y826177D01*
X871959Y825600D01*
X871806Y825027D01*
X871634Y824460D01*
X871444Y823899D01*
X871235Y823344D01*
X871008Y822797D01*
X870764Y822257D01*
X870502Y821726D01*
X870222Y821203D01*
X869926Y820690D01*
X869613Y820187D01*
X869284Y819694D01*
X868939Y819212D01*
X868578Y818742D01*
X868202Y818284D01*
X867811Y817839D01*
X867406Y817406D01*
X842535Y792535D01*
X842535Y792535D01*
X842367Y792368D01*
X842019Y792046D01*
X841659Y791738D01*
X841286Y791444D01*
X840903Y791166D01*
X840509Y790902D01*
X840105Y790655D01*
X839691Y790423D01*
X839269Y790208D01*
X838838Y790010D01*
X838400Y789828D01*
X837955Y789664D01*
X837505Y789518D01*
X837048Y789389D01*
X836587Y789278D01*
X836122Y789186D01*
X835654Y789111D01*
X835183Y789056D01*
X834711Y789019D01*
X834237Y789000D01*
X834000Y789000D01*
X773517Y789000D01*
X773517Y788999D01*
X773116Y788997D01*
X772316Y788977D01*
X771516Y788938D01*
X770717Y788879D01*
X769920Y788801D01*
X769125Y788702D01*
X768333Y788585D01*
X767544Y788448D01*
X766758Y788292D01*
X765977Y788116D01*
X765200Y787922D01*
X764428Y787708D01*
X763661Y787476D01*
X762901Y787225D01*
X762147Y786955D01*
X761400Y786666D01*
X760660Y786360D01*
X759928Y786036D01*
X759203Y785693D01*
X758488Y785333D01*
X757782Y784956D01*
X757085Y784561D01*
X756398Y784149D01*
X755721Y783720D01*
X755055Y783276D01*
X754400Y782814D01*
X753757Y782337D01*
X753126Y781845D01*
X752507Y781337D01*
X751900Y780813D01*
X751307Y780275D01*
X750727Y779723D01*
X750442Y779442D01*
X713121Y742121D01*
X713121Y742121D01*
X712997Y741994D01*
X712758Y741730D01*
X712533Y741456D01*
X712321Y741170D01*
X712124Y740874D01*
X711941Y740570D01*
X711773Y740256D01*
X711621Y739935D01*
X711485Y739606D01*
X711366Y739272D01*
X711262Y738932D01*
X711176Y738587D01*
X711107Y738238D01*
X711054Y737886D01*
X711020Y737533D01*
X711002Y737178D01*
X711000Y737000D01*
X711000Y654000D01*
X711002Y653763D01*
X711021Y653289D01*
X711058Y652817D01*
X711114Y652346D01*
X711188Y651878D01*
X711281Y651413D01*
X711391Y650952D01*
X711520Y650496D01*
X711666Y650045D01*
X711830Y649600D01*
X712012Y649162D01*
X712210Y648732D01*
X712425Y648309D01*
X712657Y647896D01*
X712905Y647492D01*
X713168Y647098D01*
X713447Y646714D01*
X713740Y646342D01*
X714048Y645982D01*
X714370Y645633D01*
X714536Y645464D01*
X748379Y611621D01*
X748379Y611621D01*
X748506Y611497D01*
X748769Y611258D01*
X749044Y611033D01*
X749330Y610821D01*
X749625Y610624D01*
X749930Y610441D01*
X750244Y610273D01*
X750565Y610121D01*
X750893Y609985D01*
X751228Y609865D01*
X751568Y609762D01*
X751913Y609676D01*
X752262Y609607D01*
X752613Y609554D01*
X752967Y609520D01*
X753322Y609502D01*
X753500Y609500D01*
X793495D01*
X793497Y609496D01*
X793497Y609496D01*
X793680Y609476D01*
X794668Y609343D01*
X794805Y609306D01*
X795084Y609212D01*
X795356Y609100D01*
X795620Y608969D01*
X795876Y608822D01*
X796121Y608659D01*
X796355Y608480D01*
X796577Y608286D01*
X796785Y608077D01*
X796979Y607856D01*
X797159Y607622D01*
X797323Y607378D01*
X797470Y607122D01*
X797601Y606858D01*
X797713Y606586D01*
X797808Y606307D01*
X797885Y606022D01*
X797942Y605733D01*
X797981Y605441D01*
X798000Y605147D01*
X798000Y605000D01*
X798000Y579998D01*
X798002Y579821D01*
X798020Y579466D01*
X798055Y579112D01*
X798107Y578760D01*
X798176Y578412D01*
X798263Y578067D01*
X798366Y577727D01*
X798486Y577393D01*
X798622Y577064D01*
X798774Y576743D01*
X798941Y576430D01*
X799124Y576125D01*
X799321Y575829D01*
X799533Y575544D01*
X799759Y575269D01*
X799997Y575006D01*
X800121Y574879D01*
X803660Y571340D01*
X803660Y571338D01*
X803923Y571077D01*
X804457Y570569D01*
X804460Y570566D01*
X804560Y570476D01*
X805009Y570069D01*
X805570Y569585D01*
X806142Y569115D01*
X806726Y568660D01*
X807321Y568219D01*
X807926Y567792D01*
X808542Y567381D01*
X809168Y566984D01*
X809803Y566604D01*
X810448Y566239D01*
X811101Y565890D01*
X811763Y565556D01*
X812432Y565240D01*
X813110Y564940D01*
X813794Y564656D01*
X814485Y564390D01*
X815182Y564140D01*
X815886Y563908D01*
X816594Y563693D01*
X817308Y563496D01*
X818027Y563316D01*
X818749Y563154D01*
X819476Y563009D01*
X820206Y562883D01*
X820938Y562774D01*
X821674Y562683D01*
X822411Y562611D01*
X823149Y562556D01*
X823889Y562520D01*
X824630Y562502D01*
X825000Y562500D01*
X849998D01*
X850368Y562502D01*
X851109Y562520D01*
X851849Y562556D01*
X852587Y562611D01*
X853325Y562683D01*
X854060Y562774D01*
X854792Y562882D01*
X855522Y563009D01*
X856249Y563153D01*
X856972Y563315D01*
X857690Y563495D01*
X858404Y563693D01*
X859113Y563908D01*
X859816Y564140D01*
X860514Y564389D01*
X861205Y564656D01*
X861889Y564939D01*
X862567Y565240D01*
X863236Y565556D01*
X863898Y565889D01*
X864551Y566239D01*
X865195Y566604D01*
X865831Y566984D01*
X866457Y567381D01*
X867073Y567792D01*
X867678Y568219D01*
X868273Y568660D01*
X868857Y569116D01*
X869429Y569586D01*
X869990Y570070D01*
X870539Y570568D01*
X871075Y571078D01*
X871339Y571339D01*
X884390Y584390D01*
X884391Y584389D01*
X884391Y584389D01*
X884456Y584454D01*
X885237Y585212D01*
X885241Y585216D01*
X885824Y585750D01*
X886417Y586271D01*
X887023Y586779D01*
X887639Y587274D01*
X888265Y587756D01*
X888903Y588223D01*
X889550Y588676D01*
X890207Y589116D01*
X890873Y589540D01*
X891548Y589951D01*
X892233Y590346D01*
X892925Y590726D01*
X893626Y591091D01*
X894335Y591441D01*
X895051Y591775D01*
X895774Y592093D01*
X896504Y592396D01*
X897241Y592682D01*
X897983Y592952D01*
X898732Y593206D01*
X899485Y593444D01*
X900244Y593665D01*
X901007Y593870D01*
X901775Y594058D01*
X902546Y594229D01*
X903321Y594383D01*
X904100Y594520D01*
X904881Y594640D01*
X905664Y594743D01*
X906450Y594829D01*
X907237Y594897D01*
X908025Y594949D01*
X908815Y594983D01*
X909605Y595000D01*
X910000Y595000D01*
X950753Y595000D01*
X952000Y595000D01*
X952002Y595000D01*
X952193Y595002D01*
X952583Y595021D01*
X952586Y595021D01*
X952976Y595059D01*
X952977Y595059D01*
X953365Y595116D01*
X953751Y595193D01*
X954132Y595288D01*
X954508Y595401D01*
X954878Y595534D01*
X955241Y595684D01*
X955596Y595851D01*
X955943Y596036D01*
X956280Y596238D01*
X956606Y596456D01*
X956922Y596690D01*
X957226Y596939D01*
X957517Y597203D01*
X957795Y597481D01*
X958058Y597772D01*
X958308Y598075D01*
X958542Y598391D01*
X958760Y598718D01*
X958962Y599055D01*
X959147Y599401D01*
X959315Y599756D01*
X959465Y600119D01*
X959597Y600489D01*
X959711Y600865D01*
X959807Y601246D01*
X959883Y601632D01*
X959940Y602020D01*
X959979Y602411D01*
X959998Y602803D01*
X960000Y603000D01*
X960000Y647946D01*
X960000Y649216D01*
X960025Y649787D01*
X960055Y650466D01*
X960089Y650812D01*
X960148Y651265D01*
X960222Y651716D01*
X960311Y652164D01*
X960415Y652609D01*
X960533Y653051D01*
X960666Y653488D01*
X960812Y653921D01*
X960973Y654348D01*
X961148Y654771D01*
X961337Y655187D01*
X961539Y655597D01*
X961754Y656000D01*
X961983Y656395D01*
X962224Y656783D01*
X962478Y657163D01*
X962744Y657534D01*
X963023Y657897D01*
X963313Y658250D01*
X963614Y658593D01*
X963927Y658927D01*
X964088Y659088D01*
X996171Y691171D01*
X996172Y691171D01*
X996172Y691172D01*
X996231Y691235D01*
X996301Y691306D01*
X996557Y691582D01*
X996559Y691584D01*
X996805Y691871D01*
X996806Y691872D01*
X997041Y692170D01*
X997265Y692476D01*
X997476Y692791D01*
X997674Y693115D01*
X997860Y693446D01*
X998033Y693783D01*
X998192Y694128D01*
X998337Y694478D01*
X998468Y694834D01*
X998586Y695195D01*
X998689Y695560D01*
X998777Y695929D01*
X998851Y696301D01*
X998910Y696676D01*
X998954Y697053D01*
X998984Y697431D01*
X998998Y697810D01*
X999000Y698000D01*
X999000Y834228D01*
X999000Y835498D01*
X999110Y836142D01*
X999204Y836686D01*
X999220Y836733D01*
X999307Y836945D01*
X999409Y837151D01*
X999523Y837350D01*
X999650Y837541D01*
X999790Y837723D01*
X999941Y837895D01*
X1000103Y838058D01*
X1000276Y838209D01*
X1000458Y838348D01*
X1000648Y838476D01*
X1000847Y838590D01*
X1001053Y838692D01*
X1001265Y838779D01*
X1001482Y838853D01*
X1001704Y838912D01*
X1001929Y838956D01*
X1002156Y838986D01*
X1002385Y839000D01*
X1002500Y839000D01*
X1002500Y839000D01*
X1002615D01*
X1002843Y838985D01*
X1003070Y838955D01*
X1003295Y838910D01*
X1003516Y838851D01*
X1003734Y838777D01*
X1003945Y838690D01*
X1004151Y838588D01*
X1004349Y838474D01*
X1004540Y838346D01*
X1004722Y838207D01*
X1004894Y838056D01*
X1005056Y837894D01*
X1005207Y837722D01*
X1005347Y837540D01*
X1005474Y837349D01*
X1005588Y837151D01*
X1005690Y836945D01*
X1005777Y836733D01*
X1005851Y836516D01*
X1005910Y836295D01*
X1005955Y836070D01*
X1005985Y835843D01*
X1006000Y835615D01*
X1006000Y798996D01*
X1006002Y798800D01*
X1006019Y798407D01*
X1006053Y798016D01*
X1006105Y797627D01*
X1006173Y797240D01*
X1006258Y796857D01*
X1006359Y796478D01*
X1006478Y796103D01*
X1006612Y795734D01*
X1006762Y795372D01*
X1006928Y795016D01*
X1007109Y794668D01*
X1007306Y794328D01*
X1007517Y793997D01*
X1007742Y793675D01*
X1007981Y793363D01*
X1008233Y793063D01*
X1008499Y792773D01*
X1008776Y792496D01*
X1009066Y792231D01*
X1009367Y791978D01*
X1009678Y791740D01*
X1010000Y791514D01*
X1010331Y791303D01*
X1010671Y791107D01*
X1011020Y790926D01*
X1011375Y790760D01*
X1011738Y790610D01*
X1012107Y790476D01*
X1012482Y790358D01*
X1012861Y790257D01*
X1013244Y790172D01*
X1013631Y790104D01*
X1014020Y790053D01*
X1014411Y790019D01*
X1014804Y790002D01*
X1015000Y790000D01*
X1047728Y790000D01*
X1048998Y790000D01*
X1048999Y790000D01*
X1049000D01*
X1049002Y790000D01*
X1049235Y790002D01*
X1049704Y790020D01*
X1049709Y790020D01*
X1050180Y790057D01*
X1050181Y790057D01*
X1050243Y790064D01*
X1050652Y790113D01*
X1051121Y790186D01*
X1051586Y790279D01*
X1052047Y790389D01*
X1052503Y790518D01*
X1052954Y790664D01*
X1053399Y790828D01*
X1053837Y791010D01*
X1054268Y791208D01*
X1054690Y791423D01*
X1055104Y791655D01*
X1055508Y791903D01*
X1055902Y792167D01*
X1056286Y792445D01*
X1056658Y792739D01*
X1057018Y793047D01*
X1057366Y793369D01*
X1057535Y793536D01*
X1066633Y802633D01*
X1066635Y802632D01*
X1066635Y802632D01*
X1066769Y802762D01*
X1067495Y803448D01*
X1067747Y803674D01*
X1068213Y804068D01*
X1068689Y804448D01*
X1069176Y804815D01*
X1069673Y805168D01*
X1070180Y805507D01*
X1070696Y805832D01*
X1071220Y806142D01*
X1071754Y806437D01*
X1072296Y806717D01*
X1072845Y806982D01*
X1073401Y807231D01*
X1073964Y807464D01*
X1074534Y807682D01*
X1075109Y807883D01*
X1075690Y808068D01*
X1076276Y808237D01*
X1076866Y808389D01*
X1077461Y808525D01*
X1078059Y808643D01*
X1078660Y808745D01*
X1079264Y808830D01*
X1079869Y808898D01*
X1080477Y808950D01*
X1081086Y808983D01*
X1081695Y809000D01*
X1082000Y809000D01*
X1116905Y809000D01*
X1117824Y808987D01*
X1118576Y808901D01*
X1118673Y808882D01*
X1119082Y808783D01*
X1119426Y808674D01*
X1119641Y808590D01*
X1119733Y808553D01*
X1120261Y808299D01*
X1120330Y808253D01*
X1120538Y808093D01*
X1120735Y807921D01*
X1120920Y807736D01*
X1121093Y807539D01*
X1121253Y807331D01*
X1121398Y807114D01*
X1121529Y806887D01*
X1121645Y806652D01*
X1121746Y806410D01*
X1121830Y806162D01*
X1121898Y805909D01*
X1121949Y805652D01*
X1121983Y805392D01*
X1122000Y805131D01*
X1122000Y805000D01*
Y804869D01*
X1121983Y804608D01*
X1121949Y804348D01*
X1121898Y804091D01*
X1121830Y803838D01*
X1121746Y803590D01*
X1121645Y803348D01*
X1121530Y803113D01*
X1121399Y802887D01*
X1121253Y802669D01*
X1121094Y802461D01*
X1120921Y802264D01*
X1120736Y802079D01*
X1120539Y801906D01*
X1120331Y801747D01*
X1120113Y801601D01*
X1119887Y801470D01*
X1119652Y801355D01*
X1119410Y801254D01*
X1119162Y801170D01*
X1118909Y801102D01*
X1118652Y801051D01*
X1118392Y801017D01*
X1118131Y801000D01*
X1082000D01*
X1081998Y800996D01*
X1081781Y800994D01*
X1081346Y800980D01*
X1080913Y800952D01*
X1080481Y800910D01*
X1080050Y800853D01*
X1079621Y800783D01*
X1079195Y800698D01*
X1078772Y800600D01*
X1078353Y800488D01*
X1077937Y800362D01*
X1077525Y800222D01*
X1077119Y800069D01*
X1076718Y799903D01*
X1076322Y799724D01*
X1075932Y799532D01*
X1075549Y799327D01*
X1075173Y799110D01*
X1074804Y798881D01*
X1074443Y798640D01*
X1074090Y798387D01*
X1073745Y798122D01*
X1073409Y797847D01*
X1073083Y797560D01*
X1072766Y797263D01*
X1072611Y797111D01*
X1063510Y788010D01*
X1063507Y788009D01*
X1063304Y787806D01*
X1062886Y787410D01*
X1062457Y787027D01*
X1062017Y786655D01*
X1061567Y786297D01*
X1061107Y785950D01*
X1060638Y785618D01*
X1060159Y785298D01*
X1059672Y784992D01*
X1059176Y784699D01*
X1058672Y784421D01*
X1058161Y784157D01*
X1057643Y783907D01*
X1057117Y783672D01*
X1056585Y783452D01*
X1056048Y783246D01*
X1055505Y783056D01*
X1054956Y782881D01*
X1054403Y782722D01*
X1053846Y782578D01*
X1053285Y782450D01*
X1052720Y782338D01*
X1052153Y782242D01*
X1051583Y782161D01*
X1051011Y782097D01*
X1050438Y782048D01*
X1049863Y782016D01*
X1049288Y782000D01*
X1049000Y782000D01*
X1015000D01*
X1014996Y781996D01*
X1014799Y781994D01*
X1014407Y781976D01*
X1014016Y781942D01*
X1013627Y781891D01*
X1013241Y781823D01*
X1012858Y781738D01*
X1012478Y781636D01*
X1012104Y781518D01*
X1011735Y781384D01*
X1011373Y781234D01*
X1011017Y781068D01*
X1010669Y780887D01*
X1010329Y780691D01*
X1009998Y780480D01*
X1009676Y780255D01*
X1009365Y780016D01*
X1009064Y779763D01*
X1008775Y779498D01*
X1008497Y779221D01*
X1008232Y778931D01*
X1007980Y778631D01*
X1007741Y778319D01*
X1007516Y777998D01*
X1007305Y777667D01*
X1007109Y777327D01*
X1006928Y776979D01*
X1006762Y776623D01*
X1006612Y776260D01*
X1006477Y775892D01*
X1006359Y775517D01*
X1006258Y775138D01*
X1006173Y774755D01*
X1006105Y774369D01*
X1006053Y773979D01*
X1006019Y773588D01*
X1006002Y773196D01*
X1006000Y773000D01*
Y696000D01*
X1005996Y695998D01*
X1005996Y695721D01*
X1005978Y695169D01*
X1005942Y694617D01*
X1005888Y694066D01*
X1005816Y693518D01*
X1005726Y692973D01*
X1005619Y692430D01*
X1005493Y691892D01*
X1005350Y691358D01*
X1005190Y690828D01*
X1005013Y690305D01*
X1004818Y689787D01*
X1004606Y689276D01*
X1004378Y688773D01*
X1004134Y688277D01*
X1003873Y687789D01*
X1003597Y687310D01*
X1003305Y686840D01*
X1002998Y686381D01*
X1002676Y685931D01*
X1002339Y685492D01*
X1001988Y685065D01*
X1001624Y684649D01*
X1001246Y684246D01*
X1001050Y684050D01*
X973536Y656535D01*
X973534Y656533D01*
X973368Y656363D01*
X973047Y656015D01*
X972739Y655655D01*
X972446Y655283D01*
X972167Y654900D01*
X971904Y654506D01*
X971656Y654102D01*
X971425Y653688D01*
X971210Y653266D01*
X971011Y652836D01*
X970830Y652398D01*
X970666Y651953D01*
X970519Y651503D01*
X970391Y651047D01*
X970280Y650586D01*
X970188Y650121D01*
X970114Y649653D01*
X970058Y649183D01*
X970021Y648710D01*
X970002Y648237D01*
X970000Y648000D01*
Y603000D01*
X969996Y602996D01*
Y602701D01*
X969976Y602113D01*
X969938Y601525D01*
X969880Y600939D01*
X969803Y600355D01*
X969707Y599774D01*
X969593Y599196D01*
X969459Y598623D01*
X969306Y598054D01*
X969135Y597490D01*
X968946Y596932D01*
X968739Y596381D01*
X968513Y595837D01*
X968270Y595300D01*
X968010Y594772D01*
X967732Y594253D01*
X967438Y593743D01*
X967126Y593243D01*
X966799Y592753D01*
X966456Y592274D01*
X966098Y591807D01*
X965724Y591352D01*
X965336Y590909D01*
X964933Y590479D01*
X964517Y590063D01*
X964087Y589660D01*
X963644Y589272D01*
X963189Y588898D01*
X962721Y588540D01*
X962243Y588196D01*
X961753Y587869D01*
X961253Y587558D01*
X960743Y587264D01*
X960223Y586986D01*
X959695Y586726D01*
X959159Y586483D01*
X958615Y586257D01*
X958063Y586050D01*
X957506Y585860D01*
X956942Y585689D01*
X956373Y585537D01*
X955800Y585403D01*
X955222Y585288D01*
X954641Y585192D01*
X954057Y585116D01*
X953471Y585058D01*
X952883Y585019D01*
X952294Y585000D01*
X916397D01*
X916395Y584996D01*
X916077Y584994D01*
X915441Y584976D01*
X914806Y584941D01*
X914172Y584887D01*
X913539Y584816D01*
X912909Y584728D01*
X912282Y584621D01*
X911658Y584497D01*
X911038Y584356D01*
X910422Y584197D01*
X909810Y584021D01*
X909204Y583828D01*
X908603Y583618D01*
X908009Y583391D01*
X907421Y583148D01*
X906840Y582888D01*
X906267Y582612D01*
X905702Y582320D01*
X905145Y582012D01*
X904597Y581689D01*
X904058Y581351D01*
X903529Y580998D01*
X903010Y580629D01*
X902502Y580247D01*
X902004Y579850D01*
X901518Y579440D01*
X901044Y579016D01*
X900582Y578579D01*
X900355Y578355D01*
X867121Y545121D01*
X867120Y545118D01*
X866996Y544991D01*
X866757Y544728D01*
X866532Y544453D01*
X866320Y544168D01*
X866123Y543872D01*
X865940Y543568D01*
X865773Y543255D01*
X865621Y542933D01*
X865485Y542605D01*
X865365Y542271D01*
X865262Y541931D01*
X865176Y541586D01*
X865107Y541237D01*
X865054Y540886D01*
X865020Y540532D01*
X865002Y540178D01*
X865000Y540000D01*
X865000Y523500D01*
X864996Y523496D01*
Y523288D01*
X864978Y522874D01*
X864942Y522462D01*
X864887Y522051D01*
X864816Y521643D01*
X864726Y521238D01*
X864619Y520838D01*
X864494Y520443D01*
X864352Y520053D01*
X864194Y519670D01*
X864018Y519295D01*
X863827Y518927D01*
X863620Y518568D01*
X863397Y518219D01*
X863160Y517879D01*
X862907Y517551D01*
X862641Y517233D01*
X862361Y516928D01*
X862068Y516635D01*
X861762Y516355D01*
X861445Y516088D01*
X861116Y515836D01*
X860777Y515598D01*
X860427Y515376D01*
X860068Y515169D01*
X859701Y514977D01*
X859325Y514802D01*
X858942Y514644D01*
X858553Y514502D01*
X858158Y514377D01*
X857757Y514270D01*
X857353Y514180D01*
X856945Y514108D01*
X856534Y514054D01*
X856121Y514018D01*
X855707Y514000D01*
X855496D01*
X855300Y514000D01*
X854907Y514017D01*
X854516Y514051D01*
X854127Y514103D01*
X853740Y514171D01*
X853356Y514256D01*
X852977Y514357D01*
X852603Y514476D01*
X852234Y514610D01*
X851871Y514760D01*
X851515Y514926D01*
X851167Y515107D01*
X850827Y515304D01*
X850496Y515515D01*
X850174Y515740D01*
X849862Y515979D01*
X849561Y516232D01*
X849272Y516497D01*
X848995Y516775D01*
X848729Y517065D01*
X848477Y517365D01*
X848238Y517677D01*
X848013Y517999D01*
X847802Y518330D01*
X847606Y518670D01*
X847424Y519019D01*
X847259Y519375D01*
X847108Y519737D01*
X846974Y520107D01*
X846856Y520481D01*
X846755Y520860D01*
X846670Y521244D01*
X846602Y521631D01*
X846551Y522020D01*
X846517Y522411D01*
X846500Y522804D01*
X846500Y523000D01*
Y535000D01*
X846500Y535000D01*
X846500Y535000D01*
X846494Y535133D01*
X846494Y535193D01*
X846475Y535583D01*
X846475Y535586D01*
X846436Y535976D01*
X846436Y535976D01*
X846379Y536365D01*
X846303Y536750D01*
X846208Y537131D01*
X846094Y537507D01*
X845962Y537877D01*
X845812Y538240D01*
X845644Y538595D01*
X845459Y538941D01*
X845258Y539278D01*
X845040Y539605D01*
X844806Y539920D01*
X844557Y540224D01*
X844294Y540515D01*
X844016Y540793D01*
X843725Y541057D01*
X843422Y541306D01*
X843106Y541540D01*
X842780Y541758D01*
X842443Y541960D01*
X842097Y542145D01*
X841742Y542313D01*
X841379Y542464D01*
X841010Y542596D01*
X840634Y542710D01*
X840253Y542805D01*
X839868Y542882D01*
X839479Y542940D01*
X839089Y542978D01*
X838696Y542998D01*
X838500Y543000D01*
X822000Y543000D01*
X821996Y542996D01*
X821799Y542993D01*
X821408Y542974D01*
X821017Y542936D01*
X820629Y542878D01*
X820244Y542802D01*
X819863Y542706D01*
X819488Y542592D01*
X819118Y542460D01*
X818755Y542310D01*
X818401Y542142D01*
X818055Y541957D01*
X817718Y541755D01*
X817392Y541537D01*
X817076Y541303D01*
X816773Y541054D01*
X816482Y540791D01*
X816205Y540513D01*
X815941Y540223D01*
X815692Y539919D01*
X815459Y539604D01*
X815240Y539278D01*
X815039Y538941D01*
X814854Y538595D01*
X814686Y538240D01*
X814536Y537878D01*
X814404Y537508D01*
X814290Y537133D01*
X814194Y536752D01*
X814118Y536367D01*
X814060Y535979D01*
X814022Y535588D01*
X814002Y535196D01*
X814000Y535000D01*
Y523000D01*
X813996Y522996D01*
X813996Y522799D01*
X813979Y522407D01*
X813944Y522016D01*
X813893Y521627D01*
X813825Y521240D01*
X813740Y520857D01*
X813638Y520478D01*
X813520Y520103D01*
X813386Y519734D01*
X813236Y519372D01*
X813070Y519016D01*
X812889Y518668D01*
X812692Y518328D01*
X812482Y517997D01*
X812256Y517675D01*
X812017Y517364D01*
X811765Y517063D01*
X811500Y516774D01*
X811222Y516496D01*
X810933Y516231D01*
X810632Y515978D01*
X810321Y515739D01*
X809999Y515514D01*
X809668Y515303D01*
X809328Y515107D01*
X808980Y514926D01*
X808624Y514760D01*
X808261Y514610D01*
X807892Y514475D01*
X807518Y514357D01*
X807139Y514256D01*
X806755Y514171D01*
X806369Y514103D01*
X805980Y514051D01*
X805589Y514017D01*
X805196Y514000D01*
X805000Y514000D01*
X804793D01*
X804379Y514018D01*
X803966Y514054D01*
X803555Y514108D01*
X803146Y514180D01*
X802741Y514270D01*
X802341Y514377D01*
X801946Y514502D01*
X801556Y514644D01*
X801173Y514803D01*
X800797Y514978D01*
X800430Y515169D01*
X800070Y515376D01*
X799721Y515599D01*
X799381Y515837D01*
X799052Y516089D01*
X798735Y516356D01*
X798429Y516636D01*
X798136Y516929D01*
X797856Y517235D01*
X797589Y517552D01*
X797337Y517881D01*
X797099Y518221D01*
X796876Y518570D01*
X796669Y518929D01*
X796478Y519297D01*
X796302Y519673D01*
X796144Y520056D01*
X796002Y520446D01*
X795877Y520841D01*
X795770Y521241D01*
X795680Y521646D01*
X795608Y522054D01*
X795554Y522466D01*
X795518Y522878D01*
X795500Y523293D01*
Y553500D01*
X795500Y553500D01*
X795495Y553650D01*
X795495Y553663D01*
X795482Y553993D01*
X795482Y553995D01*
X795457Y554325D01*
X795457Y554326D01*
X795418Y554656D01*
X795367Y554984D01*
X795303Y555309D01*
X795226Y555632D01*
X795136Y555952D01*
X795034Y556267D01*
X794919Y556579D01*
X794792Y556886D01*
X794654Y557187D01*
X794503Y557483D01*
X794341Y557772D01*
X794168Y558055D01*
X793983Y558331D01*
X793788Y558600D01*
X793583Y558861D01*
X793367Y559113D01*
X793141Y559356D01*
X793025Y559475D01*
X784327Y568170D01*
X784327D01*
X783508Y569101D01*
X783455Y569169D01*
X783232Y569476D01*
X783021Y569791D01*
X782823Y570115D01*
X782637Y570446D01*
X782465Y570784D01*
X782307Y571129D01*
X782161Y571479D01*
X782030Y571835D01*
X781913Y572196D01*
X781810Y572561D01*
X781722Y572930D01*
X781648Y573302D01*
X781589Y573676D01*
X781544Y574053D01*
X781515Y574431D01*
X781500Y574810D01*
X781500Y575000D01*
Y590000D01*
X781500D01*
X781500Y590000D01*
X781500Y590000D01*
X781498Y590098D01*
X781483Y590293D01*
X781483Y590294D01*
X781453Y590488D01*
X781453Y590488D01*
X781407Y590679D01*
X781407Y590679D01*
X781347Y590866D01*
X781347Y590866D01*
X781272Y591047D01*
X781183Y591222D01*
X781080Y591390D01*
X780965Y591549D01*
X780837Y591698D01*
X780698Y591837D01*
X780549Y591965D01*
X780390Y592080D01*
X780222Y592183D01*
X780047Y592272D01*
X779866Y592347D01*
X779679Y592407D01*
X779488Y592453D01*
X779294Y592483D01*
X779098Y592498D01*
X779000Y592500D01*
X749704Y592500D01*
X749111Y592519D01*
X748520Y592558D01*
X747930Y592616D01*
X747343Y592694D01*
X746758Y592790D01*
X746177Y592906D01*
X745600Y593040D01*
X745027Y593194D01*
X744460Y593366D01*
X743899Y593556D01*
X743345Y593765D01*
X742797Y593992D01*
X742257Y594236D01*
X741726Y594498D01*
X741203Y594778D01*
X740690Y595074D01*
X740187Y595387D01*
X739694Y595716D01*
X739212Y596061D01*
X738742Y596422D01*
X738284Y596798D01*
X737839Y597189D01*
X737406Y597594D01*
X737197Y597803D01*
X701364Y633636D01*
X701364D01*
X701149Y633851D01*
X700730Y634294D01*
X700324Y634749D01*
X699930Y635215D01*
X699550Y635691D01*
X699184Y636178D01*
X698831Y636675D01*
X698493Y637182D01*
X698168Y637698D01*
X697859Y638223D01*
X697564Y638756D01*
X697284Y639298D01*
X697020Y639847D01*
X696770Y640403D01*
X696537Y640966D01*
X696320Y641536D01*
X696119Y642111D01*
X695934Y642692D01*
X695765Y643278D01*
X695612Y643868D01*
X695477Y644462D01*
X695358Y645060D01*
X695256Y645661D01*
X695171Y646264D01*
X695102Y646870D01*
X695051Y647477D01*
X695017Y648086D01*
X695000Y648695D01*
X695000Y649000D01*
Y739920D01*
X695000Y740194D01*
X695015Y740741D01*
X695046Y741287D01*
X695092Y741832D01*
X695153Y742376D01*
X695230Y742918D01*
X695321Y743457D01*
X695428Y743994D01*
X695550Y744527D01*
X695686Y745057D01*
X695838Y745583D01*
X696004Y746105D01*
X696185Y746621D01*
X696380Y747132D01*
X696589Y747638D01*
X696813Y748137D01*
X697050Y748630D01*
X697301Y749116D01*
X697566Y749595D01*
X697844Y750067D01*
X698135Y750530D01*
X698439Y750985D01*
X698756Y751431D01*
X699085Y751868D01*
X699426Y752296D01*
X699779Y752714D01*
X700144Y753122D01*
X700520Y753520D01*
X700713Y753713D01*
X750100Y803101D01*
X750100D01*
X750100Y803101D01*
X750377Y803381D01*
X750918Y803948D01*
X750920Y803951D01*
X750973Y804009D01*
X751449Y804535D01*
X751964Y805131D01*
X752464Y805740D01*
X752948Y806361D01*
X753417Y806993D01*
X753871Y807637D01*
X754308Y808292D01*
X754730Y808958D01*
X755135Y809633D01*
X755523Y810318D01*
X755894Y811013D01*
X756249Y811717D01*
X756585Y812429D01*
X756905Y813149D01*
X757206Y813876D01*
X757489Y814611D01*
X757755Y815353D01*
X758002Y816101D01*
X758230Y816854D01*
X758440Y817614D01*
X758632Y818378D01*
X758804Y819146D01*
X758958Y819919D01*
X759093Y820695D01*
X759208Y821474D01*
X759305Y822255D01*
X759382Y823039D01*
X759440Y823825D01*
X759478Y824611D01*
X759498Y825399D01*
X759500Y825793D01*
X759500Y855500D01*
X759500Y875500D01*
X759500D01*
X759500Y875500D01*
X759500Y875501D01*
X759498Y875696D01*
X759479Y876087D01*
X759479Y876089D01*
X759441Y876479D01*
X759441Y876480D01*
X759413Y876670D01*
X759383Y876868D01*
X759307Y877253D01*
X759212Y877635D01*
X759098Y878010D01*
X758966Y878380D01*
X758816Y878743D01*
X758648Y879099D01*
X758463Y879445D01*
X758261Y879782D01*
X758043Y880109D01*
X757810Y880424D01*
X757560Y880728D01*
X757297Y881019D01*
X757019Y881297D01*
X756728Y881560D01*
X756424Y881809D01*
X756109Y882043D01*
X755782Y882262D01*
X755445Y882463D01*
X755098Y882648D01*
X754743Y882816D01*
X754380Y882966D01*
X754010Y883098D01*
X753635Y883212D01*
X753253Y883307D01*
X752868Y883383D01*
X752480Y883441D01*
X752089Y883479D01*
X751696Y883498D01*
X751500Y883500D01*
X631998Y883500D01*
X631867Y883500D01*
X631606Y883517D01*
X631347Y883551D01*
X631090Y883602D01*
X630837Y883669D01*
X630589Y883753D01*
X630347Y883853D01*
X630112Y883969D01*
X629885Y884100D01*
X629667Y884245D01*
X629460Y884404D01*
X629263Y884577D01*
X629078Y884762D01*
X628905Y884959D01*
X628745Y885166D01*
X628600Y885384D01*
X628469Y885611D01*
X628354Y885846D01*
X628253Y886088D01*
X628178Y886310D01*
X628000Y887506D01*
X628179Y888702D01*
X628252Y888916D01*
X628352Y889158D01*
X628467Y889393D01*
X628598Y889620D01*
X628744Y889838D01*
X628903Y890046D01*
X629076Y890243D01*
X629262Y890428D01*
X629459Y890600D01*
X629667Y890760D01*
X629885Y890905D01*
X630112Y891035D01*
X630347Y891151D01*
X630589Y891250D01*
X630838Y891334D01*
X631091Y891401D01*
X631348Y891451D01*
X631608Y891484D01*
X631869Y891500D01*
X632000Y891500D01*
X739500Y891500D01*
X739696Y891502D01*
X740087Y891521D01*
X740089Y891521D01*
X740479Y891559D01*
X740480Y891559D01*
X740868Y891616D01*
X741254Y891692D01*
X741635Y891787D01*
X742011Y891901D01*
X742381Y892033D01*
X742744Y892183D01*
X743099Y892350D01*
X743446Y892535D01*
X743783Y892737D01*
X744110Y892955D01*
X744425Y893189D01*
X744729Y893438D01*
X745020Y893702D01*
X745298Y893980D01*
X745562Y894271D01*
X745811Y894575D01*
X746045Y894890D01*
X746263Y895217D01*
X746464Y895554D01*
X746649Y895901D01*
X746817Y896256D01*
X746967Y896619D01*
X747099Y896989D01*
X747213Y897365D01*
X747308Y897746D01*
X747384Y898131D01*
X747441Y898520D01*
X747479Y898911D01*
X747498Y899304D01*
X747500Y899500D01*
X747500Y945004D01*
X747500Y945004D01*
X747551Y946253D01*
X747554Y946297D01*
X747610Y946812D01*
X747683Y947324D01*
X747775Y947834D01*
X747885Y948340D01*
X748012Y948841D01*
X748158Y949338D01*
X748321Y949829D01*
X748502Y950315D01*
X748700Y950793D01*
X748915Y951264D01*
X749147Y951727D01*
X749395Y952182D01*
X749659Y952627D01*
X749939Y953063D01*
X750234Y953488D01*
X750544Y953902D01*
X750869Y954305D01*
X751208Y954697D01*
X751561Y955076D01*
X751927Y955442D01*
X752306Y955794D01*
X752698Y956133D01*
X753101Y956458D01*
X753515Y956768D01*
X753941Y957063D01*
X754377Y957343D01*
X754822Y957607D01*
X755276Y957855D01*
X755740Y958087D01*
X756211Y958301D01*
X756689Y958499D01*
X757174Y958680D01*
X757666Y958843D01*
X758163Y958989D01*
X758664Y959116D01*
X759170Y959226D01*
X759680Y959318D01*
X760192Y959391D01*
X760707Y959446D01*
X761224Y959482D01*
X761741Y959500D01*
X762000Y959500D01*
D02*
G37*
G36*
X905922Y889505D02*
X906122Y889344D01*
X906329Y889203D01*
X906543Y889080D01*
X906764Y888977D01*
X906992Y888893D01*
X907227Y888829D01*
X907468Y888783D01*
X907717Y888757D01*
X907972Y888750D01*
X905250Y886028D01*
X905243Y886283D01*
X905217Y886532D01*
X905171Y886773D01*
X905107Y887008D01*
X905023Y887236D01*
X904920Y887457D01*
X904797Y887671D01*
X904656Y887878D01*
X904495Y888078D01*
X904315Y888271D01*
X905729Y889685D01*
X905922Y889505D01*
D02*
G37*
G36*
X1015422Y889505D02*
X1015622Y889344D01*
X1015829Y889203D01*
X1016043Y889080D01*
X1016264Y888977D01*
X1016492Y888893D01*
X1016727Y888829D01*
X1016968Y888783D01*
X1017217Y888757D01*
X1017473Y888750D01*
X1014750Y886028D01*
X1014743Y886283D01*
X1014717Y886532D01*
X1014671Y886773D01*
X1014607Y887008D01*
X1014523Y887236D01*
X1014420Y887457D01*
X1014297Y887671D01*
X1014156Y887878D01*
X1013995Y888078D01*
X1013815Y888271D01*
X1015229Y889685D01*
X1015422Y889505D01*
D02*
G37*
G36*
X979150Y871749D02*
X979344Y871592D01*
X979547Y871453D01*
X979759Y871333D01*
X979979Y871231D01*
X980208Y871148D01*
X980446Y871083D01*
X980693Y871037D01*
X980948Y871009D01*
X981212Y871000D01*
Y869000D01*
X980948Y868991D01*
X980693Y868963D01*
X980446Y868917D01*
X980208Y868852D01*
X979979Y868769D01*
X979759Y868667D01*
X979547Y868547D01*
X979344Y868408D01*
X979150Y868251D01*
X978964Y868075D01*
Y871925D01*
X979150Y871749D01*
D02*
G37*
G36*
X960009Y860948D02*
X960037Y860693D01*
X960083Y860446D01*
X960148Y860208D01*
X960231Y859979D01*
X960333Y859759D01*
X960453Y859547D01*
X960592Y859344D01*
X960749Y859150D01*
X960925Y858964D01*
X957075D01*
X957251Y859150D01*
X957408Y859344D01*
X957547Y859547D01*
X957667Y859759D01*
X957769Y859979D01*
X957852Y860208D01*
X957917Y860446D01*
X957963Y860693D01*
X957991Y860948D01*
X958000Y861212D01*
X960000D01*
X960009Y860948D01*
D02*
G37*
G36*
X979150Y862249D02*
X979344Y862092D01*
X979547Y861953D01*
X979759Y861833D01*
X979979Y861731D01*
X980208Y861648D01*
X980446Y861583D01*
X980693Y861537D01*
X980948Y861509D01*
X981212Y861500D01*
Y859500D01*
X980948Y859491D01*
X980693Y859463D01*
X980446Y859417D01*
X980208Y859352D01*
X979979Y859269D01*
X979759Y859167D01*
X979547Y859047D01*
X979344Y858908D01*
X979150Y858751D01*
X978964Y858575D01*
Y862425D01*
X979150Y862249D01*
D02*
G37*
G36*
X622922Y858505D02*
X623122Y858344D01*
X623329Y858203D01*
X623543Y858080D01*
X623764Y857977D01*
X623992Y857893D01*
X624227Y857829D01*
X624468Y857783D01*
X624717Y857757D01*
X624972Y857750D01*
X622250Y855027D01*
X622243Y855283D01*
X622217Y855532D01*
X622171Y855773D01*
X622107Y856008D01*
X622023Y856236D01*
X621920Y856457D01*
X621797Y856671D01*
X621656Y856878D01*
X621495Y857078D01*
X621315Y857271D01*
X622729Y858685D01*
X622922Y858505D01*
D02*
G37*
G36*
X963185Y849771D02*
X963005Y849578D01*
X962844Y849378D01*
X962703Y849171D01*
X962580Y848957D01*
X962477Y848736D01*
X962393Y848508D01*
X962329Y848273D01*
X962283Y848032D01*
X962257Y847783D01*
X962250Y847527D01*
X959528Y850250D01*
X959783Y850257D01*
X960032Y850283D01*
X960273Y850329D01*
X960508Y850393D01*
X960736Y850477D01*
X960957Y850580D01*
X961171Y850703D01*
X961378Y850844D01*
X961578Y851005D01*
X961771Y851185D01*
X963185Y849771D01*
D02*
G37*
G36*
X1017036Y844075D02*
X1016987Y844108D01*
X1016909Y844138D01*
X1016801Y844164D01*
X1016665Y844187D01*
X1016303Y844222D01*
X1015825Y844243D01*
X1015229Y844250D01*
Y847750D01*
X1015541Y847752D01*
X1016801Y847836D01*
X1016909Y847862D01*
X1016987Y847892D01*
X1017036Y847925D01*
Y844075D01*
D02*
G37*
G36*
X912727Y842766D02*
X912542Y842942D01*
X912347Y843099D01*
X912144Y843238D01*
X911933Y843358D01*
X911712Y843460D01*
X911483Y843543D01*
X911245Y843608D01*
X910999Y843654D01*
X910743Y843682D01*
X910480Y843691D01*
Y845691D01*
X910743Y845701D01*
X910999Y845728D01*
X911245Y845775D01*
X911483Y845839D01*
X911712Y845922D01*
X911933Y846024D01*
X912144Y846144D01*
X912347Y846283D01*
X912542Y846441D01*
X912727Y846616D01*
Y842766D01*
D02*
G37*
G36*
X731749Y817850D02*
X731592Y817656D01*
X731453Y817453D01*
X731333Y817241D01*
X731231Y817021D01*
X731148Y816792D01*
X731083Y816554D01*
X731037Y816307D01*
X731009Y816052D01*
X731000Y815788D01*
X729000D01*
X728991Y816052D01*
X728963Y816307D01*
X728917Y816554D01*
X728852Y816792D01*
X728769Y817021D01*
X728667Y817241D01*
X728547Y817453D01*
X728408Y817656D01*
X728251Y817850D01*
X728075Y818036D01*
X731925D01*
X731749Y817850D01*
D02*
G37*
G36*
X945036Y815075D02*
X944850Y815251D01*
X944656Y815408D01*
X944453Y815547D01*
X944241Y815667D01*
X944021Y815769D01*
X943792Y815852D01*
X943554Y815917D01*
X943307Y815963D01*
X943052Y815991D01*
X942788Y816000D01*
Y818000D01*
X943052Y818009D01*
X943307Y818037D01*
X943554Y818083D01*
X943792Y818148D01*
X944021Y818231D01*
X944241Y818333D01*
X944453Y818453D01*
X944656Y818592D01*
X944850Y818749D01*
X945036Y818925D01*
Y815075D01*
D02*
G37*
G36*
X953879Y808253D02*
X953625Y808254D01*
X953378Y808235D01*
X953137Y808196D01*
X952903Y808136D01*
X952675Y808057D01*
X952455Y807957D01*
X952241Y807837D01*
X952033Y807697D01*
X951833Y807537D01*
X951639Y807356D01*
X950276Y808822D01*
X950456Y809014D01*
X950617Y809214D01*
X950760Y809420D01*
X950885Y809634D01*
X950992Y809855D01*
X951080Y810083D01*
X951150Y810318D01*
X951202Y810560D01*
X951236Y810809D01*
X951251Y811066D01*
X953879Y808253D01*
D02*
G37*
G36*
X605000Y897500D02*
X605000Y897500D01*
X605000D01*
X606172Y897446D01*
X606184Y897445D01*
X606655Y897390D01*
X607123Y897316D01*
X607588Y897224D01*
X608049Y897113D01*
X608506Y896985D01*
X608956Y896839D01*
X609401Y896674D01*
X609839Y896493D01*
X610270Y896294D01*
X610692Y896079D01*
X611106Y895847D01*
X611510Y895599D01*
X611904Y895336D01*
X612288Y895057D01*
X612660Y894763D01*
X613020Y894454D01*
X613368Y894132D01*
X613535Y893964D01*
X635373Y872127D01*
Y872127D01*
X635500Y872003D01*
X635764Y871763D01*
X636040Y871537D01*
X636326Y871325D01*
X636623Y871127D01*
X636928Y870943D01*
X637243Y870775D01*
X637565Y870623D01*
X637894Y870486D01*
X638230Y870366D01*
X638571Y870263D01*
X638917Y870176D01*
X639267Y870107D01*
X639619Y870054D01*
X639974Y870020D01*
X640330Y870002D01*
X640508Y870000D01*
X649671D01*
X649671Y870000D01*
X649839Y870002D01*
X650172Y870018D01*
X650174Y870018D01*
X650507Y870051D01*
X650508Y870051D01*
X650839Y870099D01*
X650839Y870099D01*
X650896Y870111D01*
X651168Y870165D01*
X651493Y870246D01*
X651814Y870343D01*
X652130Y870456D01*
X652439Y870584D01*
X652742Y870728D01*
X653038Y870886D01*
X653325Y871058D01*
X653604Y871245D01*
X653873Y871445D01*
X654132Y871657D01*
X654380Y871883D01*
X654500Y872000D01*
X660607Y878107D01*
X660607Y878107D01*
X660607Y878107D01*
X661507Y878860D01*
X661717Y879000D01*
X661989Y879164D01*
X662269Y879314D01*
X662556Y879449D01*
X662849Y879571D01*
X663148Y879678D01*
X663452Y879770D01*
X663760Y879847D01*
X664072Y879908D01*
X664386Y879955D01*
X664701Y879985D01*
X665018Y880000D01*
X665177Y880000D01*
X685050Y880000D01*
X685050Y880000D01*
X685050Y880000D01*
X685291Y879989D01*
X686223Y879945D01*
X686688Y879890D01*
X687151Y879817D01*
X687612Y879725D01*
X688068Y879616D01*
X688520Y879488D01*
X688966Y879343D01*
X689407Y879181D01*
X689840Y879001D01*
X690266Y878805D01*
X690685Y878592D01*
X691094Y878362D01*
X691494Y878117D01*
X691885Y877856D01*
X692264Y877580D01*
X692633Y877290D01*
X692990Y876985D01*
X693334Y876666D01*
X693500Y876500D01*
X713964Y856036D01*
X713964Y856036D01*
X714132Y855868D01*
X714454Y855520D01*
X714762Y855159D01*
X715055Y854787D01*
X715334Y854404D01*
X715598Y854009D01*
X715845Y853605D01*
X716077Y853192D01*
X716292Y852769D01*
X716491Y852339D01*
X716672Y851901D01*
X716836Y851456D01*
X716983Y851005D01*
X717112Y850549D01*
X717222Y850088D01*
X717315Y849623D01*
X717389Y849154D01*
X717444Y848684D01*
X717481Y848211D01*
X717500Y847737D01*
X717500Y847500D01*
X717500Y808500D01*
X717500Y808500D01*
X717500Y808263D01*
X717485Y807789D01*
X717454Y807316D01*
X717407Y806844D01*
X717345Y806374D01*
X717268Y805906D01*
X717176Y805442D01*
X717068Y804980D01*
X716945Y804522D01*
X716808Y804068D01*
X716655Y803619D01*
X716488Y803176D01*
X716307Y802738D01*
X716111Y802306D01*
X715902Y801880D01*
X715678Y801462D01*
X715441Y801052D01*
X715191Y800649D01*
X714927Y800255D01*
X714651Y799870D01*
X714362Y799494D01*
X714062Y799127D01*
X713749Y798771D01*
X713425Y798425D01*
X713257Y798257D01*
X692147Y777147D01*
X692021Y777018D01*
X691779Y776751D01*
X691551Y776473D01*
X691337Y776184D01*
X691137Y775885D01*
X690952Y775577D01*
X690782Y775259D01*
X690629Y774934D01*
X690491Y774602D01*
X690370Y774263D01*
X690265Y773919D01*
X690178Y773570D01*
X690108Y773217D01*
X690055Y772861D01*
X690020Y772504D01*
X690002Y772144D01*
X690000Y771964D01*
Y767500D01*
X690000Y767500D01*
X690000Y767332D01*
X689981Y766995D01*
X689943Y766661D01*
X689887Y766329D01*
X689812Y766001D01*
X689719Y765677D01*
X689608Y765359D01*
X689479Y765048D01*
X689333Y764745D01*
X689170Y764450D01*
X688991Y764165D01*
X688796Y763891D01*
X688586Y763627D01*
X688362Y763376D01*
X688124Y763138D01*
X687872Y762914D01*
X687609Y762704D01*
X687335Y762509D01*
X687050Y762330D01*
X686755Y762167D01*
X686452Y762021D01*
X686141Y761892D01*
X685823Y761781D01*
X685499Y761688D01*
X685171Y761613D01*
X684839Y761557D01*
X684504Y761519D01*
X684168Y761500D01*
X684000Y761500D01*
X670000D01*
X669832Y761500D01*
X669495Y761519D01*
X669161Y761556D01*
X668829Y761613D01*
X668501Y761688D01*
X668177Y761781D01*
X667859Y761892D01*
X667548Y762021D01*
X667245Y762167D01*
X666950Y762330D01*
X666665Y762509D01*
X666391Y762704D01*
X666127Y762914D01*
X665876Y763138D01*
X665638Y763376D01*
X665414Y763627D01*
X665204Y763891D01*
X665009Y764165D01*
X664830Y764450D01*
X664667Y764745D01*
X664521Y765048D01*
X664392Y765359D01*
X664281Y765677D01*
X664188Y766001D01*
X664113Y766329D01*
X664056Y766661D01*
X664019Y766995D01*
X664000Y767332D01*
X664000Y767500D01*
X664000Y782379D01*
X664000D01*
X664000Y782504D01*
X664012Y782756D01*
X664037Y783006D01*
X664074Y783254D01*
X664123Y783501D01*
X664184Y783745D01*
X664257Y783986D01*
X664342Y784222D01*
X664438Y784455D01*
X664545Y784682D01*
X664664Y784904D01*
X664793Y785119D01*
X664933Y785329D01*
X665083Y785530D01*
X665242Y785725D01*
X665411Y785911D01*
X681086Y801586D01*
X681086Y801586D01*
X681086Y801586D01*
X681087Y801586D01*
X682030Y802320D01*
X682119Y802374D01*
X682328Y802486D01*
X682543Y802587D01*
X682762Y802678D01*
X682985Y802758D01*
X683212Y802827D01*
X683442Y802884D01*
X683674Y802930D01*
X683909Y802965D01*
X684145Y802988D01*
X684381Y803000D01*
X684500Y803000D01*
X694000Y803000D01*
X694000Y803000D01*
X694002Y803000D01*
X694140Y803002D01*
X694415Y803017D01*
X694420Y803018D01*
X694697Y803049D01*
X694699Y803049D01*
X694975Y803096D01*
X694976Y803096D01*
X695249Y803158D01*
X695518Y803236D01*
X695783Y803328D01*
X696042Y803436D01*
X696295Y803558D01*
X696541Y803693D01*
X696778Y803842D01*
X697007Y804005D01*
X697226Y804180D01*
X697435Y804366D01*
X697634Y804565D01*
X697820Y804774D01*
X697995Y804993D01*
X698158Y805222D01*
X698307Y805459D01*
X698442Y805705D01*
X698564Y805958D01*
X698671Y806217D01*
X698764Y806481D01*
X698842Y806751D01*
X698904Y807024D01*
X698951Y807301D01*
X698982Y807580D01*
X698998Y807860D01*
X699000Y808000D01*
Y841500D01*
X699000D01*
X699000Y841500D01*
X699000Y841503D01*
X698998Y841672D01*
X698981Y842013D01*
X698981Y842015D01*
X698948Y842356D01*
X698947Y842357D01*
X698897Y842696D01*
X698897Y842697D01*
X698896Y842702D01*
X698830Y843034D01*
X698747Y843367D01*
X698647Y843696D01*
X698531Y844019D01*
X698400Y844337D01*
X698253Y844647D01*
X698091Y844950D01*
X697914Y845245D01*
X697723Y845530D01*
X697519Y845806D01*
X697301Y846072D01*
X697070Y846326D01*
X696950Y846449D01*
X683349Y860050D01*
X683349Y860050D01*
X683349Y860050D01*
X683347Y860052D01*
X683202Y860194D01*
X682900Y860468D01*
X682898Y860469D01*
X682581Y860729D01*
X682581Y860730D01*
X682426Y860844D01*
X682251Y860975D01*
X681910Y861203D01*
X681558Y861414D01*
X681196Y861607D01*
X680825Y861783D01*
X680445Y861940D01*
X680059Y862078D01*
X679666Y862197D01*
X679268Y862297D01*
X678865Y862377D01*
X678459Y862437D01*
X678050Y862477D01*
X677640Y862497D01*
X677435Y862500D01*
X639763Y862500D01*
X639289Y862519D01*
X638816Y862556D01*
X638346Y862611D01*
X637878Y862686D01*
X637412Y862778D01*
X636951Y862889D01*
X636495Y863018D01*
X636044Y863164D01*
X635600Y863328D01*
X635162Y863510D01*
X634731Y863708D01*
X634309Y863923D01*
X633895Y864155D01*
X633491Y864403D01*
X633097Y864666D01*
X632713Y864945D01*
X632341Y865238D01*
X631980Y865546D01*
X631632Y865868D01*
X608414Y889086D01*
X608414Y889086D01*
X608329Y889169D01*
X608154Y889328D01*
X607971Y889479D01*
X607781Y889620D01*
X607584Y889752D01*
X607381Y889874D01*
X607172Y889986D01*
X606957Y890087D01*
X606738Y890178D01*
X606515Y890258D01*
X606288Y890327D01*
X606058Y890384D01*
X605826Y890430D01*
X605591Y890464D01*
X605355Y890487D01*
X605118Y890499D01*
X605000Y890500D01*
X596000Y890500D01*
X595885Y890500D01*
X595657Y890515D01*
X595429Y890545D01*
X595205Y890590D01*
X594983Y890649D01*
X594766Y890723D01*
X594555Y890810D01*
X594349Y890912D01*
X594151Y891026D01*
X593960Y891153D01*
X593778Y891293D01*
X593606Y891444D01*
X593444Y891606D01*
X593293Y891778D01*
X593153Y891960D01*
X593026Y892151D01*
X592912Y892349D01*
X592810Y892555D01*
X592723Y892766D01*
X592649Y892983D01*
X592590Y893205D01*
X592545Y893429D01*
X592515Y893657D01*
X592500Y893885D01*
X592500Y894125D01*
X592518Y894376D01*
X592554Y894624D01*
X592607Y894869D01*
X592678Y895109D01*
X592766Y895344D01*
X592870Y895572D01*
X592991Y895792D01*
X593127Y896003D01*
X593278Y896203D01*
X593442Y896392D01*
X593620Y896569D01*
X593810Y896733D01*
X594011Y896883D01*
X594222Y897018D01*
X594443Y897137D01*
X594672Y897241D01*
X594907Y897327D01*
X595148Y897397D01*
X595393Y897449D01*
X595517Y897467D01*
X595530Y897479D01*
X595546Y897496D01*
X595550Y897500D01*
X605000Y897500D01*
X605000Y897500D01*
D02*
G37*
G36*
X945036Y798075D02*
X944850Y798251D01*
X944656Y798408D01*
X944453Y798547D01*
X944241Y798667D01*
X944021Y798769D01*
X943792Y798852D01*
X943554Y798917D01*
X943307Y798963D01*
X943052Y798991D01*
X942788Y799000D01*
Y801000D01*
X943052Y801009D01*
X943307Y801037D01*
X943554Y801083D01*
X943792Y801148D01*
X944021Y801231D01*
X944241Y801333D01*
X944453Y801453D01*
X944656Y801592D01*
X944850Y801749D01*
X945036Y801925D01*
Y798075D01*
D02*
G37*
G36*
X878036D02*
X877850Y798251D01*
X877656Y798408D01*
X877453Y798547D01*
X877241Y798667D01*
X877021Y798769D01*
X876792Y798852D01*
X876554Y798917D01*
X876307Y798963D01*
X876052Y798991D01*
X875788Y799000D01*
Y801000D01*
X876052Y801009D01*
X876307Y801037D01*
X876554Y801083D01*
X876792Y801148D01*
X877021Y801231D01*
X877241Y801333D01*
X877453Y801453D01*
X877656Y801592D01*
X877850Y801749D01*
X878036Y801925D01*
Y798075D01*
D02*
G37*
G36*
Y788075D02*
X877850Y788251D01*
X877656Y788408D01*
X877453Y788547D01*
X877241Y788667D01*
X877021Y788769D01*
X876792Y788852D01*
X876554Y788917D01*
X876307Y788963D01*
X876052Y788991D01*
X875788Y789000D01*
Y791000D01*
X876052Y791009D01*
X876307Y791037D01*
X876554Y791083D01*
X876792Y791148D01*
X877021Y791231D01*
X877241Y791333D01*
X877453Y791453D01*
X877656Y791592D01*
X877850Y791749D01*
X878036Y791925D01*
Y788075D01*
D02*
G37*
G36*
X1135509Y788948D02*
X1135537Y788693D01*
X1135583Y788446D01*
X1135648Y788208D01*
X1135731Y787979D01*
X1135833Y787759D01*
X1135953Y787547D01*
X1136092Y787344D01*
X1136249Y787150D01*
X1136425Y786964D01*
X1132575D01*
X1132751Y787150D01*
X1132908Y787344D01*
X1133047Y787547D01*
X1133167Y787759D01*
X1133269Y787979D01*
X1133352Y788208D01*
X1133417Y788446D01*
X1133463Y788693D01*
X1133491Y788948D01*
X1133500Y789212D01*
X1135500D01*
X1135509Y788948D01*
D02*
G37*
G36*
X878036Y778075D02*
X877850Y778251D01*
X877656Y778408D01*
X877453Y778547D01*
X877241Y778667D01*
X877021Y778769D01*
X876792Y778852D01*
X876554Y778917D01*
X876307Y778963D01*
X876052Y778991D01*
X875788Y779000D01*
Y781000D01*
X876052Y781009D01*
X876307Y781037D01*
X876554Y781083D01*
X876792Y781148D01*
X877021Y781231D01*
X877241Y781333D01*
X877453Y781453D01*
X877656Y781592D01*
X877850Y781749D01*
X878036Y781925D01*
Y778075D01*
D02*
G37*
G36*
Y768075D02*
X877850Y768251D01*
X877656Y768408D01*
X877453Y768547D01*
X877241Y768667D01*
X877021Y768769D01*
X876792Y768852D01*
X876554Y768917D01*
X876307Y768963D01*
X876052Y768991D01*
X875788Y769000D01*
Y771000D01*
X876052Y771009D01*
X876307Y771037D01*
X876554Y771083D01*
X876792Y771148D01*
X877021Y771231D01*
X877241Y771333D01*
X877453Y771453D01*
X877656Y771592D01*
X877850Y771749D01*
X878036Y771925D01*
Y768075D01*
D02*
G37*
G36*
Y758075D02*
X877850Y758251D01*
X877656Y758408D01*
X877453Y758547D01*
X877241Y758667D01*
X877021Y758769D01*
X876792Y758852D01*
X876554Y758917D01*
X876307Y758963D01*
X876052Y758991D01*
X875788Y759000D01*
Y761000D01*
X876052Y761009D01*
X876307Y761037D01*
X876554Y761083D01*
X876792Y761148D01*
X877021Y761231D01*
X877241Y761333D01*
X877453Y761453D01*
X877656Y761592D01*
X877850Y761749D01*
X878036Y761925D01*
Y758075D01*
D02*
G37*
G36*
X844319Y744249D02*
X844513Y744092D01*
X844716Y743953D01*
X844928Y743833D01*
X845148Y743731D01*
X845377Y743648D01*
X845615Y743583D01*
X845862Y743537D01*
X846117Y743509D01*
X846381Y743500D01*
Y741500D01*
X846117Y741491D01*
X845862Y741463D01*
X845615Y741417D01*
X845377Y741352D01*
X845148Y741269D01*
X844928Y741167D01*
X844716Y741047D01*
X844513Y740908D01*
X844319Y740751D01*
X844133Y740575D01*
Y744425D01*
X844319Y744249D01*
D02*
G37*
G36*
X969749Y739850D02*
X969592Y739656D01*
X969453Y739453D01*
X969333Y739241D01*
X969231Y739021D01*
X969148Y738792D01*
X969083Y738554D01*
X969037Y738307D01*
X969009Y738052D01*
X969000Y737788D01*
X967000D01*
X966991Y738052D01*
X966963Y738307D01*
X966917Y738554D01*
X966852Y738792D01*
X966769Y739021D01*
X966667Y739241D01*
X966547Y739453D01*
X966408Y739656D01*
X966251Y739850D01*
X966075Y740036D01*
X969925D01*
X969749Y739850D01*
D02*
G37*
G36*
X946728Y735969D02*
X946928Y735808D01*
X947135Y735667D01*
X947349Y735544D01*
X947570Y735441D01*
X947797Y735357D01*
X948032Y735293D01*
X948274Y735247D01*
X948522Y735221D01*
X948778Y735214D01*
X946056Y732491D01*
X946049Y732747D01*
X946022Y732996D01*
X945977Y733237D01*
X945912Y733472D01*
X945828Y733700D01*
X945725Y733921D01*
X945603Y734135D01*
X945461Y734342D01*
X945300Y734542D01*
X945120Y734735D01*
X946535Y736149D01*
X946728Y735969D01*
D02*
G37*
G36*
X888330Y730315D02*
X888173Y730120D01*
X888034Y729917D01*
X887914Y729706D01*
X887812Y729485D01*
X887729Y729256D01*
X887664Y729018D01*
X887618Y728772D01*
X887590Y728516D01*
X887580Y728252D01*
X885581D01*
X885571Y728516D01*
X885544Y728772D01*
X885497Y729018D01*
X885433Y729256D01*
X885349Y729485D01*
X885248Y729706D01*
X885127Y729917D01*
X884989Y730120D01*
X884831Y730315D01*
X884656Y730500D01*
X888505D01*
X888330Y730315D01*
D02*
G37*
G36*
X681922Y726505D02*
X682122Y726344D01*
X682329Y726203D01*
X682543Y726080D01*
X682764Y725977D01*
X682992Y725893D01*
X683227Y725829D01*
X683468Y725783D01*
X683717Y725757D01*
X683972Y725750D01*
X681250Y723027D01*
X681243Y723283D01*
X681217Y723532D01*
X681171Y723773D01*
X681107Y724008D01*
X681023Y724236D01*
X680920Y724457D01*
X680797Y724671D01*
X680656Y724878D01*
X680495Y725078D01*
X680315Y725271D01*
X681729Y726685D01*
X681922Y726505D01*
D02*
G37*
G36*
X915729Y714983D02*
X915543Y715158D01*
X915349Y715316D01*
X915146Y715454D01*
X914934Y715575D01*
X914714Y715676D01*
X914485Y715760D01*
X914247Y715824D01*
X914000Y715871D01*
X913745Y715898D01*
X913481Y715908D01*
Y717908D01*
X913745Y717917D01*
X914000Y717945D01*
X914247Y717991D01*
X914485Y718056D01*
X914714Y718139D01*
X914934Y718241D01*
X915146Y718361D01*
X915349Y718500D01*
X915543Y718657D01*
X915729Y718832D01*
Y714983D01*
D02*
G37*
G36*
X935399Y718657D02*
X935593Y718500D01*
X935796Y718361D01*
X936008Y718240D01*
X936228Y718139D01*
X936458Y718055D01*
X936695Y717991D01*
X936942Y717944D01*
X937197Y717917D01*
X937461Y717907D01*
Y715908D01*
X937197Y715898D01*
X936942Y715871D01*
X936695Y715824D01*
X936458Y715760D01*
X936228Y715676D01*
X936008Y715574D01*
X935796Y715454D01*
X935593Y715315D01*
X935399Y715158D01*
X935213Y714983D01*
Y718832D01*
X935399Y718657D01*
D02*
G37*
G36*
X931593Y714712D02*
X931382Y714862D01*
X931165Y714995D01*
X930943Y715114D01*
X930715Y715216D01*
X930482Y715302D01*
X930244Y715373D01*
X930001Y715428D01*
X929751Y715468D01*
X929497Y715491D01*
X929237Y715499D01*
X928914Y717499D01*
X929181Y717509D01*
X929436Y717540D01*
X929678Y717591D01*
X929908Y717662D01*
X930125Y717754D01*
X930330Y717867D01*
X930521Y717999D01*
X930701Y718152D01*
X930867Y718326D01*
X931021Y718520D01*
X931593Y714712D01*
D02*
G37*
G36*
X876525Y707636D02*
X876345Y707444D01*
X876184Y707244D01*
X876042Y707037D01*
X875919Y706823D01*
X875816Y706602D01*
X875731Y706374D01*
X875665Y706139D01*
X875618Y705897D01*
X875590Y705648D01*
X875581Y705393D01*
X872880Y708137D01*
X873135Y708142D01*
X873384Y708166D01*
X873625Y708210D01*
X873860Y708274D01*
X874088Y708357D01*
X874309Y708459D01*
X874523Y708581D01*
X874730Y708722D01*
X874930Y708883D01*
X875123Y709063D01*
X876525Y707636D01*
D02*
G37*
G36*
X781337Y704365D02*
X781157Y704172D01*
X780996Y703971D01*
X780854Y703764D01*
X780732Y703550D01*
X780629Y703330D01*
X780545Y703102D01*
X780480Y702867D01*
X780435Y702625D01*
X780408Y702377D01*
X780401Y702121D01*
X777679Y704843D01*
X777935Y704850D01*
X778183Y704877D01*
X778425Y704922D01*
X778660Y704987D01*
X778887Y705071D01*
X779108Y705174D01*
X779322Y705296D01*
X779529Y705438D01*
X779729Y705599D01*
X779922Y705779D01*
X781337Y704365D01*
D02*
G37*
G36*
X872825Y702637D02*
X872569Y702628D01*
X872320Y702600D01*
X872079Y702553D01*
X871844Y702487D01*
X871616Y702402D01*
X871395Y702298D01*
X871181Y702175D01*
X870974Y702033D01*
X870774Y701872D01*
X870581Y701693D01*
X869155Y703095D01*
X869335Y703288D01*
X869496Y703488D01*
X869637Y703695D01*
X869759Y703909D01*
X869861Y704130D01*
X869944Y704358D01*
X870008Y704593D01*
X870051Y704834D01*
X870076Y705082D01*
X870081Y705338D01*
X872825Y702637D01*
D02*
G37*
G36*
X837834Y704857D02*
X838034Y704696D01*
X838241Y704554D01*
X838455Y704432D01*
X838676Y704329D01*
X838904Y704245D01*
X839138Y704180D01*
X839380Y704135D01*
X839629Y704109D01*
X839884Y704101D01*
X837162Y701379D01*
X837155Y701635D01*
X837129Y701883D01*
X837083Y702125D01*
X837018Y702360D01*
X836934Y702588D01*
X836831Y702809D01*
X836709Y703023D01*
X836567Y703230D01*
X836406Y703430D01*
X836226Y703623D01*
X837641Y705037D01*
X837834Y704857D01*
D02*
G37*
G36*
X842061Y703101D02*
X842256Y702944D01*
X842459Y702805D01*
X842670Y702685D01*
X842891Y702583D01*
X843120Y702500D01*
X843358Y702435D01*
X843604Y702389D01*
X843859Y702361D01*
X844123Y702352D01*
Y700352D01*
X843859Y700342D01*
X843604Y700315D01*
X843358Y700268D01*
X843120Y700204D01*
X842891Y700120D01*
X842670Y700019D01*
X842459Y699898D01*
X842256Y699760D01*
X842061Y699602D01*
X841876Y699427D01*
Y703277D01*
X842061Y703101D01*
D02*
G37*
G36*
X900173Y699426D02*
X899987Y699602D01*
X899793Y699759D01*
X899590Y699898D01*
X899378Y700018D01*
X899157Y700120D01*
X898928Y700203D01*
X898690Y700268D01*
X898444Y700314D01*
X898189Y700342D01*
X897925Y700351D01*
Y702351D01*
X898189Y702360D01*
X898444Y702388D01*
X898690Y702434D01*
X898928Y702499D01*
X899157Y702582D01*
X899378Y702684D01*
X899590Y702804D01*
X899793Y702943D01*
X899987Y703100D01*
X900173Y703276D01*
Y699426D01*
D02*
G37*
G36*
X931285Y699426D02*
X931099Y699602D01*
X930905Y699759D01*
X930702Y699898D01*
X930490Y700018D01*
X930270Y700120D01*
X930041Y700203D01*
X929803Y700268D01*
X929556Y700314D01*
X929301Y700342D01*
X929037Y700351D01*
Y702351D01*
X929301Y702360D01*
X929556Y702388D01*
X929803Y702434D01*
X930041Y702499D01*
X930270Y702582D01*
X930490Y702684D01*
X930702Y702804D01*
X930905Y702943D01*
X931099Y703100D01*
X931285Y703276D01*
Y699426D01*
D02*
G37*
G36*
X904893Y701068D02*
X904920Y700819D01*
X904965Y700578D01*
X905030Y700343D01*
X905114Y700115D01*
X905217Y699894D01*
X905339Y699680D01*
X905481Y699473D01*
X905642Y699273D01*
X905822Y699080D01*
X904408Y697666D01*
X904214Y697846D01*
X904014Y698007D01*
X903807Y698148D01*
X903593Y698271D01*
X903373Y698374D01*
X903145Y698458D01*
X902910Y698523D01*
X902668Y698568D01*
X902420Y698594D01*
X902164Y698601D01*
X904886Y701324D01*
X904893Y701068D01*
D02*
G37*
G36*
X936006Y701068D02*
X936032Y700819D01*
X936078Y700578D01*
X936142Y700343D01*
X936226Y700115D01*
X936329Y699894D01*
X936452Y699680D01*
X936593Y699473D01*
X936754Y699273D01*
X936934Y699080D01*
X935520Y697666D01*
X935327Y697846D01*
X935127Y698007D01*
X934920Y698148D01*
X934706Y698271D01*
X934485Y698374D01*
X934257Y698458D01*
X934022Y698522D01*
X933781Y698568D01*
X933532Y698594D01*
X933277Y698601D01*
X935999Y701323D01*
X936006Y701068D01*
D02*
G37*
G36*
X794992Y699202D02*
X794835Y699008D01*
X794696Y698805D01*
X794576Y698593D01*
X794474Y698372D01*
X794391Y698143D01*
X794326Y697906D01*
X794280Y697659D01*
X794252Y697404D01*
X794243Y697140D01*
X792243D01*
X792233Y697404D01*
X792206Y697659D01*
X792159Y697906D01*
X792095Y698143D01*
X792011Y698372D01*
X791910Y698593D01*
X791789Y698805D01*
X791651Y699008D01*
X791493Y699202D01*
X791318Y699388D01*
X795168D01*
X794992Y699202D01*
D02*
G37*
G36*
X873174Y695322D02*
X873368Y695165D01*
X873571Y695026D01*
X873783Y694906D01*
X874003Y694805D01*
X874232Y694721D01*
X874470Y694657D01*
X874717Y694610D01*
X874972Y694583D01*
X875236Y694573D01*
Y692573D01*
X874972Y692564D01*
X874717Y692536D01*
X874470Y692490D01*
X874232Y692425D01*
X874003Y692342D01*
X873783Y692240D01*
X873571Y692120D01*
X873368Y691981D01*
X873174Y691824D01*
X872988Y691648D01*
Y695498D01*
X873174Y695322D01*
D02*
G37*
G36*
X870997Y690823D02*
X870741Y690816D01*
X870492Y690790D01*
X870251Y690745D01*
X870016Y690680D01*
X869788Y690596D01*
X869567Y690493D01*
X869353Y690370D01*
X869146Y690229D01*
X868946Y690068D01*
X868753Y689888D01*
X867339Y691302D01*
X867519Y691495D01*
X867680Y691695D01*
X867821Y691902D01*
X867944Y692116D01*
X868047Y692337D01*
X868131Y692565D01*
X868195Y692800D01*
X868241Y693042D01*
X868267Y693290D01*
X868274Y693546D01*
X870997Y690823D01*
D02*
G37*
G36*
X809808Y689743D02*
X809836Y689488D01*
X809882Y689241D01*
X809947Y689004D01*
X810030Y688774D01*
X810132Y688554D01*
X810252Y688342D01*
X810391Y688139D01*
X810548Y687945D01*
X810724Y687759D01*
X806874D01*
X807050Y687945D01*
X807207Y688139D01*
X807346Y688342D01*
X807466Y688554D01*
X807568Y688774D01*
X807651Y689004D01*
X807716Y689241D01*
X807762Y689488D01*
X807790Y689743D01*
X807799Y690007D01*
X809799D01*
X809808Y689743D01*
D02*
G37*
G36*
X842061Y687544D02*
X842255Y687387D01*
X842458Y687248D01*
X842670Y687128D01*
X842891Y687026D01*
X843120Y686943D01*
X843358Y686879D01*
X843604Y686832D01*
X843859Y686804D01*
X844123Y686795D01*
Y684795D01*
X843859Y684786D01*
X843604Y684758D01*
X843358Y684712D01*
X843120Y684647D01*
X842891Y684564D01*
X842670Y684462D01*
X842458Y684342D01*
X842255Y684203D01*
X842061Y684046D01*
X841875Y683870D01*
Y687720D01*
X842061Y687544D01*
D02*
G37*
G36*
X811556Y685512D02*
X811582Y685264D01*
X811628Y685022D01*
X811692Y684787D01*
X811776Y684559D01*
X811879Y684339D01*
X812002Y684125D01*
X812143Y683917D01*
X812304Y683717D01*
X812484Y683524D01*
X811070Y682110D01*
X810877Y682290D01*
X810677Y682451D01*
X810470Y682593D01*
X810256Y682715D01*
X810035Y682818D01*
X809807Y682902D01*
X809572Y682967D01*
X809331Y683012D01*
X809082Y683038D01*
X808826Y683046D01*
X811549Y685768D01*
X811556Y685512D01*
D02*
G37*
G36*
X796000Y685512D02*
X796026Y685264D01*
X796071Y685022D01*
X796136Y684787D01*
X796220Y684559D01*
X796323Y684339D01*
X796445Y684125D01*
X796587Y683917D01*
X796748Y683717D01*
X796928Y683524D01*
X795514Y682110D01*
X795321Y682290D01*
X795120Y682451D01*
X794913Y682593D01*
X794699Y682715D01*
X794479Y682818D01*
X794251Y682902D01*
X794016Y682967D01*
X793774Y683012D01*
X793526Y683038D01*
X793270Y683046D01*
X795992Y685768D01*
X796000Y685512D01*
D02*
G37*
G36*
X839884Y683045D02*
X839628Y683038D01*
X839380Y683012D01*
X839138Y682967D01*
X838903Y682902D01*
X838676Y682818D01*
X838455Y682715D01*
X838241Y682592D01*
X838034Y682451D01*
X837834Y682290D01*
X837641Y682110D01*
X836226Y683524D01*
X836406Y683717D01*
X836567Y683917D01*
X836709Y684124D01*
X836831Y684338D01*
X836934Y684559D01*
X837018Y684787D01*
X837083Y685022D01*
X837128Y685264D01*
X837155Y685512D01*
X837162Y685768D01*
X839884Y683045D01*
D02*
G37*
G36*
X779000Y682029D02*
X779008Y681769D01*
X779032Y681514D01*
X779073Y681265D01*
X779130Y681022D01*
X779202Y680785D01*
X779292Y680554D01*
X779397Y680328D01*
X779518Y680108D01*
X779656Y679895D01*
X779810Y679687D01*
X775991Y680174D01*
X776183Y680333D01*
X776354Y680504D01*
X776506Y680687D01*
X776637Y680882D01*
X776748Y681089D01*
X776839Y681308D01*
X776909Y681539D01*
X776960Y681782D01*
X776990Y682037D01*
X777000Y682304D01*
X779000Y682029D01*
D02*
G37*
G36*
X917665Y667488D02*
X917410Y667481D01*
X917161Y667455D01*
X916919Y667410D01*
X916684Y667345D01*
X916457Y667261D01*
X916236Y667158D01*
X916022Y667035D01*
X915815Y666894D01*
X915615Y666733D01*
X915422Y666553D01*
X914007Y667967D01*
X914187Y668160D01*
X914348Y668360D01*
X914490Y668567D01*
X914612Y668781D01*
X914715Y669002D01*
X914799Y669230D01*
X914864Y669465D01*
X914910Y669706D01*
X914936Y669955D01*
X914943Y670211D01*
X917665Y667488D01*
D02*
G37*
G36*
X742752Y661459D02*
X742836Y660199D01*
X742862Y660091D01*
X742892Y660013D01*
X742925Y659964D01*
X739075D01*
X739108Y660013D01*
X739138Y660091D01*
X739164Y660199D01*
X739187Y660335D01*
X739222Y660697D01*
X739243Y661176D01*
X739250Y661771D01*
X742750D01*
X742752Y661459D01*
D02*
G37*
G36*
X822278Y658188D02*
X822478Y658027D01*
X822685Y657885D01*
X822898Y657763D01*
X823119Y657660D01*
X823347Y657576D01*
X823582Y657511D01*
X823824Y657466D01*
X824072Y657439D01*
X824328Y657432D01*
X821605Y654710D01*
X821598Y654966D01*
X821572Y655214D01*
X821526Y655456D01*
X821462Y655691D01*
X821378Y655919D01*
X821275Y656140D01*
X821152Y656354D01*
X821011Y656561D01*
X820850Y656761D01*
X820670Y656954D01*
X822084Y658368D01*
X822278Y658188D01*
D02*
G37*
G36*
X921378Y656953D02*
X921198Y656760D01*
X921037Y656560D01*
X920895Y656352D01*
X920773Y656139D01*
X920670Y655918D01*
X920586Y655690D01*
X920521Y655455D01*
X920476Y655213D01*
X920449Y654965D01*
X920442Y654709D01*
X917720Y657432D01*
X917976Y657439D01*
X918224Y657465D01*
X918466Y657510D01*
X918701Y657575D01*
X918929Y657659D01*
X919149Y657762D01*
X919363Y657885D01*
X919570Y658026D01*
X919770Y658187D01*
X919964Y658367D01*
X921378Y656953D01*
D02*
G37*
G36*
X826505Y656432D02*
X826699Y656274D01*
X826902Y656136D01*
X827114Y656015D01*
X827334Y655914D01*
X827563Y655830D01*
X827801Y655766D01*
X828048Y655719D01*
X828303Y655692D01*
X828567Y655682D01*
Y653682D01*
X828303Y653673D01*
X828048Y653645D01*
X827801Y653599D01*
X827563Y653534D01*
X827334Y653451D01*
X827114Y653349D01*
X826902Y653229D01*
X826699Y653090D01*
X826505Y652933D01*
X826319Y652757D01*
Y656607D01*
X826505Y656432D01*
D02*
G37*
G36*
X884502Y642631D02*
X884702Y642470D01*
X884909Y642328D01*
X885123Y642206D01*
X885344Y642103D01*
X885572Y642019D01*
X885806Y641954D01*
X886048Y641908D01*
X886297Y641882D01*
X886552Y641875D01*
X883830Y639153D01*
X883823Y639408D01*
X883797Y639657D01*
X883751Y639899D01*
X883687Y640134D01*
X883603Y640361D01*
X883499Y640582D01*
X883377Y640796D01*
X883235Y641003D01*
X883075Y641203D01*
X882895Y641396D01*
X884309Y642811D01*
X884502Y642631D01*
D02*
G37*
G36*
X853504Y637201D02*
X853318Y637377D01*
X853123Y637534D01*
X852920Y637673D01*
X852709Y637793D01*
X852488Y637895D01*
X852259Y637978D01*
X852021Y638042D01*
X851775Y638089D01*
X851520Y638116D01*
X851256Y638126D01*
Y640126D01*
X851520Y640135D01*
X851775Y640163D01*
X852021Y640209D01*
X852259Y640274D01*
X852488Y640357D01*
X852709Y640459D01*
X852920Y640579D01*
X853123Y640718D01*
X853318Y640875D01*
X853504Y641051D01*
Y637201D01*
D02*
G37*
G36*
X827112Y638843D02*
X827138Y638594D01*
X827184Y638353D01*
X827248Y638118D01*
X827332Y637890D01*
X827435Y637669D01*
X827558Y637455D01*
X827699Y637248D01*
X827860Y637048D01*
X828040Y636855D01*
X826626Y635441D01*
X826433Y635621D01*
X826233Y635782D01*
X826026Y635923D01*
X825812Y636046D01*
X825591Y636149D01*
X825363Y636233D01*
X825128Y636297D01*
X824887Y636343D01*
X824638Y636369D01*
X824382Y636376D01*
X827105Y639098D01*
X827112Y638843D01*
D02*
G37*
G36*
X858224Y638843D02*
X858251Y638594D01*
X858296Y638352D01*
X858361Y638118D01*
X858445Y637890D01*
X858548Y637669D01*
X858670Y637455D01*
X858812Y637248D01*
X858973Y637048D01*
X859153Y636855D01*
X857738Y635440D01*
X857545Y635620D01*
X857345Y635781D01*
X857138Y635923D01*
X856924Y636045D01*
X856703Y636148D01*
X856476Y636232D01*
X856241Y636297D01*
X855999Y636343D01*
X855751Y636369D01*
X855495Y636376D01*
X858217Y639098D01*
X858224Y638843D01*
D02*
G37*
G36*
X890265Y625840D02*
X890085Y625647D01*
X889924Y625447D01*
X889782Y625240D01*
X889660Y625026D01*
X889557Y624805D01*
X889473Y624577D01*
X889408Y624342D01*
X889363Y624101D01*
X889337Y623852D01*
X889330Y623596D01*
X886607Y626319D01*
X886863Y626326D01*
X887111Y626352D01*
X887353Y626398D01*
X887588Y626462D01*
X887816Y626546D01*
X888037Y626649D01*
X888251Y626772D01*
X888457Y626913D01*
X888658Y627074D01*
X888851Y627254D01*
X890265Y625840D01*
D02*
G37*
G36*
X946727Y627074D02*
X946927Y626913D01*
X947134Y626771D01*
X947348Y626649D01*
X947569Y626546D01*
X947797Y626462D01*
X948031Y626397D01*
X948273Y626352D01*
X948522Y626325D01*
X948777Y626318D01*
X946055Y623596D01*
X946048Y623852D01*
X946022Y624100D01*
X945976Y624342D01*
X945911Y624577D01*
X945827Y624805D01*
X945724Y625025D01*
X945602Y625239D01*
X945460Y625446D01*
X945300Y625647D01*
X945119Y625840D01*
X946534Y627254D01*
X946727Y627074D01*
D02*
G37*
G36*
X917665Y620819D02*
X917409Y620812D01*
X917160Y620786D01*
X916919Y620740D01*
X916684Y620675D01*
X916456Y620592D01*
X916235Y620488D01*
X916021Y620366D01*
X915814Y620224D01*
X915614Y620064D01*
X915421Y619883D01*
X914007Y621298D01*
X914187Y621491D01*
X914348Y621691D01*
X914489Y621898D01*
X914612Y622112D01*
X914715Y622333D01*
X914799Y622561D01*
X914864Y622795D01*
X914909Y623037D01*
X914935Y623286D01*
X914942Y623541D01*
X917665Y620819D01*
D02*
G37*
G36*
X838509Y590198D02*
X838537Y589943D01*
X838583Y589696D01*
X838648Y589458D01*
X838731Y589229D01*
X838833Y589009D01*
X838953Y588797D01*
X839092Y588594D01*
X839249Y588400D01*
X839425Y588214D01*
X835575D01*
X835751Y588400D01*
X835908Y588594D01*
X836047Y588797D01*
X836167Y589009D01*
X836269Y589229D01*
X836352Y589458D01*
X836417Y589696D01*
X836463Y589943D01*
X836491Y590198D01*
X836500Y590462D01*
X838500D01*
X838509Y590198D01*
D02*
G37*
G36*
X851009Y590198D02*
X851037Y589943D01*
X851083Y589696D01*
X851148Y589458D01*
X851231Y589229D01*
X851333Y589009D01*
X851453Y588797D01*
X851592Y588594D01*
X851749Y588400D01*
X851925Y588214D01*
X848075D01*
X848251Y588400D01*
X848408Y588594D01*
X848547Y588797D01*
X848667Y589009D01*
X848769Y589229D01*
X848852Y589458D01*
X848917Y589696D01*
X848963Y589943D01*
X848991Y590198D01*
X849000Y590462D01*
X851000D01*
X851009Y590198D01*
D02*
G37*
G36*
X822922Y589755D02*
X823122Y589594D01*
X823329Y589453D01*
X823543Y589330D01*
X823764Y589227D01*
X823992Y589143D01*
X824227Y589079D01*
X824468Y589033D01*
X824717Y589007D01*
X824973Y589000D01*
X822250Y586278D01*
X822243Y586533D01*
X822217Y586782D01*
X822171Y587023D01*
X822107Y587258D01*
X822023Y587486D01*
X821920Y587707D01*
X821797Y587921D01*
X821656Y588128D01*
X821495Y588328D01*
X821315Y588521D01*
X822729Y589935D01*
X822922Y589755D01*
D02*
G37*
G36*
X810422D02*
X810622Y589594D01*
X810829Y589453D01*
X811043Y589330D01*
X811264Y589227D01*
X811492Y589143D01*
X811727Y589079D01*
X811968Y589033D01*
X812217Y589007D01*
X812473Y589000D01*
X809750Y586278D01*
X809743Y586533D01*
X809717Y586782D01*
X809671Y587023D01*
X809607Y587258D01*
X809523Y587486D01*
X809420Y587707D01*
X809297Y587921D01*
X809156Y588128D01*
X808995Y588328D01*
X808815Y588521D01*
X810229Y589935D01*
X810422Y589755D01*
D02*
G37*
G36*
X853685Y579271D02*
X853505Y579078D01*
X853344Y578878D01*
X853203Y578671D01*
X853080Y578457D01*
X852977Y578236D01*
X852893Y578008D01*
X852829Y577773D01*
X852783Y577532D01*
X852757Y577283D01*
X852750Y577028D01*
X850027Y579750D01*
X850283Y579757D01*
X850532Y579783D01*
X850773Y579829D01*
X851008Y579893D01*
X851236Y579977D01*
X851457Y580080D01*
X851671Y580203D01*
X851878Y580344D01*
X852078Y580505D01*
X852271Y580685D01*
X853685Y579271D01*
D02*
G37*
G36*
X530422Y516255D02*
X530622Y516094D01*
X530829Y515953D01*
X531043Y515830D01*
X531264Y515727D01*
X531492Y515643D01*
X531727Y515579D01*
X531968Y515533D01*
X532217Y515507D01*
X532472Y515500D01*
X529750Y512777D01*
X529743Y513033D01*
X529717Y513282D01*
X529671Y513523D01*
X529607Y513758D01*
X529523Y513986D01*
X529420Y514207D01*
X529297Y514421D01*
X529156Y514628D01*
X528995Y514828D01*
X528815Y515021D01*
X530229Y516435D01*
X530422Y516255D01*
D02*
G37*
G36*
X615403Y622981D02*
X616156Y622944D01*
X616909Y622889D01*
X617659Y622815D01*
X618408Y622723D01*
X619154Y622612D01*
X619897Y622483D01*
X620637Y622336D01*
X621372Y622171D01*
X622104Y621987D01*
X622831Y621786D01*
X623553Y621567D01*
X624269Y621331D01*
X624979Y621077D01*
X625683Y620805D01*
X626380Y620517D01*
X627069Y620211D01*
X627751Y619888D01*
X628424Y619549D01*
X629090Y619194D01*
X629746Y618822D01*
X630393Y618434D01*
X631030Y618031D01*
X631657Y617612D01*
X632274Y617177D01*
X632879Y616728D01*
X633474Y616264D01*
X634057Y615786D01*
X634628Y615293D01*
X635112Y614855D01*
X635922Y614075D01*
X635999Y614000D01*
X636000Y614000D01*
X636000D01*
X636000D01*
D01*
X636000Y614000D01*
X687929Y562071D01*
X688170Y561833D01*
X688662Y561368D01*
X689167Y560917D01*
X689684Y560480D01*
X690214Y560058D01*
X690755Y559651D01*
X691307Y559259D01*
X691870Y558883D01*
X692443Y558522D01*
X693027Y558178D01*
X693619Y557851D01*
X694221Y557540D01*
X694831Y557246D01*
X695449Y556969D01*
X696075Y556710D01*
X696707Y556469D01*
X697347Y556245D01*
X697992Y556040D01*
X698643Y555852D01*
X699298Y555683D01*
X699958Y555532D01*
X700622Y555400D01*
X701290Y555287D01*
X701961Y555192D01*
X702634Y555116D01*
X703308Y555059D01*
X703984Y555021D01*
X704661Y555002D01*
X705000Y555000D01*
X743000Y555000D01*
X743278Y555000D01*
X743834Y554982D01*
X744389Y554945D01*
X744943Y554891D01*
X745495Y554818D01*
X746044Y554728D01*
X746589Y554619D01*
X747131Y554493D01*
X747669Y554349D01*
X748201Y554187D01*
X748728Y554008D01*
X749249Y553812D01*
X749763Y553600D01*
X750269Y553370D01*
X750768Y553124D01*
X751259Y552862D01*
X751741Y552583D01*
X752213Y552290D01*
X752676Y551980D01*
X753128Y551656D01*
X753570Y551318D01*
X754000Y550965D01*
X754418Y550598D01*
X754824Y550218D01*
X755218Y549824D01*
X755598Y549418D01*
X755965Y549000D01*
X756318Y548570D01*
X756656Y548128D01*
X756980Y547676D01*
X757290Y547213D01*
X757583Y546741D01*
X757861Y546259D01*
X758124Y545768D01*
X758370Y545269D01*
X758599Y544762D01*
X758812Y544249D01*
X759008Y543728D01*
X759187Y543201D01*
X759349Y542668D01*
X759493Y542131D01*
X759619Y541589D01*
X759727Y541044D01*
X759818Y540495D01*
X759891Y539943D01*
X759945Y539389D01*
X759957Y539216D01*
X760000Y538009D01*
X760000Y538000D01*
X760000Y538000D01*
X760000Y538000D01*
Y522000D01*
X760002Y521782D01*
X760021Y521346D01*
X760059Y520911D01*
X760116Y520479D01*
X760192Y520049D01*
X760286Y519623D01*
X760399Y519202D01*
X760531Y518786D01*
X760680Y518376D01*
X760847Y517972D01*
X761031Y517577D01*
X761233Y517190D01*
X761451Y516812D01*
X761685Y516444D01*
X761936Y516087D01*
X762201Y515741D01*
X762482Y515406D01*
X762776Y515085D01*
X763085Y514776D01*
X763407Y514482D01*
X763741Y514201D01*
X764087Y513936D01*
X764444Y513685D01*
X764812Y513451D01*
X765190Y513233D01*
X765577Y513031D01*
X765973Y512847D01*
X766376Y512680D01*
X766786Y512531D01*
X767202Y512399D01*
X767623Y512287D01*
X768049Y512192D01*
X768479Y512116D01*
X768911Y512059D01*
X769346Y512021D01*
X769782Y512002D01*
X770000Y512000D01*
X770000Y512000D01*
X804762D01*
X804793Y511999D01*
X805000D01*
X805196Y511999D01*
X805227Y512000D01*
X855268D01*
X855300Y511999D01*
X855496Y511999D01*
X855707D01*
X855737Y512000D01*
X948000D01*
Y537000D01*
X967000D01*
Y505000D01*
X769722D01*
X769166Y505018D01*
X768611Y505055D01*
X768057Y505109D01*
X767505Y505182D01*
X766956Y505272D01*
X766411Y505381D01*
X765869Y505507D01*
X765331Y505651D01*
X764799Y505813D01*
X764272Y505992D01*
X763751Y506188D01*
X763237Y506400D01*
X762731Y506630D01*
X762232Y506876D01*
X761741Y507138D01*
X761259Y507417D01*
X760787Y507710D01*
X760324Y508020D01*
X759872Y508344D01*
X759430Y508682D01*
X759000Y509035D01*
X758582Y509402D01*
X758176Y509782D01*
X757783Y510176D01*
X757402Y510582D01*
X757035Y511000D01*
X756682Y511430D01*
X756344Y511872D01*
X756020Y512324D01*
X755711Y512787D01*
X755417Y513259D01*
X755138Y513741D01*
X754876Y514232D01*
X754630Y514731D01*
X754400Y515237D01*
X754188Y515751D01*
X753992Y516272D01*
X753813Y516799D01*
X753651Y517331D01*
X753507Y517869D01*
X753381Y518411D01*
X753272Y518956D01*
X753182Y519505D01*
X753109Y520057D01*
X753055Y520611D01*
X753018Y521166D01*
X753000Y521722D01*
X753000Y522000D01*
X753000D01*
X753000Y538000D01*
X752998Y538218D01*
X752979Y538654D01*
X752941Y539089D01*
X752884Y539521D01*
X752808Y539951D01*
X752713Y540377D01*
X752600Y540798D01*
X752469Y541214D01*
X752320Y541624D01*
X752153Y542027D01*
X751969Y542423D01*
X751767Y542810D01*
X751549Y543188D01*
X751315Y543556D01*
X751064Y543913D01*
X750799Y544259D01*
X750518Y544593D01*
X750223Y544915D01*
X749915Y545224D01*
X749593Y545518D01*
X749259Y545799D01*
X748913Y546064D01*
X748556Y546315D01*
X748188Y546549D01*
X747810Y546767D01*
X747423Y546969D01*
X747027Y547153D01*
X746624Y547320D01*
X746214Y547469D01*
X745798Y547600D01*
X745377Y547713D01*
X744951Y547808D01*
X744521Y547883D01*
X744173Y547929D01*
X744089Y547940D01*
X744088Y547940D01*
X743654Y547978D01*
X743652Y547979D01*
X743218Y547997D01*
X743009Y548000D01*
X743000Y548000D01*
X743000Y548000D01*
X743000Y548000D01*
X705000D01*
X704615Y548000D01*
X703845Y548019D01*
X703075Y548057D01*
X702307Y548113D01*
X701540Y548189D01*
X700776Y548283D01*
X700014Y548396D01*
X699255Y548528D01*
X698499Y548678D01*
X697748Y548847D01*
X697001Y549034D01*
X696258Y549240D01*
X695521Y549463D01*
X694789Y549705D01*
X694064Y549964D01*
X693345Y550242D01*
X692634Y550536D01*
X691929Y550849D01*
X691233Y551178D01*
X690545Y551524D01*
X689865Y551887D01*
X689195Y552267D01*
X688535Y552663D01*
X687884Y553075D01*
X687243Y553503D01*
X686613Y553947D01*
X685995Y554406D01*
X685387Y554880D01*
X684792Y555368D01*
X684209Y555872D01*
X683638Y556389D01*
X683080Y556920D01*
X682807Y557192D01*
X682808Y557192D01*
X643000Y597000D01*
X642856Y597141D01*
X642561Y597414D01*
X642255Y597675D01*
X641939Y597924D01*
X641614Y598160D01*
X641280Y598384D01*
X640937Y598594D01*
X640586Y598791D01*
X640227Y598973D01*
X639862Y599142D01*
X639490Y599295D01*
X639113Y599435D01*
X638731Y599559D01*
X638343Y599668D01*
X637952Y599762D01*
X637558Y599840D01*
X637161Y599903D01*
X636930Y599930D01*
X636761Y599950D01*
X636760Y599950D01*
X636360Y599982D01*
X636358Y599982D01*
X635958Y599998D01*
X635779Y599999D01*
X635757Y600000D01*
X635757Y600000D01*
X635757Y600000D01*
X626000Y600000D01*
X625810Y599998D01*
X625431Y599983D01*
X625053Y599953D01*
X624677Y599909D01*
X624302Y599850D01*
X623930Y599776D01*
X623562Y599687D01*
X623196Y599584D01*
X622836Y599467D01*
X622480Y599336D01*
X622130Y599191D01*
X621785Y599032D01*
X621447Y598860D01*
X621117Y598674D01*
X620793Y598476D01*
X620478Y598265D01*
X620171Y598042D01*
X619873Y597808D01*
X619873Y597807D01*
X619585Y597561D01*
X619583Y597560D01*
X619307Y597304D01*
X619177Y597177D01*
X619171Y597172D01*
X619171Y597172D01*
X619171Y597172D01*
X619161Y597162D01*
X618314Y596369D01*
X618111Y596191D01*
X617664Y595825D01*
X617206Y595473D01*
X616736Y595136D01*
X616256Y594815D01*
X615765Y594510D01*
X615264Y594221D01*
X614755Y593949D01*
X614236Y593693D01*
X613710Y593454D01*
X613176Y593233D01*
X612635Y593030D01*
X612088Y592844D01*
X611535Y592676D01*
X610977Y592527D01*
X610414Y592396D01*
X609847Y592283D01*
X609277Y592189D01*
X608704Y592113D01*
X608129Y592057D01*
X607938Y592044D01*
X606686Y592000D01*
X604732Y592000D01*
X604197Y592019D01*
X603663Y592057D01*
X603130Y592115D01*
X602600Y592191D01*
X602073Y592286D01*
X601550Y592400D01*
X601031Y592532D01*
X600517Y592683D01*
X600009Y592852D01*
X599507Y593039D01*
X599012Y593244D01*
X598525Y593467D01*
X598046Y593707D01*
X597576Y593963D01*
X597116Y594236D01*
X596665Y594526D01*
X596225Y594831D01*
X595796Y595152D01*
X595379Y595488D01*
X594975Y595839D01*
X594583Y596204D01*
X594204Y596583D01*
X593839Y596975D01*
X593488Y597379D01*
X593152Y597797D01*
X592831Y598225D01*
X592526Y598665D01*
X592236Y599116D01*
X591963Y599576D01*
X591707Y600046D01*
X591467Y600525D01*
X591244Y601012D01*
X591039Y601507D01*
X590852Y602009D01*
X590683Y602517D01*
X590532Y603031D01*
X590400Y603550D01*
X590286Y604073D01*
X590191Y604600D01*
X590115Y605130D01*
X590057Y605663D01*
X590019Y606197D01*
X590000Y606732D01*
Y608268D01*
X590019Y608803D01*
X590057Y609337D01*
X590115Y609870D01*
X590191Y610400D01*
X590286Y610927D01*
X590400Y611450D01*
X590532Y611969D01*
X590683Y612483D01*
X590852Y612991D01*
X591039Y613493D01*
X591244Y613987D01*
X591467Y614475D01*
X591706Y614953D01*
X591963Y615424D01*
X592236Y615884D01*
X592526Y616335D01*
X592831Y616774D01*
X593152Y617203D01*
X593488Y617620D01*
X593839Y618025D01*
X594204Y618417D01*
X594583Y618796D01*
X594975Y619160D01*
X595379Y619511D01*
X595796Y619847D01*
X596225Y620168D01*
X596665Y620474D01*
X597115Y620763D01*
X597576Y621036D01*
X598046Y621293D01*
X598525Y621533D01*
X599012Y621755D01*
X599507Y621960D01*
X600009Y622147D01*
X600517Y622316D01*
X601031Y622467D01*
X601549Y622600D01*
X602073Y622714D01*
X602600Y622809D01*
X603130Y622885D01*
X603662Y622942D01*
X604197Y622980D01*
X604732Y622999D01*
X605000D01*
X605000Y623000D01*
X614272D01*
X614649Y623000D01*
X615403Y622981D01*
D02*
G37*
D13*
X703000Y946300D02*
X721700Y965000D01*
X690500Y906400D02*
X703000Y918900D01*
Y946300D01*
X782320Y924680D02*
X854000Y853000D01*
X782320Y924680D02*
Y943680D01*
X777000Y949000D02*
X782320Y943680D01*
X977000Y860500D02*
X1011500D01*
X1056000Y905000D01*
X991440Y853440D02*
X1044560D01*
X1052000Y846000D01*
X973000Y835000D02*
X991440Y853440D01*
X965000Y853000D02*
Y875867D01*
X725360Y994000D02*
X846867D01*
X965000Y875867D01*
X694000Y989000D02*
X844880D01*
X959000Y857000D02*
Y874880D01*
X844880Y989000D02*
X959000Y874880D01*
X530000Y625000D02*
X540000Y635000D01*
X620000D01*
X690000Y705000D01*
Y751000D01*
X730000Y791000D01*
Y820000D01*
X530000Y586000D02*
Y625000D01*
X520000Y576000D02*
X530000Y586000D01*
X520000Y525250D02*
X532500Y512750D01*
X520000Y525250D02*
Y576000D01*
X587500Y891500D02*
X607500Y871500D01*
X617500D01*
X587500Y891500D02*
Y924500D01*
X582500Y889500D02*
Y927000D01*
Y889500D02*
X606000Y866000D01*
X614000D01*
X587500Y924500D02*
X633000Y970000D01*
X582500Y927000D02*
X630000Y974500D01*
X631500Y857500D02*
X652500D01*
X617500Y871500D02*
X631500Y857500D01*
X614000Y866000D02*
X625000Y855000D01*
X660000Y747000D02*
Y850000D01*
Y747000D02*
X684000Y723000D01*
X633000Y970000D02*
X790000D01*
X652500Y857500D02*
X660000Y850000D01*
X868826Y701352D02*
X876475Y709000D01*
X920000D01*
X839912Y701352D02*
X868826D01*
X931270Y750000D02*
X948806Y732464D01*
X810000Y629000D02*
X826895Y612105D01*
X834145D01*
X850000Y596250D01*
Y586250D02*
Y596250D01*
X805000Y627000D02*
X837500Y594500D01*
Y586250D02*
Y594500D01*
X806000Y605250D02*
Y616000D01*
Y605250D02*
X825000Y586250D01*
X630000Y974500D02*
Y1020000D01*
X755000Y667000D02*
X806000Y616000D01*
X868000Y980000D02*
X897500D01*
X917500Y960000D02*
X925000D01*
X897500Y980000D02*
X917500Y960000D01*
X814594Y680000D02*
X834116D01*
X808799Y685795D02*
X808799D01*
X814594Y680000D01*
X933249Y701351D02*
X940000Y694600D01*
X917692Y654682D02*
X940000Y676989D01*
Y694600D01*
X1053000Y910000D02*
X1096000D01*
X1013000Y870000D02*
X1053000Y910000D01*
X977000Y870000D02*
X1013000D01*
X1084200Y991300D02*
X1111000Y964500D01*
X1056000Y905000D02*
X1099000D01*
X1111000Y917000D01*
Y964500D01*
X1058800Y1008000D02*
X1105000Y961800D01*
Y919000D02*
Y961800D01*
X1096000Y910000D02*
X1105000Y919000D01*
X829000Y647000D02*
X836874Y639126D01*
X855467D01*
X819000Y647000D02*
X829000D01*
X837000D02*
X878705D01*
X829318Y654682D02*
X837000Y647000D01*
X824355Y654682D02*
X829318D01*
X1052000Y846000D02*
X1112000D01*
X1134500Y785000D02*
Y823500D01*
X1112000Y846000D02*
X1134500Y823500D01*
X901000Y854000D02*
X919000D01*
X898000Y857000D02*
X901000Y854000D01*
X898000Y857000D02*
Y889000D01*
X865000Y901000D02*
X883000Y883000D01*
Y850000D02*
X926000Y807000D01*
X883000Y850000D02*
Y883000D01*
X858000Y915000D02*
X888000Y885000D01*
Y852000D02*
X923000Y817000D01*
X888000Y852000D02*
Y885000D01*
X850000Y930000D02*
X893000Y887000D01*
Y854000D02*
X902309Y844691D01*
X893000Y854000D02*
Y887000D01*
X842000Y945000D02*
X898000Y889000D01*
X854000Y853000D02*
X873000D01*
X790000Y970000D02*
X810000Y950000D01*
X844000D02*
X908000Y886000D01*
X810000Y950000D02*
X844000D01*
X808000Y945000D02*
X842000D01*
X721700Y965000D02*
X788000D01*
X808000Y945000D01*
X914691Y844691D02*
X915000Y845000D01*
X840000Y930000D02*
X850000D01*
X750000Y665000D02*
X801500Y613500D01*
Y597250D02*
X812500Y586250D01*
X801500Y597250D02*
Y613500D01*
X1006000Y897500D02*
Y938500D01*
X1014000Y946500D02*
Y986000D01*
X1006000Y938500D02*
X1014000Y946500D01*
X904000Y999000D02*
Y1026000D01*
Y999000D02*
X911000Y992000D01*
X1008000D01*
X1014000Y986000D01*
X1006000Y897500D02*
X1017500Y886000D01*
X639000Y1029000D02*
X845000D01*
X853000Y995000D02*
Y1021000D01*
X845000Y1029000D02*
X853000Y1021000D01*
Y995000D02*
X868000Y980000D01*
X630000Y1020000D02*
X639000Y1029000D01*
X820000Y899000D02*
X829000D01*
X831000Y901000D02*
X865000D01*
X836000Y915000D02*
X858000D01*
X830000Y909000D02*
X836000Y915000D01*
X873000Y853000D02*
X926000Y800000D01*
X947000D01*
X926000Y807000D02*
X949868D01*
X953868Y811000D02*
X954000D01*
X949868Y807000D02*
X953868Y811000D01*
X829000Y899000D02*
X831000Y901000D01*
X923000Y817000D02*
X947000D01*
X902309Y844691D02*
X914691D01*
X919000Y854000D02*
X938000Y835000D01*
X973000D01*
X805000Y627000D02*
Y640000D01*
X790000Y655000D02*
X805000Y640000D01*
X810000Y629000D02*
Y642000D01*
X792000Y660000D02*
X810000Y642000D01*
X774000Y655000D02*
X790000D01*
X760000Y669000D02*
X774000Y655000D01*
X776000Y660000D02*
X792000D01*
X765000Y671000D02*
X776000Y660000D01*
X765000Y671000D02*
Y733000D01*
X770000Y673000D02*
X778000Y665000D01*
X770000Y673000D02*
Y731000D01*
X778000Y665000D02*
X794000D01*
X815000Y637000D02*
X822000Y630000D01*
X827000D01*
X815000Y637000D02*
Y644000D01*
X794000Y665000D02*
X815000Y644000D01*
X850000Y577000D02*
X857000Y584000D01*
X827000Y630000D02*
X857000Y600000D01*
Y584000D02*
Y600000D01*
X824355Y639126D02*
X852481Y611000D01*
X905124D01*
X917692Y623569D01*
X770000Y731000D02*
X788000Y749000D01*
X755000Y667000D02*
Y737000D01*
X760000Y669000D02*
Y735000D01*
X750000Y665000D02*
Y739000D01*
X765000Y733000D02*
X786000Y754000D01*
X760000Y735000D02*
X784000Y759000D01*
X755000Y737000D02*
X782000Y764000D01*
X750000Y739000D02*
X780000Y769000D01*
X782000Y764000D02*
X839000D01*
X784000Y759000D02*
X841000D01*
X786000Y754000D02*
X843000D01*
X780000Y769000D02*
X837000D01*
X788000Y749000D02*
X845000D01*
X856000Y760000D02*
X880000D01*
X845000Y749000D02*
X856000Y760000D01*
X842169Y742500D02*
X891500D01*
X899000Y750000D02*
X931270D01*
X891500Y742500D02*
X899000Y750000D01*
X801038Y678000D02*
X824355Y654683D01*
X801038Y678000D02*
X801038D01*
X793243Y685795D02*
X801038Y678000D01*
X798558Y723000D02*
X818263D01*
X839912Y701352D01*
X791215Y710000D02*
X803000D01*
X785000Y703785D02*
X791215Y710000D01*
X777652Y702094D02*
X798558Y723000D01*
X785000Y694000D02*
Y703785D01*
X961000Y724000D02*
X968000Y731000D01*
X945000Y724000D02*
X961000D01*
X968000Y731000D02*
Y742000D01*
X933249Y716908D02*
X937907D01*
X945000Y724000D01*
X932841Y716499D02*
X933249Y716908D01*
X921000Y694000D02*
X928351Y701351D01*
X933249D01*
X909488Y694000D02*
X921000D01*
X902137Y701351D02*
X909488Y694000D01*
X905000Y657546D02*
X917693Y670238D01*
X886580Y623569D02*
X905000Y641989D01*
Y657546D01*
X915000Y631000D02*
X941373D01*
X855467Y639126D02*
X878593Y616000D01*
X900000D01*
X915000Y631000D01*
X927499Y716499D02*
X932841D01*
X920000Y709000D02*
X927499Y716499D01*
X886581Y724419D02*
X897000Y714000D01*
X886581Y724419D02*
Y732464D01*
X897000Y714000D02*
X908000D01*
X910908Y716908D02*
X917693D01*
X908000Y714000D02*
X910908Y716908D01*
X871024Y693573D02*
X888000D01*
X895778Y701351D01*
X902137D01*
X803000Y710000D02*
X808799Y704201D01*
Y685795D02*
Y704201D01*
X941373Y631000D02*
X948805Y623569D01*
X786000Y680000D02*
X819000Y647000D01*
X786000Y680000D02*
Y688000D01*
X793243Y695243D01*
Y701352D01*
X834116Y680000D02*
X839911Y685795D01*
X778000Y678331D02*
Y687000D01*
X777652Y677982D02*
X778000Y678331D01*
Y687000D02*
X785000Y694000D01*
X878705Y647000D02*
X886580Y639125D01*
X859000Y770000D02*
X880000D01*
X843000Y754000D02*
X859000Y770000D01*
X862000Y780000D02*
X880000D01*
X841000Y759000D02*
X862000Y780000D01*
X865000Y790000D02*
X880000D01*
X839000Y764000D02*
X865000Y790000D01*
X837000Y769000D02*
X868000Y800000D01*
X880000D01*
X863246Y685795D02*
X871024Y693573D01*
X839911Y685795D02*
X863246D01*
X1084200Y991300D02*
Y1008000D01*
X687960Y995040D02*
X694000Y989000D01*
X687960Y995040D02*
Y1008000D01*
X713360Y1006000D02*
X725360Y994000D01*
X713360Y1006000D02*
Y1008000D01*
X959500Y847500D02*
X965000Y853000D01*
D142*
X715900Y931800D02*
D03*
X591440Y1008000D02*
D03*
X687960D02*
D03*
X957200Y1008000D02*
D03*
X779400Y525400D02*
D03*
X1008000D02*
D03*
X677800D02*
D03*
D143*
X690500Y931800D02*
D03*
X665100D02*
D03*
X665100Y906400D02*
D03*
X690500D02*
D03*
X715900D02*
D03*
X616840Y1008000D02*
D03*
X789560D02*
D03*
X738760D02*
D03*
X713360D02*
D03*
X764160D02*
D03*
X916560D02*
D03*
X814960D02*
D03*
X840360D02*
D03*
X865760Y1008000D02*
D03*
X891160Y1008000D02*
D03*
X1058800Y1008000D02*
D03*
X1008000D02*
D03*
X982600D02*
D03*
X1033400D02*
D03*
X1084200D02*
D03*
X1109600D02*
D03*
X1135000Y1008000D02*
D03*
X881000Y525400D02*
D03*
X830200D02*
D03*
X804800D02*
D03*
X855600D02*
D03*
X906400D02*
D03*
X931800D02*
D03*
X957200Y525400D02*
D03*
X1135000Y525400D02*
D03*
X1084200D02*
D03*
X1033400D02*
D03*
X1058800D02*
D03*
X1109600D02*
D03*
X703200D02*
D03*
X728600D02*
D03*
D144*
X586300Y856250D02*
D03*
Y693750D02*
D03*
D145*
X643400Y843600D02*
D03*
Y820700D02*
D03*
Y729300D02*
D03*
Y706400D02*
D03*
D146*
X577400Y800300D02*
D03*
X595200Y810700D02*
D03*
X577400Y779900D02*
D03*
X595200Y790100D02*
D03*
X577400Y759500D02*
D03*
X595200Y769700D02*
D03*
Y749300D02*
D03*
D147*
X577400Y739100D02*
D03*
D148*
X527000Y970200D02*
D03*
Y883800D02*
D03*
D149*
X568800Y970200D02*
D03*
Y883800D02*
D03*
D150*
X550000Y607500D02*
D03*
D151*
X606000D02*
D03*
D152*
X544000Y658000D02*
D03*
X592000D02*
D03*
X544000Y557000D02*
D03*
X592000D02*
D03*
D153*
X639700Y525400D02*
D03*
X652400Y1008000D02*
D03*
X1160400Y855600D02*
D03*
Y576200D02*
D03*
D154*
X946434Y874434D02*
D03*
X1140000Y592000D02*
D03*
X1123000D02*
D03*
X1087000Y604613D02*
D03*
X1086000Y616000D02*
D03*
X1105000Y613000D02*
D03*
X730000Y820000D02*
D03*
X532500Y512750D02*
D03*
X620000Y903000D02*
D03*
X625000Y855000D02*
D03*
X596000Y894000D02*
D03*
X604000Y928000D02*
D03*
X668000Y774000D02*
D03*
X684000Y767000D02*
D03*
X670500Y808500D02*
D03*
X694000Y835000D02*
D03*
X668000Y876500D02*
D03*
X902500Y908000D02*
D03*
X948806Y732464D02*
D03*
X1132000Y578000D02*
D03*
X1122000Y776000D02*
D03*
X1130436Y775978D02*
D03*
X1018250Y711000D02*
D03*
X975000D02*
D03*
X1027300Y669300D02*
D03*
X1004000Y635000D02*
D03*
X1010934Y641934D02*
D03*
X1012500Y754000D02*
D03*
X777500Y889500D02*
D03*
Y900500D02*
D03*
X1095000Y578000D02*
D03*
X1058000Y578000D02*
D03*
X1021000Y578000D02*
D03*
X984000D02*
D03*
X812500Y610000D02*
D03*
X1076500Y780000D02*
D03*
X1099000Y925000D02*
D03*
X1102500Y860500D02*
D03*
Y868000D02*
D03*
X1102500Y889500D02*
D03*
Y882000D02*
D03*
X964691Y801309D02*
D03*
X982500Y974000D02*
D03*
X972500Y959500D02*
D03*
X1002500Y835500D02*
D03*
X977000Y870000D02*
D03*
X1022000Y826000D02*
D03*
X1063000Y828000D02*
D03*
X1057000Y855000D02*
D03*
X716250Y737250D02*
D03*
Y727750D02*
D03*
X867000Y867000D02*
D03*
X904000Y862500D02*
D03*
X876000Y867500D02*
D03*
X753500Y876500D02*
D03*
X775000Y928000D02*
D03*
X777000Y949000D02*
D03*
X815750Y919950D02*
D03*
X764250Y876500D02*
D03*
X688000Y626500D02*
D03*
X696000D02*
D03*
X696000Y580500D02*
D03*
X688000D02*
D03*
X642000Y875000D02*
D03*
X769000Y956000D02*
D03*
X836000Y964000D02*
D03*
X904000Y1026000D02*
D03*
X995000Y960000D02*
D03*
X1005000D02*
D03*
X632000Y887500D02*
D03*
X907500Y959500D02*
D03*
X867000Y843000D02*
D03*
X684000Y723000D02*
D03*
X628000Y925000D02*
D03*
X820000Y899000D02*
D03*
X790150Y945350D02*
D03*
X775000Y917500D02*
D03*
X947000Y800000D02*
D03*
X840000Y930000D02*
D03*
X846000Y964000D02*
D03*
X914691Y844691D02*
D03*
X835000Y842000D02*
D03*
X733000Y692000D02*
D03*
Y683000D02*
D03*
X716000Y709000D02*
D03*
X943000Y771250D02*
D03*
X954000Y811000D02*
D03*
X947500Y787500D02*
D03*
X850000Y586250D02*
D03*
X825000D02*
D03*
X786000Y597500D02*
D03*
X793500Y605000D02*
D03*
X793242Y639126D02*
D03*
X824355Y623569D02*
D03*
X980250Y616000D02*
D03*
X886580Y623569D02*
D03*
X917692Y623569D02*
D03*
X968000Y742000D02*
D03*
X753500Y634000D02*
D03*
X880000Y760000D02*
D03*
Y770000D02*
D03*
Y780000D02*
D03*
Y790000D02*
D03*
Y800000D02*
D03*
X917693Y670238D02*
D03*
X850000Y577000D02*
D03*
X837500Y586250D02*
D03*
X812500Y586250D02*
D03*
X855467Y623569D02*
D03*
X917498Y700999D02*
D03*
X1088500Y965000D02*
D03*
X1025000Y927000D02*
D03*
X1020000Y898500D02*
D03*
X741000Y658000D02*
D03*
X1066500Y854500D02*
D03*
X1039000Y587000D02*
D03*
X1018000Y694000D02*
D03*
X1027300Y702300D02*
D03*
X1074000Y854500D02*
D03*
X1042000Y786000D02*
D03*
X1057000Y895000D02*
D03*
X1017500Y886000D02*
D03*
X777652Y677982D02*
D03*
X776549Y563498D02*
D03*
X995000Y554000D02*
D03*
X752049Y563498D02*
D03*
X743951D02*
D03*
X731000Y577000D02*
D03*
X1106000Y554000D02*
D03*
X1069000D02*
D03*
X1032000Y554000D02*
D03*
X583000Y951000D02*
D03*
X951000Y967000D02*
D03*
X1027500Y718700D02*
D03*
X992000Y917500D02*
D03*
X974000Y764000D02*
D03*
X975000Y702500D02*
D03*
X954000Y603000D02*
D03*
X948805Y716907D02*
D03*
X1015000Y935000D02*
D03*
X1057750Y918000D02*
D03*
X1029000Y846500D02*
D03*
X963000Y967000D02*
D03*
X830000Y909000D02*
D03*
X777652Y702094D02*
D03*
X839911Y685795D02*
D03*
X855468Y670239D02*
D03*
X948805Y623569D02*
D03*
X855467Y639126D02*
D03*
X948805Y639125D02*
D03*
X824355Y639126D02*
D03*
X948849Y670282D02*
D03*
X948805Y685794D02*
D03*
X917693Y716908D02*
D03*
X886580Y701351D02*
D03*
X839912Y701352D02*
D03*
X886580Y670238D02*
D03*
X917692Y654682D02*
D03*
X902137Y701351D02*
D03*
X933249Y701351D02*
D03*
X933249Y716908D02*
D03*
X842169Y742500D02*
D03*
X872831Y705387D02*
D03*
X798056Y742500D02*
D03*
X855468Y732464D02*
D03*
X808799Y685795D02*
D03*
X839911Y654682D02*
D03*
X839911Y670239D02*
D03*
X886581Y732464D02*
D03*
X793243Y732464D02*
D03*
X824355Y732464D02*
D03*
X886580Y639125D02*
D03*
X824355Y654682D02*
D03*
X793243Y685795D02*
D03*
X902137Y732464D02*
D03*
X919000Y742500D02*
D03*
X917692Y639125D02*
D03*
X855468Y654682D02*
D03*
X839912Y716908D02*
D03*
X824355Y685795D02*
D03*
X808799Y716908D02*
D03*
X871024Y693573D02*
D03*
X793243Y701352D02*
D03*
X903943Y720943D02*
D03*
X917693Y732464D02*
D03*
X768500Y563498D02*
D03*
X793500Y597500D02*
D03*
X834000Y778000D02*
D03*
X875000Y582500D02*
D03*
X946000Y578000D02*
D03*
X786000Y605000D02*
D03*
X692000Y603500D02*
D03*
X687000Y610000D02*
D03*
X697000D02*
D03*
Y597000D02*
D03*
X687000D02*
D03*
X826000Y819000D02*
D03*
X787500Y900000D02*
D03*
X741000Y930000D02*
D03*
X761500Y912500D02*
D03*
X650951Y607998D02*
D03*
X659049D02*
D03*
X1134500Y785000D02*
D03*
X865000Y582500D02*
D03*
X642000Y900000D02*
D03*
X834000Y792000D02*
D03*
X945000Y603000D02*
D03*
X720000Y577000D02*
D03*
X708000Y563000D02*
D03*
X627000Y574500D02*
D03*
Y566403D02*
D03*
Y586403D02*
D03*
Y594500D02*
D03*
X716000Y684500D02*
D03*
Y677000D02*
D03*
Y692500D02*
D03*
Y700000D02*
D03*
X920000Y554000D02*
D03*
X885000Y988000D02*
D03*
X874000Y988000D02*
D03*
X684500Y799500D02*
D03*
X695000Y765550D02*
D03*
X693500Y808500D02*
D03*
X675500Y819500D02*
D03*
X1089500Y895500D02*
D03*
X1082000D02*
D03*
X1088500Y935000D02*
D03*
X1066500Y945500D02*
D03*
X1031000Y898500D02*
D03*
X1040000Y745000D02*
D03*
X1049000Y753000D02*
D03*
X1118000Y805000D02*
D03*
X1128000Y792000D02*
D03*
X875000Y877000D02*
D03*
X917500Y974000D02*
D03*
X1043700Y718700D02*
D03*
X1060200D02*
D03*
X1076700Y718700D02*
D03*
Y702300D02*
D03*
Y685800D02*
D03*
Y669300D02*
D03*
X1060300D02*
D03*
X1043800Y669300D02*
D03*
X1027300Y685800D02*
D03*
X1043800D02*
D03*
X1060300D02*
D03*
Y702300D02*
D03*
X1043800Y702300D02*
D03*
X1019000Y846000D02*
D03*
X977000Y860500D02*
D03*
X959500Y847500D02*
D03*
X947000Y817000D02*
D03*
X959000Y857000D02*
D03*
X1179000Y830000D02*
D03*
X890000Y815000D02*
D03*
X958000Y554000D02*
D03*
X973000Y934000D02*
D03*
X961000Y934000D02*
D03*
X953000Y934000D02*
D03*
X941000D02*
D03*
X943000Y967000D02*
D03*
X925000Y960000D02*
D03*
X931000Y967000D02*
D03*
X1057000Y971000D02*
D03*
X932000Y860000D02*
D03*
X940000Y867000D02*
D03*
X950000D02*
D03*
X935000Y850000D02*
D03*
X845000Y907250D02*
D03*
X845000Y894550D02*
D03*
X908000Y871000D02*
D03*
Y878500D02*
D03*
Y886000D02*
D03*
X1138871Y775956D02*
D03*
X1147307Y775934D02*
D03*
X1155742Y775912D02*
D03*
X1164178Y775890D02*
D03*
X1172613Y775868D02*
D03*
X1181049Y775846D02*
D03*
Y612154D02*
D03*
X1172613Y612132D02*
D03*
X1164178Y612110D02*
D03*
X1155742Y612088D02*
D03*
X1147307Y612066D02*
D03*
X1138871Y612044D02*
D03*
X1130436Y612022D02*
D03*
X1111500Y772000D02*
D03*
X1103000Y772000D02*
D03*
X1114000Y753500D02*
D03*
Y745000D02*
D03*
Y736500D02*
D03*
Y728000D02*
D03*
Y719500D02*
D03*
Y711000D02*
D03*
Y702500D02*
D03*
Y694000D02*
D03*
Y685500D02*
D03*
X1114000Y677000D02*
D03*
X1114000Y668500D02*
D03*
Y660000D02*
D03*
Y651500D02*
D03*
Y643000D02*
D03*
X1114022Y634564D02*
D03*
X1122000Y612000D02*
D03*
X1094500Y616000D02*
D03*
X1143000Y785000D02*
D03*
Y798000D02*
D03*
Y811000D02*
D03*
Y824000D02*
D03*
X1040000Y730000D02*
D03*
X1049000Y737000D02*
D03*
X1089000Y754000D02*
D03*
X1074000D02*
D03*
D155*
X930000Y780000D02*
X967500D01*
X996000Y846000D02*
X1019000D01*
X982500Y795000D02*
Y832500D01*
X967500Y780000D02*
X982500Y795000D01*
Y832500D02*
X996000Y846000D01*
X787000Y785000D02*
X842000D01*
X741000Y739000D02*
X787000Y785000D01*
X741000Y658000D02*
Y739000D01*
X864000Y807000D02*
X903000D01*
X930000Y780000D01*
X842000Y785000D02*
X864000Y807000D01*
M02*
