G04*
G04 #@! TF.GenerationSoftware,Altium Limited,Altium Designer,23.7.1 (13)*
G04*
G04 Layer_Color=6737151*
%FSLAX44Y44*%
%MOMM*%
G71*
G04*
G04 #@! TF.SameCoordinates,1C2F31F7-A32A-4C1B-961E-631C19F8B413*
G04*
G04*
G04 #@! TF.FilePolarity,Positive*
G04*
G01*
G75*
%ADD13C,0.2000*%
%ADD156R,3.3940X0.4850*%
%ADD157R,0.4850X0.4850*%
%ADD158R,1.4550X0.4850*%
%ADD159R,0.4850X0.4840*%
%ADD160R,1.4540X0.4840*%
%ADD161R,0.9690X0.4840*%
%ADD162R,0.4840X0.4840*%
%ADD163R,1.4550X0.4850*%
%ADD164R,0.9700X0.4850*%
%ADD165R,4.3630X0.4850*%
%ADD166R,2.4250X0.4850*%
%ADD167R,1.9390X0.4850*%
%ADD168R,0.4850X0.4850*%
%ADD169R,1.4550X0.4850*%
%ADD170R,0.4850X0.4850*%
%ADD171R,2.4240X0.4850*%
%ADD172R,2.4240X0.4850*%
%ADD173R,0.9700X0.4850*%
%ADD174R,0.4850X0.4850*%
%ADD175R,1.4540X0.4850*%
%ADD176R,0.4850X0.4840*%
%ADD177R,2.4240X0.4840*%
%ADD178R,2.9090X0.4850*%
%ADD179R,0.9690X0.4850*%
%ADD180R,0.4840X0.4850*%
%ADD181R,1.9400X0.4850*%
%ADD182R,1.9390X0.4850*%
%ADD183R,2.4240X0.4850*%
%ADD184R,1.4550X0.4840*%
%ADD185R,2.9090X0.4840*%
%ADD186R,1.4550X0.4840*%
%ADD187R,3.3940X0.4850*%
%ADD188R,2.9090X0.4850*%
%ADD189R,0.9700X0.4850*%
%ADD190R,1.9390X0.4850*%
%ADD191R,2.4240X0.4850*%
%ADD192R,0.9700X0.4840*%
%ADD193R,2.4240X0.4840*%
G36*
X1132840Y886460D02*
X1133196Y886460D01*
X1133905Y886404D01*
X1134608Y886293D01*
X1135300Y886127D01*
X1135977Y885907D01*
X1136634Y885635D01*
X1137268Y885312D01*
X1137875Y884940D01*
X1138450Y884521D01*
X1138992Y884059D01*
X1139495Y883556D01*
X1139957Y883015D01*
X1140375Y882439D01*
X1140747Y881833D01*
X1141070Y881199D01*
X1141342Y880541D01*
X1141562Y879865D01*
X1141728Y879173D01*
X1141840Y878470D01*
X1141895Y877760D01*
X1141895Y877405D01*
X1141895Y877049D01*
X1141840Y876339D01*
X1141728Y875637D01*
X1141562Y874945D01*
X1141342Y874268D01*
X1141070Y873611D01*
X1140747Y872977D01*
X1140375Y872370D01*
X1139957Y871794D01*
X1139495Y871253D01*
X1138991Y870750D01*
X1138450Y870288D01*
X1137875Y869870D01*
X1137268Y869498D01*
X1136634Y869175D01*
X1135977Y868902D01*
X1135300Y868682D01*
X1134608Y868516D01*
X1133905Y868405D01*
X1133196Y868349D01*
X1130040D01*
Y873444D01*
X1130542Y872942D01*
X1130660Y872829D01*
X1130911Y872623D01*
X1131182Y872442D01*
X1131469Y872289D01*
X1131770Y872164D01*
X1132081Y872069D01*
X1132401Y872006D01*
X1132725Y871974D01*
X1132887Y871970D01*
X1133338D01*
X1133557Y871975D01*
X1133992Y872018D01*
X1134422Y872104D01*
X1134840Y872231D01*
X1135245Y872398D01*
X1135631Y872605D01*
X1135994Y872848D01*
X1136333Y873125D01*
X1136491Y873276D01*
X1136663Y873457D01*
X1136980Y873842D01*
X1137256Y874257D01*
X1137492Y874697D01*
X1137682Y875157D01*
X1137827Y875634D01*
X1137924Y876123D01*
X1137973Y876619D01*
X1137979Y876869D01*
X1137979Y876869D01*
Y877654D01*
X1137973Y877919D01*
X1137921Y878447D01*
X1137817Y878967D01*
X1137663Y879475D01*
X1137460Y879965D01*
X1137210Y880433D01*
X1136916Y880874D01*
X1136579Y881284D01*
X1136396Y881476D01*
X1136257Y881609D01*
X1135959Y881853D01*
X1135640Y882067D01*
X1135301Y882248D01*
X1134945Y882395D01*
X1134577Y882507D01*
X1134200Y882582D01*
X1133817Y882619D01*
X1133625Y882624D01*
Y882624D01*
X1133204Y882624D01*
X1133002Y882619D01*
X1132600Y882580D01*
X1132205Y882501D01*
X1131818Y882384D01*
X1131446Y882229D01*
X1131090Y882039D01*
X1130754Y881815D01*
X1130442Y881559D01*
X1130296Y881420D01*
X1130296Y881420D01*
X1130040Y881163D01*
X1130040Y882533D01*
X1126605D01*
Y868349D01*
X1095087D01*
X1094733Y868349D01*
X1094025Y868405D01*
X1093324Y868516D01*
X1092634Y868682D01*
X1091959Y868901D01*
X1091303Y869173D01*
X1090671Y869495D01*
X1090066Y869866D01*
X1089491Y870283D01*
X1088952Y870744D01*
X1088450Y871246D01*
X1087989Y871785D01*
X1087572Y872359D01*
X1087201Y872965D01*
X1086879Y873597D01*
X1086607Y874253D01*
X1086388Y874928D01*
X1086222Y875618D01*
X1086111Y876319D01*
X1086055Y877026D01*
X1086055Y877381D01*
X1086055Y877738D01*
X1086111Y878449D01*
X1086223Y879154D01*
X1086389Y879847D01*
X1086610Y880526D01*
X1086883Y881185D01*
X1087207Y881821D01*
X1087579Y882429D01*
X1087999Y883006D01*
X1088462Y883549D01*
X1088967Y884053D01*
X1089509Y884517D01*
X1090086Y884936D01*
X1090695Y885309D01*
X1091330Y885632D01*
X1091989Y885906D01*
X1092668Y886126D01*
X1093362Y886292D01*
X1094066Y886404D01*
X1094777Y886460D01*
X1095134Y886460D01*
Y886460D01*
X1132840Y886460D01*
D02*
G37*
G36*
X716280Y876300D02*
X665480D01*
Y891540D01*
X716280D01*
Y876300D01*
D02*
G37*
G36*
X1133546Y879529D02*
X1134175Y878900D01*
X1134516Y878078D01*
Y877633D01*
Y876897D01*
Y876452D01*
X1134175Y875630D01*
X1133546Y875000D01*
X1132723Y874660D01*
X1131837D01*
X1131022Y874997D01*
X1130398Y875621D01*
X1130060Y876436D01*
Y876878D01*
X1130081Y877826D01*
Y878227D01*
X1130389Y878970D01*
X1130957Y879538D01*
X1131700Y879846D01*
X1132521D01*
X1132278Y879870D01*
X1132723D01*
X1133546Y879529D01*
D02*
G37*
G36*
X1103348Y799279D02*
X1110025Y797952D01*
X1116540Y795979D01*
X1119685Y794678D01*
X1119685D01*
X1120075Y794517D01*
X1120701Y793950D01*
X1121099Y793206D01*
X1121223Y792371D01*
X1121058Y791544D01*
X1120625Y790820D01*
X1119972Y790284D01*
X1119178Y790000D01*
X1118756D01*
X1115807Y791764D01*
X1109645Y794803D01*
X1103192Y797162D01*
X1096522Y798812D01*
X1093131Y799366D01*
X1093017Y799381D01*
X1092872Y799559D01*
X1092887Y799788D01*
X1093055Y799945D01*
X1093170Y799945D01*
X1096573Y799945D01*
X1103348Y799279D01*
D02*
G37*
G36*
X1125000Y752500D02*
X1090500D01*
Y757500D01*
X1125000D01*
Y752500D01*
D02*
G37*
G36*
X918105Y749300D02*
X918105Y749300D01*
X917772Y749275D01*
X917107Y749211D01*
X916444Y749129D01*
X915785Y749027D01*
X915128Y748906D01*
X914475Y748766D01*
X913826Y748607D01*
X913182Y748430D01*
X912544Y748234D01*
X911911Y748020D01*
X911285Y747788D01*
X910666Y747538D01*
X910054Y747270D01*
X909451Y746984D01*
X908856Y746681D01*
X908270Y746361D01*
X907693Y746024D01*
X907126Y745671D01*
X906570Y745302D01*
X906025Y744916D01*
X905491Y744515D01*
X904968Y744099D01*
X904458Y743668D01*
X903961Y743222D01*
X903477Y742762D01*
X903006Y742289D01*
X902549Y741802D01*
X902107Y741302D01*
X901679Y740789D01*
X901266Y740264D01*
X900868Y739728D01*
X900486Y739180D01*
X900120Y738622D01*
X899770Y738053D01*
X899437Y737474D01*
X899121Y736886D01*
X898821Y736289D01*
X898540Y735683D01*
X898275Y735070D01*
X898029Y734449D01*
X897801Y733822D01*
X897590Y733188D01*
X897398Y732549D01*
X897225Y731904D01*
X897071Y731254D01*
X896935Y730600D01*
X896818Y729943D01*
X896720Y729282D01*
X896642Y728619D01*
X896582Y727954D01*
X896542Y727287D01*
X896521Y726620D01*
X896518Y726286D01*
X896506Y725955D01*
X896496Y725293D01*
X896506Y724631D01*
X896536Y723969D01*
X896586Y723309D01*
X896655Y722650D01*
X896743Y721994D01*
X896852Y721340D01*
X896979Y720691D01*
X897126Y720045D01*
X897292Y719404D01*
X897477Y718768D01*
X897680Y718138D01*
X897903Y717514D01*
X898143Y716897D01*
X898402Y716288D01*
X898679Y715686D01*
X898974Y715093D01*
X899286Y714509D01*
X899615Y713934D01*
X899962Y713370D01*
X900325Y712816D01*
X900704Y712273D01*
X901099Y711742D01*
X901510Y711223D01*
X901936Y710715D01*
X902377Y710221D01*
X902832Y709741D01*
X903302Y709274D01*
X903785Y708821D01*
X904281Y708382D01*
X904790Y707959D01*
X905312Y707551D01*
X905845Y707159D01*
X906390Y706782D01*
X906946Y706422D01*
X907512Y706079D01*
X908089Y705752D01*
X908674Y705443D01*
X909269Y705152D01*
X909872Y704878D01*
X910482Y704622D01*
X911101Y704385D01*
X911726Y704166D01*
X912357Y703965D01*
X912994Y703784D01*
X913636Y703621D01*
X914282Y703478D01*
X914933Y703354D01*
X915586Y703249D01*
X916243Y703164D01*
X916902Y703098D01*
X917232Y703073D01*
X898600Y680300D01*
X863600Y729300D01*
Y749300D01*
X918105Y749300D01*
D02*
G37*
G36*
X939600Y674300D02*
X907600D01*
X934600Y707300D01*
Y712300D01*
X920345D01*
X919835Y712320D01*
X919325Y712360D01*
X918819Y712420D01*
X918314Y712500D01*
X917813Y712600D01*
X917317Y712719D01*
X916825Y712857D01*
X916340Y713015D01*
X915861Y713192D01*
X915389Y713387D01*
X914926Y713601D01*
X914471Y713833D01*
X914025Y714082D01*
X913590Y714349D01*
X913165Y714633D01*
X912752Y714933D01*
X912351Y715249D01*
X911963Y715581D01*
X911588Y715927D01*
X911227Y716288D01*
X910881Y716663D01*
X910549Y717051D01*
X910233Y717452D01*
X909933Y717865D01*
X909649Y718290D01*
X909382Y718725D01*
X909133Y719171D01*
X908901Y719625D01*
X908687Y720089D01*
X908492Y720561D01*
X908315Y721040D01*
X908157Y721525D01*
X908019Y722017D01*
X907900Y722513D01*
X907800Y723014D01*
X907720Y723519D01*
X907660Y724025D01*
X907620Y724535D01*
X907600Y725045D01*
Y725300D01*
Y725555D01*
X907620Y726065D01*
X907660Y726574D01*
X907720Y727082D01*
X907800Y727586D01*
X907900Y728086D01*
X908019Y728583D01*
X908157Y729074D01*
X908315Y729560D01*
X908492Y730039D01*
X908687Y730511D01*
X908901Y730974D01*
X909133Y731429D01*
X909382Y731875D01*
X909649Y732310D01*
X909933Y732735D01*
X910233Y733148D01*
X910549Y733549D01*
X910881Y733937D01*
X911227Y734312D01*
X911588Y734673D01*
X911963Y735019D01*
X912351Y735351D01*
X912752Y735667D01*
X913165Y735967D01*
X913590Y736251D01*
X914025Y736518D01*
X914471Y736767D01*
X914926Y736999D01*
X915389Y737213D01*
X915861Y737408D01*
X916340Y737585D01*
X916825Y737743D01*
X917317Y737881D01*
X917813Y738000D01*
X918314Y738100D01*
X918819Y738180D01*
X919325Y738240D01*
X919835Y738280D01*
X920345Y738300D01*
X939600D01*
Y674300D01*
D02*
G37*
G36*
X889600D02*
X863600D01*
Y710300D01*
X889600Y674300D01*
D02*
G37*
G36*
X965600Y647300D02*
X961600D01*
Y655300D01*
X948600D01*
X943600Y647300D01*
X938600D01*
X943600Y655300D01*
X943460D01*
X943180Y655316D01*
X942901Y655347D01*
X942624Y655394D01*
X942351Y655457D01*
X942081Y655534D01*
X941816Y655627D01*
X941557Y655734D01*
X941304Y655856D01*
X941059Y655992D01*
X940821Y656141D01*
X940592Y656303D01*
X940373Y656478D01*
X940164Y656665D01*
X939965Y656864D01*
X939778Y657073D01*
X939603Y657292D01*
X939441Y657521D01*
X939292Y657759D01*
X939156Y658004D01*
X939034Y658257D01*
X938927Y658516D01*
X938834Y658781D01*
X938757Y659051D01*
X938694Y659324D01*
X938647Y659601D01*
X938616Y659880D01*
X938600Y660160D01*
Y660300D01*
X938600Y660468D01*
X938619Y660804D01*
X938656Y661139D01*
X938713Y661471D01*
X938788Y661799D01*
X938881Y662123D01*
X938992Y662440D01*
X939121Y662752D01*
X939267Y663055D01*
X939430Y663350D01*
X939609Y663635D01*
X939804Y663909D01*
X940014Y664173D01*
X940238Y664424D01*
X940476Y664662D01*
X940727Y664886D01*
X940991Y665096D01*
X941265Y665291D01*
X941550Y665470D01*
X941845Y665633D01*
X942148Y665779D01*
X942459Y665908D01*
X942777Y666019D01*
X943101Y666112D01*
X943429Y666187D01*
X943761Y666243D01*
X944095Y666281D01*
X944432Y666300D01*
X944600Y666300D01*
X965600Y666300D01*
Y647300D01*
D02*
G37*
G36*
X923100Y666300D02*
X923254Y666300D01*
X923562Y666283D01*
X923869Y666248D01*
X924174Y666196D01*
X924474Y666128D01*
X924771Y666042D01*
X925062Y665940D01*
X925347Y665822D01*
X925625Y665688D01*
X925896Y665539D01*
X926157Y665375D01*
X926409Y665196D01*
X926650Y665004D01*
X926880Y664798D01*
X927098Y664580D01*
X927304Y664350D01*
X927496Y664108D01*
X927675Y663857D01*
X927839Y663595D01*
X927988Y663325D01*
X928122Y663047D01*
X928240Y662762D01*
X928342Y662471D01*
X928428Y662174D01*
X928473Y661975D01*
X928598Y660813D01*
X928600Y660800D01*
X928600Y660800D01*
X928473Y659566D01*
X928412Y659301D01*
X928319Y658977D01*
X928208Y658659D01*
X928079Y658348D01*
X927933Y658045D01*
X927770Y657750D01*
X927591Y657465D01*
X927396Y657190D01*
X927186Y656927D01*
X926962Y656676D01*
X926724Y656438D01*
X926472Y656214D01*
X926209Y656004D01*
X925935Y655809D01*
X925650Y655630D01*
X925355Y655467D01*
X925051Y655321D01*
X924741Y655192D01*
X924423Y655081D01*
X924099Y654988D01*
X923819Y654924D01*
X922600Y654800D01*
Y654800D01*
X907100Y654800D01*
X907016Y654798D01*
X906849Y654784D01*
X906683Y654756D01*
X906520Y654714D01*
X906362Y654659D01*
X906208Y654590D01*
X906061Y654509D01*
X905921Y654416D01*
X905790Y654311D01*
X905668Y654196D01*
X905555Y654071D01*
X905454Y653937D01*
X905365Y653795D01*
X905287Y653645D01*
X905223Y653490D01*
X905172Y653330D01*
X905151Y653249D01*
X905153Y653153D01*
X905172Y652963D01*
X905209Y652775D01*
X905265Y652592D01*
X905338Y652416D01*
X905428Y652247D01*
X905535Y652088D01*
X905656Y651940D01*
X905791Y651805D01*
X905939Y651684D01*
X906098Y651577D01*
X906267Y651487D01*
X906443Y651414D01*
X906626Y651358D01*
X906814Y651321D01*
X907004Y651302D01*
X907100Y651300D01*
X907100Y651300D01*
X928600Y651300D01*
Y647300D01*
X907100Y647300D01*
X906932Y647300D01*
X906596Y647319D01*
X906261Y647356D01*
X905929Y647413D01*
X905601Y647488D01*
X905277Y647581D01*
X904959Y647692D01*
X904648Y647821D01*
X904345Y647967D01*
X904050Y648130D01*
X903765Y648309D01*
X903491Y648504D01*
X903227Y648714D01*
X902976Y648938D01*
X902738Y649176D01*
X902514Y649427D01*
X902304Y649691D01*
X902109Y649965D01*
X901930Y650250D01*
X901767Y650545D01*
X901621Y650848D01*
X901492Y651159D01*
X901381Y651477D01*
X901288Y651801D01*
X901213Y652129D01*
X901156Y652461D01*
X901119Y652795D01*
X901100Y653132D01*
X901100Y653300D01*
X901100Y653454D01*
X901117Y653762D01*
X901152Y654069D01*
X901204Y654373D01*
X901272Y654674D01*
X901358Y654971D01*
X901460Y655262D01*
X901578Y655547D01*
X901712Y655825D01*
X901861Y656096D01*
X902025Y656357D01*
X902204Y656609D01*
X902396Y656850D01*
X902602Y657080D01*
X902820Y657298D01*
X903050Y657504D01*
X903291Y657696D01*
X903543Y657875D01*
X903804Y658039D01*
X904075Y658188D01*
X904353Y658322D01*
X904638Y658440D01*
X904929Y658542D01*
X905226Y658628D01*
X905527Y658696D01*
X905831Y658748D01*
X906137Y658783D01*
X906446Y658800D01*
X906600Y658800D01*
X906600Y658800D01*
X922100D01*
X922198Y658802D01*
X922393Y658822D01*
X922586Y658860D01*
X922774Y658917D01*
X922955Y658992D01*
X923128Y659084D01*
X923291Y659193D01*
X923443Y659318D01*
X923582Y659457D01*
X923706Y659609D01*
X923815Y659772D01*
X923908Y659945D01*
X923983Y660126D01*
X924040Y660314D01*
X924078Y660507D01*
X924098Y660702D01*
X924100Y660800D01*
X924100Y660800D01*
X924100Y660800D01*
X924098Y660874D01*
X924084Y661020D01*
X924055Y661164D01*
X924012Y661305D01*
X923956Y661441D01*
X923956Y661441D01*
X923887Y661571D01*
X923887Y661571D01*
X923805Y661693D01*
X923805Y661693D01*
X923711Y661807D01*
X923711Y661807D01*
X923607Y661911D01*
X923494Y662005D01*
X923371Y662087D01*
X923241Y662156D01*
X923105Y662212D01*
X922964Y662255D01*
X922820Y662284D01*
X922674Y662298D01*
X922600Y662300D01*
X901100D01*
Y666300D01*
X923100Y666300D01*
D02*
G37*
G36*
X869100Y654800D02*
X861100D01*
Y658800D01*
X869100D01*
Y654800D01*
D02*
G37*
G36*
X851600Y647300D02*
X846100D01*
X835100Y666300D01*
X840100D01*
X848600Y651300D01*
X857600Y666300D01*
X862600D01*
X851600Y647300D01*
D02*
G37*
G36*
X889600Y666300D02*
X889807Y666300D01*
X890221Y666282D01*
X890635Y666246D01*
X891046Y666192D01*
X891454Y666120D01*
X891859Y666030D01*
X892259Y665923D01*
X892654Y665798D01*
X893044Y665656D01*
X893427Y665497D01*
X893803Y665322D01*
X894170Y665131D01*
X894529Y664923D01*
X894879Y664701D01*
X895219Y664463D01*
X895548Y664211D01*
X895865Y663944D01*
X896171Y663664D01*
X896464Y663371D01*
X896744Y663065D01*
X897011Y662748D01*
X897263Y662419D01*
X897501Y662079D01*
X897724Y661730D01*
X897931Y661370D01*
X898122Y661003D01*
X898298Y660627D01*
X898456Y660244D01*
X898598Y659854D01*
X898723Y659459D01*
X898830Y659059D01*
X898920Y658654D01*
X898992Y658245D01*
X899046Y657834D01*
X899082Y657421D01*
X899100Y657007D01*
X899100Y656800D01*
X899100Y656800D01*
X899019Y655563D01*
X898992Y655354D01*
X898920Y654946D01*
X898830Y654541D01*
X898723Y654141D01*
X898598Y653746D01*
X898456Y653356D01*
X898298Y652973D01*
X898122Y652597D01*
X897931Y652230D01*
X897724Y651870D01*
X897501Y651521D01*
X897263Y651181D01*
X897011Y650852D01*
X896744Y650535D01*
X896464Y650229D01*
X896171Y649936D01*
X895865Y649656D01*
X895548Y649389D01*
X895219Y649137D01*
X894879Y648899D01*
X894529Y648676D01*
X894170Y648469D01*
X893803Y648278D01*
X893427Y648102D01*
X893044Y647944D01*
X892654Y647802D01*
X892259Y647677D01*
X891859Y647570D01*
X891454Y647480D01*
X891046Y647408D01*
X890836Y647381D01*
X889600Y647300D01*
X889600Y647300D01*
X889600Y647300D01*
X871600D01*
Y651300D01*
X889600D01*
X889750Y651302D01*
X890049Y651320D01*
X890346Y651356D01*
X890640Y651409D01*
X890931Y651480D01*
X891217Y651569D01*
X891497Y651674D01*
X891771Y651796D01*
X892036Y651934D01*
X892293Y652087D01*
X892541Y652256D01*
X892777Y652439D01*
X893003Y652636D01*
X893216Y652847D01*
X893416Y653069D01*
X893602Y653303D01*
X893774Y653548D01*
X893932Y653803D01*
X894073Y654066D01*
X894199Y654338D01*
X894308Y654617D01*
X894400Y654902D01*
X894475Y655191D01*
X894533Y655485D01*
X894573Y655782D01*
X894595Y656080D01*
X894599Y656380D01*
X894585Y656679D01*
X894572Y656828D01*
X894570Y656967D01*
X894554Y657246D01*
X894523Y657523D01*
X894476Y657798D01*
X894414Y658070D01*
X894337Y658338D01*
X894245Y658601D01*
X894138Y658859D01*
X894017Y659110D01*
X893882Y659354D01*
X893734Y659590D01*
X893573Y659818D01*
X893399Y660036D01*
X893213Y660244D01*
X893016Y660441D01*
X892808Y660627D01*
X892590Y660801D01*
X892362Y660962D01*
X892126Y661110D01*
X891882Y661245D01*
X891631Y661366D01*
X891373Y661473D01*
X891110Y661565D01*
X890842Y661642D01*
X890570Y661704D01*
X890570Y661704D01*
X890295Y661751D01*
X890294Y661751D01*
X890018Y661782D01*
X890016Y661782D01*
X889739Y661798D01*
X889602Y661800D01*
X889600Y661800D01*
X889600Y661800D01*
X889600Y661800D01*
X871600D01*
Y666300D01*
X889600Y666300D01*
D02*
G37*
G36*
X935600Y647300D02*
X931100D01*
Y666300D01*
X935600D01*
Y647300D01*
D02*
G37*
G36*
X1044374Y754060D02*
X1031857Y741025D01*
X1031486Y737469D01*
X1030672Y728952D01*
X1030079Y722804D01*
X1043485Y708954D01*
X1042596Y708065D01*
X1029931Y721027D01*
X1029190Y713102D01*
X1028820D01*
Y710065D01*
X1026005D01*
Y713102D01*
X1017266D01*
X1016969Y712509D01*
X1016525Y711917D01*
X1015932Y711250D01*
X1015118Y710657D01*
X1014155Y710361D01*
X1013266Y710287D01*
X1012377D01*
X1011711Y710509D01*
X1010896Y710806D01*
X1010229Y711250D01*
X1009711Y711768D01*
X1009192Y712509D01*
X1008822Y713324D01*
X1008600Y714064D01*
X1008526Y714731D01*
X1008600Y715472D01*
X1008748Y716064D01*
X1008970Y716657D01*
X1009266Y717249D01*
X1009637Y717768D01*
X1010155Y718286D01*
X1010748Y718657D01*
X1011266Y718879D01*
X1011192Y719545D01*
X1000082Y708065D01*
X999193Y709028D01*
X1011044Y721323D01*
X1010081Y732063D01*
X1009415Y739840D01*
X1005859D01*
Y744802D01*
X1006822D01*
X997786Y754060D01*
X998749Y754949D01*
X1007193Y746209D01*
Y746876D01*
X1007044Y747024D01*
X1006822Y747172D01*
X1006600Y747394D01*
X1006378Y747617D01*
X1006230Y747987D01*
X1006156Y748283D01*
X1006082Y748653D01*
X1006156Y749098D01*
X1006304Y749394D01*
X1006600Y749913D01*
X1006970Y750209D01*
X1007489Y750431D01*
X1008007Y750505D01*
X1008526Y750431D01*
X1008970Y750283D01*
X1009341Y750061D01*
X1009489Y749838D01*
X1009859Y750135D01*
X1010377Y750505D01*
X1011044Y750801D01*
X1012007Y751172D01*
X1013044Y751468D01*
X1014081Y751690D01*
X1015192Y751912D01*
X1016080Y751986D01*
Y753098D01*
X1023191D01*
Y752135D01*
X1023783D01*
X1024672Y752060D01*
X1025635Y751912D01*
X1026598Y751764D01*
Y752357D01*
X1029635D01*
Y750949D01*
X1030005Y750727D01*
X1030524Y750505D01*
X1031042Y750209D01*
X1031486Y749913D01*
X1031931Y749542D01*
X1032227Y749246D01*
X1032375Y749024D01*
X1032523Y748727D01*
X1032449Y748209D01*
X1034227D01*
Y745913D01*
X1032301D01*
X1032005Y743024D01*
X1043485Y754949D01*
X1044374Y754060D01*
D02*
G37*
G36*
X1041708Y697844D02*
Y697696D01*
Y697400D01*
Y697103D01*
Y696807D01*
Y696511D01*
Y696363D01*
Y696289D01*
Y695104D01*
Y693992D01*
Y693474D01*
Y693104D01*
Y692881D01*
Y692807D01*
Y691474D01*
Y690882D01*
Y690363D01*
Y689919D01*
Y689622D01*
Y689400D01*
Y689326D01*
Y688808D01*
Y688438D01*
Y688141D01*
Y687993D01*
Y687771D01*
X1001193D01*
Y687845D01*
Y687993D01*
Y688586D01*
Y689104D01*
Y689252D01*
Y689326D01*
Y690511D01*
Y691622D01*
Y692141D01*
Y692511D01*
Y692733D01*
Y692807D01*
Y694141D01*
Y694733D01*
Y695252D01*
Y695696D01*
Y695992D01*
Y696215D01*
Y696289D01*
Y696807D01*
Y697251D01*
Y697548D01*
Y697696D01*
Y697844D01*
Y697918D01*
X1041708D01*
Y697844D01*
D02*
G37*
G36*
X1115555Y745587D02*
Y745402D01*
Y745217D01*
X1117592Y735403D01*
Y735033D01*
X1117777Y734847D01*
X1117962D01*
X1124628Y732070D01*
X1125369D01*
X1133516Y737995D01*
X1134072D01*
X1134257Y737810D01*
X1141478Y730959D01*
Y730774D01*
Y730589D01*
Y730404D01*
Y730218D01*
X1135738Y721886D01*
Y721701D01*
Y721516D01*
Y721330D01*
Y721145D01*
X1138516Y714294D01*
X1139071Y713924D01*
X1139256D01*
X1148700Y712257D01*
X1148885D01*
X1149070Y712072D01*
Y711887D01*
Y711702D01*
Y701888D01*
Y701518D01*
X1148885Y701332D01*
X1148700D01*
X1139441Y699481D01*
X1139256D01*
X1139071Y699296D01*
Y699110D01*
Y698925D01*
X1135923Y691704D01*
Y691519D01*
Y691333D01*
Y691148D01*
Y690963D01*
X1141478Y683186D01*
Y683001D01*
Y682816D01*
Y682631D01*
X1134257Y675594D01*
X1133886Y675409D01*
X1133701D01*
X1133516Y675594D01*
X1125924Y680779D01*
X1125369D01*
X1122036Y678927D01*
X1121480Y679113D01*
X1121295D01*
X1114444Y695963D01*
Y696518D01*
X1114629Y696703D01*
X1115555Y697074D01*
Y697259D01*
X1115740D01*
X1115925Y697444D01*
X1116111Y697629D01*
X1117777Y698925D01*
X1119073Y700221D01*
X1119814Y701703D01*
X1120555Y703184D01*
X1120925Y704480D01*
X1121110Y705591D01*
Y706332D01*
Y706517D01*
X1120925Y708184D01*
X1120555Y709665D01*
X1120184Y710961D01*
X1119444Y712072D01*
X1118888Y712998D01*
X1118518Y713739D01*
X1118147Y714109D01*
X1117962Y714294D01*
X1116666Y715405D01*
X1115370Y716146D01*
X1114074Y716886D01*
X1112777Y717257D01*
X1111852Y717442D01*
X1110926Y717627D01*
X1110185D01*
X1108519Y717442D01*
X1107037Y717072D01*
X1105741Y716516D01*
X1104630Y715961D01*
X1103704Y715405D01*
X1102964Y714850D01*
X1102593Y714479D01*
X1102408Y714294D01*
X1101297Y712998D01*
X1100556Y711702D01*
X1100001Y710406D01*
X1099631Y709295D01*
X1099445Y708184D01*
X1099260Y707258D01*
Y706702D01*
Y706517D01*
X1099445Y704480D01*
X1100001Y702629D01*
X1100927Y701147D01*
X1101667Y699851D01*
X1102593Y698925D01*
X1103519Y698185D01*
X1104075Y697814D01*
X1104260Y697629D01*
X1104445Y697444D01*
X1104630Y697259D01*
X1104815Y697074D01*
X1105741Y696703D01*
X1105926Y696148D01*
Y695963D01*
X1098890Y679113D01*
X1098705Y678927D01*
X1098335D01*
X1095187Y680779D01*
X1094446D01*
X1086854Y675594D01*
X1086484Y675409D01*
X1086299D01*
X1086114Y675594D01*
X1079077Y682631D01*
Y682816D01*
Y683186D01*
X1084447Y690963D01*
Y691148D01*
Y691333D01*
Y691519D01*
Y691704D01*
X1081299Y698925D01*
Y699296D01*
X1081114Y699481D01*
X1080929D01*
X1071671Y701332D01*
X1071486Y701518D01*
X1071300Y701703D01*
Y701888D01*
Y711702D01*
Y712072D01*
X1071486Y712257D01*
X1071671D01*
X1081114Y713924D01*
X1081484D01*
X1081670Y714109D01*
Y714294D01*
X1084632Y721145D01*
Y721330D01*
Y721516D01*
Y721886D01*
X1079077Y730218D01*
Y730404D01*
Y730589D01*
Y730774D01*
Y730959D01*
X1086114Y737810D01*
X1086484Y737995D01*
X1086854D01*
X1095187Y732070D01*
X1095742D01*
X1102408Y734847D01*
X1102593Y735033D01*
X1102778Y735218D01*
Y735403D01*
X1104815Y745217D01*
Y745587D01*
X1105001Y745772D01*
X1115370D01*
X1115555Y745587D01*
D02*
G37*
G36*
X1149811Y640413D02*
X1147959D01*
Y646523D01*
X1147774Y647264D01*
X1147589Y648005D01*
X1146848Y648560D01*
X1146292Y648931D01*
X1145922D01*
X1145182Y648745D01*
X1144626Y648560D01*
X1143885Y647820D01*
X1143700Y646894D01*
Y646709D01*
Y646523D01*
Y640413D01*
X1141663D01*
Y647264D01*
X1141849Y648375D01*
X1142219Y649301D01*
X1142774Y649856D01*
X1143330Y650412D01*
X1144626Y650782D01*
X1145182D01*
X1146478Y650597D01*
X1147403Y650227D01*
X1147774Y649856D01*
X1147959Y649671D01*
Y657819D01*
X1146848Y657263D01*
X1145922Y656893D01*
X1145367Y656708D01*
X1145182D01*
X1144071Y656893D01*
X1143145Y657448D01*
X1142404Y658004D01*
X1142219Y658189D01*
X1142034Y658559D01*
X1141849Y659115D01*
X1141663Y660411D01*
Y661522D01*
Y661892D01*
Y662077D01*
Y663929D01*
X1141849Y665225D01*
X1142034Y665966D01*
X1142219Y666151D01*
X1143145Y666892D01*
X1144256Y667262D01*
X1144811Y667447D01*
X1145182D01*
X1146292Y667262D01*
X1147218Y666892D01*
X1147774Y666336D01*
X1147959Y666151D01*
Y667447D01*
X1149811D01*
Y640413D01*
D02*
G37*
G36*
X1129813Y656893D02*
X1127591D01*
Y663188D01*
X1127406Y663929D01*
X1127220Y664484D01*
X1126480Y665225D01*
X1125924Y665410D01*
X1124813D01*
X1124258Y665040D01*
X1123517Y664299D01*
X1123332Y663559D01*
Y663373D01*
Y663188D01*
Y656893D01*
X1121295D01*
Y663744D01*
X1121480Y665040D01*
X1121851Y665966D01*
X1122406Y666521D01*
X1122962Y667077D01*
X1124258Y667447D01*
X1124813D01*
X1126109Y667262D01*
X1127035Y666892D01*
X1127406Y666336D01*
X1127591Y666151D01*
Y667447D01*
X1129813D01*
Y656893D01*
D02*
G37*
G36*
X1084447D02*
X1082225D01*
Y663188D01*
X1082040Y663929D01*
X1081855Y664484D01*
X1081114Y665225D01*
X1080559Y665410D01*
X1080188D01*
X1079818Y665225D01*
X1079448Y665040D01*
X1079077Y664855D01*
Y664670D01*
X1077411Y666706D01*
X1078151Y667077D01*
X1078892Y667447D01*
X1079448D01*
X1080744Y667262D01*
X1081670Y666892D01*
X1082040Y666336D01*
X1082225Y666151D01*
Y667447D01*
X1084447D01*
Y656893D01*
D02*
G37*
G36*
X1095187Y660226D02*
X1095002Y659115D01*
X1094631Y658189D01*
X1094076Y657633D01*
X1093335Y657078D01*
X1092039Y656708D01*
X1091483D01*
X1090558Y656893D01*
X1089632Y657263D01*
X1089076Y657633D01*
X1088891Y657819D01*
Y656893D01*
X1086854D01*
Y667447D01*
X1088891D01*
Y661152D01*
Y660411D01*
X1089261Y659855D01*
X1089817Y659300D01*
X1090372Y658930D01*
X1090743D01*
X1091483Y659115D01*
X1092039Y659300D01*
X1092594Y660041D01*
X1092965Y660781D01*
Y661152D01*
Y667447D01*
X1095187D01*
Y660226D01*
D02*
G37*
G36*
X1074448Y667262D02*
X1075559Y666706D01*
X1076485Y665781D01*
X1077040Y664855D01*
X1077411Y663744D01*
X1077596Y663003D01*
Y662262D01*
Y662077D01*
X1077411Y660226D01*
X1076855Y658930D01*
X1076115Y658004D01*
X1075189Y657448D01*
X1074263Y657078D01*
X1073522Y656708D01*
X1072782D01*
X1071300Y657078D01*
X1070004Y657633D01*
X1069264Y658189D01*
X1069078Y658559D01*
X1070745Y660041D01*
X1071486Y659485D01*
X1072041Y659115D01*
X1072597Y658930D01*
X1072782D01*
X1073708Y659115D01*
X1074448Y659485D01*
X1074818Y659855D01*
X1075189Y660596D01*
X1075559Y661522D01*
Y661892D01*
Y662077D01*
X1075374Y663188D01*
X1075189Y663929D01*
X1074633Y664670D01*
X1074078Y665040D01*
X1073152Y665410D01*
X1072782D01*
X1071856Y665225D01*
X1071300Y664855D01*
X1070930Y664484D01*
X1070745Y664299D01*
X1069078Y665781D01*
X1070375Y666706D01*
X1071486Y667262D01*
X1072411Y667447D01*
X1072782D01*
X1074448Y667262D01*
D02*
G37*
G36*
X1137405D02*
X1138330Y666706D01*
X1139071Y665781D01*
X1139626Y664855D01*
X1139997Y663744D01*
X1140182Y663003D01*
Y662262D01*
Y662077D01*
X1139997Y660226D01*
X1139441Y658930D01*
X1138701Y658004D01*
X1137775Y657448D01*
X1137034Y657078D01*
X1136294Y656708D01*
X1135553D01*
X1134072Y656893D01*
X1132775Y657633D01*
X1132035Y658189D01*
X1131664Y658374D01*
X1133331Y659855D01*
X1134072Y659115D01*
X1134812Y658744D01*
X1135368Y658559D01*
X1135738D01*
X1136479Y658744D01*
X1137034Y658930D01*
X1137775Y659855D01*
X1138145Y660781D01*
Y660966D01*
Y661152D01*
X1131479D01*
Y663188D01*
X1131664Y664670D01*
X1132220Y665595D01*
X1132961Y666336D01*
X1133701Y666892D01*
X1134442Y667262D01*
X1135183Y667447D01*
X1135923D01*
X1137405Y667262D01*
D02*
G37*
G36*
X1065930D02*
X1066856Y666706D01*
X1067597Y665781D01*
X1068152Y664855D01*
X1068523Y663744D01*
X1068708Y663003D01*
Y662262D01*
Y662077D01*
X1068523Y660226D01*
X1067967Y658930D01*
X1067227Y658004D01*
X1066301Y657448D01*
X1065375Y657078D01*
X1064634Y656708D01*
X1063894D01*
X1062412Y656893D01*
X1061301Y657633D01*
X1060561Y658189D01*
X1060190Y658374D01*
X1061857Y659855D01*
X1062412Y659115D01*
X1063153Y658744D01*
X1063708Y658559D01*
X1063894D01*
X1064819Y658744D01*
X1065375Y658930D01*
X1066116Y659855D01*
X1066486Y660781D01*
Y660966D01*
Y661152D01*
X1059820D01*
Y663188D01*
X1060005Y664670D01*
X1060561Y665595D01*
X1061301Y666336D01*
X1062042Y666892D01*
X1062968Y667262D01*
X1063708Y667447D01*
X1064449D01*
X1065930Y667262D01*
D02*
G37*
G36*
X1157402D02*
X1158328Y666892D01*
X1159069Y666336D01*
X1159254Y666151D01*
X1159810Y664855D01*
X1159995Y663559D01*
X1160180Y662448D01*
Y662262D01*
Y662077D01*
X1159995Y660411D01*
X1159624Y659115D01*
X1159439Y658374D01*
X1159254Y658189D01*
X1158143Y657263D01*
X1157032Y656893D01*
X1156292Y656708D01*
X1155921D01*
X1154625Y656893D01*
X1153699Y657448D01*
X1153144Y658004D01*
X1152959Y658189D01*
X1152218Y659300D01*
X1152033Y660596D01*
X1151848Y661707D01*
Y661892D01*
Y662077D01*
X1152033Y663929D01*
X1152403Y665225D01*
X1152773Y665966D01*
X1152959Y666151D01*
X1153699Y666892D01*
X1154625Y667262D01*
X1155551Y667447D01*
X1155921D01*
X1157402Y667262D01*
D02*
G37*
G36*
X1112407D02*
X1113333Y666892D01*
X1114074Y666521D01*
X1114444Y665966D01*
X1114999Y664855D01*
Y664484D01*
Y664299D01*
X1114814Y663373D01*
X1114444Y662633D01*
X1113518Y661707D01*
X1112407Y661337D01*
X1112222Y661152D01*
X1110185D01*
X1109259Y660781D01*
X1108889Y660411D01*
X1108704Y660226D01*
Y660041D01*
Y659485D01*
X1109074Y659115D01*
X1109815Y658744D01*
X1110555Y658559D01*
X1110926D01*
X1112222Y658744D01*
X1113333Y659300D01*
X1114074Y659855D01*
X1114259Y660041D01*
X1115555Y658559D01*
X1114074Y657448D01*
X1112592Y656893D01*
X1111481Y656708D01*
X1111111D01*
X1109630Y656893D01*
X1108519Y657263D01*
X1107778Y657819D01*
X1107223Y658374D01*
X1106852Y658930D01*
X1106667Y659485D01*
Y659855D01*
Y660041D01*
X1106852Y660966D01*
X1107037Y661707D01*
X1108148Y662633D01*
X1109074Y663003D01*
X1109445Y663188D01*
X1109630D01*
X1111666Y663373D01*
X1112407Y663559D01*
X1112777Y663929D01*
X1112963Y664114D01*
Y664299D01*
X1112592Y665040D01*
X1112037Y665225D01*
X1111481Y665410D01*
X1111111D01*
X1110370Y665225D01*
X1109445Y665040D01*
X1108704Y664670D01*
X1108334Y664484D01*
X1107037Y665966D01*
X1108334Y666892D01*
X1109630Y667262D01*
X1110741Y667447D01*
X1111111D01*
X1112407Y667262D01*
D02*
G37*
G36*
X1102593D02*
X1103704Y666892D01*
X1104260Y666336D01*
X1104445Y666151D01*
X1105001Y665040D01*
X1105371Y663559D01*
X1105556Y662448D01*
Y662262D01*
Y662077D01*
X1105371Y660411D01*
X1105001Y659115D01*
X1104630Y658374D01*
X1104445Y658189D01*
X1103334Y657263D01*
X1102408Y656893D01*
X1101667Y656708D01*
X1101297D01*
X1099816Y656893D01*
X1098890Y657448D01*
X1098335Y658004D01*
X1098149Y658189D01*
X1097409Y659300D01*
X1097224Y660596D01*
X1097038Y661707D01*
Y661892D01*
Y662077D01*
X1097224Y663929D01*
X1097594Y665225D01*
X1097964Y665966D01*
X1098149Y666151D01*
X1099075Y666892D01*
X1100001Y667262D01*
X1100927Y667447D01*
X1101297D01*
X1102593Y667262D01*
D02*
G37*
G36*
X1129257Y640413D02*
X1127220D01*
Y646523D01*
Y647264D01*
X1126850Y648005D01*
X1126295Y648560D01*
X1125739Y648931D01*
X1125369D01*
X1124813Y648745D01*
X1124258Y648560D01*
X1124073Y648375D01*
X1123887Y648190D01*
X1122221Y650042D01*
X1123147Y650412D01*
X1123887Y650782D01*
X1124628D01*
X1125739Y650597D01*
X1126480Y650227D01*
X1127035Y649856D01*
X1127220Y649671D01*
Y650782D01*
X1129257D01*
Y640413D01*
D02*
G37*
G36*
X1087039D02*
X1085003D01*
Y646523D01*
X1084817Y647264D01*
X1084632Y648005D01*
X1083892Y648560D01*
X1083336Y648931D01*
X1082966D01*
X1082595Y648745D01*
X1082040Y648560D01*
X1081855Y648375D01*
X1081670Y648190D01*
X1080003Y650042D01*
X1080744Y650412D01*
X1081484Y650782D01*
X1082040D01*
X1083336Y650597D01*
X1084262Y650227D01*
X1084817Y649856D01*
X1085003Y649671D01*
Y650782D01*
X1087039D01*
Y640413D01*
D02*
G37*
G36*
X1137590Y650597D02*
X1138701Y650227D01*
X1139441Y649671D01*
X1139626Y649486D01*
X1138145Y648190D01*
X1137405Y648560D01*
X1136664Y648931D01*
X1135183D01*
X1134812Y648745D01*
X1134072Y648190D01*
X1133886Y647634D01*
Y647449D01*
Y646523D01*
X1136664D01*
X1137775Y646338D01*
X1138701Y646153D01*
X1139256Y645598D01*
X1139812Y645042D01*
X1140182Y644116D01*
Y643746D01*
Y643561D01*
X1139997Y642450D01*
X1139626Y641709D01*
X1139071Y640968D01*
X1138330Y640598D01*
X1137034Y640228D01*
X1136479D01*
X1135183Y640413D01*
X1134442Y640783D01*
X1134072Y641153D01*
X1133886Y641339D01*
Y640413D01*
X1131664D01*
Y647449D01*
X1131850Y648560D01*
X1132405Y649301D01*
X1133146Y650042D01*
X1133886Y650412D01*
X1134627Y650597D01*
X1135368Y650782D01*
X1136108D01*
X1137590Y650597D01*
D02*
G37*
G36*
X1095372D02*
X1096483Y650227D01*
X1097038Y649671D01*
X1097224Y649486D01*
X1095557Y648190D01*
X1095187Y648560D01*
X1094446Y648931D01*
X1092965D01*
X1092409Y648745D01*
X1091669Y648190D01*
X1091483Y647634D01*
Y647449D01*
Y646523D01*
X1094446D01*
X1095557Y646338D01*
X1096483Y646153D01*
X1097038Y645598D01*
X1097594Y645042D01*
X1097964Y644116D01*
Y643746D01*
Y643561D01*
X1097779Y642450D01*
X1097409Y641709D01*
X1096668Y640968D01*
X1095927Y640598D01*
X1094631Y640228D01*
X1094076D01*
X1092965Y640413D01*
X1092039Y640783D01*
X1091669Y641153D01*
X1091483Y641339D01*
Y640413D01*
X1089447D01*
Y647449D01*
X1089632Y648560D01*
X1090187Y649301D01*
X1090743Y650042D01*
X1091483Y650412D01*
X1092409Y650597D01*
X1092965Y650782D01*
X1094631D01*
X1095372Y650597D01*
D02*
G37*
G36*
X1109445Y640413D02*
X1107593D01*
X1105556Y647820D01*
X1103149Y640413D01*
X1101297D01*
X1097964Y650782D01*
X1100186D01*
X1102223Y643561D01*
X1104445Y650782D01*
X1106112D01*
X1108519Y643561D01*
X1110741Y650782D01*
X1112777D01*
X1109445Y640413D01*
D02*
G37*
G36*
X1077226Y650597D02*
X1078151Y650042D01*
X1078892Y649116D01*
X1079448Y648190D01*
X1079818Y647264D01*
X1080003Y646338D01*
Y645783D01*
Y645598D01*
X1079818Y643746D01*
X1079262Y642450D01*
X1078522Y641524D01*
X1077596Y640968D01*
X1076670Y640598D01*
X1075929Y640228D01*
X1075189D01*
X1073708Y640413D01*
X1072597Y641153D01*
X1071856Y641709D01*
X1071486Y641894D01*
X1073152Y643190D01*
X1073893Y642635D01*
X1074633Y642264D01*
X1075189Y642079D01*
X1075559D01*
X1076300Y642264D01*
X1076855Y642450D01*
X1077411Y643375D01*
X1077781Y644301D01*
Y644486D01*
Y644672D01*
X1071300D01*
Y646523D01*
X1071486Y648005D01*
X1072041Y648931D01*
X1072782Y649671D01*
X1073522Y650227D01*
X1074263Y650597D01*
X1075004Y650782D01*
X1075744D01*
X1077226Y650597D01*
D02*
G37*
G36*
X1116111Y649671D02*
X1117036Y650412D01*
X1117777Y650597D01*
X1118518Y650782D01*
X1118703D01*
X1119999Y650597D01*
X1120925Y650227D01*
X1121295Y649856D01*
X1121480Y649671D01*
X1121665Y649301D01*
X1121851Y648745D01*
X1122036Y647449D01*
X1122221Y646153D01*
Y645783D01*
Y645598D01*
Y644486D01*
X1122036Y643561D01*
Y642820D01*
X1121851Y642264D01*
X1121665Y641709D01*
X1121480Y641524D01*
X1120740Y640783D01*
X1119814Y640413D01*
X1119073Y640228D01*
X1118703D01*
X1117592Y640413D01*
X1116851Y640783D01*
X1116296Y641153D01*
X1116111Y641339D01*
Y640413D01*
X1113888D01*
Y655041D01*
X1116111D01*
Y649671D01*
D02*
G37*
G36*
X1071789Y762320D02*
X1064430D01*
Y776296D01*
X1054897Y762320D01*
X1047493D01*
Y787680D01*
X1054897D01*
Y773612D01*
X1064523Y787680D01*
X1071789D01*
Y762320D01*
D02*
G37*
G36*
X971410D02*
X964052D01*
Y776296D01*
X954518Y762320D01*
X947114D01*
Y787680D01*
X954518D01*
Y773612D01*
X964144Y787680D01*
X971410D01*
Y762320D01*
D02*
G37*
G36*
X1014588Y768845D02*
X1004361D01*
Y774306D01*
X1014588D01*
Y768845D01*
D02*
G37*
G36*
X1000982Y772547D02*
X1000936Y771853D01*
X1000890Y771113D01*
X1000751Y770372D01*
X1000612Y769724D01*
X1000519Y769169D01*
X1000381Y768706D01*
X1000334Y768521D01*
Y768382D01*
X1000288Y768336D01*
Y768289D01*
X1000103Y767734D01*
X999825Y767179D01*
X999548Y766670D01*
X999270Y766253D01*
X999039Y765883D01*
X998807Y765559D01*
X998668Y765374D01*
X998622Y765328D01*
X998159Y764819D01*
X997697Y764402D01*
X997234Y764032D01*
X996817Y763708D01*
X996447Y763477D01*
X996169Y763291D01*
X995984Y763199D01*
X995938Y763153D01*
X995336Y762921D01*
X994735Y762690D01*
X994133Y762505D01*
X993531Y762412D01*
X993069Y762273D01*
X992652Y762227D01*
X992374Y762181D01*
X992282D01*
X991449Y762088D01*
X990708Y762042D01*
X990014Y761949D01*
X989413D01*
X988904Y761903D01*
X988209D01*
X987052Y761949D01*
X985988Y762042D01*
X985062Y762181D01*
X984276Y762320D01*
X983581Y762458D01*
X983119Y762597D01*
X982934Y762644D01*
X982795Y762690D01*
X982748Y762736D01*
X982702D01*
X982101Y763014D01*
X981545Y763338D01*
X980990Y763662D01*
X980527Y763986D01*
X980157Y764310D01*
X979879Y764587D01*
X979648Y764772D01*
X979602Y764819D01*
X979046Y765374D01*
X978630Y765976D01*
X978213Y766577D01*
X977935Y767133D01*
X977658Y767595D01*
X977519Y767966D01*
X977426Y768197D01*
X977380Y768289D01*
X977149Y769076D01*
X976964Y769817D01*
X976825Y770511D01*
X976732Y771205D01*
X976686Y771760D01*
X976640Y772177D01*
Y772455D01*
Y772501D01*
Y772547D01*
Y787680D01*
X984461D01*
Y772223D01*
X984507Y771483D01*
X984646Y770835D01*
X984831Y770233D01*
X985016Y769771D01*
X985247Y769400D01*
X985433Y769169D01*
X985571Y768984D01*
X985618Y768938D01*
X986080Y768567D01*
X986590Y768289D01*
X987145Y768104D01*
X987654Y767966D01*
X988117Y767873D01*
X988487Y767827D01*
X988811D01*
X989551Y767873D01*
X990199Y768012D01*
X990755Y768197D01*
X991217Y768428D01*
X991588Y768614D01*
X991819Y768799D01*
X992004Y768938D01*
X992050Y768984D01*
X992421Y769446D01*
X992698Y770002D01*
X992884Y770511D01*
X993022Y771020D01*
X993115Y771483D01*
X993161Y771899D01*
Y772131D01*
Y772223D01*
Y787680D01*
X1000982D01*
Y772547D01*
D02*
G37*
G36*
X1109784Y768984D02*
X1109691Y767734D01*
X1109506Y766624D01*
X1109275Y765698D01*
X1108951Y764958D01*
X1108673Y764356D01*
X1108395Y763939D01*
X1108210Y763708D01*
X1108164Y763615D01*
X1107470Y763060D01*
X1106729Y762644D01*
X1105989Y762320D01*
X1105248Y762134D01*
X1104601Y761996D01*
X1104045Y761949D01*
X1103860Y761903D01*
X1103582D01*
X1102796Y761949D01*
X1102102Y762042D01*
X1101454Y762134D01*
X1100945Y762273D01*
X1100528Y762412D01*
X1100204Y762551D01*
X1099973Y762597D01*
X1099926Y762644D01*
X1099371Y762968D01*
X1098816Y763384D01*
X1098307Y763847D01*
X1097844Y764263D01*
X1097474Y764633D01*
X1097150Y765004D01*
X1096964Y765189D01*
X1096918Y765282D01*
Y762320D01*
X1090347D01*
Y780692D01*
X1097381D01*
Y771853D01*
X1097427Y770974D01*
X1097520Y770233D01*
X1097659Y769632D01*
X1097797Y769123D01*
X1097936Y768799D01*
X1098075Y768521D01*
X1098168Y768382D01*
X1098214Y768336D01*
X1098538Y768012D01*
X1098862Y767781D01*
X1099232Y767642D01*
X1099556Y767549D01*
X1099834Y767457D01*
X1100065Y767410D01*
X1100297D01*
X1100713Y767457D01*
X1101083Y767503D01*
X1101361Y767642D01*
X1101639Y767781D01*
X1101824Y767873D01*
X1101963Y768012D01*
X1102055Y768058D01*
X1102102Y768104D01*
X1102287Y768428D01*
X1102425Y768799D01*
X1102610Y769632D01*
X1102657Y769956D01*
X1102703Y770280D01*
Y770465D01*
Y770557D01*
Y780692D01*
X1109784D01*
Y768984D01*
D02*
G37*
G36*
X1114874Y781062D02*
X1115337Y781016D01*
X1115800Y780877D01*
X1116170Y780739D01*
X1116448Y780600D01*
X1116679Y780507D01*
X1116818Y780415D01*
X1116864Y780368D01*
X1117235Y780044D01*
X1117559Y779628D01*
X1118206Y778749D01*
X1118438Y778332D01*
X1118623Y778008D01*
X1118762Y777777D01*
X1118808Y777684D01*
Y780692D01*
X1125380D01*
Y762320D01*
X1118299D01*
Y768475D01*
Y769261D01*
X1118253Y770002D01*
X1118206Y770650D01*
X1118114Y771251D01*
X1118068Y771807D01*
X1117975Y772316D01*
X1117883Y772732D01*
X1117744Y773149D01*
X1117651Y773473D01*
X1117559Y773751D01*
X1117466Y773982D01*
X1117420Y774167D01*
X1117281Y774398D01*
X1117235Y774491D01*
X1116911Y774861D01*
X1116540Y775139D01*
X1116217Y775370D01*
X1115846Y775509D01*
X1115522Y775602D01*
X1115291Y775648D01*
X1114782D01*
X1114458Y775555D01*
X1113810Y775370D01*
X1113532Y775278D01*
X1113301Y775185D01*
X1113162Y775139D01*
X1113116Y775093D01*
X1110894Y780137D01*
X1111589Y780461D01*
X1112236Y780692D01*
X1112792Y780877D01*
X1113301Y780970D01*
X1113717Y781062D01*
X1114041Y781109D01*
X1114319D01*
X1114874Y781062D01*
D02*
G37*
G36*
X1085302Y762320D02*
X1077435D01*
Y787680D01*
X1085302D01*
Y762320D01*
D02*
G37*
G36*
X1136903Y778887D02*
X1137320Y779258D01*
X1137736Y779628D01*
X1138153Y779906D01*
X1138523Y780137D01*
X1138847Y780322D01*
X1139078Y780461D01*
X1139263Y780507D01*
X1139310Y780554D01*
X1139819Y780739D01*
X1140328Y780877D01*
X1140837Y780970D01*
X1141300Y781062D01*
X1141670D01*
X1141994Y781109D01*
X1142271D01*
X1142873Y781062D01*
X1143475Y781016D01*
X1144585Y780739D01*
X1145511Y780322D01*
X1146298Y779906D01*
X1146946Y779443D01*
X1147408Y779026D01*
X1147594Y778887D01*
X1147732Y778749D01*
X1147779Y778702D01*
X1147825Y778656D01*
X1148195Y778193D01*
X1148519Y777684D01*
X1149074Y776573D01*
X1149445Y775370D01*
X1149722Y774259D01*
X1149815Y773751D01*
X1149861Y773241D01*
X1149954Y772825D01*
Y772408D01*
X1150000Y772131D01*
Y771853D01*
Y771714D01*
Y771668D01*
X1149908Y770187D01*
X1149676Y768845D01*
X1149398Y767688D01*
X1149213Y767133D01*
X1149028Y766670D01*
X1148843Y766253D01*
X1148658Y765837D01*
X1148519Y765513D01*
X1148380Y765235D01*
X1148241Y765004D01*
X1148149Y764865D01*
X1148056Y764772D01*
Y764726D01*
X1147640Y764217D01*
X1147223Y763801D01*
X1146807Y763430D01*
X1146298Y763106D01*
X1145835Y762829D01*
X1145372Y762597D01*
X1144447Y762273D01*
X1143614Y762042D01*
X1143243Y761996D01*
X1142919Y761949D01*
X1142688Y761903D01*
X1142318D01*
X1141624Y761949D01*
X1141022Y762042D01*
X1140420Y762134D01*
X1139911Y762320D01*
X1139541Y762458D01*
X1139217Y762551D01*
X1138986Y762644D01*
X1138939Y762690D01*
X1138477Y762968D01*
X1138060Y763291D01*
X1137644Y763708D01*
X1137227Y764078D01*
X1136903Y764448D01*
X1136625Y764726D01*
X1136440Y764911D01*
X1136394Y765004D01*
Y762320D01*
X1129776D01*
Y787680D01*
X1136903D01*
Y778887D01*
D02*
G37*
G36*
X1031295Y788051D02*
X1032359Y787958D01*
X1033377Y787773D01*
X1034303Y787542D01*
X1035182Y787310D01*
X1035969Y786986D01*
X1036710Y786709D01*
X1037357Y786385D01*
X1037913Y786061D01*
X1038422Y785737D01*
X1038838Y785413D01*
X1039209Y785181D01*
X1039486Y784950D01*
X1039671Y784765D01*
X1039810Y784672D01*
X1039856Y784626D01*
X1040458Y783932D01*
X1040967Y783238D01*
X1041430Y782451D01*
X1041846Y781664D01*
X1042170Y780831D01*
X1042448Y780044D01*
X1042680Y779258D01*
X1042865Y778471D01*
X1043003Y777777D01*
X1043096Y777083D01*
X1043188Y776481D01*
X1043235Y775972D01*
Y775555D01*
X1043281Y775231D01*
Y775046D01*
Y774954D01*
X1043188Y773380D01*
X1043003Y771946D01*
X1042865Y771251D01*
X1042726Y770650D01*
X1042587Y770094D01*
X1042402Y769585D01*
X1042263Y769123D01*
X1042124Y768706D01*
X1041985Y768382D01*
X1041846Y768104D01*
X1041708Y767873D01*
X1041661Y767688D01*
X1041569Y767595D01*
Y767549D01*
X1040875Y766531D01*
X1040088Y765652D01*
X1039347Y764865D01*
X1038607Y764310D01*
X1037959Y763847D01*
X1037450Y763523D01*
X1037265Y763384D01*
X1037126Y763291D01*
X1037033Y763245D01*
X1036987D01*
X1035876Y762782D01*
X1034673Y762458D01*
X1033516Y762227D01*
X1032406Y762088D01*
X1031850Y761996D01*
X1031387D01*
X1030971Y761949D01*
X1030601Y761903D01*
X1029906D01*
X1028379Y761949D01*
X1026991Y762134D01*
X1025788Y762412D01*
X1025279Y762551D01*
X1024770Y762690D01*
X1024307Y762829D01*
X1023937Y762968D01*
X1023613Y763106D01*
X1023335Y763245D01*
X1023103Y763338D01*
X1022965Y763430D01*
X1022872Y763477D01*
X1022826D01*
X1021808Y764125D01*
X1020975Y764819D01*
X1020234Y765559D01*
X1019633Y766253D01*
X1019124Y766901D01*
X1018800Y767410D01*
X1018661Y767595D01*
X1018568Y767734D01*
X1018522Y767827D01*
Y767873D01*
X1018013Y769030D01*
X1017643Y770233D01*
X1017365Y771436D01*
X1017180Y772594D01*
X1017134Y773149D01*
X1017087Y773612D01*
X1017041Y774074D01*
X1016995Y774445D01*
Y774769D01*
Y775000D01*
Y775139D01*
Y775185D01*
X1017041Y776296D01*
X1017134Y777360D01*
X1017319Y778332D01*
X1017550Y779258D01*
X1017782Y780091D01*
X1018105Y780877D01*
X1018383Y781572D01*
X1018707Y782219D01*
X1019031Y782775D01*
X1019355Y783284D01*
X1019679Y783700D01*
X1019910Y784071D01*
X1020142Y784302D01*
X1020327Y784533D01*
X1020419Y784626D01*
X1020466Y784672D01*
X1021160Y785274D01*
X1021854Y785783D01*
X1022641Y786246D01*
X1023428Y786662D01*
X1024214Y786986D01*
X1025047Y787264D01*
X1025834Y787495D01*
X1026621Y787680D01*
X1027315Y787819D01*
X1028009Y787912D01*
X1028611Y788004D01*
X1029166Y788051D01*
X1029583Y788097D01*
X1030184D01*
X1031295Y788051D01*
D02*
G37*
G36*
X930916Y788051D02*
X931981Y787958D01*
X932999Y787773D01*
X933924Y787542D01*
X934804Y787310D01*
X935590Y786986D01*
X936331Y786709D01*
X936979Y786385D01*
X937534Y786061D01*
X938043Y785737D01*
X938460Y785413D01*
X938830Y785181D01*
X939108Y784950D01*
X939293Y784765D01*
X939432Y784672D01*
X939478Y784626D01*
X940079Y783932D01*
X940588Y783238D01*
X941051Y782451D01*
X941468Y781664D01*
X941792Y780831D01*
X942069Y780044D01*
X942301Y779258D01*
X942486Y778471D01*
X942625Y777777D01*
X942717Y777083D01*
X942810Y776481D01*
X942856Y775972D01*
Y775555D01*
X942902Y775231D01*
Y775046D01*
Y774954D01*
X942810Y773380D01*
X942625Y771946D01*
X942486Y771251D01*
X942347Y770650D01*
X942208Y770094D01*
X942023Y769585D01*
X941884Y769123D01*
X941745Y768706D01*
X941607Y768382D01*
X941468Y768104D01*
X941329Y767873D01*
X941283Y767688D01*
X941190Y767595D01*
Y767549D01*
X940496Y766531D01*
X939709Y765652D01*
X938969Y764865D01*
X938228Y764310D01*
X937580Y763847D01*
X937071Y763523D01*
X936886Y763384D01*
X936747Y763291D01*
X936655Y763245D01*
X936609D01*
X935498Y762782D01*
X934295Y762458D01*
X933138Y762227D01*
X932027Y762088D01*
X931471Y761996D01*
X931009D01*
X930592Y761949D01*
X930222Y761903D01*
X929528D01*
X928001Y761949D01*
X926612Y762134D01*
X925409Y762412D01*
X924900Y762551D01*
X924391Y762690D01*
X923928Y762829D01*
X923558Y762968D01*
X923234Y763106D01*
X922956Y763245D01*
X922725Y763338D01*
X922586Y763430D01*
X922493Y763476D01*
X922447D01*
X921429Y764124D01*
X920596Y764819D01*
X919855Y765559D01*
X919254Y766253D01*
X918745Y766901D01*
X918421Y767410D01*
X918282Y767595D01*
X918189Y767734D01*
X918143Y767827D01*
Y767873D01*
X917634Y769030D01*
X917264Y770233D01*
X916986Y771436D01*
X916801Y772594D01*
X916755Y773149D01*
X916709Y773612D01*
X916662Y774074D01*
X916616Y774445D01*
Y774769D01*
Y775000D01*
Y775139D01*
Y775185D01*
X916662Y776296D01*
X916755Y777360D01*
X916940Y778332D01*
X917171Y779258D01*
X917403Y780091D01*
X917727Y780877D01*
X918004Y781572D01*
X918328Y782219D01*
X918652Y782775D01*
X918976Y783284D01*
X919300Y783700D01*
X919532Y784071D01*
X919763Y784302D01*
X919948Y784533D01*
X920041Y784626D01*
X920087Y784672D01*
X920781Y785274D01*
X921475Y785783D01*
X922262Y786246D01*
X923049Y786662D01*
X923836Y786986D01*
X924669Y787264D01*
X925455Y787495D01*
X926242Y787680D01*
X926936Y787819D01*
X927630Y787912D01*
X928232Y788004D01*
X928787Y788051D01*
X929204Y788097D01*
X929806D01*
X930916Y788051D01*
D02*
G37*
%LPC*%
G36*
X1126064Y882533D02*
X1122571D01*
X1120487Y875470D01*
X1118442Y882533D01*
X1115161D01*
X1113096Y875470D01*
X1111012Y882533D01*
X1107654D01*
X1111475Y872093D01*
X1114872D01*
X1116859Y878539D01*
X1118866Y872093D01*
X1122263D01*
X1126064Y882533D01*
X1126064Y882533D01*
D02*
G37*
G36*
X1095062Y882615D02*
X1093054D01*
Y879756D01*
X1093809Y879789D01*
X1093938Y879782D01*
X1094191Y879732D01*
X1094430Y879633D01*
X1094645Y879490D01*
X1094741Y879403D01*
X1094741D01*
X1095214Y878929D01*
X1095308Y878826D01*
X1095463Y878593D01*
X1095571Y878335D01*
X1095625Y878061D01*
X1095632Y877921D01*
Y876738D01*
X1095623Y876563D01*
X1095555Y876219D01*
X1095421Y875895D01*
X1095226Y875604D01*
X1095108Y875474D01*
X1095108D01*
X1094789Y875154D01*
X1094690Y875064D01*
X1094468Y874917D01*
X1094222Y874815D01*
X1093961Y874763D01*
X1093828Y874756D01*
X1093105D01*
X1093054Y874808D01*
Y872011D01*
X1094709D01*
X1095643Y872197D01*
X1096523Y872561D01*
X1097315Y873090D01*
X1097651Y873427D01*
X1097987Y873763D01*
X1098514Y874552D01*
X1098878Y875429D01*
X1099063Y876360D01*
Y876835D01*
Y878143D01*
Y878502D01*
X1098923Y879205D01*
X1098649Y879868D01*
X1098250Y880464D01*
X1097997Y880718D01*
X1097997Y880718D01*
X1097061Y881653D01*
X1096832Y881882D01*
X1096294Y882242D01*
X1095696Y882489D01*
X1095062Y882615D01*
D02*
G37*
G36*
X1107268Y882533D02*
X1103852D01*
X1103853Y872093D01*
X1107268D01*
Y882533D01*
D02*
G37*
G36*
X1103158D02*
X1099743D01*
Y872093D01*
X1103158D01*
Y882533D01*
D02*
G37*
G36*
X961600Y662800D02*
X944100D01*
X944100Y662800D01*
X944002Y662800D01*
X943806Y662781D01*
X943613Y662742D01*
X943425Y662685D01*
X943244Y662610D01*
X943071Y662517D01*
X942907Y662408D01*
X942755Y662284D01*
X942616Y662145D01*
X942492Y661993D01*
X942382Y661829D01*
X942290Y661656D01*
X942215Y661475D01*
X942158Y661286D01*
X942119Y661094D01*
X942100Y660898D01*
X942100Y660800D01*
X942100Y660702D01*
X942119Y660506D01*
X942158Y660313D01*
X942215Y660125D01*
X942290Y659944D01*
X942382Y659771D01*
X942492Y659607D01*
X942616Y659455D01*
X942755Y659316D01*
X942907Y659192D01*
X943071Y659082D01*
X943244Y658990D01*
X943425Y658915D01*
X943613Y658858D01*
X943806Y658819D01*
X944002Y658800D01*
X944100Y658800D01*
X961600D01*
Y662800D01*
D02*
G37*
G36*
X1021858Y751838D02*
X1017340D01*
Y751098D01*
X1021858D01*
Y751838D01*
D02*
G37*
G36*
X1023191Y750801D02*
Y749838D01*
X1016080D01*
Y750653D01*
X1014599Y750431D01*
X1013266Y750135D01*
X1012155Y749838D01*
X1011266Y749394D01*
X1010600Y749024D01*
X1010081Y748505D01*
Y748209D01*
X1026598D01*
Y750357D01*
X1025561Y750579D01*
X1024450Y750727D01*
X1023191Y750801D01*
D02*
G37*
G36*
X1028375Y751098D02*
X1027857D01*
Y749394D01*
X1028375D01*
Y751098D01*
D02*
G37*
G36*
X1029635Y749468D02*
Y748209D01*
X1031190D01*
Y748431D01*
X1030820Y748802D01*
X1030375Y749098D01*
X1029635Y749468D01*
D02*
G37*
G36*
X1008155Y749246D02*
X1008081D01*
X1007711Y749172D01*
X1007489Y748950D01*
X1007415Y748653D01*
Y748579D01*
X1007489Y748209D01*
X1007711Y748061D01*
X1008007Y747987D01*
X1008081D01*
X1008452Y748061D01*
X1008600Y748283D01*
X1008674Y748505D01*
Y748579D01*
X1008600Y748950D01*
X1008378Y749172D01*
X1008155Y749246D01*
D02*
G37*
G36*
X1009637Y743543D02*
X1007193D01*
Y741099D01*
X1009637D01*
Y743543D01*
D02*
G37*
G36*
X1022080Y737988D02*
X1015414D01*
Y737543D01*
X1022080D01*
Y737988D01*
D02*
G37*
G36*
X1030968Y745913D02*
X1010229D01*
X1010377Y744802D01*
X1010896D01*
Y742432D01*
X1014007Y739247D01*
X1023339D01*
Y736284D01*
X1016895D01*
X1021191Y731840D01*
X1030598Y741617D01*
X1030968Y745913D01*
D02*
G37*
G36*
X1030375Y739543D02*
X1022080Y730952D01*
X1028894Y723915D01*
X1030375Y739543D01*
D02*
G37*
G36*
X1010896Y740580D02*
Y739840D01*
X1010748D01*
X1012229Y722582D01*
X1020302Y730952D01*
X1015118Y736284D01*
X1014007D01*
Y737395D01*
X1010896Y740580D01*
D02*
G37*
G36*
X1021191Y729989D02*
X1012377Y720879D01*
X1012525Y719249D01*
X1013118Y719323D01*
X1013784Y719249D01*
X1014599Y719027D01*
X1015414Y718657D01*
X1016006Y718212D01*
X1016525Y717694D01*
X1017043Y716953D01*
X1017414Y716064D01*
X1017636Y715101D01*
X1017562Y714435D01*
X1028005D01*
X1028746Y722212D01*
X1021191Y729989D01*
D02*
G37*
G36*
X1013488Y717027D02*
X1013118D01*
X1012377Y716953D01*
X1011859Y716657D01*
X1011414Y716360D01*
X1011192Y715916D01*
X1011044Y715546D01*
X1010896Y715175D01*
Y714879D01*
Y714805D01*
X1010970Y714064D01*
X1011266Y713546D01*
X1011562Y713102D01*
X1012007Y712879D01*
X1012377Y712731D01*
X1012747Y712657D01*
X1013044Y712583D01*
X1013118D01*
X1013858Y712657D01*
X1014377Y712953D01*
X1014821Y713324D01*
X1015044Y713694D01*
X1015192Y714138D01*
X1015266Y714435D01*
X1015340Y714731D01*
Y714805D01*
X1015266Y715546D01*
X1014969Y716064D01*
X1014599Y716509D01*
X1014229Y716731D01*
X1013784Y716879D01*
X1013488Y717027D01*
D02*
G37*
G36*
X1027561Y713102D02*
X1027264D01*
Y711324D01*
X1027561D01*
Y713102D01*
D02*
G37*
%LPD*%
G36*
X1013636Y716212D02*
X1014007Y716064D01*
X1014229Y715842D01*
X1014377Y715546D01*
X1014599Y715027D01*
Y714879D01*
Y714805D01*
X1014525Y714287D01*
X1014377Y713916D01*
X1014155Y713694D01*
X1013858Y713546D01*
X1013340Y713324D01*
X1013118D01*
X1012599Y713398D01*
X1012229Y713546D01*
X1012007Y713768D01*
X1011785Y714064D01*
X1011637Y714583D01*
Y714731D01*
Y714805D01*
X1011711Y715324D01*
X1011859Y715694D01*
X1012081Y715916D01*
X1012377Y716138D01*
X1012896Y716286D01*
X1013118D01*
X1013636Y716212D01*
D02*
G37*
%LPC*%
G36*
X1013192Y715027D02*
X1012970D01*
X1012896Y714953D01*
Y714879D01*
Y714805D01*
Y714657D01*
X1012970Y714583D01*
X1013118D01*
X1013266Y714657D01*
X1013340Y714731D01*
Y714805D01*
X1013266Y714953D01*
X1013192Y715027D01*
D02*
G37*
G36*
X1146292Y665410D02*
X1145922D01*
X1145182Y665225D01*
X1144626Y664855D01*
X1143885Y663744D01*
X1143700Y662633D01*
Y662262D01*
Y662077D01*
Y660966D01*
X1144071Y660226D01*
X1144441Y659670D01*
X1144811Y659300D01*
X1145552Y658930D01*
X1145922D01*
X1146663Y659115D01*
X1147033Y659485D01*
X1147774Y660596D01*
X1147959Y661522D01*
Y661892D01*
Y662077D01*
X1147774Y663188D01*
X1147589Y663929D01*
X1147218Y664670D01*
X1146848Y665040D01*
X1146292Y665410D01*
D02*
G37*
G36*
X1136294D02*
X1135183D01*
X1134627Y665040D01*
X1133886Y664299D01*
X1133516Y663559D01*
Y663373D01*
Y663188D01*
X1138145D01*
X1137960Y663929D01*
X1137775Y664484D01*
X1137034Y665225D01*
X1136294Y665410D01*
D02*
G37*
G36*
X1064819D02*
X1063708D01*
X1063153Y665040D01*
X1062412Y664299D01*
X1062042Y663559D01*
Y663373D01*
Y663188D01*
X1066486D01*
X1066301Y663929D01*
X1066116Y664484D01*
X1065375Y665225D01*
X1064819Y665410D01*
D02*
G37*
G36*
X1156106D02*
X1155921D01*
X1155181Y665225D01*
X1154810Y665040D01*
X1154440Y664670D01*
Y664484D01*
X1154070Y663929D01*
X1153884Y663188D01*
Y662448D01*
Y662262D01*
Y662077D01*
Y660966D01*
X1154070Y660041D01*
X1154255Y659670D01*
X1154440Y659485D01*
X1154810Y659115D01*
X1155366Y658930D01*
X1155921D01*
X1156847Y659115D01*
X1157402Y659300D01*
X1157773Y659485D01*
X1158143Y660411D01*
X1158328Y661152D01*
Y661892D01*
Y662077D01*
X1158143Y663188D01*
X1157958Y663929D01*
X1157773Y664299D01*
Y664484D01*
X1157217Y665040D01*
X1156662Y665225D01*
X1156106Y665410D01*
D02*
G37*
G36*
X1101482D02*
X1101297D01*
X1100556Y665225D01*
X1100001Y665040D01*
X1099631Y664670D01*
Y664484D01*
X1099260Y663929D01*
X1099075Y663188D01*
Y662448D01*
Y662262D01*
Y662077D01*
Y660966D01*
X1099260Y660041D01*
X1099445Y659670D01*
X1099631Y659485D01*
X1100001Y659115D01*
X1100556Y658930D01*
X1101297D01*
X1102038Y659115D01*
X1102593Y659300D01*
X1102778Y659485D01*
X1103149Y660226D01*
X1103334Y661152D01*
Y661707D01*
Y662077D01*
X1103149Y663373D01*
X1102964Y664114D01*
X1102778Y664484D01*
X1102408Y665040D01*
X1101853Y665225D01*
X1101482Y665410D01*
D02*
G37*
G36*
X1136664Y644672D02*
X1133886D01*
Y643931D01*
Y643375D01*
X1134257Y642820D01*
X1134997Y642264D01*
X1135738Y642079D01*
X1136849D01*
X1137219Y642264D01*
X1137960Y642820D01*
X1138145Y643375D01*
Y643561D01*
X1137960Y644301D01*
X1137219Y644486D01*
X1136664Y644672D01*
D02*
G37*
G36*
X1094261D02*
X1091483D01*
Y643931D01*
X1091669Y643375D01*
X1091854Y642820D01*
X1092594Y642264D01*
X1093520Y642079D01*
X1093891D01*
X1095002Y642264D01*
X1095557Y642820D01*
X1095742Y643375D01*
Y643561D01*
X1095372Y644301D01*
X1094816Y644486D01*
X1094261Y644672D01*
D02*
G37*
G36*
X1076115Y648931D02*
X1075744D01*
X1075004Y648745D01*
X1074448Y648560D01*
X1073708Y647820D01*
X1073337Y646894D01*
Y646709D01*
Y646523D01*
X1077781D01*
X1077596Y647264D01*
X1077411Y648005D01*
X1076670Y648560D01*
X1076115Y648931D01*
D02*
G37*
G36*
X1118333D02*
X1117962D01*
X1117407Y648745D01*
X1116851Y648375D01*
X1116296Y647264D01*
X1116111Y646153D01*
Y645783D01*
Y645598D01*
Y644486D01*
X1116481Y643746D01*
X1116666Y643005D01*
X1117036Y642635D01*
X1117592Y642264D01*
X1117962D01*
X1118703Y642450D01*
X1119258Y642820D01*
X1119814Y643931D01*
X1120184Y645042D01*
Y645412D01*
Y645598D01*
X1119999Y646709D01*
X1119814Y647449D01*
X1119444Y648190D01*
X1119073Y648560D01*
X1118333Y648931D01*
D02*
G37*
G36*
X1140282Y775833D02*
X1140096D01*
X1139587Y775787D01*
X1139125Y775648D01*
X1138754Y775509D01*
X1138430Y775324D01*
X1138153Y775093D01*
X1137968Y774954D01*
X1137829Y774815D01*
X1137782Y774769D01*
X1137458Y774306D01*
X1137227Y773797D01*
X1137088Y773288D01*
X1136949Y772732D01*
X1136903Y772270D01*
X1136857Y771899D01*
Y771622D01*
Y771575D01*
Y771529D01*
X1136903Y770696D01*
X1136996Y769956D01*
X1137134Y769354D01*
X1137320Y768891D01*
X1137505Y768521D01*
X1137644Y768243D01*
X1137736Y768104D01*
X1137782Y768058D01*
X1138106Y767734D01*
X1138477Y767457D01*
X1138893Y767271D01*
X1139217Y767179D01*
X1139541Y767086D01*
X1139772Y767040D01*
X1140004D01*
X1140467Y767086D01*
X1140883Y767179D01*
X1141253Y767364D01*
X1141531Y767549D01*
X1141809Y767734D01*
X1141994Y767919D01*
X1142086Y768012D01*
X1142133Y768058D01*
X1142410Y768521D01*
X1142595Y769030D01*
X1142781Y769585D01*
X1142873Y770094D01*
X1142919Y770603D01*
X1142966Y770974D01*
Y771251D01*
Y771298D01*
Y771344D01*
X1142919Y772177D01*
X1142827Y772917D01*
X1142734Y773473D01*
X1142549Y773982D01*
X1142410Y774306D01*
X1142318Y774584D01*
X1142225Y774722D01*
X1142179Y774769D01*
X1141855Y775139D01*
X1141485Y775370D01*
X1141161Y775555D01*
X1140837Y775694D01*
X1140513Y775787D01*
X1140282Y775833D01*
D02*
G37*
G36*
X1030323Y782173D02*
X1030230D01*
X1029351Y782081D01*
X1028564Y781896D01*
X1027870Y781664D01*
X1027315Y781340D01*
X1026898Y781016D01*
X1026574Y780785D01*
X1026343Y780600D01*
X1026297Y780507D01*
X1025788Y779813D01*
X1025417Y778980D01*
X1025186Y778101D01*
X1025001Y777268D01*
X1024908Y776481D01*
X1024862Y776157D01*
X1024816Y775879D01*
Y775602D01*
Y775416D01*
Y775324D01*
Y775278D01*
Y774491D01*
X1024862Y773797D01*
X1024955Y773149D01*
X1025047Y772547D01*
X1025140Y772038D01*
X1025279Y771529D01*
X1025417Y771113D01*
X1025510Y770742D01*
X1025649Y770418D01*
X1025788Y770141D01*
X1025927Y769909D01*
X1026019Y769724D01*
X1026204Y769493D01*
X1026251Y769400D01*
X1026806Y768845D01*
X1027454Y768475D01*
X1028102Y768197D01*
X1028703Y767966D01*
X1029259Y767873D01*
X1029721Y767827D01*
X1029906Y767781D01*
X1030138D01*
X1031017Y767873D01*
X1031804Y768058D01*
X1032498Y768289D01*
X1033054Y768614D01*
X1033470Y768938D01*
X1033794Y769169D01*
X1034025Y769354D01*
X1034072Y769446D01*
X1034303Y769771D01*
X1034534Y770141D01*
X1034858Y771020D01*
X1035136Y771946D01*
X1035275Y772825D01*
X1035367Y773658D01*
X1035414Y774028D01*
Y774352D01*
X1035460Y774584D01*
Y774769D01*
Y774907D01*
Y774954D01*
Y775648D01*
X1035414Y776296D01*
X1035321Y776897D01*
X1035229Y777453D01*
X1035136Y777915D01*
X1034997Y778378D01*
X1034858Y778795D01*
X1034719Y779165D01*
X1034488Y779720D01*
X1034257Y780137D01*
X1034072Y780368D01*
X1034025Y780461D01*
X1033470Y781016D01*
X1032822Y781433D01*
X1032174Y781757D01*
X1031573Y781942D01*
X1031064Y782081D01*
X1030601Y782127D01*
X1030323Y782173D01*
D02*
G37*
G36*
X929944Y782173D02*
X929852D01*
X928972Y782081D01*
X928186Y781896D01*
X927492Y781664D01*
X926936Y781340D01*
X926520Y781016D01*
X926196Y780785D01*
X925964Y780600D01*
X925918Y780507D01*
X925409Y779813D01*
X925039Y778980D01*
X924807Y778101D01*
X924622Y777268D01*
X924530Y776481D01*
X924483Y776157D01*
X924437Y775879D01*
Y775602D01*
Y775416D01*
Y775324D01*
Y775278D01*
Y774491D01*
X924483Y773797D01*
X924576Y773149D01*
X924669Y772547D01*
X924761Y772038D01*
X924900Y771529D01*
X925039Y771113D01*
X925131Y770742D01*
X925270Y770418D01*
X925409Y770141D01*
X925548Y769909D01*
X925640Y769724D01*
X925826Y769493D01*
X925872Y769400D01*
X926427Y768845D01*
X927075Y768475D01*
X927723Y768197D01*
X928325Y767966D01*
X928880Y767873D01*
X929343Y767827D01*
X929528Y767781D01*
X929759D01*
X930639Y767873D01*
X931425Y768058D01*
X932119Y768289D01*
X932675Y768614D01*
X933091Y768938D01*
X933415Y769169D01*
X933647Y769354D01*
X933693Y769446D01*
X933924Y769771D01*
X934156Y770141D01*
X934480Y771020D01*
X934757Y771946D01*
X934896Y772825D01*
X934989Y773658D01*
X935035Y774028D01*
Y774352D01*
X935081Y774584D01*
Y774769D01*
Y774907D01*
Y774954D01*
Y775648D01*
X935035Y776296D01*
X934942Y776897D01*
X934850Y777453D01*
X934757Y777915D01*
X934619Y778378D01*
X934480Y778795D01*
X934341Y779165D01*
X934109Y779720D01*
X933878Y780137D01*
X933693Y780368D01*
X933647Y780461D01*
X933091Y781016D01*
X932443Y781433D01*
X931796Y781757D01*
X931194Y781942D01*
X930685Y782081D01*
X930222Y782127D01*
X929944Y782173D01*
D02*
G37*
%LPD*%
D13*
X610000Y532500D02*
G03*
X610000Y532500I-7500J0D01*
G01*
X545000D02*
G03*
X545000Y532500I-7500J0D01*
G01*
X567500Y525000D02*
G03*
X567500Y540000I0J7500D01*
G01*
X570000Y532500D02*
G03*
X570000Y532500I-2500J0D01*
G01*
X1148080Y596900D02*
Y629920D01*
X1021080Y579120D02*
Y680720D01*
X995680Y579120D02*
Y680720D01*
X1046480D01*
Y579120D02*
Y680720D01*
X1071880Y579120D02*
Y629920D01*
X1097280Y579120D02*
Y629920D01*
X1122680Y579120D02*
Y629920D01*
X652780Y919480D02*
X728980D01*
X678180Y891540D02*
Y944880D01*
X703580Y891540D02*
Y944880D01*
X728980Y891540D02*
Y944880D01*
X652780Y891540D02*
X728980D01*
X652780D02*
Y944880D01*
X728980D01*
X657860Y835660D02*
X777240D01*
X657860Y855980D02*
X777240D01*
X657860Y876300D02*
X777240D01*
X731520Y835660D02*
Y876300D01*
X693420Y835660D02*
Y876300D01*
X657860Y835660D02*
Y876300D01*
X551180Y731520D02*
Y817880D01*
X513080Y731520D02*
Y817880D01*
Y731520D02*
X551180D01*
X513080Y817880D02*
X551180D01*
X1085467Y798941D02*
X1086617Y793160D01*
X1081473Y796040D02*
X1086617Y793160D01*
X1076330D02*
X1081473Y796040D01*
X1076330Y793160D02*
X1077480Y798941D01*
X1073152Y802943D02*
X1077480Y798941D01*
X1073152Y802943D02*
X1079005Y803636D01*
X1081473Y808989D01*
X1083942Y803636D01*
X1089795Y802943D01*
X1085467Y798941D02*
X1089795Y802943D01*
X995680Y629920D02*
X1148080D01*
X596900Y985520D02*
X609600D01*
Y980440D02*
Y985520D01*
X660400D01*
X596900Y876300D02*
Y985520D01*
X645160Y876300D02*
Y985520D01*
X596900Y876300D02*
X645160D01*
X596900Y934720D02*
X645160D01*
X635000Y980440D02*
Y985440D01*
X688340Y950000D02*
Y955040D01*
X713740Y950000D02*
Y955040D01*
X878840Y812800D02*
Y944880D01*
X927100Y876300D02*
Y944880D01*
X777240Y812800D02*
Y944880D01*
Y812800D02*
X878840D01*
X777240Y876300D02*
X927100D01*
X777240Y944880D02*
X927100D01*
X1094740Y822960D02*
Y863600D01*
X1046480Y843280D02*
X1140460D01*
Y822960D02*
Y863600D01*
X1046480Y822960D02*
Y863600D01*
X1140460D01*
X1046480Y822960D02*
X1140460D01*
X944880Y896620D02*
X1046480D01*
X944880Y876300D02*
X1046480D01*
X944880D02*
Y944880D01*
X1046480Y876300D02*
Y944880D01*
X944880Y944880D02*
X1140460Y944880D01*
X660400Y949960D02*
Y985520D01*
Y949960D02*
X713740D01*
X598500Y532500D02*
X606500D01*
X533500D02*
X541500D01*
X537500Y528500D02*
Y536500D01*
X575000Y532500D02*
X590000D01*
X550000D02*
X565000D01*
X995680Y579120D02*
X1140460D01*
X770208Y871138D02*
X766876D01*
X768542D01*
Y861142D01*
X770208D01*
X766876D01*
X756879Y871138D02*
X760211D01*
X761878Y869472D01*
Y862808D01*
X760211Y861142D01*
X756879D01*
X755213Y862808D01*
Y869472D01*
X756879Y871138D01*
X746882Y861142D02*
Y871138D01*
X751881Y866140D01*
X745216D01*
X741884Y861142D02*
X738552D01*
X740218D01*
Y871138D01*
X741884Y869472D01*
X771874Y850818D02*
X768542D01*
X770208D01*
Y840822D01*
X771874D01*
X768542D01*
X758545Y850818D02*
X761878D01*
X763544Y849152D01*
Y842488D01*
X761878Y840822D01*
X758545D01*
X756879Y842488D01*
Y849152D01*
X758545Y850818D01*
X748549Y840822D02*
Y850818D01*
X753547Y845820D01*
X746882D01*
X736886Y840822D02*
X743550D01*
X736886Y847486D01*
Y849152D01*
X738552Y850818D01*
X741884D01*
X743550Y849152D01*
X719531Y850818D02*
X712866D01*
X716198D01*
Y840822D01*
X709534Y850818D02*
X702869Y840822D01*
Y850818D02*
X709534Y840822D01*
X723696Y871138D02*
X720364D01*
X722030D01*
Y861142D01*
X723696D01*
X720364D01*
X710367Y871138D02*
X713699D01*
X715365Y869472D01*
Y862808D01*
X713699Y861142D01*
X710367D01*
X708701Y862808D01*
Y869472D01*
X710367Y871138D01*
X705368Y869472D02*
X703702Y871138D01*
X700370D01*
X698704Y869472D01*
Y862808D01*
X700370Y861142D01*
X703702D01*
X705368Y862808D01*
Y869472D01*
X683971Y840822D02*
Y850818D01*
X678972D01*
X677306Y849152D01*
Y845820D01*
X678972Y844154D01*
X683971D01*
X680638D02*
X677306Y840822D01*
X673974Y850818D02*
X667309Y840822D01*
Y850818D02*
X673974Y840822D01*
X682305Y869472D02*
X683971Y871138D01*
X687303D01*
X688969Y869472D01*
Y862808D01*
X687303Y861142D01*
X683971D01*
X682305Y862808D01*
Y866140D01*
X685637D01*
X678972Y861142D02*
Y871138D01*
X672308Y861142D01*
Y871138D01*
X668976D02*
Y861142D01*
X663977D01*
X662311Y862808D01*
Y869472D01*
X663977Y871138D01*
X668976D01*
X536022Y744669D02*
X546018D01*
Y749667D01*
X544352Y751333D01*
X541020D01*
X539354Y749667D01*
Y744669D01*
Y748001D02*
X536022Y751333D01*
Y759664D02*
Y756332D01*
X537688Y754666D01*
X541020D01*
X542686Y756332D01*
Y759664D01*
X541020Y761330D01*
X539354D01*
Y754666D01*
X542686Y764662D02*
X536022Y767995D01*
X542686Y771327D01*
X536022Y774659D02*
X537688D01*
Y776325D01*
X536022D01*
Y774659D01*
Y792987D02*
X542686D01*
X546018Y796319D01*
X542686Y799651D01*
X536022D01*
X541020D01*
Y792987D01*
X526572Y741377D02*
X528238Y743044D01*
Y746376D01*
X526572Y748042D01*
X519908D01*
X518242Y746376D01*
Y743044D01*
X519908Y741377D01*
X526572D01*
Y751374D02*
X528238Y753040D01*
Y756373D01*
X526572Y758039D01*
X524906D01*
X523240Y756373D01*
X521574Y758039D01*
X519908D01*
X518242Y756373D01*
Y753040D01*
X519908Y751374D01*
X521574D01*
X523240Y753040D01*
X524906Y751374D01*
X526572D01*
X523240Y753040D02*
Y756373D01*
Y761371D02*
Y768035D01*
X518242Y778032D02*
Y771368D01*
X524906Y778032D01*
X526572D01*
X528238Y776366D01*
Y773034D01*
X526572Y771368D01*
Y781365D02*
X528238Y783031D01*
Y786363D01*
X526572Y788029D01*
X519908D01*
X518242Y786363D01*
Y783031D01*
X519908Y781365D01*
X526572D01*
X518242Y798026D02*
Y791361D01*
X524906Y798026D01*
X526572D01*
X528238Y796360D01*
Y793027D01*
X526572Y791361D01*
Y801358D02*
X528238Y803024D01*
Y806356D01*
X526572Y808023D01*
X524906D01*
X523240Y806356D01*
Y804690D01*
Y806356D01*
X521574Y808023D01*
X519908D01*
X518242Y806356D01*
Y803024D01*
X519908Y801358D01*
X1037112Y821776D02*
X1038778Y820110D01*
Y816778D01*
X1037112Y815112D01*
X1030448D01*
X1028782Y816778D01*
Y820110D01*
X1030448Y821776D01*
X1028782Y825108D02*
X1035446D01*
X1038778Y828441D01*
X1035446Y831773D01*
X1028782D01*
X1033780D01*
Y825108D01*
X1028782Y835105D02*
X1038778D01*
X1028782Y841770D01*
X1038778D01*
X1028782Y851766D02*
Y845102D01*
X1035446Y851766D01*
X1037112D01*
X1038778Y850100D01*
Y846768D01*
X1037112Y845102D01*
X1028782Y855099D02*
X1038778D01*
Y860097D01*
X1037112Y861763D01*
X1033780D01*
X1032114Y860097D01*
Y855099D01*
Y858431D02*
X1028782Y861763D01*
X1038778Y865096D02*
X1028782Y871760D01*
X1038778D02*
X1028782Y865096D01*
X960912Y821776D02*
X962578Y820110D01*
Y816778D01*
X960912Y815112D01*
X954248D01*
X952582Y816778D01*
Y820110D01*
X954248Y821776D01*
X952582Y825108D02*
X959246D01*
X962578Y828441D01*
X959246Y831773D01*
X952582D01*
X957580D01*
Y825108D01*
X952582Y835105D02*
X962578D01*
X952582Y841770D01*
X962578D01*
X952582Y851766D02*
Y845102D01*
X959246Y851766D01*
X960912D01*
X962578Y850100D01*
Y846768D01*
X960912Y845102D01*
X962578Y855099D02*
Y861763D01*
Y858431D01*
X952582D01*
X962578Y865096D02*
X952582Y871760D01*
X962578D02*
X952582Y865096D01*
X812718Y825786D02*
Y829118D01*
Y827452D01*
X802722D01*
Y825786D01*
Y829118D01*
Y840781D02*
Y834116D01*
X809386Y840781D01*
X811052D01*
X812718Y839115D01*
Y835782D01*
X811052Y834116D01*
Y850778D02*
X812718Y849111D01*
Y845779D01*
X811052Y844113D01*
X809386D01*
X807720Y845779D01*
Y849111D01*
X806054Y850778D01*
X804388D01*
X802722Y849111D01*
Y845779D01*
X804388Y844113D01*
X811052Y854110D02*
X812718Y855776D01*
Y859108D01*
X811052Y860774D01*
X809386D01*
X807720Y859108D01*
Y857442D01*
Y859108D01*
X806054Y860774D01*
X804388D01*
X802722Y859108D01*
Y855776D01*
X804388Y854110D01*
X831372Y832450D02*
X833038Y830784D01*
Y827452D01*
X831372Y825786D01*
X829706D01*
X828040Y827452D01*
Y830784D01*
X826374Y832450D01*
X824708D01*
X823042Y830784D01*
Y827452D01*
X824708Y825786D01*
X823042Y835782D02*
X833038D01*
Y840781D01*
X831372Y842447D01*
X828040D01*
X826374Y840781D01*
Y835782D01*
X833038Y845779D02*
Y849111D01*
Y847445D01*
X823042D01*
Y845779D01*
Y849111D01*
X831372Y854110D02*
X833038Y855776D01*
Y859108D01*
X831372Y860774D01*
X829706D01*
X828040Y859108D01*
Y857442D01*
Y859108D01*
X826374Y860774D01*
X824708D01*
X823042Y859108D01*
Y855776D01*
X824708Y854110D01*
X851692Y834116D02*
X853358Y832450D01*
Y829118D01*
X851692Y827452D01*
X850026D01*
X848360Y829118D01*
Y832450D01*
X846694Y834116D01*
X845028D01*
X843362Y832450D01*
Y829118D01*
X845028Y827452D01*
X843362Y837449D02*
X853358D01*
Y842447D01*
X851692Y844113D01*
X848360D01*
X846694Y842447D01*
Y837449D01*
X853358Y847445D02*
Y850778D01*
Y849111D01*
X843362D01*
Y847445D01*
Y850778D01*
Y855776D02*
Y859108D01*
Y857442D01*
X853358D01*
X851692Y855776D01*
X613798Y883348D02*
X605468D01*
X603802Y885014D01*
Y888347D01*
X605468Y890013D01*
X613798D01*
X612132Y900010D02*
X613798Y898344D01*
Y895011D01*
X612132Y893345D01*
X610466D01*
X608800Y895011D01*
Y898344D01*
X607134Y900010D01*
X605468D01*
X603802Y898344D01*
Y895011D01*
X605468Y893345D01*
X613798Y903342D02*
X603802D01*
Y908340D01*
X605468Y910006D01*
X607134D01*
X608800Y908340D01*
Y903342D01*
Y908340D01*
X610466Y910006D01*
X612132D01*
X613798Y908340D01*
Y903342D01*
X603802Y920003D02*
Y913339D01*
X610466Y920003D01*
X612132D01*
X613798Y918337D01*
Y915005D01*
X612132Y913339D01*
X608800Y923335D02*
Y930000D01*
X639198Y883348D02*
X630868D01*
X629202Y885014D01*
Y888347D01*
X630868Y890013D01*
X639198D01*
X637532Y900010D02*
X639198Y898344D01*
Y895011D01*
X637532Y893345D01*
X635866D01*
X634200Y895011D01*
Y898344D01*
X632534Y900010D01*
X630868D01*
X629202Y898344D01*
Y895011D01*
X630868Y893345D01*
X639198Y903342D02*
X629202D01*
Y908340D01*
X630868Y910006D01*
X632534D01*
X634200Y908340D01*
Y903342D01*
Y908340D01*
X635866Y910006D01*
X637532D01*
X639198Y908340D01*
Y903342D01*
X629202Y920003D02*
Y913339D01*
X635866Y920003D01*
X637532D01*
X639198Y918337D01*
Y915005D01*
X637532Y913339D01*
X634200Y923335D02*
Y930000D01*
X637532Y926668D02*
X630868D01*
X638332Y949242D02*
X639998Y947576D01*
Y944243D01*
X638332Y942577D01*
X636666D01*
X635000Y944243D01*
Y947576D01*
X633334Y949242D01*
X631668D01*
X630002Y947576D01*
Y944243D01*
X631668Y942577D01*
X639998Y952574D02*
X630002D01*
Y957573D01*
X631668Y959239D01*
X638332D01*
X639998Y957573D01*
Y952574D01*
X630002Y962571D02*
X636666D01*
X639998Y965903D01*
X636666Y969236D01*
X630002D01*
X635000D01*
Y962571D01*
X630002Y972568D02*
Y975900D01*
Y974234D01*
X639998D01*
X638332Y972568D01*
X612932Y949242D02*
X614598Y947576D01*
Y944243D01*
X612932Y942577D01*
X611266D01*
X609600Y944243D01*
Y947576D01*
X607934Y949242D01*
X606268D01*
X604602Y947576D01*
Y944243D01*
X606268Y942577D01*
X612932Y959239D02*
X614598Y957573D01*
Y954240D01*
X612932Y952574D01*
X606268D01*
X604602Y954240D01*
Y957573D01*
X606268Y959239D01*
X614598Y962571D02*
X604602D01*
Y969236D01*
Y972568D02*
Y975900D01*
Y974234D01*
X614598D01*
X612932Y972568D01*
X894692Y820082D02*
X896358Y818416D01*
Y815084D01*
X894692Y813418D01*
X888028D01*
X886362Y815084D01*
Y818416D01*
X888028Y820082D01*
X886362Y823415D02*
X893026D01*
X896358Y826747D01*
X893026Y830079D01*
X886362D01*
X891360D01*
Y823415D01*
X886362Y833411D02*
X896358D01*
X886362Y840076D01*
X896358D01*
X886362Y843408D02*
Y846740D01*
Y845074D01*
X896358D01*
X894692Y843408D01*
X896358Y851739D02*
Y858403D01*
Y855071D01*
X886362D01*
X896358Y861736D02*
X886362Y868400D01*
X896358D02*
X886362Y861736D01*
X920092Y820082D02*
X921758Y818416D01*
Y815084D01*
X920092Y813418D01*
X913428D01*
X911762Y815084D01*
Y818416D01*
X913428Y820082D01*
X911762Y823415D02*
X918426D01*
X921758Y826747D01*
X918426Y830079D01*
X911762D01*
X916760D01*
Y823415D01*
X911762Y833411D02*
X921758D01*
X911762Y840076D01*
X921758D01*
X911762Y843408D02*
Y846740D01*
Y845074D01*
X921758D01*
X920092Y843408D01*
X911762Y851739D02*
X921758D01*
Y856737D01*
X920092Y858403D01*
X916760D01*
X915094Y856737D01*
Y851739D01*
Y855071D02*
X911762Y858403D01*
X921758Y861736D02*
X911762Y868400D01*
X921758D02*
X911762Y861736D01*
X921758Y893415D02*
X913428D01*
X911762Y895081D01*
Y898413D01*
X913428Y900079D01*
X921758D01*
X920092Y910076D02*
X921758Y908410D01*
Y905077D01*
X920092Y903411D01*
X918426D01*
X916760Y905077D01*
Y908410D01*
X915094Y910076D01*
X913428D01*
X911762Y908410D01*
Y905077D01*
X913428Y903411D01*
X921758Y913408D02*
X911762D01*
Y918407D01*
X913428Y920073D01*
X915094D01*
X916760Y918407D01*
Y913408D01*
Y918407D01*
X918426Y920073D01*
X920092D01*
X921758Y918407D01*
Y913408D01*
X911762Y923405D02*
Y926737D01*
Y925071D01*
X921758D01*
X920092Y923405D01*
X916760Y931736D02*
Y938400D01*
X896358Y893415D02*
X888028D01*
X886362Y895081D01*
Y898413D01*
X888028Y900079D01*
X896358D01*
X894692Y910076D02*
X896358Y908410D01*
Y905077D01*
X894692Y903411D01*
X893026D01*
X891360Y905077D01*
Y908410D01*
X889694Y910076D01*
X888028D01*
X886362Y908410D01*
Y905077D01*
X888028Y903411D01*
X896358Y913408D02*
X886362D01*
Y918407D01*
X888028Y920073D01*
X889694D01*
X891360Y918407D01*
Y913408D01*
Y918407D01*
X893026Y920073D01*
X894692D01*
X896358Y918407D01*
Y913408D01*
X886362Y923405D02*
Y926737D01*
Y925071D01*
X896358D01*
X894692Y923405D01*
X891360Y931736D02*
Y938400D01*
X894692Y935068D02*
X888028D01*
X835562Y903411D02*
X845558D01*
X842226Y906743D01*
X845558Y910076D01*
X835562D01*
X845558Y913408D02*
Y916740D01*
Y915074D01*
X835562D01*
Y913408D01*
Y916740D01*
X843892Y928403D02*
X845558Y926737D01*
Y923405D01*
X843892Y921739D01*
X842226D01*
X840560Y923405D01*
Y926737D01*
X838894Y928403D01*
X837228D01*
X835562Y926737D01*
Y923405D01*
X837228Y921739D01*
X845558Y936734D02*
Y933402D01*
X843892Y931736D01*
X837228D01*
X835562Y933402D01*
Y936734D01*
X837228Y938400D01*
X843892D01*
X845558Y936734D01*
X870958Y908410D02*
Y901745D01*
X865960D01*
Y905077D01*
Y901745D01*
X860962D01*
X869292Y918406D02*
X870958Y916740D01*
Y913408D01*
X869292Y911742D01*
X867626D01*
X865960Y913408D01*
Y916740D01*
X864294Y918406D01*
X862628D01*
X860962Y916740D01*
Y913408D01*
X862628Y911742D01*
X869292Y928403D02*
X870958Y926737D01*
Y923405D01*
X869292Y921739D01*
X867626D01*
X865960Y923405D01*
Y926737D01*
X864294Y928403D01*
X862628D01*
X860962Y926737D01*
Y923405D01*
X862628Y921739D01*
X860962Y933402D02*
X870958D01*
Y936734D02*
X860962D01*
X867626Y931736D02*
Y936734D01*
Y938400D01*
X864294Y931736D02*
Y938400D01*
X793092Y908410D02*
X794758Y906743D01*
Y903411D01*
X793092Y901745D01*
X791426D01*
X789760Y903411D01*
Y906743D01*
X788094Y908410D01*
X786428D01*
X784762Y906743D01*
Y903411D01*
X786428Y901745D01*
X793092Y918406D02*
X794758Y916740D01*
Y913408D01*
X793092Y911742D01*
X786428D01*
X784762Y913408D01*
Y916740D01*
X786428Y918406D01*
X794758Y921739D02*
X784762D01*
Y928403D01*
X794758Y931736D02*
X784762D01*
X788094D01*
X794758Y938400D01*
X789760Y933402D01*
X784762Y938400D01*
X810162Y905077D02*
X820158D01*
X816826Y908410D01*
X820158Y911742D01*
X810162D01*
X820158Y920073D02*
Y916740D01*
X818492Y915074D01*
X811828D01*
X810162Y916740D01*
Y920073D01*
X811828Y921739D01*
X818492D01*
X820158Y920073D01*
X818492Y931736D02*
X820158Y930069D01*
Y926737D01*
X818492Y925071D01*
X816826D01*
X815160Y926737D01*
Y930069D01*
X813494Y931736D01*
X811828D01*
X810162Y930069D01*
Y926737D01*
X811828Y925071D01*
X820158Y935068D02*
Y938400D01*
Y936734D01*
X810162D01*
Y935068D01*
Y938400D01*
X1006830Y888332D02*
X1008496Y889998D01*
X1011828D01*
X1013494Y888332D01*
Y886666D01*
X1011828Y885000D01*
X1008496D01*
X1006830Y883334D01*
Y881668D01*
X1008496Y880002D01*
X1011828D01*
X1013494Y881668D01*
X1003498Y880002D02*
Y889998D01*
X998499D01*
X996833Y888332D01*
Y885000D01*
X998499Y883334D01*
X1003498D01*
X993501Y889998D02*
X990169D01*
X991835D01*
Y880002D01*
X993501D01*
X990169D01*
X978506D02*
X985170D01*
X978506Y886666D01*
Y888332D01*
X980172Y889998D01*
X983504D01*
X985170Y888332D01*
X1129256Y836452D02*
X1130922Y838118D01*
X1134254D01*
X1135920Y836452D01*
Y834786D01*
X1134254Y833120D01*
X1130922D01*
X1129256Y831454D01*
Y829788D01*
X1130922Y828122D01*
X1134254D01*
X1135920Y829788D01*
X1125923Y838118D02*
Y828122D01*
X1120925D01*
X1119259Y829788D01*
Y836452D01*
X1120925Y838118D01*
X1125923D01*
X1115926Y828122D02*
Y834786D01*
X1112594Y838118D01*
X1109262Y834786D01*
Y828122D01*
Y833120D01*
X1115926D01*
X1099265Y828122D02*
X1105930D01*
X1099265Y834786D01*
Y836452D01*
X1100931Y838118D01*
X1104264D01*
X1105930Y836452D01*
X1085936Y828122D02*
Y838118D01*
X1080938D01*
X1079272Y836452D01*
Y833120D01*
X1080938Y831454D01*
X1085936D01*
X1075939Y838118D02*
Y828122D01*
X1070941D01*
X1069275Y829788D01*
Y831454D01*
X1070941Y833120D01*
X1075939D01*
X1070941D01*
X1069275Y834786D01*
Y836452D01*
X1070941Y838118D01*
X1075939D01*
X1065943Y828122D02*
X1062610D01*
X1064276D01*
Y838118D01*
X1065943Y836452D01*
X1057612Y828122D02*
X1054280D01*
X1055946D01*
Y838118D01*
X1057612Y836452D01*
X1129256Y856772D02*
X1130922Y858438D01*
X1134254D01*
X1135920Y856772D01*
Y855106D01*
X1134254Y853440D01*
X1130922D01*
X1129256Y851774D01*
Y850108D01*
X1130922Y848442D01*
X1134254D01*
X1135920Y850108D01*
X1119259Y856772D02*
X1120925Y858438D01*
X1124257D01*
X1125923Y856772D01*
Y850108D01*
X1124257Y848442D01*
X1120925D01*
X1119259Y850108D01*
X1115926Y858438D02*
Y848442D01*
X1109262D01*
X1099265D02*
X1105930D01*
X1099265Y855106D01*
Y856772D01*
X1100931Y858438D01*
X1104264D01*
X1105930Y856772D01*
X1085936Y848442D02*
Y858438D01*
X1080938D01*
X1079272Y856772D01*
Y853440D01*
X1080938Y851774D01*
X1085936D01*
X1075939Y858438D02*
Y848442D01*
X1070941D01*
X1069275Y850108D01*
Y851774D01*
X1070941Y853440D01*
X1075939D01*
X1070941D01*
X1069275Y855106D01*
Y856772D01*
X1070941Y858438D01*
X1075939D01*
X1065943Y848442D02*
X1062610D01*
X1064276D01*
Y858438D01*
X1065943Y856772D01*
X1057612D02*
X1055946Y858438D01*
X1052614D01*
X1050947Y856772D01*
Y850108D01*
X1052614Y848442D01*
X1055946D01*
X1057612Y850108D01*
Y856772D01*
X977802Y905077D02*
X987798D01*
X984466Y908410D01*
X987798Y911742D01*
X977802D01*
X987798Y920073D02*
Y916740D01*
X986132Y915074D01*
X979468D01*
X977802Y916740D01*
Y920073D01*
X979468Y921739D01*
X986132D01*
X987798Y920073D01*
X986132Y931736D02*
X987798Y930069D01*
Y926737D01*
X986132Y925071D01*
X984466D01*
X982800Y926737D01*
Y930069D01*
X981134Y931736D01*
X979468D01*
X977802Y930069D01*
Y926737D01*
X979468Y925071D01*
X987798Y935068D02*
Y938400D01*
Y936734D01*
X977802D01*
Y935068D01*
Y938400D01*
X960732Y908410D02*
X962398Y906743D01*
Y903411D01*
X960732Y901745D01*
X959066D01*
X957400Y903411D01*
Y906743D01*
X955734Y908410D01*
X954068D01*
X952402Y906743D01*
Y903411D01*
X954068Y901745D01*
X960732Y918406D02*
X962398Y916740D01*
Y913408D01*
X960732Y911742D01*
X954068D01*
X952402Y913408D01*
Y916740D01*
X954068Y918406D01*
X962398Y921739D02*
X952402D01*
Y928403D01*
X962398Y931736D02*
X952402D01*
X955734D01*
X962398Y938400D01*
X957400Y933402D01*
X952402Y938400D01*
X1038598Y908410D02*
Y901745D01*
X1033600D01*
Y905077D01*
Y901745D01*
X1028602D01*
X1036932Y918406D02*
X1038598Y916740D01*
Y913408D01*
X1036932Y911742D01*
X1035266D01*
X1033600Y913408D01*
Y916740D01*
X1031934Y918406D01*
X1030268D01*
X1028602Y916740D01*
Y913408D01*
X1030268Y911742D01*
X1036932Y928403D02*
X1038598Y926737D01*
Y923405D01*
X1036932Y921739D01*
X1035266D01*
X1033600Y923405D01*
Y926737D01*
X1031934Y928403D01*
X1030268D01*
X1028602Y926737D01*
Y923405D01*
X1030268Y921739D01*
X1028602Y933402D02*
X1038598D01*
Y936734D02*
X1028602D01*
X1035266Y931736D02*
Y936734D01*
Y938400D01*
X1031934Y931736D02*
Y938400D01*
X1003202Y903411D02*
X1013198D01*
X1009866Y906744D01*
X1013198Y910076D01*
X1003202D01*
X1013198Y913408D02*
Y916740D01*
Y915074D01*
X1003202D01*
Y913408D01*
Y916740D01*
X1011532Y928403D02*
X1013198Y926737D01*
Y923405D01*
X1011532Y921739D01*
X1009866D01*
X1008200Y923405D01*
Y926737D01*
X1006534Y928403D01*
X1004868D01*
X1003202Y926737D01*
Y923405D01*
X1004868Y921739D01*
X1013198Y936734D02*
Y933402D01*
X1011532Y931736D01*
X1004868D01*
X1003202Y933402D01*
Y936734D01*
X1004868Y938400D01*
X1011532D01*
X1013198Y936734D01*
X1089578Y901145D02*
X1081248D01*
X1079582Y902811D01*
Y906143D01*
X1081248Y907810D01*
X1089578D01*
Y917806D02*
X1087912Y914474D01*
X1084580Y911142D01*
X1081248D01*
X1079582Y912808D01*
Y916140D01*
X1081248Y917806D01*
X1082914D01*
X1084580Y916140D01*
Y911142D01*
X1079582Y921139D02*
X1089578D01*
Y926137D01*
X1087912Y927803D01*
X1084580D01*
X1082914Y926137D01*
Y921139D01*
Y924471D02*
X1079582Y927803D01*
X1089578Y931135D02*
X1079582Y937800D01*
X1089578D02*
X1079582Y931135D01*
X1064178Y901145D02*
X1055848D01*
X1054182Y902811D01*
Y906143D01*
X1055848Y907810D01*
X1064178D01*
Y917806D02*
X1062512Y914474D01*
X1059180Y911142D01*
X1055848D01*
X1054182Y912808D01*
Y916140D01*
X1055848Y917806D01*
X1057514D01*
X1059180Y916140D01*
Y911142D01*
X1064178Y921139D02*
Y927803D01*
Y924471D01*
X1054182D01*
X1064178Y931135D02*
X1054182Y937800D01*
X1064178D02*
X1054182Y931135D01*
X1003382Y586200D02*
X1010046D01*
X1013378Y589532D01*
X1010046Y592864D01*
X1003382D01*
X1008380D01*
Y586200D01*
X1013378Y596197D02*
X1003382D01*
Y601195D01*
X1005048Y602861D01*
X1011712D01*
X1013378Y601195D01*
Y596197D01*
X1011712Y612858D02*
X1013378Y611192D01*
Y607860D01*
X1011712Y606194D01*
X1005048D01*
X1003382Y607860D01*
Y611192D01*
X1005048Y612858D01*
X1013378Y622855D02*
Y616190D01*
X1008380D01*
X1010046Y619523D01*
Y621189D01*
X1008380Y622855D01*
X1005048D01*
X1003382Y621189D01*
Y617856D01*
X1005048Y616190D01*
X1013378Y637000D02*
X1003382D01*
Y641998D01*
X1005048Y643664D01*
X1011712D01*
X1013378Y641998D01*
Y637000D01*
X1003382Y646997D02*
X1010046D01*
X1013378Y650329D01*
X1010046Y653661D01*
X1003382D01*
X1008380D01*
Y646997D01*
X1011712Y663658D02*
X1013378Y661992D01*
Y658660D01*
X1011712Y656993D01*
X1005048D01*
X1003382Y658660D01*
Y661992D01*
X1005048Y663658D01*
X1003382Y673655D02*
Y666990D01*
X1010046Y673655D01*
X1011712D01*
X1013378Y671989D01*
Y668656D01*
X1011712Y666990D01*
X1038778Y637000D02*
X1028782D01*
Y641998D01*
X1030448Y643664D01*
X1037112D01*
X1038778Y641998D01*
Y637000D01*
X1028782Y646997D02*
X1035446D01*
X1038778Y650329D01*
X1035446Y653661D01*
X1028782D01*
X1033780D01*
Y646997D01*
X1037112Y663658D02*
X1038778Y661992D01*
Y658660D01*
X1037112Y656994D01*
X1030448D01*
X1028782Y658660D01*
Y661992D01*
X1030448Y663658D01*
X1028782Y666990D02*
Y670323D01*
Y668656D01*
X1038778D01*
X1037112Y666990D01*
X604988Y505002D02*
Y514998D01*
X601656Y511666D01*
X598323Y514998D01*
Y505002D01*
X594991D02*
Y511666D01*
X591659Y514998D01*
X588327Y511666D01*
Y505002D01*
Y510000D01*
X594991D01*
X584994Y514998D02*
X578330Y505002D01*
Y514998D02*
X584994Y505002D01*
X565001Y510000D02*
X558336D01*
X561669Y513332D02*
Y506668D01*
X555004Y505002D02*
X551672D01*
X553338D01*
Y514998D01*
X555004Y513332D01*
X540009Y514998D02*
X543341Y513332D01*
X546673Y510000D01*
Y506668D01*
X545007Y505002D01*
X541675D01*
X540009Y506668D01*
Y508334D01*
X541675Y510000D01*
X546673D01*
X536677Y514998D02*
Y508334D01*
X533344Y505002D01*
X530012Y508334D01*
Y514998D01*
X628000Y819202D02*
Y829199D01*
X623002D01*
X621335Y827532D01*
Y824200D01*
X623002Y822534D01*
X628000D01*
X618003Y829199D02*
Y819202D01*
X613005D01*
X611339Y820868D01*
Y822534D01*
X613005Y824200D01*
X618003D01*
X613005D01*
X611339Y825866D01*
Y827532D01*
X613005Y829199D01*
X618003D01*
X601342Y819202D02*
X608007D01*
X601342Y825866D01*
Y827532D01*
X603008Y829199D01*
X606340D01*
X608007Y827532D01*
X628000Y845098D02*
Y835101D01*
X621335D01*
X611339Y845098D02*
X618003D01*
Y835101D01*
X611339D01*
X618003Y840100D02*
X614671D01*
X608007Y845098D02*
Y835101D01*
X603008D01*
X601342Y836768D01*
Y843432D01*
X603008Y845098D01*
X608007D01*
X628000Y730798D02*
Y720801D01*
X621335D01*
X611339Y730798D02*
X618003D01*
Y720801D01*
X611339D01*
X618003Y725800D02*
X614671D01*
X608007Y730798D02*
Y720801D01*
X603008D01*
X601342Y722468D01*
Y729132D01*
X603008Y730798D01*
X608007D01*
X628000Y704902D02*
Y714899D01*
X623002D01*
X621335Y713232D01*
Y709900D01*
X623002Y708234D01*
X628000D01*
X618003Y704902D02*
Y711566D01*
X614671Y714899D01*
X611339Y711566D01*
Y704902D01*
Y709900D01*
X618003D01*
X608007Y713232D02*
X606340Y714899D01*
X603008D01*
X601342Y713232D01*
Y711566D01*
X603008Y709900D01*
X601342Y708234D01*
Y706568D01*
X603008Y704902D01*
X606340D01*
X608007Y706568D01*
Y708234D01*
X606340Y709900D01*
X608007Y711566D01*
Y713232D01*
X606340Y709900D02*
X603008D01*
X734142Y969399D02*
X744138D01*
X734142Y976063D01*
X744138D01*
X742472Y986060D02*
X744138Y984394D01*
Y981062D01*
X742472Y979396D01*
X735808D01*
X734142Y981062D01*
Y984394D01*
X735808Y986060D01*
X935512Y552225D02*
X937178Y550558D01*
Y547226D01*
X935512Y545560D01*
X928848D01*
X927182Y547226D01*
Y550558D01*
X928848Y552225D01*
X932180D01*
Y548892D01*
X927182Y555557D02*
X937178D01*
X927182Y562221D01*
X937178D01*
Y565554D02*
X927182D01*
Y570552D01*
X928848Y572218D01*
X935512D01*
X937178Y570552D01*
Y565554D01*
X876382Y545560D02*
X886378D01*
X876382Y552225D01*
X886378D01*
X884712Y562221D02*
X886378Y560555D01*
Y557223D01*
X884712Y555557D01*
X878048D01*
X876382Y557223D01*
Y560555D01*
X878048Y562221D01*
X860978Y545560D02*
Y548892D01*
Y547226D01*
X850982D01*
Y545560D01*
Y548892D01*
X860978Y558889D02*
Y555557D01*
X859312Y553891D01*
X852648D01*
X850982Y555557D01*
Y558889D01*
X852648Y560555D01*
X859312D01*
X860978Y558889D01*
X850982Y563887D02*
X860978D01*
Y568886D01*
X859312Y570552D01*
X855980D01*
X854314Y568886D01*
Y563887D01*
Y567220D02*
X850982Y570552D01*
X860978Y580549D02*
Y573884D01*
X850982D01*
Y580549D01*
X855980Y573884D02*
Y577216D01*
X860978Y590546D02*
Y583881D01*
X855980D01*
Y587213D01*
Y583881D01*
X850982D01*
X1114978Y901145D02*
X1106648D01*
X1104982Y902811D01*
Y906143D01*
X1106648Y907810D01*
X1114978D01*
X1113312Y911142D02*
X1114978Y912808D01*
Y916140D01*
X1113312Y917806D01*
X1106648D01*
X1104982Y916140D01*
Y912808D01*
X1106648Y911142D01*
X1113312D01*
X1114978Y921139D02*
Y927803D01*
Y924471D01*
X1104982D01*
X1114978Y931135D02*
X1104982Y937800D01*
X1114978D02*
X1104982Y931135D01*
X1140378Y901145D02*
X1132048D01*
X1130382Y902811D01*
Y906143D01*
X1132048Y907810D01*
X1140378D01*
X1138712Y911142D02*
X1140378Y912808D01*
Y916140D01*
X1138712Y917806D01*
X1132048D01*
X1130382Y916140D01*
Y912808D01*
X1132048Y911142D01*
X1138712D01*
X1130382Y921139D02*
X1140378D01*
Y926137D01*
X1138712Y927803D01*
X1135380D01*
X1133714Y926137D01*
Y921139D01*
Y924471D02*
X1130382Y927803D01*
X1140378Y931135D02*
X1130382Y937800D01*
X1140378D02*
X1130382Y931135D01*
X1028782Y586200D02*
X1035446D01*
X1038778Y589532D01*
X1035446Y592864D01*
X1028782D01*
X1033780D01*
Y586200D01*
X1038778Y596197D02*
X1028782D01*
Y601195D01*
X1030448Y602861D01*
X1037112D01*
X1038778Y601195D01*
Y596197D01*
X1037112Y612858D02*
X1038778Y611192D01*
Y607860D01*
X1037112Y606194D01*
X1030448D01*
X1028782Y607860D01*
Y611192D01*
X1030448Y612858D01*
X1028782Y621189D02*
X1038778D01*
X1033780Y616190D01*
Y622855D01*
X1054182Y586200D02*
X1060846D01*
X1064178Y589532D01*
X1060846Y592864D01*
X1054182D01*
X1059180D01*
Y586200D01*
X1064178Y596197D02*
X1054182D01*
Y601195D01*
X1055848Y602861D01*
X1062512D01*
X1064178Y601195D01*
Y596197D01*
X1062512Y612858D02*
X1064178Y611192D01*
Y607860D01*
X1062512Y606194D01*
X1055848D01*
X1054182Y607860D01*
Y611192D01*
X1055848Y612858D01*
X1062512Y616190D02*
X1064178Y617856D01*
Y621189D01*
X1062512Y622855D01*
X1060846D01*
X1059180Y621189D01*
Y619523D01*
Y621189D01*
X1057514Y622855D01*
X1055848D01*
X1054182Y621189D01*
Y617856D01*
X1055848Y616190D01*
X1079582Y586200D02*
X1086246D01*
X1089578Y589532D01*
X1086246Y592864D01*
X1079582D01*
X1084580D01*
Y586200D01*
X1089578Y596197D02*
X1079582D01*
Y601195D01*
X1081248Y602861D01*
X1087912D01*
X1089578Y601195D01*
Y596197D01*
X1087912Y612858D02*
X1089578Y611192D01*
Y607860D01*
X1087912Y606194D01*
X1081248D01*
X1079582Y607860D01*
Y611192D01*
X1081248Y612858D01*
X1079582Y622855D02*
Y616190D01*
X1086246Y622855D01*
X1087912D01*
X1089578Y621189D01*
Y617856D01*
X1087912Y616190D01*
X1104982Y586200D02*
X1111646D01*
X1114978Y589532D01*
X1111646Y592864D01*
X1104982D01*
X1109980D01*
Y586200D01*
X1114978Y596197D02*
X1104982D01*
Y601195D01*
X1106648Y602861D01*
X1113312D01*
X1114978Y601195D01*
Y596197D01*
X1113312Y612858D02*
X1114978Y611192D01*
Y607860D01*
X1113312Y606194D01*
X1106648D01*
X1104982Y607860D01*
Y611192D01*
X1106648Y612858D01*
X1104982Y616190D02*
Y619523D01*
Y617856D01*
X1114978D01*
X1113312Y616190D01*
X1130382Y545560D02*
X1140378D01*
Y550558D01*
X1138712Y552225D01*
X1135380D01*
X1133714Y550558D01*
Y545560D01*
X1130382Y555557D02*
X1137046D01*
X1140378Y558889D01*
X1137046Y562221D01*
X1130382D01*
X1135380D01*
Y555557D01*
X1138712Y565554D02*
X1140378Y567220D01*
Y570552D01*
X1138712Y572218D01*
X1132048D01*
X1130382Y570552D01*
Y567220D01*
X1132048Y565554D01*
X1138712D01*
X683342Y959402D02*
X693338D01*
Y964400D01*
X691672Y966066D01*
X688340D01*
X686674Y964400D01*
Y959402D01*
X693338Y969399D02*
X683342D01*
Y974397D01*
X685008Y976063D01*
X686674D01*
X688340Y974397D01*
Y969399D01*
Y974397D01*
X690006Y976063D01*
X691672D01*
X693338Y974397D01*
Y969399D01*
Y986060D02*
X691672Y982728D01*
X688340Y979396D01*
X685008D01*
X683342Y981062D01*
Y984394D01*
X685008Y986060D01*
X686674D01*
X688340Y984394D01*
Y979396D01*
X708742Y959402D02*
X718738D01*
Y964400D01*
X717072Y966066D01*
X713740D01*
X712074Y964400D01*
Y959402D01*
X718738Y969399D02*
X708742D01*
Y974397D01*
X710408Y976063D01*
X712074D01*
X713740Y974397D01*
Y969399D01*
Y974397D01*
X715406Y976063D01*
X717072D01*
X718738Y974397D01*
Y969399D01*
Y979396D02*
Y986060D01*
X717072D01*
X710408Y979396D01*
X708742D01*
X767872Y966066D02*
X769538Y964400D01*
Y961068D01*
X767872Y959402D01*
X761208D01*
X759542Y961068D01*
Y964400D01*
X761208Y966066D01*
X764540D01*
Y962734D01*
X759542Y969399D02*
X769538D01*
X759542Y976063D01*
X769538D01*
Y979396D02*
X759542D01*
Y984394D01*
X761208Y986060D01*
X767872D01*
X769538Y984394D01*
Y979396D01*
X784942Y959402D02*
X794938D01*
Y964400D01*
X793272Y966066D01*
X789940D01*
X788274Y964400D01*
Y959402D01*
X794938Y969399D02*
X784942D01*
Y974397D01*
X786608Y976063D01*
X788274D01*
X789940Y974397D01*
Y969399D01*
Y974397D01*
X791606Y976063D01*
X793272D01*
X794938Y974397D01*
Y969399D01*
X793272Y979396D02*
X794938Y981062D01*
Y984394D01*
X793272Y986060D01*
X791606D01*
X789940Y984394D01*
Y982728D01*
Y984394D01*
X788274Y986060D01*
X786608D01*
X784942Y984394D01*
Y981062D01*
X786608Y979396D01*
X810342Y959402D02*
X820338D01*
Y964400D01*
X818672Y966066D01*
X815340D01*
X813674Y964400D01*
Y959402D01*
X820338Y969399D02*
X810342D01*
Y974397D01*
X812008Y976063D01*
X813674D01*
X815340Y974397D01*
Y969399D01*
Y974397D01*
X817006Y976063D01*
X818672D01*
X820338Y974397D01*
Y969399D01*
Y986060D02*
Y979396D01*
X815340D01*
X817006Y982728D01*
Y984394D01*
X815340Y986060D01*
X812008D01*
X810342Y984394D01*
Y981062D01*
X812008Y979396D01*
X835742Y959402D02*
X845738D01*
Y964400D01*
X844072Y966066D01*
X840740D01*
X839074Y964400D01*
Y959402D01*
X845738Y969399D02*
X835742D01*
Y974397D01*
X837408Y976063D01*
X839074D01*
X840740Y974397D01*
Y969399D01*
Y974397D01*
X842406Y976063D01*
X844072D01*
X845738Y974397D01*
Y969399D01*
X835742Y984394D02*
X845738D01*
X840740Y979396D01*
Y986060D01*
X861142Y951071D02*
X871138D01*
Y956070D01*
X869472Y957736D01*
X866140D01*
X864474Y956070D01*
Y951071D01*
X861142Y961068D02*
X867806D01*
X871138Y964400D01*
X867806Y967733D01*
X861142D01*
X866140D01*
Y961068D01*
X861142Y971065D02*
Y974397D01*
Y972731D01*
X871138D01*
X869472Y971065D01*
X871138Y986060D02*
Y979396D01*
X866140D01*
X867806Y982728D01*
Y984394D01*
X866140Y986060D01*
X862808D01*
X861142Y984394D01*
Y981062D01*
X862808Y979396D01*
X886542Y951071D02*
X896538D01*
Y956070D01*
X894872Y957736D01*
X891540D01*
X889874Y956070D01*
Y951071D01*
X886542Y961068D02*
X893206D01*
X896538Y964400D01*
X893206Y967733D01*
X886542D01*
X891540D01*
Y961068D01*
X886542Y971065D02*
Y974397D01*
Y972731D01*
X896538D01*
X894872Y971065D01*
X886542Y986060D02*
Y979396D01*
X893206Y986060D01*
X894872D01*
X896538Y984394D01*
Y981062D01*
X894872Y979396D01*
X911942Y954404D02*
X921938D01*
Y959402D01*
X920272Y961068D01*
X916940D01*
X915274Y959402D01*
Y954404D01*
X911942Y964400D02*
X918606D01*
X921938Y967733D01*
X918606Y971065D01*
X911942D01*
X916940D01*
Y964400D01*
X911942Y974397D02*
Y977729D01*
Y976063D01*
X921938D01*
X920272Y974397D01*
X911942Y982728D02*
Y986060D01*
Y984394D01*
X921938D01*
X920272Y982728D01*
X952582Y951071D02*
X962578D01*
Y956070D01*
X960912Y957736D01*
X957580D01*
X955914Y956070D01*
Y951071D01*
X962578Y961068D02*
X952582D01*
Y966066D01*
X954248Y967733D01*
X955914D01*
X957580Y966066D01*
Y961068D01*
Y966066D01*
X959246Y967733D01*
X960912D01*
X962578Y966066D01*
Y961068D01*
X952582Y971065D02*
Y974397D01*
Y972731D01*
X962578D01*
X960912Y971065D01*
Y979396D02*
X962578Y981062D01*
Y984394D01*
X960912Y986060D01*
X959246D01*
X957580Y984394D01*
Y982728D01*
Y984394D01*
X955914Y986060D01*
X954248D01*
X952582Y984394D01*
Y981062D01*
X954248Y979396D01*
X977982Y951071D02*
X987978D01*
Y956070D01*
X986312Y957736D01*
X982980D01*
X981314Y956070D01*
Y951071D01*
X987978Y961068D02*
X977982D01*
Y966066D01*
X979648Y967733D01*
X981314D01*
X982980Y966066D01*
Y961068D01*
Y966066D01*
X984646Y967733D01*
X986312D01*
X987978Y966066D01*
Y961068D01*
X977982Y971065D02*
Y974397D01*
Y972731D01*
X987978D01*
X986312Y971065D01*
X987978Y986060D02*
Y979396D01*
X982980D01*
X984646Y982728D01*
Y984394D01*
X982980Y986060D01*
X979648D01*
X977982Y984394D01*
Y981062D01*
X979648Y979396D01*
X1003382Y951071D02*
X1013378D01*
Y956070D01*
X1011712Y957736D01*
X1008380D01*
X1006714Y956070D01*
Y951071D01*
X1013378Y961068D02*
X1003382D01*
Y966066D01*
X1005048Y967733D01*
X1006714D01*
X1008380Y966066D01*
Y961068D01*
Y966066D01*
X1010046Y967733D01*
X1011712D01*
X1013378Y966066D01*
Y961068D01*
X1003382Y971065D02*
Y974397D01*
Y972731D01*
X1013378D01*
X1011712Y971065D01*
X1003382Y984394D02*
X1013378D01*
X1008380Y979396D01*
Y986060D01*
X1028782Y951071D02*
X1038778D01*
Y956070D01*
X1037112Y957736D01*
X1033780D01*
X1032114Y956070D01*
Y951071D01*
X1038778Y961068D02*
X1028782D01*
Y966066D01*
X1030448Y967733D01*
X1032114D01*
X1033780Y966066D01*
Y961068D01*
Y966066D01*
X1035446Y967733D01*
X1037112D01*
X1038778Y966066D01*
Y961068D01*
X1028782Y971065D02*
Y974397D01*
Y972731D01*
X1038778D01*
X1037112Y971065D01*
X1028782Y986060D02*
Y979396D01*
X1035446Y986060D01*
X1037112D01*
X1038778Y984394D01*
Y981062D01*
X1037112Y979396D01*
X1054182Y959402D02*
X1064178D01*
Y964400D01*
X1062512Y966066D01*
X1059180D01*
X1057514Y964400D01*
Y959402D01*
X1064178Y969399D02*
X1054182D01*
Y974397D01*
X1055848Y976063D01*
X1057514D01*
X1059180Y974397D01*
Y969399D01*
Y974397D01*
X1060846Y976063D01*
X1062512D01*
X1064178Y974397D01*
Y969399D01*
X1062512Y979396D02*
X1064178Y981062D01*
Y984394D01*
X1062512Y986060D01*
X1060846D01*
X1059180Y984394D01*
X1057514Y986060D01*
X1055848D01*
X1054182Y984394D01*
Y981062D01*
X1055848Y979396D01*
X1057514D01*
X1059180Y981062D01*
X1060846Y979396D01*
X1062512D01*
X1059180Y981062D02*
Y984394D01*
X1079582Y959402D02*
X1089578D01*
Y964400D01*
X1087912Y966066D01*
X1084580D01*
X1082914Y964400D01*
Y959402D01*
X1089578Y969399D02*
X1079582D01*
Y974397D01*
X1081248Y976063D01*
X1082914D01*
X1084580Y974397D01*
Y969399D01*
Y974397D01*
X1086246Y976063D01*
X1087912D01*
X1089578Y974397D01*
Y969399D01*
X1081248Y979396D02*
X1079582Y981062D01*
Y984394D01*
X1081248Y986060D01*
X1087912D01*
X1089578Y984394D01*
Y981062D01*
X1087912Y979396D01*
X1086246D01*
X1084580Y981062D01*
Y986060D01*
X1104982Y959402D02*
X1114978D01*
Y964400D01*
X1113312Y966066D01*
X1109980D01*
X1108314Y964400D01*
Y959402D01*
X1104982Y969399D02*
X1111646D01*
X1114978Y972731D01*
X1111646Y976063D01*
X1104982D01*
X1109980D01*
Y969399D01*
X1106648Y979396D02*
X1104982Y981062D01*
Y984394D01*
X1106648Y986060D01*
X1113312D01*
X1114978Y984394D01*
Y981062D01*
X1113312Y979396D01*
X1111646D01*
X1109980Y981062D01*
Y986060D01*
X1130382Y951071D02*
X1140378D01*
Y956070D01*
X1138712Y957736D01*
X1135380D01*
X1133714Y956070D01*
Y951071D01*
X1130382Y961068D02*
X1137046D01*
X1140378Y964400D01*
X1137046Y967733D01*
X1130382D01*
X1135380D01*
Y961068D01*
X1130382Y971065D02*
Y974397D01*
Y972731D01*
X1140378D01*
X1138712Y971065D01*
Y979396D02*
X1140378Y981062D01*
Y984394D01*
X1138712Y986060D01*
X1132048D01*
X1130382Y984394D01*
Y981062D01*
X1132048Y979396D01*
X1138712D01*
X1130382Y586200D02*
X1137046D01*
X1140378Y589532D01*
X1137046Y592864D01*
X1130382D01*
X1135380D01*
Y586200D01*
X1140378Y596197D02*
X1130382D01*
Y601195D01*
X1132048Y602861D01*
X1138712D01*
X1140378Y601195D01*
Y596197D01*
X1138712Y612858D02*
X1140378Y611192D01*
Y607860D01*
X1138712Y606194D01*
X1132048D01*
X1130382Y607860D01*
Y611192D01*
X1132048Y612858D01*
X1138712Y616190D02*
X1140378Y617856D01*
Y621189D01*
X1138712Y622855D01*
X1132048D01*
X1130382Y621189D01*
Y617856D01*
X1132048Y616190D01*
X1138712D01*
X1104982Y545560D02*
X1114978D01*
Y550558D01*
X1113312Y552225D01*
X1109980D01*
X1108314Y550558D01*
Y545560D01*
X1104982Y555557D02*
X1111646D01*
X1114978Y558889D01*
X1111646Y562221D01*
X1104982D01*
X1109980D01*
Y555557D01*
X1104982Y565554D02*
Y568886D01*
Y567220D01*
X1114978D01*
X1113312Y565554D01*
X1079582Y545560D02*
X1089578D01*
Y550558D01*
X1087912Y552225D01*
X1084580D01*
X1082914Y550558D01*
Y545560D01*
X1079582Y555557D02*
X1086246D01*
X1089578Y558889D01*
X1086246Y562221D01*
X1079582D01*
X1084580D01*
Y555557D01*
X1079582Y572218D02*
Y565554D01*
X1086246Y572218D01*
X1087912D01*
X1089578Y570552D01*
Y567220D01*
X1087912Y565554D01*
X1054182Y545560D02*
X1064178D01*
Y550558D01*
X1062512Y552225D01*
X1059180D01*
X1057514Y550558D01*
Y545560D01*
X1054182Y555557D02*
X1060846D01*
X1064178Y558889D01*
X1060846Y562221D01*
X1054182D01*
X1059180D01*
Y555557D01*
X1062512Y565554D02*
X1064178Y567220D01*
Y570552D01*
X1062512Y572218D01*
X1060846D01*
X1059180Y570552D01*
Y568886D01*
Y570552D01*
X1057514Y572218D01*
X1055848D01*
X1054182Y570552D01*
Y567220D01*
X1055848Y565554D01*
X1028782Y545560D02*
X1038778D01*
Y550558D01*
X1037112Y552225D01*
X1033780D01*
X1032114Y550558D01*
Y545560D01*
X1028782Y555557D02*
X1035446D01*
X1038778Y558889D01*
X1035446Y562221D01*
X1028782D01*
X1033780D01*
Y555557D01*
X1028782Y570552D02*
X1038778D01*
X1033780Y565554D01*
Y572218D01*
X1003382Y545560D02*
X1013378D01*
Y550558D01*
X1011712Y552225D01*
X1008380D01*
X1006714Y550558D01*
Y545560D01*
X1003382Y555557D02*
X1010046D01*
X1013378Y558889D01*
X1010046Y562221D01*
X1003382D01*
X1008380D01*
Y555557D01*
X1013378Y572218D02*
Y565554D01*
X1008380D01*
X1010046Y568886D01*
Y570552D01*
X1008380Y572218D01*
X1005048D01*
X1003382Y570552D01*
Y567220D01*
X1005048Y565554D01*
X962578Y545560D02*
X955914D01*
X952582Y548892D01*
X955914Y552225D01*
X962578D01*
X960912Y562221D02*
X962578Y560555D01*
Y557223D01*
X960912Y555557D01*
X954248D01*
X952582Y557223D01*
Y560555D01*
X954248Y562221D01*
X960912Y572218D02*
X962578Y570552D01*
Y567220D01*
X960912Y565554D01*
X954248D01*
X952582Y567220D01*
Y570552D01*
X954248Y572218D01*
X962578Y575550D02*
Y578883D01*
Y577216D01*
X952582D01*
Y575550D01*
Y578883D01*
Y583881D02*
X962578D01*
X952582Y590546D01*
X962578D01*
X910112Y552225D02*
X911778Y550558D01*
Y547226D01*
X910112Y545560D01*
X903448D01*
X901782Y547226D01*
Y550558D01*
X903448Y552225D01*
X906780D01*
Y548892D01*
X901782Y555557D02*
X911778D01*
X901782Y562221D01*
X911778D01*
Y565554D02*
X901782D01*
Y570552D01*
X903448Y572218D01*
X910112D01*
X911778Y570552D01*
Y565554D01*
X825582Y545560D02*
X835578D01*
Y550558D01*
X833912Y552225D01*
X830580D01*
X828914Y550558D01*
Y545560D01*
Y548892D02*
X825582Y552225D01*
X835578Y562221D02*
Y555557D01*
X825582D01*
Y562221D01*
X830580Y555557D02*
Y558889D01*
X833912Y572218D02*
X835578Y570552D01*
Y567220D01*
X833912Y565554D01*
X832246D01*
X830580Y567220D01*
Y570552D01*
X828914Y572218D01*
X827248D01*
X825582Y570552D01*
Y567220D01*
X827248Y565554D01*
X835578Y582215D02*
Y575550D01*
X825582D01*
Y582215D01*
X830580Y575550D02*
Y578883D01*
X835578Y585547D02*
Y592212D01*
Y588879D01*
X825582D01*
X808512Y545560D02*
X810178Y547226D01*
Y550558D01*
X808512Y552225D01*
X806846D01*
X805180Y550558D01*
Y548892D01*
Y550558D01*
X803514Y552225D01*
X801848D01*
X800182Y550558D01*
Y547226D01*
X801848Y545560D01*
X810178Y555557D02*
X803514D01*
X800182Y558889D01*
X803514Y562221D01*
X810178D01*
X808512Y565554D02*
X810178Y567220D01*
Y570552D01*
X808512Y572218D01*
X806846D01*
X805180Y570552D01*
Y568886D01*
Y570552D01*
X803514Y572218D01*
X801848D01*
X800182Y570552D01*
Y567220D01*
X801848Y565554D01*
X785611Y552225D02*
Y545560D01*
X775615D01*
Y552225D01*
X780613Y545560D02*
Y548892D01*
X783945Y562221D02*
X785611Y560555D01*
Y557223D01*
X783945Y555557D01*
X782279D01*
X780613Y557223D01*
Y560555D01*
X778947Y562221D01*
X777281D01*
X775615Y560555D01*
Y557223D01*
X777281Y555557D01*
X775615Y565554D02*
X785611D01*
Y570552D01*
X783945Y572218D01*
X780613D01*
X778947Y570552D01*
Y565554D01*
X773949Y575550D02*
Y582215D01*
X785611Y585547D02*
Y588879D01*
Y587213D01*
X775615D01*
Y585547D01*
Y588879D01*
X785611Y598876D02*
Y595544D01*
X783945Y593878D01*
X777281D01*
X775615Y595544D01*
Y598876D01*
X777281Y600542D01*
X783945D01*
X785611Y598876D01*
X777281Y603875D02*
X775615Y605541D01*
Y608873D01*
X777281Y610539D01*
X783945D01*
X785611Y608873D01*
Y605541D01*
X783945Y603875D01*
X782279D01*
X780613Y605541D01*
Y610539D01*
X733978Y545560D02*
X727314D01*
X723982Y548892D01*
X727314Y552225D01*
X733978D01*
Y555557D02*
X723982D01*
Y560555D01*
X725648Y562221D01*
X727314D01*
X728980Y560555D01*
Y555557D01*
Y560555D01*
X730646Y562221D01*
X732312D01*
X733978Y560555D01*
Y555557D01*
X723982Y565554D02*
X730646D01*
X733978Y568886D01*
X730646Y572218D01*
X723982D01*
X728980D01*
Y565554D01*
X733978Y575550D02*
Y582215D01*
Y578883D01*
X723982D01*
X706912Y552225D02*
X708578Y550558D01*
Y547226D01*
X706912Y545560D01*
X700248D01*
X698582Y547226D01*
Y550558D01*
X700248Y552225D01*
X703580D01*
Y548892D01*
X698582Y555557D02*
X708578D01*
X698582Y562221D01*
X708578D01*
Y565554D02*
X698582D01*
Y570552D01*
X700248Y572218D01*
X706912D01*
X708578Y570552D01*
Y565554D01*
X673182Y545560D02*
X683178D01*
Y550558D01*
X681512Y552225D01*
X678180D01*
X676514Y550558D01*
Y545560D01*
X683178Y560555D02*
Y557223D01*
X681512Y555557D01*
X674848D01*
X673182Y557223D01*
Y560555D01*
X674848Y562221D01*
X681512D01*
X683178Y560555D01*
Y565554D02*
X673182D01*
X676514Y568886D01*
X673182Y572218D01*
X683178D01*
Y582215D02*
Y575550D01*
X673182D01*
Y582215D01*
X678180Y575550D02*
Y578883D01*
X673182Y585547D02*
X683178D01*
Y590546D01*
X681512Y592212D01*
X678180D01*
X676514Y590546D01*
Y585547D01*
Y588879D02*
X673182Y592212D01*
X683178Y610539D02*
Y607207D01*
X681512Y605541D01*
X674848D01*
X673182Y607207D01*
Y610539D01*
X674848Y612205D01*
X681512D01*
X683178Y610539D01*
Y622202D02*
Y615537D01*
X678180D01*
Y618870D01*
Y615537D01*
X673182D01*
X683178Y632199D02*
Y625534D01*
X678180D01*
Y628867D01*
Y625534D01*
X673182D01*
D156*
X795830Y649225D02*
D03*
Y678315D02*
D03*
Y755885D02*
D03*
Y784975D02*
D03*
D157*
X771595Y649225D02*
D03*
X757045D02*
D03*
X737655D02*
D03*
X727955D02*
D03*
X718255D02*
D03*
X684315D02*
D03*
X810375Y658915D02*
D03*
X781285D02*
D03*
X771595D02*
D03*
X737655D02*
D03*
X727955D02*
D03*
X810375Y663765D02*
D03*
X781285D02*
D03*
X771595D02*
D03*
X810375Y673465D02*
D03*
X781285D02*
D03*
X674625D02*
D03*
X771595Y678315D02*
D03*
X703715D02*
D03*
X810375Y688005D02*
D03*
X800685D02*
D03*
X810375Y692855D02*
D03*
X757045D02*
D03*
X810375Y697705D02*
D03*
X781285D02*
D03*
X723105D02*
D03*
X713405D02*
D03*
X684315D02*
D03*
X771595Y702555D02*
D03*
X732805D02*
D03*
X684315D02*
D03*
X674625D02*
D03*
X752195Y707405D02*
D03*
X727955D02*
D03*
X718255D02*
D03*
X698865D02*
D03*
X810375Y712255D02*
D03*
X795835D02*
D03*
X771595D02*
D03*
X737655D02*
D03*
X732805Y721945D02*
D03*
X674625D02*
D03*
X800685Y726795D02*
D03*
X757045D02*
D03*
X727955D02*
D03*
X718255D02*
D03*
X786135Y731645D02*
D03*
X732805D02*
D03*
X718255D02*
D03*
X689165D02*
D03*
X800685Y741345D02*
D03*
X790985D02*
D03*
X766745D02*
D03*
X747345D02*
D03*
X674625D02*
D03*
X698865Y746195D02*
D03*
X689165D02*
D03*
X771595Y755885D02*
D03*
X752195D02*
D03*
X732805D02*
D03*
X723105D02*
D03*
X713405D02*
D03*
X810375Y760735D02*
D03*
X781285D02*
D03*
X771595D02*
D03*
X723105D02*
D03*
X713405D02*
D03*
X703715D02*
D03*
X674625D02*
D03*
X810375Y765585D02*
D03*
X781285D02*
D03*
X703715D02*
D03*
X674625D02*
D03*
X810375Y770435D02*
D03*
X781285D02*
D03*
X757045D02*
D03*
X727955D02*
D03*
X713405D02*
D03*
X703715D02*
D03*
X674625D02*
D03*
X810375Y775285D02*
D03*
X781285D02*
D03*
X703715D02*
D03*
X674625D02*
D03*
X766745Y784975D02*
D03*
X732805D02*
D03*
D158*
X698865Y649225D02*
D03*
X689165Y678315D02*
D03*
X698865Y697705D02*
D03*
X761895Y731645D02*
D03*
X698865Y741345D02*
D03*
X689165Y765585D02*
D03*
Y770435D02*
D03*
X761895Y775285D02*
D03*
X689165D02*
D03*
D159*
X810375Y654070D02*
D03*
X781285D02*
D03*
X771595D02*
D03*
X757045D02*
D03*
X698865D02*
D03*
X689165D02*
D03*
X771595Y683160D02*
D03*
X732805D02*
D03*
X713405D02*
D03*
X752195Y751040D02*
D03*
X732805D02*
D03*
X810375Y780130D02*
D03*
X781285D02*
D03*
X703715D02*
D03*
X674625D02*
D03*
D160*
X737650Y654070D02*
D03*
X747350Y683160D02*
D03*
D161*
X710985Y654070D02*
D03*
Y717100D02*
D03*
D162*
X679470Y654070D02*
D03*
X805530Y717100D02*
D03*
D163*
X795835Y658915D02*
D03*
Y663765D02*
D03*
X718255Y673465D02*
D03*
X732805Y688005D02*
D03*
X795835Y692855D02*
D03*
X723105Y746195D02*
D03*
X795835Y765585D02*
D03*
X718255D02*
D03*
X795835Y770435D02*
D03*
Y775285D02*
D03*
D164*
X754620Y658915D02*
D03*
X749770Y673465D02*
D03*
X715830Y678315D02*
D03*
X793410Y697705D02*
D03*
X735230D02*
D03*
X720680Y702555D02*
D03*
X686740Y707405D02*
D03*
X749770Y712255D02*
D03*
X798260Y721945D02*
D03*
X749770D02*
D03*
X686740Y726795D02*
D03*
X749770Y765585D02*
D03*
X769170Y770435D02*
D03*
X720680Y775285D02*
D03*
X715830Y784975D02*
D03*
D165*
X698865Y658915D02*
D03*
D166*
X723105Y663765D02*
D03*
Y741345D02*
D03*
D167*
X681895Y663765D02*
D03*
X803105Y702555D02*
D03*
X740075Y760735D02*
D03*
D168*
X810375Y668615D02*
D03*
X781285D02*
D03*
X771595D02*
D03*
X752195D02*
D03*
X684315D02*
D03*
X713405Y736495D02*
D03*
D169*
X795835Y668615D02*
D03*
D170*
X761895D02*
D03*
X694015Y736495D02*
D03*
D171*
X732800Y668615D02*
D03*
X747350Y736495D02*
D03*
D172*
X703710Y668615D02*
D03*
D173*
X764320Y673465D02*
D03*
D174*
X694015D02*
D03*
X761895Y678315D02*
D03*
Y755885D02*
D03*
Y760735D02*
D03*
Y765585D02*
D03*
D175*
X742500Y678315D02*
D03*
X679470Y688005D02*
D03*
X737650Y692855D02*
D03*
X708560D02*
D03*
X747350Y746195D02*
D03*
X737650Y775285D02*
D03*
D176*
X761895Y683160D02*
D03*
D177*
X684320D02*
D03*
D178*
X769165Y688005D02*
D03*
X706135D02*
D03*
Y712255D02*
D03*
D179*
X774015Y692855D02*
D03*
X807955Y707405D02*
D03*
X744925Y770435D02*
D03*
D180*
X679470Y692855D02*
D03*
X742500Y707405D02*
D03*
X708560D02*
D03*
X679470Y712255D02*
D03*
X805530Y731645D02*
D03*
X776440D02*
D03*
X742500D02*
D03*
X679470D02*
D03*
X708560Y746195D02*
D03*
X679470D02*
D03*
X742500Y755885D02*
D03*
Y784975D02*
D03*
D181*
X759470Y697705D02*
D03*
D182*
X701285Y702555D02*
D03*
X769165Y721945D02*
D03*
D183*
X771590Y707405D02*
D03*
Y746195D02*
D03*
D184*
X786135Y717100D02*
D03*
D185*
X735225D02*
D03*
D186*
X689165D02*
D03*
D187*
X708560Y721945D02*
D03*
X689170Y755885D02*
D03*
Y784975D02*
D03*
D188*
X778865Y726795D02*
D03*
D189*
X798260Y736495D02*
D03*
D190*
X774015D02*
D03*
D191*
X800680Y746195D02*
D03*
D192*
X769170Y780130D02*
D03*
X754620D02*
D03*
D193*
X732800D02*
D03*
M02*
