G04*
G04 #@! TF.GenerationSoftware,Altium Limited,Altium Designer,23.3.1 (30)*
G04*
G04 Layer_Color=16711935*
%FSLAX44Y44*%
%MOMM*%
G71*
G04*
G04 #@! TF.SameCoordinates,F927A1A9-083D-4E77-8F85-F88C074BD17A*
G04*
G04*
G04 #@! TF.FilePolarity,Negative*
G04*
G01*
G75*
%ADD121R,1.7032X2.1032*%
%ADD122O,1.7032X2.1032*%
%ADD123O,3.7032X2.2032*%
%ADD124C,0.2032*%
%ADD125O,2.2032X1.7032*%
%ADD126O,1.8032X1.4532*%
G04:AMPARAMS|DCode=127|XSize=1.4532mm|YSize=1.8032mm|CornerRadius=0.4141mm|HoleSize=0mm|Usage=FLASHONLY|Rotation=90.000|XOffset=0mm|YOffset=0mm|HoleType=Round|Shape=RoundedRectangle|*
%AMROUNDEDRECTD127*
21,1,1.4532,0.9750,0,0,90.0*
21,1,0.6250,1.8032,0,0,90.0*
1,1,0.8282,0.4875,0.3125*
1,1,0.8282,0.4875,-0.3125*
1,1,0.8282,-0.4875,-0.3125*
1,1,0.8282,-0.4875,0.3125*
%
%ADD127ROUNDEDRECTD127*%
%ADD128O,2.1000X1.2000*%
%ADD129O,2.4000X1.2000*%
%ADD130R,0.1000X0.1000*%
%ADD131O,2.2032X3.8032*%
%ADD132C,2.9032*%
%ADD133O,3.8032X2.2032*%
%ADD134C,3.4032*%
D121*
X715900Y931800D02*
D03*
X591440Y1008000D02*
D03*
X687960D02*
D03*
X957200Y1008000D02*
D03*
X779400Y525400D02*
D03*
X1008000D02*
D03*
X677800D02*
D03*
D122*
X690500Y931800D02*
D03*
X665100D02*
D03*
X665100Y906400D02*
D03*
X690500D02*
D03*
X715900D02*
D03*
X616840Y1008000D02*
D03*
X789560D02*
D03*
X738760D02*
D03*
X713360D02*
D03*
X764160D02*
D03*
X916560D02*
D03*
X814960D02*
D03*
X840360D02*
D03*
X865760Y1008000D02*
D03*
X891160Y1008000D02*
D03*
X1058800Y1008000D02*
D03*
X1008000D02*
D03*
X982600D02*
D03*
X1033400D02*
D03*
X1084200D02*
D03*
X1109600D02*
D03*
X1135000Y1008000D02*
D03*
X881000Y525400D02*
D03*
X830200D02*
D03*
X804800D02*
D03*
X855600D02*
D03*
X906400D02*
D03*
X931800D02*
D03*
X957200Y525400D02*
D03*
X1135000Y525400D02*
D03*
X1084200D02*
D03*
X1033400D02*
D03*
X1058800D02*
D03*
X1109600D02*
D03*
X703200D02*
D03*
X728600D02*
D03*
D123*
X586300Y856250D02*
D03*
Y693750D02*
D03*
D124*
X552000Y838500D02*
D03*
Y711500D02*
D03*
X517000Y607500D02*
D03*
D125*
X643400Y843600D02*
D03*
Y820700D02*
D03*
Y729300D02*
D03*
Y706400D02*
D03*
D126*
X577400Y800300D02*
D03*
X595200Y810700D02*
D03*
X577400Y779900D02*
D03*
X595200Y790100D02*
D03*
X577400Y759500D02*
D03*
X595200Y769700D02*
D03*
Y749300D02*
D03*
D127*
X577400Y739100D02*
D03*
D128*
X527000Y970200D02*
D03*
Y883800D02*
D03*
D129*
X568800Y970200D02*
D03*
Y883800D02*
D03*
D130*
X563800Y955900D02*
D03*
Y898100D02*
D03*
D131*
X550000Y607500D02*
D03*
D132*
X606000D02*
D03*
D133*
X544000Y658000D02*
D03*
X592000D02*
D03*
X544000Y557000D02*
D03*
X592000D02*
D03*
D134*
X639700Y525400D02*
D03*
X652400Y1008000D02*
D03*
X1160400Y855600D02*
D03*
Y576200D02*
D03*
M02*
