M48
;Layer_Color=9474304
;FILE_FORMAT=4:3
METRIC,LZ
;TYPE=PLATED
T1F00S00C0.250
T4F00S00C0.900
T6F00S00C0.950
T7F00S00C1.050
T8F00S00C1.500
T9F00S00C3.200
;TYPE=NON_PLATED
T10F00S00C0.650
T11F00S00C1.700
T12F00S00C3.250
%
T01
X008125Y0058625
X00825
X008375Y0058625
X0085Y0058625
X0085Y00577
X00865Y005825
X00875
X0088658Y0062357
X0088658Y0063913
X0085547Y0063913
X0085547Y0065468
X0083991Y0065468
X0082436Y0065468
X0082435Y0063913
X0082435Y0062357
X008125Y0061
X0085547Y0062357
X0085547Y0067024
X0083991Y0067024
X0083991Y006858
X0082436Y006858
X008088Y006858
X008088Y0071691
X0082436Y0073246
X0084217Y007425
X0085547Y0073246
X0083991Y0071691
X0083991Y0070135
X0087283Y0070539
X0087102Y0069357
X0088658Y0070135
X0090214Y0070135
X009175Y00701
X0093325Y0070135
X0093325Y0071691
X0091769Y0071691
X0091769Y0073246
X00919Y007425
X0090214Y0073246
X0090394Y0072094
X0088658Y0073246
X0088Y0076
Y0077
Y0078
Y0079
X00834Y00792
Y00778
X0079806Y007425
X0094881Y0073246
X0094881Y0071691
X0094881Y0068579
X0094885Y0067028
X0091769Y0067024
X0091769Y0065468
X0091769Y0063913
X0091769Y0062357
X009488Y0062357
X009488Y0063913
X00945Y00603
X00954
X00946Y00578
X00958Y00554
X00995
X00984Y00578
X01021
X01039Y00587
X01058Y00578
X01069Y00554
X01106
X01095Y00578
X01087Y0060461
X01086Y00616
X010945Y00616
X01105Y00613
X01122Y00612
X0113044Y0061202
X0113887Y0061204
X0114731Y0061207
X0115574Y0061209
X0116418Y0061211
X0117261Y0061213
X0118105Y0061215
X0114Y00592
X01123
X01132Y00578
X0111402Y0063456
X01114Y00643
Y006515
Y0066
Y006685
X01114Y00677
X01114Y006855
Y00694
Y007025
Y00711
Y007195
Y00728
Y007365
Y00745
Y007535
X011115Y00772
X01103Y00772
X01122Y00776
X0113044Y0077598
X0113887Y0077596
X0114731Y0077593
X0115574Y0077591
X0116418Y0077589
X0117261Y0077587
X0118105Y0077585
X01143Y00785
X011345
X01128Y00792
X010765Y0078
X01074Y00754
X01089
X01049Y00753
Y00737
X0104Y0073
Y00745
X010437Y007187
X010275
X010273Y007023
Y006858
X010438
X010438Y006693
X010273Y006693
X010603
X010767
Y006858
X010603
Y007023
X010767
Y007187
X010602Y007187
X010438Y007023
X01018Y00694
X0101825Y00711
X00975
X00975Y007025
X00968Y00742
X00974Y00764
X00943Y0077125
X009475Y007875
X01042Y00786
X010125Y00754
X0101093Y0064193
X01004Y00635
X0098025Y00616
X01032Y00554
X0092
X0088658Y0067024
X0079324Y006858
X0079324Y0070135
X0077765Y0070209
Y0067798
X00733Y00683
Y00692
X00716Y006925
Y007
Y00709
X0071625Y0072775
Y0073725
X00684Y00723
Y00767
X00695Y0076555
X00668Y00774
X00716Y006845
Y00677
X00741Y00658
X007535Y00634
X0079324Y0063913
X007935Y00605
Y005975
X00786
Y00605
X0077655Y005635
X007685Y005635
X0075205Y005635
X0074395
X00731Y00577
X0072
X00708Y00563
X00696Y005805
X00688
X00687Y00597
X00697
X00692Y006035
X00687Y0061
X00697
X00696Y006265
X00688
X0065905Y00608
X0065095
X00627Y005945
Y005864
Y005745
Y005664
X00587Y00509
X005325Y0051275
X0079324Y0073246
X0073Y0082
X006935Y008085
X006845Y007995
X006705Y008085
X006755Y008195
X00694Y00835
X00668Y008765
X00642Y00875
X00632Y008875
X00642Y009
X0062Y00903
X00628Y00925
X00604Y00928
X00596Y00894
X00625Y00855
X00583Y00951
X00741Y0093
X00775Y00928
Y009175
X007615Y009125
X007775Y009005
X007875Y009
X007775Y008895
X0076425Y008765
X007535
X00769Y00956
X00777Y00949
X0079015Y0094535
X0081575Y0091995
X0082Y00899
X0083Y00909
X00845Y0090725
X00845Y0089455
X0084Y0093
X00836Y00964
X00846
X00874Y00988
X00885Y00988
X009175Y00974
X00931Y00967
X00943Y00967
X00951Y00967
X00963Y00967
X009725Y009595
X00995Y0096
X01005
X01015Y00935
X01025Y00927
X0102Y008985
X01031
X010175Y00886
X01019Y00846
X01029Y008465
X01022Y00826
X010025Y008355
X00977Y008605
Y0087
X0095Y00867
X0094
X0094643Y0087443
X00932Y0086
X00935Y0085
X0091469Y0084469
X00904Y008625
X00908Y00871
Y008785
Y00886
X009025Y00908
X009075Y009595
X00925Y0096
X00941Y00934
X00953
X00961Y00934
X00973Y00934
X00992Y009175
X009825Y00974
X01057Y00971
X010665Y009455
X010885Y00935
X01099Y00925
X011025Y008895
Y00882
X011025Y00868
Y008605
X01074Y008545
X010665
X01057Y00855
X01063Y00828
X01057Y00895
X0105775Y00918
X01082Y008955
X010895
X010885Y00965
X01118Y00805
X01143Y00811
Y00798
Y00824
X01179Y0083
X009595Y008475
X00959Y00857
X00954Y00811
X00947Y00817
Y008
X0096469Y0080131
X0088Y008
X0089Y00815
X00867Y00843
Y00867
X00876Y008675
X00875Y00877
X00835Y00842
X00826Y00819
X00904Y01026
T04
X005774Y007391
Y007595
Y007799
X005952Y007697
Y007901
Y007493
Y008107
X005774Y008003
T06
X008048Y005254
X008302
X008556
X00881
X009064
X009318
X009572Y005254
X01008Y005254
X010334
X010588
X010842
X011096
X01135
X007794
X007286
X007032
X006778
X006651Y009064
X006905
Y009318
X007159
Y009064
X006651Y009318
X0068796Y01008
X0071336
X0073876
X0076416
X0078956
X0061684
X0059144
X0081496
X0084036
X0086576Y01008
X0089116Y01008
X0091656
X009572Y01008
X009826
X01008
X010334
X010588
X010842
X011096
X01135Y01008
T07
X006434Y007064
Y007293
Y008207
Y008436
T08
X00606Y006075
T09
X011604Y005762
X006397Y005254
X006524Y01008
X011604Y008556
T10
X005638Y008981
Y009559
T11
X00517Y006075
T12
X00552Y007115
Y008385
M30
