G04*
G04 #@! TF.GenerationSoftware,Altium Limited,Altium Designer,23.3.1 (30)*
G04*
G04 Layer_Color=65535*
%FSLAX44Y44*%
%MOMM*%
G71*
G04*
G04 #@! TF.SameCoordinates,251BAFB9-E827-4C36-8F0F-43BA4AAE9409*
G04*
G04*
G04 #@! TF.FilePolarity,Positive*
G04*
G01*
G75*
%ADD10C,0.2500*%
%ADD11C,0.5000*%
%ADD12C,0.1000*%
%ADD13C,0.2000*%
%ADD14C,0.2540*%
%ADD15R,1.6000X0.2000*%
%ADD16R,2.9000X0.7000*%
%ADD17R,2.0000X1.0000*%
%ADD18R,0.7000X0.7000*%
%ADD19R,0.7000X0.7000*%
%ADD20R,1.0500X1.0500*%
G36*
X644875Y653000D02*
X653125Y642000D01*
X661375Y653000D01*
X644875Y653000D01*
D02*
G37*
G36*
X678000Y508000D02*
X673039Y500062D01*
X682961D01*
X678000Y508000D01*
D02*
G37*
G36*
X815000Y547097D02*
Y552903D01*
X820080Y550000D01*
X815000Y547097D01*
D02*
G37*
G36*
X770000Y865000D02*
X770218Y865000D01*
X770654Y864981D01*
X771089Y864943D01*
X771522Y864886D01*
X771951Y864810D01*
X772377Y864716D01*
X772799Y864603D01*
X773215Y864472D01*
X773625Y864322D01*
X774028Y864155D01*
X774424Y863971D01*
X774811Y863769D01*
X775189Y863551D01*
X775557Y863317D01*
X775915Y863066D01*
X776261Y862801D01*
X776595Y862520D01*
X776917Y862225D01*
X777225Y861917D01*
X777520Y861595D01*
X777801Y861261D01*
X778066Y860914D01*
X778317Y860557D01*
X778551Y860189D01*
X778769Y859811D01*
X778971Y859424D01*
X779155Y859028D01*
X779322Y858625D01*
X779471Y858215D01*
X779603Y857799D01*
X779716Y857377D01*
X779810Y856951D01*
X779886Y856522D01*
X779943Y856089D01*
X779981Y855654D01*
X780000Y855218D01*
X780000Y855000D01*
X780000Y855000D01*
X780000Y765000D01*
X780000Y764782D01*
X779981Y764346D01*
X779943Y763911D01*
X779886Y763478D01*
X779810Y763049D01*
X779716Y762623D01*
X779603Y762201D01*
X779472Y761785D01*
X779322Y761375D01*
X779155Y760972D01*
X778971Y760576D01*
X778769Y760189D01*
X778551Y759811D01*
X778317Y759443D01*
X778066Y759085D01*
X777801Y758739D01*
X777520Y758405D01*
X777225Y758083D01*
X776917Y757775D01*
X776595Y757480D01*
X776261Y757199D01*
X775914Y756934D01*
X775557Y756683D01*
X775189Y756449D01*
X774811Y756231D01*
X774424Y756029D01*
X774028Y755845D01*
X773625Y755678D01*
X773215Y755528D01*
X772799Y755397D01*
X772377Y755284D01*
X771951Y755190D01*
X771522Y755114D01*
X771089Y755057D01*
X770654Y755019D01*
X770218Y755000D01*
X770000Y755000D01*
X729782D01*
X729346Y755019D01*
X728911Y755057D01*
X728478Y755114D01*
X728049Y755190D01*
X727623Y755284D01*
X727201Y755397D01*
X726785Y755528D01*
X726375Y755678D01*
X725972Y755845D01*
X725576Y756029D01*
X725189Y756231D01*
X724811Y756449D01*
X724443Y756683D01*
X724085Y756934D01*
X723739Y757199D01*
X723405Y757480D01*
X723083Y757775D01*
X722775Y758083D01*
X722480Y758405D01*
X722199Y758739D01*
X721934Y759085D01*
X721683Y759443D01*
X721449Y759811D01*
X721231Y760189D01*
X721029Y760576D01*
X720845Y760972D01*
X720678Y761375D01*
X720528Y761785D01*
X720397Y762201D01*
X720284Y762623D01*
X720190Y763049D01*
X720114Y763478D01*
X720057Y763911D01*
X720019Y764346D01*
X720000Y764782D01*
Y765000D01*
X720000Y765000D01*
Y855000D01*
X720000Y855218D01*
X720019Y855654D01*
X720057Y856089D01*
X720114Y856522D01*
X720190Y856951D01*
X720284Y857377D01*
X720397Y857799D01*
X720528Y858215D01*
X720678Y858625D01*
X720845Y859028D01*
X721029Y859424D01*
X721231Y859811D01*
X721449Y860189D01*
X721683Y860557D01*
X721934Y860914D01*
X722199Y861261D01*
X722480Y861595D01*
X722775Y861917D01*
X723083Y862225D01*
X723405Y862520D01*
X723739Y862801D01*
X724085Y863066D01*
X724443Y863317D01*
X724811Y863551D01*
X725189Y863769D01*
X725576Y863971D01*
X725972Y864155D01*
X726375Y864322D01*
X726785Y864471D01*
X727201Y864603D01*
X727623Y864716D01*
X728048Y864810D01*
X728478Y864886D01*
X728911Y864943D01*
X729346Y864981D01*
X729782Y865000D01*
X730000Y865000D01*
X730000Y865000D01*
X770000Y865000D01*
D02*
G37*
G36*
X787000Y745000D02*
X777000D01*
Y745000D01*
X787000Y755000D01*
Y745000D01*
D02*
G37*
G36*
X754125Y709500D02*
X745875Y720500D01*
X762375Y720500D01*
X754125Y709500D01*
D02*
G37*
G36*
X591440Y1025462D02*
X586479Y1033400D01*
X596401D01*
X591440Y1025462D01*
D02*
G37*
G36*
X740500Y980097D02*
X735420Y983000D01*
X740500Y985903D01*
Y980097D01*
D02*
G37*
G36*
X703500Y939100D02*
X702900D01*
X700200Y944500D01*
X706200D01*
X703500Y939100D01*
D02*
G37*
G36*
X678100D02*
X677500D01*
X674800Y944500D01*
X680800D01*
X678100Y939100D01*
D02*
G37*
G36*
X706200Y893700D02*
X700200D01*
X702900Y899100D01*
X703500D01*
X706200Y893700D01*
D02*
G37*
G36*
X680800D02*
X674800D01*
X677500Y899100D01*
X678100D01*
X680800Y893700D01*
D02*
G37*
G36*
X722000Y880000D02*
X710000D01*
X716000Y891000D01*
X722000Y880000D01*
D02*
G37*
G36*
X964641Y867160D02*
X953841Y867160D01*
X953841Y867160D01*
X953712Y867157D01*
X953456Y867138D01*
X953202Y867099D01*
X952951Y867041D01*
X952705Y866964D01*
X952466Y866870D01*
X952235Y866757D01*
X952013Y866627D01*
X951802Y866480D01*
X951602Y866318D01*
X951415Y866142D01*
X951242Y865951D01*
X951083Y865749D01*
X950941Y865534D01*
X950815Y865310D01*
X950706Y865077D01*
X950616Y864836D01*
X950544Y864589D01*
X950490Y864337D01*
X950456Y864082D01*
X950447Y863954D01*
X950448Y863843D01*
X950463Y863622D01*
X950492Y863401D01*
X950535Y863183D01*
X950593Y862969D01*
X950664Y862758D01*
X950749Y862553D01*
X950847Y862354D01*
X950958Y862162D01*
X951082Y861977D01*
X951217Y861801D01*
X951364Y861634D01*
X951521Y861477D01*
X951688Y861330D01*
X951864Y861195D01*
X952048Y861072D01*
X952241Y860961D01*
X952440Y860862D01*
X952645Y860777D01*
X952856Y860706D01*
X953070Y860648D01*
X953288Y860605D01*
X953508Y860576D01*
X953730Y860562D01*
X953841Y860560D01*
X964641D01*
Y858060D01*
X953841D01*
X953669Y858060D01*
X953325Y858079D01*
X952983Y858117D01*
X952644Y858174D01*
X952308Y858250D01*
X951977Y858344D01*
X951652Y858457D01*
X951334Y858587D01*
X951023Y858735D01*
X950721Y858900D01*
X950429Y859082D01*
X950147Y859279D01*
X949876Y859492D01*
X949618Y859719D01*
X949373Y859961D01*
X949141Y860216D01*
X948925Y860483D01*
X948723Y860762D01*
X948537Y861051D01*
X948367Y861351D01*
X948215Y861659D01*
X948079Y861975D01*
X947962Y862299D01*
X947862Y862628D01*
X947781Y862963D01*
X947719Y863301D01*
X947676Y863643D01*
X947651Y863986D01*
X947649Y864158D01*
X947657Y864326D01*
X947691Y864662D01*
X947744Y864995D01*
X947815Y865325D01*
X947903Y865650D01*
X948009Y865970D01*
X948132Y866284D01*
X948273Y866591D01*
X948429Y866890D01*
X948602Y867179D01*
X948790Y867459D01*
X948993Y867728D01*
X949211Y867986D01*
X949442Y868232D01*
X949686Y868464D01*
X949942Y868683D01*
X950210Y868888D01*
X950489Y869078D01*
X950778Y869253D01*
X951075Y869411D01*
X951381Y869553D01*
X951694Y869679D01*
X952013Y869787D01*
X952338Y869877D01*
X952668Y869950D01*
X953000Y870005D01*
X953336Y870042D01*
X953672Y870060D01*
X953841Y870060D01*
X964641Y870060D01*
Y867160D01*
D02*
G37*
G36*
X971341Y862660D02*
X966341D01*
Y865060D01*
X971341D01*
Y862660D01*
D02*
G37*
G36*
X980908Y858044D02*
X977408D01*
X970407Y870044D01*
X973907D01*
X979250Y860817D01*
X984592Y870044D01*
X987907D01*
X980908Y858044D01*
D02*
G37*
G36*
X1111500Y758500D02*
X1111500Y758500D01*
X1111500D01*
X1111523Y758496D01*
X1113328Y758155D01*
X1113543Y758066D01*
X1113796Y757944D01*
X1114041Y757808D01*
X1114279Y757659D01*
X1114508Y757497D01*
X1114727Y757322D01*
X1114936Y757135D01*
X1115135Y756936D01*
X1115322Y756727D01*
X1115497Y756508D01*
X1115659Y756279D01*
X1115808Y756041D01*
X1115944Y755796D01*
X1116066Y755543D01*
X1116173Y755284D01*
X1116266Y755019D01*
X1116343Y754749D01*
X1116406Y754476D01*
X1116453Y754199D01*
X1116484Y753920D01*
X1116500Y753640D01*
X1116500Y753500D01*
X1116500Y634500D01*
X1116500Y634500D01*
X1116500Y634360D01*
X1116484Y634080D01*
X1116453Y633801D01*
X1116406Y633524D01*
X1116343Y633251D01*
X1116266Y632981D01*
X1116173Y632716D01*
X1116066Y632457D01*
X1115944Y632204D01*
X1115808Y631959D01*
X1115659Y631721D01*
X1115497Y631492D01*
X1115322Y631273D01*
X1115135Y631064D01*
X1114936Y630865D01*
X1114727Y630678D01*
X1114508Y630503D01*
X1114279Y630341D01*
X1114041Y630192D01*
X1113796Y630056D01*
X1113543Y629934D01*
X1113284Y629827D01*
X1113019Y629734D01*
X1112749Y629657D01*
X1112476Y629594D01*
X1112199Y629547D01*
X1111920Y629516D01*
X1111640Y629500D01*
X992360D01*
X992079Y629516D01*
X991801Y629547D01*
X991524Y629594D01*
X991251Y629657D01*
X990981Y629734D01*
X990716Y629827D01*
X990457Y629934D01*
X990204Y630056D01*
X989959Y630192D01*
X989721Y630341D01*
X989492Y630503D01*
X989273Y630678D01*
X989064Y630865D01*
X988865Y631064D01*
X988678Y631273D01*
X988503Y631492D01*
X988341Y631721D01*
X988192Y631959D01*
X988056Y632204D01*
X987934Y632457D01*
X987827Y632716D01*
X987734Y632981D01*
X987657Y633251D01*
X987594Y633524D01*
X987547Y633801D01*
X987516Y634080D01*
X987500Y634360D01*
X987500Y634500D01*
Y753500D01*
X987500Y753640D01*
X987516Y753920D01*
X987547Y754199D01*
X987594Y754476D01*
X987656Y754749D01*
X987734Y755019D01*
X987827Y755284D01*
X987934Y755543D01*
X988056Y755796D01*
X988192Y756041D01*
X988341Y756279D01*
X988503Y756508D01*
X988678Y756727D01*
X988865Y756936D01*
X989063Y757135D01*
X989273Y757322D01*
X989492Y757497D01*
X989721Y757659D01*
X989958Y757808D01*
X990204Y757944D01*
X990457Y758066D01*
X990716Y758173D01*
X990981Y758266D01*
X991251Y758343D01*
X991524Y758406D01*
X991801Y758453D01*
X992079Y758484D01*
X992360Y758500D01*
X992500Y758500D01*
X1111500Y758500D01*
X1111500Y758500D01*
D02*
G37*
G36*
X919545Y870041D02*
X919667Y870039D01*
X919909Y870019D01*
X920149Y869984D01*
X920387Y869933D01*
X920620Y869866D01*
X920849Y869784D01*
X921072Y869688D01*
X921289Y869577D01*
X921497Y869452D01*
X921697Y869314D01*
X921887Y869163D01*
X922067Y868999D01*
X922237Y868825D01*
X922394Y868640D01*
X922539Y868445D01*
X922670Y868240D01*
X922789Y868028D01*
X922893Y867808D01*
X922982Y867582D01*
X923056Y867351D01*
X923115Y867115D01*
X923159Y866876D01*
X923187Y866635D01*
X923199Y866392D01*
X923197Y866270D01*
X923197Y866271D01*
X923197Y866161D01*
X923183Y865942D01*
X923154Y865724D01*
X923112Y865509D01*
X923055Y865297D01*
X922984Y865089D01*
X922900Y864886D01*
X922803Y864689D01*
X922693Y864499D01*
X922571Y864316D01*
X922438Y864142D01*
X922293Y863977D01*
X922138Y863822D01*
X921973Y863677D01*
X921799Y863544D01*
X921616Y863422D01*
X921426Y863312D01*
X921229Y863215D01*
X921026Y863131D01*
X920818Y863061D01*
X920606Y863004D01*
X920391Y862961D01*
X920173Y862933D01*
X919954Y862918D01*
X919845Y862918D01*
D01*
X919845D01*
X919845D01*
X923041Y858151D01*
X919545D01*
X916541Y862831D01*
X908714D01*
Y858256D01*
X906093D01*
Y870041D01*
X919545Y870041D01*
D02*
G37*
G36*
X927641Y858160D02*
X925041D01*
Y870060D01*
X927641D01*
Y858160D01*
D02*
G37*
G36*
X946441Y867260D02*
X933041D01*
X933041Y867260D01*
X932976Y867258D01*
X932846Y867241D01*
X932720Y867207D01*
X932599Y867157D01*
X932486Y867091D01*
X932382Y867012D01*
X932289Y866919D01*
X932210Y866815D01*
X932144Y866702D01*
X932094Y866581D01*
X932060Y866455D01*
X932043Y866325D01*
X932041Y866260D01*
X932043Y866201D01*
X932058Y866084D01*
X932089Y865971D01*
X932134Y865862D01*
X932193Y865760D01*
X932264Y865666D01*
X932348Y865583D01*
X932441Y865511D01*
X932543Y865453D01*
X932652Y865407D01*
X932766Y865377D01*
X932882Y865362D01*
X932941Y865360D01*
X943541D01*
X943541Y865360D01*
X943659Y865360D01*
X943894Y865341D01*
X944127Y865304D01*
X944356Y865249D01*
X944580Y865177D01*
X944798Y865086D01*
X945008Y864979D01*
X945209Y864856D01*
X945400Y864718D01*
X945579Y864565D01*
X945746Y864398D01*
X945899Y864219D01*
X946037Y864028D01*
X946161Y863827D01*
X946268Y863617D01*
X946358Y863399D01*
X946431Y863175D01*
X946486Y862945D01*
X946523Y862713D01*
X946541Y862478D01*
X946541Y862360D01*
X946541Y861160D01*
X946541Y861160D01*
X946541Y861038D01*
X946522Y860795D01*
X946484Y860555D01*
X946427Y860318D01*
X946352Y860086D01*
X946258Y859861D01*
X946148Y859644D01*
X946021Y859436D01*
X945877Y859239D01*
X945719Y859054D01*
X945547Y858882D01*
X945362Y858723D01*
X945165Y858580D01*
X944957Y858453D01*
X944740Y858342D01*
X944515Y858249D01*
X944283Y858174D01*
X944046Y858117D01*
X943806Y858079D01*
X943563Y858060D01*
X943441Y858060D01*
X929341D01*
Y860560D01*
X942941D01*
X942993Y860562D01*
X943097Y860575D01*
X943198Y860602D01*
X943295Y860642D01*
X943385Y860695D01*
X943469Y860758D01*
X943543Y860832D01*
X943606Y860915D01*
X943659Y861006D01*
X943699Y861103D01*
X943726Y861204D01*
X943739Y861308D01*
X943741Y861360D01*
X943741Y861760D01*
X943741Y861760D01*
X943739Y861812D01*
X943726Y861916D01*
X943699Y862017D01*
X943659Y862114D01*
X943606Y862204D01*
X943543Y862287D01*
X943469Y862361D01*
X943385Y862425D01*
X943295Y862477D01*
X943198Y862517D01*
X943097Y862544D01*
X942993Y862558D01*
X942941Y862560D01*
X932441Y862560D01*
X932441D01*
X932319Y862560D01*
X932076Y862579D01*
X931836Y862617D01*
X931599Y862674D01*
X931367Y862749D01*
X931142Y862842D01*
X930925Y862953D01*
X930717Y863080D01*
X930520Y863223D01*
X930335Y863382D01*
X930163Y863554D01*
X930005Y863739D01*
X929862Y863936D01*
X929734Y864144D01*
X929624Y864361D01*
X929530Y864586D01*
X929455Y864818D01*
X929398Y865055D01*
X929360Y865295D01*
X929341Y865538D01*
X929341Y865660D01*
Y866960D01*
X929341Y866960D01*
X929341Y867082D01*
X929360Y867324D01*
X929398Y867565D01*
X929455Y867802D01*
X929530Y868034D01*
X929624Y868259D01*
X929734Y868476D01*
X929862Y868683D01*
X930005Y868880D01*
X930163Y869066D01*
X930335Y869238D01*
X930520Y869396D01*
X930717Y869539D01*
X930925Y869667D01*
X931142Y869777D01*
X931367Y869870D01*
X931599Y869946D01*
X931836Y870003D01*
X932076Y870041D01*
X932319Y870060D01*
X932441Y870060D01*
X946441Y870060D01*
Y867260D01*
D02*
G37*
G36*
X969908Y909414D02*
X948131Y879049D01*
X936767Y892364D01*
X937017Y892397D01*
X937515Y892475D01*
X938011Y892572D01*
X938502Y892686D01*
X938989Y892818D01*
X939472Y892968D01*
X939948Y893135D01*
X940418Y893319D01*
X940881Y893520D01*
X941336Y893737D01*
X941783Y893971D01*
X942222Y894220D01*
X942651Y894486D01*
X943071Y894766D01*
X943480Y895062D01*
X943878Y895372D01*
X944264Y895697D01*
X944639Y896035D01*
X945001Y896386D01*
X945350Y896751D01*
X945686Y897128D01*
X946008Y897516D01*
X946316Y897916D01*
X946609Y898327D01*
X946887Y898748D01*
X947150Y899179D01*
X947397Y899619D01*
X947627Y900068D01*
X947842Y900525D01*
X948040Y900989D01*
X948221Y901460D01*
X948385Y901937D01*
X948531Y902420D01*
X948661Y902908D01*
X948772Y903400D01*
X948865Y903896D01*
X948941Y904395D01*
X948998Y904896D01*
X949037Y905399D01*
X949059Y905904D01*
X949062Y906156D01*
X949062D01*
X949085Y906405D01*
X949116Y906903D01*
X949131Y907403D01*
X949127Y907902D01*
X949107Y908401D01*
X949069Y908900D01*
X949013Y909396D01*
X948941Y909890D01*
X948851Y910382D01*
X948744Y910870D01*
X948620Y911354D01*
X948479Y911833D01*
X948321Y912307D01*
X948148Y912775D01*
X947957Y913238D01*
X947751Y913692D01*
X947529Y914140D01*
X947292Y914580D01*
X947039Y915011D01*
X946772Y915433D01*
X946490Y915845D01*
X946193Y916247D01*
X945883Y916639D01*
X945560Y917019D01*
X945223Y917388D01*
X944873Y917746D01*
X944512Y918090D01*
X944138Y918422D01*
X943754Y918741D01*
X943358Y919046D01*
X942952Y919336D01*
X942536Y919613D01*
X942110Y919875D01*
X941676Y920122D01*
X941233Y920354D01*
X940783Y920570D01*
X940325Y920770D01*
X939861Y920954D01*
X939390Y921122D01*
X938914Y921273D01*
X938433Y921407D01*
X937947Y921525D01*
X937458Y921625D01*
X936965Y921709D01*
X936718Y921744D01*
X936718Y921744D01*
X969908D01*
Y909414D01*
D02*
G37*
G36*
X934411Y915009D02*
X934820Y914969D01*
X935227Y914909D01*
X935630Y914828D01*
X936028Y914728D01*
X936422Y914609D01*
X936809Y914471D01*
X937188Y914313D01*
X937560Y914138D01*
X937923Y913944D01*
X938275Y913733D01*
X938617Y913504D01*
X938947Y913259D01*
X939265Y912999D01*
X939569Y912723D01*
X939860Y912432D01*
X940136Y912127D01*
X940397Y911810D01*
X940641Y911479D01*
X940870Y911138D01*
X941081Y910785D01*
X941275Y910423D01*
X941451Y910051D01*
X941608Y909671D01*
X941747Y909284D01*
X941866Y908891D01*
X941966Y908492D01*
X942046Y908089D01*
X942106Y907683D01*
X942146Y907274D01*
X942167Y906863D01*
Y906658D01*
Y906460D01*
X942147Y906064D01*
X942108Y905669D01*
X942050Y905278D01*
X941973Y904889D01*
X941877Y904505D01*
X941762Y904126D01*
X941628Y903753D01*
X941477Y903387D01*
X941307Y903028D01*
X941120Y902679D01*
X940917Y902339D01*
X940697Y902010D01*
X940461Y901692D01*
X940209Y901385D01*
X939943Y901092D01*
X939663Y900812D01*
X939370Y900546D01*
X939063Y900294D01*
X938745Y900058D01*
X938416Y899838D01*
X938076Y899635D01*
X937727Y899448D01*
X937368Y899278D01*
X937002Y899127D01*
X936629Y898993D01*
X936250Y898878D01*
X935866Y898782D01*
X935477Y898705D01*
X935085Y898647D01*
X934691Y898608D01*
X934296Y898588D01*
X933985D01*
X925428Y898510D01*
X925412Y895532D01*
X942426Y874920D01*
X942419Y874926D01*
X922679D01*
Y914998D01*
X922689Y915008D01*
X933612Y915029D01*
X934000D01*
X934411Y915009D01*
D02*
G37*
G36*
X969812Y874731D02*
X953869D01*
Y874819D01*
X969812Y897231D01*
Y874731D01*
D02*
G37*
G36*
X1112333Y913000D02*
X1105667D01*
X1109000Y918000D01*
X1112333Y913000D01*
D02*
G37*
G36*
X1150471Y902111D02*
X1150827Y902111D01*
X1151538Y902055D01*
X1152243Y901943D01*
X1152937Y901777D01*
X1153615Y901556D01*
X1154274Y901283D01*
X1154910Y900959D01*
X1155518Y900587D01*
X1156096Y900167D01*
X1156638Y899704D01*
X1157142Y899200D01*
X1157606Y898657D01*
X1158025Y898080D01*
X1158398Y897472D01*
X1158722Y896836D01*
X1158995Y896177D01*
X1159215Y895498D01*
X1159382Y894805D01*
X1159493Y894100D01*
X1159549Y893389D01*
X1159549Y893032D01*
X1159549D01*
X1159549Y892677D01*
X1159494Y891970D01*
X1159382Y891269D01*
X1159217Y890579D01*
X1158998Y889903D01*
X1158726Y889248D01*
X1158404Y888615D01*
X1158033Y888010D01*
X1157616Y887436D01*
X1157155Y886896D01*
X1156653Y886395D01*
X1156113Y885934D01*
X1155539Y885516D01*
X1154934Y885145D01*
X1154302Y884823D01*
X1153646Y884552D01*
X1152971Y884332D01*
X1152281Y884167D01*
X1151580Y884056D01*
X1150872Y884000D01*
X1150517Y884000D01*
X1119000D01*
Y898184D01*
X1115565D01*
X1115565Y896814D01*
X1115309Y897070D01*
X1115309Y897070D01*
X1115162Y897210D01*
X1114850Y897466D01*
X1114515Y897690D01*
X1114159Y897880D01*
X1113786Y898035D01*
X1113400Y898152D01*
X1113004Y898230D01*
X1112603Y898270D01*
X1112401Y898275D01*
X1111980Y898275D01*
X1111980Y898275D01*
X1111787Y898270D01*
X1111404Y898232D01*
X1111027Y898157D01*
X1110659Y898046D01*
X1110304Y897899D01*
X1109965Y897717D01*
X1109645Y897504D01*
X1109348Y897260D01*
X1109209Y897127D01*
X1109026Y896935D01*
X1108689Y896525D01*
X1108394Y896084D01*
X1108144Y895616D01*
X1107941Y895126D01*
X1107787Y894618D01*
X1107684Y894098D01*
X1107632Y893570D01*
X1107625Y893305D01*
Y892520D01*
Y892520D01*
X1107631Y892270D01*
X1107680Y891774D01*
X1107777Y891285D01*
X1107922Y890808D01*
X1108113Y890347D01*
X1108348Y889908D01*
X1108625Y889493D01*
X1108941Y889108D01*
X1109113Y888927D01*
X1109272Y888776D01*
X1109610Y888498D01*
X1109974Y888255D01*
X1110360Y888049D01*
X1110764Y887881D01*
X1111183Y887755D01*
X1111612Y887669D01*
X1112048Y887626D01*
X1112266Y887621D01*
X1112717D01*
X1112880Y887625D01*
X1113204Y887657D01*
X1113523Y887720D01*
X1113835Y887815D01*
X1114136Y887939D01*
X1114423Y888093D01*
X1114693Y888274D01*
X1114945Y888480D01*
X1115063Y888592D01*
X1115565Y889095D01*
Y884000D01*
X1112409D01*
X1111699Y884056D01*
X1110997Y884167D01*
X1110305Y884333D01*
X1109628Y884553D01*
X1108970Y884826D01*
X1108336Y885148D01*
X1107730Y885520D01*
X1107154Y885939D01*
X1106613Y886401D01*
X1106110Y886904D01*
X1105648Y887445D01*
X1105229Y888021D01*
X1104858Y888627D01*
X1104535Y889261D01*
X1104262Y889919D01*
X1104042Y890595D01*
X1103876Y891287D01*
X1103765Y891990D01*
X1103709Y892700D01*
Y893055D01*
X1103709Y893411D01*
X1103765Y894121D01*
X1103876Y894823D01*
X1104042Y895515D01*
X1104262Y896192D01*
X1104535Y896850D01*
X1104858Y897484D01*
X1105229Y898090D01*
X1105648Y898666D01*
X1106110Y899207D01*
X1106613Y899710D01*
X1107154Y900172D01*
X1107730Y900591D01*
X1108336Y900962D01*
X1108970Y901285D01*
X1109628Y901558D01*
X1110305Y901778D01*
X1110997Y901944D01*
X1111699Y902055D01*
X1112409Y902111D01*
X1112765Y902111D01*
X1150471Y902111D01*
X1150471Y902111D01*
D02*
G37*
G36*
X1113084Y895497D02*
X1113905D01*
X1114648Y895189D01*
X1115216Y894621D01*
X1115523Y893878D01*
Y893476D01*
X1115544Y892528D01*
Y892087D01*
X1115207Y891272D01*
X1114583Y890648D01*
X1113767Y890310D01*
X1112881D01*
X1112059Y890651D01*
X1111430Y891280D01*
X1111089Y892103D01*
Y892548D01*
Y893284D01*
Y893729D01*
X1111430Y894551D01*
X1112059Y895180D01*
X1112881Y895521D01*
X1113326D01*
X1113084Y895497D01*
D02*
G37*
%LPC*%
G36*
X1076500Y721500D02*
X1076500Y721500D01*
X1027500Y721500D01*
X1027382Y721500D01*
X1027147Y721481D01*
X1026914Y721445D01*
X1026685Y721390D01*
X1026461Y721317D01*
X1026243Y721227D01*
X1026033Y721120D01*
X1025832Y720996D01*
X1025641Y720858D01*
X1025462Y720705D01*
X1025295Y720538D01*
X1025142Y720359D01*
X1025004Y720168D01*
X1025004Y720168D01*
X1024880Y719967D01*
X1024880Y719967D01*
X1024773Y719757D01*
X1024773Y719757D01*
X1024683Y719539D01*
X1024683Y719539D01*
X1024610Y719315D01*
X1024610Y719314D01*
X1024555Y719086D01*
X1024555Y719085D01*
X1024518Y718853D01*
X1024518Y718851D01*
X1024500Y718618D01*
X1024500Y718500D01*
X1024500Y718500D01*
X1024500Y669382D01*
X1024519Y669147D01*
X1024555Y668914D01*
X1024610Y668685D01*
X1024683Y668461D01*
X1024773Y668243D01*
X1024881Y668033D01*
X1025004Y667832D01*
X1025142Y667641D01*
X1025295Y667462D01*
X1025462Y667295D01*
X1025641Y667142D01*
X1025832Y667004D01*
X1026033Y666880D01*
X1026243Y666774D01*
X1026461Y666683D01*
X1026685Y666610D01*
X1026914Y666555D01*
X1027147Y666518D01*
X1027382Y666500D01*
X1027500D01*
Y666500D01*
X1076618D01*
X1076853Y666518D01*
X1077086Y666555D01*
X1077315Y666610D01*
X1077539Y666683D01*
X1077757Y666773D01*
X1077967Y666880D01*
X1078168Y667004D01*
X1078359Y667142D01*
X1078538Y667295D01*
X1078705Y667462D01*
X1078858Y667641D01*
X1078996Y667832D01*
X1079119Y668033D01*
X1079226Y668243D01*
X1079317Y668461D01*
X1079389Y668685D01*
X1079445Y668914D01*
X1079481Y669147D01*
X1079500Y669382D01*
X1079500Y669500D01*
X1079500Y669500D01*
X1079500Y718618D01*
X1079481Y718853D01*
X1079445Y719086D01*
X1079389Y719315D01*
X1079317Y719539D01*
X1079227Y719757D01*
X1079119Y719967D01*
X1078996Y720168D01*
X1078858Y720359D01*
X1078705Y720538D01*
X1078538Y720705D01*
X1078359Y720858D01*
X1078168Y720996D01*
X1078168Y720996D01*
X1077967Y721120D01*
X1077967Y721120D01*
X1077757Y721227D01*
X1077757Y721227D01*
X1077539Y721317D01*
X1077539Y721317D01*
X1077315Y721389D01*
X1077315Y721389D01*
X1077086Y721444D01*
X1077085Y721445D01*
X1076853Y721481D01*
X1076852Y721481D01*
X1076618Y721500D01*
X1076503Y721500D01*
X1076501Y721500D01*
X1076500Y721500D01*
D02*
G37*
G36*
X919907Y867160D02*
X908841D01*
Y865260D01*
X920000D01*
X920117Y865275D01*
X920231Y865306D01*
X920340Y865351D01*
X920442Y865410D01*
X920536Y865482D01*
X920619Y865565D01*
X920691Y865659D01*
X920750Y865761D01*
X920795Y865870D01*
X920826Y865984D01*
X920841Y866101D01*
Y866160D01*
Y866225D01*
X920824Y866355D01*
X920790Y866482D01*
X920740Y866603D01*
X920674Y866717D01*
X920594Y866821D01*
X920502Y866913D01*
X920398Y866993D01*
X920284Y867059D01*
X920163Y867109D01*
X920037Y867143D01*
X919907Y867160D01*
D02*
G37*
G36*
X1152551Y898266D02*
X1150543D01*
X1149908Y898140D01*
X1149310Y897892D01*
X1148773Y897533D01*
X1148544Y897304D01*
X1147608Y896368D01*
Y896368D01*
X1147355Y896115D01*
X1146956Y895519D01*
X1146682Y894856D01*
X1146542Y894153D01*
Y893794D01*
Y892486D01*
Y892011D01*
X1146727Y891080D01*
X1147090Y890203D01*
X1147618Y889414D01*
X1147953Y889078D01*
X1148290Y888741D01*
X1149082Y888212D01*
X1149961Y887848D01*
X1150895Y887662D01*
X1152551D01*
Y890458D01*
X1152499Y890407D01*
X1151777D01*
X1151643Y890414D01*
X1151382Y890465D01*
X1151136Y890567D01*
X1150915Y890715D01*
X1150816Y890805D01*
X1150496Y891124D01*
X1150379Y891254D01*
X1150184Y891546D01*
X1150050Y891870D01*
X1149981Y892213D01*
X1149973Y892389D01*
Y893572D01*
X1149980Y893712D01*
X1150034Y893986D01*
X1150141Y894244D01*
X1150296Y894476D01*
X1150390Y894580D01*
X1150864Y895053D01*
X1150960Y895140D01*
X1151175Y895284D01*
X1151413Y895383D01*
X1151667Y895433D01*
X1151796Y895440D01*
X1152551Y895407D01*
Y898266D01*
D02*
G37*
G36*
X1137951Y898184D02*
X1134593D01*
X1132508Y891121D01*
X1130444Y898184D01*
X1127163D01*
X1125117Y891121D01*
X1123033Y898184D01*
X1119540D01*
X1119540Y898184D01*
X1123342Y887744D01*
X1126738D01*
X1128745Y894189D01*
X1130733Y887744D01*
X1134129D01*
X1137951Y898184D01*
D02*
G37*
G36*
X1145862D02*
X1142447D01*
Y887744D01*
X1145862D01*
Y898184D01*
D02*
G37*
G36*
X1141752D02*
X1138336D01*
Y887744D01*
X1141752D01*
X1141752Y898184D01*
D02*
G37*
%LPD*%
D10*
X734250Y630250D02*
G03*
X734250Y630250I-1250J0D01*
G01*
X769750Y947500D02*
G03*
X769750Y947500I-1250J0D01*
G01*
X669250Y806000D02*
G03*
X669250Y806000I-1250J0D01*
G01*
X858500Y886050D02*
G03*
X858500Y886050I-1250J0D01*
G01*
X1054500Y932500D02*
G03*
X1054500Y932500I-1250J0D01*
G01*
Y972500D02*
G03*
X1054500Y972500I-1250J0D01*
G01*
X947750Y581750D02*
G03*
X947750Y581750I-1250J0D01*
G01*
X985750D02*
G03*
X985750Y581750I-1250J0D01*
G01*
X1022750Y581750D02*
G03*
X1022750Y581750I-1250J0D01*
G01*
X1059750Y581750D02*
G03*
X1059750Y581750I-1250J0D01*
G01*
X1096750Y581750D02*
G03*
X1096750Y581750I-1250J0D01*
G01*
X1133750D02*
G03*
X1133750Y581750I-1250J0D01*
G01*
X1009500Y845000D02*
G03*
X1009500Y845000I-1250J0D01*
G01*
D11*
X802500Y750000D02*
G03*
X802500Y750000I-2500J0D01*
G01*
D12*
X628500Y927750D02*
G03*
X628500Y927750I-500J0D01*
G01*
D13*
X1096000Y864250D02*
G03*
X1096000Y864250I-1000J0D01*
G01*
X1022000Y818000D02*
G03*
X1022006Y818108I-994J108D01*
G01*
X669500Y609500D02*
G03*
X669500Y609500I-1000J0D01*
G01*
X597750Y532000D02*
Y533250D01*
X590250Y532000D02*
Y533250D01*
Y513000D02*
Y515000D01*
X597750Y513000D02*
Y515000D01*
X652400Y893700D02*
X728600D01*
X652400D02*
Y944500D01*
X728600D01*
Y893700D02*
Y944500D01*
X522000Y519000D02*
Y528000D01*
X568000Y519000D02*
Y528000D01*
X522000Y541500D02*
X568000D01*
X522000Y505500D02*
X568000D01*
X625250Y883750D02*
Y888250D01*
X614750Y883750D02*
Y888250D01*
X673750Y862250D02*
X678250D01*
X673750Y872750D02*
X678250D01*
X642030Y689000D02*
X656000D01*
Y701700D01*
Y845030D02*
Y859000D01*
X643300D02*
X656000D01*
X1143000Y824000D02*
X1145000D01*
X1143000Y811000D02*
X1145000D01*
X1143000Y798000D02*
X1145000D01*
X1143000Y785000D02*
X1145000D01*
X1143000D02*
Y830500D01*
X1094000D02*
X1143000D01*
X898750Y753000D02*
Y755000D01*
X891250Y753000D02*
Y755000D01*
X782250Y583500D02*
X782250Y593500D01*
X762750Y583500D02*
Y593500D01*
X757750Y583500D02*
Y593500D01*
X738250Y583500D02*
Y593500D01*
X776000Y614000D02*
X965500D01*
Y741500D01*
X776000D02*
X965500D01*
X776000Y614000D02*
Y741500D01*
X787939Y698523D02*
X788823Y699407D01*
X782636Y703827D02*
X783520Y704710D01*
X803496Y714080D02*
X804380Y714964D01*
X798192Y719383D02*
X799076Y720267D01*
X715000Y625500D02*
X722500D01*
Y633000D01*
X677500Y625500D02*
X685000D01*
X677500D02*
Y633000D01*
X715000Y670500D02*
X722500D01*
Y663000D02*
Y670500D01*
X677500D02*
X685000D01*
X677500Y663000D02*
Y670500D01*
X765500Y636000D02*
X766750D01*
X766750Y656000D01*
X765500D02*
X766750D01*
X734000Y636000D02*
X735250D01*
X734000D02*
X734000Y656000D01*
X735250D01*
X1023000Y856250D02*
X1025000D01*
X1023000Y848750D02*
X1025000D01*
X765000Y902500D02*
X768250D01*
Y937500D01*
X765000D02*
X768250D01*
X733750Y902500D02*
X737000D01*
X733750D02*
Y937500D01*
X737000D01*
X663000Y549750D02*
X665000D01*
X663000Y557250D02*
X665000D01*
X968441Y811309D02*
Y813309D01*
X960941Y811309D02*
Y813309D01*
X540000Y974000D02*
X555000D01*
X504000Y892000D02*
Y962000D01*
Y892000D02*
X557000D01*
Y962000D01*
X504000D02*
X557000D01*
X540000Y880000D02*
X555000D01*
X502000D02*
X514000D01*
X502000Y974000D02*
X514000D01*
X815750Y847250D02*
X820250D01*
X815750Y836750D02*
X820250D01*
X814750Y783250D02*
X819250D01*
X814750Y772750D02*
X819250D01*
X1100250Y797250D02*
X1104750D01*
X1100250Y786750D02*
X1104750D01*
X685000Y694250D02*
X695000D01*
X685000Y674750D02*
X695000D01*
X622000Y620500D02*
Y660500D01*
X615000D02*
X622000D01*
Y554500D02*
Y594500D01*
X615000Y554500D02*
X622000D01*
X503000Y660500D02*
X521000D01*
X503000Y554500D02*
X521000D01*
X1154000Y794250D02*
X1156000D01*
X1154000Y801750D02*
X1156000D01*
X1046000Y788250D02*
X1048000D01*
X1046000Y795750D02*
X1048000D01*
X1046000Y776250D02*
X1048000D01*
X1046000Y783750D02*
X1048000D01*
X1064500Y776250D02*
X1066500D01*
X1064500Y783750D02*
X1066500D01*
X1154000Y820250D02*
X1156000D01*
X1154000Y827750D02*
X1156000D01*
X1154000Y807250D02*
X1156000D01*
X1154000Y814750D02*
X1156000D01*
X1154000Y781250D02*
X1156000D01*
X1154000Y788750D02*
X1156000D01*
X673750Y846250D02*
X678250D01*
X673750Y835750D02*
X678250D01*
X673750Y736750D02*
X678250D01*
X673750Y726250D02*
X678250D01*
X815000Y545500D02*
X820000Y545500D01*
X815000Y554500D02*
X820000Y554500D01*
X764750Y977000D02*
Y979000D01*
X757250Y977000D02*
Y979000D01*
X757500Y879250D02*
X759500D01*
X757500Y886750D02*
X759500D01*
X1173750Y820250D02*
X1175000D01*
X1173750Y827750D02*
X1175000D01*
X1173750Y807250D02*
X1175000D01*
X1173750Y814750D02*
X1175000D01*
X1173750Y794250D02*
X1175000D01*
X1173750Y801750D02*
X1175000D01*
X1173750Y788750D02*
X1175000D01*
X1173750Y781250D02*
X1175000D01*
X815750Y822750D02*
X820250D01*
X815750Y833250D02*
X820250D01*
X815750Y850750D02*
X820250D01*
X815750Y861250D02*
X820250D01*
X814750Y769250D02*
X819250Y769250D01*
X814750Y758750D02*
X819250D01*
X814750Y797250D02*
X819250D01*
X814750Y786750D02*
X819250Y786750D01*
X673750Y788750D02*
X678250D01*
X673750Y778250D02*
X678250D01*
X739000Y685000D02*
X741000Y685000D01*
X739000Y685000D02*
Y733000D01*
X741000Y733000D01*
X767000Y685000D02*
X769000Y685000D01*
Y733000D01*
X767000Y733000D02*
X769000Y733000D01*
X711500Y713500D02*
Y723500D01*
X692000Y713500D02*
Y723500D01*
X673750Y752250D02*
X678250D01*
X673750Y762750D02*
X678250D01*
X670000Y812000D02*
Y825250D01*
X694500Y812000D02*
Y825250D01*
X610250Y883750D02*
Y888250D01*
X599750Y883750D02*
Y888250D01*
X673750Y699250D02*
X678250D01*
X673750Y709750D02*
X678250D01*
X846000Y889000D02*
Y989000D01*
X814000Y889000D02*
Y989000D01*
Y889000D02*
X846000D01*
X814000Y989000D02*
X846000D01*
X879000Y606250D02*
X881000D01*
X879000Y598750D02*
X881000D01*
X879000Y595750D02*
X881000D01*
X879000Y588250D02*
X881000D01*
X877750Y976000D02*
Y978000D01*
X870250Y976000D02*
Y978000D01*
X888750Y976000D02*
Y978000D01*
X881250Y976000D02*
Y978000D01*
X781500Y879250D02*
X783500D01*
X781500Y886750D02*
X783500D01*
X781500Y903250D02*
X783500D01*
X781500Y910750D02*
X783500D01*
X1100000Y799500D02*
X1105000D01*
X1100000Y810500D02*
X1105000D01*
X1097000Y783750D02*
X1099000D01*
X1097000Y776250D02*
X1099000D01*
X606000Y965000D02*
X626000D01*
Y975000D01*
X606000Y965000D02*
Y975000D01*
X626000D01*
X606000Y989000D02*
X626000D01*
X606000Y979000D02*
Y989000D01*
X626000Y979000D02*
Y989000D01*
X606000Y979000D02*
X626000D01*
X581915Y1022288D02*
X600965D01*
X604140Y1019112D01*
X578740D02*
X581915Y1022288D01*
X626365D02*
X629540Y1019112D01*
X604140D02*
X607315Y1022288D01*
X626365D01*
X600967Y993714D02*
X604142Y996889D01*
X578742Y996889D02*
X581917Y993714D01*
X600967D01*
X607317Y993714D02*
X626367D01*
X604142Y996889D02*
X607317Y993714D01*
X626367D02*
X629542Y996889D01*
X578740Y1019112D02*
X578742Y996889D01*
X604140Y1019112D02*
X604142Y996889D01*
X629540Y1019112D02*
X629542Y996889D01*
X972750Y773000D02*
X1181750D01*
X972750Y615000D02*
Y773000D01*
Y615000D02*
X1181750D01*
Y773000D01*
X1131250Y739000D02*
X1175250D01*
X1138250Y622000D02*
X1175250D01*
Y646000D01*
X1149250D02*
X1175250D01*
X1149250D02*
Y670000D01*
X1175250D01*
Y694000D01*
X1149250D02*
X1175250D01*
X1149250Y718000D02*
X1149250Y694000D01*
X1149250Y718000D02*
X1175250Y718000D01*
Y764000D01*
X1129250Y764000D02*
X1175250Y764000D01*
X711750Y573500D02*
Y575500D01*
X704250Y573500D02*
Y575500D01*
X734750Y587500D02*
Y589500D01*
X727250Y587500D02*
Y589500D01*
X1105500Y609750D02*
X1107500D01*
X1105500Y602250D02*
X1107500D01*
X735500Y987500D02*
X740500Y987500D01*
X735500Y978500D02*
X740500Y978500D01*
X723750Y982000D02*
Y984000D01*
X716250Y982000D02*
Y984000D01*
X708750Y982000D02*
Y984000D01*
X701250Y982000D02*
Y984000D01*
X645253Y562653D02*
X650753D01*
X645250Y578250D02*
X650750D01*
X801250Y554000D02*
Y556000D01*
X793750Y554000D02*
Y556000D01*
X645253Y582653D02*
X650753D01*
X645250Y598250D02*
X650750D01*
X716250Y587500D02*
Y589500D01*
X723750Y587500D02*
Y589500D01*
X716250Y605500D02*
Y607500D01*
X723750Y605500D02*
Y607500D01*
X951250Y753000D02*
Y755000D01*
X958750Y753000D02*
Y755000D01*
X915250Y753000D02*
Y755000D01*
X922750Y753000D02*
Y755000D01*
X903250Y753000D02*
Y755000D01*
X910750Y753000D02*
Y755000D01*
X927250Y753000D02*
Y755000D01*
X934750Y753000D02*
Y755000D01*
X939250Y753000D02*
Y755000D01*
X946750Y753000D02*
Y755000D01*
X816250Y596500D02*
Y598500D01*
X808750Y596500D02*
Y598500D01*
X828750Y596500D02*
Y598500D01*
X821250Y596500D02*
Y598500D01*
X866250Y596500D02*
X866250Y598500D01*
X858750Y596500D02*
Y598500D01*
X853750Y596500D02*
Y598500D01*
X846250Y596500D02*
Y598500D01*
X1098750Y939000D02*
Y941000D01*
X1091250Y939000D02*
Y941000D01*
Y959000D02*
Y961000D01*
X1098750Y959000D02*
Y961000D01*
X1059000Y898750D02*
Y900000D01*
Y898750D02*
X1079000D01*
Y900000D01*
X1059000Y930250D02*
Y931500D01*
X1079000D01*
Y930250D02*
Y931500D01*
X1059000Y938750D02*
Y940000D01*
Y938750D02*
X1079000D01*
Y940000D01*
X1059000Y970250D02*
Y971500D01*
X1079000D01*
Y970250D02*
Y971500D01*
X636000Y890250D02*
X637250D01*
X636000Y897750D02*
X637250D01*
X636000Y877250D02*
X637250D01*
X636000Y884750D02*
X637250D01*
X912750Y576000D02*
X914000D01*
X912750Y556000D02*
X912750Y576000D01*
X912750Y556000D02*
X914000D01*
X944250Y576000D02*
X945500D01*
X945500Y556000D02*
X945500Y576000D01*
X944250Y556000D02*
X945500D01*
X950750Y576000D02*
X952000D01*
X950750Y556000D02*
Y576000D01*
Y556000D02*
X952000D01*
X982250Y576000D02*
X983500D01*
Y556000D02*
Y576000D01*
X982250Y556000D02*
X983500D01*
X987750Y576000D02*
X989000D01*
X987750Y556000D02*
Y576000D01*
Y556000D02*
X989000D01*
X1019250Y576000D02*
X1020500D01*
Y556000D02*
Y576000D01*
X1019250Y556000D02*
X1020500D01*
X1024750Y576000D02*
X1026000D01*
X1024750Y556000D02*
Y576000D01*
Y556000D02*
X1026000D01*
X1056250Y576000D02*
X1057500D01*
Y556000D02*
Y576000D01*
X1056250Y556000D02*
X1057500D01*
X1061750Y576000D02*
X1063000D01*
X1061750Y556000D02*
Y576000D01*
Y556000D02*
X1063000D01*
X1093250Y576000D02*
X1094500D01*
Y556000D02*
Y576000D01*
X1093250Y556000D02*
X1094500D01*
X1098750Y576000D02*
X1100000D01*
X1098750Y556000D02*
Y576000D01*
Y556000D02*
X1100000D01*
X1130250Y576000D02*
X1131500D01*
Y556000D02*
Y576000D01*
X1130250Y556000D02*
X1131500D01*
X666000Y665500D02*
X668000Y665500D01*
Y617500D02*
Y665500D01*
X666000Y617500D02*
X668000Y617500D01*
X638000Y665500D02*
X640000Y665500D01*
X638000Y617500D02*
Y665500D01*
Y617500D02*
X640000Y617500D01*
X607250Y928000D02*
X624750D01*
X607250Y961000D02*
X624750D01*
X841250Y596500D02*
Y598500D01*
X833750Y596500D02*
Y598500D01*
X860417Y626044D02*
X861301Y626928D01*
X865720Y620741D02*
X866604Y621625D01*
X844861Y626044D02*
X845745Y626928D01*
X850164Y620741D02*
X851048Y621625D01*
X829305Y626044D02*
X830188Y626928D01*
X834608Y620741D02*
X835492Y621625D01*
X953755Y657156D02*
X954639Y658040D01*
X959058Y651853D02*
X959942Y652737D01*
X813748Y626044D02*
X814632Y626928D01*
X819052Y620741D02*
X819935Y621625D01*
X938198Y657156D02*
X939082Y658040D01*
X943502Y651853D02*
X944386Y652737D01*
X798192Y626045D02*
X799076Y626928D01*
X803495Y620741D02*
X804379Y621625D01*
X922642Y657157D02*
X923526Y658040D01*
X927945Y651853D02*
X928829Y652737D01*
X891530Y672713D02*
X892414Y673597D01*
X896833Y667410D02*
X897717Y668294D01*
X782636Y626045D02*
X783520Y626928D01*
X787939Y620741D02*
X788823Y621625D01*
X907086Y657157D02*
X907970Y658041D01*
X912389Y651853D02*
X913273Y652737D01*
X875974Y672713D02*
X876858Y673597D01*
X881277Y667410D02*
X882161Y668294D01*
X953755Y641600D02*
X954638Y642484D01*
X959058Y636297D02*
X959942Y637180D01*
X891530Y657157D02*
X892414Y658041D01*
X896833Y651853D02*
X897717Y652737D01*
X860417Y672713D02*
X861301Y673597D01*
X865721Y667410D02*
X866605Y668294D01*
X860417Y688270D02*
X861301Y689154D01*
X865721Y682967D02*
X866605Y683850D01*
X938198Y641600D02*
X939082Y642484D01*
X943502Y636297D02*
X944386Y637180D01*
X875974Y657157D02*
X876857Y658041D01*
X881277Y651854D02*
X882161Y652738D01*
X844861Y672714D02*
X845745Y673597D01*
X850164Y667410D02*
X851048Y668294D01*
X844861Y688270D02*
X845745Y689154D01*
X850164Y682967D02*
X851048Y683851D01*
X922642Y641600D02*
X923526Y642484D01*
X927945Y636297D02*
X928829Y637181D01*
X860417Y657157D02*
X861301Y658041D01*
X865721Y651854D02*
X866604Y652738D01*
X829305Y672714D02*
X830189Y673598D01*
X834608Y667410D02*
X835492Y668294D01*
X829305Y688270D02*
X830189Y689154D01*
X834608Y682967D02*
X835492Y683851D01*
X860418Y703826D02*
X861301Y704710D01*
X865721Y698523D02*
X866605Y699407D01*
X907086Y641600D02*
X907970Y642484D01*
X912389Y636297D02*
X913273Y637181D01*
X844861Y657157D02*
X845745Y658041D01*
X850164Y651854D02*
X851048Y652738D01*
X813749Y672714D02*
X814632Y673598D01*
X819052Y667411D02*
X819936Y668294D01*
X813749Y688270D02*
X814632Y689154D01*
X819052Y682967D02*
X819936Y683851D01*
X844861Y703827D02*
X845745Y704710D01*
X850165Y698523D02*
X851049Y699407D01*
X891529Y641600D02*
X892413Y642484D01*
X896833Y636297D02*
X897717Y637181D01*
X829305Y657157D02*
X830189Y658041D01*
X834608Y651854D02*
X835492Y652738D01*
X798192Y672714D02*
X799076Y673598D01*
X803496Y667411D02*
X804380Y668294D01*
X798192Y688270D02*
X799076Y689154D01*
X803496Y682967D02*
X804380Y683851D01*
X829305Y703827D02*
X830189Y704710D01*
X834608Y698523D02*
X835492Y699407D01*
X891530Y719383D02*
X892414Y720266D01*
X896833Y714079D02*
X897717Y714963D01*
X875973Y641600D02*
X876857Y642484D01*
X881277Y636297D02*
X882160Y637181D01*
X813748Y657157D02*
X814632Y658041D01*
X819052Y651854D02*
X819936Y652738D01*
X782636Y672714D02*
X783520Y673598D01*
X787939Y667411D02*
X788823Y668294D01*
X782636Y688270D02*
X783520Y689154D01*
X787939Y682967D02*
X788823Y683851D01*
X813749Y703827D02*
X814633Y704710D01*
X819052Y698523D02*
X819936Y699407D01*
X875974Y719383D02*
X876858Y720267D01*
X881277Y714079D02*
X882161Y714963D01*
X953754Y626043D02*
X954638Y626927D01*
X959058Y620740D02*
X959942Y621624D01*
X860417Y641600D02*
X861301Y642484D01*
X865720Y636297D02*
X866604Y637181D01*
X798192Y657157D02*
X799076Y658041D01*
X803495Y651854D02*
X804379Y652738D01*
X953755Y688269D02*
X954639Y689153D01*
X959058Y682966D02*
X959942Y683850D01*
X953755Y703826D02*
X954639Y704710D01*
X959058Y698522D02*
X959942Y699406D01*
X798192Y703827D02*
X799076Y704710D01*
X803496Y698523D02*
X804380Y699407D01*
X860418Y719383D02*
X861302Y720267D01*
X865721Y714080D02*
X866605Y714964D01*
X953755Y734939D02*
X954639Y735823D01*
X959059Y729635D02*
X959942Y730519D01*
X938198Y626043D02*
X939082Y626927D01*
X943502Y620740D02*
X944385Y621624D01*
X844861Y641601D02*
X845745Y642485D01*
X850164Y636297D02*
X851048Y637181D01*
X782636Y657157D02*
X783520Y658041D01*
X787939Y651854D02*
X788823Y652738D01*
X938199Y688269D02*
X939083Y689153D01*
X943502Y682966D02*
X944386Y683850D01*
X938199Y703826D02*
X939083Y704710D01*
X943502Y698522D02*
X944386Y699406D01*
X844861Y719383D02*
X845745Y720267D01*
X850165Y714080D02*
X851049Y714964D01*
X938199Y734939D02*
X939083Y735823D01*
X943502Y729635D02*
X944386Y730519D01*
X922642Y626044D02*
X923526Y626927D01*
X927945Y620740D02*
X928829Y621624D01*
X829305Y641601D02*
X830189Y642485D01*
X834608Y636297D02*
X835492Y637181D01*
X953755Y672713D02*
X954639Y673597D01*
X959058Y667410D02*
X959942Y668293D01*
X922642Y688270D02*
X923526Y689153D01*
X927946Y682966D02*
X928830Y683850D01*
X922643Y703826D02*
X923526Y704710D01*
X927946Y698523D02*
X928830Y699407D01*
X953755Y719382D02*
X954639Y720266D01*
X959058Y714079D02*
X959942Y714963D01*
X829305Y719383D02*
X830189Y720267D01*
X834608Y714080D02*
X835492Y714964D01*
X922643Y734939D02*
X923527Y735823D01*
X927946Y729636D02*
X928830Y730519D01*
X860418Y734939D02*
X861302Y735823D01*
X865721Y729636D02*
X866605Y730520D01*
X907086Y626044D02*
X907970Y626928D01*
X912389Y620740D02*
X913273Y621624D01*
X813748Y641601D02*
X814632Y642485D01*
X819052Y636297D02*
X819936Y637181D01*
X938199Y672713D02*
X939082Y673597D01*
X943502Y667410D02*
X944386Y668294D01*
X907086Y688270D02*
X907970Y689154D01*
X912390Y682966D02*
X913273Y683850D01*
X907086Y703826D02*
X907970Y704710D01*
X912390Y698523D02*
X913273Y699407D01*
X938199Y719382D02*
X939083Y720266D01*
X943502Y714079D02*
X944386Y714963D01*
X813749Y719383D02*
X814633Y720267D01*
X819052Y714080D02*
X819936Y714964D01*
X907086Y734939D02*
X907970Y735823D01*
X912390Y729636D02*
X913274Y730520D01*
X844861Y734939D02*
X845745Y735823D01*
X850165Y729636D02*
X851049Y730520D01*
X891529Y626044D02*
X892413Y626928D01*
X896833Y620741D02*
X897717Y621624D01*
X798192Y641601D02*
X799076Y642485D01*
X803495Y636298D02*
X804379Y637182D01*
X922642Y672713D02*
X923526Y673597D01*
X927946Y667410D02*
X928829Y668294D01*
X891530Y688270D02*
X892414Y689154D01*
X896833Y682966D02*
X897717Y683850D01*
X891530Y703826D02*
X892414Y704710D01*
X896833Y698523D02*
X897717Y699407D01*
X922643Y719382D02*
X923527Y720266D01*
X927946Y714079D02*
X928830Y714963D01*
X875973Y626044D02*
X876857Y626928D01*
X881276Y620741D02*
X882160Y621624D01*
X782636Y641601D02*
X783520Y642485D01*
X787939Y636298D02*
X788823Y637182D01*
X907086Y672713D02*
X907970Y673597D01*
X912389Y667410D02*
X913273Y668294D01*
X875974Y688270D02*
X876858Y689154D01*
X881277Y682967D02*
X882161Y683850D01*
X875974Y703826D02*
X876858Y704710D01*
X881277Y698523D02*
X882161Y699407D01*
X907086Y719382D02*
X907970Y720266D01*
X912390Y714079D02*
X913274Y714963D01*
X891530Y734939D02*
X892414Y735823D01*
X896834Y729636D02*
X897718Y730520D01*
X829305Y734939D02*
X830189Y735823D01*
X834608Y729636D02*
X835492Y730520D01*
X798192Y734939D02*
X799076Y735823D01*
X803496Y729636D02*
X804380Y730520D01*
X782636Y719383D02*
X783520Y720267D01*
X787939Y714080D02*
X788823Y714964D01*
X875974Y734939D02*
X876858Y735823D01*
X881277Y729636D02*
X882161Y730520D01*
X813749Y734939D02*
X814633Y735823D01*
X819052Y729636D02*
X819936Y730520D01*
X782636Y734939D02*
X783520Y735823D01*
X787939Y729636D02*
X788823Y730520D01*
X933460Y994000D02*
Y1022000D01*
X671060D02*
X933460Y1022000D01*
X671060Y994000D02*
Y1022000D01*
X671060Y994000D02*
X933460Y994000D01*
X1151900Y994000D02*
Y1022000D01*
X940300Y1022000D02*
X1151900Y1022000D01*
X940300Y994000D02*
Y1022000D01*
X940300Y994000D02*
X1151900Y994000D01*
X974100Y511400D02*
Y539400D01*
X762500Y539400D02*
X974100Y539400D01*
X762500Y511400D02*
Y539400D01*
X762500Y511400D02*
X974100Y511400D01*
X991100Y511400D02*
X1151900Y511400D01*
X991100Y511400D02*
Y539400D01*
X991100Y539400D02*
X1151900Y539400D01*
Y511400D02*
Y539400D01*
X894500Y837500D02*
X904500D01*
X894500D02*
Y847500D01*
Y942500D02*
X904500D01*
X894500Y932500D02*
Y942500D01*
X989500D02*
X999500D01*
Y932500D02*
Y942500D01*
X909500Y957500D02*
Y962500D01*
X949500Y957500D02*
Y962500D01*
X984500Y957500D02*
Y962500D01*
X874500Y852500D02*
X879500D01*
X874500Y892500D02*
X879500D01*
X874500Y927500D02*
X879500D01*
X984500Y817500D02*
Y822500D01*
X944500Y817500D02*
Y822500D01*
X909500Y817500D02*
Y822500D01*
X1014500Y927500D02*
X1019500D01*
X1034750Y908750D02*
Y911250D01*
X1027250Y908750D02*
Y911250D01*
X976500Y971500D02*
X978500D01*
X976500Y964000D02*
X978500D01*
X1053250Y865000D02*
Y867000D01*
X1060750Y865000D02*
Y867000D01*
X1053250Y883000D02*
Y885000D01*
X1060750Y883000D02*
Y885000D01*
X1051000Y831750D02*
X1053000D01*
X1051000Y824250D02*
X1053000D01*
X1032000Y831750D02*
X1034000D01*
X1032000Y824250D02*
X1034000D01*
X911500Y971500D02*
X913500D01*
X911500Y964000D02*
X913500D01*
X1038000Y800000D02*
X1047500D01*
X1038000Y820000D02*
X1047500D01*
X1006000Y821250D02*
X1008000D01*
X1006000Y828750D02*
X1008000D01*
X1016250Y909000D02*
Y911000D01*
X1023750Y909000D02*
Y911000D01*
X863250Y854000D02*
Y856000D01*
X870750Y854000D02*
Y856000D01*
X668275Y539688D02*
X687325D01*
X690500Y536512D01*
X665100D02*
X668275Y539688D01*
X712725D02*
X715900Y536512D01*
X690500D02*
X693675Y539688D01*
X712725D01*
X738125D02*
X741300Y536512D01*
X715900D02*
X719075Y539688D01*
X738125D01*
X687327Y511114D02*
X690502Y514289D01*
X665102Y514289D02*
X668277Y511114D01*
X687327D01*
X693677Y511114D02*
X712727Y511114D01*
X690502Y514289D02*
X693677Y511114D01*
X712727Y511114D02*
X715902Y514289D01*
X719077Y511114D02*
X738127D01*
X715902Y514289D02*
X719077Y511114D01*
X738127D02*
X741302Y514289D01*
X665100Y536512D02*
X665102Y514289D01*
X690500Y536512D02*
X690502Y514289D01*
X741300Y536512D02*
X741302Y514289D01*
X1109000Y913000D02*
X1109000Y907000D01*
X1115000D01*
X1109000Y967000D02*
X1109000Y973000D01*
X1115000D01*
X675000Y586500D02*
X682000D01*
X675000D02*
Y588500D01*
X675000Y620500D02*
X682000D01*
X675000Y618500D02*
Y620500D01*
X702000Y586500D02*
X709000D01*
X709000D02*
Y588500D01*
X702000Y620500D02*
X709000D01*
X709000Y618500D02*
Y620500D01*
X522000Y1005500D02*
Y1014500D01*
X568000Y1005500D02*
Y1014500D01*
X522000Y1028000D02*
X568000D01*
X522000Y992000D02*
X568000D01*
X525002Y743344D02*
Y736679D01*
X534998D01*
Y743344D01*
X530000Y736679D02*
Y740011D01*
X525002Y746676D02*
Y753340D01*
Y750008D01*
X534998D01*
X525002Y756673D02*
X534998D01*
X530000D01*
Y763337D01*
X525002D01*
X534998D01*
X525002Y773334D02*
Y766669D01*
X534998D01*
Y773334D01*
X530000Y766669D02*
Y770002D01*
X534998Y776666D02*
X525002D01*
Y781665D01*
X526668Y783331D01*
X530000D01*
X531666Y781665D01*
Y776666D01*
Y779998D02*
X534998Y783331D01*
Y786663D02*
X525002D01*
X534998Y793327D01*
X525002D01*
Y803324D02*
Y796660D01*
X534998D01*
Y803324D01*
X530000Y796660D02*
Y799992D01*
X525002Y806656D02*
Y813321D01*
Y809989D01*
X534998D01*
X556998Y737512D02*
Y740844D01*
Y739178D01*
X547002D01*
X548668Y737512D01*
Y745843D02*
X547002Y747509D01*
Y750841D01*
X548668Y752507D01*
X555332D01*
X556998Y750841D01*
Y747509D01*
X555332Y745843D01*
X548668D01*
X547002Y755839D02*
X556998D01*
Y760838D01*
X555332Y762504D01*
X553666D01*
X552000Y760838D01*
Y755839D01*
Y760838D01*
X550334Y762504D01*
X548668D01*
X547002Y760838D01*
Y755839D01*
X556998Y765836D02*
X550334D01*
X547002Y769169D01*
X550334Y772501D01*
X556998D01*
X552000D01*
Y765836D01*
X548668Y782498D02*
X547002Y780832D01*
Y777499D01*
X548668Y775833D01*
X550334D01*
X552000Y777499D01*
Y780832D01*
X553666Y782498D01*
X555332D01*
X556998Y780832D01*
Y777499D01*
X555332Y775833D01*
X547002Y792494D02*
Y785830D01*
X556998D01*
Y792494D01*
X552000Y785830D02*
Y789162D01*
Y795827D02*
Y802491D01*
X547002Y805823D02*
Y812488D01*
Y809156D01*
X556998D01*
X743836Y648666D02*
X745168Y649999D01*
X747834D01*
X749167Y648666D01*
Y643334D01*
X747834Y642001D01*
X745168D01*
X743836Y643334D01*
Y648666D01*
X757165Y649999D02*
X751833D01*
Y646000D01*
X754499Y647333D01*
X755832D01*
X757165Y646000D01*
Y643334D01*
X755832Y642001D01*
X753166D01*
X751833Y643334D01*
X827334Y921672D02*
X826001Y920339D01*
Y917674D01*
X827334Y916341D01*
X832666D01*
X833999Y917674D01*
Y920339D01*
X832666Y921672D01*
X826001Y924338D02*
X833999D01*
X830000D01*
Y929670D01*
X826001D01*
X833999D01*
X826001Y937667D02*
Y932336D01*
X830000D01*
X828667Y935001D01*
Y936334D01*
X830000Y937667D01*
X832666D01*
X833999Y936334D01*
Y933668D01*
X832666Y932336D01*
X833999Y944332D02*
X826001D01*
X830000Y940333D01*
Y945665D01*
X832666Y948330D02*
X833999Y949663D01*
Y952329D01*
X832666Y953662D01*
X827334D01*
X826001Y952329D01*
Y949663D01*
X827334Y948330D01*
X828667D01*
X830000Y949663D01*
Y953662D01*
X827334Y961659D02*
X826001Y960327D01*
Y957661D01*
X827334Y956328D01*
X832666D01*
X833999Y957661D01*
Y960327D01*
X832666Y961659D01*
X830000D01*
Y958994D01*
X527002Y903674D02*
X535332D01*
X536998Y905340D01*
Y908673D01*
X535332Y910339D01*
X527002D01*
X528668Y920335D02*
X527002Y918669D01*
Y915337D01*
X528668Y913671D01*
X530334D01*
X532000Y915337D01*
Y918669D01*
X533666Y920335D01*
X535332D01*
X536998Y918669D01*
Y915337D01*
X535332Y913671D01*
X527002Y923668D02*
X536998D01*
Y928666D01*
X535332Y930332D01*
X533666D01*
X532000Y928666D01*
Y923668D01*
Y928666D01*
X530334Y930332D01*
X528668D01*
X527002Y928666D01*
Y923668D01*
X528668Y950326D02*
X527002Y948660D01*
Y945327D01*
X528668Y943661D01*
X535332D01*
X536998Y945327D01*
Y948660D01*
X535332Y950326D01*
X754999Y913335D02*
X747001D01*
X751000Y909337D01*
Y914668D01*
X754999Y921333D02*
X747001D01*
X751000Y917334D01*
Y922666D01*
X754999Y930663D02*
Y925332D01*
X749667Y930663D01*
X748334D01*
X747001Y929330D01*
Y926665D01*
X748334Y925332D01*
X638332Y987999D02*
X633000D01*
Y980001D01*
X638332D01*
X633000Y984000D02*
X635666D01*
X646329Y986666D02*
X644996Y987999D01*
X642330D01*
X640997Y986666D01*
Y985333D01*
X642330Y984000D01*
X644996D01*
X646329Y982667D01*
Y981334D01*
X644996Y980001D01*
X642330D01*
X640997Y981334D01*
X648995Y980001D02*
Y987999D01*
X652994D01*
X654326Y986666D01*
Y984000D01*
X652994Y982667D01*
X648995D01*
X656992Y986666D02*
X658325Y987999D01*
X660991D01*
X662324Y986666D01*
Y985333D01*
X660991Y984000D01*
X659658D01*
X660991D01*
X662324Y982667D01*
Y981334D01*
X660991Y980001D01*
X658325D01*
X656992Y981334D01*
X670321Y980001D02*
X664990D01*
X670321Y985333D01*
Y986666D01*
X668988Y987999D01*
X666323D01*
X664990Y986666D01*
X633000Y973999D02*
Y966001D01*
X635666Y968667D01*
X638332Y966001D01*
Y973999D01*
X646329Y972666D02*
X644996Y973999D01*
X642330D01*
X640997Y972666D01*
Y967334D01*
X642330Y966001D01*
X644996D01*
X646329Y967334D01*
X648995Y973999D02*
Y966001D01*
Y970000D01*
X654326D01*
Y973999D01*
Y966001D01*
X656992Y970000D02*
X662324D01*
X664990Y973999D02*
Y966001D01*
X670321D01*
X672987D02*
X675653D01*
X674320D01*
Y971333D01*
X672987D01*
X679652Y966001D02*
Y971333D01*
X683650D01*
X684983Y970000D01*
Y966001D01*
X687649D02*
Y973999D01*
Y968667D02*
X691648Y971333D01*
X687649Y968667D02*
X691648Y966001D01*
X1066334Y947336D02*
X1065001Y948668D01*
Y951334D01*
X1066334Y952667D01*
X1071666D01*
X1072999Y951334D01*
Y948668D01*
X1071666Y947336D01*
X1066334D01*
X1072999Y959332D02*
X1065001D01*
X1069000Y955333D01*
Y960665D01*
X1066334Y908335D02*
X1065001Y909668D01*
Y912334D01*
X1066334Y913667D01*
X1071666D01*
X1072999Y912334D01*
Y909668D01*
X1071666Y908335D01*
X1066334D01*
X1072999Y920332D02*
X1065001D01*
X1069000Y916333D01*
Y921665D01*
X1108335Y567666D02*
X1109668Y568999D01*
X1112334D01*
X1113667Y567666D01*
Y562334D01*
X1112334Y561001D01*
X1109668D01*
X1108335Y562334D01*
Y567666D01*
X1120332Y561001D02*
Y568999D01*
X1116333Y565000D01*
X1121665D01*
X1071336Y567666D02*
X1072668Y568999D01*
X1075334D01*
X1076667Y567666D01*
Y562334D01*
X1075334Y561001D01*
X1072668D01*
X1071336Y562334D01*
Y567666D01*
X1083332Y561001D02*
Y568999D01*
X1079333Y565000D01*
X1084665D01*
X1034335Y568666D02*
X1035668Y569999D01*
X1038334D01*
X1039667Y568666D01*
Y563334D01*
X1038334Y562001D01*
X1035668D01*
X1034335Y563334D01*
Y568666D01*
X1046332Y562001D02*
Y569999D01*
X1042333Y566000D01*
X1047664D01*
X997336Y568666D02*
X998668Y569999D01*
X1001334D01*
X1002667Y568666D01*
Y563334D01*
X1001334Y562001D01*
X998668D01*
X997336Y563334D01*
Y568666D01*
X1009332Y562001D02*
Y569999D01*
X1005333Y566000D01*
X1010665D01*
X960335Y568666D02*
X961668Y569999D01*
X964334D01*
X965667Y568666D01*
Y563334D01*
X964334Y562001D01*
X961668D01*
X960335Y563334D01*
Y568666D01*
X972332Y562001D02*
Y569999D01*
X968333Y566000D01*
X973664D01*
X922336Y568666D02*
X923668Y569999D01*
X926334D01*
X927667Y568666D01*
Y563334D01*
X926334Y562001D01*
X923668D01*
X922336Y563334D01*
Y568666D01*
X934332Y562001D02*
Y569999D01*
X930333Y566000D01*
X935665D01*
X512999Y984339D02*
X505001D01*
Y988338D01*
X506334Y989671D01*
X509000D01*
X510333Y988338D01*
Y984339D01*
Y987005D02*
X512999Y989671D01*
X505001Y997668D02*
Y992337D01*
X512999D01*
Y997668D01*
X509000Y992337D02*
Y995003D01*
X506334Y1005666D02*
X505001Y1004333D01*
Y1001667D01*
X506334Y1000334D01*
X507667D01*
X509000Y1001667D01*
Y1004333D01*
X510333Y1005666D01*
X511666D01*
X512999Y1004333D01*
Y1001667D01*
X511666Y1000334D01*
X505001Y1013663D02*
Y1008332D01*
X512999D01*
Y1013663D01*
X509000Y1008332D02*
Y1010997D01*
X505001Y1016329D02*
Y1021661D01*
Y1018995D01*
X512999D01*
X506001Y508838D02*
X513999D01*
Y512837D01*
X512666Y514170D01*
X511333D01*
X510000Y512837D01*
Y508838D01*
Y512837D01*
X508667Y514170D01*
X507334D01*
X506001Y512837D01*
Y508838D01*
Y520834D02*
Y518168D01*
X507334Y516836D01*
X512666D01*
X513999Y518168D01*
Y520834D01*
X512666Y522167D01*
X507334D01*
X506001Y520834D01*
Y528832D02*
Y526166D01*
X507334Y524833D01*
X512666D01*
X513999Y526166D01*
Y528832D01*
X512666Y530164D01*
X507334D01*
X506001Y528832D01*
Y532830D02*
Y538162D01*
Y535496D01*
X513999D01*
X602337Y506001D02*
Y513999D01*
X606335D01*
X607668Y512666D01*
Y510000D01*
X606335Y508667D01*
X602337D01*
X605003D02*
X607668Y506001D01*
X610334Y512666D02*
X611667Y513999D01*
X614333D01*
X615666Y512666D01*
Y511333D01*
X614333Y510000D01*
X613000D01*
X614333D01*
X615666Y508667D01*
Y507334D01*
X614333Y506001D01*
X611667D01*
X610334Y507334D01*
X623663Y506001D02*
X618332D01*
X623663Y511333D01*
Y512666D01*
X622330Y513999D01*
X619664D01*
X618332Y512666D01*
X602001Y519337D02*
X609999D01*
X606000D01*
Y524668D01*
X602001D01*
X609999D01*
X602001Y527334D02*
X609999D01*
Y532666D01*
X602001Y540663D02*
Y535332D01*
X606000D01*
X604667Y537997D01*
Y539330D01*
X606000Y540663D01*
X608666D01*
X609999Y539330D01*
Y536665D01*
X608666Y535332D01*
X577334Y518668D02*
X576001Y517336D01*
Y514670D01*
X577334Y513337D01*
X578667D01*
X580000Y514670D01*
Y517336D01*
X581333Y518668D01*
X582666D01*
X583999Y517336D01*
Y514670D01*
X582666Y513337D01*
X576001Y521334D02*
X583999D01*
Y525333D01*
X582666Y526666D01*
X581333D01*
X580000Y525333D01*
Y521334D01*
Y525333D01*
X578667Y526666D01*
X577334D01*
X576001Y525333D01*
Y521334D01*
X583999Y534663D02*
Y529332D01*
X578667Y534663D01*
X577334D01*
X576001Y533330D01*
Y530664D01*
X577334Y529332D01*
X622999Y906336D02*
X615001D01*
Y910334D01*
X616334Y911667D01*
X619000D01*
X620333Y910334D01*
Y906336D01*
Y909001D02*
X622999Y911667D01*
Y918332D02*
X615001D01*
X619000Y914333D01*
Y919665D01*
X1024000Y867666D02*
X1022667Y868999D01*
X1020001D01*
X1018668Y867666D01*
Y862334D01*
X1020001Y861001D01*
X1022667D01*
X1024000Y862334D01*
X1026666Y861001D02*
X1029332D01*
X1027999D01*
Y868999D01*
X1026666Y867666D01*
X956690Y801644D02*
X948693D01*
Y805643D01*
X950025Y806976D01*
X952691D01*
X954024Y805643D01*
Y801644D01*
Y804310D02*
X956690Y806976D01*
Y814973D02*
Y809642D01*
X951358Y814973D01*
X950025D01*
X948693Y813640D01*
Y810975D01*
X950025Y809642D01*
X1016003Y776501D02*
Y784499D01*
X1020002D01*
X1021335Y783166D01*
Y780500D01*
X1020002Y779167D01*
X1016003D01*
X1018669D02*
X1021335Y776501D01*
X1024001D02*
X1026666D01*
X1025334D01*
Y784499D01*
X1024001Y783166D01*
X1030665Y784499D02*
X1035997D01*
Y783166D01*
X1030665Y777834D01*
Y776501D01*
X1059503Y788001D02*
Y795999D01*
X1063502D01*
X1064835Y794666D01*
Y792000D01*
X1063502Y790667D01*
X1059503D01*
X1062169D02*
X1064835Y788001D01*
X1067501D02*
X1070166D01*
X1068833D01*
Y795999D01*
X1067501Y794666D01*
X1079497Y795999D02*
X1076831Y794666D01*
X1074165Y792000D01*
Y789334D01*
X1075498Y788001D01*
X1078164D01*
X1079497Y789334D01*
Y790667D01*
X1078164Y792000D01*
X1074165D01*
X1016503Y788501D02*
Y796499D01*
X1020502D01*
X1021835Y795166D01*
Y792500D01*
X1020502Y791167D01*
X1016503D01*
X1019169D02*
X1021835Y788501D01*
X1024501D02*
X1027166D01*
X1025834D01*
Y796499D01*
X1024501Y795166D01*
X1036497Y796499D02*
X1031165D01*
Y792500D01*
X1033831Y793833D01*
X1035164D01*
X1036497Y792500D01*
Y789834D01*
X1035164Y788501D01*
X1032498D01*
X1031165Y789834D01*
X834337Y553999D02*
Y548667D01*
X837003Y546001D01*
X839668Y548667D01*
Y553999D01*
X842334D02*
Y546001D01*
X846333D01*
X847666Y547334D01*
Y552666D01*
X846333Y553999D01*
X842334D01*
X850332Y552666D02*
X851665Y553999D01*
X854330D01*
X855663Y552666D01*
Y551333D01*
X854330Y550000D01*
X852997D01*
X854330D01*
X855663Y548667D01*
Y547334D01*
X854330Y546001D01*
X851665D01*
X850332Y547334D01*
X665337Y850501D02*
Y858499D01*
X669335D01*
X670668Y857166D01*
Y854500D01*
X669335Y853167D01*
X665337D01*
X668003D02*
X670668Y850501D01*
X678666D02*
X673334D01*
X678666Y855833D01*
Y857166D01*
X677333Y858499D01*
X674667D01*
X673334Y857166D01*
X681332Y858499D02*
X686663D01*
Y857166D01*
X681332Y851834D01*
Y850501D01*
X665337Y740501D02*
Y748499D01*
X669335D01*
X670668Y747166D01*
Y744500D01*
X669335Y743167D01*
X665337D01*
X668003D02*
X670668Y740501D01*
X678666D02*
X673334D01*
X678666Y745833D01*
Y747166D01*
X677333Y748499D01*
X674667D01*
X673334Y747166D01*
X686663Y748499D02*
X683997Y747166D01*
X681332Y744500D01*
Y741834D01*
X682664Y740501D01*
X685330D01*
X686663Y741834D01*
Y743167D01*
X685330Y744500D01*
X681332D01*
X665337Y714001D02*
Y721999D01*
X669335D01*
X670668Y720666D01*
Y718000D01*
X669335Y716667D01*
X665337D01*
X668003D02*
X670668Y714001D01*
X678666D02*
X673334D01*
X678666Y719333D01*
Y720666D01*
X677333Y721999D01*
X674667D01*
X673334Y720666D01*
X681332D02*
X682664Y721999D01*
X685330D01*
X686663Y720666D01*
Y719333D01*
X685330Y718000D01*
X686663Y716667D01*
Y715334D01*
X685330Y714001D01*
X682664D01*
X681332Y715334D01*
Y716667D01*
X682664Y718000D01*
X681332Y719333D01*
Y720666D01*
X682664Y718000D02*
X685330D01*
X608999Y902337D02*
X601001D01*
Y906336D01*
X602334Y907668D01*
X605000D01*
X606333Y906336D01*
Y902337D01*
Y905003D02*
X608999Y907668D01*
Y915666D02*
Y910334D01*
X603667Y915666D01*
X602334D01*
X601001Y914333D01*
Y911667D01*
X602334Y910334D01*
X601001Y923663D02*
Y918332D01*
X605000D01*
X603667Y920997D01*
Y922330D01*
X605000Y923663D01*
X607666D01*
X608999Y922330D01*
Y919665D01*
X607666Y918332D01*
X665337Y766501D02*
Y774499D01*
X669335D01*
X670668Y773166D01*
Y770500D01*
X669335Y769167D01*
X665337D01*
X668003D02*
X670668Y766501D01*
X678666D02*
X673334D01*
X678666Y771833D01*
Y773166D01*
X677333Y774499D01*
X674667D01*
X673334Y773166D01*
X685330Y766501D02*
Y774499D01*
X681332Y770500D01*
X686663D01*
X665337Y793001D02*
Y800999D01*
X669335D01*
X670668Y799666D01*
Y797000D01*
X669335Y795667D01*
X665337D01*
X668003D02*
X670668Y793001D01*
X678666D02*
X673334D01*
X678666Y798333D01*
Y799666D01*
X677333Y800999D01*
X674667D01*
X673334Y799666D01*
X681332D02*
X682664Y800999D01*
X685330D01*
X686663Y799666D01*
Y798333D01*
X685330Y797000D01*
X683997D01*
X685330D01*
X686663Y795667D01*
Y794334D01*
X685330Y793001D01*
X682664D01*
X681332Y794334D01*
X665337Y876501D02*
Y884499D01*
X669335D01*
X670668Y883166D01*
Y880500D01*
X669335Y879167D01*
X665337D01*
X668003D02*
X670668Y876501D01*
X678666D02*
X673334D01*
X678666Y881833D01*
Y883166D01*
X677333Y884499D01*
X674667D01*
X673334Y883166D01*
X686663Y876501D02*
X681332D01*
X686663Y881833D01*
Y883166D01*
X685330Y884499D01*
X682664D01*
X681332Y883166D01*
X835670Y852001D02*
Y859999D01*
X839668D01*
X841001Y858666D01*
Y856000D01*
X839668Y854667D01*
X835670D01*
X838335D02*
X841001Y852001D01*
X848999D02*
X843667D01*
X848999Y857333D01*
Y858666D01*
X847666Y859999D01*
X845000D01*
X843667Y858666D01*
X851665Y852001D02*
X854330D01*
X852998D01*
Y859999D01*
X851665Y858666D01*
X834337Y760001D02*
Y767999D01*
X838335D01*
X839668Y766666D01*
Y764000D01*
X838335Y762667D01*
X834337D01*
X837003D02*
X839668Y760001D01*
X847666D02*
X842334D01*
X847666Y765333D01*
Y766666D01*
X846333Y767999D01*
X843667D01*
X842334Y766666D01*
X850332D02*
X851665Y767999D01*
X854330D01*
X855663Y766666D01*
Y761334D01*
X854330Y760001D01*
X851665D01*
X850332Y761334D01*
Y766666D01*
X835003Y823001D02*
Y830999D01*
X839002D01*
X840335Y829666D01*
Y827000D01*
X839002Y825667D01*
X835003D01*
X837669D02*
X840335Y823001D01*
X843001D02*
X845666D01*
X844333D01*
Y830999D01*
X843001Y829666D01*
X849665Y824334D02*
X850998Y823001D01*
X853664D01*
X854997Y824334D01*
Y829666D01*
X853664Y830999D01*
X850998D01*
X849665Y829666D01*
Y828333D01*
X850998Y827000D01*
X854997D01*
X835003Y788001D02*
Y795999D01*
X839002D01*
X840335Y794666D01*
Y792000D01*
X839002Y790667D01*
X835003D01*
X837669D02*
X840335Y788001D01*
X843001D02*
X845667D01*
X844334D01*
Y795999D01*
X843001Y794666D01*
X849665D02*
X850998Y795999D01*
X853664D01*
X854997Y794666D01*
Y793333D01*
X853664Y792000D01*
X854997Y790667D01*
Y789334D01*
X853664Y788001D01*
X850998D01*
X849665Y789334D01*
Y790667D01*
X850998Y792000D01*
X849665Y793333D01*
Y794666D01*
X850998Y792000D02*
X853664D01*
X657001Y810670D02*
X664999D01*
Y814668D01*
X663666Y816001D01*
X658334D01*
X657001Y814668D01*
Y810670D01*
X664999Y818667D02*
X659667D01*
X657001Y821333D01*
X659667Y823999D01*
X664999D01*
X661000D01*
Y818667D01*
X664999Y826665D02*
Y829330D01*
Y827998D01*
X657001D01*
X658334Y826665D01*
X720335Y687666D02*
X719002Y688999D01*
X716336D01*
X715003Y687666D01*
Y682334D01*
X716336Y681001D01*
X719002D01*
X720335Y682334D01*
X723001Y681001D02*
X725666D01*
X724334D01*
Y688999D01*
X723001Y687666D01*
X734997Y688999D02*
X732331Y687666D01*
X729665Y685000D01*
Y682334D01*
X730998Y681001D01*
X733664D01*
X734997Y682334D01*
Y683667D01*
X733664Y685000D01*
X729665D01*
X716334Y713835D02*
X715001Y712502D01*
Y709836D01*
X716334Y708503D01*
X721666D01*
X722999Y709836D01*
Y712502D01*
X721666Y713835D01*
X722999Y716501D02*
Y719166D01*
Y717834D01*
X715001D01*
X716334Y716501D01*
X715001Y728497D02*
Y723165D01*
X719000D01*
X717667Y725831D01*
Y727164D01*
X719000Y728497D01*
X721666D01*
X722999Y727164D01*
Y724498D01*
X721666Y723165D01*
X840335Y844666D02*
X839002Y845999D01*
X836336D01*
X835003Y844666D01*
Y839334D01*
X836336Y838001D01*
X839002D01*
X840335Y839334D01*
X843001Y838001D02*
X845667D01*
X844334D01*
Y845999D01*
X843001Y844666D01*
X853664Y838001D02*
Y845999D01*
X849665Y842000D01*
X854997D01*
X840335Y780666D02*
X839002Y781999D01*
X836336D01*
X835003Y780666D01*
Y775334D01*
X836336Y774001D01*
X839002D01*
X840335Y775334D01*
X843001Y774001D02*
X845667D01*
X844334D01*
Y781999D01*
X843001Y780666D01*
X849665D02*
X850998Y781999D01*
X853664D01*
X854997Y780666D01*
Y779333D01*
X853664Y778000D01*
X852331D01*
X853664D01*
X854997Y776667D01*
Y775334D01*
X853664Y774001D01*
X850998D01*
X849665Y775334D01*
X579337Y988999D02*
X584668Y981001D01*
Y988999D02*
X579337Y981001D01*
X587334D02*
Y988999D01*
X591333D01*
X592666Y987666D01*
Y985000D01*
X591333Y983667D01*
X587334D01*
X595332Y987666D02*
X596665Y988999D01*
X599330D01*
X600663Y987666D01*
Y986333D01*
X599330Y985000D01*
X597997D01*
X599330D01*
X600663Y983667D01*
Y982334D01*
X599330Y981001D01*
X596665D01*
X595332Y982334D01*
X776499Y967337D02*
X768501D01*
Y971336D01*
X769834Y972668D01*
X772500D01*
X773833Y971336D01*
Y967337D01*
Y970003D02*
X776499Y972668D01*
X769834Y975334D02*
X768501Y976667D01*
Y979333D01*
X769834Y980666D01*
X771167D01*
X772500Y979333D01*
Y978000D01*
Y979333D01*
X773833Y980666D01*
X775166D01*
X776499Y979333D01*
Y976667D01*
X775166Y975334D01*
X769834Y983332D02*
X768501Y984665D01*
Y987330D01*
X769834Y988663D01*
X771167D01*
X772500Y987330D01*
Y985997D01*
Y987330D01*
X773833Y988663D01*
X775166D01*
X776499Y987330D01*
Y984665D01*
X775166Y983332D01*
X740337Y962499D02*
Y954501D01*
X744335D01*
X745668Y955834D01*
Y961166D01*
X744335Y962499D01*
X740337D01*
X748334D02*
Y954501D01*
X752333D01*
X753666Y955834D01*
Y961166D01*
X752333Y962499D01*
X748334D01*
X756332Y961166D02*
X757664Y962499D01*
X760330D01*
X761663Y961166D01*
Y959833D01*
X760330Y958500D01*
X758997D01*
X760330D01*
X761663Y957167D01*
Y955834D01*
X760330Y954501D01*
X757664D01*
X756332Y955834D01*
X731668Y885666D02*
X730335Y886999D01*
X727670D01*
X726337Y885666D01*
Y880334D01*
X727670Y879001D01*
X730335D01*
X731668Y880334D01*
X739666Y879001D02*
X734334D01*
X739666Y884333D01*
Y885666D01*
X738333Y886999D01*
X735667D01*
X734334Y885666D01*
X747663Y886999D02*
X742332D01*
Y883000D01*
X744997Y884333D01*
X746330D01*
X747663Y883000D01*
Y880334D01*
X746330Y879001D01*
X743664D01*
X742332Y880334D01*
X973668Y603001D02*
Y608333D01*
X976334Y610999D01*
X979000Y608333D01*
Y603001D01*
Y607000D01*
X973668D01*
X981666Y603001D02*
X984332D01*
X982999D01*
Y610999D01*
X981666Y609666D01*
X1076003Y602001D02*
Y609999D01*
X1080002D01*
X1081335Y608666D01*
Y606000D01*
X1080002Y604667D01*
X1076003D01*
X1078669D02*
X1081335Y602001D01*
X1084001D02*
X1086666D01*
X1085334D01*
Y609999D01*
X1084001Y608666D01*
X1094664Y602001D02*
Y609999D01*
X1090665Y606000D01*
X1095997D01*
X727004Y974999D02*
Y969667D01*
X729670Y967001D01*
X732336Y969667D01*
Y974999D01*
X735002D02*
Y967001D01*
X739001D01*
X740333Y968334D01*
Y973666D01*
X739001Y974999D01*
X735002D01*
X742999Y967001D02*
X745665D01*
X744332D01*
Y974999D01*
X742999Y973666D01*
X749664D02*
X750997Y974999D01*
X753663D01*
X754995Y973666D01*
Y968334D01*
X753663Y967001D01*
X750997D01*
X749664Y968334D01*
Y973666D01*
X723999Y955335D02*
X716001D01*
Y959334D01*
X717334Y960667D01*
X720000D01*
X721333Y959334D01*
Y955335D01*
Y958001D02*
X723999Y960667D01*
X716001Y963333D02*
Y968664D01*
X717334D01*
X722666Y963333D01*
X723999D01*
X1119836Y808999D02*
X1125167D01*
Y807666D01*
X1119836Y802334D01*
Y801001D01*
X1125167D01*
X1133165D02*
X1127833D01*
X1133165Y806333D01*
Y807666D01*
X1131832Y808999D01*
X1129166D01*
X1127833Y807666D01*
X708999Y955335D02*
X701001D01*
Y959334D01*
X702334Y960667D01*
X705000D01*
X706333Y959334D01*
Y955335D01*
Y958001D02*
X708999Y960667D01*
X701001Y968664D02*
X702334Y965999D01*
X705000Y963333D01*
X707666D01*
X708999Y964666D01*
Y967332D01*
X707666Y968664D01*
X706333D01*
X705000Y967332D01*
Y963333D01*
X1094836Y835001D02*
Y842999D01*
X1098835D01*
X1100168Y841666D01*
Y839000D01*
X1098835Y837667D01*
X1094836D01*
X1097502D02*
X1100168Y835001D01*
X1102834D02*
X1105499D01*
X1104166D01*
Y842999D01*
X1102834Y841666D01*
X1109498Y835001D02*
X1112164D01*
X1110831D01*
Y842999D01*
X1109498Y841666D01*
X1094503Y847001D02*
Y854999D01*
X1098502D01*
X1099835Y853666D01*
Y851000D01*
X1098502Y849667D01*
X1094503D01*
X1097169D02*
X1099835Y847001D01*
X1102501D02*
X1105166D01*
X1103834D01*
Y854999D01*
X1102501Y853666D01*
X1109165D02*
X1110498Y854999D01*
X1113164D01*
X1114497Y853666D01*
Y848334D01*
X1113164Y847001D01*
X1110498D01*
X1109165Y848334D01*
Y853666D01*
X1099836Y859501D02*
Y867499D01*
X1103834D01*
X1105167Y866166D01*
Y863500D01*
X1103834Y862167D01*
X1099836D01*
X1102501D02*
X1105167Y859501D01*
X1107833Y860834D02*
X1109166Y859501D01*
X1111832D01*
X1113165Y860834D01*
Y866166D01*
X1111832Y867499D01*
X1109166D01*
X1107833Y866166D01*
Y864833D01*
X1109166Y863500D01*
X1113165D01*
X1099836Y872001D02*
Y879999D01*
X1103834D01*
X1105167Y878666D01*
Y876000D01*
X1103834Y874667D01*
X1099836D01*
X1102501D02*
X1105167Y872001D01*
X1107833Y878666D02*
X1109166Y879999D01*
X1111832D01*
X1113165Y878666D01*
Y877333D01*
X1111832Y876000D01*
X1113165Y874667D01*
Y873334D01*
X1111832Y872001D01*
X1109166D01*
X1107833Y873334D01*
Y874667D01*
X1109166Y876000D01*
X1107833Y877333D01*
Y878666D01*
X1109166Y876000D02*
X1111832D01*
X1119837Y842999D02*
Y835001D01*
Y839000D01*
X1125168D01*
Y842999D01*
Y835001D01*
X1127834Y842999D02*
Y835001D01*
X1133166D01*
X1139830D02*
Y842999D01*
X1135832Y839000D01*
X1141163D01*
X1119837Y854999D02*
Y847001D01*
Y851000D01*
X1125168D01*
Y854999D01*
Y847001D01*
X1127834Y854999D02*
Y847001D01*
X1133166D01*
X1135832Y853666D02*
X1137165Y854999D01*
X1139830D01*
X1141163Y853666D01*
Y852333D01*
X1139830Y851000D01*
X1138497D01*
X1139830D01*
X1141163Y849667D01*
Y848334D01*
X1139830Y847001D01*
X1137165D01*
X1135832Y848334D01*
X1119837Y867499D02*
Y859501D01*
Y863500D01*
X1125168D01*
Y867499D01*
Y859501D01*
X1127834Y867499D02*
Y859501D01*
X1133166D01*
X1141163D02*
X1135832D01*
X1141163Y864833D01*
Y866166D01*
X1139830Y867499D01*
X1137165D01*
X1135832Y866166D01*
X1119670Y879999D02*
Y872001D01*
Y876000D01*
X1125001D01*
Y879999D01*
Y872001D01*
X1127667Y879999D02*
Y872001D01*
X1132999D01*
X1135665D02*
X1138330D01*
X1136997D01*
Y879999D01*
X1135665Y878666D01*
X1115335Y783166D02*
X1114002Y784499D01*
X1111336D01*
X1110003Y783166D01*
Y777834D01*
X1111336Y776501D01*
X1114002D01*
X1115335Y777834D01*
X1118001Y776501D02*
X1120666D01*
X1119334D01*
Y784499D01*
X1118001Y783166D01*
X1129997Y776501D02*
X1124665D01*
X1129997Y781833D01*
Y783166D01*
X1128664Y784499D01*
X1125998D01*
X1124665Y783166D01*
X1124668Y795166D02*
X1123335Y796499D01*
X1120669D01*
X1119336Y795166D01*
Y789834D01*
X1120669Y788501D01*
X1123335D01*
X1124668Y789834D01*
X1127334Y788501D02*
X1129999D01*
X1128667D01*
Y796499D01*
X1127334Y795166D01*
X1133998Y788501D02*
X1136664D01*
X1135331D01*
Y796499D01*
X1133998Y795166D01*
X675337Y549501D02*
Y557499D01*
X679335D01*
X680668Y556166D01*
Y553500D01*
X679335Y552167D01*
X675337D01*
X678003D02*
X680668Y549501D01*
X688666D02*
X683334D01*
X688666Y554833D01*
Y556166D01*
X687333Y557499D01*
X684667D01*
X683334Y556166D01*
X691332Y550834D02*
X692664Y549501D01*
X695330D01*
X696663Y550834D01*
Y556166D01*
X695330Y557499D01*
X692664D01*
X691332Y556166D01*
Y554833D01*
X692664Y553500D01*
X696663D01*
X799499Y567168D02*
X791501D01*
Y571167D01*
X792834Y572500D01*
X795500D01*
X796833Y571167D01*
Y567168D01*
Y569834D02*
X799499Y572500D01*
Y575166D02*
Y577832D01*
Y576499D01*
X791501D01*
X792834Y575166D01*
X730501Y661668D02*
X738499D01*
Y667000D01*
Y669666D02*
Y672332D01*
Y670999D01*
X730501D01*
X731834Y669666D01*
X769834Y548668D02*
X768501Y547336D01*
Y544670D01*
X769834Y543337D01*
X775166D01*
X776499Y544670D01*
Y547336D01*
X775166Y548668D01*
X776499Y556666D02*
Y551334D01*
X771167Y556666D01*
X769834D01*
X768501Y555333D01*
Y552667D01*
X769834Y551334D01*
X776499Y564663D02*
Y559332D01*
X771167Y564663D01*
X769834D01*
X768501Y563330D01*
Y560665D01*
X769834Y559332D01*
X745334Y549501D02*
X744001Y548168D01*
Y545503D01*
X745334Y544170D01*
X750666D01*
X751999Y545503D01*
Y548168D01*
X750666Y549501D01*
X751999Y557499D02*
Y552167D01*
X746667Y557499D01*
X745334D01*
X744001Y556166D01*
Y553500D01*
X745334Y552167D01*
X751999Y560164D02*
Y562830D01*
Y561497D01*
X744001D01*
X745334Y560164D01*
X729334Y562168D02*
X728001Y560835D01*
Y558170D01*
X729334Y556837D01*
X734666D01*
X735999Y558170D01*
Y560835D01*
X734666Y562168D01*
X735999Y570166D02*
Y564834D01*
X730667Y570166D01*
X729334D01*
X728001Y568833D01*
Y566167D01*
X729334Y564834D01*
Y572832D02*
X728001Y574165D01*
Y576830D01*
X729334Y578163D01*
X734666D01*
X735999Y576830D01*
Y574165D01*
X734666Y572832D01*
X729334D01*
X705334Y548835D02*
X704001Y547502D01*
Y544836D01*
X705334Y543503D01*
X710666D01*
X711999Y544836D01*
Y547502D01*
X710666Y548835D01*
X711999Y551501D02*
Y554166D01*
Y552834D01*
X704001D01*
X705334Y551501D01*
X710666Y558165D02*
X711999Y559498D01*
Y562164D01*
X710666Y563497D01*
X705334D01*
X704001Y562164D01*
Y559498D01*
X705334Y558165D01*
X706667D01*
X708000Y559498D01*
Y563497D01*
X637335Y556666D02*
X636002Y557999D01*
X633336D01*
X632003Y556666D01*
Y551334D01*
X633336Y550001D01*
X636002D01*
X637335Y551334D01*
X640001Y550001D02*
X642666D01*
X641334D01*
Y557999D01*
X640001Y556666D01*
X646665D02*
X647998Y557999D01*
X650664D01*
X651997Y556666D01*
Y555333D01*
X650664Y554000D01*
X651997Y552667D01*
Y551334D01*
X650664Y550001D01*
X647998D01*
X646665Y551334D01*
Y552667D01*
X647998Y554000D01*
X646665Y555333D01*
Y556666D01*
X647998Y554000D02*
X650664D01*
X638335Y608666D02*
X637002Y609999D01*
X634336D01*
X633003Y608666D01*
Y603334D01*
X634336Y602001D01*
X637002D01*
X638335Y603334D01*
X641001Y602001D02*
X643667D01*
X642334D01*
Y609999D01*
X641001Y608666D01*
X647665Y609999D02*
X652997D01*
Y608666D01*
X647665Y603334D01*
Y602001D01*
X723999Y558170D02*
X716001D01*
Y562168D01*
X717334Y563501D01*
X720000D01*
X721333Y562168D01*
Y558170D01*
Y560835D02*
X723999Y563501D01*
X717334Y566167D02*
X716001Y567500D01*
Y570166D01*
X717334Y571499D01*
X718667D01*
X720000Y570166D01*
Y568833D01*
Y570166D01*
X721333Y571499D01*
X722666D01*
X723999Y570166D01*
Y567500D01*
X722666Y566167D01*
X723999Y574165D02*
Y576830D01*
Y575497D01*
X716001D01*
X717334Y574165D01*
X735499Y599337D02*
X727501D01*
Y603335D01*
X728834Y604668D01*
X731500D01*
X732833Y603335D01*
Y599337D01*
Y602003D02*
X735499Y604668D01*
X728834Y607334D02*
X727501Y608667D01*
Y611333D01*
X728834Y612666D01*
X730167D01*
X731500Y611333D01*
Y610000D01*
Y611333D01*
X732833Y612666D01*
X734166D01*
X735499Y611333D01*
Y608667D01*
X734166Y607334D01*
X728834Y615332D02*
X727501Y616665D01*
Y619330D01*
X728834Y620663D01*
X734166D01*
X735499Y619330D01*
Y616665D01*
X734166Y615332D01*
X728834D01*
X891503Y599501D02*
Y607499D01*
X895502D01*
X896835Y606166D01*
Y603500D01*
X895502Y602167D01*
X891503D01*
X894169D02*
X896835Y599501D01*
X899501D02*
X902166D01*
X900834D01*
Y607499D01*
X899501Y606166D01*
X906165D02*
X907498Y607499D01*
X910164D01*
X911497Y606166D01*
Y604833D01*
X910164Y603500D01*
X908831D01*
X910164D01*
X911497Y602167D01*
Y600834D01*
X910164Y599501D01*
X907498D01*
X906165Y600834D01*
X891003Y587001D02*
Y594999D01*
X895002D01*
X896335Y593666D01*
Y591000D01*
X895002Y589667D01*
X891003D01*
X893669D02*
X896335Y587001D01*
X899001D02*
X901666D01*
X900334D01*
Y594999D01*
X899001Y593666D01*
X910997Y587001D02*
X905665D01*
X910997Y592333D01*
Y593666D01*
X909664Y594999D01*
X906998D01*
X905665Y593666D01*
X1098999Y911336D02*
X1091001D01*
Y915334D01*
X1092334Y916667D01*
X1095000D01*
X1096333Y915334D01*
Y911336D01*
Y914001D02*
X1098999Y916667D01*
X1091001Y924665D02*
Y919333D01*
X1095000D01*
X1093667Y921999D01*
Y923332D01*
X1095000Y924665D01*
X1097666D01*
X1098999Y923332D01*
Y920666D01*
X1097666Y919333D01*
X1098999Y975335D02*
X1091001D01*
Y979334D01*
X1092334Y980667D01*
X1095000D01*
X1096333Y979334D01*
Y975335D01*
Y978001D02*
X1098999Y980667D01*
X1092334Y983333D02*
X1091001Y984666D01*
Y987332D01*
X1092334Y988664D01*
X1093667D01*
X1095000Y987332D01*
Y985999D01*
Y987332D01*
X1096333Y988664D01*
X1097666D01*
X1098999Y987332D01*
Y984666D01*
X1097666Y983333D01*
X1039001Y902337D02*
X1044333D01*
X1046999Y905003D01*
X1044333Y907669D01*
X1039001D01*
Y910335D02*
X1046999D01*
Y914334D01*
X1045666Y915667D01*
X1040334D01*
X1039001Y914334D01*
Y910335D01*
X1046999Y918332D02*
Y920998D01*
Y919665D01*
X1039001D01*
X1040334Y918332D01*
X1046999Y924997D02*
Y927663D01*
Y926330D01*
X1039001D01*
X1040334Y924997D01*
X1039001Y944337D02*
X1044333D01*
X1046999Y947003D01*
X1044333Y949668D01*
X1039001D01*
Y952334D02*
X1046999D01*
Y956333D01*
X1045666Y957666D01*
X1040334D01*
X1039001Y956333D01*
Y952334D01*
X1045666Y960332D02*
X1046999Y961665D01*
Y964330D01*
X1045666Y965663D01*
X1040334D01*
X1039001Y964330D01*
Y961665D01*
X1040334Y960332D01*
X1041667D01*
X1043000Y961665D01*
Y965663D01*
X652670Y957999D02*
X658001Y950001D01*
Y957999D02*
X652670Y950001D01*
X660667D02*
Y957999D01*
X664666D01*
X665999Y956666D01*
Y954000D01*
X664666Y952667D01*
X660667D01*
X668664Y950001D02*
X671330D01*
X669997D01*
Y957999D01*
X668664Y956666D01*
X876999Y943337D02*
X869001D01*
Y947336D01*
X870334Y948668D01*
X873000D01*
X874333Y947336D01*
Y943337D01*
Y946003D02*
X876999Y948668D01*
X870334Y951334D02*
X869001Y952667D01*
Y955333D01*
X870334Y956666D01*
X871667D01*
X873000Y955333D01*
Y954000D01*
Y955333D01*
X874333Y956666D01*
X875666D01*
X876999Y955333D01*
Y952667D01*
X875666Y951334D01*
X869001Y964663D02*
Y959332D01*
X873000D01*
X871667Y961997D01*
Y963330D01*
X873000Y964663D01*
X875666D01*
X876999Y963330D01*
Y960665D01*
X875666Y959332D01*
X889999Y943337D02*
X882001D01*
Y947336D01*
X883334Y948668D01*
X886000D01*
X887333Y947336D01*
Y943337D01*
Y946003D02*
X889999Y948668D01*
X883334Y951334D02*
X882001Y952667D01*
Y955333D01*
X883334Y956666D01*
X884667D01*
X886000Y955333D01*
Y954000D01*
Y955333D01*
X887333Y956666D01*
X888666D01*
X889999Y955333D01*
Y952667D01*
X888666Y951334D01*
X889999Y963330D02*
X882001D01*
X886000Y959332D01*
Y964663D01*
X627337Y909999D02*
Y902001D01*
Y906000D01*
X632668D01*
Y909999D01*
Y902001D01*
X635334Y909999D02*
Y902001D01*
X640666D01*
X643332Y909999D02*
X648663D01*
Y908666D01*
X643332Y903334D01*
Y902001D01*
X626337Y870999D02*
Y863001D01*
Y867000D01*
X631668D01*
Y870999D01*
Y863001D01*
X634334Y870999D02*
Y863001D01*
X639666D01*
X647663Y870999D02*
X644997Y869666D01*
X642332Y867000D01*
Y864334D01*
X643664Y863001D01*
X646330D01*
X647663Y864334D01*
Y865667D01*
X646330Y867000D01*
X642332D01*
X1030337Y594999D02*
Y589667D01*
X1033003Y587001D01*
X1035668Y589667D01*
Y594999D01*
X1038334D02*
Y587001D01*
X1042333D01*
X1043666Y588334D01*
Y593666D01*
X1042333Y594999D01*
X1038334D01*
X1046332D02*
X1051663D01*
Y593666D01*
X1046332Y588334D01*
Y587001D01*
X918337Y594999D02*
Y589667D01*
X921003Y587001D01*
X923668Y589667D01*
Y594999D01*
X926334D02*
Y587001D01*
X930333D01*
X931666Y588334D01*
Y593666D01*
X930333Y594999D01*
X926334D01*
X939663D02*
X936997Y593666D01*
X934332Y591000D01*
Y588334D01*
X935665Y587001D01*
X938330D01*
X939663Y588334D01*
Y589667D01*
X938330Y591000D01*
X934332D01*
X1067337Y594999D02*
Y589667D01*
X1070003Y587001D01*
X1072668Y589667D01*
Y594999D01*
X1075334D02*
Y587001D01*
X1079333D01*
X1080666Y588334D01*
Y593666D01*
X1079333Y594999D01*
X1075334D01*
X1088663D02*
X1083332D01*
Y591000D01*
X1085997Y592333D01*
X1087330D01*
X1088663Y591000D01*
Y588334D01*
X1087330Y587001D01*
X1084665D01*
X1083332Y588334D01*
X956337Y594999D02*
Y589667D01*
X959003Y587001D01*
X961668Y589667D01*
Y594999D01*
X964334D02*
Y587001D01*
X968333D01*
X969666Y588334D01*
Y593666D01*
X968333Y594999D01*
X964334D01*
X976330Y587001D02*
Y594999D01*
X972332Y591000D01*
X977663D01*
X1097337Y594999D02*
Y589667D01*
X1100003Y587001D01*
X1102668Y589667D01*
Y594999D01*
X1105334D02*
Y587001D01*
X1109333D01*
X1110666Y588334D01*
Y593666D01*
X1109333Y594999D01*
X1105334D01*
X1118663Y587001D02*
X1113332D01*
X1118663Y592333D01*
Y593666D01*
X1117330Y594999D01*
X1114665D01*
X1113332Y593666D01*
X994670Y594999D02*
Y589667D01*
X997336Y587001D01*
X1000001Y589667D01*
Y594999D01*
X1002667D02*
Y587001D01*
X1006666D01*
X1007999Y588334D01*
Y593666D01*
X1006666Y594999D01*
X1002667D01*
X1010665Y587001D02*
X1013330D01*
X1011997D01*
Y594999D01*
X1010665Y593666D01*
X726501Y706004D02*
X731833D01*
X734499Y708670D01*
X731833Y711336D01*
X726501D01*
Y714002D02*
X734499D01*
Y718001D01*
X733166Y719333D01*
X727834D01*
X726501Y718001D01*
Y714002D01*
X734499Y721999D02*
Y724665D01*
Y723332D01*
X726501D01*
X727834Y721999D01*
Y728664D02*
X726501Y729997D01*
Y732663D01*
X727834Y733996D01*
X729167D01*
X730500Y732663D01*
Y731330D01*
Y732663D01*
X731833Y733996D01*
X733166D01*
X734499Y732663D01*
Y729997D01*
X733166Y728664D01*
X638001Y934337D02*
X645999D01*
Y938335D01*
X644666Y939668D01*
X639334D01*
X638001Y938335D01*
Y934337D01*
X645999Y942334D02*
X640667D01*
X638001Y945000D01*
X640667Y947666D01*
X645999D01*
X642000D01*
Y942334D01*
X639334Y950332D02*
X638001Y951665D01*
Y954330D01*
X639334Y955663D01*
X640667D01*
X642000Y954330D01*
Y952997D01*
Y954330D01*
X643333Y955663D01*
X644666D01*
X645999Y954330D01*
Y951665D01*
X644666Y950332D01*
X777168Y921666D02*
X775835Y922999D01*
X773170D01*
X771837Y921666D01*
Y916334D01*
X773170Y915001D01*
X775835D01*
X777168Y916334D01*
X785166Y915001D02*
X779834D01*
X785166Y920333D01*
Y921666D01*
X783833Y922999D01*
X781167D01*
X779834Y921666D01*
X791830Y915001D02*
Y922999D01*
X787832Y919000D01*
X793163D01*
X776668Y897666D02*
X775335Y898999D01*
X772670D01*
X771337Y897666D01*
Y892334D01*
X772670Y891001D01*
X775335D01*
X776668Y892334D01*
X784666Y891001D02*
X779334D01*
X784666Y896333D01*
Y897666D01*
X783333Y898999D01*
X780667D01*
X779334Y897666D01*
X787332D02*
X788664Y898999D01*
X791330D01*
X792663Y897666D01*
Y896333D01*
X791330Y895000D01*
X789997D01*
X791330D01*
X792663Y893667D01*
Y892334D01*
X791330Y891001D01*
X788664D01*
X787332Y892334D01*
X866499Y564837D02*
X858501D01*
Y568835D01*
X859834Y570168D01*
X862500D01*
X863833Y568835D01*
Y564837D01*
Y567503D02*
X866499Y570168D01*
Y576833D02*
X858501D01*
X862500Y572834D01*
Y578166D01*
X858501Y586163D02*
X859834Y583497D01*
X862500Y580832D01*
X865166D01*
X866499Y582164D01*
Y584830D01*
X865166Y586163D01*
X863833D01*
X862500Y584830D01*
Y580832D01*
X841499Y564837D02*
X833501D01*
Y568835D01*
X834834Y570168D01*
X837500D01*
X838833Y568835D01*
Y564837D01*
Y567503D02*
X841499Y570168D01*
Y576833D02*
X833501D01*
X837500Y572834D01*
Y578166D01*
X833501Y586163D02*
Y580832D01*
X837500D01*
X836167Y583497D01*
Y584830D01*
X837500Y586163D01*
X840166D01*
X841499Y584830D01*
Y582164D01*
X840166Y580832D01*
X853999Y564837D02*
X846001D01*
Y568835D01*
X847334Y570168D01*
X850000D01*
X851333Y568835D01*
Y564837D01*
Y567503D02*
X853999Y570168D01*
Y576833D02*
X846001D01*
X850000Y572834D01*
Y578166D01*
X853999Y584830D02*
X846001D01*
X850000Y580832D01*
Y586163D01*
X828999Y564837D02*
X821001D01*
Y568835D01*
X822334Y570168D01*
X825000D01*
X826333Y568835D01*
Y564837D01*
Y567503D02*
X828999Y570168D01*
Y576833D02*
X821001D01*
X825000Y572834D01*
Y578166D01*
X822334Y580832D02*
X821001Y582164D01*
Y584830D01*
X822334Y586163D01*
X823667D01*
X825000Y584830D01*
Y583497D01*
Y584830D01*
X826333Y586163D01*
X827666D01*
X828999Y584830D01*
Y582164D01*
X827666Y580832D01*
X816499Y564837D02*
X808501D01*
Y568835D01*
X809834Y570168D01*
X812500D01*
X813833Y568835D01*
Y564837D01*
Y567503D02*
X816499Y570168D01*
Y576833D02*
X808501D01*
X812500Y572834D01*
Y578166D01*
X816499Y586163D02*
Y580832D01*
X811167Y586163D01*
X809834D01*
X808501Y584830D01*
Y582164D01*
X809834Y580832D01*
X958999Y766670D02*
X951001D01*
Y770668D01*
X952334Y772001D01*
X955000D01*
X956333Y770668D01*
Y766670D01*
Y769335D02*
X958999Y772001D01*
Y778666D02*
X951001D01*
X955000Y774667D01*
Y779999D01*
X958999Y782664D02*
Y785330D01*
Y783997D01*
X951001D01*
X952334Y782664D01*
X922999Y765337D02*
X915001D01*
Y769335D01*
X916334Y770668D01*
X919000D01*
X920333Y769335D01*
Y765337D01*
Y768003D02*
X922999Y770668D01*
Y777333D02*
X915001D01*
X919000Y773334D01*
Y778666D01*
X916334Y781332D02*
X915001Y782664D01*
Y785330D01*
X916334Y786663D01*
X921666D01*
X922999Y785330D01*
Y782664D01*
X921666Y781332D01*
X916334D01*
X946999Y765337D02*
X939001D01*
Y769335D01*
X940334Y770668D01*
X943000D01*
X944333Y769335D01*
Y765337D01*
Y768003D02*
X946999Y770668D01*
X940334Y773334D02*
X939001Y774667D01*
Y777333D01*
X940334Y778666D01*
X941667D01*
X943000Y777333D01*
Y776000D01*
Y777333D01*
X944333Y778666D01*
X945666D01*
X946999Y777333D01*
Y774667D01*
X945666Y773334D01*
Y781332D02*
X946999Y782664D01*
Y785330D01*
X945666Y786663D01*
X940334D01*
X939001Y785330D01*
Y782664D01*
X940334Y781332D01*
X941667D01*
X943000Y782664D01*
Y786663D01*
X934999Y765337D02*
X927001D01*
Y769335D01*
X928334Y770668D01*
X931000D01*
X932333Y769335D01*
Y765337D01*
Y768003D02*
X934999Y770668D01*
X928334Y773334D02*
X927001Y774667D01*
Y777333D01*
X928334Y778666D01*
X929667D01*
X931000Y777333D01*
Y776000D01*
Y777333D01*
X932333Y778666D01*
X933666D01*
X934999Y777333D01*
Y774667D01*
X933666Y773334D01*
X928334Y781332D02*
X927001Y782664D01*
Y785330D01*
X928334Y786663D01*
X929667D01*
X931000Y785330D01*
X932333Y786663D01*
X933666D01*
X934999Y785330D01*
Y782664D01*
X933666Y781332D01*
X932333D01*
X931000Y782664D01*
X929667Y781332D01*
X928334D01*
X931000Y782664D02*
Y785330D01*
X910999Y765337D02*
X903001D01*
Y769335D01*
X904334Y770668D01*
X907000D01*
X908333Y769335D01*
Y765337D01*
Y768003D02*
X910999Y770668D01*
X904334Y773334D02*
X903001Y774667D01*
Y777333D01*
X904334Y778666D01*
X905667D01*
X907000Y777333D01*
Y776000D01*
Y777333D01*
X908333Y778666D01*
X909666D01*
X910999Y777333D01*
Y774667D01*
X909666Y773334D01*
X903001Y781332D02*
Y786663D01*
X904334D01*
X909666Y781332D01*
X910999D01*
X898999Y765337D02*
X891001D01*
Y769335D01*
X892334Y770668D01*
X895000D01*
X896333Y769335D01*
Y765337D01*
Y768003D02*
X898999Y770668D01*
X892334Y773334D02*
X891001Y774667D01*
Y777333D01*
X892334Y778666D01*
X893667D01*
X895000Y777333D01*
Y776000D01*
Y777333D01*
X896333Y778666D01*
X897666D01*
X898999Y777333D01*
Y774667D01*
X897666Y773334D01*
X891001Y786663D02*
X892334Y783997D01*
X895000Y781332D01*
X897666D01*
X898999Y782664D01*
Y785330D01*
X897666Y786663D01*
X896333D01*
X895000Y785330D01*
Y781332D01*
X819337Y884299D02*
Y876301D01*
X823335D01*
X824668Y877634D01*
Y882966D01*
X823335Y884299D01*
X819337D01*
X827334D02*
Y876301D01*
X831333D01*
X832666Y877634D01*
Y882966D01*
X831333Y884299D01*
X827334D01*
X840663Y876301D02*
X835332D01*
X840663Y881633D01*
Y882966D01*
X839330Y884299D01*
X836665D01*
X835332Y882966D01*
X1028001Y885668D02*
Y891000D01*
X1029334D01*
X1034666Y885668D01*
X1035999D01*
Y891000D01*
Y893666D02*
Y896332D01*
Y894999D01*
X1028001D01*
X1029334Y893666D01*
X1049335Y843666D02*
X1048002Y844999D01*
X1045336D01*
X1044003Y843666D01*
Y838334D01*
X1045336Y837001D01*
X1048002D01*
X1049335Y838334D01*
X1052001Y837001D02*
X1054666D01*
X1053334D01*
Y844999D01*
X1052001Y843666D01*
X1058665D02*
X1059998Y844999D01*
X1062664D01*
X1063997Y843666D01*
Y838334D01*
X1062664Y837001D01*
X1059998D01*
X1058665Y838334D01*
Y843666D01*
X1043334Y864667D02*
X1042001Y863334D01*
Y860668D01*
X1043334Y859335D01*
X1048666D01*
X1049999Y860668D01*
Y863334D01*
X1048666Y864667D01*
Y867333D02*
X1049999Y868666D01*
Y871332D01*
X1048666Y872664D01*
X1043334D01*
X1042001Y871332D01*
Y868666D01*
X1043334Y867333D01*
X1044667D01*
X1046000Y868666D01*
Y872664D01*
X958167Y970166D02*
X956834Y971499D01*
X954168D01*
X952835Y970166D01*
Y964834D01*
X954168Y963501D01*
X956834D01*
X958167Y964834D01*
X960833Y970166D02*
X962166Y971499D01*
X964832D01*
X966164Y970166D01*
Y968833D01*
X964832Y967500D01*
X966164Y966167D01*
Y964834D01*
X964832Y963501D01*
X962166D01*
X960833Y964834D01*
Y966167D01*
X962166Y967500D01*
X960833Y968833D01*
Y970166D01*
X962166Y967500D02*
X964832D01*
X1013667Y838666D02*
X1012334Y839999D01*
X1009668D01*
X1008335Y838666D01*
Y833334D01*
X1009668Y832001D01*
X1012334D01*
X1013667Y833334D01*
X1021665Y839999D02*
X1018999Y838666D01*
X1016333Y836000D01*
Y833334D01*
X1017666Y832001D01*
X1020332D01*
X1021665Y833334D01*
Y834667D01*
X1020332Y836000D01*
X1016333D01*
X1017334Y888667D02*
X1016001Y887334D01*
Y884668D01*
X1017334Y883335D01*
X1022666D01*
X1023999Y884668D01*
Y887334D01*
X1022666Y888667D01*
X1016001Y896665D02*
Y891333D01*
X1020000D01*
X1018667Y893999D01*
Y895332D01*
X1020000Y896665D01*
X1022666D01*
X1023999Y895332D01*
Y892666D01*
X1022666Y891333D01*
X1065001Y799837D02*
Y805168D01*
X1066334D01*
X1071666Y799837D01*
X1072999D01*
Y805168D01*
X1071666Y813166D02*
X1066334D01*
X1065001Y811833D01*
Y809167D01*
X1066334Y807834D01*
X1071666D01*
X1072999Y809167D01*
Y811833D01*
X1070333Y810500D02*
X1072999Y813166D01*
Y811833D02*
X1071666Y813166D01*
X1072999Y821163D02*
Y815832D01*
X1067667Y821163D01*
X1066334D01*
X1065001Y819830D01*
Y817165D01*
X1066334Y815832D01*
X1030667Y843666D02*
X1029334Y844999D01*
X1026668D01*
X1025335Y843666D01*
Y838334D01*
X1026668Y837001D01*
X1029334D01*
X1030667Y838334D01*
X1033333Y844999D02*
X1038664D01*
Y843666D01*
X1033333Y838334D01*
Y837001D01*
X864334Y871167D02*
X863001Y869834D01*
Y867168D01*
X864334Y865835D01*
X869666D01*
X870999Y867168D01*
Y869834D01*
X869666Y871167D01*
X870999Y877832D02*
X863001D01*
X867000Y873833D01*
Y879165D01*
X717337Y551999D02*
X722668Y544001D01*
Y551999D02*
X717337Y544001D01*
X725334D02*
Y551999D01*
X729333D01*
X730666Y550666D01*
Y548000D01*
X729333Y546667D01*
X725334D01*
X738663Y544001D02*
X733332D01*
X738663Y549333D01*
Y550666D01*
X737330Y551999D01*
X734665D01*
X733332Y550666D01*
X739837Y624499D02*
Y619167D01*
X742503Y616501D01*
X745168Y619167D01*
Y624499D01*
X747834D02*
Y616501D01*
X751833D01*
X753166Y617834D01*
Y623166D01*
X751833Y624499D01*
X747834D01*
X755832Y623166D02*
X757165Y624499D01*
X759830D01*
X761163Y623166D01*
Y621833D01*
X759830Y620500D01*
X761163Y619167D01*
Y617834D01*
X759830Y616501D01*
X757165D01*
X755832Y617834D01*
Y619167D01*
X757165Y620500D01*
X755832Y621833D01*
Y623166D01*
X757165Y620500D02*
X759830D01*
X1068670Y854999D02*
X1074001D01*
Y853666D01*
X1068670Y848334D01*
Y847001D01*
X1074001D01*
X1081999Y848334D02*
Y853666D01*
X1080666Y854999D01*
X1078000D01*
X1076667Y853666D01*
Y848334D01*
X1078000Y847001D01*
X1080666D01*
X1079333Y849667D02*
X1081999Y847001D01*
X1080666D02*
X1081999Y848334D01*
X1084665Y847001D02*
X1087330D01*
X1085997D01*
Y854999D01*
X1084665Y853666D01*
X1043334Y882667D02*
X1042001Y881334D01*
Y878668D01*
X1043334Y877336D01*
X1048666D01*
X1049999Y878668D01*
Y881334D01*
X1048666Y882667D01*
X1043334Y885333D02*
X1042001Y886666D01*
Y889332D01*
X1043334Y890665D01*
X1044667D01*
X1046000Y889332D01*
Y887999D01*
Y889332D01*
X1047333Y890665D01*
X1048666D01*
X1049999Y889332D01*
Y886666D01*
X1048666Y885333D01*
X929667Y970166D02*
X928334Y971499D01*
X925668D01*
X924335Y970166D01*
Y964834D01*
X925668Y963501D01*
X928334D01*
X929667Y964834D01*
X937664Y963501D02*
X932333D01*
X937664Y968833D01*
Y970166D01*
X936332Y971499D01*
X933666D01*
X932333Y970166D01*
X1132337Y984999D02*
X1137668Y977001D01*
Y984999D02*
X1132337Y977001D01*
X1145666Y983666D02*
X1144333Y984999D01*
X1141667D01*
X1140334Y983666D01*
Y982333D01*
X1141667Y981000D01*
X1144333D01*
X1145666Y979667D01*
Y978334D01*
X1144333Y977001D01*
X1141667D01*
X1140334Y978334D01*
X1153663Y984999D02*
X1148332D01*
Y981000D01*
X1150997Y982333D01*
X1152330D01*
X1153663Y981000D01*
Y978334D01*
X1152330Y977001D01*
X1149665D01*
X1148332Y978334D01*
X626001Y632005D02*
X631333D01*
X633999Y634670D01*
X631333Y637336D01*
X626001D01*
Y640002D02*
X633999D01*
Y644001D01*
X632666Y645334D01*
X627334D01*
X626001Y644001D01*
Y640002D01*
X633999Y647999D02*
Y650665D01*
Y649332D01*
X626001D01*
X627334Y647999D01*
X633999Y659995D02*
Y654664D01*
X628667Y659995D01*
X627334D01*
X626001Y658663D01*
Y655997D01*
X627334Y654664D01*
X910337Y988999D02*
X915668Y981001D01*
Y988999D02*
X910337Y981001D01*
X923666Y987666D02*
X922333Y988999D01*
X919667D01*
X918334Y987666D01*
Y986333D01*
X919667Y985000D01*
X922333D01*
X923666Y983667D01*
Y982334D01*
X922333Y981001D01*
X919667D01*
X918334Y982334D01*
X926332Y987666D02*
X927664Y988999D01*
X930330D01*
X931663Y987666D01*
Y986333D01*
X930330Y985000D01*
X928997D01*
X930330D01*
X931663Y983667D01*
Y982334D01*
X930330Y981001D01*
X927664D01*
X926332Y982334D01*
X974337Y988999D02*
X979668Y981001D01*
Y988999D02*
X974337Y981001D01*
X987666Y987666D02*
X986333Y988999D01*
X983667D01*
X982334Y987666D01*
Y986333D01*
X983667Y985000D01*
X986333D01*
X987666Y983667D01*
Y982334D01*
X986333Y981001D01*
X983667D01*
X982334Y982334D01*
X994330Y981001D02*
Y988999D01*
X990332Y985000D01*
X995663D01*
X875670Y551499D02*
X881001Y543501D01*
Y551499D02*
X875670Y543501D01*
X888999Y550166D02*
X887666Y551499D01*
X885000D01*
X883667Y550166D01*
Y548833D01*
X885000Y547500D01*
X887666D01*
X888999Y546167D01*
Y544834D01*
X887666Y543501D01*
X885000D01*
X883667Y544834D01*
X891665Y543501D02*
X894330D01*
X892998D01*
Y551499D01*
X891665Y550166D01*
X1012337Y550999D02*
X1017668Y543001D01*
Y550999D02*
X1012337Y543001D01*
X1025666Y549666D02*
X1024333Y550999D01*
X1021667D01*
X1020334Y549666D01*
Y548333D01*
X1021667Y547000D01*
X1024333D01*
X1025666Y545667D01*
Y544334D01*
X1024333Y543001D01*
X1021667D01*
X1020334Y544334D01*
X1033663Y543001D02*
X1028332D01*
X1033663Y548333D01*
Y549666D01*
X1032330Y550999D01*
X1029665D01*
X1028332Y549666D01*
X541001Y985666D02*
X539668Y986999D01*
X537003D01*
X535670Y985666D01*
Y984333D01*
X537003Y983000D01*
X539668D01*
X541001Y981667D01*
Y980334D01*
X539668Y979001D01*
X537003D01*
X535670Y980334D01*
X543667Y986999D02*
Y979001D01*
X547666D01*
X548999Y980334D01*
Y981667D01*
X547666Y983000D01*
X543667D01*
X547666D01*
X548999Y984333D01*
Y985666D01*
X547666Y986999D01*
X543667D01*
X551665Y979001D02*
X554330D01*
X552997D01*
Y986999D01*
X551665Y985666D01*
X504337Y684999D02*
X509668Y677001D01*
Y684999D02*
X504337Y677001D01*
X517666Y683666D02*
X516333Y684999D01*
X513667D01*
X512334Y683666D01*
Y682333D01*
X513667Y681000D01*
X516333D01*
X517666Y679667D01*
Y678334D01*
X516333Y677001D01*
X513667D01*
X512334Y678334D01*
X525663Y684999D02*
X522997Y683666D01*
X520332Y681000D01*
Y678334D01*
X521665Y677001D01*
X524330D01*
X525663Y678334D01*
Y679667D01*
X524330Y681000D01*
X520332D01*
X694451Y746018D02*
Y751350D01*
Y748684D01*
X702449D01*
Y754016D02*
Y756682D01*
Y755349D01*
X694451D01*
X695784Y754016D01*
X504337Y671999D02*
X509668Y664001D01*
Y671999D02*
X504337Y664001D01*
X517666Y670666D02*
X516333Y671999D01*
X513667D01*
X512334Y670666D01*
Y669333D01*
X513667Y668000D01*
X516333D01*
X517666Y666667D01*
Y665334D01*
X516333Y664001D01*
X513667D01*
X512334Y665334D01*
X520332Y671999D02*
X525663D01*
Y670666D01*
X520332Y665334D01*
Y664001D01*
X586001Y916337D02*
X593999Y921668D01*
X586001D02*
X593999Y916337D01*
X587334Y929666D02*
X586001Y928333D01*
Y925667D01*
X587334Y924334D01*
X588667D01*
X590000Y925667D01*
Y928333D01*
X591333Y929666D01*
X592666D01*
X593999Y928333D01*
Y925667D01*
X592666Y924334D01*
X587334Y932332D02*
X586001Y933664D01*
Y936330D01*
X587334Y937663D01*
X588667D01*
X590000Y936330D01*
X591333Y937663D01*
X592666D01*
X593999Y936330D01*
Y933664D01*
X592666Y932332D01*
X591333D01*
X590000Y933664D01*
X588667Y932332D01*
X587334D01*
X590000Y933664D02*
Y936330D01*
X676837Y579499D02*
Y571501D01*
X680835D01*
X682168Y572834D01*
Y578166D01*
X680835Y579499D01*
X676837D01*
X684834Y571501D02*
Y576833D01*
X687500Y579499D01*
X690166Y576833D01*
Y571501D01*
Y575500D01*
X684834D01*
X698163Y571501D02*
X692832D01*
X698163Y576833D01*
Y578166D01*
X696830Y579499D01*
X694165D01*
X692832Y578166D01*
X881170Y831999D02*
Y824001D01*
X885168D01*
X886501Y825334D01*
Y830666D01*
X885168Y831999D01*
X881170D01*
X889167D02*
Y824001D01*
X893166D01*
X894499Y825334D01*
Y830666D01*
X893166Y831999D01*
X889167D01*
X897165Y824001D02*
X899830D01*
X898497D01*
Y831999D01*
X897165Y830666D01*
D14*
X713000Y875000D02*
X787000Y875000D01*
X713000Y861000D02*
X713000Y875000D01*
X787000Y861000D02*
Y875000D01*
X713000Y745000D02*
X787000Y745000D01*
X713000Y759000D02*
X713000Y745000D01*
X787000Y745000D02*
Y759000D01*
D15*
X754001Y709000D02*
D03*
X653000Y641500D02*
D03*
D16*
X754501Y700501D02*
D03*
X653499Y632999D02*
D03*
D17*
X616000Y970000D02*
D03*
D18*
X674560Y997500D02*
D03*
X766000Y514900D02*
D03*
X994600D02*
D03*
D19*
X943800Y997500D02*
D03*
D20*
X994249Y842750D02*
D03*
M02*
