G04*
G04 #@! TF.GenerationSoftware,Altium Limited,Altium Designer,23.3.1 (30)*
G04*
G04 Layer_Color=8388736*
%FSLAX44Y44*%
%MOMM*%
G71*
G04*
G04 #@! TF.SameCoordinates,251BAFB9-E827-4C36-8F0F-43BA4AAE9409*
G04*
G04*
G04 #@! TF.FilePolarity,Negative*
G04*
G01*
G75*
%ADD70R,0.6000X0.6000*%
G04:AMPARAMS|DCode=71|XSize=0.6mm|YSize=0.6mm|CornerRadius=0.175mm|HoleSize=0mm|Usage=FLASHONLY|Rotation=270.000|XOffset=0mm|YOffset=0mm|HoleType=Round|Shape=RoundedRectangle|*
%AMROUNDEDRECTD71*
21,1,0.6000,0.2500,0,0,270.0*
21,1,0.2500,0.6000,0,0,270.0*
1,1,0.3500,-0.1250,-0.1250*
1,1,0.3500,-0.1250,0.1250*
1,1,0.3500,0.1250,0.1250*
1,1,0.3500,0.1250,-0.1250*
%
%ADD71ROUNDEDRECTD71*%
%ADD72C,1.1000*%
G04:AMPARAMS|DCode=73|XSize=1.4032mm|YSize=0.8532mm|CornerRadius=0.1341mm|HoleSize=0mm|Usage=FLASHONLY|Rotation=180.000|XOffset=0mm|YOffset=0mm|HoleType=Round|Shape=RoundedRectangle|*
%AMROUNDEDRECTD73*
21,1,1.4032,0.5850,0,0,180.0*
21,1,1.1350,0.8532,0,0,180.0*
1,1,0.2682,-0.5675,0.2925*
1,1,0.2682,0.5675,0.2925*
1,1,0.2682,0.5675,-0.2925*
1,1,0.2682,-0.5675,-0.2925*
%
%ADD73ROUNDEDRECTD73*%
G04:AMPARAMS|DCode=74|XSize=0.5mm|YSize=0.95mm|CornerRadius=0.13mm|HoleSize=0mm|Usage=FLASHONLY|Rotation=0.000|XOffset=0mm|YOffset=0mm|HoleType=Round|Shape=RoundedRectangle|*
%AMROUNDEDRECTD74*
21,1,0.5000,0.6900,0,0,0.0*
21,1,0.2400,0.9500,0,0,0.0*
1,1,0.2600,0.1200,-0.3450*
1,1,0.2600,-0.1200,-0.3450*
1,1,0.2600,-0.1200,0.3450*
1,1,0.2600,0.1200,0.3450*
%
%ADD74ROUNDEDRECTD74*%
G04:AMPARAMS|DCode=75|XSize=0.6mm|YSize=0.6mm|CornerRadius=0.175mm|HoleSize=0mm|Usage=FLASHONLY|Rotation=0.000|XOffset=0mm|YOffset=0mm|HoleType=Round|Shape=RoundedRectangle|*
%AMROUNDEDRECTD75*
21,1,0.6000,0.2500,0,0,0.0*
21,1,0.2500,0.6000,0,0,0.0*
1,1,0.3500,0.1250,-0.1250*
1,1,0.3500,-0.1250,-0.1250*
1,1,0.3500,-0.1250,0.1250*
1,1,0.3500,0.1250,0.1250*
%
%ADD75ROUNDEDRECTD75*%
%ADD76O,1.5500X0.7000*%
G04:AMPARAMS|DCode=77|XSize=1.0032mm|YSize=1.1032mm|CornerRadius=0.3016mm|HoleSize=0mm|Usage=FLASHONLY|Rotation=90.000|XOffset=0mm|YOffset=0mm|HoleType=Round|Shape=RoundedRectangle|*
%AMROUNDEDRECTD77*
21,1,1.0032,0.5000,0,0,90.0*
21,1,0.4000,1.1032,0,0,90.0*
1,1,0.6032,0.2500,0.2000*
1,1,0.6032,0.2500,-0.2000*
1,1,0.6032,-0.2500,-0.2000*
1,1,0.6032,-0.2500,0.2000*
%
%ADD77ROUNDEDRECTD77*%
G04:AMPARAMS|DCode=78|XSize=1.0032mm|YSize=1.1032mm|CornerRadius=0.3016mm|HoleSize=0mm|Usage=FLASHONLY|Rotation=0.000|XOffset=0mm|YOffset=0mm|HoleType=Round|Shape=RoundedRectangle|*
%AMROUNDEDRECTD78*
21,1,1.0032,0.5000,0,0,0.0*
21,1,0.4000,1.1032,0,0,0.0*
1,1,0.6032,0.2000,-0.2500*
1,1,0.6032,-0.2000,-0.2500*
1,1,0.6032,-0.2000,0.2500*
1,1,0.6032,0.2000,0.2500*
%
%ADD78ROUNDEDRECTD78*%
G04:AMPARAMS|DCode=79|XSize=0.66mm|YSize=1.14mm|CornerRadius=0.09mm|HoleSize=0mm|Usage=FLASHONLY|Rotation=270.000|XOffset=0mm|YOffset=0mm|HoleType=Round|Shape=RoundedRectangle|*
%AMROUNDEDRECTD79*
21,1,0.6600,0.9600,0,0,270.0*
21,1,0.4800,1.1400,0,0,270.0*
1,1,0.1800,-0.4800,-0.2400*
1,1,0.1800,-0.4800,0.2400*
1,1,0.1800,0.4800,0.2400*
1,1,0.1800,0.4800,-0.2400*
%
%ADD79ROUNDEDRECTD79*%
G04:AMPARAMS|DCode=80|XSize=0.36mm|YSize=1.14mm|CornerRadius=0.06mm|HoleSize=0mm|Usage=FLASHONLY|Rotation=90.000|XOffset=0mm|YOffset=0mm|HoleType=Round|Shape=RoundedRectangle|*
%AMROUNDEDRECTD80*
21,1,0.3600,1.0200,0,0,90.0*
21,1,0.2400,1.1400,0,0,90.0*
1,1,0.1200,0.5100,0.1200*
1,1,0.1200,0.5100,-0.1200*
1,1,0.1200,-0.5100,-0.1200*
1,1,0.1200,-0.5100,0.1200*
%
%ADD80ROUNDEDRECTD80*%
G04:AMPARAMS|DCode=81|XSize=1.6032mm|YSize=2.0032mm|CornerRadius=0.4516mm|HoleSize=0mm|Usage=FLASHONLY|Rotation=90.000|XOffset=0mm|YOffset=0mm|HoleType=Round|Shape=RoundedRectangle|*
%AMROUNDEDRECTD81*
21,1,1.6032,1.1000,0,0,90.0*
21,1,0.7000,2.0032,0,0,90.0*
1,1,0.9032,0.5500,0.3500*
1,1,0.9032,0.5500,-0.3500*
1,1,0.9032,-0.5500,-0.3500*
1,1,0.9032,-0.5500,0.3500*
%
%ADD81ROUNDEDRECTD81*%
G04:AMPARAMS|DCode=82|XSize=0.6mm|YSize=0.6mm|CornerRadius=0.175mm|HoleSize=0mm|Usage=FLASHONLY|Rotation=45.000|XOffset=0mm|YOffset=0mm|HoleType=Round|Shape=RoundedRectangle|*
%AMROUNDEDRECTD82*
21,1,0.6000,0.2500,0,0,45.0*
21,1,0.2500,0.6000,0,0,45.0*
1,1,0.3500,0.1768,0.0000*
1,1,0.3500,0.0000,-0.1768*
1,1,0.3500,-0.1768,0.0000*
1,1,0.3500,0.0000,0.1768*
%
%ADD82ROUNDEDRECTD82*%
%ADD83P,0.8485X4X90.0*%
%ADD84R,2.0032X2.5032*%
%ADD85O,0.7000X1.2000*%
%ADD86R,0.7000X1.2000*%
G04:AMPARAMS|DCode=87|XSize=0.66mm|YSize=0.66mm|CornerRadius=0.205mm|HoleSize=0mm|Usage=FLASHONLY|Rotation=0.000|XOffset=0mm|YOffset=0mm|HoleType=Round|Shape=RoundedRectangle|*
%AMROUNDEDRECTD87*
21,1,0.6600,0.2500,0,0,0.0*
21,1,0.2500,0.6600,0,0,0.0*
1,1,0.4100,0.1250,-0.1250*
1,1,0.4100,-0.1250,-0.1250*
1,1,0.4100,-0.1250,0.1250*
1,1,0.4100,0.1250,0.1250*
%
%ADD87ROUNDEDRECTD87*%
%ADD88R,0.3600X1.5100*%
%ADD89O,0.3600X1.5100*%
G04:AMPARAMS|DCode=90|XSize=1.6032mm|YSize=2.0032mm|CornerRadius=0.4516mm|HoleSize=0mm|Usage=FLASHONLY|Rotation=180.000|XOffset=0mm|YOffset=0mm|HoleType=Round|Shape=RoundedRectangle|*
%AMROUNDEDRECTD90*
21,1,1.6032,1.1000,0,0,180.0*
21,1,0.7000,2.0032,0,0,180.0*
1,1,0.9032,-0.3500,0.5500*
1,1,0.9032,0.3500,0.5500*
1,1,0.9032,0.3500,-0.5500*
1,1,0.9032,-0.3500,-0.5500*
%
%ADD90ROUNDEDRECTD90*%
%ADD91R,0.6000X0.7000*%
%ADD92R,0.6000X0.6000*%
%ADD93R,1.9632X1.5032*%
%ADD94O,1.8532X0.9632*%
%ADD95R,1.8532X0.9632*%
%ADD96O,0.5000X0.9000*%
%ADD97R,0.5000X0.9000*%
%ADD98R,1.5500X0.7000*%
G04:AMPARAMS|DCode=99|XSize=1mm|YSize=0.9mm|CornerRadius=0.25mm|HoleSize=0mm|Usage=FLASHONLY|Rotation=90.000|XOffset=0mm|YOffset=0mm|HoleType=Round|Shape=RoundedRectangle|*
%AMROUNDEDRECTD99*
21,1,1.0000,0.4000,0,0,90.0*
21,1,0.5000,0.9000,0,0,90.0*
1,1,0.5000,0.2000,0.2500*
1,1,0.5000,0.2000,-0.2500*
1,1,0.5000,-0.2000,-0.2500*
1,1,0.5000,-0.2000,0.2500*
%
%ADD99ROUNDEDRECTD99*%
G04:AMPARAMS|DCode=100|XSize=1.4mm|YSize=1.4mm|CornerRadius=0.18mm|HoleSize=0mm|Usage=FLASHONLY|Rotation=180.000|XOffset=0mm|YOffset=0mm|HoleType=Round|Shape=RoundedRectangle|*
%AMROUNDEDRECTD100*
21,1,1.4000,1.0400,0,0,180.0*
21,1,1.0400,1.4000,0,0,180.0*
1,1,0.3600,-0.5200,0.5200*
1,1,0.3600,0.5200,0.5200*
1,1,0.3600,0.5200,-0.5200*
1,1,0.3600,-0.5200,-0.5200*
%
%ADD100ROUNDEDRECTD100*%
%ADD101R,0.5000X0.9500*%
%ADD102R,0.9500X0.9500*%
G04:AMPARAMS|DCode=103|XSize=0.5mm|YSize=0.95mm|CornerRadius=0.13mm|HoleSize=0mm|Usage=FLASHONLY|Rotation=90.000|XOffset=0mm|YOffset=0mm|HoleType=Round|Shape=RoundedRectangle|*
%AMROUNDEDRECTD103*
21,1,0.5000,0.6900,0,0,90.0*
21,1,0.2400,0.9500,0,0,90.0*
1,1,0.2600,0.3450,0.1200*
1,1,0.2600,0.3450,-0.1200*
1,1,0.2600,-0.3450,-0.1200*
1,1,0.2600,-0.3450,0.1200*
%
%ADD103ROUNDEDRECTD103*%
G04:AMPARAMS|DCode=104|XSize=0.66mm|YSize=0.66mm|CornerRadius=0.205mm|HoleSize=0mm|Usage=FLASHONLY|Rotation=270.000|XOffset=0mm|YOffset=0mm|HoleType=Round|Shape=RoundedRectangle|*
%AMROUNDEDRECTD104*
21,1,0.6600,0.2500,0,0,270.0*
21,1,0.2500,0.6600,0,0,270.0*
1,1,0.4100,-0.1250,-0.1250*
1,1,0.4100,-0.1250,0.1250*
1,1,0.4100,0.1250,0.1250*
1,1,0.4100,0.1250,-0.1250*
%
%ADD104ROUNDEDRECTD104*%
G04:AMPARAMS|DCode=105|XSize=1.4032mm|YSize=1.6032mm|CornerRadius=0.4016mm|HoleSize=0mm|Usage=FLASHONLY|Rotation=0.000|XOffset=0mm|YOffset=0mm|HoleType=Round|Shape=RoundedRectangle|*
%AMROUNDEDRECTD105*
21,1,1.4032,0.8000,0,0,0.0*
21,1,0.6000,1.6032,0,0,0.0*
1,1,0.8032,0.3000,-0.4000*
1,1,0.8032,-0.3000,-0.4000*
1,1,0.8032,-0.3000,0.4000*
1,1,0.8032,0.3000,0.4000*
%
%ADD105ROUNDEDRECTD105*%
%ADD106O,1.2000X0.7000*%
%ADD107R,1.2000X0.7000*%
%ADD108R,1.1000X1.1500*%
G04:AMPARAMS|DCode=109|XSize=0.75mm|YSize=1.1mm|CornerRadius=0.2125mm|HoleSize=0mm|Usage=FLASHONLY|Rotation=270.000|XOffset=0mm|YOffset=0mm|HoleType=Round|Shape=RoundedRectangle|*
%AMROUNDEDRECTD109*
21,1,0.7500,0.6750,0,0,270.0*
21,1,0.3250,1.1000,0,0,270.0*
1,1,0.4250,-0.3375,-0.1625*
1,1,0.4250,-0.3375,0.1625*
1,1,0.4250,0.3375,0.1625*
1,1,0.4250,0.3375,-0.1625*
%
%ADD109ROUNDEDRECTD109*%
%ADD110O,1.5100X0.3600*%
%ADD111R,1.5100X0.3600*%
G04:AMPARAMS|DCode=112|XSize=0.65mm|YSize=0.65mm|CornerRadius=0.2mm|HoleSize=0mm|Usage=FLASHONLY|Rotation=270.000|XOffset=0mm|YOffset=0mm|HoleType=Round|Shape=RoundedRectangle|*
%AMROUNDEDRECTD112*
21,1,0.6500,0.2500,0,0,270.0*
21,1,0.2500,0.6500,0,0,270.0*
1,1,0.4000,-0.1250,-0.1250*
1,1,0.4000,-0.1250,0.1250*
1,1,0.4000,0.1250,0.1250*
1,1,0.4000,0.1250,-0.1250*
%
%ADD112ROUNDEDRECTD112*%
%ADD113R,1.3000X1.2000*%
G04:AMPARAMS|DCode=114|XSize=1.2032mm|YSize=2.0032mm|CornerRadius=0.3516mm|HoleSize=0mm|Usage=FLASHONLY|Rotation=0.000|XOffset=0mm|YOffset=0mm|HoleType=Round|Shape=RoundedRectangle|*
%AMROUNDEDRECTD114*
21,1,1.2032,1.3000,0,0,0.0*
21,1,0.5000,2.0032,0,0,0.0*
1,1,0.7032,0.2500,-0.6500*
1,1,0.7032,-0.2500,-0.6500*
1,1,0.7032,-0.2500,0.6500*
1,1,0.7032,0.2500,0.6500*
%
%ADD114ROUNDEDRECTD114*%
%ADD115R,1.2032X2.0032*%
G04:AMPARAMS|DCode=116|XSize=1.2mm|YSize=0.5mm|CornerRadius=0.19mm|HoleSize=0mm|Usage=FLASHONLY|Rotation=180.000|XOffset=0mm|YOffset=0mm|HoleType=Round|Shape=RoundedRectangle|*
%AMROUNDEDRECTD116*
21,1,1.2000,0.1200,0,0,180.0*
21,1,0.8200,0.5000,0,0,180.0*
1,1,0.3800,-0.4100,0.0600*
1,1,0.3800,0.4100,0.0600*
1,1,0.3800,0.4100,-0.0600*
1,1,0.3800,-0.4100,-0.0600*
%
%ADD116ROUNDEDRECTD116*%
G04:AMPARAMS|DCode=117|XSize=1.8mm|YSize=1.1mm|CornerRadius=0.125mm|HoleSize=0mm|Usage=FLASHONLY|Rotation=180.000|XOffset=0mm|YOffset=0mm|HoleType=Round|Shape=RoundedRectangle|*
%AMROUNDEDRECTD117*
21,1,1.8000,0.8500,0,0,180.0*
21,1,1.5500,1.1000,0,0,180.0*
1,1,0.2500,-0.7750,0.4250*
1,1,0.2500,0.7750,0.4250*
1,1,0.2500,0.7750,-0.4250*
1,1,0.2500,-0.7750,-0.4250*
%
%ADD117ROUNDEDRECTD117*%
%ADD118R,1.2000X0.5000*%
%ADD119O,0.9100X0.3100*%
%ADD120R,0.9100X0.3100*%
%ADD121R,1.7600X2.2100*%
%ADD122R,0.2700X1.1100*%
%ADD123R,1.7032X2.1032*%
%ADD124O,1.7032X2.1032*%
%ADD125O,3.7032X2.2032*%
%ADD126C,0.2032*%
%ADD127O,2.2032X1.7032*%
%ADD128O,1.8032X1.4532*%
G04:AMPARAMS|DCode=129|XSize=1.4532mm|YSize=1.8032mm|CornerRadius=0.4141mm|HoleSize=0mm|Usage=FLASHONLY|Rotation=90.000|XOffset=0mm|YOffset=0mm|HoleType=Round|Shape=RoundedRectangle|*
%AMROUNDEDRECTD129*
21,1,1.4532,0.9750,0,0,90.0*
21,1,0.6250,1.8032,0,0,90.0*
1,1,0.8282,0.4875,0.3125*
1,1,0.8282,0.4875,-0.3125*
1,1,0.8282,-0.4875,-0.3125*
1,1,0.8282,-0.4875,0.3125*
%
%ADD129ROUNDEDRECTD129*%
%ADD130O,2.1000X1.2000*%
%ADD131O,2.4000X1.2000*%
%ADD132R,0.1000X0.1000*%
%ADD133O,2.2032X3.8032*%
%ADD134C,2.9032*%
%ADD135O,3.8032X2.2032*%
%ADD136C,3.4032*%
D70*
X594000Y538000D02*
D03*
D71*
Y528000D02*
D03*
Y509000D02*
D03*
Y519000D02*
D03*
X895000Y759000D02*
D03*
X895000Y749000D02*
D03*
X964691Y817309D02*
D03*
Y807309D02*
D03*
X761000Y983000D02*
D03*
Y973000D02*
D03*
X874000Y982000D02*
D03*
Y972000D02*
D03*
X885000Y982000D02*
D03*
Y972000D02*
D03*
X720000Y988000D02*
D03*
Y978000D02*
D03*
X705000Y988000D02*
D03*
Y978000D02*
D03*
X797500Y560000D02*
D03*
Y550000D02*
D03*
X720000Y583500D02*
D03*
Y593500D02*
D03*
Y601500D02*
D03*
Y611500D02*
D03*
X955000Y749000D02*
D03*
X955000Y759000D02*
D03*
X919000Y749000D02*
D03*
X919000Y759000D02*
D03*
X907000Y749000D02*
D03*
X907000Y759000D02*
D03*
X931000Y749000D02*
D03*
X931000Y759000D02*
D03*
X943000Y749000D02*
D03*
X943000Y759000D02*
D03*
X812500Y602500D02*
D03*
X812500Y592500D02*
D03*
X825000Y602500D02*
D03*
X825000Y592500D02*
D03*
X862500Y602500D02*
D03*
Y592500D02*
D03*
X850000Y602500D02*
D03*
X850000Y592500D02*
D03*
X1095000Y945000D02*
D03*
Y935000D02*
D03*
Y955000D02*
D03*
Y965000D02*
D03*
X837500Y602500D02*
D03*
X837500Y592500D02*
D03*
D72*
X1140000Y600000D02*
D03*
X1123000D02*
D03*
X1062000Y605000D02*
D03*
X1047000D02*
D03*
X1031000D02*
D03*
X1015000D02*
D03*
X977000Y799000D02*
D03*
Y814000D02*
D03*
X993000Y799000D02*
D03*
Y814000D02*
D03*
X1009000Y799000D02*
D03*
Y814000D02*
D03*
X1100000Y822000D02*
D03*
X1115000D02*
D03*
X1085000D02*
D03*
D73*
X523500Y512750D02*
D03*
Y534250D02*
D03*
X566500Y512750D02*
D03*
Y534250D02*
D03*
X523500Y999250D02*
D03*
Y1020750D02*
D03*
X566500Y999250D02*
D03*
Y1020750D02*
D03*
D74*
X1060500Y624000D02*
D03*
X1069000D02*
D03*
X1111500D02*
D03*
X1103000Y764000D02*
D03*
X1094500D02*
D03*
X1077500Y764000D02*
D03*
X1086000Y764000D02*
D03*
X1069000D02*
D03*
X1060500D02*
D03*
X1052000D02*
D03*
X1043500D02*
D03*
X1035000D02*
D03*
X1026500D02*
D03*
X1018000Y764000D02*
D03*
X1103000Y624000D02*
D03*
X1094500D02*
D03*
X1077500D02*
D03*
X1086000Y624000D02*
D03*
X1052000D02*
D03*
X1043500Y624000D02*
D03*
X1035000Y624000D02*
D03*
X1026500Y624000D02*
D03*
X1018000Y624000D02*
D03*
X1009500Y764000D02*
D03*
X1001000Y764000D02*
D03*
X992500Y764000D02*
D03*
X1009500Y624000D02*
D03*
X1001000D02*
D03*
X992500D02*
D03*
D75*
X885000Y602500D02*
D03*
Y592000D02*
D03*
X1111500Y606000D02*
D03*
X875000Y602500D02*
D03*
Y592000D02*
D03*
X669000Y553500D02*
D03*
X659000D02*
D03*
X1160000Y798000D02*
D03*
X1150000D02*
D03*
X1052000Y792000D02*
D03*
X1042000D02*
D03*
X1052000Y780000D02*
D03*
X1042000D02*
D03*
X1070500D02*
D03*
X1060500D02*
D03*
X1160000Y824000D02*
D03*
X1150000D02*
D03*
X1160000Y811000D02*
D03*
X1150000D02*
D03*
X1160000Y785000D02*
D03*
X1150000D02*
D03*
X1179000Y824000D02*
D03*
Y811000D02*
D03*
Y798000D02*
D03*
Y785000D02*
D03*
X1101500Y606000D02*
D03*
X632000Y894000D02*
D03*
Y881000D02*
D03*
D76*
X857250Y970750D02*
D03*
X857250Y983450D02*
D03*
X857250Y907250D02*
D03*
X857250Y919950D02*
D03*
Y932650D02*
D03*
Y945350D02*
D03*
Y958050D02*
D03*
X802750Y894550D02*
D03*
Y907250D02*
D03*
Y919950D02*
D03*
Y932650D02*
D03*
Y945350D02*
D03*
Y958050D02*
D03*
Y970750D02*
D03*
Y983450D02*
D03*
D77*
X620000Y878000D02*
D03*
Y894000D02*
D03*
X605000Y878000D02*
D03*
Y894000D02*
D03*
D78*
X668000Y867500D02*
D03*
X684000D02*
D03*
X810000Y842000D02*
D03*
X826000D02*
D03*
X809000Y778000D02*
D03*
X825000D02*
D03*
X1094500Y792000D02*
D03*
X1110500D02*
D03*
X684000Y841000D02*
D03*
X668000D02*
D03*
X684000Y731500D02*
D03*
X668000D02*
D03*
X810000Y828000D02*
D03*
X826000D02*
D03*
X810000Y856000D02*
D03*
X826000D02*
D03*
X825000Y764000D02*
D03*
X809000D02*
D03*
X825000Y792000D02*
D03*
X809000D02*
D03*
X684000Y783500D02*
D03*
X668000D02*
D03*
X668000Y757500D02*
D03*
X684000D02*
D03*
X668000Y704500D02*
D03*
X684000D02*
D03*
D79*
X574500Y895000D02*
D03*
Y959000D02*
D03*
Y951000D02*
D03*
Y903000D02*
D03*
D80*
Y944500D02*
D03*
Y939500D02*
D03*
Y934500D02*
D03*
Y929500D02*
D03*
Y924500D02*
D03*
Y919500D02*
D03*
Y914500D02*
D03*
Y909500D02*
D03*
D81*
X772500Y602500D02*
D03*
Y574500D02*
D03*
X748000Y602500D02*
D03*
X748000Y574500D02*
D03*
X701750Y732500D02*
D03*
Y704500D02*
D03*
D82*
X789000Y704887D02*
D03*
X804556Y720444D02*
D03*
X866781Y627105D02*
D03*
X851225Y627105D02*
D03*
X835668Y627105D02*
D03*
X960119Y658217D02*
D03*
X820112Y627105D02*
D03*
X944562Y658217D02*
D03*
X804556Y627105D02*
D03*
X921935Y651146D02*
D03*
X929006Y658217D02*
D03*
X897894Y673774D02*
D03*
X781929Y620034D02*
D03*
X789000Y627105D02*
D03*
X913450Y658217D02*
D03*
X882338Y673774D02*
D03*
X960118Y642661D02*
D03*
X890823Y651146D02*
D03*
X897894Y658217D02*
D03*
X866781Y673774D02*
D03*
X859710Y682260D02*
D03*
X866781Y689331D02*
D03*
X944562Y642661D02*
D03*
X882337Y658218D02*
D03*
X851225Y673774D02*
D03*
X851225Y689331D02*
D03*
X921935Y635590D02*
D03*
X929006Y642661D02*
D03*
X859710Y651147D02*
D03*
X866781Y658218D02*
D03*
X828598Y666703D02*
D03*
X835669Y673774D02*
D03*
X835669Y689331D02*
D03*
X866782Y704887D02*
D03*
X913450Y642661D02*
D03*
X851225Y658218D02*
D03*
X820113Y673774D02*
D03*
X820113Y689331D02*
D03*
X851225Y704887D02*
D03*
X890823Y635590D02*
D03*
X897894Y642661D02*
D03*
X828598Y651147D02*
D03*
X835669Y658218D02*
D03*
X804556Y673774D02*
D03*
Y689331D02*
D03*
X835669Y704887D02*
D03*
X890823Y713372D02*
D03*
X897894Y720443D02*
D03*
X882337Y642661D02*
D03*
X820113Y658218D02*
D03*
X789000Y673774D02*
D03*
X789000Y689331D02*
D03*
X820113Y704887D02*
D03*
X882338Y720443D02*
D03*
X960118Y627104D02*
D03*
X859710Y635590D02*
D03*
X866781Y642661D02*
D03*
X804556Y658218D02*
D03*
X953048Y682259D02*
D03*
X960119Y689330D02*
D03*
X960119Y704886D02*
D03*
X804556Y704887D02*
D03*
X866782Y720443D02*
D03*
X960119Y735999D02*
D03*
X944562Y627104D02*
D03*
X851225Y642661D02*
D03*
X789000Y658218D02*
D03*
X944563Y689330D02*
D03*
X944563Y704886D02*
D03*
X851225Y720444D02*
D03*
X944563Y735999D02*
D03*
X929006Y627104D02*
D03*
X828597Y635590D02*
D03*
X835669Y642661D02*
D03*
X960119Y673773D02*
D03*
X921935Y682259D02*
D03*
X929006Y689330D02*
D03*
X929007Y704887D02*
D03*
X960119Y720443D02*
D03*
X835669Y720444D02*
D03*
X929007Y736000D02*
D03*
X866782Y736000D02*
D03*
X913450Y627104D02*
D03*
X820112Y642662D02*
D03*
X944563Y673774D02*
D03*
X913450Y689330D02*
D03*
X913450Y704887D02*
D03*
X944563Y720443D02*
D03*
X820113Y720444D02*
D03*
X906379Y728929D02*
D03*
X913450Y736000D02*
D03*
X851225Y736000D02*
D03*
X897893Y627104D02*
D03*
X797485Y635591D02*
D03*
X804556Y642662D02*
D03*
X929006Y673774D02*
D03*
X897894Y689330D02*
D03*
X897894Y704887D02*
D03*
X921936Y713372D02*
D03*
X929007Y720443D02*
D03*
X882337Y627105D02*
D03*
X789000Y642662D02*
D03*
X913450Y673774D02*
D03*
X882338Y689331D02*
D03*
X875267Y697816D02*
D03*
X882338Y704887D02*
D03*
X906379Y713372D02*
D03*
X913450Y720443D02*
D03*
X897894Y736000D02*
D03*
X835669Y736000D02*
D03*
X804556D02*
D03*
X789000Y720444D02*
D03*
X882338Y736000D02*
D03*
X820113Y736000D02*
D03*
X789000D02*
D03*
D83*
X781929Y697816D02*
D03*
X797485Y713373D02*
D03*
X859710Y620034D02*
D03*
X844154Y620034D02*
D03*
X828597Y620034D02*
D03*
X953048Y651146D02*
D03*
X813041Y620034D02*
D03*
X937491Y651146D02*
D03*
X797485Y620034D02*
D03*
X890823Y666703D02*
D03*
X906379Y651146D02*
D03*
X875266Y666703D02*
D03*
X953047Y635589D02*
D03*
X859710Y666703D02*
D03*
X937491Y635589D02*
D03*
X875266Y651146D02*
D03*
X844154Y666703D02*
D03*
X844154Y682260D02*
D03*
X828598Y682260D02*
D03*
X859710Y697816D02*
D03*
X906379Y635590D02*
D03*
X844154Y651147D02*
D03*
X813042Y666703D02*
D03*
X813042Y682260D02*
D03*
X844154Y697816D02*
D03*
X797485Y666703D02*
D03*
X797485Y682260D02*
D03*
X828598Y697816D02*
D03*
X875266Y635590D02*
D03*
X813041Y651147D02*
D03*
X781929Y666703D02*
D03*
X781929Y682260D02*
D03*
X813042Y697816D02*
D03*
X875267Y713372D02*
D03*
X953047Y620033D02*
D03*
X797485Y651147D02*
D03*
X953048Y697815D02*
D03*
X797485Y697816D02*
D03*
X859711Y713372D02*
D03*
X953048Y728928D02*
D03*
X937491Y620033D02*
D03*
X844154Y635590D02*
D03*
X781929Y651147D02*
D03*
X937492Y682259D02*
D03*
X937492Y697815D02*
D03*
X844154Y713372D02*
D03*
X937492Y728928D02*
D03*
X921935Y620033D02*
D03*
X953048Y666702D02*
D03*
X921935Y697816D02*
D03*
X953048Y713372D02*
D03*
X828598Y713372D02*
D03*
X921936Y728929D02*
D03*
X859711Y728929D02*
D03*
X906379Y620033D02*
D03*
X813041Y635590D02*
D03*
X937492Y666702D02*
D03*
X906379Y682259D02*
D03*
X906379Y697816D02*
D03*
X937492Y713372D02*
D03*
X813042Y713373D02*
D03*
X844154Y728929D02*
D03*
X890822Y620033D02*
D03*
X921935Y666703D02*
D03*
X890823Y682259D02*
D03*
X890823Y697816D02*
D03*
X875266Y620033D02*
D03*
X781929Y635591D02*
D03*
X906379Y666703D02*
D03*
X875267Y682259D02*
D03*
X890823Y728929D02*
D03*
X828598Y728929D02*
D03*
X797485Y728929D02*
D03*
X781929Y713372D02*
D03*
X875267Y728929D02*
D03*
X813042Y728929D02*
D03*
X781929Y728929D02*
D03*
D84*
X681000Y648001D02*
D03*
X719000D02*
D03*
D85*
X750500Y658000D02*
D03*
X760000Y634000D02*
D03*
X929000Y554000D02*
D03*
X919500Y578000D02*
D03*
X967000Y554000D02*
D03*
X957500Y578000D02*
D03*
X1004000Y554000D02*
D03*
X994500Y578000D02*
D03*
X1041000Y554000D02*
D03*
X1031500Y578000D02*
D03*
X1078000Y554000D02*
D03*
X1068500Y578000D02*
D03*
X1115000Y554000D02*
D03*
X1105500Y578000D02*
D03*
D86*
X741000Y634000D02*
D03*
X938500Y578000D02*
D03*
X976500D02*
D03*
X1013500D02*
D03*
X1050500Y578000D02*
D03*
X1087500Y578000D02*
D03*
X1124500Y578000D02*
D03*
D87*
X1029000Y852500D02*
D03*
X1019000D02*
D03*
X753500Y883000D02*
D03*
X763500D02*
D03*
X777500D02*
D03*
X787500D02*
D03*
X777500Y907000D02*
D03*
X787500D02*
D03*
X1103000Y780000D02*
D03*
X1093000D02*
D03*
X982500Y967750D02*
D03*
X972500D02*
D03*
X1057000Y828000D02*
D03*
X1047000D02*
D03*
X1038000D02*
D03*
X1028000D02*
D03*
X917500Y967750D02*
D03*
X907500D02*
D03*
X1002000Y825000D02*
D03*
X1012000D02*
D03*
D88*
X761000Y942000D02*
D03*
D89*
X756000D02*
D03*
X751000D02*
D03*
X746000D02*
D03*
X741000D02*
D03*
X761000Y898000D02*
D03*
X756000D02*
D03*
X751000D02*
D03*
X746000D02*
D03*
X741000D02*
D03*
X984500Y832750D02*
D03*
X979500D02*
D03*
X974500D02*
D03*
X969500D02*
D03*
X964500Y832750D02*
D03*
X959500D02*
D03*
X954500Y832750D02*
D03*
X949500D02*
D03*
X944500D02*
D03*
X939500D02*
D03*
X934500Y832750D02*
D03*
X929500D02*
D03*
X924500Y832750D02*
D03*
X919500D02*
D03*
X914500D02*
D03*
X909500D02*
D03*
Y947250D02*
D03*
X914500D02*
D03*
X919500D02*
D03*
X924500D02*
D03*
X929500Y947250D02*
D03*
X934500D02*
D03*
X939500Y947250D02*
D03*
X944500D02*
D03*
X949500D02*
D03*
X954500D02*
D03*
X959500Y947250D02*
D03*
X964500D02*
D03*
X969500Y947250D02*
D03*
X974500D02*
D03*
X979500D02*
D03*
X984500D02*
D03*
D90*
X704000Y684500D02*
D03*
X676000D02*
D03*
D91*
X810500Y550000D02*
D03*
X824500D02*
D03*
X745000Y983000D02*
D03*
X731000D02*
D03*
D92*
X1169000Y824000D02*
D03*
Y811000D02*
D03*
Y798000D02*
D03*
Y785000D02*
D03*
X642000Y894000D02*
D03*
Y881000D02*
D03*
D93*
X754000Y688000D02*
D03*
Y730000D02*
D03*
X653000Y662500D02*
D03*
Y620500D02*
D03*
D94*
X792550Y854450D02*
D03*
Y841750D02*
D03*
Y829050D02*
D03*
Y816350D02*
D03*
Y803650D02*
D03*
Y790950D02*
D03*
Y778250D02*
D03*
X707450Y765550D02*
D03*
Y778250D02*
D03*
Y790950D02*
D03*
Y803650D02*
D03*
Y816350D02*
D03*
Y829050D02*
D03*
Y841750D02*
D03*
Y854450D02*
D03*
D95*
X792550Y765550D02*
D03*
D96*
X688500Y828500D02*
D03*
X682000D02*
D03*
X675500D02*
D03*
X688500Y808500D02*
D03*
X682000D02*
D03*
D97*
X675500D02*
D03*
D98*
X857250Y894550D02*
D03*
D99*
X1094500Y805000D02*
D03*
X1110500D02*
D03*
D100*
X1035500Y710500D02*
D03*
X1052000D02*
D03*
X1068500Y710500D02*
D03*
Y694000D02*
D03*
X1052000D02*
D03*
X1035500D02*
D03*
X1035500Y677500D02*
D03*
X1052000Y677500D02*
D03*
X1068500Y677500D02*
D03*
D101*
X1111500Y764000D02*
D03*
D102*
X1122000D02*
D03*
Y624000D02*
D03*
X982000Y764000D02*
D03*
X982000Y624000D02*
D03*
D103*
X1122000Y753500D02*
D03*
Y745000D02*
D03*
Y736500D02*
D03*
Y719500D02*
D03*
Y728000D02*
D03*
Y711000D02*
D03*
Y702500D02*
D03*
Y694000D02*
D03*
X1122000Y677000D02*
D03*
X1122000Y685500D02*
D03*
Y668500D02*
D03*
Y660000D02*
D03*
Y651500D02*
D03*
Y634500D02*
D03*
Y643000D02*
D03*
X982000Y753500D02*
D03*
X982000Y745000D02*
D03*
Y736500D02*
D03*
X982000Y719500D02*
D03*
X982000Y728000D02*
D03*
Y711000D02*
D03*
X982000Y702500D02*
D03*
X982000Y694000D02*
D03*
Y677000D02*
D03*
X982000Y685500D02*
D03*
X982000Y668500D02*
D03*
Y660000D02*
D03*
X982000Y651500D02*
D03*
X982000Y634500D02*
D03*
Y643000D02*
D03*
D104*
X708000Y569500D02*
D03*
Y579500D02*
D03*
X731000Y583500D02*
D03*
Y593500D02*
D03*
X1057000Y871000D02*
D03*
Y861000D02*
D03*
Y889000D02*
D03*
Y879000D02*
D03*
X1020000Y915000D02*
D03*
Y905000D02*
D03*
X867000Y860000D02*
D03*
Y850000D02*
D03*
D105*
X638002Y570451D02*
D03*
X658001D02*
D03*
X638002Y590451D02*
D03*
X658001D02*
D03*
D106*
X1081000Y915000D02*
D03*
X1057000Y905500D02*
D03*
X1081000Y955000D02*
D03*
X1057000Y945500D02*
D03*
D107*
Y924500D02*
D03*
Y964500D02*
D03*
D108*
X628000Y936000D02*
D03*
D109*
Y954000D02*
D03*
X604000D02*
D03*
Y935000D02*
D03*
D110*
X889750Y852500D02*
D03*
Y857500D02*
D03*
Y862500D02*
D03*
Y867500D02*
D03*
X889750Y872500D02*
D03*
Y877500D02*
D03*
X889750Y882500D02*
D03*
Y887500D02*
D03*
Y892500D02*
D03*
Y897500D02*
D03*
X889750Y902500D02*
D03*
Y907500D02*
D03*
X889750Y912500D02*
D03*
Y917500D02*
D03*
Y922500D02*
D03*
Y927500D02*
D03*
X1004250D02*
D03*
Y922500D02*
D03*
Y917500D02*
D03*
Y912500D02*
D03*
X1004250Y907500D02*
D03*
Y902500D02*
D03*
X1004250Y897500D02*
D03*
Y892500D02*
D03*
Y887500D02*
D03*
Y882500D02*
D03*
X1004250Y877500D02*
D03*
Y872500D02*
D03*
X1004250Y867500D02*
D03*
Y862500D02*
D03*
Y857500D02*
D03*
D111*
Y852500D02*
D03*
D112*
X1031000Y915000D02*
D03*
Y905000D02*
D03*
D113*
X1070250Y864250D02*
D03*
X1070250Y885750D02*
D03*
X1085750D02*
D03*
X1085750Y864250D02*
D03*
D114*
X1055000Y810000D02*
D03*
D115*
X1030000Y810000D02*
D03*
D116*
X1108000Y955000D02*
D03*
X1108000Y945000D02*
D03*
Y935000D02*
D03*
D117*
X1146500Y912000D02*
D03*
Y968000D02*
D03*
D118*
X1108000Y925000D02*
D03*
D119*
X706750Y603500D02*
D03*
Y598500D02*
D03*
Y608500D02*
D03*
Y613500D02*
D03*
Y593500D02*
D03*
X677250Y603500D02*
D03*
Y608500D02*
D03*
Y598500D02*
D03*
Y593500D02*
D03*
D120*
Y613500D02*
D03*
D121*
X692000Y603500D02*
D03*
D122*
X694000Y617250D02*
D03*
X698000Y617250D02*
D03*
X690000Y617250D02*
D03*
X686000Y617250D02*
D03*
X694000Y589750D02*
D03*
X698000Y589750D02*
D03*
X690000Y589750D02*
D03*
X686000Y589750D02*
D03*
D123*
X715900Y931800D02*
D03*
X591440Y1008000D02*
D03*
X687960D02*
D03*
X957200Y1008000D02*
D03*
X779400Y525400D02*
D03*
X1008000D02*
D03*
X677800D02*
D03*
D124*
X690500Y931800D02*
D03*
X665100D02*
D03*
X665100Y906400D02*
D03*
X690500D02*
D03*
X715900D02*
D03*
X616840Y1008000D02*
D03*
X789560D02*
D03*
X738760D02*
D03*
X713360D02*
D03*
X764160D02*
D03*
X916560D02*
D03*
X814960D02*
D03*
X840360D02*
D03*
X865760Y1008000D02*
D03*
X891160Y1008000D02*
D03*
X1058800Y1008000D02*
D03*
X1008000D02*
D03*
X982600D02*
D03*
X1033400D02*
D03*
X1084200D02*
D03*
X1109600D02*
D03*
X1135000Y1008000D02*
D03*
X881000Y525400D02*
D03*
X830200D02*
D03*
X804800D02*
D03*
X855600D02*
D03*
X906400D02*
D03*
X931800D02*
D03*
X957200Y525400D02*
D03*
X1135000Y525400D02*
D03*
X1084200D02*
D03*
X1033400D02*
D03*
X1058800D02*
D03*
X1109600D02*
D03*
X703200D02*
D03*
X728600D02*
D03*
D125*
X586300Y856250D02*
D03*
Y693750D02*
D03*
D126*
X552000Y838500D02*
D03*
Y711500D02*
D03*
X517000Y607500D02*
D03*
D127*
X643400Y843600D02*
D03*
Y820700D02*
D03*
Y729300D02*
D03*
Y706400D02*
D03*
D128*
X577400Y800300D02*
D03*
X595200Y810700D02*
D03*
X577400Y779900D02*
D03*
X595200Y790100D02*
D03*
X577400Y759500D02*
D03*
X595200Y769700D02*
D03*
Y749300D02*
D03*
D129*
X577400Y739100D02*
D03*
D130*
X527000Y970200D02*
D03*
Y883800D02*
D03*
D131*
X568800Y970200D02*
D03*
Y883800D02*
D03*
D132*
X563800Y955900D02*
D03*
Y898100D02*
D03*
D133*
X550000Y607500D02*
D03*
D134*
X606000D02*
D03*
D135*
X544000Y658000D02*
D03*
X592000D02*
D03*
X544000Y557000D02*
D03*
X592000D02*
D03*
D136*
X639700Y525400D02*
D03*
X652400Y1008000D02*
D03*
X1160400Y855600D02*
D03*
Y576200D02*
D03*
M02*
