G04*
G04 #@! TF.GenerationSoftware,Altium Limited,Altium Designer,23.3.1 (30)*
G04*
G04 Layer_Physical_Order=2*
G04 Layer_Color=3162822*
%FSLAX44Y44*%
%MOMM*%
G71*
G04*
G04 #@! TF.SameCoordinates,251BAFB9-E827-4C36-8F0F-43BA4AAE9409*
G04*
G04*
G04 #@! TF.FilePolarity,Positive*
G04*
G01*
G75*
%ADD13C,0.2000*%
%ADD144R,1.5000X1.9000*%
%ADD145O,1.5000X1.9000*%
%ADD146O,3.5000X2.0000*%
%ADD147O,2.0000X1.5000*%
%ADD148O,1.6000X1.2500*%
G04:AMPARAMS|DCode=149|XSize=1.25mm|YSize=1.6mm|CornerRadius=0.3125mm|HoleSize=0mm|Usage=FLASHONLY|Rotation=90.000|XOffset=0mm|YOffset=0mm|HoleType=Round|Shape=RoundedRectangle|*
%AMROUNDEDRECTD149*
21,1,1.2500,0.9750,0,0,90.0*
21,1,0.6250,1.6000,0,0,90.0*
1,1,0.6250,0.4875,0.3125*
1,1,0.6250,0.4875,-0.3125*
1,1,0.6250,-0.4875,-0.3125*
1,1,0.6250,-0.4875,0.3125*
%
%ADD149ROUNDEDRECTD149*%
%ADD150O,2.0000X1.1000*%
%ADD151O,2.3000X1.1000*%
%ADD152O,2.0000X3.6000*%
%ADD153C,2.7000*%
%ADD154O,3.6000X2.0000*%
%ADD155C,3.2000*%
%ADD156C,0.5500*%
%ADD157C,0.3500*%
G36*
X905749Y1023850D02*
X905592Y1023656D01*
X905453Y1023453D01*
X905333Y1023241D01*
X905231Y1023021D01*
X905148Y1022792D01*
X905083Y1022554D01*
X905037Y1022307D01*
X905009Y1022052D01*
X905000Y1021788D01*
X903000D01*
X902991Y1022052D01*
X902963Y1022307D01*
X902917Y1022554D01*
X902852Y1022792D01*
X902769Y1023021D01*
X902667Y1023241D01*
X902547Y1023453D01*
X902408Y1023656D01*
X902251Y1023850D01*
X902075Y1024036D01*
X905925D01*
X905749Y1023850D01*
D02*
G37*
G36*
X1065794Y1003550D02*
X1065747Y1003360D01*
X1065743Y1003154D01*
X1065782Y1002934D01*
X1065865Y1002698D01*
X1065990Y1002447D01*
X1066159Y1002181D01*
X1066370Y1001899D01*
X1066625Y1001603D01*
X1066923Y1001291D01*
X1065786Y999600D01*
X1065478Y999894D01*
X1065191Y1000138D01*
X1064924Y1000334D01*
X1064678Y1000482D01*
X1064453Y1000581D01*
X1064248Y1000630D01*
X1064063Y1000632D01*
X1063899Y1000584D01*
X1063756Y1000488D01*
X1063633Y1000343D01*
X1065883Y1003725D01*
X1065794Y1003550D01*
D02*
G37*
G36*
X719720Y1002189D02*
X719649Y1002023D01*
X719623Y1001838D01*
X719642Y1001637D01*
X719708Y1001417D01*
X719818Y1001180D01*
X719975Y1000925D01*
X720177Y1000653D01*
X720425Y1000363D01*
X720719Y1000055D01*
X719305Y998641D01*
X718997Y998935D01*
X718707Y999183D01*
X718435Y999385D01*
X718180Y999541D01*
X717943Y999652D01*
X717723Y999718D01*
X717522Y999737D01*
X717337Y999711D01*
X717171Y999640D01*
X717022Y999522D01*
X719838Y1002338D01*
X719720Y1002189D01*
D02*
G37*
G36*
X1086003Y998808D02*
X1085834Y998741D01*
X1085686Y998629D01*
X1085557Y998472D01*
X1085448Y998271D01*
X1085359Y998025D01*
X1085289Y997734D01*
X1085240Y997398D01*
X1085210Y997018D01*
X1085200Y996593D01*
X1083200D01*
X1083190Y997018D01*
X1083160Y997398D01*
X1083111Y997734D01*
X1083041Y998025D01*
X1082952Y998271D01*
X1082843Y998472D01*
X1082714Y998629D01*
X1082566Y998741D01*
X1082397Y998808D01*
X1082209Y998830D01*
X1086191D01*
X1086003Y998808D01*
D02*
G37*
G36*
X689770Y998511D02*
X689600Y998450D01*
X689450Y998351D01*
X689320Y998211D01*
X689210Y998030D01*
X689120Y997811D01*
X689050Y997551D01*
X689000Y997251D01*
X688970Y996910D01*
X688960Y996531D01*
X686960D01*
X686950Y996910D01*
X686920Y997251D01*
X686870Y997551D01*
X686800Y997811D01*
X686710Y998030D01*
X686600Y998211D01*
X686470Y998351D01*
X686320Y998450D01*
X686150Y998511D01*
X685960Y998531D01*
X689960D01*
X689770Y998511D01*
D02*
G37*
G36*
X1088500Y969000D02*
X1088631Y969000D01*
X1088892Y968983D01*
X1089152Y968949D01*
X1089409Y968897D01*
X1089662Y968830D01*
X1089910Y968746D01*
X1090152Y968645D01*
X1090387Y968530D01*
X1090613Y968399D01*
X1090831Y968253D01*
X1091039Y968094D01*
X1091236Y967921D01*
X1091421Y967736D01*
X1091594Y967539D01*
X1091753Y967331D01*
X1091898Y967113D01*
X1092029Y966886D01*
X1092145Y966652D01*
X1092245Y966410D01*
X1092329Y966162D01*
X1092456Y965296D01*
X1092500Y965000D01*
X1092499Y965000D01*
X1092500Y965000D01*
X1092500Y935000D01*
X1092500Y934869D01*
X1092483Y934608D01*
X1092449Y934348D01*
X1092398Y934091D01*
X1092330Y933838D01*
X1092246Y933590D01*
X1092145Y933348D01*
X1092030Y933113D01*
X1091899Y932886D01*
X1091753Y932669D01*
X1091594Y932461D01*
X1091421Y932264D01*
X1091236Y932079D01*
X1091039Y931906D01*
X1090831Y931747D01*
X1090613Y931601D01*
X1090387Y931470D01*
X1090152Y931354D01*
X1089910Y931254D01*
X1089742Y931198D01*
X1088500Y931000D01*
Y931000D01*
X1088500Y931000D01*
X1067500Y931000D01*
X1067243Y930998D01*
X1066730Y930981D01*
X1066217Y930947D01*
X1065706Y930897D01*
X1065197Y930830D01*
X1064691Y930747D01*
X1064187Y930646D01*
X1063687Y930530D01*
X1063191Y930397D01*
X1062700Y930248D01*
X1062213Y930083D01*
X1061733Y929902D01*
X1061258Y929705D01*
X1060790Y929493D01*
X1060330Y929266D01*
X1059877Y929024D01*
X1059432Y928767D01*
X1058996Y928496D01*
X1058569Y928211D01*
X1058152Y927912D01*
X1057745Y927599D01*
X1057347Y927273D01*
X1056962Y926935D01*
X1056959Y926933D01*
X1056587Y926584D01*
X1056408Y926408D01*
X1056404Y926404D01*
X1056404Y926404D01*
X1056404Y926404D01*
X1037500Y907500D01*
X1037383Y907380D01*
X1037155Y907134D01*
X1036937Y906879D01*
X1036730Y906616D01*
X1036533Y906345D01*
X1036347Y906066D01*
X1036172Y905780D01*
X1036008Y905488D01*
X1035856Y905189D01*
X1035715Y904885D01*
X1035587Y904575D01*
X1035471Y904261D01*
X1035367Y903942D01*
X1035276Y903620D01*
X1035198Y903294D01*
X1035133Y902965D01*
X1035090Y902697D01*
X1035080Y902634D01*
X1035080Y902633D01*
X1035041Y902301D01*
X1035041Y902300D01*
X1035015Y901967D01*
X1035015Y901964D01*
X1035002Y901632D01*
X1035000Y901464D01*
X1035000Y901464D01*
X1035000Y901464D01*
X1035000Y898000D01*
X1035000Y897869D01*
X1034983Y897608D01*
X1034949Y897348D01*
X1034898Y897091D01*
X1034830Y896838D01*
X1034746Y896590D01*
X1034645Y896348D01*
X1034529Y896113D01*
X1034399Y895887D01*
X1034253Y895669D01*
X1034094Y895461D01*
X1033921Y895264D01*
X1033736Y895079D01*
X1033539Y894906D01*
X1033331Y894747D01*
X1033113Y894601D01*
X1032887Y894470D01*
X1032652Y894354D01*
X1032410Y894254D01*
X1032189Y894179D01*
X1031000Y894000D01*
X1031000Y894000D01*
X1029836Y894171D01*
X1029590Y894254D01*
X1029348Y894354D01*
X1029113Y894470D01*
X1028887Y894601D01*
X1028669Y894747D01*
X1028461Y894906D01*
X1028264Y895079D01*
X1028079Y895264D01*
X1027906Y895461D01*
X1027747Y895669D01*
X1027601Y895887D01*
X1027470Y896113D01*
X1027355Y896348D01*
X1027254Y896590D01*
X1027170Y896838D01*
X1027102Y897091D01*
X1027051Y897348D01*
X1027017Y897608D01*
X1027000Y897869D01*
X1027000Y898000D01*
Y907050D01*
X1027000Y907285D01*
X1027018Y907754D01*
X1027055Y908222D01*
X1027110Y908688D01*
X1027184Y909151D01*
X1027275Y909612D01*
X1027385Y910068D01*
X1027512Y910520D01*
X1027657Y910966D01*
X1027820Y911406D01*
X1027999Y911840D01*
X1028196Y912266D01*
X1028409Y912684D01*
X1028638Y913094D01*
X1028884Y913494D01*
X1029144Y913884D01*
X1029420Y914264D01*
X1029711Y914632D01*
X1030015Y914989D01*
X1030334Y915334D01*
X1030500Y915500D01*
X1030500Y915500D01*
X1083000Y968000D01*
X1083079Y968079D01*
X1083247Y968226D01*
X1083424Y968363D01*
X1083610Y968487D01*
X1083804Y968598D01*
X1084004Y968697D01*
X1084211Y968783D01*
X1084423Y968855D01*
X1084638Y968913D01*
X1084858Y968956D01*
X1085079Y968985D01*
X1085302Y969000D01*
X1085414Y969000D01*
X1085414Y969000D01*
X1088500Y969000D01*
D02*
G37*
G36*
X1005392Y963983D02*
X1005652Y963949D01*
X1005909Y963898D01*
X1006162Y963830D01*
X1006410Y963746D01*
X1006652Y963645D01*
X1006887Y963530D01*
X1007113Y963399D01*
X1007331Y963253D01*
X1007539Y963094D01*
X1007736Y962921D01*
X1007921Y962736D01*
X1008094Y962539D01*
X1008253Y962331D01*
X1008399Y962113D01*
X1008530Y961887D01*
X1008645Y961652D01*
X1008745Y961410D01*
X1008830Y961162D01*
X1008998Y960010D01*
X1009000Y960000D01*
X1009000Y960000D01*
X1009000Y960000D01*
Y952316D01*
X1008982Y951948D01*
X1008946Y951582D01*
X1008892Y951217D01*
X1008820Y950856D01*
X1008730Y950499D01*
X1008624Y950147D01*
X1008500Y949800D01*
X1008359Y949460D01*
X1008201Y949127D01*
X1008028Y948802D01*
X1007838Y948486D01*
X1007634Y948180D01*
X1007414Y947884D01*
X1007181Y947600D01*
X1006933Y947327D01*
X1006673Y947066D01*
X1006400Y946819D01*
X1006116Y946586D01*
X1005820Y946366D01*
X1005514Y946162D01*
X1005198Y945972D01*
X1004873Y945799D01*
X1004540Y945641D01*
X1004200Y945500D01*
X1003853Y945376D01*
X1003501Y945269D01*
X1003144Y945180D01*
X1002783Y945108D01*
X1002418Y945054D01*
X1002052Y945018D01*
X1001684Y945000D01*
X911316D01*
X910948Y945018D01*
X910582Y945054D01*
X910217Y945108D01*
X909856Y945180D01*
X909499Y945269D01*
X909147Y945376D01*
X908800Y945500D01*
X908460Y945641D01*
X908127Y945799D01*
X907802Y945972D01*
X907486Y946162D01*
X907180Y946366D01*
X906884Y946586D01*
X906600Y946819D01*
X906327Y947066D01*
X906067Y947327D01*
X905819Y947600D01*
X905586Y947884D01*
X905366Y948180D01*
X905162Y948486D01*
X904972Y948802D01*
X904799Y949127D01*
X904641Y949460D01*
X904500Y949800D01*
X904376Y950147D01*
X904269Y950499D01*
X904180Y950856D01*
X904108Y951217D01*
X904054Y951582D01*
X904018Y951948D01*
X904000Y952316D01*
Y959614D01*
X904015Y959843D01*
X904045Y960070D01*
X904090Y960295D01*
X904149Y960516D01*
X904222Y960733D01*
X904310Y960945D01*
X904411Y961150D01*
X904526Y961349D01*
X904653Y961539D01*
X904793Y961721D01*
X904944Y961893D01*
X905106Y962055D01*
X905278Y962206D01*
X905460Y962346D01*
X905650Y962473D01*
X905849Y962588D01*
X906054Y962689D01*
X906266Y962777D01*
X906483Y962850D01*
X906704Y962910D01*
X906929Y962954D01*
X907156Y962984D01*
X907385Y962999D01*
X907499Y962999D01*
X907499Y962999D01*
X907614Y962999D01*
X907843Y962984D01*
X908070Y962955D01*
X908295Y962910D01*
X908516Y962851D01*
X908733Y962777D01*
X908945Y962689D01*
X909150Y962588D01*
X909349Y962473D01*
X909539Y962346D01*
X909721Y962207D01*
X909893Y962056D01*
X910055Y961893D01*
X910207Y961721D01*
X910346Y961539D01*
X910473Y961349D01*
X910588Y961150D01*
X910689Y960945D01*
X910777Y960733D01*
X910802Y960659D01*
X910993Y959540D01*
X910999Y959500D01*
X910999Y959500D01*
X911000Y959499D01*
Y955000D01*
X911002Y954902D01*
X911017Y954706D01*
X911048Y954512D01*
X911094Y954321D01*
X911154Y954135D01*
X911230Y953953D01*
X911319Y953778D01*
X911421Y953611D01*
X911537Y953452D01*
X911664Y953303D01*
X911803Y953164D01*
X911952Y953037D01*
X912111Y952921D01*
X912278Y952819D01*
X912453Y952730D01*
X912635Y952654D01*
X912821Y952594D01*
X913012Y952548D01*
X913206Y952517D01*
X913402Y952502D01*
X913500Y952500D01*
X966500D01*
X966598Y952502D01*
X966794Y952517D01*
X966988Y952548D01*
X967179Y952594D01*
X967365Y952654D01*
X967547Y952730D01*
X967721Y952819D01*
X967889Y952921D01*
X968048Y953037D01*
X968197Y953164D01*
X968336Y953303D01*
X968463Y953452D01*
X968579Y953611D01*
X968681Y953778D01*
X968770Y953953D01*
X968845Y954135D01*
X968906Y954321D01*
X968952Y954512D01*
X968983Y954706D01*
X968998Y954902D01*
X969000Y955000D01*
X969000Y955000D01*
Y959500D01*
X969000Y959614D01*
X969015Y959843D01*
X969045Y960070D01*
X969090Y960295D01*
X969149Y960516D01*
X969222Y960733D01*
X969310Y960945D01*
X969411Y961151D01*
X969526Y961349D01*
X969653Y961540D01*
X969793Y961721D01*
X969944Y961894D01*
X970106Y962056D01*
X970278Y962207D01*
X970460Y962346D01*
X970651Y962473D01*
X970849Y962588D01*
X971055Y962689D01*
X971266Y962777D01*
X971483Y962851D01*
X971704Y962910D01*
X971929Y962955D01*
X972156Y962985D01*
X972385Y963000D01*
X972500Y963000D01*
X972500Y963000D01*
X972615Y963000D01*
X972843Y962985D01*
X973070Y962955D01*
X973295Y962910D01*
X973516Y962851D01*
X973734Y962777D01*
X973945Y962690D01*
X974151Y962588D01*
X974349Y962474D01*
X974540Y962346D01*
X974722Y962207D01*
X974894Y962056D01*
X975056Y961894D01*
X975207Y961721D01*
X975347Y961540D01*
X975474Y961349D01*
X975588Y961151D01*
X975690Y960945D01*
X975777Y960733D01*
X975803Y960658D01*
X975997Y959517D01*
X976000Y959500D01*
X976000Y959500D01*
X976000Y959500D01*
Y955000D01*
X976002Y954902D01*
X976017Y954706D01*
X976048Y954512D01*
X976094Y954321D01*
X976154Y954135D01*
X976230Y953953D01*
X976319Y953778D01*
X976421Y953611D01*
X976537Y953452D01*
X976664Y953303D01*
X976803Y953164D01*
X976952Y953037D01*
X977111Y952921D01*
X977278Y952819D01*
X977453Y952730D01*
X977635Y952654D01*
X977821Y952594D01*
X978012Y952548D01*
X978206Y952517D01*
X978402Y952502D01*
X978500Y952500D01*
Y952500D01*
X998500D01*
X998598Y952502D01*
X998794Y952517D01*
X998988Y952548D01*
X999179Y952594D01*
X999365Y952654D01*
X999547Y952730D01*
X999722Y952819D01*
X999889Y952921D01*
X1000048Y953037D01*
X1000197Y953164D01*
X1000336Y953303D01*
X1000463Y953452D01*
X1000579Y953611D01*
X1000681Y953778D01*
X1000770Y953953D01*
X1000845Y954135D01*
X1000906Y954321D01*
X1000952Y954512D01*
X1000983Y954706D01*
X1000998Y954902D01*
X1001000Y955000D01*
X1001000D01*
Y960000D01*
X1001000Y960131D01*
X1001017Y960392D01*
X1001051Y960652D01*
X1001102Y960909D01*
X1001170Y961162D01*
X1001254Y961410D01*
X1001355Y961652D01*
X1001470Y961886D01*
X1001601Y962113D01*
X1001747Y962331D01*
X1001906Y962539D01*
X1002079Y962736D01*
X1002264Y962921D01*
X1002461Y963093D01*
X1002669Y963253D01*
X1002886Y963398D01*
X1003113Y963529D01*
X1003348Y963645D01*
X1003590Y963745D01*
X1003838Y963829D01*
X1004091Y963897D01*
X1004348Y963948D01*
X1004607Y963982D01*
X1004869Y964000D01*
X1005000Y964000D01*
X1005000Y964000D01*
X1005131Y964000D01*
X1005392Y963983D01*
D02*
G37*
G36*
X923036Y958075D02*
X922850Y958251D01*
X922656Y958408D01*
X922453Y958547D01*
X922241Y958667D01*
X922021Y958769D01*
X921792Y958852D01*
X921554Y958917D01*
X921307Y958963D01*
X921052Y958991D01*
X920788Y959000D01*
Y961000D01*
X921052Y961009D01*
X921307Y961037D01*
X921554Y961083D01*
X921792Y961148D01*
X922021Y961231D01*
X922241Y961333D01*
X922453Y961453D01*
X922656Y961592D01*
X922850Y961749D01*
X923036Y961925D01*
Y958075D01*
D02*
G37*
G36*
X779757Y948717D02*
X779783Y948468D01*
X779829Y948227D01*
X779893Y947992D01*
X779977Y947764D01*
X780080Y947543D01*
X780203Y947329D01*
X780344Y947122D01*
X780505Y946922D01*
X780685Y946729D01*
X779271Y945315D01*
X779078Y945495D01*
X778878Y945656D01*
X778671Y945797D01*
X778457Y945920D01*
X778236Y946023D01*
X778008Y946107D01*
X777773Y946171D01*
X777532Y946217D01*
X777283Y946243D01*
X777028Y946250D01*
X779750Y948972D01*
X779757Y948717D01*
D02*
G37*
G36*
X842150Y931749D02*
X842344Y931592D01*
X842547Y931453D01*
X842759Y931333D01*
X842979Y931231D01*
X843208Y931148D01*
X843446Y931083D01*
X843693Y931037D01*
X843948Y931009D01*
X844212Y931000D01*
Y929000D01*
X843948Y928991D01*
X843693Y928963D01*
X843446Y928917D01*
X843208Y928852D01*
X842979Y928769D01*
X842759Y928667D01*
X842547Y928547D01*
X842344Y928408D01*
X842150Y928251D01*
X841964Y928075D01*
Y931925D01*
X842150Y931749D01*
D02*
G37*
G36*
X698623Y913109D02*
X698325Y912797D01*
X698071Y912501D01*
X697859Y912219D01*
X697690Y911953D01*
X697565Y911702D01*
X697483Y911467D01*
X697443Y911246D01*
X697447Y911040D01*
X697494Y910850D01*
X697583Y910675D01*
X695333Y914057D01*
X695456Y913912D01*
X695599Y913816D01*
X695763Y913768D01*
X695948Y913770D01*
X696153Y913820D01*
X696378Y913918D01*
X696624Y914065D01*
X696891Y914261D01*
X697178Y914506D01*
X697486Y914800D01*
X698623Y913109D01*
D02*
G37*
G36*
X833685Y911271D02*
X833505Y911078D01*
X833344Y910878D01*
X833203Y910671D01*
X833080Y910457D01*
X832977Y910236D01*
X832893Y910008D01*
X832829Y909773D01*
X832783Y909532D01*
X832757Y909283D01*
X832750Y909027D01*
X830027Y911750D01*
X830283Y911757D01*
X830532Y911783D01*
X830773Y911829D01*
X831008Y911893D01*
X831236Y911977D01*
X831457Y912080D01*
X831671Y912203D01*
X831878Y912344D01*
X832078Y912505D01*
X832271Y912685D01*
X833685Y911271D01*
D02*
G37*
G36*
X822150Y900749D02*
X822344Y900592D01*
X822547Y900453D01*
X822759Y900333D01*
X822979Y900231D01*
X823208Y900148D01*
X823446Y900083D01*
X823693Y900037D01*
X823948Y900009D01*
X824212Y900000D01*
Y898000D01*
X823948Y897991D01*
X823693Y897963D01*
X823446Y897917D01*
X823208Y897852D01*
X822979Y897769D01*
X822759Y897667D01*
X822547Y897547D01*
X822344Y897408D01*
X822150Y897251D01*
X821964Y897075D01*
Y900925D01*
X822150Y900749D01*
D02*
G37*
G36*
X762000Y959500D02*
X769000Y959500D01*
X769000Y959500D01*
X769000Y959500D01*
X769000D01*
X769011Y959498D01*
X770173Y959301D01*
X770235Y959280D01*
X770447Y959193D01*
X770653Y959092D01*
X770852Y958977D01*
X771043Y958850D01*
X771225Y958711D01*
X771397Y958559D01*
X771559Y958397D01*
X771711Y958225D01*
X771850Y958043D01*
X771977Y957852D01*
X772092Y957653D01*
X772193Y957447D01*
X772280Y957235D01*
X772354Y957018D01*
X772413Y956796D01*
X772457Y956571D01*
X772486Y956344D01*
X772500Y956115D01*
X772500Y956000D01*
Y955885D01*
X772485Y955657D01*
X772455Y955430D01*
X772410Y955205D01*
X772351Y954983D01*
X772277Y954766D01*
X772190Y954555D01*
X772088Y954349D01*
X771974Y954151D01*
X771846Y953960D01*
X771707Y953778D01*
X771556Y953606D01*
X771394Y953444D01*
X771222Y953293D01*
X771040Y953154D01*
X770849Y953026D01*
X770651Y952912D01*
X770445Y952810D01*
X770234Y952723D01*
X770016Y952649D01*
X769795Y952590D01*
X769570Y952545D01*
X769343Y952515D01*
X769115Y952500D01*
X764000D01*
X764000Y952500D01*
X763816Y952497D01*
X763448Y952479D01*
X763082Y952443D01*
X762718Y952389D01*
X762356Y952318D01*
X761999Y952228D01*
X761647Y952121D01*
X761301Y951997D01*
X760960Y951856D01*
X760628Y951699D01*
X760303Y951525D01*
X759987Y951336D01*
X759681Y951132D01*
X759386Y950912D01*
X759101Y950679D01*
X758828Y950432D01*
X758568Y950171D01*
X758321Y949899D01*
X758087Y949614D01*
X757868Y949318D01*
X757663Y949012D01*
X757474Y948697D01*
X757301Y948372D01*
X757143Y948039D01*
X757002Y947699D01*
X756879Y947353D01*
X756772Y947000D01*
X756682Y946643D01*
X756610Y946282D01*
X756556Y945918D01*
X756520Y945552D01*
X756502Y945184D01*
X756500Y945000D01*
X756500Y897006D01*
X756502Y896858D01*
X756517Y896563D01*
X756547Y896268D01*
X756591Y895976D01*
X756651Y895686D01*
X756725Y895399D01*
X756813Y895117D01*
X756916Y894839D01*
X757032Y894567D01*
X757162Y894301D01*
X757305Y894042D01*
X757462Y893791D01*
X757630Y893548D01*
X757811Y893313D01*
X758003Y893088D01*
X758207Y892873D01*
X758312Y892770D01*
X765691Y885726D01*
X765691Y885726D01*
X765800Y885625D01*
X766023Y885431D01*
X766025Y885430D01*
X766257Y885246D01*
X766258Y885246D01*
X766500Y885074D01*
X766500Y885073D01*
X766614Y885000D01*
X766750Y884913D01*
X767007Y884764D01*
X767271Y884628D01*
X767542Y884504D01*
X767818Y884393D01*
X768099Y884296D01*
X768384Y884212D01*
X768672Y884142D01*
X768964Y884086D01*
X769259Y884044D01*
X769554Y884016D01*
X769851Y884002D01*
X770000Y884000D01*
X778000D01*
X778154Y884002D01*
X778462Y884019D01*
X778769Y884053D01*
X779073Y884105D01*
X779374Y884173D01*
X779671Y884258D01*
X779962Y884360D01*
X780247Y884478D01*
X780526Y884611D01*
X780796Y884761D01*
X781057Y884925D01*
X781309Y885103D01*
X781550Y885296D01*
X781780Y885501D01*
X781999Y885719D01*
X782204Y885949D01*
X782397Y886191D01*
X782575Y886443D01*
X782739Y886704D01*
X782888Y886974D01*
X783022Y887252D01*
X783140Y887538D01*
X783242Y887829D01*
X783327Y888126D01*
X783395Y888426D01*
X783447Y888731D01*
X783481Y889037D01*
X783498Y889346D01*
X783500Y889500D01*
X783500Y900005D01*
X783500Y900145D01*
X783517Y900406D01*
X783551Y900666D01*
X783602Y900922D01*
X783670Y901175D01*
X783754Y901423D01*
X783854Y901664D01*
X783970Y901899D01*
X784101Y902125D01*
X784246Y902343D01*
X784406Y902550D01*
X784579Y902747D01*
X784764Y902931D01*
X784961Y903103D01*
X785169Y903262D01*
X785387Y903407D01*
X785614Y903537D01*
X785849Y903652D01*
X786091Y903751D01*
X786259Y903808D01*
X787500Y904000D01*
X787500Y904000D01*
X787632Y903981D01*
X788670Y903829D01*
X788909Y903749D01*
X789151Y903649D01*
X789386Y903534D01*
X789613Y903403D01*
X789831Y903258D01*
X790039Y903099D01*
X790236Y902927D01*
X790421Y902742D01*
X790594Y902545D01*
X790753Y902338D01*
X790899Y902121D01*
X791030Y901894D01*
X791146Y901659D01*
X791246Y901417D01*
X791330Y901170D01*
X791398Y900917D01*
X791449Y900660D01*
X791483Y900401D01*
X791500Y900140D01*
X791500Y900009D01*
X791500Y900000D01*
X791499Y889499D01*
X791499Y889499D01*
Y889256D01*
X791482Y888771D01*
X791447Y888286D01*
X791395Y887803D01*
X791326Y887322D01*
X791240Y886844D01*
X791136Y886369D01*
X791016Y885899D01*
X790879Y885432D01*
X790726Y884971D01*
X790556Y884516D01*
X790370Y884067D01*
X790168Y883625D01*
X789951Y883191D01*
X789718Y882765D01*
X789470Y882347D01*
X789207Y881938D01*
X788930Y881539D01*
X788639Y881150D01*
X788334Y880772D01*
X788016Y880405D01*
X787685Y880049D01*
X787341Y879706D01*
X786986Y879374D01*
X786619Y879056D01*
X786240Y878752D01*
X785851Y878460D01*
X785452Y878183D01*
X785043Y877921D01*
X784626Y877673D01*
X784199Y877440D01*
X783765Y877223D01*
X783323Y877021D01*
X782874Y876835D01*
X782419Y876665D01*
X781958Y876512D01*
X781492Y876375D01*
X781021Y876255D01*
X780546Y876151D01*
X780068Y876065D01*
X779587Y875996D01*
X779104Y875944D01*
X778620Y875909D01*
X778134Y875892D01*
X777891Y875892D01*
X772392D01*
X772392Y875892D01*
X772254Y875890D01*
X771981Y875874D01*
X771708Y875844D01*
X771437Y875798D01*
X771170Y875737D01*
X770906Y875661D01*
X770647Y875570D01*
X770394Y875465D01*
X770146Y875346D01*
X769906Y875213D01*
X769674Y875067D01*
X769450Y874909D01*
X769236Y874737D01*
X769031Y874555D01*
X768837Y874361D01*
X768654Y874156D01*
X768483Y873941D01*
X768324Y873718D01*
X768178Y873485D01*
X768046Y873245D01*
X767926Y872998D01*
X767822Y872744D01*
X767731Y872485D01*
X767655Y872222D01*
X767594Y871954D01*
X767548Y871684D01*
X767517Y871411D01*
X767502Y871137D01*
X767500Y871000D01*
X767500Y827499D01*
X767502Y827358D01*
X767518Y827078D01*
X767549Y826800D01*
X767596Y826523D01*
X767658Y826250D01*
X767736Y825980D01*
X767829Y825716D01*
X767936Y825456D01*
X768057Y825204D01*
X768193Y824958D01*
X768342Y824721D01*
X768505Y824492D01*
X768680Y824273D01*
X768866Y824064D01*
X769065Y823866D01*
X769274Y823679D01*
X769493Y823504D01*
X769722Y823342D01*
X769959Y823193D01*
X770205Y823057D01*
X770458Y822935D01*
X770717Y822828D01*
X770982Y822736D01*
X771251Y822658D01*
X771525Y822596D01*
X771801Y822549D01*
X772080Y822517D01*
X772360Y822502D01*
X772500Y822500D01*
X845000D01*
X845000Y822500D01*
X845000Y822500D01*
X845217Y822502D01*
X845648Y822515D01*
X845651Y822516D01*
X846084Y822544D01*
X846085Y822544D01*
X846217Y822557D01*
X846517Y822586D01*
X846948Y822643D01*
X847377Y822713D01*
X847803Y822798D01*
X848227Y822897D01*
X848646Y823009D01*
X849062Y823135D01*
X849474Y823275D01*
X849880Y823428D01*
X850282Y823594D01*
X850678Y823773D01*
X851067Y823966D01*
X851451Y824171D01*
X851827Y824388D01*
X852196Y824617D01*
X852557Y824859D01*
X852910Y825112D01*
X853255Y825377D01*
X853591Y825653D01*
X853917Y825939D01*
X854234Y826237D01*
X854389Y826389D01*
X859379Y831379D01*
X859379D01*
X859379Y831379D01*
X859383Y831383D01*
X859503Y831506D01*
X859740Y831767D01*
X859742Y831768D01*
X859967Y832042D01*
X859967Y832043D01*
X860179Y832328D01*
X860377Y832623D01*
X860560Y832927D01*
X860728Y833241D01*
X860880Y833562D01*
X861016Y833890D01*
X861135Y834224D01*
X861239Y834564D01*
X861325Y834909D01*
X861394Y835257D01*
X861446Y835609D01*
X861481Y835962D01*
X861498Y836317D01*
X861500Y836495D01*
X861500Y841730D01*
X861500Y843000D01*
X861635Y844214D01*
X861672Y844374D01*
X861757Y844671D01*
X861859Y844962D01*
X861977Y845248D01*
X862111Y845526D01*
X862260Y845796D01*
X862424Y846058D01*
X862603Y846309D01*
X862795Y846551D01*
X863001Y846781D01*
X863219Y846999D01*
X863449Y847205D01*
X863691Y847397D01*
X863942Y847576D01*
X864204Y847740D01*
X864474Y847889D01*
X864752Y848023D01*
X865037Y848141D01*
X865329Y848243D01*
X865625Y848328D01*
X865767Y848361D01*
X867000Y848500D01*
X867000Y848500D01*
X867021Y848498D01*
X868174Y848374D01*
X868374Y848328D01*
X868671Y848243D01*
X868962Y848141D01*
X869248Y848023D01*
X869526Y847889D01*
X869796Y847740D01*
X870057Y847575D01*
X870309Y847397D01*
X870550Y847204D01*
X870780Y846999D01*
X870999Y846780D01*
X871204Y846550D01*
X871397Y846309D01*
X871575Y846057D01*
X871740Y845796D01*
X871889Y845526D01*
X872023Y845248D01*
X872141Y844962D01*
X872243Y844671D01*
X872328Y844374D01*
X872397Y844073D01*
X872448Y843769D01*
X872483Y843463D01*
X872500Y843154D01*
X872500Y843000D01*
X872500Y830000D01*
X872500Y830000D01*
X872500Y829704D01*
X872480Y829111D01*
X872442Y828520D01*
X872384Y827930D01*
X872307Y827343D01*
X872210Y826758D01*
X872095Y826177D01*
X871960Y825600D01*
X871807Y825027D01*
X871635Y824460D01*
X871444Y823899D01*
X871236Y823344D01*
X871009Y822797D01*
X870764Y822257D01*
X870502Y821725D01*
X870223Y821203D01*
X869927Y820690D01*
X869614Y820186D01*
X869284Y819694D01*
X868939Y819212D01*
X868578Y818742D01*
X868202Y818284D01*
X867811Y817839D01*
X867406Y817406D01*
X867197Y817197D01*
X842535Y792535D01*
X842535Y792535D01*
X842368Y792368D01*
X842020Y792046D01*
X841659Y791738D01*
X841287Y791445D01*
X840903Y791166D01*
X840509Y790902D01*
X840105Y790655D01*
X839691Y790423D01*
X839269Y790208D01*
X838838Y790009D01*
X838400Y789828D01*
X837955Y789664D01*
X837505Y789517D01*
X837048Y789389D01*
X836587Y789278D01*
X836122Y789186D01*
X835654Y789111D01*
X835183Y789056D01*
X834711Y789019D01*
X834237Y789000D01*
X834000Y789000D01*
X773517Y789000D01*
X773517Y789000D01*
X773117Y788997D01*
X772316Y788978D01*
X771516Y788938D01*
X770717Y788879D01*
X769920Y788801D01*
X769125Y788703D01*
X768333Y788586D01*
X767544Y788449D01*
X766758Y788293D01*
X765977Y788117D01*
X765200Y787923D01*
X764428Y787709D01*
X763661Y787477D01*
X762901Y787225D01*
X762147Y786955D01*
X761400Y786667D01*
X760660Y786361D01*
X759927Y786036D01*
X759203Y785694D01*
X758488Y785334D01*
X757782Y784956D01*
X757085Y784561D01*
X756398Y784149D01*
X755721Y783721D01*
X755055Y783276D01*
X754400Y782815D01*
X753757Y782338D01*
X753126Y781845D01*
X752507Y781337D01*
X751900Y780814D01*
X751307Y780276D01*
X750727Y779723D01*
X750442Y779442D01*
X713121Y742121D01*
X713121Y742121D01*
X712997Y741994D01*
X712758Y741730D01*
X712533Y741456D01*
X712321Y741170D01*
X712124Y740875D01*
X711941Y740570D01*
X711773Y740256D01*
X711621Y739935D01*
X711485Y739606D01*
X711366Y739272D01*
X711262Y738932D01*
X711176Y738587D01*
X711107Y738238D01*
X711054Y737887D01*
X711020Y737533D01*
X711002Y737178D01*
X711000Y737000D01*
X711000Y654000D01*
X711002Y653763D01*
X711021Y653289D01*
X711058Y652817D01*
X711114Y652346D01*
X711188Y651878D01*
X711281Y651413D01*
X711391Y650952D01*
X711520Y650496D01*
X711666Y650045D01*
X711831Y649600D01*
X712012Y649162D01*
X712210Y648732D01*
X712426Y648309D01*
X712657Y647896D01*
X712905Y647492D01*
X713168Y647098D01*
X713447Y646714D01*
X713740Y646342D01*
X714048Y645982D01*
X714370Y645633D01*
X714536Y645464D01*
X748379Y611621D01*
X748379Y611621D01*
X748380Y611620D01*
X748506Y611497D01*
X748769Y611258D01*
X749042Y611034D01*
X749044Y611033D01*
X749330Y610821D01*
X749625Y610624D01*
X749930Y610441D01*
X750244Y610273D01*
X750565Y610121D01*
X750893Y609985D01*
X751228Y609865D01*
X751568Y609762D01*
X751913Y609676D01*
X752262Y609607D01*
X752613Y609554D01*
X752967Y609520D01*
X753322Y609502D01*
X753500Y609500D01*
X793500D01*
X793500Y609500D01*
X793500Y609500D01*
X793515Y609498D01*
X794672Y609346D01*
X794807Y609309D01*
X795086Y609215D01*
X795359Y609102D01*
X795623Y608972D01*
X795878Y608825D01*
X796123Y608661D01*
X796357Y608481D01*
X796579Y608287D01*
X796787Y608079D01*
X796982Y607857D01*
X797161Y607623D01*
X797325Y607378D01*
X797472Y607123D01*
X797602Y606859D01*
X797715Y606586D01*
X797809Y606307D01*
X797886Y606023D01*
X797943Y605734D01*
X797981Y605441D01*
X798000Y605147D01*
X798000Y605000D01*
X798000Y580000D01*
X798002Y579822D01*
X798020Y579467D01*
X798055Y579113D01*
X798107Y578762D01*
X798176Y578413D01*
X798262Y578068D01*
X798366Y577728D01*
X798485Y577393D01*
X798622Y577065D01*
X798773Y576744D01*
X798941Y576430D01*
X799124Y576125D01*
X799321Y575830D01*
X799533Y575544D01*
X799759Y575269D01*
X799997Y575006D01*
X800121Y574879D01*
X802797Y572203D01*
X803661Y571339D01*
X803924Y571078D01*
X804455Y570573D01*
X804461Y570568D01*
X804530Y570505D01*
X804531Y570504D01*
X804538Y570498D01*
X805010Y570070D01*
X805570Y569586D01*
X806143Y569117D01*
X806727Y568661D01*
X807322Y568219D01*
X807927Y567793D01*
X808543Y567381D01*
X809169Y566985D01*
X809804Y566604D01*
X810449Y566239D01*
X811102Y565890D01*
X811763Y565557D01*
X812433Y565240D01*
X813110Y564940D01*
X813794Y564657D01*
X814485Y564390D01*
X815183Y564141D01*
X815886Y563908D01*
X816595Y563694D01*
X817309Y563496D01*
X818027Y563316D01*
X818750Y563154D01*
X819476Y563009D01*
X820206Y562883D01*
X820938Y562774D01*
X821674Y562683D01*
X822411Y562611D01*
X823149Y562557D01*
X823889Y562520D01*
X824630Y562502D01*
X825000Y562500D01*
X850000D01*
X850370Y562502D01*
X851111Y562520D01*
X851850Y562556D01*
X852589Y562611D01*
X853326Y562683D01*
X854061Y562773D01*
X854794Y562882D01*
X855524Y563008D01*
X856250Y563153D01*
X856973Y563315D01*
X857692Y563495D01*
X858406Y563692D01*
X859114Y563907D01*
X859818Y564140D01*
X860515Y564389D01*
X861206Y564656D01*
X861890Y564939D01*
X862568Y565239D01*
X863237Y565556D01*
X863899Y565889D01*
X864552Y566238D01*
X865196Y566603D01*
X865832Y566984D01*
X866457Y567381D01*
X867073Y567792D01*
X867679Y568219D01*
X868273Y568660D01*
X868857Y569116D01*
X869430Y569586D01*
X869990Y570070D01*
X870539Y570568D01*
X871075Y571078D01*
X871339Y571339D01*
X884296Y584296D01*
X885191Y585168D01*
X885206Y585184D01*
X885350Y585315D01*
X886172Y586058D01*
X886419Y586275D01*
X887024Y586783D01*
X887640Y587278D01*
X888267Y587759D01*
X888904Y588226D01*
X889551Y588680D01*
X890208Y589119D01*
X890874Y589544D01*
X891550Y589954D01*
X892234Y590349D01*
X892926Y590729D01*
X893627Y591094D01*
X894336Y591444D01*
X895052Y591778D01*
X895775Y592096D01*
X896505Y592398D01*
X897242Y592685D01*
X897984Y592955D01*
X898732Y593209D01*
X899486Y593446D01*
X900245Y593667D01*
X901008Y593872D01*
X901775Y594059D01*
X902547Y594230D01*
X903322Y594384D01*
X904100Y594521D01*
X904881Y594641D01*
X905664Y594744D01*
X906450Y594829D01*
X907237Y594898D01*
X908026Y594949D01*
X908815Y594983D01*
X909605Y595000D01*
X910000Y595000D01*
X950803Y595000D01*
X952000Y595000D01*
X952001Y595000D01*
X952196Y595002D01*
X952585Y595021D01*
X952589Y595021D01*
X952978Y595059D01*
X952980Y595059D01*
X953368Y595116D01*
X953754Y595193D01*
X954135Y595288D01*
X954510Y595402D01*
X954880Y595534D01*
X955243Y595684D01*
X955599Y595852D01*
X955945Y596036D01*
X956282Y596238D01*
X956609Y596456D01*
X956924Y596690D01*
X957228Y596940D01*
X957519Y597203D01*
X957797Y597481D01*
X958060Y597772D01*
X958309Y598076D01*
X958543Y598391D01*
X958762Y598718D01*
X958963Y599055D01*
X959148Y599401D01*
X959316Y599757D01*
X959466Y600119D01*
X959598Y600489D01*
X959712Y600865D01*
X959807Y601246D01*
X959884Y601632D01*
X959941Y602020D01*
X959979Y602411D01*
X959998Y602803D01*
X960000Y603000D01*
X960000Y649226D01*
X960000Y649226D01*
X960055Y650473D01*
X960089Y650820D01*
X960149Y651273D01*
X960223Y651723D01*
X960312Y652171D01*
X960416Y652616D01*
X960534Y653057D01*
X960667Y653494D01*
X960814Y653926D01*
X960974Y654353D01*
X961149Y654775D01*
X961338Y655191D01*
X961540Y655600D01*
X961755Y656003D01*
X961984Y656398D01*
X962225Y656786D01*
X962479Y657165D01*
X962745Y657536D01*
X963023Y657898D01*
X963313Y658251D01*
X963614Y658594D01*
X963927Y658927D01*
X964088Y659088D01*
X996171Y691171D01*
X996172Y691171D01*
X996172Y691172D01*
X996173Y691173D01*
X996304Y691307D01*
X996561Y691583D01*
X996562Y691584D01*
X996809Y691872D01*
X996809Y691872D01*
X997045Y692170D01*
X997268Y692477D01*
X997479Y692792D01*
X997678Y693115D01*
X997863Y693446D01*
X998036Y693784D01*
X998194Y694128D01*
X998340Y694479D01*
X998471Y694835D01*
X998588Y695195D01*
X998691Y695561D01*
X998779Y695929D01*
X998852Y696301D01*
X998911Y696676D01*
X998955Y697053D01*
X998984Y697431D01*
X998998Y697810D01*
X999000Y698000D01*
X999000Y835508D01*
X999000Y835508D01*
X999205Y836693D01*
X999222Y836741D01*
X999309Y836952D01*
X999411Y837158D01*
X999525Y837356D01*
X999653Y837546D01*
X999792Y837728D01*
X999943Y837900D01*
X1000106Y838062D01*
X1000278Y838213D01*
X1000460Y838352D01*
X1000651Y838479D01*
X1000849Y838593D01*
X1001055Y838694D01*
X1001266Y838781D01*
X1001484Y838854D01*
X1001705Y838913D01*
X1001930Y838957D01*
X1002157Y838986D01*
X1002385Y839000D01*
X1002500Y839000D01*
X1002615D01*
X1002843Y838985D01*
X1003070Y838955D01*
X1003295Y838910D01*
X1003516Y838851D01*
X1003734Y838777D01*
X1003945Y838690D01*
X1004151Y838588D01*
X1004349Y838474D01*
X1004540Y838346D01*
X1004722Y838207D01*
X1004894Y838056D01*
X1005056Y837894D01*
X1005207Y837722D01*
X1005347Y837540D01*
X1005474Y837349D01*
X1005588Y837151D01*
X1005690Y836945D01*
X1005777Y836733D01*
X1005851Y836516D01*
X1005910Y836295D01*
X1005955Y836070D01*
X1005985Y835843D01*
X1006000Y835615D01*
X1006000Y799000D01*
X1006002Y798803D01*
X1006019Y798411D01*
X1006053Y798020D01*
X1006104Y797630D01*
X1006172Y797243D01*
X1006257Y796860D01*
X1006358Y796481D01*
X1006476Y796106D01*
X1006610Y795737D01*
X1006760Y795374D01*
X1006926Y795018D01*
X1007108Y794670D01*
X1007304Y794330D01*
X1007515Y793998D01*
X1007740Y793677D01*
X1007979Y793365D01*
X1008232Y793064D01*
X1008497Y792775D01*
X1008775Y792497D01*
X1009064Y792231D01*
X1009365Y791979D01*
X1009677Y791740D01*
X1009998Y791515D01*
X1010330Y791304D01*
X1010670Y791107D01*
X1011018Y790926D01*
X1011374Y790760D01*
X1011737Y790610D01*
X1012106Y790476D01*
X1012481Y790358D01*
X1012860Y790257D01*
X1013244Y790172D01*
X1013631Y790104D01*
X1014020Y790053D01*
X1014411Y790019D01*
X1014804Y790002D01*
X1015000Y790000D01*
X1049000Y790000D01*
X1049237Y790002D01*
X1049708Y790020D01*
X1049710Y790020D01*
X1050182Y790057D01*
X1050183Y790057D01*
X1050243Y790064D01*
X1050654Y790112D01*
X1051122Y790186D01*
X1051587Y790278D01*
X1052048Y790389D01*
X1052505Y790518D01*
X1052955Y790664D01*
X1053400Y790828D01*
X1053838Y791009D01*
X1054269Y791208D01*
X1054691Y791423D01*
X1055105Y791655D01*
X1055509Y791903D01*
X1055903Y792166D01*
X1056286Y792445D01*
X1056658Y792739D01*
X1057019Y793047D01*
X1057366Y793369D01*
X1057535Y793536D01*
X1066636Y802636D01*
X1066636Y802636D01*
Y802636D01*
X1066647Y802646D01*
X1067549Y803499D01*
X1067748Y803677D01*
X1068214Y804071D01*
X1068690Y804451D01*
X1069177Y804818D01*
X1069674Y805171D01*
X1070180Y805510D01*
X1070696Y805835D01*
X1071221Y806145D01*
X1071755Y806440D01*
X1072296Y806720D01*
X1072845Y806984D01*
X1073402Y807233D01*
X1073965Y807466D01*
X1074535Y807684D01*
X1075110Y807885D01*
X1075691Y808070D01*
X1076277Y808239D01*
X1076867Y808391D01*
X1077461Y808526D01*
X1078059Y808645D01*
X1078660Y808746D01*
X1079264Y808831D01*
X1079870Y808899D01*
X1080477Y808950D01*
X1081086Y808984D01*
X1081695Y809000D01*
X1082000Y809000D01*
X1117999Y809000D01*
X1118000Y809000D01*
X1118000Y809000D01*
X1118080Y808988D01*
X1119184Y808823D01*
X1119410Y808747D01*
X1119652Y808647D01*
X1119887Y808531D01*
X1120115Y808400D01*
X1120332Y808255D01*
X1120540Y808095D01*
X1120737Y807923D01*
X1120923Y807737D01*
X1121095Y807541D01*
X1121255Y807333D01*
X1121400Y807115D01*
X1121531Y806888D01*
X1121647Y806653D01*
X1121747Y806411D01*
X1121831Y806162D01*
X1121899Y805909D01*
X1121949Y805652D01*
X1121983Y805392D01*
X1122000Y805131D01*
X1122000Y805000D01*
X1122000Y805000D01*
Y804869D01*
X1121983Y804607D01*
X1121948Y804348D01*
X1121897Y804091D01*
X1121830Y803838D01*
X1121745Y803590D01*
X1121645Y803348D01*
X1121529Y803113D01*
X1121398Y802886D01*
X1121253Y802669D01*
X1121094Y802461D01*
X1120921Y802264D01*
X1120736Y802079D01*
X1120539Y801906D01*
X1120331Y801747D01*
X1120113Y801601D01*
X1119886Y801470D01*
X1119652Y801355D01*
X1119410Y801254D01*
X1119162Y801170D01*
X1118909Y801102D01*
X1118652Y801051D01*
X1118392Y801017D01*
X1118131Y801000D01*
X1082000D01*
X1082000Y801000D01*
X1081783Y800998D01*
X1081348Y800984D01*
X1080915Y800956D01*
X1080482Y800914D01*
X1080051Y800857D01*
X1079623Y800786D01*
X1079196Y800702D01*
X1078773Y800603D01*
X1078353Y800491D01*
X1077937Y800365D01*
X1077526Y800225D01*
X1077119Y800072D01*
X1076718Y799906D01*
X1076322Y799726D01*
X1075932Y799534D01*
X1075549Y799329D01*
X1075173Y799112D01*
X1074804Y798883D01*
X1074443Y798641D01*
X1074090Y798388D01*
X1073745Y798123D01*
X1073409Y797847D01*
X1073083Y797561D01*
X1072766Y797263D01*
X1072611Y797111D01*
X1063510Y788010D01*
X1063510Y788010D01*
X1063307Y787807D01*
X1062888Y787411D01*
X1062459Y787028D01*
X1062019Y786656D01*
X1061569Y786297D01*
X1061109Y785951D01*
X1060640Y785618D01*
X1060161Y785298D01*
X1059674Y784992D01*
X1059178Y784699D01*
X1058674Y784421D01*
X1058163Y784157D01*
X1057644Y783907D01*
X1057119Y783672D01*
X1056587Y783452D01*
X1056049Y783246D01*
X1055506Y783056D01*
X1054958Y782881D01*
X1054404Y782722D01*
X1053847Y782578D01*
X1053286Y782450D01*
X1052721Y782338D01*
X1052154Y782242D01*
X1051584Y782161D01*
X1051012Y782097D01*
X1050438Y782048D01*
X1049863Y782016D01*
X1049288Y782000D01*
X1049000Y782000D01*
X1015000D01*
X1015000Y782000D01*
X1014803Y781998D01*
X1014411Y781981D01*
X1014020Y781946D01*
X1013631Y781895D01*
X1013244Y781827D01*
X1012860Y781742D01*
X1012481Y781641D01*
X1012107Y781523D01*
X1011738Y781388D01*
X1011375Y781238D01*
X1011019Y781072D01*
X1010670Y780891D01*
X1010330Y780695D01*
X1009999Y780484D01*
X1009678Y780258D01*
X1009366Y780019D01*
X1009065Y779767D01*
X1008776Y779502D01*
X1008498Y779224D01*
X1008233Y778934D01*
X1007980Y778634D01*
X1007741Y778322D01*
X1007516Y778000D01*
X1007305Y777669D01*
X1007109Y777329D01*
X1006927Y776981D01*
X1006762Y776625D01*
X1006611Y776262D01*
X1006477Y775893D01*
X1006359Y775519D01*
X1006257Y775139D01*
X1006173Y774756D01*
X1006104Y774369D01*
X1006053Y773980D01*
X1006019Y773589D01*
X1006002Y773196D01*
X1006000Y773000D01*
Y696000D01*
X1006000Y696000D01*
X1006000Y695723D01*
X1005982Y695171D01*
X1005946Y694619D01*
X1005892Y694068D01*
X1005820Y693520D01*
X1005730Y692974D01*
X1005622Y692431D01*
X1005497Y691893D01*
X1005354Y691358D01*
X1005193Y690829D01*
X1005016Y690305D01*
X1004821Y689788D01*
X1004609Y689277D01*
X1004381Y688773D01*
X1004136Y688277D01*
X1003875Y687789D01*
X1003599Y687310D01*
X1003307Y686840D01*
X1002999Y686381D01*
X1002677Y685931D01*
X1002340Y685492D01*
X1001989Y685065D01*
X1001624Y684649D01*
X1001246Y684246D01*
X1001050Y684050D01*
X973536Y656535D01*
X973535Y656535D01*
X973370Y656366D01*
X973048Y656018D01*
X972740Y655658D01*
X972446Y655285D01*
X972168Y654902D01*
X971904Y654508D01*
X971657Y654104D01*
X971425Y653690D01*
X971210Y653268D01*
X971011Y652837D01*
X970830Y652400D01*
X970666Y651955D01*
X970519Y651504D01*
X970391Y651048D01*
X970280Y650587D01*
X970188Y650122D01*
X970114Y649654D01*
X970058Y649183D01*
X970021Y648710D01*
X970002Y648237D01*
X970000Y648000D01*
Y603000D01*
X970000Y603000D01*
X970000Y602705D01*
X969980Y602116D01*
X969942Y601529D01*
X969884Y600942D01*
X969808Y600358D01*
X969712Y599777D01*
X969597Y599199D01*
X969463Y598625D01*
X969311Y598056D01*
X969140Y597492D01*
X968950Y596935D01*
X968743Y596383D01*
X968517Y595839D01*
X968274Y595302D01*
X968014Y594774D01*
X967736Y594254D01*
X967441Y593744D01*
X967131Y593244D01*
X966803Y592754D01*
X966460Y592275D01*
X966101Y591808D01*
X965728Y591353D01*
X965339Y590910D01*
X964937Y590480D01*
X964520Y590063D01*
X964090Y589660D01*
X963647Y589272D01*
X963192Y588898D01*
X962724Y588540D01*
X962245Y588196D01*
X961756Y587869D01*
X961255Y587558D01*
X960745Y587264D01*
X960226Y586986D01*
X959697Y586725D01*
X959161Y586482D01*
X958616Y586257D01*
X958065Y586049D01*
X957507Y585860D01*
X956943Y585689D01*
X956374Y585537D01*
X955801Y585403D01*
X955223Y585288D01*
X954642Y585192D01*
X954057Y585115D01*
X953471Y585058D01*
X952883Y585019D01*
X952294Y585000D01*
X952000Y585000D01*
X916397D01*
X916397Y585000D01*
X916079Y584998D01*
X915443Y584980D01*
X914807Y584944D01*
X914173Y584891D01*
X913541Y584820D01*
X912911Y584731D01*
X912283Y584625D01*
X911659Y584501D01*
X911039Y584359D01*
X910422Y584201D01*
X909811Y584024D01*
X909205Y583831D01*
X908604Y583621D01*
X908009Y583394D01*
X907421Y583151D01*
X906841Y582891D01*
X906267Y582615D01*
X905702Y582323D01*
X905145Y582015D01*
X904597Y581691D01*
X904058Y581353D01*
X903529Y580999D01*
X903010Y580631D01*
X902502Y580248D01*
X902004Y579851D01*
X901518Y579440D01*
X901044Y579016D01*
X900582Y578579D01*
X900355Y578355D01*
X867121Y545121D01*
X867121Y545121D01*
X866997Y544994D01*
X866758Y544731D01*
X866533Y544456D01*
X866321Y544170D01*
X866123Y543875D01*
X865941Y543570D01*
X865773Y543256D01*
X865621Y542935D01*
X865485Y542607D01*
X865365Y542272D01*
X865262Y541932D01*
X865176Y541587D01*
X865106Y541238D01*
X865054Y540887D01*
X865020Y540533D01*
X865002Y540178D01*
X865000Y540000D01*
X865000Y523500D01*
X865000Y523500D01*
X865000Y523292D01*
X864982Y522878D01*
X864946Y522465D01*
X864892Y522054D01*
X864820Y521646D01*
X864730Y521241D01*
X864623Y520841D01*
X864498Y520445D01*
X864357Y520056D01*
X864198Y519673D01*
X864023Y519297D01*
X863831Y518929D01*
X863624Y518570D01*
X863401Y518220D01*
X863164Y517881D01*
X862911Y517552D01*
X862645Y517234D01*
X862365Y516928D01*
X862071Y516635D01*
X861766Y516355D01*
X861448Y516089D01*
X861119Y515836D01*
X860779Y515598D01*
X860430Y515376D01*
X860071Y515168D01*
X859703Y514977D01*
X859327Y514802D01*
X858944Y514643D01*
X858555Y514501D01*
X858159Y514377D01*
X857759Y514270D01*
X857354Y514180D01*
X856946Y514108D01*
X856535Y514054D01*
X856122Y514018D01*
X855730Y514001D01*
X855279D01*
X854911Y514017D01*
X854520Y514051D01*
X854130Y514102D01*
X853744Y514170D01*
X853360Y514255D01*
X852981Y514356D01*
X852606Y514474D01*
X852237Y514608D01*
X851874Y514758D01*
X851518Y514924D01*
X851170Y515105D01*
X850830Y515301D01*
X850499Y515512D01*
X850177Y515737D01*
X849865Y515976D01*
X849564Y516229D01*
X849275Y516494D01*
X848997Y516772D01*
X848732Y517061D01*
X848479Y517362D01*
X848240Y517673D01*
X848015Y517995D01*
X847804Y518326D01*
X847607Y518666D01*
X847426Y519015D01*
X847260Y519370D01*
X847110Y519733D01*
X846975Y520102D01*
X846857Y520477D01*
X846756Y520856D01*
X846671Y521239D01*
X846602Y521626D01*
X846551Y522015D01*
X846517Y522407D01*
X846500Y522799D01*
X846500Y522995D01*
Y535000D01*
X846500Y535000D01*
X846500Y535000D01*
X846500Y535011D01*
X846497Y535196D01*
X846479Y535586D01*
X846478Y535588D01*
X846440Y535979D01*
X846440Y535979D01*
X846383Y536368D01*
X846306Y536753D01*
X846211Y537134D01*
X846097Y537510D01*
X845965Y537880D01*
X845815Y538242D01*
X845647Y538597D01*
X845462Y538944D01*
X845260Y539281D01*
X845042Y539607D01*
X844808Y539923D01*
X844559Y540226D01*
X844295Y540517D01*
X844017Y540795D01*
X843727Y541059D01*
X843423Y541308D01*
X843108Y541542D01*
X842781Y541760D01*
X842444Y541962D01*
X842098Y542147D01*
X841743Y542315D01*
X841380Y542465D01*
X841010Y542597D01*
X840634Y542711D01*
X840253Y542806D01*
X839868Y542883D01*
X839479Y542940D01*
X839089Y542979D01*
X838696Y542998D01*
X838500Y543000D01*
X822000Y543000D01*
X822000Y543000D01*
X821803Y542997D01*
X821411Y542978D01*
X821020Y542940D01*
X820632Y542882D01*
X820247Y542806D01*
X819866Y542710D01*
X819490Y542597D01*
X819120Y542464D01*
X818757Y542314D01*
X818403Y542146D01*
X818056Y541961D01*
X817719Y541759D01*
X817393Y541541D01*
X817077Y541307D01*
X816774Y541058D01*
X816483Y540794D01*
X816205Y540517D01*
X815942Y540226D01*
X815693Y539922D01*
X815459Y539607D01*
X815240Y539280D01*
X815039Y538943D01*
X814854Y538597D01*
X814686Y538242D01*
X814536Y537879D01*
X814403Y537510D01*
X814289Y537134D01*
X814194Y536753D01*
X814117Y536368D01*
X814060Y535979D01*
X814022Y535588D01*
X814002Y535196D01*
X814000Y535000D01*
Y523000D01*
X814000Y523000D01*
X814000Y522803D01*
X813983Y522411D01*
X813949Y522020D01*
X813897Y521630D01*
X813829Y521243D01*
X813744Y520860D01*
X813643Y520480D01*
X813525Y520106D01*
X813390Y519737D01*
X813240Y519374D01*
X813074Y519018D01*
X812893Y518670D01*
X812696Y518329D01*
X812485Y517998D01*
X812260Y517676D01*
X812021Y517365D01*
X811769Y517064D01*
X811503Y516774D01*
X811226Y516496D01*
X810936Y516231D01*
X810635Y515979D01*
X810323Y515740D01*
X810002Y515514D01*
X809670Y515303D01*
X809330Y515107D01*
X808982Y514925D01*
X808626Y514760D01*
X808263Y514609D01*
X807894Y514475D01*
X807519Y514357D01*
X807140Y514255D01*
X806756Y514170D01*
X806369Y514102D01*
X805980Y514051D01*
X805589Y514017D01*
X805219Y514001D01*
X804771D01*
X804378Y514018D01*
X803965Y514054D01*
X803554Y514108D01*
X803146Y514180D01*
X802741Y514270D01*
X802341Y514377D01*
X801945Y514502D01*
X801556Y514644D01*
X801173Y514802D01*
X800797Y514977D01*
X800429Y515169D01*
X800070Y515376D01*
X799720Y515599D01*
X799381Y515837D01*
X799052Y516089D01*
X798734Y516356D01*
X798429Y516636D01*
X798136Y516929D01*
X797855Y517234D01*
X797589Y517552D01*
X797337Y517881D01*
X797099Y518221D01*
X796876Y518570D01*
X796669Y518929D01*
X796477Y519297D01*
X796302Y519673D01*
X796143Y520056D01*
X796002Y520445D01*
X795877Y520841D01*
X795770Y521241D01*
X795680Y521646D01*
X795608Y522054D01*
X795554Y522465D01*
X795518Y522878D01*
X795500Y523293D01*
X795500Y523500D01*
Y553500D01*
X795500Y553500D01*
X795500Y553500D01*
X795500Y553512D01*
X795499Y553666D01*
X795486Y553995D01*
X795486Y553997D01*
X795461Y554328D01*
X795461Y554328D01*
X795422Y554658D01*
X795422Y554658D01*
X795419Y554677D01*
X795371Y554986D01*
X795306Y555312D01*
X795229Y555634D01*
X795139Y555954D01*
X795037Y556269D01*
X794922Y556581D01*
X794795Y556888D01*
X794656Y557189D01*
X794505Y557485D01*
X794343Y557774D01*
X794169Y558057D01*
X793985Y558333D01*
X793789Y558601D01*
X793583Y558861D01*
X793367Y559113D01*
X793142Y559356D01*
X793025Y559475D01*
X784327Y568170D01*
X784327Y568170D01*
X784193Y568304D01*
X783936Y568582D01*
X783690Y568871D01*
X783455Y569169D01*
X783232Y569475D01*
X783021Y569790D01*
X782823Y570114D01*
X782638Y570444D01*
X782466Y570782D01*
X782307Y571127D01*
X782162Y571477D01*
X782031Y571833D01*
X781914Y572193D01*
X781811Y572558D01*
X781722Y572927D01*
X781648Y573298D01*
X781589Y573673D01*
X781544Y574049D01*
X781515Y574427D01*
X781500Y574806D01*
X781500Y574996D01*
Y590000D01*
X781500Y590000D01*
X781500Y590000D01*
X781500Y590007D01*
X781498Y590098D01*
X781483Y590293D01*
X781483Y590294D01*
X781453Y590488D01*
X781453Y590488D01*
X781407Y590679D01*
X781407Y590679D01*
X781347Y590866D01*
X781347Y590866D01*
X781272Y591048D01*
X781272Y591048D01*
X781183Y591223D01*
X781080Y591390D01*
X780965Y591549D01*
X780837Y591699D01*
X780699Y591838D01*
X780549Y591965D01*
X780390Y592080D01*
X780223Y592183D01*
X780048Y592272D01*
X779866Y592347D01*
X779679Y592407D01*
X779488Y592453D01*
X779294Y592483D01*
X779098Y592498D01*
X779000Y592500D01*
X749704Y592500D01*
X749111Y592519D01*
X748520Y592558D01*
X747930Y592616D01*
X747343Y592694D01*
X746758Y592790D01*
X746177Y592906D01*
X745600Y593041D01*
X745027Y593194D01*
X744460Y593366D01*
X743899Y593556D01*
X743345Y593765D01*
X742797Y593992D01*
X742257Y594236D01*
X741726Y594499D01*
X741203Y594778D01*
X740690Y595074D01*
X740187Y595387D01*
X739694Y595716D01*
X739212Y596061D01*
X738742Y596422D01*
X738284Y596798D01*
X737839Y597189D01*
X737406Y597594D01*
X737197Y597803D01*
X707000Y628000D01*
X707000Y628000D01*
X707000Y628000D01*
X706986Y628013D01*
X706761Y628235D01*
X706277Y628693D01*
X706274Y628696D01*
X706122Y628832D01*
X705774Y629142D01*
X705262Y629575D01*
X704738Y629993D01*
X704202Y630396D01*
X703656Y630784D01*
X703098Y631157D01*
X702531Y631513D01*
X701953Y631854D01*
X701367Y632178D01*
X700771Y632486D01*
X700167Y632777D01*
X699555Y633051D01*
X698936Y633307D01*
X698310Y633546D01*
X697677Y633768D01*
X697038Y633971D01*
X696394Y634157D01*
X695745Y634324D01*
X695091Y634473D01*
X694434Y634604D01*
X693773Y634716D01*
X693109Y634810D01*
X692443Y634885D01*
X691775Y634941D01*
X691106Y634979D01*
X690435Y634998D01*
X690100Y635000D01*
X641000Y635000D01*
X594000D01*
X594000Y635000D01*
X593732Y634997D01*
X593197Y634978D01*
X592663Y634940D01*
X592130Y634883D01*
X591600Y634807D01*
X591073Y634711D01*
X590550Y634598D01*
X590031Y634465D01*
X589518Y634314D01*
X589010Y634145D01*
X588508Y633958D01*
X588013Y633753D01*
X587526Y633531D01*
X587047Y633291D01*
X586577Y633035D01*
X586117Y632761D01*
X585666Y632472D01*
X585227Y632166D01*
X584798Y631846D01*
X584381Y631510D01*
X583976Y631159D01*
X583584Y630794D01*
X583206Y630415D01*
X582841Y630023D01*
X582490Y629619D01*
X582154Y629202D01*
X581833Y628773D01*
X581528Y628333D01*
X581238Y627883D01*
X580965Y627422D01*
X580709Y626953D01*
X580469Y626474D01*
X580247Y625987D01*
X580042Y625492D01*
X579854Y624990D01*
X579685Y624482D01*
X579534Y623968D01*
X579402Y623450D01*
X579288Y622926D01*
X579193Y622399D01*
X579117Y621869D01*
X579060Y621337D01*
X579021Y620803D01*
X579002Y620268D01*
X579000Y620000D01*
X579000Y598000D01*
X579002Y597732D01*
X579021Y597197D01*
X579060Y596663D01*
X579117Y596130D01*
X579193Y595600D01*
X579288Y595073D01*
X579402Y594550D01*
X579534Y594031D01*
X579685Y593517D01*
X579854Y593009D01*
X580042Y592508D01*
X580246Y592013D01*
X580469Y591526D01*
X580709Y591047D01*
X580965Y590577D01*
X581238Y590117D01*
X581528Y589666D01*
X581833Y589226D01*
X582154Y588798D01*
X582490Y588381D01*
X582841Y587976D01*
X583206Y587584D01*
X583584Y587206D01*
X583976Y586841D01*
X584381Y586490D01*
X584798Y586154D01*
X585227Y585833D01*
X585666Y585528D01*
X586117Y585238D01*
X586577Y584965D01*
X587047Y584708D01*
X587526Y584469D01*
X588013Y584246D01*
X588508Y584041D01*
X589010Y583854D01*
X589518Y583685D01*
X590032Y583534D01*
X590550Y583402D01*
X591074Y583288D01*
X591601Y583193D01*
X592131Y583117D01*
X592663Y583060D01*
X593197Y583022D01*
X593732Y583002D01*
X594000Y583000D01*
X599000D01*
X599000Y583000D01*
X599000Y583000D01*
X599040Y582999D01*
X600190Y582968D01*
X600660Y582940D01*
X601322Y582879D01*
X601982Y582799D01*
X602639Y582699D01*
X603292Y582579D01*
X603942Y582440D01*
X604587Y582281D01*
X605228Y582103D01*
X605862Y581905D01*
X606490Y581688D01*
X607112Y581452D01*
X607726Y581198D01*
X608332Y580925D01*
X608929Y580634D01*
X609518Y580326D01*
X610097Y579999D01*
X610666Y579655D01*
X611224Y579294D01*
X611771Y578917D01*
X612306Y578523D01*
X612829Y578113D01*
X613340Y577687D01*
X613837Y577247D01*
X614321Y576791D01*
X614791Y576321D01*
X615247Y575837D01*
X615687Y575340D01*
X616113Y574829D01*
X616523Y574306D01*
X616917Y573771D01*
X617294Y573224D01*
X617655Y572666D01*
X617999Y572097D01*
X618326Y571518D01*
X618634Y570930D01*
X618925Y570332D01*
X619198Y569726D01*
X619453Y569112D01*
X619688Y568491D01*
X619905Y567862D01*
X620103Y567228D01*
X620281Y566588D01*
X620440Y565942D01*
X620580Y565292D01*
X620700Y564639D01*
X620799Y563982D01*
X620880Y563322D01*
X620940Y562660D01*
X620980Y561997D01*
X621000Y561332D01*
X621000Y561000D01*
X621000Y528000D01*
X621000Y528000D01*
X621000Y527677D01*
X620982Y527032D01*
X620946Y526388D01*
X620891Y525745D01*
X620819Y525104D01*
X620729Y524465D01*
X620621Y523829D01*
X620495Y523196D01*
X620351Y522567D01*
X620190Y521943D01*
X620012Y521323D01*
X619816Y520708D01*
X619603Y520099D01*
X619373Y519496D01*
X619126Y518900D01*
X618862Y518311D01*
X618582Y517730D01*
X618286Y517157D01*
X617974Y516592D01*
X617646Y516036D01*
X617303Y515490D01*
X616945Y514954D01*
X616571Y514427D01*
X616183Y513912D01*
X615781Y513408D01*
X615365Y512915D01*
X614935Y512434D01*
X614492Y511965D01*
X614035Y511508D01*
X613567Y511065D01*
X613085Y510635D01*
X612593Y510219D01*
X612088Y509817D01*
X611572Y509429D01*
X611046Y509055D01*
X610510Y508697D01*
X609964Y508354D01*
X609408Y508026D01*
X608843Y507714D01*
X608270Y507418D01*
X607689Y507138D01*
X607100Y506874D01*
X606504Y506627D01*
X605901Y506397D01*
X605292Y506184D01*
X604677Y505988D01*
X604057Y505810D01*
X603433Y505648D01*
X602803Y505505D01*
X602171Y505379D01*
X601535Y505271D01*
X600896Y505181D01*
X600255Y505108D01*
X599612Y505054D01*
X598968Y505018D01*
X598323Y505000D01*
X586869D01*
X586608Y505017D01*
X586348Y505051D01*
X586091Y505102D01*
X585838Y505170D01*
X585590Y505254D01*
X585348Y505355D01*
X585113Y505470D01*
X584887Y505601D01*
X584669Y505747D01*
X584461Y505906D01*
X584264Y506079D01*
X584079Y506264D01*
X583906Y506461D01*
X583747Y506669D01*
X583601Y506887D01*
X583470Y507113D01*
X583355Y507348D01*
X583254Y507590D01*
X583171Y507836D01*
X583000Y509000D01*
X583000Y509000D01*
X583180Y510189D01*
X583254Y510410D01*
X583355Y510652D01*
X583470Y510887D01*
X583601Y511113D01*
X583747Y511331D01*
X583906Y511539D01*
X584079Y511736D01*
X584264Y511921D01*
X584461Y512094D01*
X584669Y512253D01*
X584887Y512399D01*
X585113Y512529D01*
X585348Y512645D01*
X585590Y512746D01*
X585838Y512830D01*
X586091Y512898D01*
X586348Y512949D01*
X586608Y512983D01*
X586869Y513000D01*
X587000Y513000D01*
X599000Y513000D01*
X599000Y513000D01*
Y513000D01*
X599268Y513002D01*
X599800Y513021D01*
X599803Y513022D01*
X600337Y513060D01*
X600869Y513117D01*
X601399Y513193D01*
X601926Y513288D01*
X602449Y513402D01*
X602968Y513534D01*
X603482Y513685D01*
X603990Y513854D01*
X604492Y514041D01*
X604987Y514246D01*
X605474Y514469D01*
X605952Y514709D01*
X606423Y514965D01*
X606883Y515238D01*
X607333Y515528D01*
X607773Y515833D01*
X608202Y516154D01*
X608619Y516490D01*
X609024Y516841D01*
X609416Y517206D01*
X609794Y517584D01*
X610159Y517976D01*
X610510Y518381D01*
X610846Y518798D01*
X611167Y519226D01*
X611472Y519666D01*
X611762Y520117D01*
X612035Y520577D01*
X612291Y521047D01*
X612531Y521526D01*
X612753Y522013D01*
X612958Y522508D01*
X613146Y523010D01*
X613315Y523518D01*
X613465Y524031D01*
X613598Y524550D01*
X613712Y525074D01*
X613807Y525601D01*
X613883Y526131D01*
X613940Y526663D01*
X613979Y527197D01*
X613998Y527732D01*
X614000Y528000D01*
X614000Y561000D01*
X614000Y561000D01*
X614000Y561000D01*
X614000Y561015D01*
X613997Y561268D01*
X613978Y561800D01*
X613978Y561803D01*
X613940Y562337D01*
X613883Y562869D01*
X613807Y563399D01*
X613712Y563926D01*
X613598Y564449D01*
X613465Y564968D01*
X613315Y565482D01*
X613145Y565990D01*
X612958Y566492D01*
X612753Y566987D01*
X612531Y567474D01*
X612291Y567952D01*
X612035Y568422D01*
X611762Y568883D01*
X611472Y569333D01*
X611167Y569773D01*
X610846Y570202D01*
X610510Y570619D01*
X610159Y571024D01*
X609794Y571415D01*
X609416Y571794D01*
X609024Y572159D01*
X608619Y572510D01*
X608202Y572846D01*
X607773Y573167D01*
X607333Y573472D01*
X606883Y573761D01*
X606423Y574035D01*
X605953Y574291D01*
X605474Y574531D01*
X604987Y574753D01*
X604492Y574958D01*
X603990Y575145D01*
X603482Y575315D01*
X602968Y575466D01*
X602450Y575598D01*
X601926Y575712D01*
X601399Y575807D01*
X600869Y575883D01*
X600337Y575940D01*
X599803Y575979D01*
X599268Y575998D01*
X599000Y576000D01*
X594000Y576000D01*
X593667Y576000D01*
X593003Y576020D01*
X592340Y576060D01*
X591678Y576120D01*
X591018Y576200D01*
X590361Y576300D01*
X589707Y576420D01*
X589057Y576560D01*
X588412Y576719D01*
X587772Y576897D01*
X587137Y577095D01*
X586509Y577312D01*
X585888Y577547D01*
X585274Y577802D01*
X584668Y578074D01*
X584070Y578366D01*
X583482Y578674D01*
X582903Y579001D01*
X582334Y579345D01*
X581776Y579706D01*
X581229Y580083D01*
X580694Y580477D01*
X580170Y580887D01*
X579660Y581312D01*
X579162Y581753D01*
X578678Y582209D01*
X578208Y582679D01*
X577753Y583162D01*
X577312Y583660D01*
X576887Y584170D01*
X576477Y584694D01*
X576083Y585229D01*
X575705Y585776D01*
X575345Y586334D01*
X575001Y586903D01*
X574674Y587482D01*
X574365Y588070D01*
X574074Y588668D01*
X573802Y589274D01*
X573547Y589888D01*
X573312Y590509D01*
X573095Y591138D01*
X572897Y591772D01*
X572719Y592412D01*
X572560Y593058D01*
X572420Y593708D01*
X572300Y594361D01*
X572200Y595018D01*
X572120Y595678D01*
X572060Y596340D01*
X572020Y597003D01*
X572000Y597668D01*
X572000Y598000D01*
Y620000D01*
X572000Y620332D01*
X572020Y620996D01*
X572060Y621660D01*
X572120Y622322D01*
X572200Y622981D01*
X572300Y623639D01*
X572420Y624292D01*
X572560Y624942D01*
X572719Y625588D01*
X572897Y626228D01*
X573095Y626862D01*
X573311Y627491D01*
X573547Y628112D01*
X573801Y628726D01*
X574074Y629332D01*
X574365Y629930D01*
X574674Y630518D01*
X575000Y631097D01*
X575344Y631666D01*
X575705Y632224D01*
X576083Y632771D01*
X576477Y633306D01*
X576886Y633830D01*
X577312Y634340D01*
X577753Y634838D01*
X578208Y635322D01*
X578678Y635792D01*
X579162Y636247D01*
X579660Y636688D01*
X580170Y637113D01*
X580693Y637523D01*
X581229Y637917D01*
X581776Y638295D01*
X582334Y638656D01*
X582903Y638999D01*
X583481Y639326D01*
X584070Y639635D01*
X584668Y639926D01*
X585274Y640198D01*
X585888Y640453D01*
X586509Y640688D01*
X587137Y640905D01*
X587772Y641103D01*
X588412Y641281D01*
X589058Y641440D01*
X589707Y641580D01*
X590361Y641700D01*
X591018Y641800D01*
X591678Y641880D01*
X592340Y641940D01*
X593003Y641980D01*
X593668Y642000D01*
X594000Y642000D01*
X678800Y642000D01*
X680000Y642000D01*
X680000Y642000D01*
X680002Y642000D01*
X680267Y642002D01*
X680797Y642021D01*
X680803Y642021D01*
X681337Y642059D01*
X681869Y642117D01*
X682399Y642193D01*
X682926Y642288D01*
X683449Y642402D01*
X683968Y642534D01*
X684482Y642685D01*
X684990Y642854D01*
X685492Y643041D01*
X685987Y643246D01*
X686474Y643468D01*
X686953Y643708D01*
X687423Y643965D01*
X687883Y644238D01*
X688334Y644527D01*
X688774Y644833D01*
X689202Y645154D01*
X689619Y645490D01*
X690024Y645840D01*
X690416Y646205D01*
X690795Y646584D01*
X691159Y646976D01*
X691510Y647381D01*
X691846Y647797D01*
X692167Y648226D01*
X692472Y648666D01*
X692762Y649117D01*
X693035Y649577D01*
X693292Y650047D01*
X693531Y650526D01*
X693754Y651013D01*
X693959Y651508D01*
X694146Y652009D01*
X694315Y652517D01*
X694466Y653031D01*
X694598Y653550D01*
X694712Y654073D01*
X694807Y654600D01*
X694883Y655130D01*
X694940Y655663D01*
X694978Y656197D01*
X694997Y656732D01*
X695000Y657000D01*
X695000Y739920D01*
X695000Y739920D01*
X695039Y741174D01*
X695046Y741287D01*
X695091Y741832D01*
X695153Y742376D01*
X695229Y742918D01*
X695321Y743457D01*
X695427Y743994D01*
X695549Y744528D01*
X695686Y745057D01*
X695837Y745583D01*
X696003Y746105D01*
X696184Y746621D01*
X696379Y747132D01*
X696589Y747638D01*
X696812Y748138D01*
X697050Y748631D01*
X697301Y749117D01*
X697566Y749596D01*
X697843Y750067D01*
X698135Y750530D01*
X698439Y750985D01*
X698755Y751431D01*
X699085Y751869D01*
X699426Y752296D01*
X699779Y752714D01*
X700144Y753122D01*
X700520Y753520D01*
X700713Y753713D01*
X750100Y803100D01*
X750100Y803101D01*
X750100Y803101D01*
X750105Y803105D01*
X750377Y803380D01*
X750920Y803951D01*
X751449Y804534D01*
X751964Y805130D01*
X752464Y805739D01*
X752949Y806360D01*
X753418Y806993D01*
X753872Y807637D01*
X754309Y808291D01*
X754731Y808957D01*
X755136Y809632D01*
X755524Y810318D01*
X755895Y811012D01*
X756250Y811716D01*
X756587Y812428D01*
X756906Y813148D01*
X757207Y813876D01*
X757491Y814611D01*
X757756Y815352D01*
X758003Y816100D01*
X758232Y816854D01*
X758442Y817613D01*
X758633Y818377D01*
X758805Y819146D01*
X758959Y819918D01*
X759093Y820694D01*
X759209Y821473D01*
X759305Y822255D01*
X759382Y823039D01*
X759440Y823825D01*
X759478Y824611D01*
X759498Y825399D01*
X759500Y825793D01*
X759500Y855500D01*
X759500Y875500D01*
X759500D01*
X759500Y875500D01*
X759500Y875511D01*
X759498Y875696D01*
X759479Y876087D01*
X759479Y876089D01*
X759441Y876479D01*
X759441Y876480D01*
X759383Y876868D01*
X759307Y877253D01*
X759212Y877635D01*
X759098Y878011D01*
X758966Y878381D01*
X758816Y878744D01*
X758649Y879099D01*
X758464Y879445D01*
X758262Y879782D01*
X758044Y880109D01*
X757810Y880424D01*
X757561Y880728D01*
X757297Y881019D01*
X757019Y881297D01*
X756728Y881561D01*
X756424Y881810D01*
X756109Y882044D01*
X755782Y882262D01*
X755445Y882464D01*
X755099Y882649D01*
X754744Y882816D01*
X754381Y882967D01*
X754011Y883099D01*
X753635Y883212D01*
X753254Y883307D01*
X752868Y883384D01*
X752480Y883441D01*
X752089Y883479D01*
X751696Y883498D01*
X751500Y883500D01*
X631998Y883500D01*
X631867Y883500D01*
X631606Y883517D01*
X631347Y883550D01*
X631090Y883601D01*
X630837Y883669D01*
X630589Y883753D01*
X630347Y883852D01*
X630112Y883968D01*
X629886Y884099D01*
X629668Y884244D01*
X629460Y884403D01*
X629263Y884575D01*
X629078Y884760D01*
X628906Y884957D01*
X628746Y885164D01*
X628601Y885382D01*
X628470Y885609D01*
X628354Y885843D01*
X628254Y886085D01*
X628170Y886333D01*
X628168Y886340D01*
X628000Y887505D01*
X628000Y887506D01*
X628197Y888756D01*
X628251Y888917D01*
X628351Y889159D01*
X628466Y889394D01*
X628597Y889621D01*
X628743Y889839D01*
X628902Y890047D01*
X629075Y890244D01*
X629260Y890429D01*
X629458Y890601D01*
X629666Y890761D01*
X629884Y890906D01*
X630111Y891036D01*
X630346Y891152D01*
X630589Y891251D01*
X630837Y891335D01*
X631090Y891402D01*
X631348Y891452D01*
X631607Y891485D01*
X631869Y891501D01*
X632000Y891500D01*
X739500Y891500D01*
X739500Y891500D01*
X739500Y891500D01*
X739696Y891502D01*
X740087Y891520D01*
X740089Y891520D01*
X740479Y891558D01*
X740480Y891558D01*
X740869Y891615D01*
X741254Y891691D01*
X741635Y891786D01*
X742011Y891900D01*
X742382Y892032D01*
X742745Y892181D01*
X743100Y892349D01*
X743447Y892534D01*
X743784Y892736D01*
X744111Y892954D01*
X744426Y893188D01*
X744730Y893437D01*
X745021Y893701D01*
X745299Y893979D01*
X745563Y894270D01*
X745812Y894574D01*
X746046Y894889D01*
X746264Y895216D01*
X746466Y895553D01*
X746651Y895900D01*
X746818Y896255D01*
X746968Y896618D01*
X747100Y896988D01*
X747214Y897365D01*
X747309Y897746D01*
X747385Y898131D01*
X747442Y898520D01*
X747479Y898911D01*
X747498Y899304D01*
X747500Y899500D01*
X747500Y945014D01*
X747500Y945014D01*
X747552Y946263D01*
X747555Y946306D01*
X747610Y946821D01*
X747684Y947333D01*
X747776Y947842D01*
X747886Y948348D01*
X748014Y948850D01*
X748160Y949346D01*
X748323Y949837D01*
X748504Y950322D01*
X748702Y950800D01*
X748917Y951271D01*
X749149Y951734D01*
X749397Y952188D01*
X749661Y952633D01*
X749941Y953068D01*
X750237Y953493D01*
X750547Y953908D01*
X750872Y954311D01*
X751211Y954702D01*
X751564Y955080D01*
X751930Y955446D01*
X752309Y955798D01*
X752700Y956137D01*
X753103Y956462D01*
X753518Y956771D01*
X753943Y957066D01*
X754379Y957346D01*
X754824Y957610D01*
X755279Y957857D01*
X755742Y958089D01*
X756212Y958303D01*
X756691Y958501D01*
X757176Y958681D01*
X757667Y958844D01*
X758164Y958990D01*
X758665Y959117D01*
X759171Y959227D01*
X759681Y959318D01*
X760193Y959391D01*
X760708Y959446D01*
X761224Y959482D01*
X761741Y959500D01*
X762000Y959500D01*
D02*
G37*
G36*
X905922Y889505D02*
X906122Y889344D01*
X906329Y889203D01*
X906543Y889080D01*
X906764Y888977D01*
X906992Y888893D01*
X907227Y888829D01*
X907468Y888783D01*
X907717Y888757D01*
X907972Y888750D01*
X905250Y886028D01*
X905243Y886283D01*
X905217Y886532D01*
X905171Y886773D01*
X905107Y887008D01*
X905023Y887236D01*
X904920Y887457D01*
X904797Y887671D01*
X904656Y887878D01*
X904495Y888078D01*
X904315Y888271D01*
X905729Y889685D01*
X905922Y889505D01*
D02*
G37*
G36*
X1015422Y889505D02*
X1015622Y889344D01*
X1015829Y889203D01*
X1016043Y889080D01*
X1016264Y888977D01*
X1016492Y888893D01*
X1016727Y888829D01*
X1016968Y888783D01*
X1017217Y888757D01*
X1017473Y888750D01*
X1014750Y886028D01*
X1014743Y886283D01*
X1014717Y886532D01*
X1014671Y886773D01*
X1014607Y887008D01*
X1014523Y887236D01*
X1014420Y887457D01*
X1014297Y887671D01*
X1014156Y887878D01*
X1013995Y888078D01*
X1013815Y888271D01*
X1015229Y889685D01*
X1015422Y889505D01*
D02*
G37*
G36*
X979150Y871749D02*
X979344Y871592D01*
X979547Y871453D01*
X979759Y871333D01*
X979979Y871231D01*
X980208Y871148D01*
X980446Y871083D01*
X980693Y871037D01*
X980948Y871009D01*
X981212Y871000D01*
Y869000D01*
X980948Y868991D01*
X980693Y868963D01*
X980446Y868917D01*
X980208Y868852D01*
X979979Y868769D01*
X979759Y868667D01*
X979547Y868547D01*
X979344Y868408D01*
X979150Y868251D01*
X978964Y868075D01*
Y871925D01*
X979150Y871749D01*
D02*
G37*
G36*
X960009Y860948D02*
X960037Y860693D01*
X960083Y860446D01*
X960148Y860208D01*
X960231Y859979D01*
X960333Y859759D01*
X960453Y859547D01*
X960592Y859344D01*
X960749Y859150D01*
X960925Y858964D01*
X957075D01*
X957251Y859150D01*
X957408Y859344D01*
X957547Y859547D01*
X957667Y859759D01*
X957769Y859979D01*
X957852Y860208D01*
X957917Y860446D01*
X957963Y860693D01*
X957991Y860948D01*
X958000Y861212D01*
X960000D01*
X960009Y860948D01*
D02*
G37*
G36*
X979150Y862249D02*
X979344Y862092D01*
X979547Y861953D01*
X979759Y861833D01*
X979979Y861731D01*
X980208Y861648D01*
X980446Y861583D01*
X980693Y861537D01*
X980948Y861509D01*
X981212Y861500D01*
Y859500D01*
X980948Y859491D01*
X980693Y859463D01*
X980446Y859417D01*
X980208Y859352D01*
X979979Y859269D01*
X979759Y859167D01*
X979547Y859047D01*
X979344Y858908D01*
X979150Y858751D01*
X978964Y858575D01*
Y862425D01*
X979150Y862249D01*
D02*
G37*
G36*
X622922Y858505D02*
X623122Y858344D01*
X623329Y858203D01*
X623543Y858080D01*
X623764Y857977D01*
X623992Y857893D01*
X624227Y857829D01*
X624468Y857783D01*
X624717Y857757D01*
X624972Y857750D01*
X622250Y855027D01*
X622243Y855283D01*
X622217Y855532D01*
X622171Y855773D01*
X622107Y856008D01*
X622023Y856236D01*
X621920Y856457D01*
X621797Y856671D01*
X621656Y856878D01*
X621495Y857078D01*
X621315Y857271D01*
X622729Y858685D01*
X622922Y858505D01*
D02*
G37*
G36*
X963185Y849771D02*
X963005Y849578D01*
X962844Y849378D01*
X962703Y849171D01*
X962580Y848957D01*
X962477Y848736D01*
X962393Y848508D01*
X962329Y848273D01*
X962283Y848032D01*
X962257Y847783D01*
X962250Y847527D01*
X959528Y850250D01*
X959783Y850257D01*
X960032Y850283D01*
X960273Y850329D01*
X960508Y850393D01*
X960736Y850477D01*
X960957Y850580D01*
X961171Y850703D01*
X961378Y850844D01*
X961578Y851005D01*
X961771Y851185D01*
X963185Y849771D01*
D02*
G37*
G36*
X1017036Y844075D02*
X1016987Y844108D01*
X1016909Y844138D01*
X1016801Y844164D01*
X1016665Y844187D01*
X1016303Y844222D01*
X1015825Y844243D01*
X1015229Y844250D01*
Y847750D01*
X1015541Y847752D01*
X1016801Y847836D01*
X1016909Y847862D01*
X1016987Y847892D01*
X1017036Y847925D01*
Y844075D01*
D02*
G37*
G36*
X912727Y842766D02*
X912542Y842942D01*
X912347Y843099D01*
X912144Y843238D01*
X911933Y843358D01*
X911712Y843460D01*
X911483Y843543D01*
X911245Y843608D01*
X910999Y843654D01*
X910743Y843682D01*
X910480Y843691D01*
Y845691D01*
X910743Y845701D01*
X910999Y845728D01*
X911245Y845775D01*
X911483Y845839D01*
X911712Y845922D01*
X911933Y846024D01*
X912144Y846144D01*
X912347Y846283D01*
X912542Y846441D01*
X912727Y846616D01*
Y842766D01*
D02*
G37*
G36*
X731749Y817850D02*
X731592Y817656D01*
X731453Y817453D01*
X731333Y817241D01*
X731231Y817021D01*
X731148Y816792D01*
X731083Y816554D01*
X731037Y816307D01*
X731009Y816052D01*
X731000Y815788D01*
X729000D01*
X728991Y816052D01*
X728963Y816307D01*
X728917Y816554D01*
X728852Y816792D01*
X728769Y817021D01*
X728667Y817241D01*
X728547Y817453D01*
X728408Y817656D01*
X728251Y817850D01*
X728075Y818036D01*
X731925D01*
X731749Y817850D01*
D02*
G37*
G36*
X945036Y815075D02*
X944850Y815251D01*
X944656Y815408D01*
X944453Y815547D01*
X944241Y815667D01*
X944021Y815769D01*
X943792Y815852D01*
X943554Y815917D01*
X943307Y815963D01*
X943052Y815991D01*
X942788Y816000D01*
Y818000D01*
X943052Y818009D01*
X943307Y818037D01*
X943554Y818083D01*
X943792Y818148D01*
X944021Y818231D01*
X944241Y818333D01*
X944453Y818453D01*
X944656Y818592D01*
X944850Y818749D01*
X945036Y818925D01*
Y815075D01*
D02*
G37*
G36*
X953879Y808253D02*
X953625Y808254D01*
X953378Y808235D01*
X953137Y808196D01*
X952903Y808136D01*
X952675Y808057D01*
X952455Y807957D01*
X952241Y807837D01*
X952033Y807697D01*
X951833Y807537D01*
X951639Y807356D01*
X950276Y808822D01*
X950456Y809014D01*
X950617Y809214D01*
X950760Y809420D01*
X950885Y809634D01*
X950992Y809855D01*
X951080Y810083D01*
X951150Y810318D01*
X951202Y810560D01*
X951236Y810809D01*
X951251Y811066D01*
X953879Y808253D01*
D02*
G37*
G36*
X605000Y897500D02*
X605000Y897500D01*
X605000D01*
X606172Y897446D01*
X606184Y897445D01*
X606655Y897390D01*
X607123Y897316D01*
X607588Y897224D01*
X608049Y897113D01*
X608506Y896985D01*
X608956Y896839D01*
X609401Y896674D01*
X609839Y896493D01*
X610270Y896294D01*
X610692Y896079D01*
X611106Y895847D01*
X611510Y895599D01*
X611904Y895336D01*
X612288Y895057D01*
X612660Y894763D01*
X613020Y894454D01*
X613368Y894132D01*
X613535Y893964D01*
X635373Y872127D01*
Y872127D01*
X635500Y872003D01*
X635764Y871763D01*
X636040Y871537D01*
X636326Y871325D01*
X636623Y871127D01*
X636928Y870943D01*
X637243Y870775D01*
X637565Y870623D01*
X637894Y870486D01*
X638230Y870366D01*
X638571Y870263D01*
X638917Y870176D01*
X639267Y870107D01*
X639619Y870054D01*
X639974Y870020D01*
X640330Y870002D01*
X640508Y870000D01*
X649671D01*
X649671Y870000D01*
X649839Y870002D01*
X650172Y870018D01*
X650174Y870018D01*
X650507Y870051D01*
X650508Y870051D01*
X650839Y870099D01*
X650839Y870099D01*
X650896Y870111D01*
X651168Y870165D01*
X651493Y870246D01*
X651814Y870343D01*
X652130Y870456D01*
X652439Y870584D01*
X652742Y870728D01*
X653038Y870886D01*
X653325Y871058D01*
X653604Y871245D01*
X653873Y871445D01*
X654132Y871657D01*
X654380Y871883D01*
X654500Y872000D01*
X660607Y878107D01*
X660607Y878107D01*
X660607Y878107D01*
X661507Y878860D01*
X661717Y879000D01*
X661989Y879164D01*
X662269Y879314D01*
X662556Y879449D01*
X662849Y879571D01*
X663148Y879678D01*
X663452Y879770D01*
X663760Y879847D01*
X664072Y879908D01*
X664386Y879955D01*
X664701Y879985D01*
X665018Y880000D01*
X665177Y880000D01*
X685050Y880000D01*
X685050Y880000D01*
X685050Y880000D01*
X685291Y879989D01*
X686223Y879945D01*
X686688Y879890D01*
X687151Y879817D01*
X687612Y879725D01*
X688068Y879616D01*
X688520Y879488D01*
X688966Y879343D01*
X689407Y879181D01*
X689840Y879001D01*
X690266Y878805D01*
X690685Y878592D01*
X691094Y878362D01*
X691494Y878117D01*
X691885Y877856D01*
X692264Y877580D01*
X692633Y877290D01*
X692990Y876985D01*
X693334Y876666D01*
X693500Y876500D01*
X713964Y856036D01*
X713964Y856036D01*
X714132Y855868D01*
X714454Y855520D01*
X714762Y855159D01*
X715055Y854787D01*
X715334Y854404D01*
X715598Y854009D01*
X715845Y853605D01*
X716077Y853192D01*
X716292Y852769D01*
X716491Y852339D01*
X716672Y851901D01*
X716836Y851456D01*
X716983Y851005D01*
X717112Y850549D01*
X717222Y850088D01*
X717315Y849623D01*
X717389Y849154D01*
X717444Y848684D01*
X717481Y848211D01*
X717500Y847737D01*
X717500Y847500D01*
X717500Y808500D01*
X717500Y808500D01*
X717500Y808263D01*
X717485Y807789D01*
X717454Y807316D01*
X717407Y806844D01*
X717345Y806374D01*
X717268Y805906D01*
X717176Y805442D01*
X717068Y804980D01*
X716945Y804522D01*
X716808Y804068D01*
X716655Y803619D01*
X716488Y803176D01*
X716307Y802738D01*
X716111Y802306D01*
X715902Y801880D01*
X715678Y801462D01*
X715441Y801052D01*
X715191Y800649D01*
X714927Y800255D01*
X714651Y799870D01*
X714362Y799494D01*
X714062Y799127D01*
X713749Y798771D01*
X713425Y798425D01*
X713257Y798257D01*
X692147Y777147D01*
X692021Y777018D01*
X691779Y776751D01*
X691551Y776473D01*
X691337Y776184D01*
X691137Y775885D01*
X690952Y775577D01*
X690782Y775259D01*
X690629Y774934D01*
X690491Y774602D01*
X690370Y774263D01*
X690265Y773919D01*
X690178Y773570D01*
X690108Y773217D01*
X690055Y772861D01*
X690020Y772504D01*
X690002Y772144D01*
X690000Y771964D01*
Y767500D01*
X690000Y767500D01*
X690000Y767332D01*
X689981Y766995D01*
X689943Y766661D01*
X689887Y766329D01*
X689812Y766001D01*
X689719Y765677D01*
X689608Y765359D01*
X689479Y765048D01*
X689333Y764745D01*
X689170Y764450D01*
X688991Y764165D01*
X688796Y763891D01*
X688586Y763627D01*
X688362Y763376D01*
X688124Y763138D01*
X687872Y762914D01*
X687609Y762704D01*
X687335Y762509D01*
X687050Y762330D01*
X686755Y762167D01*
X686452Y762021D01*
X686141Y761892D01*
X685823Y761781D01*
X685499Y761688D01*
X685171Y761613D01*
X684839Y761557D01*
X684504Y761519D01*
X684168Y761500D01*
X684000Y761500D01*
X670000D01*
X669832Y761500D01*
X669495Y761519D01*
X669161Y761556D01*
X668829Y761613D01*
X668501Y761688D01*
X668177Y761781D01*
X667859Y761892D01*
X667548Y762021D01*
X667245Y762167D01*
X666950Y762330D01*
X666665Y762509D01*
X666391Y762704D01*
X666127Y762914D01*
X665876Y763138D01*
X665638Y763376D01*
X665414Y763627D01*
X665204Y763891D01*
X665009Y764165D01*
X664830Y764450D01*
X664667Y764745D01*
X664521Y765048D01*
X664392Y765359D01*
X664281Y765677D01*
X664188Y766001D01*
X664113Y766329D01*
X664056Y766661D01*
X664019Y766995D01*
X664000Y767332D01*
X664000Y767500D01*
X664000Y782379D01*
X664000D01*
X664000Y782504D01*
X664012Y782756D01*
X664037Y783006D01*
X664074Y783254D01*
X664123Y783501D01*
X664184Y783745D01*
X664257Y783986D01*
X664342Y784222D01*
X664438Y784455D01*
X664545Y784682D01*
X664664Y784904D01*
X664793Y785119D01*
X664933Y785329D01*
X665083Y785530D01*
X665242Y785725D01*
X665411Y785911D01*
X681086Y801586D01*
X681086Y801586D01*
X681086Y801586D01*
X681087Y801586D01*
X682030Y802320D01*
X682119Y802374D01*
X682328Y802486D01*
X682543Y802587D01*
X682762Y802678D01*
X682985Y802758D01*
X683212Y802827D01*
X683442Y802884D01*
X683674Y802930D01*
X683909Y802965D01*
X684145Y802988D01*
X684381Y803000D01*
X684500Y803000D01*
X694000Y803000D01*
X694000Y803000D01*
X694002Y803000D01*
X694140Y803002D01*
X694415Y803017D01*
X694420Y803018D01*
X694697Y803049D01*
X694699Y803049D01*
X694975Y803096D01*
X694976Y803096D01*
X695249Y803158D01*
X695518Y803236D01*
X695783Y803328D01*
X696042Y803436D01*
X696295Y803558D01*
X696541Y803693D01*
X696778Y803842D01*
X697007Y804005D01*
X697226Y804180D01*
X697435Y804366D01*
X697634Y804565D01*
X697820Y804774D01*
X697995Y804993D01*
X698158Y805222D01*
X698307Y805459D01*
X698442Y805705D01*
X698564Y805958D01*
X698671Y806217D01*
X698764Y806481D01*
X698842Y806751D01*
X698904Y807024D01*
X698951Y807301D01*
X698982Y807580D01*
X698998Y807860D01*
X699000Y808000D01*
Y841500D01*
X699000D01*
X699000Y841500D01*
X699000Y841503D01*
X698998Y841672D01*
X698981Y842013D01*
X698981Y842015D01*
X698948Y842356D01*
X698947Y842357D01*
X698897Y842696D01*
X698897Y842697D01*
X698896Y842702D01*
X698830Y843034D01*
X698747Y843367D01*
X698647Y843696D01*
X698531Y844019D01*
X698400Y844337D01*
X698253Y844647D01*
X698091Y844950D01*
X697914Y845245D01*
X697723Y845530D01*
X697519Y845806D01*
X697301Y846072D01*
X697070Y846326D01*
X696950Y846449D01*
X683349Y860050D01*
X683349Y860050D01*
X683349Y860050D01*
X683347Y860052D01*
X683202Y860194D01*
X682900Y860468D01*
X682898Y860469D01*
X682581Y860729D01*
X682581Y860730D01*
X682426Y860844D01*
X682251Y860975D01*
X681910Y861203D01*
X681558Y861414D01*
X681196Y861607D01*
X680825Y861783D01*
X680445Y861940D01*
X680059Y862078D01*
X679666Y862197D01*
X679268Y862297D01*
X678865Y862377D01*
X678459Y862437D01*
X678050Y862477D01*
X677640Y862497D01*
X677435Y862500D01*
X639763Y862500D01*
X639289Y862519D01*
X638816Y862556D01*
X638346Y862611D01*
X637878Y862686D01*
X637412Y862778D01*
X636951Y862889D01*
X636495Y863018D01*
X636044Y863164D01*
X635600Y863328D01*
X635162Y863510D01*
X634731Y863708D01*
X634309Y863923D01*
X633895Y864155D01*
X633491Y864403D01*
X633097Y864666D01*
X632713Y864945D01*
X632341Y865238D01*
X631980Y865546D01*
X631632Y865868D01*
X608414Y889086D01*
X608414Y889086D01*
X608329Y889169D01*
X608154Y889328D01*
X607971Y889479D01*
X607781Y889620D01*
X607584Y889752D01*
X607381Y889874D01*
X607172Y889986D01*
X606957Y890087D01*
X606738Y890178D01*
X606515Y890258D01*
X606288Y890327D01*
X606058Y890384D01*
X605826Y890430D01*
X605591Y890464D01*
X605355Y890487D01*
X605118Y890499D01*
X605000Y890500D01*
X596000Y890500D01*
X595885Y890500D01*
X595657Y890515D01*
X595429Y890545D01*
X595205Y890590D01*
X594983Y890649D01*
X594766Y890723D01*
X594555Y890810D01*
X594349Y890912D01*
X594151Y891026D01*
X593960Y891153D01*
X593778Y891293D01*
X593606Y891444D01*
X593444Y891606D01*
X593293Y891778D01*
X593153Y891960D01*
X593026Y892151D01*
X592912Y892349D01*
X592810Y892555D01*
X592723Y892766D01*
X592649Y892983D01*
X592590Y893205D01*
X592545Y893429D01*
X592515Y893657D01*
X592500Y893885D01*
X592500Y894125D01*
X592518Y894376D01*
X592554Y894624D01*
X592607Y894869D01*
X592678Y895109D01*
X592766Y895344D01*
X592870Y895572D01*
X592991Y895792D01*
X593127Y896003D01*
X593278Y896203D01*
X593442Y896392D01*
X593620Y896569D01*
X593810Y896733D01*
X594011Y896883D01*
X594222Y897018D01*
X594443Y897137D01*
X594672Y897241D01*
X594907Y897327D01*
X595148Y897397D01*
X595393Y897449D01*
X595517Y897467D01*
X595530Y897479D01*
X595546Y897496D01*
X595550Y897500D01*
X605000Y897500D01*
X605000Y897500D01*
D02*
G37*
G36*
X945036Y798075D02*
X944850Y798251D01*
X944656Y798408D01*
X944453Y798547D01*
X944241Y798667D01*
X944021Y798769D01*
X943792Y798852D01*
X943554Y798917D01*
X943307Y798963D01*
X943052Y798991D01*
X942788Y799000D01*
Y801000D01*
X943052Y801009D01*
X943307Y801037D01*
X943554Y801083D01*
X943792Y801148D01*
X944021Y801231D01*
X944241Y801333D01*
X944453Y801453D01*
X944656Y801592D01*
X944850Y801749D01*
X945036Y801925D01*
Y798075D01*
D02*
G37*
G36*
X878036D02*
X877850Y798251D01*
X877656Y798408D01*
X877453Y798547D01*
X877241Y798667D01*
X877021Y798769D01*
X876792Y798852D01*
X876554Y798917D01*
X876307Y798963D01*
X876052Y798991D01*
X875788Y799000D01*
Y801000D01*
X876052Y801009D01*
X876307Y801037D01*
X876554Y801083D01*
X876792Y801148D01*
X877021Y801231D01*
X877241Y801333D01*
X877453Y801453D01*
X877656Y801592D01*
X877850Y801749D01*
X878036Y801925D01*
Y798075D01*
D02*
G37*
G36*
Y788075D02*
X877850Y788251D01*
X877656Y788408D01*
X877453Y788547D01*
X877241Y788667D01*
X877021Y788769D01*
X876792Y788852D01*
X876554Y788917D01*
X876307Y788963D01*
X876052Y788991D01*
X875788Y789000D01*
Y791000D01*
X876052Y791009D01*
X876307Y791037D01*
X876554Y791083D01*
X876792Y791148D01*
X877021Y791231D01*
X877241Y791333D01*
X877453Y791453D01*
X877656Y791592D01*
X877850Y791749D01*
X878036Y791925D01*
Y788075D01*
D02*
G37*
G36*
X1135509Y788948D02*
X1135537Y788693D01*
X1135583Y788446D01*
X1135648Y788208D01*
X1135731Y787979D01*
X1135833Y787759D01*
X1135953Y787547D01*
X1136092Y787344D01*
X1136249Y787150D01*
X1136425Y786964D01*
X1132575D01*
X1132751Y787150D01*
X1132908Y787344D01*
X1133047Y787547D01*
X1133167Y787759D01*
X1133269Y787979D01*
X1133352Y788208D01*
X1133417Y788446D01*
X1133463Y788693D01*
X1133491Y788948D01*
X1133500Y789212D01*
X1135500D01*
X1135509Y788948D01*
D02*
G37*
G36*
X878036Y778075D02*
X877850Y778251D01*
X877656Y778408D01*
X877453Y778547D01*
X877241Y778667D01*
X877021Y778769D01*
X876792Y778852D01*
X876554Y778917D01*
X876307Y778963D01*
X876052Y778991D01*
X875788Y779000D01*
Y781000D01*
X876052Y781009D01*
X876307Y781037D01*
X876554Y781083D01*
X876792Y781148D01*
X877021Y781231D01*
X877241Y781333D01*
X877453Y781453D01*
X877656Y781592D01*
X877850Y781749D01*
X878036Y781925D01*
Y778075D01*
D02*
G37*
G36*
Y768075D02*
X877850Y768251D01*
X877656Y768408D01*
X877453Y768547D01*
X877241Y768667D01*
X877021Y768769D01*
X876792Y768852D01*
X876554Y768917D01*
X876307Y768963D01*
X876052Y768991D01*
X875788Y769000D01*
Y771000D01*
X876052Y771009D01*
X876307Y771037D01*
X876554Y771083D01*
X876792Y771148D01*
X877021Y771231D01*
X877241Y771333D01*
X877453Y771453D01*
X877656Y771592D01*
X877850Y771749D01*
X878036Y771925D01*
Y768075D01*
D02*
G37*
G36*
Y758075D02*
X877850Y758251D01*
X877656Y758408D01*
X877453Y758547D01*
X877241Y758667D01*
X877021Y758769D01*
X876792Y758852D01*
X876554Y758917D01*
X876307Y758963D01*
X876052Y758991D01*
X875788Y759000D01*
Y761000D01*
X876052Y761009D01*
X876307Y761037D01*
X876554Y761083D01*
X876792Y761148D01*
X877021Y761231D01*
X877241Y761333D01*
X877453Y761453D01*
X877656Y761592D01*
X877850Y761749D01*
X878036Y761925D01*
Y758075D01*
D02*
G37*
G36*
X844319Y744249D02*
X844513Y744092D01*
X844716Y743953D01*
X844928Y743833D01*
X845148Y743731D01*
X845377Y743648D01*
X845615Y743583D01*
X845862Y743537D01*
X846117Y743509D01*
X846381Y743500D01*
Y741500D01*
X846117Y741491D01*
X845862Y741463D01*
X845615Y741417D01*
X845377Y741352D01*
X845148Y741269D01*
X844928Y741167D01*
X844716Y741047D01*
X844513Y740908D01*
X844319Y740751D01*
X844133Y740575D01*
Y744425D01*
X844319Y744249D01*
D02*
G37*
G36*
X969749Y739850D02*
X969592Y739656D01*
X969453Y739453D01*
X969333Y739241D01*
X969231Y739021D01*
X969148Y738792D01*
X969083Y738554D01*
X969037Y738307D01*
X969009Y738052D01*
X969000Y737788D01*
X967000D01*
X966991Y738052D01*
X966963Y738307D01*
X966917Y738554D01*
X966852Y738792D01*
X966769Y739021D01*
X966667Y739241D01*
X966547Y739453D01*
X966408Y739656D01*
X966251Y739850D01*
X966075Y740036D01*
X969925D01*
X969749Y739850D01*
D02*
G37*
G36*
X946728Y735969D02*
X946928Y735808D01*
X947135Y735667D01*
X947349Y735544D01*
X947570Y735441D01*
X947797Y735357D01*
X948032Y735293D01*
X948274Y735247D01*
X948522Y735221D01*
X948778Y735214D01*
X946056Y732491D01*
X946049Y732747D01*
X946022Y732996D01*
X945977Y733237D01*
X945912Y733472D01*
X945828Y733700D01*
X945725Y733921D01*
X945603Y734135D01*
X945461Y734342D01*
X945300Y734542D01*
X945120Y734735D01*
X946535Y736149D01*
X946728Y735969D01*
D02*
G37*
G36*
X888330Y730315D02*
X888173Y730120D01*
X888034Y729917D01*
X887914Y729706D01*
X887812Y729485D01*
X887729Y729256D01*
X887664Y729018D01*
X887618Y728772D01*
X887590Y728516D01*
X887580Y728252D01*
X885581D01*
X885571Y728516D01*
X885544Y728772D01*
X885497Y729018D01*
X885433Y729256D01*
X885349Y729485D01*
X885248Y729706D01*
X885127Y729917D01*
X884989Y730120D01*
X884831Y730315D01*
X884656Y730500D01*
X888505D01*
X888330Y730315D01*
D02*
G37*
G36*
X681922Y726505D02*
X682122Y726344D01*
X682329Y726203D01*
X682543Y726080D01*
X682764Y725977D01*
X682992Y725893D01*
X683227Y725829D01*
X683468Y725783D01*
X683717Y725757D01*
X683972Y725750D01*
X681250Y723027D01*
X681243Y723283D01*
X681217Y723532D01*
X681171Y723773D01*
X681107Y724008D01*
X681023Y724236D01*
X680920Y724457D01*
X680797Y724671D01*
X680656Y724878D01*
X680495Y725078D01*
X680315Y725271D01*
X681729Y726685D01*
X681922Y726505D01*
D02*
G37*
G36*
X915729Y714983D02*
X915543Y715158D01*
X915349Y715316D01*
X915146Y715454D01*
X914934Y715575D01*
X914714Y715676D01*
X914485Y715760D01*
X914247Y715824D01*
X914000Y715871D01*
X913745Y715898D01*
X913481Y715908D01*
Y717908D01*
X913745Y717917D01*
X914000Y717945D01*
X914247Y717991D01*
X914485Y718056D01*
X914714Y718139D01*
X914934Y718241D01*
X915146Y718361D01*
X915349Y718500D01*
X915543Y718657D01*
X915729Y718832D01*
Y714983D01*
D02*
G37*
G36*
X935399Y718657D02*
X935593Y718500D01*
X935796Y718361D01*
X936008Y718240D01*
X936228Y718139D01*
X936458Y718055D01*
X936695Y717991D01*
X936942Y717944D01*
X937197Y717917D01*
X937461Y717907D01*
Y715908D01*
X937197Y715898D01*
X936942Y715871D01*
X936695Y715824D01*
X936458Y715760D01*
X936228Y715676D01*
X936008Y715574D01*
X935796Y715454D01*
X935593Y715315D01*
X935399Y715158D01*
X935213Y714983D01*
Y718832D01*
X935399Y718657D01*
D02*
G37*
G36*
X931593Y714712D02*
X931382Y714862D01*
X931165Y714995D01*
X930943Y715114D01*
X930715Y715216D01*
X930482Y715302D01*
X930244Y715373D01*
X930001Y715428D01*
X929751Y715468D01*
X929497Y715491D01*
X929237Y715499D01*
X928914Y717499D01*
X929181Y717509D01*
X929436Y717540D01*
X929678Y717591D01*
X929908Y717662D01*
X930125Y717754D01*
X930330Y717867D01*
X930521Y717999D01*
X930701Y718152D01*
X930867Y718326D01*
X931021Y718520D01*
X931593Y714712D01*
D02*
G37*
G36*
X876525Y707636D02*
X876345Y707444D01*
X876184Y707244D01*
X876042Y707037D01*
X875919Y706823D01*
X875816Y706602D01*
X875731Y706374D01*
X875665Y706139D01*
X875618Y705897D01*
X875590Y705648D01*
X875581Y705393D01*
X872880Y708137D01*
X873135Y708142D01*
X873384Y708166D01*
X873625Y708210D01*
X873860Y708274D01*
X874088Y708357D01*
X874309Y708459D01*
X874523Y708581D01*
X874730Y708722D01*
X874930Y708883D01*
X875123Y709063D01*
X876525Y707636D01*
D02*
G37*
G36*
X781337Y704365D02*
X781157Y704172D01*
X780996Y703971D01*
X780854Y703764D01*
X780732Y703550D01*
X780629Y703330D01*
X780545Y703102D01*
X780480Y702867D01*
X780435Y702625D01*
X780408Y702377D01*
X780401Y702121D01*
X777679Y704843D01*
X777935Y704850D01*
X778183Y704877D01*
X778425Y704922D01*
X778660Y704987D01*
X778887Y705071D01*
X779108Y705174D01*
X779322Y705296D01*
X779529Y705438D01*
X779729Y705599D01*
X779922Y705779D01*
X781337Y704365D01*
D02*
G37*
G36*
X872825Y702637D02*
X872569Y702628D01*
X872320Y702600D01*
X872079Y702553D01*
X871844Y702487D01*
X871616Y702402D01*
X871395Y702298D01*
X871181Y702175D01*
X870974Y702033D01*
X870774Y701872D01*
X870581Y701693D01*
X869155Y703095D01*
X869335Y703288D01*
X869496Y703488D01*
X869637Y703695D01*
X869759Y703909D01*
X869861Y704130D01*
X869944Y704358D01*
X870008Y704593D01*
X870051Y704834D01*
X870076Y705082D01*
X870081Y705338D01*
X872825Y702637D01*
D02*
G37*
G36*
X837834Y704857D02*
X838034Y704696D01*
X838241Y704554D01*
X838455Y704432D01*
X838676Y704329D01*
X838904Y704245D01*
X839138Y704180D01*
X839380Y704135D01*
X839629Y704109D01*
X839884Y704101D01*
X837162Y701379D01*
X837155Y701635D01*
X837129Y701883D01*
X837083Y702125D01*
X837018Y702360D01*
X836934Y702588D01*
X836831Y702809D01*
X836709Y703023D01*
X836567Y703230D01*
X836406Y703430D01*
X836226Y703623D01*
X837641Y705037D01*
X837834Y704857D01*
D02*
G37*
G36*
X842061Y703101D02*
X842256Y702944D01*
X842459Y702805D01*
X842670Y702685D01*
X842891Y702583D01*
X843120Y702500D01*
X843358Y702435D01*
X843604Y702389D01*
X843859Y702361D01*
X844123Y702352D01*
Y700352D01*
X843859Y700342D01*
X843604Y700315D01*
X843358Y700268D01*
X843120Y700204D01*
X842891Y700120D01*
X842670Y700019D01*
X842459Y699898D01*
X842256Y699760D01*
X842061Y699602D01*
X841876Y699427D01*
Y703277D01*
X842061Y703101D01*
D02*
G37*
G36*
X900173Y699426D02*
X899987Y699602D01*
X899793Y699759D01*
X899590Y699898D01*
X899378Y700018D01*
X899157Y700120D01*
X898928Y700203D01*
X898690Y700268D01*
X898444Y700314D01*
X898189Y700342D01*
X897925Y700351D01*
Y702351D01*
X898189Y702360D01*
X898444Y702388D01*
X898690Y702434D01*
X898928Y702499D01*
X899157Y702582D01*
X899378Y702684D01*
X899590Y702804D01*
X899793Y702943D01*
X899987Y703100D01*
X900173Y703276D01*
Y699426D01*
D02*
G37*
G36*
X931285Y699426D02*
X931099Y699602D01*
X930905Y699759D01*
X930702Y699898D01*
X930490Y700018D01*
X930270Y700120D01*
X930041Y700203D01*
X929803Y700268D01*
X929556Y700314D01*
X929301Y700342D01*
X929037Y700351D01*
Y702351D01*
X929301Y702360D01*
X929556Y702388D01*
X929803Y702434D01*
X930041Y702499D01*
X930270Y702582D01*
X930490Y702684D01*
X930702Y702804D01*
X930905Y702943D01*
X931099Y703100D01*
X931285Y703276D01*
Y699426D01*
D02*
G37*
G36*
X904893Y701068D02*
X904920Y700819D01*
X904965Y700578D01*
X905030Y700343D01*
X905114Y700115D01*
X905217Y699894D01*
X905339Y699680D01*
X905481Y699473D01*
X905642Y699273D01*
X905822Y699080D01*
X904408Y697666D01*
X904214Y697846D01*
X904014Y698007D01*
X903807Y698148D01*
X903593Y698271D01*
X903373Y698374D01*
X903145Y698458D01*
X902910Y698523D01*
X902668Y698568D01*
X902420Y698594D01*
X902164Y698601D01*
X904886Y701324D01*
X904893Y701068D01*
D02*
G37*
G36*
X936006Y701068D02*
X936032Y700819D01*
X936078Y700578D01*
X936142Y700343D01*
X936226Y700115D01*
X936329Y699894D01*
X936452Y699680D01*
X936593Y699473D01*
X936754Y699273D01*
X936934Y699080D01*
X935520Y697666D01*
X935327Y697846D01*
X935127Y698007D01*
X934920Y698148D01*
X934706Y698271D01*
X934485Y698374D01*
X934257Y698458D01*
X934022Y698522D01*
X933781Y698568D01*
X933532Y698594D01*
X933277Y698601D01*
X935999Y701323D01*
X936006Y701068D01*
D02*
G37*
G36*
X794992Y699202D02*
X794835Y699008D01*
X794696Y698805D01*
X794576Y698593D01*
X794474Y698372D01*
X794391Y698143D01*
X794326Y697906D01*
X794280Y697659D01*
X794252Y697404D01*
X794243Y697140D01*
X792243D01*
X792233Y697404D01*
X792206Y697659D01*
X792159Y697906D01*
X792095Y698143D01*
X792011Y698372D01*
X791910Y698593D01*
X791789Y698805D01*
X791651Y699008D01*
X791493Y699202D01*
X791318Y699388D01*
X795168D01*
X794992Y699202D01*
D02*
G37*
G36*
X873174Y695322D02*
X873368Y695165D01*
X873571Y695026D01*
X873783Y694906D01*
X874003Y694805D01*
X874232Y694721D01*
X874470Y694657D01*
X874717Y694610D01*
X874972Y694583D01*
X875236Y694573D01*
Y692573D01*
X874972Y692564D01*
X874717Y692536D01*
X874470Y692490D01*
X874232Y692425D01*
X874003Y692342D01*
X873783Y692240D01*
X873571Y692120D01*
X873368Y691981D01*
X873174Y691824D01*
X872988Y691648D01*
Y695498D01*
X873174Y695322D01*
D02*
G37*
G36*
X870997Y690823D02*
X870741Y690816D01*
X870492Y690790D01*
X870251Y690745D01*
X870016Y690680D01*
X869788Y690596D01*
X869567Y690493D01*
X869353Y690370D01*
X869146Y690229D01*
X868946Y690068D01*
X868753Y689888D01*
X867339Y691302D01*
X867519Y691495D01*
X867680Y691695D01*
X867821Y691902D01*
X867944Y692116D01*
X868047Y692337D01*
X868131Y692565D01*
X868195Y692800D01*
X868241Y693042D01*
X868267Y693290D01*
X868274Y693546D01*
X870997Y690823D01*
D02*
G37*
G36*
X809808Y689743D02*
X809836Y689488D01*
X809882Y689241D01*
X809947Y689004D01*
X810030Y688774D01*
X810132Y688554D01*
X810252Y688342D01*
X810391Y688139D01*
X810548Y687945D01*
X810724Y687759D01*
X806874D01*
X807050Y687945D01*
X807207Y688139D01*
X807346Y688342D01*
X807466Y688554D01*
X807568Y688774D01*
X807651Y689004D01*
X807716Y689241D01*
X807762Y689488D01*
X807790Y689743D01*
X807799Y690007D01*
X809799D01*
X809808Y689743D01*
D02*
G37*
G36*
X842061Y687544D02*
X842255Y687387D01*
X842458Y687248D01*
X842670Y687128D01*
X842891Y687026D01*
X843120Y686943D01*
X843358Y686879D01*
X843604Y686832D01*
X843859Y686804D01*
X844123Y686795D01*
Y684795D01*
X843859Y684786D01*
X843604Y684758D01*
X843358Y684712D01*
X843120Y684647D01*
X842891Y684564D01*
X842670Y684462D01*
X842458Y684342D01*
X842255Y684203D01*
X842061Y684046D01*
X841875Y683870D01*
Y687720D01*
X842061Y687544D01*
D02*
G37*
G36*
X811556Y685512D02*
X811582Y685264D01*
X811628Y685022D01*
X811692Y684787D01*
X811776Y684559D01*
X811879Y684339D01*
X812002Y684125D01*
X812143Y683917D01*
X812304Y683717D01*
X812484Y683524D01*
X811070Y682110D01*
X810877Y682290D01*
X810677Y682451D01*
X810470Y682593D01*
X810256Y682715D01*
X810035Y682818D01*
X809807Y682902D01*
X809572Y682967D01*
X809331Y683012D01*
X809082Y683038D01*
X808826Y683046D01*
X811549Y685768D01*
X811556Y685512D01*
D02*
G37*
G36*
X796000Y685512D02*
X796026Y685264D01*
X796071Y685022D01*
X796136Y684787D01*
X796220Y684559D01*
X796323Y684339D01*
X796445Y684125D01*
X796587Y683917D01*
X796748Y683717D01*
X796928Y683524D01*
X795514Y682110D01*
X795321Y682290D01*
X795120Y682451D01*
X794913Y682593D01*
X794699Y682715D01*
X794479Y682818D01*
X794251Y682902D01*
X794016Y682967D01*
X793774Y683012D01*
X793526Y683038D01*
X793270Y683046D01*
X795992Y685768D01*
X796000Y685512D01*
D02*
G37*
G36*
X839884Y683045D02*
X839628Y683038D01*
X839380Y683012D01*
X839138Y682967D01*
X838903Y682902D01*
X838676Y682818D01*
X838455Y682715D01*
X838241Y682592D01*
X838034Y682451D01*
X837834Y682290D01*
X837641Y682110D01*
X836226Y683524D01*
X836406Y683717D01*
X836567Y683917D01*
X836709Y684124D01*
X836831Y684338D01*
X836934Y684559D01*
X837018Y684787D01*
X837083Y685022D01*
X837128Y685264D01*
X837155Y685512D01*
X837162Y685768D01*
X839884Y683045D01*
D02*
G37*
G36*
X779000Y682029D02*
X779008Y681769D01*
X779032Y681514D01*
X779073Y681265D01*
X779130Y681022D01*
X779202Y680785D01*
X779292Y680554D01*
X779397Y680328D01*
X779518Y680108D01*
X779656Y679895D01*
X779810Y679687D01*
X775991Y680174D01*
X776183Y680333D01*
X776354Y680504D01*
X776506Y680687D01*
X776637Y680882D01*
X776748Y681089D01*
X776839Y681308D01*
X776909Y681539D01*
X776960Y681782D01*
X776990Y682037D01*
X777000Y682304D01*
X779000Y682029D01*
D02*
G37*
G36*
X917665Y667488D02*
X917410Y667481D01*
X917161Y667455D01*
X916919Y667410D01*
X916684Y667345D01*
X916457Y667261D01*
X916236Y667158D01*
X916022Y667035D01*
X915815Y666894D01*
X915615Y666733D01*
X915422Y666553D01*
X914007Y667967D01*
X914187Y668160D01*
X914348Y668360D01*
X914490Y668567D01*
X914612Y668781D01*
X914715Y669002D01*
X914799Y669230D01*
X914864Y669465D01*
X914910Y669706D01*
X914936Y669955D01*
X914943Y670211D01*
X917665Y667488D01*
D02*
G37*
G36*
X742752Y661459D02*
X742836Y660199D01*
X742862Y660091D01*
X742892Y660013D01*
X742925Y659964D01*
X739075D01*
X739108Y660013D01*
X739138Y660091D01*
X739164Y660199D01*
X739187Y660335D01*
X739222Y660697D01*
X739243Y661176D01*
X739250Y661771D01*
X742750D01*
X742752Y661459D01*
D02*
G37*
G36*
X822278Y658188D02*
X822478Y658027D01*
X822685Y657885D01*
X822898Y657763D01*
X823119Y657660D01*
X823347Y657576D01*
X823582Y657511D01*
X823824Y657466D01*
X824072Y657439D01*
X824328Y657432D01*
X821605Y654710D01*
X821598Y654966D01*
X821572Y655214D01*
X821526Y655456D01*
X821462Y655691D01*
X821378Y655919D01*
X821275Y656140D01*
X821152Y656354D01*
X821011Y656561D01*
X820850Y656761D01*
X820670Y656954D01*
X822084Y658368D01*
X822278Y658188D01*
D02*
G37*
G36*
X921378Y656953D02*
X921198Y656760D01*
X921037Y656560D01*
X920895Y656352D01*
X920773Y656139D01*
X920670Y655918D01*
X920586Y655690D01*
X920521Y655455D01*
X920476Y655213D01*
X920449Y654965D01*
X920442Y654709D01*
X917720Y657432D01*
X917976Y657439D01*
X918224Y657465D01*
X918466Y657510D01*
X918701Y657575D01*
X918929Y657659D01*
X919149Y657762D01*
X919363Y657885D01*
X919570Y658026D01*
X919770Y658187D01*
X919964Y658367D01*
X921378Y656953D01*
D02*
G37*
G36*
X826505Y656432D02*
X826699Y656274D01*
X826902Y656136D01*
X827114Y656015D01*
X827334Y655914D01*
X827563Y655830D01*
X827801Y655766D01*
X828048Y655719D01*
X828303Y655692D01*
X828567Y655682D01*
Y653682D01*
X828303Y653673D01*
X828048Y653645D01*
X827801Y653599D01*
X827563Y653534D01*
X827334Y653451D01*
X827114Y653349D01*
X826902Y653229D01*
X826699Y653090D01*
X826505Y652933D01*
X826319Y652757D01*
Y656607D01*
X826505Y656432D01*
D02*
G37*
G36*
X884502Y642631D02*
X884702Y642470D01*
X884909Y642328D01*
X885123Y642206D01*
X885344Y642103D01*
X885572Y642019D01*
X885806Y641954D01*
X886048Y641908D01*
X886297Y641882D01*
X886552Y641875D01*
X883830Y639153D01*
X883823Y639408D01*
X883797Y639657D01*
X883751Y639899D01*
X883687Y640134D01*
X883603Y640361D01*
X883499Y640582D01*
X883377Y640796D01*
X883235Y641003D01*
X883075Y641203D01*
X882895Y641396D01*
X884309Y642811D01*
X884502Y642631D01*
D02*
G37*
G36*
X853504Y637201D02*
X853318Y637377D01*
X853123Y637534D01*
X852920Y637673D01*
X852709Y637793D01*
X852488Y637895D01*
X852259Y637978D01*
X852021Y638042D01*
X851775Y638089D01*
X851520Y638116D01*
X851256Y638126D01*
Y640126D01*
X851520Y640135D01*
X851775Y640163D01*
X852021Y640209D01*
X852259Y640274D01*
X852488Y640357D01*
X852709Y640459D01*
X852920Y640579D01*
X853123Y640718D01*
X853318Y640875D01*
X853504Y641051D01*
Y637201D01*
D02*
G37*
G36*
X827112Y638843D02*
X827138Y638594D01*
X827184Y638353D01*
X827248Y638118D01*
X827332Y637890D01*
X827435Y637669D01*
X827558Y637455D01*
X827699Y637248D01*
X827860Y637048D01*
X828040Y636855D01*
X826626Y635441D01*
X826433Y635621D01*
X826233Y635782D01*
X826026Y635923D01*
X825812Y636046D01*
X825591Y636149D01*
X825363Y636233D01*
X825128Y636297D01*
X824887Y636343D01*
X824638Y636369D01*
X824382Y636376D01*
X827105Y639098D01*
X827112Y638843D01*
D02*
G37*
G36*
X858224Y638843D02*
X858251Y638594D01*
X858296Y638352D01*
X858361Y638118D01*
X858445Y637890D01*
X858548Y637669D01*
X858670Y637455D01*
X858812Y637248D01*
X858973Y637048D01*
X859153Y636855D01*
X857738Y635440D01*
X857545Y635620D01*
X857345Y635781D01*
X857138Y635923D01*
X856924Y636045D01*
X856703Y636148D01*
X856476Y636232D01*
X856241Y636297D01*
X855999Y636343D01*
X855751Y636369D01*
X855495Y636376D01*
X858217Y639098D01*
X858224Y638843D01*
D02*
G37*
G36*
X890265Y625840D02*
X890085Y625647D01*
X889924Y625447D01*
X889782Y625240D01*
X889660Y625026D01*
X889557Y624805D01*
X889473Y624577D01*
X889408Y624342D01*
X889363Y624101D01*
X889337Y623852D01*
X889330Y623596D01*
X886607Y626319D01*
X886863Y626326D01*
X887111Y626352D01*
X887353Y626398D01*
X887588Y626462D01*
X887816Y626546D01*
X888037Y626649D01*
X888251Y626772D01*
X888457Y626913D01*
X888658Y627074D01*
X888851Y627254D01*
X890265Y625840D01*
D02*
G37*
G36*
X946727Y627074D02*
X946927Y626913D01*
X947134Y626771D01*
X947348Y626649D01*
X947569Y626546D01*
X947797Y626462D01*
X948031Y626397D01*
X948273Y626352D01*
X948522Y626325D01*
X948777Y626318D01*
X946055Y623596D01*
X946048Y623852D01*
X946022Y624100D01*
X945976Y624342D01*
X945911Y624577D01*
X945827Y624805D01*
X945724Y625025D01*
X945602Y625239D01*
X945460Y625446D01*
X945300Y625647D01*
X945119Y625840D01*
X946534Y627254D01*
X946727Y627074D01*
D02*
G37*
G36*
X917665Y620819D02*
X917409Y620812D01*
X917160Y620786D01*
X916919Y620740D01*
X916684Y620675D01*
X916456Y620592D01*
X916235Y620488D01*
X916021Y620366D01*
X915814Y620224D01*
X915614Y620064D01*
X915421Y619883D01*
X914007Y621298D01*
X914187Y621491D01*
X914348Y621691D01*
X914489Y621898D01*
X914612Y622112D01*
X914715Y622333D01*
X914799Y622561D01*
X914864Y622795D01*
X914909Y623037D01*
X914935Y623286D01*
X914942Y623541D01*
X917665Y620819D01*
D02*
G37*
G36*
X838509Y590198D02*
X838537Y589943D01*
X838583Y589696D01*
X838648Y589458D01*
X838731Y589229D01*
X838833Y589009D01*
X838953Y588797D01*
X839092Y588594D01*
X839249Y588400D01*
X839425Y588214D01*
X835575D01*
X835751Y588400D01*
X835908Y588594D01*
X836047Y588797D01*
X836167Y589009D01*
X836269Y589229D01*
X836352Y589458D01*
X836417Y589696D01*
X836463Y589943D01*
X836491Y590198D01*
X836500Y590462D01*
X838500D01*
X838509Y590198D01*
D02*
G37*
G36*
X851009Y590198D02*
X851037Y589943D01*
X851083Y589696D01*
X851148Y589458D01*
X851231Y589229D01*
X851333Y589009D01*
X851453Y588797D01*
X851592Y588594D01*
X851749Y588400D01*
X851925Y588214D01*
X848075D01*
X848251Y588400D01*
X848408Y588594D01*
X848547Y588797D01*
X848667Y589009D01*
X848769Y589229D01*
X848852Y589458D01*
X848917Y589696D01*
X848963Y589943D01*
X848991Y590198D01*
X849000Y590462D01*
X851000D01*
X851009Y590198D01*
D02*
G37*
G36*
X822922Y589755D02*
X823122Y589594D01*
X823329Y589453D01*
X823543Y589330D01*
X823764Y589227D01*
X823992Y589143D01*
X824227Y589079D01*
X824468Y589033D01*
X824717Y589007D01*
X824973Y589000D01*
X822250Y586278D01*
X822243Y586533D01*
X822217Y586782D01*
X822171Y587023D01*
X822107Y587258D01*
X822023Y587486D01*
X821920Y587707D01*
X821797Y587921D01*
X821656Y588128D01*
X821495Y588328D01*
X821315Y588521D01*
X822729Y589935D01*
X822922Y589755D01*
D02*
G37*
G36*
X810422D02*
X810622Y589594D01*
X810829Y589453D01*
X811043Y589330D01*
X811264Y589227D01*
X811492Y589143D01*
X811727Y589079D01*
X811968Y589033D01*
X812217Y589007D01*
X812473Y589000D01*
X809750Y586278D01*
X809743Y586533D01*
X809717Y586782D01*
X809671Y587023D01*
X809607Y587258D01*
X809523Y587486D01*
X809420Y587707D01*
X809297Y587921D01*
X809156Y588128D01*
X808995Y588328D01*
X808815Y588521D01*
X810229Y589935D01*
X810422Y589755D01*
D02*
G37*
G36*
X853685Y579271D02*
X853505Y579078D01*
X853344Y578878D01*
X853203Y578671D01*
X853080Y578457D01*
X852977Y578236D01*
X852893Y578008D01*
X852829Y577773D01*
X852783Y577532D01*
X852757Y577283D01*
X852750Y577028D01*
X850027Y579750D01*
X850283Y579757D01*
X850532Y579783D01*
X850773Y579829D01*
X851008Y579893D01*
X851236Y579977D01*
X851457Y580080D01*
X851671Y580203D01*
X851878Y580344D01*
X852078Y580505D01*
X852271Y580685D01*
X853685Y579271D01*
D02*
G37*
G36*
X530422Y516255D02*
X530622Y516094D01*
X530829Y515953D01*
X531043Y515830D01*
X531264Y515727D01*
X531492Y515643D01*
X531727Y515579D01*
X531968Y515533D01*
X532217Y515507D01*
X532472Y515500D01*
X529750Y512777D01*
X529743Y513033D01*
X529717Y513282D01*
X529671Y513523D01*
X529607Y513758D01*
X529523Y513986D01*
X529420Y514207D01*
X529297Y514421D01*
X529156Y514628D01*
X528995Y514828D01*
X528815Y515021D01*
X530229Y516435D01*
X530422Y516255D01*
D02*
G37*
G36*
X615403Y622981D02*
X616156Y622944D01*
X616909Y622889D01*
X617659Y622815D01*
X618408Y622723D01*
X619154Y622612D01*
X619897Y622483D01*
X620637Y622336D01*
X621372Y622171D01*
X622104Y621987D01*
X622831Y621786D01*
X623553Y621567D01*
X624269Y621331D01*
X624979Y621077D01*
X625683Y620805D01*
X626380Y620517D01*
X627069Y620211D01*
X627751Y619888D01*
X628424Y619549D01*
X629090Y619194D01*
X629746Y618822D01*
X630393Y618434D01*
X631030Y618031D01*
X631657Y617612D01*
X632274Y617177D01*
X632879Y616728D01*
X633474Y616264D01*
X634057Y615785D01*
X634628Y615293D01*
X635118Y614848D01*
X635867Y614128D01*
X635999Y614000D01*
X636000Y613999D01*
X636000D01*
X636000Y613999D01*
X687929Y562071D01*
X688170Y561833D01*
X688662Y561368D01*
X689167Y560917D01*
X689684Y560480D01*
X690214Y560058D01*
X690755Y559651D01*
X691307Y559259D01*
X691870Y558883D01*
X692443Y558522D01*
X693027Y558178D01*
X693619Y557851D01*
X694221Y557540D01*
X694831Y557246D01*
X695449Y556969D01*
X696075Y556710D01*
X696707Y556469D01*
X697347Y556245D01*
X697992Y556040D01*
X698642Y555852D01*
X699298Y555683D01*
X699958Y555532D01*
X700622Y555400D01*
X701290Y555287D01*
X701961Y555192D01*
X702633Y555116D01*
X703308Y555059D01*
X703984Y555021D01*
X704661Y555002D01*
X705000Y555000D01*
X743000Y555000D01*
X743278Y555000D01*
X743834Y554982D01*
X744389Y554945D01*
X744943Y554891D01*
X745495Y554818D01*
X746044Y554728D01*
X746589Y554619D01*
X747131Y554493D01*
X747669Y554349D01*
X748201Y554187D01*
X748728Y554008D01*
X749249Y553812D01*
X749763Y553599D01*
X750269Y553370D01*
X750768Y553124D01*
X751259Y552862D01*
X751741Y552583D01*
X752213Y552289D01*
X752676Y551980D01*
X753128Y551656D01*
X753570Y551317D01*
X754000Y550965D01*
X754418Y550598D01*
X754824Y550217D01*
X755217Y549824D01*
X755598Y549418D01*
X755965Y549000D01*
X756318Y548569D01*
X756656Y548128D01*
X756980Y547676D01*
X757289Y547213D01*
X757583Y546741D01*
X757861Y546259D01*
X758124Y545768D01*
X758370Y545269D01*
X758599Y544762D01*
X758812Y544248D01*
X759008Y543728D01*
X759187Y543201D01*
X759349Y542668D01*
X759492Y542131D01*
X759619Y541589D01*
X759727Y541043D01*
X759818Y540494D01*
X759891Y539943D01*
X759945Y539389D01*
X759957Y539207D01*
X759999Y538024D01*
X760000Y538000D01*
X760000Y538000D01*
X760000Y537999D01*
Y522000D01*
X760002Y521782D01*
X760021Y521346D01*
X760059Y520911D01*
X760116Y520479D01*
X760192Y520049D01*
X760286Y519623D01*
X760399Y519202D01*
X760531Y518786D01*
X760680Y518376D01*
X760847Y517972D01*
X761031Y517577D01*
X761233Y517190D01*
X761451Y516812D01*
X761685Y516444D01*
X761935Y516087D01*
X762201Y515741D01*
X762481Y515406D01*
X762776Y515085D01*
X763085Y514776D01*
X763406Y514482D01*
X763741Y514201D01*
X764087Y513936D01*
X764444Y513685D01*
X764812Y513451D01*
X765190Y513233D01*
X765577Y513031D01*
X765972Y512847D01*
X766375Y512680D01*
X766785Y512531D01*
X767202Y512399D01*
X767623Y512287D01*
X768049Y512192D01*
X768478Y512116D01*
X768911Y512059D01*
X769346Y512021D01*
X769782Y512002D01*
X770000Y512000D01*
X770000Y512000D01*
X944000D01*
X944131Y512002D01*
X944392Y512019D01*
X944652Y512053D01*
X944908Y512104D01*
X945161Y512172D01*
X945409Y512256D01*
X945651Y512356D01*
X945886Y512472D01*
X946112Y512603D01*
X946330Y512749D01*
X946538Y512908D01*
X946734Y513080D01*
X946919Y513266D01*
X947092Y513462D01*
X947251Y513670D01*
X947397Y513888D01*
X947528Y514114D01*
X947643Y514349D01*
X947744Y514591D01*
X947828Y514839D01*
X947896Y515092D01*
X947947Y515348D01*
X947981Y515608D01*
X947998Y515869D01*
X948000Y516000D01*
X948000Y528000D01*
X948000Y528196D01*
X948017Y528589D01*
X948051Y528980D01*
X948103Y529369D01*
X948171Y529756D01*
X948256Y530140D01*
X948357Y530519D01*
X948476Y530894D01*
X948610Y531263D01*
X948760Y531626D01*
X948926Y531982D01*
X949108Y532330D01*
X949304Y532670D01*
X949515Y533001D01*
X949740Y533323D01*
X949979Y533635D01*
X950232Y533936D01*
X950497Y534225D01*
X950775Y534503D01*
X951064Y534768D01*
X951365Y535020D01*
X951677Y535260D01*
X951999Y535485D01*
X952330Y535696D01*
X952670Y535892D01*
X953018Y536074D01*
X953374Y536240D01*
X953737Y536390D01*
X954106Y536524D01*
X954481Y536642D01*
X954860Y536744D01*
X955244Y536829D01*
X955630Y536897D01*
X956020Y536949D01*
X956411Y536983D01*
X956804Y537000D01*
X957000Y537000D01*
X957000Y537000D01*
X958000Y537000D01*
X958196Y537000D01*
X958589Y536983D01*
X958980Y536949D01*
X959369Y536897D01*
X959756Y536829D01*
X960140Y536744D01*
X960519Y536642D01*
X960894Y536524D01*
X961263Y536390D01*
X961626Y536240D01*
X961982Y536074D01*
X962330Y535892D01*
X962670Y535696D01*
X963001Y535485D01*
X963323Y535260D01*
X963635Y535021D01*
X963935Y534768D01*
X964225Y534503D01*
X964503Y534225D01*
X964768Y533936D01*
X965021Y533635D01*
X965260Y533323D01*
X965485Y533001D01*
X965696Y532670D01*
X965892Y532330D01*
X966074Y531982D01*
X966240Y531626D01*
X966390Y531263D01*
X966524Y530894D01*
X966642Y530519D01*
X966744Y530140D01*
X966829Y529756D01*
X966897Y529369D01*
X966949Y528980D01*
X966983Y528589D01*
X967000Y528196D01*
X967000Y528000D01*
X967000D01*
X967000Y512000D01*
X967000Y511828D01*
X966983Y511485D01*
X966949Y511143D01*
X966899Y510803D01*
X966832Y510466D01*
X966749Y510132D01*
X966649Y509804D01*
X966533Y509480D01*
X966401Y509162D01*
X966255Y508852D01*
X966093Y508549D01*
X965916Y508254D01*
X965725Y507968D01*
X965520Y507692D01*
X965302Y507426D01*
X965071Y507172D01*
X964828Y506929D01*
X964574Y506698D01*
X964308Y506480D01*
X964032Y506275D01*
X963746Y506084D01*
X963451Y505907D01*
X963148Y505745D01*
X962838Y505598D01*
X962520Y505467D01*
X962196Y505351D01*
X961868Y505252D01*
X961534Y505168D01*
X961197Y505101D01*
X960857Y505051D01*
X960515Y505017D01*
X960172Y505000D01*
X960000Y505000D01*
X769722D01*
X769166Y505018D01*
X768611Y505055D01*
X768057Y505109D01*
X767505Y505182D01*
X766956Y505272D01*
X766411Y505381D01*
X765869Y505507D01*
X765331Y505651D01*
X764799Y505813D01*
X764272Y505992D01*
X763751Y506188D01*
X763237Y506400D01*
X762731Y506630D01*
X762232Y506876D01*
X761741Y507138D01*
X761259Y507417D01*
X760787Y507710D01*
X760324Y508020D01*
X759872Y508344D01*
X759430Y508682D01*
X759000Y509035D01*
X758582Y509402D01*
X758176Y509782D01*
X757783Y510176D01*
X757402Y510582D01*
X757035Y511000D01*
X756682Y511430D01*
X756344Y511872D01*
X756020Y512324D01*
X755711Y512787D01*
X755417Y513259D01*
X755138Y513741D01*
X754876Y514232D01*
X754630Y514731D01*
X754400Y515237D01*
X754188Y515751D01*
X753992Y516272D01*
X753813Y516799D01*
X753651Y517331D01*
X753507Y517869D01*
X753381Y518411D01*
X753272Y518956D01*
X753182Y519505D01*
X753109Y520057D01*
X753055Y520611D01*
X753018Y521166D01*
X753000Y521722D01*
X753000Y522000D01*
X753000D01*
X753000Y538000D01*
X752998Y538218D01*
X752979Y538654D01*
X752941Y539089D01*
X752884Y539521D01*
X752808Y539951D01*
X752713Y540377D01*
X752600Y540798D01*
X752469Y541214D01*
X752320Y541624D01*
X752153Y542027D01*
X751969Y542423D01*
X751767Y542810D01*
X751549Y543188D01*
X751315Y543556D01*
X751064Y543913D01*
X750799Y544259D01*
X750518Y544593D01*
X750223Y544915D01*
X749915Y545224D01*
X749593Y545518D01*
X749259Y545799D01*
X748913Y546064D01*
X748556Y546315D01*
X748187Y546549D01*
X747810Y546767D01*
X747423Y546969D01*
X747027Y547153D01*
X746624Y547320D01*
X746214Y547469D01*
X745798Y547600D01*
X745377Y547713D01*
X744951Y547808D01*
X744521Y547883D01*
X744180Y547928D01*
X744088Y547940D01*
X744088Y547940D01*
X743654Y547978D01*
X743651Y547978D01*
X743218Y547997D01*
X743018Y547999D01*
X743000Y548000D01*
X743000Y548000D01*
X743000Y548000D01*
X705000D01*
X704615Y548000D01*
X703845Y548019D01*
X703075Y548057D01*
X702307Y548113D01*
X701540Y548189D01*
X700776Y548283D01*
X700014Y548396D01*
X699255Y548528D01*
X698499Y548678D01*
X697748Y548847D01*
X697000Y549034D01*
X696258Y549240D01*
X695521Y549463D01*
X694789Y549705D01*
X694064Y549964D01*
X693345Y550242D01*
X692634Y550536D01*
X691929Y550849D01*
X691233Y551178D01*
X690545Y551524D01*
X689865Y551887D01*
X689195Y552267D01*
X688534Y552663D01*
X687884Y553075D01*
X687243Y553503D01*
X686613Y553947D01*
X685995Y554406D01*
X685387Y554879D01*
X684792Y555368D01*
X684209Y555871D01*
X683716Y556318D01*
X682808Y557192D01*
X682807D01*
X643000Y597000D01*
X642856Y597141D01*
X642561Y597414D01*
X642255Y597675D01*
X641939Y597924D01*
X641614Y598161D01*
X641280Y598384D01*
X640937Y598594D01*
X640586Y598791D01*
X640227Y598973D01*
X639862Y599142D01*
X639490Y599295D01*
X639113Y599435D01*
X638731Y599559D01*
X638343Y599668D01*
X637952Y599762D01*
X637558Y599840D01*
X637160Y599903D01*
X636931Y599930D01*
X636761Y599950D01*
X636760Y599950D01*
X636360Y599982D01*
X636358Y599982D01*
X635958Y599997D01*
X635789Y599999D01*
X635757Y600000D01*
X635757Y600000D01*
X635757Y600000D01*
X626000Y600000D01*
X625810Y599998D01*
X625431Y599983D01*
X625053Y599954D01*
X624677Y599909D01*
X624302Y599850D01*
X623930Y599776D01*
X623561Y599687D01*
X623196Y599584D01*
X622836Y599467D01*
X622480Y599336D01*
X622130Y599191D01*
X621785Y599032D01*
X621447Y598860D01*
X621116Y598674D01*
X620793Y598476D01*
X620478Y598265D01*
X620171Y598042D01*
X619873Y597808D01*
X619873Y597807D01*
X619585Y597561D01*
X619583Y597560D01*
X619307Y597304D01*
X619180Y597179D01*
X619171Y597172D01*
X619171Y597172D01*
X619171Y597172D01*
X619156Y597157D01*
X618314Y596369D01*
X618111Y596191D01*
X617664Y595825D01*
X617206Y595473D01*
X616736Y595136D01*
X616256Y594815D01*
X615765Y594510D01*
X615264Y594221D01*
X614755Y593949D01*
X614236Y593693D01*
X613710Y593454D01*
X613176Y593233D01*
X612635Y593030D01*
X612088Y592844D01*
X611535Y592676D01*
X610977Y592527D01*
X610414Y592395D01*
X609847Y592283D01*
X609277Y592189D01*
X608704Y592113D01*
X608129Y592057D01*
X607938Y592044D01*
X606686Y592000D01*
X605000Y592000D01*
X604732Y592000D01*
X604197Y592019D01*
X603663Y592057D01*
X603130Y592114D01*
X602600Y592191D01*
X602073Y592286D01*
X601550Y592400D01*
X601031Y592532D01*
X600517Y592683D01*
X600009Y592852D01*
X599507Y593039D01*
X599012Y593244D01*
X598525Y593467D01*
X598046Y593706D01*
X597576Y593963D01*
X597116Y594236D01*
X596665Y594526D01*
X596225Y594831D01*
X595796Y595152D01*
X595379Y595488D01*
X594975Y595839D01*
X594583Y596204D01*
X594204Y596583D01*
X593839Y596975D01*
X593488Y597379D01*
X593152Y597796D01*
X592831Y598225D01*
X592526Y598665D01*
X592236Y599115D01*
X591963Y599576D01*
X591707Y600046D01*
X591467Y600525D01*
X591244Y601012D01*
X591039Y601507D01*
X590852Y602009D01*
X590683Y602517D01*
X590532Y603031D01*
X590400Y603550D01*
X590286Y604073D01*
X590191Y604600D01*
X590115Y605130D01*
X590057Y605663D01*
X590019Y606197D01*
X590000Y606732D01*
X590000Y607000D01*
X590000Y607000D01*
Y608268D01*
X590019Y608803D01*
X590057Y609337D01*
X590115Y609870D01*
X590191Y610400D01*
X590286Y610927D01*
X590400Y611450D01*
X590532Y611969D01*
X590683Y612483D01*
X590852Y612991D01*
X591039Y613493D01*
X591244Y613987D01*
X591467Y614474D01*
X591706Y614953D01*
X591963Y615423D01*
X592236Y615884D01*
X592526Y616334D01*
X592831Y616774D01*
X593152Y617203D01*
X593488Y617620D01*
X593839Y618025D01*
X594204Y618417D01*
X594582Y618795D01*
X594975Y619160D01*
X595379Y619511D01*
X595796Y619847D01*
X596225Y620168D01*
X596665Y620473D01*
X597115Y620763D01*
X597576Y621036D01*
X598046Y621293D01*
X598525Y621533D01*
X599012Y621755D01*
X599507Y621960D01*
X600008Y622147D01*
X600517Y622316D01*
X601030Y622467D01*
X601549Y622599D01*
X602073Y622713D01*
X602600Y622808D01*
X603130Y622885D01*
X603662Y622942D01*
X604196Y622980D01*
X604731Y622999D01*
X604999D01*
X605000Y623000D01*
X614272D01*
X614649Y623000D01*
X615403Y622981D01*
D02*
G37*
D13*
X519000Y677000D02*
X662000D01*
X690000Y705000D02*
Y751000D01*
X662000Y677000D02*
X690000Y705000D01*
X512000Y670000D02*
X519000Y677000D01*
X690000Y751000D02*
X730000Y791000D01*
Y820000D01*
X512000Y643000D02*
Y670000D01*
Y643000D02*
X530000Y625000D01*
X703000Y946300D02*
X721700Y965000D01*
X690500Y906400D02*
X703000Y918900D01*
Y946300D01*
X782320Y924680D02*
X854000Y853000D01*
X782320Y924680D02*
Y943680D01*
X777000Y949000D02*
X782320Y943680D01*
X977000Y860500D02*
X1011500D01*
X1056000Y905000D01*
X991440Y853440D02*
X1044560D01*
X1052000Y846000D01*
X973000Y835000D02*
X991440Y853440D01*
X965000Y853000D02*
Y875867D01*
X725360Y994000D02*
X846867D01*
X965000Y875867D01*
X694000Y989000D02*
X844880D01*
X959000Y857000D02*
Y874880D01*
X844880Y989000D02*
X959000Y874880D01*
X530000Y586000D02*
Y625000D01*
X520000Y576000D02*
X530000Y586000D01*
X520000Y525250D02*
X532500Y512750D01*
X520000Y525250D02*
Y576000D01*
X587500Y891500D02*
X607500Y871500D01*
X617500D01*
X587500Y891500D02*
Y924500D01*
X582500Y889500D02*
Y927000D01*
Y889500D02*
X606000Y866000D01*
X614000D01*
X587500Y924500D02*
X633000Y970000D01*
X582500Y927000D02*
X630000Y974500D01*
X631500Y857500D02*
X652500D01*
X617500Y871500D02*
X631500Y857500D01*
X614000Y866000D02*
X625000Y855000D01*
X660000Y747000D02*
Y850000D01*
Y747000D02*
X684000Y723000D01*
X633000Y970000D02*
X790000D01*
X652500Y857500D02*
X660000Y850000D01*
X868826Y701352D02*
X876475Y709000D01*
X920000D01*
X839912Y701352D02*
X868826D01*
X931270Y750000D02*
X948806Y732464D01*
X810000Y629000D02*
X826895Y612105D01*
X834145D01*
X850000Y596250D01*
Y586250D02*
Y596250D01*
X805000Y627000D02*
X837500Y594500D01*
Y586250D02*
Y594500D01*
X806000Y605250D02*
Y616000D01*
Y605250D02*
X825000Y586250D01*
X630000Y974500D02*
Y1020000D01*
X755000Y667000D02*
X806000Y616000D01*
X868000Y980000D02*
X897500D01*
X917500Y960000D02*
X925000D01*
X897500Y980000D02*
X917500Y960000D01*
X814594Y680000D02*
X834116D01*
X808799Y685795D02*
X808799D01*
X814594Y680000D01*
X933249Y701351D02*
X940000Y694600D01*
X917692Y654682D02*
X940000Y676989D01*
Y694600D01*
X1053000Y910000D02*
X1096000D01*
X1013000Y870000D02*
X1053000Y910000D01*
X977000Y870000D02*
X1013000D01*
X1084200Y991300D02*
X1111000Y964500D01*
X1056000Y905000D02*
X1099000D01*
X1111000Y917000D01*
Y964500D01*
X1058800Y1008000D02*
X1105000Y961800D01*
Y919000D02*
Y961800D01*
X1096000Y910000D02*
X1105000Y919000D01*
X829000Y647000D02*
X836874Y639126D01*
X855467D01*
X819000Y647000D02*
X829000D01*
X837000D02*
X878705D01*
X829318Y654682D02*
X837000Y647000D01*
X824355Y654682D02*
X829318D01*
X1052000Y846000D02*
X1112000D01*
X1134500Y785000D02*
Y823500D01*
X1112000Y846000D02*
X1134500Y823500D01*
X901000Y854000D02*
X919000D01*
X898000Y857000D02*
X901000Y854000D01*
X898000Y857000D02*
Y889000D01*
X865000Y901000D02*
X883000Y883000D01*
Y850000D02*
X926000Y807000D01*
X883000Y850000D02*
Y883000D01*
X858000Y915000D02*
X888000Y885000D01*
Y852000D02*
X923000Y817000D01*
X888000Y852000D02*
Y885000D01*
X850000Y930000D02*
X893000Y887000D01*
Y854000D02*
X902309Y844691D01*
X893000Y854000D02*
Y887000D01*
X842000Y945000D02*
X898000Y889000D01*
X854000Y853000D02*
X873000D01*
X790000Y970000D02*
X810000Y950000D01*
X844000D02*
X908000Y886000D01*
X810000Y950000D02*
X844000D01*
X808000Y945000D02*
X842000D01*
X721700Y965000D02*
X788000D01*
X808000Y945000D01*
X914691Y844691D02*
X915000Y845000D01*
X840000Y930000D02*
X850000D01*
X750000Y665000D02*
X801500Y613500D01*
Y597250D02*
X812500Y586250D01*
X801500Y597250D02*
Y613500D01*
X1006000Y897500D02*
Y938500D01*
X1014000Y946500D02*
Y986000D01*
X1006000Y938500D02*
X1014000Y946500D01*
X904000Y999000D02*
Y1026000D01*
Y999000D02*
X911000Y992000D01*
X1008000D01*
X1014000Y986000D01*
X1006000Y897500D02*
X1017500Y886000D01*
X639000Y1029000D02*
X845000D01*
X853000Y995000D02*
Y1021000D01*
X845000Y1029000D02*
X853000Y1021000D01*
Y995000D02*
X868000Y980000D01*
X630000Y1020000D02*
X639000Y1029000D01*
X820000Y899000D02*
X829000D01*
X831000Y901000D02*
X865000D01*
X836000Y915000D02*
X858000D01*
X830000Y909000D02*
X836000Y915000D01*
X873000Y853000D02*
X926000Y800000D01*
X947000D01*
X926000Y807000D02*
X949868D01*
X953868Y811000D02*
X954000D01*
X949868Y807000D02*
X953868Y811000D01*
X829000Y899000D02*
X831000Y901000D01*
X923000Y817000D02*
X947000D01*
X902309Y844691D02*
X914691D01*
X919000Y854000D02*
X938000Y835000D01*
X973000D01*
X805000Y627000D02*
Y640000D01*
X790000Y655000D02*
X805000Y640000D01*
X810000Y629000D02*
Y642000D01*
X792000Y660000D02*
X810000Y642000D01*
X774000Y655000D02*
X790000D01*
X760000Y669000D02*
X774000Y655000D01*
X776000Y660000D02*
X792000D01*
X765000Y671000D02*
X776000Y660000D01*
X765000Y671000D02*
Y733000D01*
X770000Y673000D02*
X778000Y665000D01*
X770000Y673000D02*
Y731000D01*
X778000Y665000D02*
X794000D01*
X815000Y637000D02*
X822000Y630000D01*
X827000D01*
X815000Y637000D02*
Y644000D01*
X794000Y665000D02*
X815000Y644000D01*
X850000Y577000D02*
X857000Y584000D01*
X827000Y630000D02*
X857000Y600000D01*
Y584000D02*
Y600000D01*
X824355Y639126D02*
X852481Y611000D01*
X905124D01*
X917692Y623569D01*
X770000Y731000D02*
X788000Y749000D01*
X755000Y667000D02*
Y737000D01*
X760000Y669000D02*
Y735000D01*
X750000Y665000D02*
Y739000D01*
X765000Y733000D02*
X786000Y754000D01*
X760000Y735000D02*
X784000Y759000D01*
X755000Y737000D02*
X782000Y764000D01*
X750000Y739000D02*
X780000Y769000D01*
X782000Y764000D02*
X839000D01*
X784000Y759000D02*
X841000D01*
X786000Y754000D02*
X843000D01*
X780000Y769000D02*
X837000D01*
X788000Y749000D02*
X845000D01*
X856000Y760000D02*
X880000D01*
X845000Y749000D02*
X856000Y760000D01*
X842169Y742500D02*
X891500D01*
X899000Y750000D02*
X931270D01*
X891500Y742500D02*
X899000Y750000D01*
X801038Y678000D02*
X824355Y654683D01*
X801038Y678000D02*
X801038D01*
X793243Y685795D02*
X801038Y678000D01*
X798558Y723000D02*
X818263D01*
X839912Y701352D01*
X791215Y710000D02*
X803000D01*
X785000Y703785D02*
X791215Y710000D01*
X777652Y702094D02*
X798558Y723000D01*
X785000Y694000D02*
Y703785D01*
X961000Y724000D02*
X968000Y731000D01*
X945000Y724000D02*
X961000D01*
X968000Y731000D02*
Y742000D01*
X933249Y716908D02*
X937907D01*
X945000Y724000D01*
X932841Y716499D02*
X933249Y716908D01*
X921000Y694000D02*
X928351Y701351D01*
X933249D01*
X909488Y694000D02*
X921000D01*
X902137Y701351D02*
X909488Y694000D01*
X905000Y657546D02*
X917693Y670238D01*
X886580Y623569D02*
X905000Y641989D01*
Y657546D01*
X915000Y631000D02*
X941373D01*
X855467Y639126D02*
X878593Y616000D01*
X900000D01*
X915000Y631000D01*
X927499Y716499D02*
X932841D01*
X920000Y709000D02*
X927499Y716499D01*
X886581Y724419D02*
X897000Y714000D01*
X886581Y724419D02*
Y732464D01*
X897000Y714000D02*
X908000D01*
X910908Y716908D02*
X917693D01*
X908000Y714000D02*
X910908Y716908D01*
X871024Y693573D02*
X888000D01*
X895778Y701351D01*
X902137D01*
X803000Y710000D02*
X808799Y704201D01*
Y685795D02*
Y704201D01*
X941373Y631000D02*
X948805Y623569D01*
X786000Y680000D02*
X819000Y647000D01*
X786000Y680000D02*
Y688000D01*
X793243Y695243D01*
Y701352D01*
X834116Y680000D02*
X839911Y685795D01*
X778000Y678331D02*
Y687000D01*
X777652Y677982D02*
X778000Y678331D01*
Y687000D02*
X785000Y694000D01*
X878705Y647000D02*
X886580Y639125D01*
X859000Y770000D02*
X880000D01*
X843000Y754000D02*
X859000Y770000D01*
X862000Y780000D02*
X880000D01*
X841000Y759000D02*
X862000Y780000D01*
X865000Y790000D02*
X880000D01*
X839000Y764000D02*
X865000Y790000D01*
X837000Y769000D02*
X868000Y800000D01*
X880000D01*
X863246Y685795D02*
X871024Y693573D01*
X839911Y685795D02*
X863246D01*
X1084200Y991300D02*
Y1008000D01*
X687960Y995040D02*
X694000Y989000D01*
X687960Y995040D02*
Y1008000D01*
X713360Y1006000D02*
X725360Y994000D01*
X713360Y1006000D02*
Y1008000D01*
X959500Y847500D02*
X965000Y853000D01*
D144*
X715900Y931800D02*
D03*
X591440Y1008000D02*
D03*
X687960D02*
D03*
X957200Y1008000D02*
D03*
X779400Y525400D02*
D03*
X1008000D02*
D03*
X677800D02*
D03*
D145*
X690500Y931800D02*
D03*
X665100D02*
D03*
X665100Y906400D02*
D03*
X690500D02*
D03*
X715900D02*
D03*
X616840Y1008000D02*
D03*
X789560D02*
D03*
X738760D02*
D03*
X713360D02*
D03*
X764160D02*
D03*
X916560D02*
D03*
X814960D02*
D03*
X840360D02*
D03*
X865760Y1008000D02*
D03*
X891160Y1008000D02*
D03*
X1058800Y1008000D02*
D03*
X1008000D02*
D03*
X982600D02*
D03*
X1033400D02*
D03*
X1084200D02*
D03*
X1109600D02*
D03*
X1135000Y1008000D02*
D03*
X881000Y525400D02*
D03*
X830200D02*
D03*
X804800D02*
D03*
X855600D02*
D03*
X906400D02*
D03*
X931800D02*
D03*
X957200Y525400D02*
D03*
X1135000Y525400D02*
D03*
X1084200D02*
D03*
X1033400D02*
D03*
X1058800D02*
D03*
X1109600D02*
D03*
X703200D02*
D03*
X728600D02*
D03*
D146*
X586300Y856250D02*
D03*
Y693750D02*
D03*
D147*
X643400Y843600D02*
D03*
Y820700D02*
D03*
Y729300D02*
D03*
Y706400D02*
D03*
D148*
X577400Y800300D02*
D03*
X595200Y810700D02*
D03*
X577400Y779900D02*
D03*
X595200Y790100D02*
D03*
X577400Y759500D02*
D03*
X595200Y769700D02*
D03*
Y749300D02*
D03*
D149*
X577400Y739100D02*
D03*
D150*
X527000Y970200D02*
D03*
Y883800D02*
D03*
D151*
X568800Y970200D02*
D03*
Y883800D02*
D03*
D152*
X550000Y607500D02*
D03*
D153*
X606000D02*
D03*
D154*
X544000Y658000D02*
D03*
X592000D02*
D03*
X544000Y557000D02*
D03*
X592000D02*
D03*
D155*
X639700Y525400D02*
D03*
X652400Y1008000D02*
D03*
X1160400Y855600D02*
D03*
Y576200D02*
D03*
D156*
X627000Y574500D02*
D03*
Y566403D02*
D03*
X587000Y509000D02*
D03*
X946434Y874434D02*
D03*
X1140000Y592000D02*
D03*
X1123000D02*
D03*
X1087000Y604613D02*
D03*
X1086000Y616000D02*
D03*
X1105000Y613000D02*
D03*
X730000Y820000D02*
D03*
X532500Y512750D02*
D03*
X620000Y903000D02*
D03*
X625000Y855000D02*
D03*
X596000Y894000D02*
D03*
X604000Y928000D02*
D03*
X668000Y774000D02*
D03*
X684000Y767000D02*
D03*
X670500Y808500D02*
D03*
X694000Y835000D02*
D03*
X668000Y876500D02*
D03*
X902500Y908000D02*
D03*
X948806Y732464D02*
D03*
X1132000Y578000D02*
D03*
X1122000Y776000D02*
D03*
X1130436Y775978D02*
D03*
X1018250Y711000D02*
D03*
X975000D02*
D03*
X1027300Y669300D02*
D03*
X1004000Y635000D02*
D03*
X1010934Y641934D02*
D03*
X1012500Y754000D02*
D03*
X777500Y889500D02*
D03*
Y900500D02*
D03*
X1095000Y578000D02*
D03*
X1058000Y578000D02*
D03*
X1021000Y578000D02*
D03*
X984000D02*
D03*
X812500Y610000D02*
D03*
X1076500Y780000D02*
D03*
X1099000Y925000D02*
D03*
X1102500Y860500D02*
D03*
Y868000D02*
D03*
X1102500Y889500D02*
D03*
Y882000D02*
D03*
X964691Y801309D02*
D03*
X982500Y974000D02*
D03*
X972500Y959500D02*
D03*
X1002500Y835500D02*
D03*
X977000Y870000D02*
D03*
X1022000Y826000D02*
D03*
X1063000Y828000D02*
D03*
X1057000Y855000D02*
D03*
X716250Y737250D02*
D03*
Y727750D02*
D03*
X867000Y867000D02*
D03*
X904000Y862500D02*
D03*
X876000Y867500D02*
D03*
X753500Y876500D02*
D03*
X775000Y928000D02*
D03*
X777000Y949000D02*
D03*
X815750Y919950D02*
D03*
X764250Y876500D02*
D03*
X688000Y626500D02*
D03*
X696000D02*
D03*
X696000Y580500D02*
D03*
X688000D02*
D03*
X642000Y875000D02*
D03*
X769000Y956000D02*
D03*
X836000Y964000D02*
D03*
X904000Y1026000D02*
D03*
X995000Y960000D02*
D03*
X1005000D02*
D03*
X632000Y887500D02*
D03*
X907500Y959500D02*
D03*
X867000Y843000D02*
D03*
X684000Y723000D02*
D03*
X628000Y925000D02*
D03*
X820000Y899000D02*
D03*
X790150Y945350D02*
D03*
X775000Y917500D02*
D03*
X947000Y800000D02*
D03*
X840000Y930000D02*
D03*
X846000Y964000D02*
D03*
X914691Y844691D02*
D03*
X835000Y842000D02*
D03*
X733000Y692000D02*
D03*
Y683000D02*
D03*
X716000Y709000D02*
D03*
X943000Y771250D02*
D03*
X954000Y811000D02*
D03*
X947500Y787500D02*
D03*
X850000Y586250D02*
D03*
X825000D02*
D03*
X786000Y597500D02*
D03*
X793500Y605000D02*
D03*
X793242Y639126D02*
D03*
X824355Y623569D02*
D03*
X980250Y616000D02*
D03*
X886580Y623569D02*
D03*
X917692Y623569D02*
D03*
X968000Y742000D02*
D03*
X753500Y634000D02*
D03*
X880000Y760000D02*
D03*
Y770000D02*
D03*
Y780000D02*
D03*
Y790000D02*
D03*
Y800000D02*
D03*
X917693Y670238D02*
D03*
X850000Y577000D02*
D03*
X837500Y586250D02*
D03*
X812500Y586250D02*
D03*
X855467Y623569D02*
D03*
X917498Y700999D02*
D03*
X1088500Y965000D02*
D03*
X1025000Y927000D02*
D03*
X1020000Y898500D02*
D03*
X741000Y658000D02*
D03*
X1066500Y854500D02*
D03*
X1039000Y587000D02*
D03*
X1018000Y694000D02*
D03*
X1027300Y702300D02*
D03*
X1074000Y854500D02*
D03*
X1042000Y786000D02*
D03*
X1057000Y895000D02*
D03*
X1017500Y886000D02*
D03*
X777652Y677982D02*
D03*
X776549Y563498D02*
D03*
X995000Y554000D02*
D03*
X752049Y563498D02*
D03*
X743951D02*
D03*
X731000Y577000D02*
D03*
X1106000Y554000D02*
D03*
X1069000D02*
D03*
X1032000Y554000D02*
D03*
X583000Y951000D02*
D03*
X951000Y967000D02*
D03*
X1027500Y718700D02*
D03*
X992000Y917500D02*
D03*
X974000Y764000D02*
D03*
X975000Y702500D02*
D03*
X954000Y603000D02*
D03*
X948805Y716907D02*
D03*
X1015000Y935000D02*
D03*
X1057750Y918000D02*
D03*
X1029000Y846500D02*
D03*
X963000Y967000D02*
D03*
X830000Y909000D02*
D03*
X777652Y702094D02*
D03*
X839911Y685795D02*
D03*
X855468Y670239D02*
D03*
X948805Y623569D02*
D03*
X855467Y639126D02*
D03*
X948805Y639125D02*
D03*
X824355Y639126D02*
D03*
X948849Y670282D02*
D03*
X948805Y685794D02*
D03*
X917693Y716908D02*
D03*
X886580Y701351D02*
D03*
X839912Y701352D02*
D03*
X886580Y670238D02*
D03*
X917692Y654682D02*
D03*
X902137Y701351D02*
D03*
X933249Y701351D02*
D03*
X933249Y716908D02*
D03*
X842169Y742500D02*
D03*
X872831Y705387D02*
D03*
X798056Y742500D02*
D03*
X855468Y732464D02*
D03*
X808799Y685795D02*
D03*
X839911Y654682D02*
D03*
X839911Y670239D02*
D03*
X886581Y732464D02*
D03*
X793243Y732464D02*
D03*
X824355Y732464D02*
D03*
X886580Y639125D02*
D03*
X824355Y654682D02*
D03*
X793243Y685795D02*
D03*
X902137Y732464D02*
D03*
X919000Y742500D02*
D03*
X917692Y639125D02*
D03*
X855468Y654682D02*
D03*
X839912Y716908D02*
D03*
X824355Y685795D02*
D03*
X808799Y716908D02*
D03*
X871024Y693573D02*
D03*
X793243Y701352D02*
D03*
X903943Y720943D02*
D03*
X917693Y732464D02*
D03*
X768500Y563498D02*
D03*
X793500Y597500D02*
D03*
X834000Y778000D02*
D03*
X875000Y582500D02*
D03*
X946000Y578000D02*
D03*
X786000Y605000D02*
D03*
X692000Y603500D02*
D03*
X687000Y610000D02*
D03*
X697000D02*
D03*
Y597000D02*
D03*
X687000D02*
D03*
X826000Y819000D02*
D03*
X787500Y900000D02*
D03*
X741000Y930000D02*
D03*
X761500Y912500D02*
D03*
X650951Y607998D02*
D03*
X659049D02*
D03*
X1134500Y785000D02*
D03*
X865000Y582500D02*
D03*
X642000Y900000D02*
D03*
X834000Y792000D02*
D03*
X945000Y603000D02*
D03*
X720000Y577000D02*
D03*
X708000Y563000D02*
D03*
X627000Y586403D02*
D03*
Y594500D02*
D03*
X716000Y684500D02*
D03*
Y677000D02*
D03*
Y692500D02*
D03*
Y700000D02*
D03*
X920000Y554000D02*
D03*
X885000Y988000D02*
D03*
X874000Y988000D02*
D03*
X684500Y799500D02*
D03*
X695000Y765550D02*
D03*
X693500Y808500D02*
D03*
X675500Y819500D02*
D03*
X1089500Y895500D02*
D03*
X1082000D02*
D03*
X1088500Y935000D02*
D03*
X1066500Y945500D02*
D03*
X1031000Y898500D02*
D03*
X1040000Y745000D02*
D03*
X1049000Y753000D02*
D03*
X1118000Y805000D02*
D03*
X1128000Y792000D02*
D03*
X875000Y877000D02*
D03*
X917500Y974000D02*
D03*
X1043700Y718700D02*
D03*
X1060200D02*
D03*
X1076700Y718700D02*
D03*
Y702300D02*
D03*
Y685800D02*
D03*
Y669300D02*
D03*
X1060300D02*
D03*
X1043800Y669300D02*
D03*
X1027300Y685800D02*
D03*
X1043800D02*
D03*
X1060300D02*
D03*
Y702300D02*
D03*
X1043800Y702300D02*
D03*
X1019000Y846000D02*
D03*
X977000Y860500D02*
D03*
X959500Y847500D02*
D03*
X947000Y817000D02*
D03*
X959000Y857000D02*
D03*
X1179000Y830000D02*
D03*
X890000Y815000D02*
D03*
X958000Y554000D02*
D03*
X973000Y934000D02*
D03*
X961000Y934000D02*
D03*
X953000Y934000D02*
D03*
X941000D02*
D03*
X943000Y967000D02*
D03*
X925000Y960000D02*
D03*
X931000Y967000D02*
D03*
X1057000Y971000D02*
D03*
X932000Y860000D02*
D03*
X940000Y867000D02*
D03*
X950000D02*
D03*
X935000Y850000D02*
D03*
X845000Y907250D02*
D03*
X845000Y894550D02*
D03*
X908000Y871000D02*
D03*
Y878500D02*
D03*
Y886000D02*
D03*
X1138871Y775956D02*
D03*
X1147307Y775934D02*
D03*
X1155742Y775912D02*
D03*
X1164178Y775890D02*
D03*
X1172613Y775868D02*
D03*
X1181049Y775846D02*
D03*
Y612154D02*
D03*
X1172613Y612132D02*
D03*
X1164178Y612110D02*
D03*
X1155742Y612088D02*
D03*
X1147307Y612066D02*
D03*
X1138871Y612044D02*
D03*
X1130436Y612022D02*
D03*
X1111500Y772000D02*
D03*
X1103000Y772000D02*
D03*
X1114000Y753500D02*
D03*
Y745000D02*
D03*
Y736500D02*
D03*
Y728000D02*
D03*
Y719500D02*
D03*
Y711000D02*
D03*
Y702500D02*
D03*
Y694000D02*
D03*
Y685500D02*
D03*
X1114000Y677000D02*
D03*
X1114000Y668500D02*
D03*
Y660000D02*
D03*
Y651500D02*
D03*
Y643000D02*
D03*
X1114022Y634564D02*
D03*
X1122000Y612000D02*
D03*
X1094500Y616000D02*
D03*
X1143000Y785000D02*
D03*
Y798000D02*
D03*
Y811000D02*
D03*
Y824000D02*
D03*
X1040000Y730000D02*
D03*
X1049000Y737000D02*
D03*
X1089000Y754000D02*
D03*
X1074000D02*
D03*
D157*
X930000Y780000D02*
X967500D01*
X996000Y846000D02*
X1019000D01*
X982500Y795000D02*
Y832500D01*
X967500Y780000D02*
X982500Y795000D01*
Y832500D02*
X996000Y846000D01*
X787000Y785000D02*
X842000D01*
X741000Y739000D02*
X787000Y785000D01*
X741000Y658000D02*
Y739000D01*
X864000Y807000D02*
X903000D01*
X930000Y780000D01*
X842000Y785000D02*
X864000Y807000D01*
M02*
