M48
;Layer_Color=9474304
;FILE_FORMAT=4:3
METRIC,LZ
;TYPE=PLATED
T2F00S00C0.600
T3F00S00C0.800
T5F00S00C0.900
;TYPE=NON_PLATED
%
G90
G05
T02
G00X00523Y008838
M15
G01X00531
M16
G00X005743Y008838
M15
G01X005633
M16
G00X005743Y009702
M15
G01X005633
M16
G00X00531Y009702
M15
G01X00523
M16
T03
G00X00539Y00557
M15
G01X00549
M16
G00X00587Y00557
M15
G01X00597
M16
G00X0055Y006025
M15
G01Y006125
M16
G00X00539Y00658
M15
G01X00549
M16
G00X00587Y00658
M15
G01X00597
M16
T05
G00X005798Y0069375
M15
G01X005928
M16
G00X005798Y0085625
M15
G01X005928
M16
M17
M30
